<?xml version="1.0" encoding="UTF-8"?>
<svg width="1200pt" height="1200pt" version="1.1" viewBox="0 0 1200 1200" xmlns="http://www.w3.org/2000/svg">
 <path d="m633.61 488.14c0.61328 13.734 1.043 27.473 1.332 41.215 0.70703 33.551 0.16797 67.117-1.2109 100.65-0.22266 0.43359-0.22656 0.94141-0.054687 1.3867-0.21094 4.9922-0.4375 9.9766-0.68359 14.965-4.0312-25.543-13.219-50.484-25.555-72.859-16.879-30.637-42.547-62.418-79.586-67.004-17.027-2.1055-33.918 3.0859-47.316 13.691-13.664 10.816-22.645 26.863-25.844 43.902-3.0117 16.074-2.1367 35.09 9.7852 47.531 9.6914 10.117 25.352 14.914 38.824 10.344 12.684-4.3008 21.469-16.66 22.746-29.812 0.64844-6.7031-0.79297-14.07-4.9062-19.52-3.6172-4.8008-10.453-8.0391-15.605-3.457-0.19922 0.17969-0.39062 0.37109-0.57422 0.5625-0.14453-0.011719-0.28906-0.035156-0.4375-0.035156-4.2461 0-7.6914 4.7344-7.6914 10.566s3.4453 10.559 7.6914 10.559 7.6992-4.7266 7.6992-10.559c0-4.4922-2.0508-8.3203-4.9336-9.8477 1.7266-1.0156 3.8945-1.3789 5.8359-0.83594 3.7734 1.0625 6.3672 4.6445 7.9258 8.0469 2.6758 5.8125 2.9102 12.562 1.3438 18.715-3.1914 12.504-13.609 22.66-26.695 23.863-13.004 1.1875-26.562-5.6055-33.109-16.949-8.1406-14.117-6.2695-32.93-1.2891-47.789 4.9336-14.719 14.418-27.715 27.641-36.008 13.309-8.3477 29.074-11.062 44.426-7.6602 32.352 7.1719 54.473 35.465 69.785 62.98 16.68 29.969 25.117 62.844 28.469 96.695-0.17969 2.9531-0.35938 5.9023-0.54688 8.8555-1.5586 24.629-3.4609 49.234-5.543 73.824l-1.1992 13.922c-0.023438 0.22656-0.042969 0.45703-0.0625 0.68359-1.7266-3.8633-3.5156-7.7109-5.1172-11.574-3.0898-7.457-6.2383-14.91-10.016-22.055-6.4961-12.316-15.035-24.871-27.047-32.426-5.2383-3.3008-12.523-4.8242-16.77 0.86328-4.0117 5.3711-3.0156 13.566-1.1445 19.523 4.1641 13.266 14.695 25.086 24.473 34.633 10.098 9.8516 21.797 17.945 34.465 24.133-1.4766 16.453-3 32.898-4.543 49.34-1.3789 14.719-2.8008 29.465-3.9844 44.242-3.1016-13.375-8.6758-26.082-17.672-36.617-10.363-12.137-24.457-21.402-38.988-27.785-14.383-6.3164-30.078-9.9844-45.84-9.4141-15.359 0.5625-31.477 5.0469-43.398 15.102-12.449 10.5-16.906 26.879-19.625 42.324-2.7188 15.484-2.2734 31.836 8.1016 44.527 9.4219 11.527 24.652 18.457 39.48 18.438 15.727-0.019531 30.355-8.8906 35.699-24.02 2.3867-6.7695 2.5664-14.629-0.57031-21.191-2.1953-4.6094-6.1914-8.5195-10.996-9.793-0.80469-4.2188-5.4805-7.457-11.137-7.457-6.2227 0-11.27 3.9102-11.27 8.7422 0 4.8281 5.0469 8.7422 11.27 8.7422 5.6406 0 10.301-3.2227 11.125-7.4141 4.9727 1.8555 8.4961 7.3984 9.6172 12.457 1.3555 6.0898 0.17578 12.551-2.6328 18.059-6.3398 12.445-19.352 18.703-33.047 18.035-13.848-0.67188-28.02-7.8711-36.023-19.324-8.8008-12.594-7.6094-28.445-4.5-42.727 3.0859-14.16 7.625-28.312 19.762-37.285 11.293-8.3477 25.746-11.969 39.625-12.211 28.109-0.48438 57.652 12.473 76.738 33.07 10.68 11.539 16.512 26.102 19.289 41.41 1.9688 10.879 2.2695 21.863 2.6328 32.863-0.875 23.074-0.59375 46.156 1.9062 69.188 4.5664 42.059 16.5 86.129 41.844 120.71 3.1328 4.2734 6.582 8.2188 10.273 12.008 2.8242 2.9102 8.2031-0.96094 5.7539-4.4414-12.281-17.484-23.652-35.262-31.621-55.188-8.0273-20.082-13.324-41.203-16.508-62.574-7.3672-49.488-2.8906-99.973 1.6875-149.5 2.9141-31.52 5.832-63.031 8.4141-94.578v-0.007812c0.83594-1.7773 1.6797-3.5469 2.5508-5.3047 6.8516-13.883 14.164-27.582 22.184-40.828 15.09-24.93 34.355-48.941 61.855-60.641 26.281-11.18 59.73-7.5 79.938 14.023 10.645 11.34 11.203 27.227 10.121 41.914-1.0977 14.914-4.1836 30.883-12.652 43.5-4.1992 6.2539-10.105 10.828-17.617 12.148-6.7578 1.1836-13.949-0.25781-19.688-4.0195-9.9727-6.5352-13.23-19.688-9.6133-30.574 1.3555 4.1445 3.8594 6.9297 6.7188 6.9297 4.3086 0 7.8008-6.3125 7.8008-14.102 0-7.7891-3.4922-14.105-7.8008-14.105s-7.8047 6.3125-7.8047 14.105c0 1.4219 0.12109 2.7891 0.33594 4.0859-4.3438 9.0117-3.9531 20.195 1.4883 28.777 6.6523 10.492 20.094 14.855 31.938 12.035 15.043-3.582 22.59-18.57 26.734-32.172 2.5273-8.2852 3.8945-16.895 4.6016-25.512 0.62891-7.7266 0.81641-15.535-0.39062-23.215-4.9883-31.867-42.496-47.621-71.652-44.719-32.203 3.2031-58.211 25.172-76.758 50.305-11.348 15.371-20.734 32.207-29.578 49.105-0.49609 0.95312-0.99609 1.9023-1.4883 2.8516 1.0273-13.145 1.9805-26.297 2.8359-39.457 1.4023-21.547 2.5625-43.121 3.3789-64.703 22.16-9.3242 40.68-25.883 52.398-47.016 1.6328-2.9531 3.125-5.9805 4.4688-9.0781 1.2969-2.9922 2.8633-6.2578 3.1367-9.5508 0.49609-6.0703-4.8555-10.074-10.613-9.5625-6.5234 0.57031-12.984 5.4375-17.902 9.3945-5.2734 4.2461-9.9766 9.1562-14.117 14.508-6.6172 8.543-12.055 18.188-16.637 28.184 0.53516-20.82 0.71484-41.645 0.43359-62.473-0.48047-35.137-2.6094-70.211-6.6797-105.09 3.6602-1.7656 7.1328-4.0273 10.402-6.3047 5.0508-3.5156 9.8359-7.5078 14.18-11.867 8.7109-8.7344 15.703-19.156 20.43-30.551 1.9727-4.7656 5.3164-11.496 3.875-16.777-1.8711-6.8594-9.2461-4.2969-13.488-1.6016-10.531 6.6953-19.398 15.75-26.062 26.293-4.5 7.1094-7.8672 14.809-10.039 22.848 1.0312-12.719 1.332-25.535 1.8008-38.25 0.61719-16.648 0.44922-33.617 3.043-50.113 3.9531-25.172 15.254-50.629 35.738-66.617 11.605-9.0664 25.77-13.98 40.098-16.766 14.824-2.8789 30.828-2.0938 42.512 8.5547 11.426 10.41 15.82 26.004 14.594 41.102-1.1289 13.816-6.7578 28.871-20.574 34.32-12.289 4.8438-27.727 1.7383-35.496-9.4336-5.7852-8.3203-7.0078-19.453-3.6406-28.906l0.070312 0.035157c4.5977 2.0898 11.215-2.5859 14.773-10.434 3.5625-7.8477 2.7188-15.898-1.8789-17.988-4.6016-2.0898-11.215 2.5859-14.773 10.434-2.9453 6.4922-2.8789 13.121-0.16406 16.402-3.3672 7.9375-3.6484 17.203-0.625 25.352 4.3867 11.824 15.047 19.332 27.512 20.418 13.488 1.1719 26.32-5.375 32.832-17.285 7.7227-14.125 8.8008-33.023 3.2344-48.055-5.1797-13.992-16.465-25.41-31.141-29.047-15.965-3.9531-34.016-0.14453-49.184 5.375-28.285 10.297-46.914 35.238-55.727 63.289-5.5508 17.672-6.3555 36.035-7.1172 54.406-3.0781-30.371-9.4023-60.559-18.809-89.34-7.0195-21.473-15.996-42.367-27.203-61.996-10.914-19.117-23.812-38.09-40.523-52.633-16.168-14.074-37.805-25.734-59.027-15.652-17.988 8.5508-29.488 27.898-32.957 46.98-3.4961 19.266 0.17969 40.043 11.426 56.25 10.914 15.719 31.973 28.105 49.883 15.406 16.031-11.363 22.457-34.41 18.176-53.039-2.1367-9.2812-7.3633-19.414-16.078-24.035-8.7852-4.6562-18.09-0.75-22.367 7.9062-0.19922 0.40234-0.38281 0.80859-0.55859 1.2227-1.0391-0.74219-2.1836-1.1641-3.4023-1.1641-4.4766 0-8.1016 5.5664-8.1016 12.438s3.625 12.445 8.1016 12.445c4.4766 0 8.0938-5.5742 8.0938-12.445 0-3.5352-0.96094-6.7148-2.4961-8.9766 2.7852-6.0664 7.1875-11.004 14.484-9.4492 9.4609 2.0156 15.086 13.008 17.23 21.535 4.2773 16.984-1.0664 39.551-16.32 49.699-17.43 11.605-36.391-3.4727-45.109-18.648-8.957-15.59-11.242-34.734-6.918-52.117 4.2656-17.141 15.84-34.836 33.27-40.711 20.094-6.7812 40.223 7.6797 53.934 21.043 14.488 14.125 25.848 31.414 35.621 49.039 9.8203 17.699 17.809 36.355 24.188 55.555 6.4375 19.391 11.293 39.305 14.824 59.43 1.7773 10.098 3.2148 20.258 4.3438 30.449 0.34375 3.0781 0.62891 6.1562 0.88672 9.2383l3.6172 47.812 1.043 11.801v0.007812c0.007812 0.046875 0.007812 0.089844 0.011718 0.13672v0.007813c0.13672 1.6758 0.27734 3.3555 0.41016 5.0273 0.94141 11.898 1.6992 23.812 2.3164 35.742-14.105-25.363-32.633-49.176-59.363-61.68-5.3164-2.4883-13.344-6.7305-19.133-3.2812-6.2031 3.6953-3.293 13.824-1.668 19.289 4.2969 14.43 14.418 26.734 26.441 35.527 15.762 11.531 34.668 17.684 53.035 23.688 1.0195 0.32812 1.4297-1.2422 0.4375-1.5977"/>
</svg>
