<?xml version="1.0" encoding="UTF-8"?>
<svg width="1200pt" height="1200pt" version="1.1" viewBox="0 0 1200 1200" xmlns="http://www.w3.org/2000/svg">
 <path d="m939.2 578.44c-33.246 17.969-71.562 21.973-108.53 25.918-38.797 4.1406-77.184 9.2383-113.37 24.676-35.316 15.07-67.25 37.137-96.117 62.281-11.398 9.9297-22.551 20.383-32.055 32.172 3.1055-14.102 5.5273-28.332 7.5312-42.633 0.4375-3.1133 0.85156-6.2344 1.2539-9.3555v-0.023438c0.10156-0.77344 0.19922-1.5547 0.29297-2.3281 0.10938-0.81641 0.21094-1.6367 0.30469-2.4531 0.14844-1.1875 0.29297-2.3711 0.43359-3.5586 13.176-18.031 35.25-26.203 55.086-34.621 22.973-9.7578 45.059-21.438 65.801-35.336 40.867-27.367 75.785-63.809 98.84-107.44 12.863-24.355 21.637-50.898 25.512-78.176 0.49219-3.4492-7.5781-0.91016-8.8398-0.10156-45.938 29.453-100.68 40.254-148.28 66.449-22.801 12.551-43.23 28.738-59.508 49.129-6.2539 7.8281-11.891 16.164-16.871 24.883 3.8047-37.309 7.4531-74.621 10.098-112.03 0-0.035156 0.007812-0.078125 0.007812-0.11328 0.13672-0.3125 0.27734-0.61719 0.41406-0.92969 43.008-7.0156 86.125-15.457 125.46-34.895 37.523-18.539 71.785-48.012 86.359-88.266 7.9922-22.066 9.8594-46.441 3.3594-69.125-0.92578-3.2227-9.8516 0.28906-10.68 2.4609-14.555 38.285-57.156 52.508-92.785 63.738-20.824 6.5703-42 13.277-60.738 24.77-5.543 3.4023-10.703 7.1875-15.496 11.34 5.4844-16.758 10.223-33.742 13.867-51.02 5.207-24.684 8.0352-49.934 7.4141-75.18-0.65234-26.742-5.4648-53.129-10.867-79.254-6.1484-29.734-12.93-59.34-20.316-88.789-0.79297-3.1484-9.5625 0.32813-10.367 2.3867-19.02 48.703-35.695 98.297-49.949 148.6-6.9844 24.625-14.012 49.578-15.414 75.266-1.3672 24.887 2.5273 49.645 9.1016 73.602 7.4336 27.07 18.18 53.012 29.305 78.738 0.1875 0.42578 0.36719 0.85156 0.55078 1.2773 0.066406 0.14844 0.16016 0.26953 0.29297 0.36719-0.33594 2.6523-0.67969 5.3086-1.0195 7.9609-0.14844 1.1758-0.30078 2.3594-0.44922 3.5352-0.20313 1.5703-0.40234 3.1445-0.60156 4.7148-2.1406 16.77-4.2227 33.547-6.043 50.363-2.6758 24.703-5.1172 49.441-7.6328 74.16-3.8828-30.328-11.863-59.812-23.609-88.062-23.617-56.789-60.098-107.14-97.781-155.29-9.5469-12.199-19.109-24.395-28.914-36.383-4.9727-6.0859-10.129-12.055-15.82-17.484-4.7812-4.5664-10.973-11.117-17.863-12.043-3.7148-0.50391-8.0273 0.49609-11.082 2.6875-3.0117 2.1641-3.5117 5.25-4.0938 8.6953-1.3008 7.6484-2.3086 15.355-3.0312 23.082-1.4219 15.266-1.7656 30.648-0.94922 45.961 3.3008 62.023 24.926 121.33 61.219 171.59 35.852 49.637 82.031 90.27 124.25 134.23 2.7617 2.875 5.4883 5.7656 8.207 8.6758 0.054687 0.91016 0.12109 1.8242 0.19141 2.7344-2.9023 22.949-6.5391 45.785-11.73 68.297-3.1562 13.688-7.1758 27.047-11.754 40.207-2.0391-34.242-13.691-68.18-29.273-98.328-36.895-71.43-98.664-125.06-161.27-173.52-19.352-14.977-38.953-29.621-58.801-43.938-9.9258-7.1562-19.906-14.23-29.945-21.215-8.5273-5.9336-17.348-12.098-28.078-12.59-1.7109-0.078125-10.188 1.1875-9.168 4.3125 12.305 37.848 23.184 76.164 32.551 114.85 4.5859 18.941 8.7539 37.969 12.73 57.043 3.8516 18.469 7.6992 36.961 12.875 55.109 5.207 18.254 11.977 35.875 20.629 52.777 8.418 16.453 17.797 32.473 27.574 48.145 18.715 29.98 40.043 58.859 66.77 82.223 27.574 24.109 60.762 42.223 97.141 48.09-1.9805 5.1953-3.8828 10.41-5.6758 15.648-0.34375 0.99609-0.68359 1.9922-1.0156 2.9883-9.8984 29.551-16.434 59.93-15.949 91.66 0.73047 47.152 10.676 95.371-8.832 140.29-2.1133 4.8594-4.6016 9.5508-7.5 13.984-2.0352 3.1094 1.9023 3.75 4.3125 3.6289 3.4219-0.16016 8.9922-1.4648 11.191-4.4805 28.32-38.941 22.656-89.207 19.645-134.4-1.6367-24.539-1.8281-48.895 2.6836-73.156 3.0234-16.266 7.6953-32.176 13.188-47.785 2.3945-3.1133 5.0039-6.0508 7.1914-9.3281 5.2617-4.7852 11.426-8.6406 17.992-11.457 17.473-7.5 37.066-7.7773 55.75-8.9258 20.102-1.2344 39.703-4.3164 59.141-9.6211 19.738-5.3906 38.969-12.488 58.148-19.57 18.207-6.7227 36.414-13.66 52.68-24.434 15.918-10.539 29.855-24.082 43.297-37.551 25.48-25.539 48.543-53.504 68.781-83.371 22.77-33.602 41.672-69.438 56.926-107.04 1.25-3.082-7.5117-0.51953-8.2891-0.10156z"/>
</svg>
