<?xml version="1.0" encoding="UTF-8"?>
<svg width="1200pt" height="1200pt" version="1.1" viewBox="0 0 1200 1200" xmlns="http://www.w3.org/2000/svg">
 <path d="m884.68 531c-7.4258-7.6211-14.898-15.309-20.199-24.125-7.1523-11.891-8.1094-25.941-13.805-38.441-6.0039-13.18-17.781-22.184-29.074-30.621-12.074-9.0234-24.398-18.027-38.797-22.973-15.281-5.2461-31.688-4.8125-47.414-2.0195-13.809 2.4531-27.609 6.2969-40.637 11.5-11.434 4.5664-22.809 10.875-30.898 20.363-9.1953 10.781-13.242 24.359-12.102 38.461 1.2617 15.625 7.5 30.219 14.133 44.242 6.0156 12.719 12.668 25.16 20.273 36.996-0.042968 0.66406 2.0078 5.7734 5.0703 12.777-4.9727 5.7578-9.8945 11.562-14.648 17.492-6.6172 8.2656-12.758 16.965-18.867 25.602-11.258 15.879-21.742 32.242-31.719 48.945-0.042969-0.38672-0.085938-0.76953-0.13281-1.1562-0.46484-3.9336-1.0625-7.8516-1.8203-11.762-2.3203-11.914-6.2773-24.242-14.664-33.32-4.2031-4.5508-10.387-8.1445-16.68-5.7617-5.918 2.2422-8.9258 8.9375-9.5977 14.832-1.3789 12.191 3.793 25.062 9.3008 35.68 5.0742 9.7852 11.473 18.602 18.273 27.172 0.11328 0.14062 0.22266 0.28125 0.33594 0.42188-0.92188 1.6719-1.8477 3.3398-2.7539 5.0195-15.516 28.59-29.375 58.055-41.512 88.27-4.4219 11.008-8.6211 22.113-12.59 33.297-1.9883 5.5938-3.918 11.203-5.7852 16.832-0.56641 1.7031-1.2852 3.3984-2.0156 5.0977-15.465-50.301-25.328-102.21-29.207-154.71-2.1328-28.871-2.6055-58.055-1.1758-87.137 0.44141 0.023438 0.89063 0 1.3516-0.070312 5.2305-0.79688 9.9727-4.2383 14.496-6.8594 4.5-2.6055 8.9453-5.3008 13.344-8.0742 8.7969-5.5508 17.395-11.434 25.793-17.57 14.195-10.375 30.777-22.684 31.645-41.914 0.34766-7.7109-2.2461-16.164-8.0703-21.461-7.3477-6.6797-18.074-7.5977-27.109-4.0273-9 3.5586-16.199 10.352-22.621 17.414-6.2891 6.918-11.727 14.52-16.371 22.633-3.5938 6.2773-6.6445 12.793-9.2109 19.516 1.5938-14.117 3.668-28.16 6.2578-42.086 6.2383-33.543 14.516-66.785 23.574-99.668 9.0273-32.762 19.715-64.996 29.375-97.562 2.082-7.0234 4.1484-14.008 5.9375-21.098 8.5859 1.5781 17.152 3.2188 25.707 4.9688 21.316 4.3516 42.586 8.9609 63.918 13.211 18.781 3.7422 39.305 6.6719 57.699-0.39453 17.109-6.5742 30.148-20.641 39.641-35.953 17.328-27.953 23.961-65.332 9.0273-95.723-7.3398-14.938-20.207-24.895-31.957-36.145-5.375-5.1484-10.449-10.656-13.742-17.402-3.8633-7.9102-2.957-17.113-7.0547-24.965-7.1016-13.598-23.277-17.426-36.105-23.383-6.8711-3.1875-12.5-7.5195-18.121-12.543-5.9297-5.3008-11.957-10.871-19.348-14.055-8.1719-3.5156-16.738-3.3047-25.086-0.43359-7.7539 2.668-15.227 7.3945-23.477 8.3984-7.5039 0.91406-14.73-2.4297-21.383-5.4609-7.5391-3.4375-15.242-7.1211-23.676-7.4258-9.207-0.33203-16.688 4.3086-23.422 10.086-6.4453 5.5273-12.406 10.129-20.781 12.297-16.883 4.3711-34.77 1.6289-51.84 5.0781-16.652 3.3672-30.66 13.531-39.969 27.613-4.4141 6.6758-7.6133 14.371-8.9922 22.266-1.7383 9.957-0.72656 19.934-0.52734 29.961 0.09375 4.7891 0.046875 9.668-0.94922 14.375-0.97656 4.6172-2.9492 8.6758-4.9375 12.918-3.9492 8.4258-5.8633 17.012-4.5938 26.305 2.375 17.387 14.352 32.359 27.832 42.875 14.711 11.48 32.645 18.906 50.457 24.086 18.379 5.3398 37.379 8.1953 56.371 10.273 2.8281 0.30859 17.527 3.7852 22.293 4.7383 4.8477 0.96484 9.6914 1.9844 14.551 2.8906-12.258 30.488-21.211 62.582-30.375 94.082-9.7109 33.375-18.414 66.973-24.641 101.18-0.70703 3.8867-1.3867 7.7734-2.0469 11.664-1.6445-6.4141-3.5273-12.77-5.6445-19.043-4.332-12.832-9.6367-25.332-15.844-37.371-6.4609-12.531-13.797-24.637-22.02-36.094-7.8633-10.953-16.465-21.785-26.391-30.953-9.5273-8.8008-23.445-18.082-37.035-13.844-13.945 4.3516-15.84 20.75-15.117 33.148 1.6992 29.215 20.07 53.594 39.957 73.559 23.207 23.301 49.66 42.723 77.203 60.555 0.10938 0.070313 0.22266 0.10938 0.33203 0.12891-5.918 44.227-8.3398 88.738-6.1406 133.49 2.75 56.023 12.023 111.89 27.391 165.82 15.293 53.68 36.949 105.58 64.48 154.14 27.664 48.793 60.988 93.23 99 134.4 4.7461 5.1406 9.5781 10.195 14.488 15.176 5.4141 5.4961 14.102-3.2461 8.4453-8.4453-40.684-37.402-75.848-81.371-104.55-128.57-26.727-43.953-48.34-90.887-64.816-139.6 0.10156-1.0938 0.1875-2.3008 0.25391-3.6367 0.53125-10.5 6.8477-20.137 10.34-30.066 3.4609-9.8398 7.0977-19.609 10.914-29.316 7.6875-19.586 16.09-38.887 25.176-57.855 5.3477-11.18 10.93-22.223 16.719-33.141 2.1953-4.1523 4.4258-8.2734 6.6797-12.391 0.83594 0.011719 1.6719 0.007813 2.5039 0.007813 0.91797-0.007813 1.832-0.003907 2.7305 0.023437 3.9297 0.10156 7.8555 0.21094 11.785 0.32031 7.4922 0.20703 14.988 0.50781 22.484 0.54688 12.574 0.0625 26.895-1.7227 35.898-11.5 10.57-11.48 2.4883-27.895-10.84-32.434-13.492-4.5977-28.613 1.0352-40.598 7.3789-1.7461 0.92578-3.4531 1.8867-5.1211 2.8984 6.3242-10.551 12.848-20.996 19.559-31.344 6.4609-9.9727 13.129-19.812 19.992-29.504 4.4688-6.3164 8.793-12.734 13.199-19.094 5.6797 12.562 13.09 27.969 17.914 36.008 4.0938 6.8203 8.0859 13.707 12.305 20.449 3.5938 5.7461 7.6211 11.211 13.141 15.246 12.484 9.1289 28.152 2.6953 42.125 6.0156 12.75 3.0312 24.238 9.6211 36.441 14.188 12.125 4.543 25.281 6.6797 37.93 2.9648 11.395-3.3438 21.23-10.555 29.066-19.352 8.1367-9.1328 14.551-19.605 19.891-30.574 6.3711-13.09 13.445-27.742 13.426-42.586-0.035156-22.996-16.82-39.91-31.809-55.289zm-135.43-363.91c2.4375 2.1953 4.8516 4.3945 7.1562 6.6602 10.898 10.695 17.832 23.473 20.234 38.617 0.82812 5.2227 1.0547 10.523 0.80078 15.82-9.5469 13.211-19.832 26.938-33.383 36.055-8.0781 5.4336-17.246 8.9609-26.266 12.473-10.016 3.9023-20.027 7.8008-30.043 11.703-5.75 2.2422-11.496 4.4961-17.234 6.7734-2.7773 1.1016-5.5547 2.2031-8.332 3.3047-2.9688 1.1797-6.2148 2.125-8.8828 3.8984-0.45703 0.30078-0.83984 0.64062-1.1562 1-4.2422-0.91016-8.4844-1.8203-12.719-2.75l-12.371-2.707c1.7383-0.625 3.4219-1.3945 5.0977-2.2773 5.5859-2.9375 10.652-6.9023 15.23-11.223 9.7461-9.1992 18.219-19.676 27.727-29.125 19.094-18.98 42.023-34.77 58.285-56.445 7.2656-9.6875 12.922-20.152 15.855-31.777zm-62.805-71.484c6.4102 2.8945 13.117 5.1406 19.375 8.3672 5.3398 2.7539 10.551 6.3594 12.738 12.176 0.55469 1.4766 0.93359 3.0039 1.2383 4.5508-8.5 25.051-22.277 48.715-37.297 70.375-7.5625 10.906-15.637 21.453-23.918 31.816-8.8359 11.055-18.055 21.695-28.879 30.867-4.8398 4.1016-9.8945 7.9297-15.062 11.605 2.9258-4.5859 5.668-9.2891 8.207-14.102 6.5664-12.449 11.727-25.559 15.688-39.055 8.1289-27.723 11.961-56.43 17.98-84.629 1.6758-7.8438 3.4883-15.684 5.4492-23.461 1.7148-6.8125 3.7188-13.551 7.4648-19.48 5.2383 4.3867 10.734 8.1367 17.016 10.969zm-228.14 39.324c0.6875-13.973 3.9688-27.848 10.211-40.398 0.42188-0.84766 0.62109-1.6562 0.65234-2.4102 6.9258-1.0977 14.074-1.2422 21.145-1.3789-1.6562 2.793-2.0117 6.0156-2.6172 9.2266-0.69141 3.6562-1.3477 7.3086-1.8594 10.996-0.97656 7.0312-1.5938 14.098-1.7695 21.191-0.35937 14.352 0.98047 28.672 3.7656 42.746 5.2578 26.574 15.676 51.988 29.285 75.348 6.2461 10.719 13.328 20.793 20.984 30.504-2.6367-0.33984-5.2812-0.60156-7.9336-0.73438-3.1523-0.15625-18.77-1.7383-21.293-2.1484-24.965-44.141-53.148-90.363-50.559-142.95zm2.6914 128.78c-15.129-7.5664-29.445-17.609-38.457-32.25-3.8633-6.2734-6.8477-13.484-7.1992-20.922-0.40625-8.6562 3.3242-15.336 6.6445-23.043 2.2539-5.2305 3.4258-10.602 3.9414-16.086 4.0547 18.965 10.297 37.469 19.113 54.758 4.7148 9.25 10.027 18.199 15.895 26.762 3.0547 4.457 6.2734 8.7891 9.6641 12.996 0.89063 1.1055 1.7773 2.2109 2.6797 3.3008-4.1562-1.6758-8.2539-3.5039-12.281-5.5195zm113.03 7.2656c-3.6484-6.668-7.1211-13.441-10.637-20.18-7.1484-13.707-14.133-27.547-20.012-41.855-11.512-28.027-18.621-57.914-14.887-88.32 1.8086-14.742 5.4219-29.43 10.98-43.254 1.8867-1.4883 3.7422-3.0586 5.6172-4.6836 5.2656-4.5664 10.926-8.0508 18.133-6.6445 4.6406 0.90234 9.0117 2.7266 13.328 4.6758-13.371 25.34-15.027 53.812-10.719 81.836 4.7305 30.789 16.18 60.082 20.961 90.863 1.3203 8.4883 2.5312 17.047 2.5273 25.656 0 3.2773-0.14062 6.5547-0.58984 9.7656-0.14844 0.26172-0.29688 0.52734-0.44531 0.78906-1.4648 2.5391-3.2617 4.9023-4.2656 7.5352-3.4727-5.3086-6.9258-10.582-9.9883-16.18zm289.89 257.12c6.8125 7.8516 14.395 14.977 21.461 22.59 1.7617 1.8984 3.7031 4.0781 5.4727 6.1914-49.184 9.8008-98.938 17.637-149.02 20.695-3.8164 0.23438-7.6406 0.46094-11.465 0.57812 2.3398-1.1836 4.6836-2.3633 7.0273-3.5391 10.273-5.1484 20.59-10.211 31.035-15.004 10.254-4.707 20.609-9.2031 31.098-13.367 10.551-4.1914 21.309-7.7812 31.977-11.656 9.5859-3.4844 18.793-7.3164 27.336-12.742 1.6133 2.1328 3.3125 4.2109 5.0859 6.2539zm-71.789-12.07c-8.8398 6.5586-17.941 12.77-27.246 18.652-4.1055 2.5938-8.3906 4.9805-12.648 7.4141 15.051-18.238 29.238-37.184 42.438-56.805 7.6016-11.297 14.867-22.816 21.816-34.523 0.078125-0.12891 0.12891-0.25391 0.17969-0.38281 5.4883 4.1562 10.727 8.625 15.219 13.625 3.2891 3.6602 5.8164 7.7539 7.6914 12.223m-151.98 63.352c-0.16016 3.9961-0.42188 7.9805-0.71484 11.965-1.0625-2.0742-2.1172-4.1562-3.1602-6.2422-6.5-13-12.68-26.422-17.086-40.293-4.1719-13.141-6.9648-27.773-2-41.09 2.707-7.2617 7.7539-13.141 13.773-17.82 4.8555 20.219 7.918 40.836 9 61.605 0.55469 10.613 0.61328 21.254 0.1875 31.875zm9.5977 25.738c0.25781-0.96484 0.50781-1.9102 0.76172-2.8086 1.3164-4.6602 2.4336-9.3984 3.5117-14.121 2.2031-9.6602 4.5039-19.301 6.9023-28.914 4.793-19.227 9.8125-38.418 15.168-57.496 3.0469-10.852 8.0234-26.465 11.312-37.242 0.003906-0.007812 0.003906-0.015625 0.007813-0.023437 9.1836-1.5469 18.484-1.8516 27.828-0.99219 5.2969 0.48828 10.367 1.6992 15.242 3.4375-0.019531 0.039063-0.042969 0.078125-0.0625 0.12109-17.812 40.75-39.613 79.996-65.027 116.5-3.5117 5.0469-7.0898 10.051-10.688 15.035-1.5078 2.0898-3.2852 4.25-4.957 6.5zm104.21 64.93c-13.988-8.7695-28.352-16.957-42.965-24.648 5.8008 1.3438 11.629 2.5547 17.48 3.6289 26.203 4.8164 52.668 6.9922 79.281 7.6797 13.289 0.34375 26.48 0.13672 39.73-0.48438-3.2656 7.4727-6.9727 14.754-11.324 21.652-7.7109 12.23-18.188 23.559-31.312 28.223"/>
</svg>
