<?xml version="1.0" encoding="UTF-8"?>
<svg width="1200pt" height="1200pt" version="1.1" viewBox="0 0 1200 1200" xmlns="http://www.w3.org/2000/svg">
 <path d="m784.78 254.41c-24.152 32.633-49.008 64.836-76.625 94.641-13.828 14.922-28.387 29.039-43.445 42.715-14.816 13.457-29.648 27.207-42.262 42.797-12.812 15.844-23.422 33.656-28.48 53.535-1.9805 2.3555-3.9648 4.8164-5.8555 7.3984 2.0938-31.641 1.2344-63.41 0.14844-95.188 0.49609-2.6758 1.1094-5.3359 1.8828-7.9883 2.3516-8.0586 5.8008-15.73 9.5586-23.219 5.1328-10.234 10.562-20.258 15.586-30.504h0.003907l0.085937-0.17578c0.87891-1.7969 1.7461-3.5977 2.5977-5.4102l0.24609-0.51562v-0.007813c0.30469-0.65625 0.60547-1.3125 0.91016-1.9688l0.003907-0.003906c28.398-26.227 47.383-61.441 61.57-96.984 7.6367-19.141 13.98-38.777 19.766-58.555 6.3711-21.785 12.359-43.754 17.363-65.891 6.0781-26.891 10.285-54.355 9.4336-81.996-0.085937-2.6719-3.5039-4.8281-5.6289-2.5625-14.516 15.449-29.012 31.004-41.797 47.941-12.996 17.215-23.426 35.789-31.277 55.891-8.1797 20.934-14.562 42.684-20.496 64.352-6.0078 21.949-11.027 44.195-14.184 66.738-3.4062 24.328-4.4102 48.906-2.1289 73.367v0.003906c-5.1719 10.781-10.844 21.289-16.281 31.984-2.6992 5.3086-5.4922 10.988-7.8516 16.875-0.73047-21.723-1.3164-43.434-0.88281-65.105 0.72656-36.188 4.4141-72.445 14.977-107.19 9.457-31.098 24.523-64.777 18.168-97.98-1.3203-6.8711-3.9883-13.43-7.4336-19.504 4.832-3.332 8.1172-9.8945 8.1172-17.445 0-10.922-6.875-19.781-15.355-19.781-8.4805 0-15.355 8.8555-15.355 19.781s6.875 19.781 15.355 19.781c0.46875 0 0.93359-0.03125 1.3945-0.085938 14.043 31.52 2.3281 66.84-7.3984 97.902-10.668 34.062-17.242 68.191-19.145 103.88-0.75 14.02-0.96094 28.043-0.87109 42.07-0.26562-0.96484-0.52344-1.9336-0.79687-2.8945-3.1172-10.902-6.5312-21.727-9.4844-32.672 1.4258-18.453 2.7617-36.914 4.043-55.379 1.5703-22.664 3.5469-45.355 4.2969-68.066 0.70312-21.324-1.1367-42.309-7.0547-62.863-5.6484-19.625-14.387-38.281-24.777-55.828-9.7578-16.477-21.988-33.828-41.309-39.402-1.2109-0.34766-2.6172 1.0352-2.0742 2.2539 7.9023 17.812 12.75 37.043 15.297 56.328 2.6328 19.938 2.2578 39.805 1.4688 59.848-0.77344 19.562-0.83203 38.938 2.625 58.277 3.3203 18.562 9.125 36.523 16.105 54.012 3.9141 9.8008 8.2344 19.434 12.754 28.973 4.3633 9.2109 8.5859 18.648 14.047 27.266 1.8594 7.3242 3.8281 14.621 5.7812 21.926 2.2812 8.5273 4.5977 17.059 6.5078 25.68 1.2383 5.5781 2.1602 11.254 3.2617 16.879 1.3984 45.711 4.0195 91.422-0.10156 137.06v0.007813l-1.8359 16.219c-3.0312 21.984-8.1992 43.352-15.078 64.359-0.61719-5.7852-1.957-11.492-3.6328-16.738-4.8594-15.215-12.973-29.039-19.762-43.422-5.5703-11.797-10.469-23.855-14.93-36.078-3.9023-64.238-9.5859-130.54-38.598-188.97-7.7695-15.648-16.945-33.742-32.797-42.566-2.1953-1.2227-5.2578 1.2227-4.2148 3.6523 3.3125 7.7266 6.6328 15.473 9.1641 23.5 2.5859 8.1953 3.9922 16.551 4.5938 25.117 1.2109 17.238 0.89453 34.508 2.5469 51.734 3.0391 31.746 10.27 63.297 25.07 91.73 7.7305 14.855 17.531 28.559 29.348 40.441 0.42969 0.43359 0.89062 0.68359 1.3516 0.79297 2.8789 7.8281 5.9492 15.582 9.2695 23.234 6.2305 14.359 14.105 27.98 20.059 42.453 3.3086 8.043 5.8906 16.477 6.6094 25.18 0.70703 8.5938-0.6875 16.734-3.2148 24.934-0.0625 0.19922-0.09375 0.39062-0.10547 0.57812-12.629 32.023-27.434 63.254-37.648 96.184-2.5195 8.1172-4.6328 16.27-6.3594 24.457-0.52734-6.6641-1.2109-13.324-1.7305-19.945-1.0352-13.25-2.0742-26.496-3.1094-39.746-2.0195-25.789-3.7734-51.598-7.8555-77.168-1.7969-11.254-4.1992-22.402-7.1875-33.395 4.9062-2.9414 6.6797-11.266 3.9141-19.711-3.0469-9.293-10.438-15.215-16.512-13.223-6.0742 1.9883-8.5312 11.137-5.4844 20.43 2.7461 8.375 9.0195 14.008 14.68 13.582 4.6641 22.141 6.9805 44.699 9.0273 67.219 2.375 26.121 4.1523 52.301 6.1602 78.449 1.1367 14.797 1.5273 29.91 4.1172 44.539 0.058594 0.32422 0.17188 0.59766 0.32031 0.82812-1.9141 15.395-2.457 30.93-1.6406 46.613-0.95312-1.8047-1.9453-3.5781-2.9531-5.3125-10.613-18.211-26.348-32.652-38.32-49.895-0.81641-1.1758-1.6211-2.3555-2.418-3.543-7.1328-20.562-11.156-42.227-14.426-63.668-3.8672-25.359-6.6602-50.902-11.625-76.082-9.9414-50.41-28.824-99.602-56.043-143.24-13.262-21.266-30.094-41.906-53.578-52.191-3.3555-1.4688-6.7109 1.8867-4.8438 5.2031 12.676 22.484 25.387 45.105 33.629 69.668 8.1367 24.242 12.105 49.578 15.527 74.84 6.2305 45.957 11.277 94.035 35.445 134.74 6.4961 10.945 14.398 20.906 23.434 29.863 6.0859 6.0312 13.766 7.9297 19.906 13.898 0.64453 0.53516 1.8945 1.8438 3.1328 3.1484 0.22656 0.36328 0.44922 0.72656 0.67578 1.0859 5.5547 8.8203 11.641 17.285 18.281 25.32 6.8984 8.3398 14.285 16.309 20.496 25.199 6.3477 9.0977 11.453 19.031 15.098 29.508 0.085938 0.24609 0.16797 0.48438 0.24609 0.73047l0.011719 0.035156c0.11719 1.0234 0.24219 2.043 0.36719 3.0625v0.023438l0.015625 0.10156c1.6523 13.336 3.9414 26.582 6.625 39.762l0.015625 0.10547h0.003907c4.2695 20.949 9.5234 41.723 14.746 62.395 4.0664 16.105 8.2812 32.285 12.344 48.539 0.76172 3.0547 1.5195 6.1094 2.2695 9.1602 0.43359 1.7539 0.85938 3.5039 1.2773 5.2578 0.26953 1.1094 0.53906 2.2188 0.80469 3.3281 12.426 51.863 22.156 104.5 19.363 157.85-0.51172 9.793-1.2656 19.555-2.6094 29.27-0.24609 1.7891 2.4648 2.5977 2.7656 0.76172 10.309-62.957 0.38281-125.86-13.805-187.39-1.2617-5.4766-2.5547-10.945-3.875-16.398 0.89453-1.625 1.793-3.2539 2.6992-4.8789 1.6797-3.0273 3.3516-6.0586 4.9688-9.1172 7.5664-9.1992 17.961-17.449 25.426-24.5 15.527-14.664 29.074-31.219 40.543-49.242 11.316-17.777 20.461-36.895 28.133-56.504 7.9727-20.383 15.008-41.699 19.188-63.211 4.6445-23.879 3.8828-49.859-11.887-69.664-1.9609-2.4648-5.3711-0.64063-6.2891 1.6602-4.0977 10.254-8.1914 20.508-12.301 30.758-3.8164 9.5234-7.7578 19.062-13.285 27.75-5.2578 8.2617-11.824 15.547-18.234 22.906-6.5039 7.4805-12.684 15.188-18.125 23.477-10.723 16.352-18.887 34.207-26.172 52.309-7.8477 19.523-14.82 39.324-17.531 60.281-1.7148 13.289-1.9727 26.664-1.5547 40.039-0.042968-0.17578-0.085937-0.34375-0.125-0.51562-8.5352-34.18-18.531-69.289-24.965-104.71l0.003906-0.003906-4.6602-34.32c0.14453-2.1953 0.32812-4.3867 0.55078-6.5703 1.6914-16.703 5.7891-33.137 11.238-48.996 11.16-32.516 28.586-62.137 45.234-92.035 9.2695-16.637 18.195-33.355 26.051-50.707 0.25391 0.11328 0.50781 0.21094 0.77734 0.28516 5.7812 1.5742 13.07-6.707 16.281-18.496 3.2109-11.789 1.1289-22.625-4.6523-24.199-5.7812-1.5742-13.07 6.707-16.281 18.496-2.4609 9.0352-1.8086 17.504 1.2266 21.68-29.125 56.895-69.5 110.55-82.355 174.09v0.007813c-0.42578-20.883 1.3594-41.754 6.3867-62.484 8.2148-33.875 22.613-65.789 35.988-97.844 13.738-32.941 25.816-66.266 31.363-101.66 1.2852-8.1914 2.293-16.387 3.0703-24.602v-0.007813c0.19141-0.35938 0.38281-0.71484 0.57422-1.0664 1.9531-3.582 4.1562-7.0273 6.5508-10.336 0.074219 0.011719 0.14844 0.027344 0.22656 0.035157 22.387 2.3789 44.609-2.9453 65.137-11.648 20.223-8.5742 40.293-19.941 57.02-34.262 33.289-28.496 45.988-73.617 57.219-114.3 7.3125-26.48 13.27-53.328 17.875-80.41 0.72266-4.2539-4.2695-6.3359-6.8281-2.8789z"/>
</svg>
