<?xml version="1.0" encoding="UTF-8"?>
<svg width="1200pt" height="1200pt" version="1.1" viewBox="0 0 1200 1200" xmlns="http://www.w3.org/2000/svg">
 <path d="m1086.1 600c11.391-4.3594 21.891-11.062 30.797-19.875 14.859-14.719 23.062-34.312 23.062-55.125 0.046875-20.812-8.1094-40.406-22.969-55.078-12.844-12.75-29.906-19.734-48.094-19.734h-0.09375c-18.188 0.046875-35.297 7.0781-48.188 19.828-10.922 10.828-16.969 25.266-16.969 40.594s6 29.719 16.922 40.547c8.9062 8.8594 20.812 13.734 33.469 13.734h0.046875c12.656 0 24.562-4.9219 33.516-13.828 7.0312-6.9375 10.922-16.219 10.922-26.062s-3.8438-19.078-10.875-26.062c-5.0156-4.9688-11.719-7.7344-18.844-7.7344h-0.046875c-7.125 0-13.828 2.7656-18.891 7.7812-3.0938 3.0938-4.7812 7.1719-4.7812 11.531s1.7344 8.4844 4.7812 11.531c2.3438 2.3438 6.1875 2.2969 8.4844-0.046875 2.3438-2.3438 2.2969-6.1406-0.046875-8.4844-0.79688-0.79688-1.2656-1.875-1.2656-3s0.46875-2.2031 1.2656-3c2.8125-2.7656 6.5156-4.3125 10.453-4.3125s7.6406 1.5 10.406 4.2656c4.7344 4.6875 7.3125 10.875 7.3125 17.531 0 6.6094-2.625 12.844-7.3594 17.578-6.7031 6.6562-15.609 10.312-25.125 10.312h-0.046875c-9.4688 0-18.328-3.6562-25.031-10.266-8.625-8.5781-13.359-19.922-13.359-32.016 0.046875-12.141 4.7812-23.531 13.453-32.109 10.641-10.547 24.75-16.359 39.75-16.359h0.046875c14.953 0 29.062 5.7656 39.656 16.266 12.562 12.422 19.406 28.969 19.406 46.547-0.046875 17.578-6.9375 34.172-19.547 46.641-14.578 14.438-33.891 22.359-54.422 22.406h-0.09375c-20.531 0-39.797-7.9219-54.234-22.266-16.406-16.312-25.453-37.969-25.453-61.078 0-32.578-12.75-63.234-35.953-86.25-23.156-23.016-53.953-35.719-86.719-35.719h-0.046875c-17.766 0-34.875 4.125-50.344 11.766 7.6875-15.328 11.812-32.297 11.812-49.922 0-32.531-12.797-63.094-36.047-86.062-23.203-22.969-54.094-35.625-86.906-35.625h-0.09375c-23.25 0-45.141-8.9531-61.547-25.266-14.484-14.344-22.453-33.469-22.406-53.812s8.0625-39.469 22.594-53.906c12.562-12.469 29.297-19.359 47.109-19.406 18.047-0.14062 34.5 6.8438 47.016 19.266 10.594 10.5 16.406 24.422 16.359 39.281s-5.8594 28.828-16.5 39.375c-8.6719 8.5781-20.156 13.312-32.438 13.359h-0.046875c-12.234 0-23.719-4.7344-32.297-13.266-6.6562-6.6094-10.312-15.422-10.312-24.75 0-9.375 3.7031-18.188 10.406-24.797 4.7344-4.7344 11.062-7.3125 17.766-7.3125h0.046875c6.7031 0 13.031 2.5781 17.719 7.2656 2.7656 2.7656 4.2656 6.375 4.2656 10.266s-1.5469 7.5469-4.3125 10.266c-0.84375 0.84375-1.9219 1.2656-3.1406 1.2656-1.1719 0-2.25-0.46875-3.0938-1.2656-2.3438-2.3438-6.1875-2.2969-8.4844 0.046875-2.3438 2.3438-2.2969 6.1406 0.046875 8.4844 3.0938 3.0469 7.1719 4.7344 11.531 4.7344 4.4062-0.28125 8.4844-1.6875 11.578-4.7344 5.0625-5.0156 7.875-11.719 7.875-18.797 0-7.125-2.7656-13.781-7.8281-18.797-6.9844-6.9375-16.547-11.062-26.203-10.734-9.8438 0-19.172 3.8438-26.156 10.781-9 8.9062-13.922 20.719-13.969 33.328 0 12.609 4.9219 24.422 13.875 33.281 10.875 10.781 25.359 16.734 40.781 16.734h0.09375c15.422 0 29.953-6 40.875-16.828 12.891-12.797 20.016-29.766 20.062-47.859-0.046875-18.047-7.125-35.062-19.969-47.812-14.812-14.672-34.453-22.734-55.406-22.734h-0.09375c-20.953 0.046875-40.688 8.1562-55.5 22.875-9 8.8594-15.75 19.359-20.156 30.75-4.4062-11.391-11.156-21.844-20.109-30.75-14.812-14.719-34.547-22.828-55.547-22.875h-0.09375c-20.953 0-40.594 8.0625-55.359 22.734-12.891 12.75-19.969 29.766-19.922 47.812 0 18.094 7.125 35.062 20.016 47.859 10.922 10.828 25.453 16.828 40.875 16.828h0.09375c15.422 0 29.859-5.9531 40.781-16.734 8.9531-8.9062 13.875-20.719 13.875-33.328-0.046875-12.609-4.9688-24.422-13.969-33.328-7.0312-6.8906-16.359-10.734-26.25-10.734h-0.046875c-9.8906 0-19.172 3.7969-26.156 10.734-5.0625 5.0156-7.8281 11.672-7.8281 18.797 0 7.0781 2.8125 13.781 7.875 18.797 3.0938 3.0938 7.2188 4.7344 11.531 4.7344 3.8906-0.28125 8.4844-1.6875 11.578-4.7344 2.3438-2.3438 2.3438-6.1406 0.046875-8.4844-2.3438-2.3438-6.1406-2.3438-8.4844-0.046875-0.79688 0.79688-1.9219 1.2656-3.0938 1.2656-1.0312 0.5625-2.2969-0.42188-3.1406-1.2656-2.7656-2.7656-4.3125-6.4219-4.3125-10.266 0-3.8906 1.5-7.5 4.2656-10.266 4.7344-4.6875 11.016-7.2656 17.719-7.2656s13.031 2.625 17.766 7.3125c6.7031 6.6562 10.359 15.422 10.406 24.797 0 9.375-3.6562 18.141-10.312 24.75-8.625 8.5781-20.109 13.266-32.297 13.266h-0.046875c-12.234 0-23.766-4.7344-32.438-13.359-10.594-10.547-16.453-24.516-16.5-39.375s5.8125-28.781 16.359-39.281c12.562-12.422 29.203-19.453 47.016-19.266 17.766 0.046875 34.5 6.8906 47.109 19.406 14.531 14.391 22.547 33.562 22.594 53.906s-7.9219 39.469-22.406 53.812c-16.406 16.266-38.297 25.266-61.547 25.266h-0.09375c-32.812 0-63.703 12.656-86.906 35.625-23.25 22.969-36.047 53.531-36.047 86.062 0 17.625 4.1719 34.594 11.812 49.922-15.469-7.6406-32.578-11.766-50.344-11.766h-0.046875c-32.766 0-63.516 12.703-86.719 35.719s-35.953 53.672-35.953 86.25c0.046875 23.062-9 44.766-25.453 61.078-14.484 14.344-33.75 22.266-54.234 22.266h-0.09375c-20.531-0.046875-39.844-7.9688-54.422-22.406-12.609-12.469-19.5-29.016-19.547-46.641-0.046875-17.578 6.8438-34.125 19.406-46.547 10.594-10.5 24.656-16.266 39.656-16.266h0.046875c15 0.046875 29.156 5.8125 39.75 16.359 8.6719 8.5781 13.406 19.969 13.453 32.109 0 12.094-4.7344 23.484-13.359 32.016-6.6562 6.6094-15.562 10.266-25.031 10.266h-0.046875c-9.4688 0-18.375-3.7031-25.125-10.312-4.7344-4.6875-7.3594-10.922-7.3594-17.578 0-6.6094 2.5781-12.844 7.3125-17.531 2.7656-2.7656 6.4688-4.2656 10.406-4.2656s7.6406 1.5469 10.453 4.2656c0.79688 0.79688 1.2656 1.875 1.2656 3.0469 0 1.125-0.42188 2.2031-1.2656 3-2.3438 2.3438-2.3438 6.1406-0.046875 8.4844 2.3438 2.3438 6.1406 2.3438 8.4844 0.046875 3.0938-3.0938 4.8281-7.1719 4.7812-11.531 0-4.3594-1.7344-8.4375-4.8281-11.531-5.0625-5.0156-11.766-7.7812-18.891-7.7812h-0.046875c-7.125 0-13.828 2.7656-18.844 7.7344-7.0312 6.9375-10.875 16.219-10.828 26.062 0 9.8438 3.8906 19.078 10.922 26.062 8.9531 8.9062 20.859 13.781 33.562 13.828h0.046875c12.656 0 24.516-4.875 33.469-13.734 10.922-10.828 16.922-25.219 16.922-40.547s-6.0469-29.766-17.016-40.594c-12.891-12.75-30-19.828-48.188-19.828h-0.09375c-18.188 0-35.25 7.0312-48.094 19.734-14.766 14.672-22.922 34.266-22.875 55.078s8.2031 40.406 23.062 55.125c8.9062 8.8125 19.406 15.516 30.797 19.875-11.391 4.3594-21.891 11.062-30.797 19.875-14.859 14.766-23.016 34.312-23.062 55.125s8.1094 40.406 22.969 55.078c12.844 12.75 29.906 19.734 48.047 19.734h0.09375c18.188 0 35.297-7.0781 48.188-19.828 10.922-10.828 16.969-25.266 17.016-40.594s-6-29.766-16.922-40.547c-8.9531-8.8594-20.812-13.734-33.469-13.734h-0.046875c-12.656 0-24.562 4.9219-33.562 13.828-7.0312 6.9844-10.875 16.219-10.922 26.062 0 9.8438 3.8438 19.125 10.828 26.062 10.031 9.9844 27.656 9.9844 37.781-0.046875 3.0938-3.0938 4.7812-7.1719 4.7812-11.531s-1.6875-8.4375-4.7812-11.531c-2.3438-2.3438-6.1406-2.2969-8.4844 0.046875s-2.2969 6.1406 0.046875 8.4844c0.79688 0.79688 1.2656 1.875 1.2656 3s-0.46875 2.2031-1.2656 3c-5.5781 5.5312-15.328 5.5312-20.859 0.046875-4.7344-4.6875-7.3125-10.875-7.3125-17.531 0-6.6094 2.625-12.844 7.3594-17.531 6.7031-6.6562 15.609-10.312 25.125-10.312h0.046875c9.4688 0 18.328 3.6562 25.031 10.266 8.625 8.5312 13.359 19.922 13.359 32.016 0 12.141-4.7812 23.531-13.453 32.109-10.641 10.547-24.75 16.359-39.75 16.359h-0.09375c-14.953 0-29.062-5.7656-39.609-16.266-12.562-12.469-19.453-29.016-19.406-46.594 0.046875-17.625 6.9375-34.172 19.547-46.641 14.531-14.438 33.891-22.359 54.422-22.406h0.09375c20.531 0 39.797 7.875 54.234 22.266 16.453 16.266 25.5 37.969 25.453 61.078 0 32.578 12.75 63.234 35.953 86.25s54 35.719 86.719 35.719c17.766 0 34.875-4.125 50.344-11.766-7.6875 15.328-11.812 32.297-11.812 49.922 0 32.531 12.797 63.094 36.047 86.062 23.203 22.969 54.094 35.625 86.906 35.625h0.09375c23.25 0 45.141 8.9531 61.594 25.266 14.484 14.344 22.453 33.469 22.406 53.812s-8.0625 39.469-22.594 53.906c-12.562 12.469-29.297 19.359-47.109 19.359h-0.09375c-17.766 0-34.406-6.8438-46.922-19.266-10.594-10.5-16.406-24.469-16.359-39.281 0-14.859 5.8594-28.828 16.5-39.328 8.6719-8.625 20.203-13.359 32.438-13.359h0.09375c12.188 0 23.672 4.7344 32.297 13.266 6.6562 6.6094 10.312 15.422 10.312 24.75 0 9.375-3.7031 18.188-10.406 24.797-4.7344 4.7344-11.062 7.3125-17.766 7.3125h-0.046875c-6.7031 0-12.984-2.5781-17.719-7.2656-2.7656-2.7188-4.2656-6.375-4.2656-10.266s1.5469-7.5469 4.3125-10.266c1.6875-1.6406 4.5938-1.6406 6.2344-0.046875 2.3438 2.3438 6.1406 2.2969 8.4844-0.046875s2.2969-6.1406-0.046875-8.4844c-3.0938-3.0469-7.1719-4.7344-11.578-4.7344-4.3594 0.046875-8.4375 1.7344-11.531 4.7344-5.0625 5.0156-7.875 11.719-7.875 18.797 0 7.125 2.7656 13.781 7.8281 18.797 6.9844 6.9375 16.266 10.734 26.156 10.734h0.046875c9.8906 0 19.172-3.8438 26.203-10.781 9-8.9062 13.922-20.766 13.922-33.328 0-12.609-4.9219-24.422-13.875-33.328-10.875-10.781-25.359-16.734-40.734-16.734h-0.09375c-15.422 0-29.953 6-40.875 16.828-12.891 12.797-20.016 29.766-20.016 47.859-0.046875 18.094 7.0312 35.062 19.922 47.812 14.766 14.672 34.453 22.734 55.406 22.734h0.09375c20.953-0.046875 40.688-8.1562 55.547-22.875 8.9531-8.8594 15.703-19.359 20.109-30.75 4.4062 11.391 11.156 21.844 20.109 30.75 14.859 14.719 34.594 22.828 55.547 22.875h0.09375c20.953 0 40.594-8.0625 55.359-22.734 12.891-12.75 19.969-29.766 19.922-47.812 0-18.094-7.125-35.062-20.016-47.859-10.922-10.828-25.453-16.828-40.875-16.828h-0.09375c-15.375 0-29.859 5.9531-40.734 16.734-8.9531 8.9062-13.875 20.719-13.875 33.328 0 12.562 4.9688 24.422 13.969 33.328 7.0312 6.9375 16.312 10.781 26.203 10.781h0.046875c9.8906 0 19.172-3.7969 26.156-10.734 5.0625-5.0156 7.8281-11.719 7.8281-18.797s-2.7656-13.781-7.875-18.797c-3.0938-3.0469-7.1719-4.7344-11.531-4.7344s-8.4375 1.6875-11.578 4.7344c-2.3438 2.3438-2.3906 6.1406-0.046875 8.4844 2.2969 2.3438 6.1406 2.3906 8.4844 0.046875 1.6406-1.6875 4.5938-1.5938 6.2344 0.046875 2.7656 2.7656 4.3125 6.375 4.3125 10.266 0 3.8438-1.5 7.5-4.2656 10.266-4.7344 4.6875-11.016 7.2656-17.719 7.2656h-0.046875c-6.7031 0-13.031-2.625-17.766-7.3125-6.7031-6.6562-10.406-15.469-10.406-24.844 0-9.3281 3.6562-18.141 10.312-24.75 8.625-8.5781 20.109-13.266 32.297-13.266h0.09375c12.234 0 23.766 4.7344 32.438 13.359 10.641 10.547 16.453 24.469 16.453 39.328 0.046875 14.859-5.7656 28.781-16.359 39.281-12.516 12.422-29.156 19.266-46.922 19.266h-0.09375c-17.766-0.046875-34.5-6.8906-47.109-19.406-14.531-14.391-22.547-33.562-22.594-53.859-0.046875-20.344 7.9219-39.422 22.406-53.812 16.453-16.312 38.297-25.266 61.594-25.266h0.09375c32.812 0 63.703-12.656 86.906-35.625 23.25-22.969 36.047-53.531 36.047-86.062 0-17.625-4.1719-34.594-11.812-49.922 15.469 7.6406 32.578 11.766 50.344 11.766 32.766 0 63.562-12.703 86.719-35.719 23.203-23.062 35.953-53.672 35.953-86.25-0.046875-23.062 9.0469-44.766 25.453-61.078 14.484-14.344 33.75-22.266 54.234-22.266h0.09375c20.578 0.046875 39.891 7.9688 54.422 22.406 12.562 12.469 19.5 29.016 19.547 46.641 0.046875 17.578-6.8438 34.125-19.406 46.547-10.594 10.5-24.656 16.266-39.609 16.266h-0.09375c-15 0-29.109-5.8125-39.75-16.359-8.6719-8.5781-13.406-19.969-13.453-32.062 0-12.141 4.7344-23.484 13.359-32.016 6.7031-6.6562 15.562-10.266 25.031-10.266h0.046875c9.4688 0 18.375 3.7031 25.125 10.359 4.7344 4.6875 7.3594 10.922 7.3594 17.531s-2.5781 12.844-7.3125 17.531c-5.5781 5.5312-15.328 5.4375-20.859 0-0.79688-0.79688-1.2656-1.875-1.2656-3.0469 0-1.125 0.42188-2.2031 1.2656-3 2.3438-2.3438 2.3906-6.1406 0.046875-8.4844-2.2969-2.3438-6.1406-2.3906-8.4844-0.046875-3.0938 3.0469-4.7812 7.1719-4.7812 11.531 0 4.3125 1.6875 8.3906 4.8281 11.531 10.078 9.9844 27.703 10.031 37.734 0.046875 6.9844-6.9375 10.828-16.219 10.828-26.062s-3.8906-19.078-10.922-26.062c-8.9531-8.9062-20.859-13.828-33.562-13.828h-0.046875c-12.656 0-24.516 4.875-33.469 13.734-10.922 10.828-16.922 25.219-16.922 40.594 0.046875 15.328 6.0469 29.766 17.016 40.594 12.891 12.75 30 19.828 48.188 19.828h0.09375c18.141 0 35.25-7.0312 48.047-19.734 14.812-14.719 22.969-34.266 22.969-55.078-0.046875-20.812-8.25-40.406-23.109-55.125-8.8125-8.8594-19.312-15.562-30.703-19.922zm-486.14 206.53c-5.1562-14.672-13.5-28.172-24.891-39.422-19.828-19.594-46.172-30.422-74.203-30.422-17.906 0-35.156 4.1719-50.719 11.859 7.7344-15.422 11.906-32.531 11.906-50.25 0-27.797-10.875-53.953-30.703-73.641-11.344-11.25-24.891-19.547-39.609-24.609 14.719-5.1094 28.266-13.359 39.609-24.609 19.781-19.688 30.703-45.844 30.703-73.641 0-17.766-4.1719-34.828-11.906-50.25 15.562 7.6875 32.812 11.859 50.719 11.859 28.031 0 54.375-10.781 74.203-30.422 11.438-11.297 19.781-24.75 24.891-39.422 5.1094 14.672 13.5 28.172 24.891 39.422 19.828 19.594 46.172 30.422 74.203 30.422 17.906 0 35.156-4.1719 50.719-11.859-7.7344 15.422-11.906 32.531-11.906 50.25 0 27.797 10.875 53.953 30.703 73.641 11.344 11.25 24.891 19.547 39.609 24.609-14.719 5.1094-28.266 13.359-39.609 24.609-19.781 19.688-30.703 45.797-30.703 73.641 0 17.766 4.2188 34.828 11.906 50.25-15.562-7.6875-32.812-11.812-50.719-11.812-28.031 0-54.375 10.781-74.203 30.422-11.391 11.203-19.781 24.703-24.891 39.375zm-168.61-533.53c20.953-20.719 48.844-32.156 78.469-32.156 26.016-0.1875 51.422-10.172 70.125-28.734 8.9062-8.8125 15.609-19.219 19.969-30.469 4.4062 11.297 11.109 21.656 19.969 30.469 18.703 18.562 43.547 28.734 69.984 28.734h0.14062c29.672 0 57.516 11.438 78.469 32.156s32.484 48.234 32.484 77.531c0 26.906-10.594 52.219-29.812 71.25-19.266 19.031-44.859 29.531-72.141 29.531-24.844 0-48.188-9.5625-65.766-26.953-17.531-17.344-27.188-40.406-27.188-64.969 0-22.172 8.7188-42.984 24.562-58.641 15.844-15.703 36.938-24.328 59.391-24.328 20.016 0 38.859 7.7344 53.062 21.703 14.156 13.969 21.938 32.578 21.938 52.359 0 17.391-6.8438 33.75-19.312 46.078s-29.062 19.125-46.688 19.125c-15.234 0-29.531-5.8594-40.312-16.5-10.734-10.641-16.688-24.75-16.688-39.797 0-12.656 4.9688-24.516 14.062-33.469 9.0469-8.9531 21.141-13.922 33.938-13.922 10.406 0 20.203 4.0312 27.609 11.297 7.3594 7.2656 11.391 16.922 11.391 27.188 0 7.9219-3.0938 15.328-8.7656 20.906-5.6719 5.625-13.219 8.6719-21.234 8.6719-5.625 0-10.875-2.1562-14.859-6.0938-3.9375-3.8906-6.1406-9.0938-6.1406-14.625 0-3.1406 1.2656-6.0938 3.4688-8.2969 2.25-2.25 5.2969-3.4688 8.5312-3.4688 0.79688 0 1.5938 0.32812 2.1562 0.84375 0.5625 0.5625 0.84375 1.2656 0.84375 2.0156 0 3.3281 2.6719 6 6 6s6-2.6719 6-6c0-3.9844-1.5938-7.7344-4.4062-10.547s-6.6094-4.3125-10.594-4.3125c-6.375 0-12.422 2.4844-16.922 6.9375-4.5469 4.5-7.0781 10.5-7.0781 16.828 0 8.7656 3.4219 16.969 9.7031 23.156 6.2344 6.1875 14.531 9.5625 23.297 9.5625 11.203 0 21.75-4.3125 29.672-12.141s12.328-18.281 12.328-29.438c0-13.5-5.2969-26.203-14.953-35.719s-22.406-14.766-36.047-14.766c-16.031 0-31.078 6.1875-42.375 17.391-11.344 11.203-17.625 26.156-17.625 42 0 18.234 7.1719 35.391 20.25 48.328 13.031 12.891 30.328 19.969 48.75 19.969 20.812 0 40.406-8.0156 55.125-22.594 14.766-14.578 22.875-33.938 22.875-54.609 0-23.016-9.0469-44.625-25.5-60.891-16.406-16.266-38.25-25.172-61.453-25.172-25.641 0-49.734 9.8906-67.828 27.797-10.078 9.9375-17.531 21.797-22.266 34.688-4.7344-12.844-12.188-24.703-22.266-34.688-18.141-17.906-42.234-27.797-67.828-27.797-23.203 0-45.047 8.9531-61.453 25.172-16.453 16.266-25.5 37.875-25.5 60.891 0 20.625 8.1094 40.031 22.875 54.609 14.719 14.578 34.312 22.594 55.125 22.594 18.422 0 35.719-7.0781 48.75-19.969s20.25-30.047 20.25-48.328c0-15.891-6.2344-30.797-17.578-42s-26.391-17.391-42.375-17.391c-13.594 0-26.391 5.25-36.047 14.766-9.6562 9.5625-14.953 22.219-14.953 35.719 0 11.109 4.3594 21.562 12.328 29.438 7.9219 7.8281 18.469 12.141 29.672 12.141 8.8125 0 17.062-3.375 23.297-9.5625s9.7031-14.391 9.7031-23.156c0-6.375-2.4844-12.375-7.0312-16.828s-10.547-6.9375-16.922-6.9375c-3.9844 0-7.7344 1.5469-10.594 4.3125-2.8594 2.8125-4.4062 6.5625-4.4062 10.547 0 3.3281 2.6719 6 6 6s6-2.6719 6-6c0-1.0312 0.5625-1.7344 0.84375-2.0156 0.5625-0.5625 1.3125-0.84375 2.1562-0.84375 3.2344 0 6.2344 1.2188 8.5312 3.4688 2.25 2.25 3.4688 5.2031 3.4688 8.2969 0 5.5312-2.1562 10.688-6.1406 14.625-3.9375 3.9375-9.2344 6.0938-14.859 6.0938-8.0156 0-15.562-3.0938-21.234-8.6719s-8.7656-13.031-8.7656-20.906c0-10.266 4.0312-19.922 11.391-27.188s17.156-11.297 27.609-11.297c12.844 0 24.891 4.9219 33.938 13.922 9.0469 8.9531 14.016 20.859 14.016 33.469 0 15.047-5.9062 29.156-16.688 39.797s-25.078 16.5-40.312 16.5c-17.625 0-34.219-6.7969-46.688-19.125-12.422-12.328-19.312-28.688-19.312-46.078 0-19.781 7.7812-38.391 21.938-52.359 14.156-14.016 33-21.703 53.016-21.703 22.453 0 43.547 8.625 59.391 24.328 15.844 15.656 24.562 36.516 24.562 58.641 0 24.516-9.6562 47.578-27.188 64.969-17.578 17.344-40.922 26.953-65.766 26.953-27.234 0-52.875-10.5-72.141-29.531s-29.812-44.344-29.812-71.25c-0.046875-29.297 11.484-56.812 32.391-77.531zm-161.26 494.11c-20.906-20.766-32.391-48.375-32.391-77.766 0.046875-26.344-10.266-51.047-29.016-69.609-8.8125-8.7656-19.266-15.375-30.562-19.734 11.297-4.3594 21.75-10.969 30.562-19.734 18.75-18.562 29.062-43.312 29.016-69.609 0-29.344 11.531-56.953 32.391-77.766 20.906-20.766 48.703-32.203 78.234-32.203h0.046875c27.141 0 52.688 10.5 71.906 29.625 19.219 19.078 29.766 44.438 29.766 71.438 0 24.609-9.6562 47.719-27.141 65.156-17.531 17.391-40.781 27-65.578 27-22.359 0-43.406-8.6719-59.25-24.375-15.797-15.703-24.516-36.609-24.516-58.828 0-19.828 7.7812-38.484 21.891-52.5 14.109-14.062 32.906-21.75 52.875-21.75 17.578 0 34.125 6.7969 46.547 19.172 12.422 12.328 19.266 28.734 19.266 46.219 0 15.094-5.9062 29.25-16.641 39.891-10.734 10.688-24.984 16.547-40.172 16.547-12.797 0-24.797-4.9688-33.844-13.922s-14.016-20.906-14.016-33.609c0-10.312 4.0312-19.969 11.344-27.281 7.3594-7.3125 17.109-11.297 27.516-11.297 7.9688 0 15.516 3.0938 21.141 8.7188s8.7656 13.078 8.7656 20.953c0 5.5312-2.1562 10.734-6.1406 14.672-3.9375 3.9375-9.1875 6.0938-14.812 6.0938-3.1875 0-6.1875-1.2188-8.4844-3.4688-2.25-2.25-3.4688-5.2031-3.4688-8.3438 0-1.0312 0.5625-1.7344 0.84375-2.0625 0.32812-0.32812 1.125-0.375 2.1094-0.89062 3.2812 0 6-2.6719 6-6s-2.6719-6-6-6h-0.046875c-3.9844 0-7.7344 1.5469-10.547 4.3594s-4.4062 6.5625-4.4062 10.547c0 6.375 2.4844 12.375 7.0312 16.875 4.5 4.5 10.547 6.9844 16.922 6.9844 8.8125 0 17.062-3.4219 23.25-9.5625 6.2344-6.1875 9.6562-14.438 9.6562-23.203 0-11.156-4.3594-21.609-12.281-29.484s-18.422-12.188-29.625-12.188c-13.594 0-26.344 5.25-35.953 14.812s-14.906 22.266-14.906 35.812c0 15.891 6.2344 30.844 17.531 42.094s26.297 17.438 42.281 17.438c18.375 0 35.672-7.125 48.656-20.062 13.031-12.938 20.156-30.141 20.156-48.422 0-20.672-8.1094-40.125-22.781-54.703-14.672-14.625-34.219-22.641-54.984-22.641-23.156 0-44.953 8.9531-61.359 25.266s-25.406 37.969-25.406 61.031c0 25.453 9.9375 49.359 28.078 67.312 9.9844 9.9375 21.844 17.297 34.781 22.031-12.891 4.6875-24.75 12.047-34.781 22.031-18.094 18-28.078 41.906-28.078 67.312 0 23.062 9.0469 44.719 25.406 61.031 16.406 16.266 38.203 25.266 61.359 25.266 20.766 0 40.312-8.0625 54.984-22.641 14.719-14.625 22.781-34.031 22.781-54.703 0-18.281-7.1719-35.484-20.156-48.422s-30.281-20.062-48.656-20.062c-15.984 0-30.984 6.1875-42.281 17.438s-17.531 26.203-17.531 42.094c0 13.5 5.2969 26.25 14.906 35.766 9.6094 9.5625 22.406 14.812 35.953 14.812 11.203 0 21.703-4.3125 29.625-12.188s12.281-18.328 12.281-29.484c0-8.7656-3.4219-16.969-9.6562-23.203-6.2344-6.1875-14.484-9.6094-23.25-9.6094-6.375 0-12.375 2.4844-16.922 6.9844s-7.0312 10.5-7.0312 16.875c0 3.9844 1.5469 7.7344 4.4062 10.547 2.8125 2.8125 6.6094 4.3594 10.594 4.3594 3.3281 0 6-2.6719 6-6s-2.6719-6-6-6c-0.79688 0-1.5469-0.28125-2.1094-0.84375-0.32812-0.32812-0.84375-1.0312-0.84375-2.0625 0-3.1875 1.2188-6.1406 3.4688-8.3438 2.25-2.25 5.25-3.4688 8.4844-3.4688 5.5781 0 10.828 2.1562 14.812 6.0938 3.9375 3.9375 6.1406 9.1406 6.1406 14.672 0 7.9219-3.0938 15.375-8.7656 20.953-5.6719 5.625-13.172 8.7188-21.141 8.7188-10.406 0-20.156-4.0312-27.516-11.297-7.3125-7.3125-11.391-16.969-11.391-27.281 0-12.703 4.9688-24.609 14.016-33.609s21.047-13.922 33.844-13.922c15.188 0 29.438 5.8594 40.172 16.547 10.734 10.641 16.641 24.844 16.641 39.891 0 17.438-6.8438 33.844-19.266 46.219-12.422 12.328-28.969 19.172-46.547 19.172-19.969 0-38.766-7.7344-52.875-21.75s-21.891-32.672-21.891-52.5c0-22.219 8.7188-43.125 24.516-58.828 15.797-15.75 36.844-24.375 59.25-24.375 24.75 0 48.047 9.6094 65.578 27s27.141 40.547 27.141 65.156c0 27-10.594 52.359-29.766 71.438-19.219 19.125-44.719 29.625-71.906 29.625-29.531-0.23438-57.328-11.672-78.234-32.438zm498.47 159.89c-20.953 20.719-48.844 32.156-78.469 32.156h-0.09375c-26.438 0-51.328 10.219-70.031 28.734-8.8594 8.8125-15.562 19.219-19.969 30.469-4.4062-11.297-11.109-21.703-19.969-30.469-18.703-18.516-43.594-28.734-70.031-28.734h-0.09375c-29.672 0-57.516-11.391-78.469-32.156-20.953-20.719-32.484-48.234-32.484-77.531 0-26.906 10.594-52.219 29.812-71.25 19.266-19.078 44.859-29.531 72.141-29.531 24.844 0 48.188 9.5625 65.766 26.953 17.531 17.344 27.188 40.406 27.188 64.922 0 22.172-8.7188 42.984-24.562 58.688s-36.938 24.328-59.391 24.328c-20.016 0-38.859-7.7344-53.016-21.75-14.156-13.969-21.938-32.578-21.938-52.359 0-17.391 6.8438-33.75 19.312-46.078s29.062-19.125 46.688-19.125c15.234 0 29.531 5.8594 40.312 16.5 10.734 10.641 16.688 24.75 16.688 39.75 0 12.656-4.9688 24.562-14.016 33.469-9.0469 8.9531-21.141 13.922-33.938 13.922-10.406 0-20.203-4.0312-27.609-11.297-7.3594-7.2656-11.391-16.922-11.391-27.188 0-7.875 3.0938-15.328 8.7656-20.906 5.6719-5.625 13.219-8.7188 21.234-8.7188 5.625 0 10.875 2.1562 14.859 6.0938 3.9375 3.8906 6.1406 9.0938 6.1406 14.625 0 3.1406-1.2188 6.0938-3.4688 8.2969-2.25 2.25-5.2969 3.4688-8.5312 3.4688-1.0781 0-1.8281-0.5625-2.1562-0.84375-0.32812-0.32812-0.84375-1.0312-0.84375-2.0625 0-3.3281-2.6719-6-6-6s-6 2.6719-6 6c0 3.9844 1.5469 7.7344 4.4062 10.594 2.8125 2.7656 6.6094 4.3125 10.594 4.3125 6.375 0 12.422-2.4844 16.922-6.9375 4.5469-4.5 7.0312-10.453 7.0312-16.828 0-8.7656-3.4219-16.969-9.7031-23.156-6.2344-6.1875-14.484-9.5625-23.297-9.5625-11.203 0-21.75 4.3125-29.672 12.188s-12.328 18.328-12.328 29.438c0 13.5 5.2969 26.203 14.953 35.719s22.406 14.766 36.047 14.766c16.031 0 31.078-6.1875 42.375-17.391 11.344-11.25 17.578-26.156 17.578-42.047 0-18.234-7.1719-35.391-20.25-48.281-13.031-12.891-30.328-19.969-48.75-19.969-20.812 0-40.406 8.0156-55.125 22.594-14.766 14.578-22.875 33.984-22.875 54.609 0 23.016 9.0469 44.625 25.5 60.891 16.406 16.266 38.25 25.219 61.453 25.219 25.641 0 49.734-9.8438 67.828-27.797 10.078-9.9375 17.531-21.797 22.266-34.688 4.7344 12.891 12.188 24.703 22.266 34.688 18.141 17.906 42.234 27.797 67.828 27.797 23.203 0 45.047-8.9531 61.453-25.219 16.453-16.266 25.5-37.875 25.5-60.891 0-20.672-8.1094-40.031-22.875-54.609-14.719-14.578-34.266-22.594-55.125-22.594-18.422 0-35.719 7.0781-48.75 19.969s-20.25 30.047-20.25 48.281c0 15.844 6.2344 30.797 17.625 42.047 11.297 11.203 26.344 17.391 42.375 17.391 13.594 0 26.391-5.25 36.047-14.766s14.953-22.219 14.953-35.719c0-11.109-4.3594-21.562-12.328-29.438-7.9219-7.8281-18.469-12.188-29.672-12.188-8.8125 0-17.062 3.375-23.297 9.5625s-9.7031 14.391-9.7031 23.156c0 6.375 2.5312 12.328 7.0781 16.828 4.5469 4.4531 10.547 6.9375 16.922 6.9375 3.9844 0 7.7344-1.5469 10.547-4.3125 2.8594-2.8125 4.4062-6.5625 4.4062-10.594 0-3.3281-2.6719-6-6-6s-6 2.6719-6 6c0 0.75-0.28125 1.4531-0.84375 2.0156-0.32812 0.32812-1.0781 0.89062-2.1562 0.89062-3.2344 0-6.2344-1.2188-8.5312-3.4688-2.25-2.25-3.4688-5.2031-3.4688-8.2969 0-5.5312 2.2031-10.688 6.1406-14.625 3.9844-3.9375 9.2344-6.0938 14.859-6.0938 8.0156 0 15.562 3.0938 21.234 8.7188 5.6719 5.5781 8.7656 13.031 8.7656 20.906 0 10.266-4.0312 19.922-11.391 27.188s-17.203 11.297-27.609 11.297c-12.844 0-24.891-4.9219-33.938-13.922-9.0469-8.9531-14.062-20.859-14.062-33.469 0-15 5.9062-29.156 16.688-39.75 10.781-10.641 25.078-16.5 40.312-16.5 17.625 0 34.219 6.7969 46.688 19.125 12.422 12.281 19.312 28.688 19.312 46.078 0 19.781-7.7812 38.391-21.938 52.359-14.156 14.016-33 21.75-53.016 21.75-22.453 0-43.547-8.625-59.391-24.328-15.844-15.656-24.562-36.516-24.562-58.688 0-24.516 9.6562-47.578 27.188-64.922 17.578-17.391 40.922-26.953 65.766-26.953 27.234 0 52.875 10.5 72.141 29.531s29.812 44.344 29.812 71.25c0.046875 29.297-11.484 56.812-32.391 77.531zm222.66-307.26c-18.75 18.609-29.016 43.312-29.016 69.609 0 29.344-11.531 57-32.391 77.766-20.906 20.766-48.703 32.203-78.234 32.203-27.188 0-52.734-10.5-71.906-29.625-19.219-19.078-29.766-44.438-29.766-71.438 0-24.609 9.6562-47.719 27.141-65.156 17.531-17.391 40.828-27 65.578-27 22.359 0 43.406 8.6719 59.25 24.375 15.797 15.703 24.516 36.609 24.516 58.828 0 19.828-7.7812 38.484-21.891 52.547-14.109 14.016-32.906 21.75-52.875 21.75-17.578 0-34.125-6.7969-46.547-19.172-12.422-12.375-19.266-28.734-19.266-46.219 0-15.094 5.9062-29.25 16.641-39.891 10.734-10.688 25.031-16.547 40.219-16.547 12.75 0 24.797 4.9219 33.844 13.922 9.0469 9 14.016 20.906 14.016 33.609 0 10.312-4.0312 19.969-11.391 27.281-7.3594 7.3125-17.109 11.297-27.469 11.297-7.9688 0-15.516-3.0938-21.141-8.7188-5.6719-5.625-8.7656-13.078-8.7656-20.953 0-5.5312 2.2031-10.734 6.1406-14.672s9.2344-6.0938 14.812-6.0938c3.1875 0 6.1875 1.2656 8.4375 3.4688 2.25 2.25 3.4688 5.2031 3.4688 8.3438 0 0.98438-0.46875 1.6875-0.84375 2.0625-0.5625 0.5625-1.3125 0.84375-2.1094 0.84375-3.3281 0-6 2.6719-6 6s2.6719 6 6 6c3.9844 0 7.7344-1.5469 10.594-4.3594 2.8125-2.8125 4.4062-6.5625 4.4062-10.547 0-6.375-2.4844-12.375-7.0312-16.875-4.5469-4.5-10.547-6.9844-16.922-6.9844-8.7656 0-17.062 3.375-23.297 9.6094-6.2344 6.1875-9.6562 14.438-9.6562 23.156 0 11.156 4.3594 21.609 12.281 29.484 7.9219 7.875 18.422 12.188 29.625 12.188 13.594 0 26.344-5.25 35.953-14.812 9.6094-9.5625 14.906-22.266 14.906-35.766 0-15.891-6.2344-30.844-17.531-42.094-11.438-11.156-26.484-17.344-42.422-17.344-18.375 0-35.672 7.125-48.656 20.062-13.031 12.938-20.156 30.141-20.156 48.422 0 20.672 8.1094 40.125 22.781 54.703 14.672 14.625 34.219 22.641 54.984 22.641 23.156 0 44.953-8.9531 61.312-25.266 16.406-16.312 25.406-37.969 25.406-61.031 0-25.453-9.9375-49.359-28.078-67.312-10.031-9.9375-21.891-17.297-34.781-22.031 12.891-4.6875 24.75-12.047 34.781-22.031 18.094-17.953 28.078-41.906 28.078-67.312 0-23.062-9.0469-44.719-25.406-61.031-16.359-16.266-38.156-25.266-61.312-25.266-20.766 0-40.312 8.0625-54.984 22.641-14.719 14.625-22.781 34.031-22.781 54.703 0 18.281 7.1719 35.484 20.156 48.422 12.984 12.938 30.281 20.062 48.656 20.062 15.984 0 30.984-6.1875 42.281-17.438 11.297-11.25 17.531-26.203 17.531-42.094 0-13.5-5.2969-26.25-14.906-35.812-9.6094-9.5625-22.359-14.812-35.953-14.812-11.203 0-21.703 4.3125-29.625 12.188-7.9219 7.875-12.281 18.328-12.281 29.484 0 8.7656 3.4219 16.969 9.6562 23.156 6.2344 6.1875 14.484 9.6094 23.25 9.6094 6.375 0 12.422-2.4844 16.922-6.9844 4.5469-4.5 7.0312-10.5 7.0312-16.875 0-4.0312-1.5938-7.7344-4.4062-10.547s-6.6094-4.3594-10.594-4.3594c-3.3281 0-6 2.6719-6 6s2.6719 6 6 6c0.79687 0 1.5469 0.32812 2.1094 0.89062s0.84375 1.2656 0.84375 2.0625c0 3.1406-1.2656 6.1406-3.4688 8.3438-2.25 2.25-5.25 3.4688-8.4375 3.4688-5.625 0-10.875-2.1562-14.812-6.0938s-6.1406-9.1406-6.1406-14.672c0-7.9219 3.0938-15.375 8.7656-21 5.625-5.625 13.172-8.7188 21.141-8.7188 10.359 0 20.156 4.0312 27.469 11.297 7.3125 7.3125 11.391 16.969 11.391 27.281 0 12.703-4.9688 24.609-14.016 33.609-9.0469 9-21.047 13.922-33.844 13.922-15.188 0-29.438-5.8594-40.219-16.547-10.734-10.641-16.641-24.844-16.641-39.891 0-17.438 6.8438-33.844 19.266-46.219 12.422-12.328 28.922-19.172 46.547-19.172 19.969 0 38.766 7.7344 52.875 21.75 14.109 14.016 21.891 32.672 21.891 52.5 0 22.219-8.7188 43.125-24.516 58.828-15.797 15.703-36.844 24.375-59.25 24.375-24.75 0-48.047-9.6094-65.578-27s-27.141-40.547-27.141-65.156c0-27 10.594-52.359 29.766-71.438 19.219-19.078 44.766-29.625 71.906-29.625h0.09375c29.578 0 57.328 11.438 78.234 32.203s32.391 48.375 32.391 77.766c-0.046876 26.297 10.266 51.047 29.016 69.609 8.8125 8.7656 19.266 15.375 30.562 19.734-11.25 4.5469-21.656 11.156-30.469 19.922z"/>
</svg>
