<?xml version="1.0" encoding="UTF-8"?>
<svg width="1200pt" height="1200pt" version="1.1" viewBox="0 0 1200 1200" xmlns="http://www.w3.org/2000/svg">
 <path d="m1009.5 598.55c30.516-8.0625 58.594-23.859 81.562-46.828 31.5-31.5 48.891-73.359 49.031-117.8 0.14062-44.484-17.109-86.25-48.469-117.66-28.781-28.781-67.078-44.625-107.81-44.625h-0.32812c-26.625 0.046875-52.172 6.9844-74.766 19.734 12.75-22.641 19.641-48.188 19.734-74.766 0.09375-40.922-15.75-79.359-44.625-108.19-31.266-31.266-72.891-48.516-117.19-48.516h-0.42188c-44.438 0.09375-86.297 17.531-117.8 49.031-22.922 22.922-38.766 51-46.828 81.562-7.8281-30.422-23.484-58.406-46.219-81.188-31.312-31.312-72.844-48.516-117.52-48.234-44.438 0.23438-86.344 17.719-117.89 49.312-29.062 29.062-45.188 67.594-45.328 108.47-0.14062 26.766 6.6562 52.359 19.359 74.953-22.5-12.562-48.047-19.219-74.906-19.406-40.875 0.1875-79.406 16.312-108.42 45.328-31.594 31.594-49.078 73.453-49.312 117.94-0.23438 44.531 16.922 86.25 48.188 117.56 22.781 22.781 50.719 38.391 81.188 46.266-30.516 8.0625-58.594 23.859-81.516 46.781-31.641 31.5-49.078 73.359-49.172 117.8-0.09375 44.484 17.109 86.25 48.469 117.66 28.781 28.781 67.031 44.625 107.77 44.625h0.375c26.625-0.09375 52.125-6.9844 74.766-19.734-12.75 22.641-19.641 48.141-19.688 74.766-0.09375 40.922 15.75 79.312 44.625 108.19 31.266 31.266 72.891 48.469 117.23 48.469h0.375c44.484-0.09375 86.297-17.531 117.8-49.031 22.922-22.922 38.766-51 46.828-81.562 7.8281 30.469 23.484 58.406 46.266 81.188 31.125 31.125 72.516 48.234 116.67 48.234h0.79688c44.438-0.23438 86.344-17.719 117.89-49.312 29.062-29.062 45.141-67.547 45.328-108.47 0.14062-26.672-6.6562-52.266-19.266-74.812 22.359 12.516 47.672 19.266 74.062 19.266h0.75c40.875-0.1875 79.406-16.266 108.42-45.328 31.594-31.594 49.125-73.5 49.312-117.94 0.23438-44.484-16.922-86.203-48.234-117.52-22.734-22.734-50.672-38.391-81.094-46.219zm-26.109-314.9h0.32812c37.594 0 72.844 14.578 99.328 41.109 29.109 29.109 45.094 67.875 44.953 109.12-0.09375 41.297-16.266 80.109-45.469 109.36-31.781 31.781-73.969 49.359-118.83 49.453l-349.13 1.2656 169.87-169.74 90.141 90.141c23.766 23.766 55.312 36.797 88.969 36.797h0.28125c33.75-0.09375 65.531-13.312 89.438-37.219 21.375-21.375 33.188-49.781 33.281-79.969s-11.625-58.547-32.906-79.828c-18.75-18.75-43.641-29.016-70.172-29.016h-0.23438c-26.625 0.046875-51.656 10.5-70.5 29.344-16.312 16.312-25.312 38.016-25.359 61.031-0.046876 23.016 8.8594 44.672 25.125 60.938 13.688 13.688 31.875 21.234 51.281 21.234h0.1875c19.453-0.046875 37.781-7.6406 51.562-21.469 11.25-11.25 17.484-26.203 17.484-42.094 0.046876-15.891-6.0938-30.797-17.344-42.047-8.6719-8.6719-20.203-13.453-32.438-13.453h-0.14062c-12.281 0.046875-23.859 4.8281-32.625 13.594-6.1875 6.1875-9.6094 14.391-9.6562 23.156 0 8.7656 3.375 17.016 9.5625 23.156 3.6562 3.6562 8.4844 5.6719 13.641 5.6719h0.09375c5.1562 0 10.031-2.0625 13.688-5.7188 2.3438-2.3438 2.3438-6.1406 0-8.4844s-6.1406-2.3438-8.4844 0c-1.4062 1.4062-3.2812 2.2031-5.25 2.2031h-0.046876c-1.9688 0-3.75-0.75-5.1562-2.1562-3.8906-3.8906-6.0469-9.0938-6.0469-14.625 0.046874-5.5312 2.2031-10.781 6.1406-14.719 6.4688-6.4688 15.047-10.031 24.188-10.078h0.09375c9.0469 0 17.578 3.5156 23.953 9.9375 8.9531 8.9531 13.875 20.859 13.828 33.516-0.046874 12.703-4.9688 24.656-13.969 33.656-11.531 11.531-26.859 17.906-43.125 17.953h-0.14062c-16.172 0-31.359-6.2812-42.797-17.719-13.969-13.969-21.656-32.625-21.609-52.453 0.046874-19.828 7.7812-38.484 21.844-52.547 16.594-16.594 38.625-25.781 62.062-25.828h0.1875c23.297 0 45.234 9.0469 61.688 25.5 19.031 19.031 29.438 44.344 29.391 71.344-0.046874 26.953-10.641 52.359-29.766 71.484-21.656 21.656-50.391 33.609-80.953 33.703h-0.23437c-30.422 0-59.016-11.812-80.531-33.281l-90.141-90.141 90.562-90.516c26.766-26.672 62.203-41.484 99.891-41.578zm-376.03-47.391c0.09375-44.812 17.672-87.047 49.453-118.83 29.203-29.25 68.062-45.422 109.31-45.516h0.375c41.109 0 79.688 15.984 108.7 45 26.578 26.578 41.156 61.969 41.109 99.703-0.09375 37.688-14.859 73.172-41.578 99.891-0.46875 0.51562-0.84375 1.0781-1.125 1.6875l-89.156 89.109-90.328-90.328c-21.562-21.562-33.375-50.25-33.281-80.766 0.09375-30.562 12.047-59.297 33.703-80.953 19.125-19.125 44.531-29.719 71.484-29.766h0.23438c26.859 0 52.125 10.453 71.109 29.391 16.5 16.5 25.594 38.484 25.5 61.875-0.09375 23.438-9.2344 45.469-25.828 62.062-14.062 14.062-32.719 21.844-52.547 21.891h-0.23438c-19.734 0-38.25-7.6875-52.219-21.609-11.438-11.438-17.766-26.719-17.719-42.984s6.375-31.594 17.906-43.078c9-9 20.906-13.969 33.656-14.016h0.14062c12.609 0 24.469 4.9219 33.375 13.828 6.4219 6.4219 9.9844 15 9.9375 24.094 0 9.0938-3.6094 17.672-10.078 24.141-3.9375 3.9375-9.1875 6.0938-14.719 6.1406-5.5312-0.23438-10.734-2.1094-14.672-6-1.3594-1.4062-2.1562-3.2344-2.1562-5.2031s0.75-3.8438 2.1562-5.25c2.3438-2.3438 2.3438-6.1406 0-8.4844s-6.1406-2.3438-8.4844 0c-3.6562 3.6562-5.6719 8.5312-5.6719 13.688-0.046875 5.1562 1.9688 10.078 5.6719 13.734 6.1875 6.1406 14.344 9.5625 23.062 9.5625h0.09375c8.7188 0 16.969-3.4219 23.156-9.6562 8.7656-8.7656 13.547-20.344 13.594-32.625 0.046875-12.328-4.7344-23.906-13.453-32.625-11.156-11.203-26.062-17.344-41.859-17.344h-0.14062c-15.891 0.046875-30.844 6.2344-42.094 17.531-13.781 13.781-21.422 32.109-21.422 51.562-0.046875 19.5 7.5 37.781 21.234 51.516 16.219 16.219 37.734 25.125 60.703 25.125h0.23438c23.062-0.046875 44.719-9.0938 61.031-25.406 18.844-18.844 29.25-43.875 29.344-70.5s-10.266-51.609-29.016-70.406c-21.234-21.234-49.5-32.906-79.594-32.906h-0.23438c-30.188 0.09375-58.547 11.906-79.922 33.281-23.906 23.906-37.125 55.688-37.219 89.438s12.984 65.438 36.797 89.297l90.328 90.328-169.92 169.6zm-279.05-117.38c29.344-29.344 68.203-45.609 109.5-45.797 41.344-0.375 79.922 15.703 108.98 44.719 31.547 31.547 48.797 73.594 48.562 118.41l-1.2656 349.36-168.47-168.71 90.844-90.844c23.953-23.953 37.266-55.734 37.406-89.484s-12.844-65.438-36.609-89.203c-21.234-21.281-49.875-32.812-79.781-32.719-30.188 0.14062-58.594 12.047-80.016 33.469-18.891 18.891-29.344 43.922-29.484 70.547s10.125 51.609 28.828 70.359c16.125 16.125 37.594 24.984 60.469 24.984h0.42188c23.016-0.09375 44.719-9.1875 61.078-25.547 13.828-13.828 21.469-32.156 21.562-51.609 0.09375-19.5-7.4062-37.734-21.141-51.469-11.203-11.203-26.297-17.578-42-17.25-15.891 0.09375-30.844 6.3281-42.141 17.625-8.7188 8.7188-13.594 20.297-13.641 32.672-0.046875 12.328 4.6875 23.906 13.359 32.578 6.1406 6.1875 14.297 10.078 23.156 9.5156 8.7188-0.046875 16.969-3.4688 23.156-9.7031 3.6562-3.6562 5.6719-8.5312 5.7188-13.688 0-5.2031-1.9688-10.078-5.625-13.688-2.3438-2.3438-6.1406-2.3438-8.4844 0s-2.3438 6.1406 0 8.4844c1.3594 1.3594 2.1094 3.1875 2.1094 5.1562s-0.79688 3.8438-2.2031 5.25c-3.9375 3.9375-9.1875 6.1406-14.719 6.1875h-0.09375c-5.5312 0-10.688-2.1094-14.531-6-6.4219-6.375-9.8906-14.953-9.8438-24.047 0.046875-9.1406 3.6562-17.766 10.125-24.234 9.0469-9.0469 21-14.016 33.703-14.109h0.23438c12.609 0 24.375 4.875 33.234 13.734 11.438 11.438 17.672 26.672 17.625 42.938-0.09375 16.266-6.4688 31.594-18.047 43.172-14.109 14.109-32.812 21.938-52.641 22.031h-0.32812c-19.688 0-38.156-7.6406-52.031-21.469-16.453-16.453-25.453-38.438-25.312-61.781 0.14062-23.438 9.3281-45.469 25.969-62.109 19.172-19.172 44.625-29.812 71.578-29.953 27.094-0.1875 52.266 10.266 71.203 29.203 21.469 21.469 33.234 50.156 33.094 80.672-0.14062 30.562-12.188 59.344-33.891 81.094l-90.797 90.844-89.812-89.906c-26.484-26.531-40.969-61.875-40.781-99.562 0.09375-37.781 14.953-73.312 41.766-100.12zm-255.1 318.84c0.1875-41.25 16.453-80.156 45.797-109.5 26.812-26.812 62.297-41.672 100.03-41.812h0.65625c37.406 0 72.516 14.484 98.859 40.828 0.51562 0.51562 1.0781 0.84375 1.6875 1.125l88.406 88.5-91.031 91.031c-21.703 21.75-50.484 33.75-81.047 33.891-30.516-0.1875-59.156-11.625-80.672-33.094-18.984-18.984-29.344-44.25-29.203-71.25s10.734-52.406 29.906-71.625c16.641-16.641 38.719-25.875 62.109-25.969 23.484-0.60938 45.328 8.8594 61.781 25.359 13.922 13.922 21.562 32.531 21.469 52.359-0.09375 19.875-7.9219 38.578-22.031 52.641-11.578 11.578-26.906 17.953-43.172 18.047h-0.28125c-16.172 0-31.266-6.2344-42.656-17.625-8.9062-8.9062-13.781-20.812-13.734-33.469 0.046875-12.703 5.0625-24.656 14.109-33.703 6.4688-6.5156 15.094-10.078 24.188-10.125h0.14062c9.0469 0 17.531 3.5156 23.859 9.8438 3.8906 3.8906 6 9.0938 6 14.578-0.046875 5.5781-2.25 10.781-6.1875 14.766-1.4062 1.4062-3.2812 2.2031-5.25 2.2031h-0.046875c-1.9688 0-3.7969-0.75-5.1562-2.1094-2.3438-2.3438-6.1406-2.3438-8.4844 0s-2.3438 6.1406 0 8.4844c3.6562 3.6562 8.7188 5.5781 13.734 5.625 5.1562-0.046875 10.031-2.0625 13.688-5.7188 6.1875-6.1875 9.6562-14.438 9.7031-23.156 0.046875-8.7656-3.3281-16.969-9.5156-23.156-8.625-8.625-20.109-13.359-32.344-13.359h-0.23438c-12.328 0.046875-23.906 4.9219-32.625 13.641-11.25 11.25-17.531 26.25-17.578 42.141-0.09375 15.891 6.0469 30.844 17.25 42.047 13.688 13.688 31.781 20.766 51.469 21.141 19.453-0.09375 37.781-7.7344 51.609-21.562 16.359-16.359 25.406-38.016 25.547-61.078 0.09375-23.062-8.7656-44.672-24.984-60.891-18.75-18.75-44.062-28.5-70.312-28.875-26.625 0.14062-51.656 10.594-70.547 29.484-21.422 21.422-33.281 49.875-33.422 80.016-0.14062 30.188 11.484 58.5 32.719 79.781 23.625 23.625 55.078 36.609 88.594 36.609h0.60938c33.75-0.14062 65.531-13.453 89.484-37.406l90.984-91.031 168.52 168.71-349.31 1.2656c-44.859 0.1875-86.859-17.016-118.41-48.562-29.016-29.016-44.859-67.734-44.672-109.03zm143.48 478.6h-0.375c-37.547 0-72.797-14.578-99.281-41.109-29.156-29.062-45.094-67.828-45-109.08s16.266-80.109 45.516-109.36c31.781-31.781 73.969-49.312 118.83-49.453l349.13-1.2656-169.87 169.74-90.141-90.141c-23.766-23.766-55.359-36.844-88.969-36.844h-0.28125c-33.75 0.09375-65.484 13.312-89.391 37.219-21.375 21.375-33.234 49.781-33.281 79.969-0.09375 30.188 11.625 58.547 32.906 79.828 18.703 18.703 43.641 29.016 70.219 29.016h0.1875c26.578-0.046876 51.609-10.453 70.453-29.344 16.312-16.312 25.312-37.969 25.406-61.031 0.046875-23.062-8.9062-44.672-25.125-60.938-13.688-13.734-31.969-21.234-51.375-21.234h-0.09375c-19.453 0.046876-37.734 7.6875-51.562 21.469-11.25 11.25-17.484 26.203-17.531 42.094-0.046875 15.891 6.1406 30.797 17.344 42.047 8.6719 8.6719 20.203 13.453 32.484 13.453h0.09375c12.328-0.046874 23.906-4.8281 32.625-13.594 6.1875-6.1875 9.6094-14.438 9.6562-23.156 0-8.7656-3.375-16.969-9.5625-23.156-3.6562-3.6562-8.5312-5.6719-13.734-5.6719-5.2031 0.046874-10.031 2.0625-13.688 5.7188-2.3438 2.3438-2.3438 6.1406 0 8.4844s6.1406 2.3438 8.4844 0c2.8125-2.8125 7.6875-2.8125 10.406-0.046874 3.8906 3.8906 6.0469 9.0938 6.0469 14.625s-2.2031 10.781-6.1406 14.719c-6.4688 6.4688-15.047 10.031-24.188 10.078h-0.09375c-9.0938 0-17.625-3.5156-24-9.9375-8.9531-8.9531-13.828-20.859-13.828-33.516 0.046875-12.703 5.0156-24.656 14.016-33.656 11.531-11.531 26.812-17.906 43.078-17.953h0.09375c16.219 0 31.453 6.2812 42.891 17.766 13.969 13.969 21.656 32.625 21.609 52.406-0.09375 19.828-7.8281 38.531-21.891 52.594-16.594 16.594-38.625 25.781-62.016 25.828h-0.1875c-23.344 0-45.281-9.0469-61.734-25.5-19.031-19.031-29.438-44.344-29.391-71.344 0.046875-26.953 10.641-52.359 29.766-71.484 21.656-21.656 50.391-33.656 80.953-33.703h0.28125c30.422 0 59.016 11.812 80.484 33.328l90.141 90.141-90.609 90.516c-26.625 26.625-62.109 41.438-99.75 41.484zm376.03 47.438c-0.09375 44.859-17.672 87.047-49.453 118.83-29.25 29.25-68.062 45.422-109.36 45.516h-0.375c-41.109 0-79.734-15.938-108.75-44.953-26.578-26.578-41.203-61.969-41.109-99.703 0.09375-37.688 14.859-73.172 41.578-99.891 0.51562-0.51562 0.84375-1.0781 1.125-1.6875l89.203-89.109 90.328 90.328c21.562 21.562 33.375 50.25 33.281 80.766-0.09375 30.562-12.047 59.297-33.703 80.953-19.125 19.125-44.531 29.672-71.484 29.766h-0.28125c-26.859 0-52.078-10.406-71.062-29.391-16.5-16.5-25.547-38.484-25.5-61.875s9.2344-45.422 25.828-62.062c14.062-14.062 32.719-21.844 52.547-21.891h0.1875c19.734 0 38.297 7.6875 52.266 21.609 11.484 11.484 17.766 26.719 17.719 42.984s-6.4219 31.594-17.906 43.125c-9 9-20.953 13.969-33.656 14.016h-0.09375c-12.656 0-24.516-4.9219-33.469-13.828-6.4219-6.4219-9.9375-14.953-9.9375-24.094 0.046875-9.0938 3.6094-17.719 10.078-24.188 3.9375-3.9375 9.1406-6.0938 14.719-6.1406h0.09375c5.4844 0 10.688 2.1562 14.578 6.0469 1.3594 1.3594 2.1562 3.2344 2.1094 5.1562 0 1.9688-0.79688 3.8438-2.1562 5.25-2.3438 2.3438-2.3438 6.1406 0 8.4844s6.1406 2.3438 8.4844 0c3.6562-3.6562 5.6719-8.5312 5.7188-13.688 0-5.2031-1.9688-10.078-5.6719-13.688-6.1406-6.1875-14.344-9.5625-23.062-9.5625h-0.14062c-8.7656 0.046875-16.969 3.4219-23.156 9.6562-8.7188 8.7188-13.547 20.297-13.594 32.625s4.7344 23.906 13.453 32.578c11.203 11.203 26.062 17.344 41.953 17.344h0.09375c15.891-0.046875 30.844-6.2344 42.094-17.531 13.781-13.781 21.375-32.109 21.422-51.562s-7.4531-37.734-21.234-51.516c-16.219-16.219-37.781-25.125-60.75-25.125h-0.1875c-23.016 0.046875-44.719 9.0938-61.031 25.406-18.844 18.844-29.25 43.875-29.344 70.5-0.046875 26.625 10.266 51.656 29.016 70.406 21.234 21.234 49.453 32.906 79.547 32.906h0.28125c30.188-0.09375 58.547-11.906 79.922-33.281 23.906-23.906 37.125-55.688 37.219-89.438s-12.984-65.484-36.797-89.297l-90.328-90.328 170.02-169.64zm279.05 117.38c-29.297 29.297-68.203 45.609-109.45 45.797h-0.75c-40.969 0-79.359-15.844-108.19-44.719-31.547-31.547-48.797-73.594-48.562-118.45l1.2656-349.31 168.52 168.71-90.797 90.844c-24 23.953-37.266 55.734-37.406 89.484-0.1875 33.75 12.844 65.438 36.609 89.203 21.141 21.141 49.219 32.766 79.219 32.766h0.5625c30.188-0.14062 58.594-12.047 79.969-33.469 18.891-18.891 29.391-43.969 29.531-70.547 0.14062-26.625-10.125-51.609-28.875-70.312-16.125-16.125-37.547-24.984-60.422-24.984h-0.42188c-23.016 0.09375-44.719 9.1875-61.078 25.547-13.828 13.781-21.469 32.156-21.562 51.609s7.4062 37.734 21.141 51.469c11.156 11.156 25.969 17.25 41.766 17.25h0.28125c15.844-0.09375 30.797-6.3281 42.094-17.625 8.7656-8.7656 13.594-20.344 13.641-32.672 0.09375-12.328-4.6875-23.906-13.359-32.578-6.1875-6.1875-14.391-9.8438-23.156-9.5156-8.7656 0.046875-16.969 3.4688-23.203 9.7031-3.6562 3.6562-5.6719 8.5312-5.7188 13.688-0.046875 5.2031 1.9688 10.078 5.625 13.734 2.3438 2.3438 6.1406 2.3438 8.4844 0s2.3438-6.1406 0-8.4844c-1.3594-1.3594-2.1094-3.2344-2.1094-5.1562 0-1.9688 0.79688-3.8438 2.2031-5.25 3.9375-3.9375 9.1875-6.1406 14.766-6.1875 5.7188 0.14062 10.688 2.1094 14.578 6 6.375 6.375 9.8906 14.953 9.8438 24.047-0.046875 9.1406-3.6562 17.719-10.125 24.234-9.0469 9.0469-20.953 14.016-33.656 14.109h-0.23438c-12.609 0-24.422-4.875-33.281-13.734-11.391-11.438-17.672-26.672-17.625-42.938 0.09375-16.266 6.4688-31.641 18.047-43.172 14.109-14.109 32.766-21.891 52.641-22.031h0.375c19.688 0 38.109 7.6406 51.938 21.469 16.453 16.453 25.453 38.391 25.359 61.781-0.14062 23.438-9.3281 45.469-25.969 62.156-19.172 19.172-44.578 29.812-71.578 29.953h-0.46875c-26.766 0-51.891-10.359-70.734-29.25-21.469-21.469-33.234-50.156-33.094-80.672 0.14062-30.562 12.188-59.344 33.891-81.094l90.797-90.844 89.812 89.906c26.531 26.531 41.016 61.875 40.828 99.562-0.32812 37.688-15.188 73.219-41.953 99.984zm209.29-209.34c-26.812 26.766-62.297 41.672-100.03 41.812h-0.70313c-37.406 0-72.516-14.484-98.859-40.828-0.46875-0.46875-1.0781-0.79688-1.6875-1.125l-88.406-88.547 91.031-91.031c21.703-21.703 50.484-33.75 81.047-33.891 30.469-0.65625 59.156 11.625 80.672 33.094 18.984 18.984 29.344 44.297 29.203 71.25-0.14062 26.953-10.734 52.406-29.906 71.578-16.641 16.641-38.719 25.875-62.109 25.969-23.062-0.32812-45.281-8.8594-61.781-25.312-13.922-13.922-21.609-32.578-21.469-52.359 0.09375-19.828 7.9219-38.531 22.031-52.641 11.578-11.578 26.906-17.953 43.125-18.094h0.23437c16.172 0 31.312 6.2344 42.703 17.625 8.9062 8.9062 13.781 20.812 13.734 33.469-0.046874 12.703-5.0625 24.656-14.109 33.703-6.4688 6.4688-15.094 10.078-24.234 10.172-9.2344 0.1875-17.625-3.4219-24.047-9.8438-3.8906-3.8906-6-9.0938-5.9531-14.625 0.046876-5.5781 2.2031-10.781 6.1406-14.719 2.8594-2.8594 7.6875-2.8125 10.406-0.09375 2.3438 2.3438 6.1406 2.3438 8.4844 0s2.3438-6.1406 0-8.4844c-3.6562-3.6562-8.4844-5.625-13.734-5.625-5.1562 0.046874-10.031 2.0625-13.688 5.7188-6.1875 6.1875-9.6094 14.438-9.6562 23.156-0.046876 8.7656 3.3281 17.016 9.4688 23.203 8.625 8.625 20.109 13.359 32.344 13.359h0.23437c12.328-0.09375 23.906-4.9219 32.625-13.688 11.297-11.297 17.531-26.25 17.625-42.141 0.09375-15.891-6.0469-30.797-17.25-42.047-13.641-13.641-31.781-21.141-51.188-21.141h-0.28125c-19.406 0.09375-37.734 7.7812-51.562 21.609-16.359 16.359-25.406 38.062-25.547 61.078-0.09375 23.062 8.7656 44.672 25.031 60.891 18.609 18.609 43.359 28.828 69.75 28.828h0.5625c26.578-0.14062 51.656-10.594 70.547-29.484 21.422-21.422 33.281-49.828 33.422-80.016 0.14062-30.188-11.438-58.547-32.719-79.781-23.766-23.766-56.016-36.609-89.203-36.609-33.75 0.1875-65.531 13.453-89.438 37.406l-91.031 91.031-168.42-168.66 349.26-1.2656h0.046875c44.625-0.14062 86.859 17.016 118.41 48.609 29.016 29.016 44.906 67.734 44.719 108.98-0.23438 41.25-16.5 80.156-45.844 109.5z"/>
</svg>
