<?xml version="1.0" encoding="UTF-8"?>
<svg width="1200pt" height="1200pt" version="1.1" viewBox="0 0 1200 1200" xmlns="http://www.w3.org/2000/svg">
 <path d="m1140 600c0-2.9531-2.2031-5.2969-5.0156-5.8125-0.32812-0.046875-0.60938-0.1875-0.9375-0.1875h-0.1875c-24.375 0-47.297-9.4219-64.547-26.484-19.547-19.406-30.281-45.188-30.234-72.609 0-38.062-14.906-73.828-41.953-100.73s-63-41.719-101.25-41.719c-21.75 0-42.703 5.25-61.453 15 9.8438-18.609 15.094-39.375 15.094-60.938 0-37.969-14.953-73.688-42.094-100.5-27.094-26.812-63.141-41.625-101.48-41.625h-0.14062c-27.656 0-53.625-10.641-73.125-30.047-17.25-17.109-26.719-39.844-26.719-64.078 0-0.28125-0.14062-0.5625-0.1875-0.79688-0.09375-0.51562-0.09375-1.0312-0.32812-1.5-0.046875-0.14062-0.14062-0.1875-0.23438-0.32812-0.28125-0.5625-0.60938-1.125-1.0781-1.5938-0.28125-0.28125-0.65625-0.42188-0.98438-0.65625-0.32812-0.1875-0.5625-0.46875-0.9375-0.60938-0.46875-0.23438-1.0781-0.23438-1.5938-0.32812-0.14062-0.09375-0.32812-0.23438-0.60938-0.23438-0.23438 0-0.46875 0.14062-0.75 0.14062-0.5625 0.09375-1.125 0.14062-1.5938 0.32812-0.32812 0.14062-0.60938 0.42188-0.9375 0.60938-0.32812 0.28125-0.65625 0.42188-0.98438 0.70312-0.46875 0.46875-0.79688 1.0312-1.0781 1.5938-0.046875 0.09375-0.14062 0.1875-0.23438 0.32812-0.1875 0.46875-0.23438 0.98438-0.32812 1.5 0.046875 0.28125-0.09375 0.51562-0.09375 0.79688 0.046875 24.234-9.4688 46.969-26.672 64.078-19.547 19.359-45.469 30.047-73.125 30.047h-0.14062c-38.344 0-74.344 14.766-101.48 41.625s-42.094 62.531-42.094 100.5c0 21.609 5.25 42.375 15.094 60.938-18.75-9.75-39.703-15-61.453-15-38.25 0-74.203 14.812-101.25 41.719s-41.953 62.672-41.953 100.73c0.046875 27.422-10.688 53.25-30.234 72.609-17.25 17.109-40.172 26.531-64.547 26.531h-0.09375c-3.375 0-6.0469 2.6719-6.0469 6s2.6719 6 6 6h0.14062c24.375 0 47.297 9.4219 64.547 26.531 19.547 19.359 30.281 45.188 30.234 72.609 0 38.062 14.906 73.828 41.953 100.73s63 41.719 101.25 41.719c21.75 0 42.703-5.25 61.453-15-9.8438 18.609-15.094 39.375-15.094 60.938 0 37.969 14.953 73.688 42.094 100.55 27.141 26.812 63.141 41.625 101.48 41.625h0.14062c27.656 0 53.625 10.688 73.125 30.047 17.25 17.109 26.719 39.844 26.672 64.078v0.046875c0 0.46875 0.1875 0.89062 0.28125 1.3125 0.09375 0.32812 0.09375 0.70312 0.1875 1.0312 0.14062 0.28125 0.375 0.51562 0.51562 0.79688 0.23438 0.375 0.42188 0.79688 0.75 1.125 0.09375 0.09375 0.23438 0.14062 0.375 0.23438 0.46875 0.42188 0.9375 0.79688 1.5469 1.0312 0.1875 0.09375 0.42188 0.046875 0.60938 0.14062 0.5625 0.1875 1.125 0.32812 1.7344 0.32812s1.1719-0.1875 1.7344-0.32812c0.1875-0.046875 0.42188-0.046875 0.60938-0.14062 0.5625-0.23438 1.0781-0.65625 1.5469-1.0312 0.09375-0.09375 0.28125-0.14062 0.375-0.23438 0.32812-0.32812 0.51562-0.75 0.75-1.125 0.1875-0.28125 0.42188-0.46875 0.51562-0.79688 0.14062-0.28125 0.14062-0.70312 0.1875-1.0312 0.09375-0.42188 0.28125-0.84375 0.28125-1.3125v-0.046875c-0.046875-24.234 9.4219-46.969 26.719-64.078 19.5-19.359 45.469-30.047 73.125-30.047h0.14062c38.297 0 74.344-14.766 101.48-41.625s42.094-62.578 42.094-100.55c0-21.609-5.25-42.375-15.094-60.938 18.75 9.75 39.703 15 61.453 15 38.25 0 74.25-14.812 101.25-41.719 27.047-26.906 41.953-62.672 41.953-100.73-0.046875-27.422 10.734-53.25 30.234-72.609 17.25-17.109 40.172-26.531 64.547-26.531h0.14062c0.42188 0 0.75-0.14062 1.125-0.23438s0.79688-0.09375 1.1719-0.23438c0.23438-0.09375 0.42188-0.28125 0.65625-0.42188 0.42188-0.23438 0.89062-0.51562 1.2656-0.84375 0.046875-0.046875 0.046875-0.09375 0.09375-0.14062 0.98438-1.0781 1.6406-2.5312 1.6406-4.125zm-540 246.14c-5.8594-18.188-15.984-34.875-30.047-48.75-23.109-22.875-53.812-35.484-86.531-35.484-21.891 0-42.984 5.25-61.828 15.094 9.8906-18.703 15.188-39.609 15.188-61.359 0-32.438-12.703-62.953-35.766-85.875-13.969-13.875-30.703-23.906-48.984-29.719 18.281-5.8125 35.016-15.844 48.984-29.719 23.062-22.922 35.766-53.438 35.766-85.875 0-21.75-5.2969-42.656-15.188-61.359 18.844 9.8438 39.938 15.094 61.875 15.094 32.672 0 63.422-12.609 86.531-35.484 14.016-13.875 24.188-30.562 30.047-48.75 5.8594 18.188 15.984 34.875 30.047 48.75 23.109 22.875 53.859 35.484 86.531 35.484 21.891 0 43.031-5.25 61.875-15.094-9.8906 18.703-15.188 39.609-15.188 61.359 0 32.438 12.703 62.953 35.766 85.922 13.922 13.875 30.703 23.906 48.938 29.719-18.234 5.8125-35.016 15.844-48.938 29.719-23.062 22.922-35.766 53.438-35.766 85.875 0 21.75 5.2969 42.656 15.188 61.359-18.844-9.8438-39.938-15.094-61.875-15.094-32.672 0-63.375 12.609-86.531 35.484-14.109 13.828-24.234 30.469-30.094 48.703zm-199.03-631.64c24.844-24.609 57.891-38.156 93.047-38.156h0.14062c30.844 0 59.812-11.906 81.609-33.516 11.062-10.969 19.172-24.047 24.234-38.25 5.0625 14.203 13.172 27.281 24.234 38.25 21.797 21.609 50.766 33.516 81.562 33.516h0.14062c35.156 0 68.203 13.547 93.047 38.156 24.844 24.562 38.531 57.234 38.531 91.969 0 31.922-12.562 61.969-35.391 84.562-22.828 22.641-53.25 35.062-85.547 35.062-29.484 0-57.234-11.344-78.094-32.016-20.812-20.625-32.297-48.047-32.297-77.156 0-26.344 10.359-51.141 29.203-69.75 18.844-18.656 43.922-28.922 70.594-28.922 23.859 0 46.266 9.1875 63.141 25.875 16.828 16.641 26.109 38.812 26.109 62.391 0 20.766-8.1562 40.266-23.016 54.938-14.859 14.719-34.594 22.781-55.641 22.781-18.188 0-35.297-7.0312-48.141-19.734s-19.922-29.625-19.922-47.578c0-15.188 5.9531-29.438 16.828-40.172s25.312-16.688 40.688-16.688c12.562 0 24.328 4.8281 33.188 13.594 8.8125 8.7656 13.734 20.391 13.734 32.766 0 9.5625-3.75 18.562-10.641 25.359-6.8438 6.7969-15.984 10.547-25.734 10.547-6.8906 0-13.359-2.6719-18.234-7.4531-4.8281-4.7812-7.5-11.156-7.5-17.953 0-3.9844 1.5938-7.7344 4.4062-10.547 2.8594-2.8125 6.7031-4.4062 10.734-4.4062 1.2188 0 2.3906 0.46875 3.2812 1.3125 0.84375 0.84375 1.3125 1.9688 1.3125 3.1406 0 3.3281 2.6719 6 6 6s6-2.6719 6-6c0-4.4062-1.7344-8.5781-4.875-11.672s-7.2656-4.7812-11.719-4.7812c-7.2656 0-14.062 2.8125-19.219 7.875-5.1562 5.1094-7.9688 11.859-7.9688 19.078 0 9.9844 3.9375 19.406 11.062 26.484s16.594 10.922 26.672 10.922c12.891 0 25.031-4.9688 34.172-14.016s14.203-21.094 14.203-33.891c0-15.609-6.1406-30.234-17.25-41.297-11.109-11.016-25.922-17.062-41.625-17.062-18.562 0-36 7.1719-49.125 20.156s-20.391 30.281-20.391 48.703c0 21.188 8.3438 41.109 23.484 56.109 15.141 14.953 35.25 23.203 56.578 23.203 24.234 0 46.969-9.3281 64.078-26.25 17.156-16.969 26.578-39.516 26.578-63.469 0-26.766-10.547-51.984-29.672-70.922-19.125-18.891-44.531-29.344-71.578-29.344-29.859 0-57.891 11.531-79.031 32.391-12.469 12.328-21.516 27.094-26.906 43.125-5.4375-16.078-14.484-30.797-26.906-43.125-21.094-20.906-49.172-32.391-79.031-32.391-27.047 0-52.453 10.406-71.578 29.344s-29.672 44.109-29.672 70.922c0 24 9.4219 46.547 26.578 63.469 17.109 16.922 39.844 26.25 64.078 26.25 21.375 0 41.484-8.25 56.578-23.203 15.141-15 23.484-34.922 23.484-56.109 0-18.375-7.2188-35.672-20.391-48.703-13.125-12.984-30.562-20.156-49.125-20.156-15.703 0-30.516 6.0469-41.625 17.062-11.156 11.016-17.297 25.688-17.297 41.297 0 12.797 5.0156 24.844 14.203 33.891 9.1406 9.0469 21.234 14.016 34.125 14.016 10.078 0 19.547-3.8906 26.672-10.922 7.125-7.0781 11.062-16.453 11.062-26.484 0-7.2188-2.8125-13.969-7.9688-19.078-5.1094-5.0625-11.953-7.875-19.172-7.875-4.4062 0-8.5781 1.6875-11.719 4.7812s-4.875 7.2656-4.875 11.672c0 3.3281 2.6719 6 6 6s6-2.6719 6-6c0-1.1719 0.46875-2.2969 1.3125-3.1406s2.0156-1.3125 3.2344-1.3125c4.0781 0 7.875 1.5469 10.734 4.4062 2.8594 2.8125 4.4062 6.5625 4.4062 10.547 0 6.75-2.6719 13.172-7.5 17.953-4.875 4.8281-11.344 7.4531-18.234 7.4531-9.7031 0-18.844-3.75-25.688-10.547-6.8438-6.75-10.641-15.75-10.641-25.359 0-12.375 4.875-24 13.734-32.766s20.672-13.594 33.188-13.594c15.375 0 29.812 5.9062 40.688 16.688 10.828 10.734 16.828 24.984 16.828 40.172 0 17.953-7.0781 34.828-19.922 47.578-12.844 12.703-29.953 19.734-48.141 19.734-21.047 0-40.781-8.1094-55.641-22.781-14.812-14.672-23.016-34.219-23.016-54.938 0-23.578 9.2812-45.703 26.109-62.391 16.875-16.688 39.281-25.875 63.141-25.875 26.672 0 51.75 10.266 70.594 28.922s29.203 43.406 29.203 69.75c0 29.156-11.484 56.578-32.297 77.156-20.859 20.625-48.609 32.016-78.094 32.016-32.297 0-62.719-12.469-85.547-35.062s-35.391-52.641-35.391-84.562c-0.046875-34.734 13.641-67.406 38.438-91.969zm-189.66 582.84c-24.75-24.656-38.438-57.375-38.438-92.203 0.046875-30.703-11.953-59.531-33.797-81.141-10.969-10.922-24.047-18.984-38.344-24 14.25-5.0156 27.375-13.078 38.344-23.953 21.844-21.656 33.844-50.484 33.797-81.141 0-34.828 13.641-67.594 38.438-92.25s57.75-38.203 92.766-38.203c32.25 0 62.531 12.469 85.312 35.156s35.344 52.781 35.344 84.797c0 29.25-11.438 56.719-32.25 77.391s-48.469 32.062-77.859 32.062c-26.578 0-51.609-10.312-70.406-29.016s-29.156-43.547-29.156-69.984c0-23.625 9.2344-45.844 26.062-62.531 16.828-16.734 39.188-25.922 62.953-25.922 20.953 0 40.641 8.1094 55.453 22.828s22.969 34.312 22.969 55.125c0 18-7.0781 34.969-19.875 47.719-12.844 12.75-29.859 19.781-48 19.781-15.328 0-29.719-5.9062-40.547-16.688s-16.781-25.078-16.781-40.266c0-12.422 4.875-24.094 13.688-32.859s20.578-13.641 33.094-13.641c9.7031 0 18.797 3.75 25.641 10.547s10.594 15.797 10.594 25.406c0 6.7969-2.6719 13.219-7.5 18-4.8281 4.8281-11.297 7.4531-18.141 7.4531-4.0312 0-7.8281-1.5469-10.688-4.4062-2.8594-2.8125-4.4062-6.6094-4.4062-10.594 0-1.2188 0.46875-2.2969 1.3125-3.1875 0.84375-0.84375 2.0156-1.3125 3.2344-1.3125 3.3281 0 6-2.6719 6-6s-2.6719-6-6-6c-4.4062 0-8.5781 1.7344-11.719 4.8281-3.1406 3.1406-4.875 7.2656-4.875 11.672 0 7.2188 2.8125 14.016 7.9688 19.078 5.1094 5.1094 11.906 7.875 19.172 7.875 10.078 0 19.5-3.8906 26.625-10.969s11.062-16.5 11.062-26.531c0-12.844-5.0156-24.891-14.156-33.938s-21.234-14.062-34.078-14.062c-15.703 0-30.422 6.0938-41.531 17.109-11.109 11.062-17.25 25.734-17.25 41.344 0 18.422 7.2188 35.766 20.297 48.797s30.516 20.203 49.031 20.203c21.328 0 41.391-8.25 56.484-23.25s23.391-34.969 23.391-56.203c0-24.047-9.4219-46.641-26.484-63.609s-39.797-26.344-63.938-26.344c-26.953 0-52.312 10.453-71.391 29.391-19.078 18.984-29.578 44.203-29.578 71.062 0 29.672 11.625 57.516 32.672 78.469 12.375 12.328 27.188 21.281 43.312 26.672-16.125 5.3906-30.938 14.344-43.312 26.672-21.094 20.953-32.672 48.844-32.672 78.469 0 26.812 10.5 52.078 29.578 71.062s44.438 29.391 71.391 29.391c24.141 0 46.875-9.3281 63.938-26.344 17.109-16.969 26.484-39.562 26.484-63.656 0-21.234-8.2969-41.203-23.391-56.203-15.094-14.906-35.156-23.156-56.484-23.156-18.516 0-35.906 7.1719-49.031 20.203s-20.297 30.375-20.297 48.797c0 15.609 6.1406 30.328 17.25 41.344 11.109 11.062 25.828 17.109 41.531 17.109 12.891 0 24.984-4.9688 34.078-14.062 9.1406-9.0938 14.156-21.141 14.156-33.938 0-10.031-3.9375-19.453-11.062-26.531s-16.594-10.969-26.625-10.969c-7.2656 0-14.062 2.8125-19.172 7.875-5.1562 5.1094-7.9688 11.859-7.9688 19.125 0 4.4062 1.7344 8.5781 4.875 11.672s7.2656 4.8281 11.719 4.8281c3.3281 0 6-2.6719 6-6s-2.6719-6-6-6c-1.2188 0-2.3906-0.46875-3.2344-1.3125s-1.3125-1.9688-1.3125-3.1875c0-3.9844 1.5938-7.7344 4.4062-10.594 2.8125-2.8125 6.6562-4.4062 10.688-4.4062 6.8438 0 13.312 2.6719 18.141 7.4531 4.8281 4.8281 7.5 11.203 7.5 18 0 9.6094-3.75 18.656-10.594 25.453s-15.938 10.547-25.641 10.547c-12.516 0-24.234-4.8281-33.094-13.641-8.8125-8.7656-13.688-20.438-13.688-32.859 0-15.234 5.9531-29.531 16.781-40.266 10.828-10.781 25.219-16.688 40.547-16.688 18.141 0 35.203 7.0312 48 19.781s19.875 29.672 19.875 47.719c0 20.812-8.1562 40.406-22.969 55.125-14.812 14.766-34.5 22.828-55.453 22.828-23.766 0-46.125-9.2344-62.953-25.922-16.781-16.734-26.062-38.906-26.062-62.531 0-26.438 10.359-51.281 29.156-69.984s43.781-29.016 70.406-29.016c29.391 0 57.094 11.391 77.859 32.062s32.25 48.188 32.25 77.391c0 32.062-12.562 62.156-35.344 84.797-22.781 22.688-53.109 35.156-85.312 35.156-35.016 0.09375-67.969-13.5-92.766-38.156zm587.72 188.21c-24.844 24.609-57.891 38.156-93.047 38.156h-0.14062c-30.844 0-59.812 11.906-81.609 33.516-11.062 10.969-19.172 24.047-24.234 38.25-5.0625-14.203-13.172-27.281-24.234-38.25-21.797-21.609-50.766-33.516-81.562-33.516h-0.14062c-35.156 0-68.203-13.547-93.047-38.156s-38.531-57.234-38.531-91.969c0-31.922 12.562-61.969 35.391-84.562 22.828-22.641 53.25-35.062 85.547-35.062 29.484 0 57.234 11.344 78.094 32.016 20.812 20.625 32.297 48.047 32.297 77.203 0 26.344-10.359 51.141-29.203 69.75-18.844 18.656-43.922 28.922-70.594 28.922-23.859 0-46.266-9.1875-63.094-25.875s-26.109-38.812-26.109-62.391c0-20.766 8.1562-40.266 23.016-54.938 14.859-14.719 34.594-22.781 55.641-22.781 18.188 0 35.297 7.0312 48.141 19.734s19.922 29.625 19.922 47.578c0 15.141-5.9531 29.438-16.828 40.172s-25.312 16.688-40.688 16.688c-12.562 0-24.328-4.8281-33.188-13.594s-13.734-20.391-13.734-32.766c0-9.5625 3.75-18.562 10.641-25.359 6.8438-6.7969 15.984-10.547 25.688-10.547 6.8906 0 13.359 2.6719 18.234 7.4531 4.8281 4.7812 7.5 11.156 7.5 17.953 0 3.9844-1.5938 7.7344-4.4062 10.547-2.8594 2.8594-6.7031 4.4062-10.734 4.4062-1.2188 0-2.3906-0.46875-3.2344-1.3125s-1.3125-1.9688-1.3125-3.1406c0-3.3281-2.6719-6-6-6s-6 2.6719-6 6c0 4.4062 1.7344 8.5781 4.875 11.672s7.2656 4.7812 11.719 4.7812c7.2656 0 14.062-2.8125 19.172-7.875 5.1562-5.1094 7.9688-11.859 7.9688-19.078 0-10.031-3.9375-19.406-11.062-26.484s-16.594-10.922-26.672-10.922c-12.891 0-25.031 4.9688-34.125 14.016-9.1406 9.0469-14.203 21.094-14.203 33.891 0 15.609 6.1406 30.281 17.25 41.297s25.922 17.062 41.625 17.062c18.562 0 36-7.1719 49.125-20.156 13.125-13.031 20.391-30.281 20.391-48.703 0-21.188-8.3438-41.109-23.484-56.109-15.141-14.953-35.203-23.203-56.578-23.203-24.188 0-46.969 9.3281-64.078 26.25-17.156 16.969-26.578 39.516-26.578 63.469 0 26.766 10.547 51.938 29.672 70.922 19.125 18.891 44.531 29.344 71.578 29.344 29.859 0 57.891-11.531 79.031-32.391 12.469-12.328 21.516-27.094 26.906-43.172 5.4375 16.078 14.484 30.797 26.906 43.172 21.141 20.906 49.219 32.391 79.031 32.391 27.047 0 52.453-10.406 71.578-29.344s29.672-44.109 29.672-70.922c0-24-9.4219-46.547-26.578-63.469-17.109-16.922-39.891-26.25-64.078-26.25-21.375 0-41.484 8.25-56.578 23.203-15.141 15-23.484 34.922-23.484 56.109 0 18.375 7.2656 35.672 20.391 48.703 13.125 12.984 30.562 20.156 49.125 20.156 15.75 0 30.516-6.0938 41.625-17.062 11.156-11.016 17.25-25.688 17.25-41.297 0-12.797-5.0625-24.797-14.203-33.891-9.1406-9.0469-21.234-14.016-34.172-14.016-10.078 0-19.547 3.8906-26.672 10.922-7.1719 7.0781-11.109 16.453-11.109 26.484 0 7.2188 2.8125 13.969 7.9688 19.078 5.1094 5.0625 11.953 7.875 19.172 7.875 4.4062 0 8.5781-1.7344 11.719-4.8281 3.1406-3.1406 4.875-7.2656 4.875-11.672 0-3.3281-2.6719-6-6-6s-6 2.6719-6 6c0 1.1719-0.46875 2.2969-1.3125 3.1406s-2.0625 1.3125-3.2812 1.3125c-4.0781 0-7.875-1.5469-10.734-4.4062-2.8594-2.8125-4.4062-6.5625-4.4062-10.547 0-6.75 2.6719-13.172 7.5469-17.953 4.875-4.8281 11.344-7.4531 18.234-7.4531 9.75 0 18.844 3.75 25.734 10.547 6.8438 6.7969 10.641 15.797 10.641 25.359 0 12.375-4.875 24-13.734 32.766s-20.672 13.594-33.188 13.594c-15.375 0-29.812-5.9062-40.688-16.688-10.828-10.734-16.828-24.984-16.828-40.172 0-17.953 7.0781-34.828 19.922-47.578s29.953-19.734 48.141-19.734c21 0 40.781 8.1094 55.641 22.781 14.812 14.672 23.016 34.219 23.016 54.938 0 23.578-9.2812 45.703-26.109 62.391s-39.281 25.875-63.141 25.875c-26.672 0-51.75-10.266-70.594-28.922s-29.203-43.406-29.203-69.75c0-29.156 11.484-56.578 32.297-77.203 20.859-20.625 48.609-32.016 78.094-32.016 32.344 0 62.719 12.469 85.547 35.062s35.391 52.641 35.391 84.562c0.09375 34.734-13.594 67.406-38.391 92.016zm261.84-361.55c-21.797 21.656-33.797 50.484-33.797 81.141 0 34.828-13.641 67.594-38.438 92.25-24.75 24.656-57.75 38.25-92.766 38.25-32.25 0-62.531-12.469-85.312-35.156-22.781-22.641-35.297-52.781-35.297-84.797 0-29.25 11.438-56.719 32.25-77.391 20.766-20.672 48.422-32.062 77.859-32.062 26.625 0 51.609 10.312 70.406 29.016s29.156 43.547 29.156 69.984c0 23.625-9.2344 45.844-26.062 62.531-16.781 16.734-39.188 25.922-62.953 25.922-20.953 0-40.641-8.1094-55.453-22.828s-22.969-34.266-22.969-55.125c0-18 7.0781-34.969 19.875-47.719s29.859-19.781 48-19.781c15.328 0 29.719 5.9062 40.547 16.688s16.781 25.078 16.781 40.266c0 12.375-4.875 24.094-13.688 32.859s-20.578 13.641-33.094 13.641c-9.7031 0-18.75-3.75-25.641-10.547-6.8438-6.7969-10.594-15.844-10.594-25.453 0-6.7969 2.6719-13.219 7.5-18 4.8281-4.8281 11.297-7.4531 18.188-7.4531 4.0312 0 7.8281 1.5938 10.688 4.4062 2.8125 2.8125 4.4062 6.6094 4.4062 10.594 0 1.2188-0.46875 2.2969-1.3125 3.1875-0.84375 0.84375-2.0156 1.3125-3.2344 1.3125-3.3281 0-6 2.6719-6 6s2.6719 6 6 6c4.4062 0 8.5781-1.7344 11.719-4.8281 3.1406-3.1406 4.875-7.2656 4.875-11.672 0-7.2188-2.8125-14.016-7.9688-19.125s-11.906-7.875-19.172-7.875c-10.078 0-19.5 3.8906-26.625 10.969s-11.062 16.5-11.062 26.531c0 12.797 5.0156 24.891 14.156 33.938 9.0938 9.0469 21.234 14.062 34.078 14.062 15.703 0 30.469-6.0938 41.578-17.109 11.109-11.062 17.25-25.734 17.25-41.344 0-18.422-7.2188-35.766-20.297-48.797-13.125-13.031-30.516-20.203-49.031-20.203-21.328 0-41.391 8.25-56.484 23.25s-23.391 34.969-23.391 56.203c0 24.047 9.4219 46.641 26.484 63.656 17.062 16.969 39.797 26.344 63.938 26.344 26.953 0 52.312-10.453 71.391-29.391 19.078-18.984 29.578-44.203 29.578-71.062 0-29.672-11.625-57.516-32.672-78.469-12.375-12.328-27.188-21.281-43.312-26.672 16.125-5.3906 30.938-14.344 43.312-26.672 21.094-20.953 32.672-48.844 32.672-78.469 0-26.859-10.5-52.078-29.578-71.062s-44.438-29.391-71.391-29.391c-24.141 0-46.828 9.375-63.938 26.344s-26.484 39.609-26.484 63.609c0 21.234 8.2969 41.203 23.391 56.203s35.156 23.25 56.484 23.25c18.516 0 35.906-7.1719 49.031-20.203s20.297-30.375 20.297-48.797c0-15.609-6.1406-30.281-17.25-41.344s-25.875-17.109-41.578-17.109c-12.844 0-24.938 4.9688-34.078 14.062-9.1406 9.0469-14.156 21.141-14.156 33.938 0 10.031 3.8906 19.453 11.062 26.531 7.125 7.0781 16.594 10.969 26.625 10.969 7.2188 0 14.016-2.8125 19.172-7.875 5.1094-5.1094 7.9219-11.859 7.9219-19.078 0-4.4062-1.7344-8.5781-4.875-11.672s-7.2656-4.8281-11.719-4.8281c-3.3281 0-6 2.6719-6 6s2.6719 6 6 6c1.2188 0 2.3438 0.46875 3.2344 1.3125 0.84375 0.84375 1.3125 1.9688 1.3125 3.1875 0 3.9844-1.5938 7.7812-4.4062 10.594-2.8594 2.8594-6.6562 4.4062-10.688 4.4062-6.8438 0-13.312-2.6719-18.188-7.4531-4.8281-4.8281-7.5-11.203-7.5-18 0-9.6094 3.75-18.656 10.594-25.453s15.938-10.547 25.641-10.547c12.516 0 24.234 4.8281 33.094 13.641 8.8125 8.7656 13.688 20.438 13.688 32.859 0 15.234-5.9531 29.531-16.781 40.266-10.828 10.781-25.219 16.688-40.547 16.688-18.141 0-35.203-7.0312-48-19.781s-19.875-29.672-19.875-47.719c0-20.812 8.1562-40.406 22.969-55.125s34.5-22.828 55.453-22.828c23.766 0 46.125 9.1875 62.953 25.922 16.781 16.688 26.062 38.906 26.062 62.531 0 26.438-10.359 51.281-29.156 69.984s-43.781 29.016-70.406 29.016c-29.391 0-57.094-11.391-77.859-32.062s-32.25-48.141-32.25-77.391c0-32.062 12.562-62.156 35.297-84.797 22.781-22.688 53.109-35.156 85.312-35.156 35.062 0 68.016 13.594 92.766 38.203 24.75 24.656 38.438 57.375 38.438 92.25-0.046875 30.656 11.953 59.484 33.797 81.141 11.016 10.922 24.141 18.938 38.344 23.953-14.156 4.8281-27.281 12.891-38.297 23.812z"/>
</svg>
