<?xml version="1.0" encoding="UTF-8"?>
<svg width="1200pt" height="1200pt" version="1.1" viewBox="0 0 1200 1200" xmlns="http://www.w3.org/2000/svg">
 <path d="m1063.4 600c16.266-5.3906 31.219-14.438 43.688-26.859 21.234-21.094 32.906-49.125 32.906-78.984 0-32.391-12.703-62.859-35.766-85.781s-53.672-35.531-86.25-35.531c-35.156 0-68.203 13.594-93.094 38.344s-38.578 57.609-38.578 92.578c0.046875 24.984-9.75 48.469-27.562 66.141-15.703 15.562-36.562 24.094-58.734 24.094h-0.14062c-22.266-0.046875-43.172-8.625-58.922-24.281-13.641-13.5-21.141-31.453-21.188-50.531-0.046875-19.031 7.4531-36.938 20.953-50.438 0.046875-0.046875 0.046875-0.046875 0.09375-0.046875l0.046875-0.046875c11.484-11.344 26.719-17.625 42.938-17.625h0.046875c16.312 0.046875 31.641 6.3281 43.172 17.766 9.375 9.3281 14.578 21.703 14.625 34.875 0 13.172-5.1562 25.547-14.531 34.828-7.2656 7.2188-16.969 11.203-27.281 11.203h-0.046875c-10.312 0-20.062-4.0312-27.375-11.25-5.2031-5.1562-8.0625-11.953-8.0625-19.219s2.8125-14.062 7.9688-19.219c3.0938-3.0469 7.1719-4.7344 11.531-4.7344s8.4844 1.6875 11.578 4.7812c0.98438 0.9375 1.5 2.2031 1.5 3.6094 0 1.3125-0.51562 2.5781-1.4531 3.5625-2.3438 2.3438-2.3438 6.1406-0.046875 8.4844 2.3438 2.3438 6.1406 2.3438 8.4844 0.046875 3.2344-3.2344 5.0625-7.5469 5.0156-12.094 0-4.5469-1.7812-8.8594-5.0625-12.094-5.3438-5.2969-12.469-8.25-19.969-8.25h-0.046875c-7.5469 0-14.625 2.9062-19.969 8.2031-7.4531 7.4062-11.578 17.25-11.578 27.75 0 10.453 4.125 20.297 11.625 27.75 9.5625 9.4688 22.266 14.719 35.766 14.719h0.046875c13.5 0 26.203-5.2031 35.719-14.672 11.672-11.578 18.094-26.953 18.047-43.359s-6.4688-31.781-18.188-43.406c-13.781-13.688-32.109-21.234-51.609-21.234h-0.09375c-9.3281 0-18.328 1.7812-26.766 5.0625 3.3281-8.3438 5.1094-17.344 5.1094-26.625-0.046875-19.359-7.6406-37.547-21.422-51.234-11.719-11.578-27.188-17.953-43.688-18h-0.09375c-16.453 0-31.969 6.3281-43.594 17.906-9.5625 9.4688-14.812 22.125-14.812 35.578 0.046875 13.453 5.2969 26.062 14.906 35.578 7.5 7.4062 17.297 12 27.938 11.484 10.547 0 20.391-4.0781 27.844-11.438 5.3438-5.2969 8.2969-12.375 8.2969-19.922-0.046875-7.5-3-14.578-8.3438-19.875-6.5156-6.4219-17.812-6.4219-24.234 0-2.3438 2.3438-2.3438 6.1406 0 8.4844s6.1406 2.3438 8.4844 0c1.9219-1.9219 5.3906-1.9219 7.3125 0.046875 3.0938 3.0469 4.7812 7.125 4.7812 11.391 0 4.3125-1.6875 8.3438-4.7344 11.391-4.9219 5.0625-11.812 7.875-19.125 7.875h-0.046875c-7.3125 0-14.25-2.8594-19.453-8.0156-7.2656-7.2188-11.297-16.828-11.344-27.047 0-10.219 3.9844-19.828 11.25-27.047 9.375-9.2812 21.844-14.391 35.156-14.391h0.046875c13.312 0 25.828 5.1562 35.25 14.531 11.531 11.438 17.859 26.625 17.906 42.703 0.046875 16.125-6.2812 31.266-17.766 42.656-13.594 13.453-31.641 20.859-50.859 20.859h-0.09375c-19.266-0.046875-37.406-7.5-51.047-21-15.75-15.609-24.422-36.328-24.469-58.359s8.625-42.75 24.281-58.312c17.812-17.625 41.438-27.328 66.656-27.328h0.14062c35.25 0 68.391-13.594 93.281-38.25 24.938-24.656 38.672-57.469 38.672-92.391 0-32.344-12.75-62.719-35.812-85.594-23.109-22.828-53.766-35.438-86.438-35.438-30.047 0-58.312 11.578-79.594 32.625-12.562 12.422-21.703 27.281-27.141 43.5-5.4375-16.219-14.578-31.078-27.141-43.5-21.234-21.047-49.5-32.625-79.594-32.625-32.672 0-63.328 12.562-86.438 35.438s-35.812 53.25-35.812 85.594c0 34.922 13.734 67.734 38.672 92.391 24.891 24.656 58.031 38.25 93.281 38.25h0.09375c25.172 0 48.844 9.7031 66.609 27.328 15.703 15.562 24.328 36.281 24.281 58.312s-8.7188 42.75-24.422 58.359c-13.641 13.547-31.781 21-51.047 21h-0.09375c-19.219 0-37.312-7.4062-50.859-20.859-11.484-11.391-17.812-26.531-17.766-42.656s6.375-31.312 17.906-42.703c9.4219-9.3281 21.938-14.484 35.25-14.531h0.046875c13.266 0 25.734 5.1094 35.109 14.391 7.2656 7.2188 11.25 16.828 11.25 27 0 10.219-4.0312 19.828-11.344 27.094-5.2031 5.1562-12.141 8.0156-19.453 8.0156h-0.046875c-7.3125 0-14.203-2.8125-19.406-7.9688-3.0469-3.0469-4.7344-7.0781-4.7344-11.391s1.6875-8.3438 4.7812-11.391c1.9688-1.9688 5.3906-1.9219 7.3125 0 2.3438 2.3438 6.1406 2.3438 8.4844-0.046875 2.3438-2.3438 2.2969-6.1406-0.046875-8.4844-6.4688-6.375-17.766-6.4219-24.234 0-5.3438 5.2969-8.3438 12.375-8.3438 19.922s2.9531 14.625 8.2969 19.922c7.4531 7.3594 17.297 11.438 27.844 11.438h0.046875c10.5 0 20.438-4.0781 27.891-11.484 9.5625-9.5156 14.859-22.125 14.906-35.578 0-13.406-5.25-26.062-14.812-35.531-11.625-11.531-27.094-17.906-43.594-17.906h-0.09375c-16.5 0-32.016 6.4219-43.688 18-13.781 13.688-21.422 31.875-21.422 51.234 0 9.2812 1.7812 18.234 5.0625 26.625-8.3906-3.2812-17.438-5.0625-26.766-5.0625h-0.09375c-19.453 0.046875-37.781 7.5938-51.609 21.234-11.719 11.625-18.141 27-18.188 43.406s6.375 31.781 18.047 43.359c9.5156 9.4688 22.219 14.672 35.719 14.672h0.046875c13.5 0 26.203-5.25 35.812-14.719 7.4531-7.4062 11.625-17.25 11.625-27.75s-4.0781-20.344-11.531-27.75c-5.3438-5.2969-12.422-8.2031-19.969-8.2031h-0.046875c-7.5469 0-14.672 2.9531-20.016 8.25-3.2344 3.2344-5.0625 7.5469-5.0625 12.094 0 4.5938 1.7812 8.8594 5.0156 12.094 2.3438 2.3438 6.1875 2.3438 8.4844-0.046875 2.3438-2.3438 2.2969-6.1406-0.046875-8.4844-0.9375-0.9375-1.5-2.2031-1.5-3.5625s0.51562-2.625 1.5-3.5625c3.0938-3.0469 7.2188-4.7344 11.578-4.7812 4.3594 0 8.4375 1.6875 11.531 4.7344 5.1562 5.1094 8.0156 11.906 7.9688 19.219 0 7.2656-2.8594 14.062-8.0625 19.219-7.3125 7.2656-17.109 11.484-27.375 11.25-10.312 0-20.016-3.9844-27.281-11.203-9.375-9.2812-14.531-21.656-14.531-34.828s5.2031-25.547 14.625-34.875c11.531-11.438 26.859-17.766 43.172-17.766h0.046875c16.266 0 31.547 6.2812 43.031 17.672 13.594 13.453 21.047 31.406 21.047 50.484-0.046875 19.078-7.5469 37.031-21.188 50.531-15.75 15.609-36.703 24.234-58.922 24.281h-0.14062c-22.172 0-43.031-8.5781-58.734-24.094-17.812-17.672-27.562-41.156-27.562-66.141 0-34.969-13.688-67.875-38.578-92.578-24.844-24.703-57.891-38.344-93.047-38.344h-0.046875c-32.578 0-63.188 12.609-86.203 35.531-22.828 22.828-35.531 53.297-35.531 85.734 0 29.859 11.672 57.891 32.906 78.984 12.469 12.422 27.422 21.422 43.688 26.859-16.266 5.3906-31.219 14.438-43.688 26.859-21.234 21.094-32.906 49.125-32.906 78.984 0 32.391 12.703 62.859 35.766 85.781 23.016 22.922 53.672 35.531 86.25 35.531 35.156 0 68.25-13.641 93.094-38.344 24.891-24.703 38.578-57.609 38.578-92.625-0.046875-24.984 9.75-48.469 27.562-66.141 15.703-15.562 36.562-24.094 58.734-24.094h0.09375c22.266 0.046875 43.219 8.6719 58.922 24.281 13.641 13.5 21.141 31.453 21.188 50.531s-7.4531 36.984-21.047 50.484c-11.484 11.391-26.766 17.672-42.984 17.672h-0.09375c-16.266-0.046875-31.594-6.3281-43.125-17.766-9.4219-9.3281-14.625-21.75-14.625-34.922s5.1562-25.547 14.531-34.828c7.2656-7.2188 16.969-11.203 27.281-11.203 10.312 0.046875 20.062 4.0312 27.375 11.25 5.2031 5.1562 8.0625 12 8.0625 19.266s-2.8125 14.062-8.0156 19.219c-3.0938 3.0469-7.5938 4.7812-11.531 4.7344-4.3594 0-8.4844-1.6875-11.578-4.7344-0.9375-0.9375-1.5-2.2031-1.5-3.5625s0.51562-2.625 1.5-3.5625c2.3438-2.3438 2.3438-6.1406 0.046875-8.4844-2.3438-2.3438-6.1406-2.3906-8.4844-0.046875-3.2344 3.2344-5.0625 7.5469-5.0156 12.094 0 4.5938 1.7812 8.8594 5.0625 12.094 5.3438 5.2969 12.469 8.25 20.016 8.25h0.14062c7.5 0 14.578-2.9062 19.922-8.2031 7.4531-7.4062 11.578-17.25 11.531-27.75 0-10.453-4.125-20.297-11.625-27.75-9.5625-9.4688-22.266-14.719-35.812-14.766-13.5 0-26.203 5.2031-35.766 14.672-11.672 11.578-18.094 26.953-18.047 43.359 0 16.359 6.4688 31.781 18.188 43.406 13.781 13.688 32.109 21.234 51.562 21.234h0.09375c9.3281 0 18.328-1.7812 26.766-5.0625-3.3281 8.3438-5.1094 17.344-5.0625 26.625 0.046875 19.312 7.6406 37.547 21.422 51.234 11.672 11.578 27.188 18 43.688 18s31.969-6.375 43.641-17.906c9.5625-9.4688 14.812-22.125 14.812-35.578-0.046875-13.406-5.2969-26.062-14.906-35.578-7.4531-7.3594-17.344-11.438-27.891-11.484-10.547 0-20.438 4.0781-27.891 11.438-5.3438 5.2969-8.2969 12.375-8.2969 19.922s2.9531 14.625 8.2969 19.875c6.4688 6.4219 17.766 6.4219 24.234 0.046875 2.3438-2.3438 2.3906-6.1406 0.046875-8.4844-2.2969-2.3438-6.1406-2.3906-8.4844-0.046875-1.9688 1.9219-5.3438 1.9219-7.3594-0.046875-3.0938-3.0469-4.7812-7.0781-4.7812-11.391 0-4.2656 1.6875-8.2969 4.7344-11.344 5.2031-5.1562 12.094-7.9688 19.406-7.9688 7.3594 0.046875 14.297 2.8594 19.453 8.0156 7.3125 7.2656 11.344 16.875 11.344 27.094s-3.9844 19.781-11.25 27c-9.375 9.3281-21.891 14.438-35.203 14.438-13.312-0.046875-25.828-5.2031-35.25-14.531-11.531-11.438-17.859-26.625-17.906-42.75s6.2812-31.266 17.766-42.656c13.594-13.5 31.547-20.953 50.953-20.859 19.266 0.046875 37.406 7.5 51.047 21.047 15.75 15.609 24.422 36.328 24.422 58.359 0.046875 22.031-8.5781 42.75-24.281 58.266-17.766 17.625-41.438 27.328-66.656 27.328h-0.09375c-35.25 0-68.344 13.594-93.281 38.25-24.938 24.703-38.672 57.516-38.672 92.391 0 32.344 12.703 62.719 35.812 85.594 23.062 22.828 53.766 35.438 86.438 35.438 30.047 0 58.312-11.578 79.594-32.625 12.562-12.422 21.703-27.281 27.141-43.5 5.4375 16.219 14.578 31.078 27.141 43.5 21.281 21.047 49.547 32.625 79.594 32.625 32.672 0 63.328-12.609 86.438-35.438 23.109-22.875 35.812-53.25 35.812-85.594 0-34.875-13.734-67.688-38.672-92.391-24.891-24.656-58.078-38.25-93.281-38.25h-0.09375c-25.219 0-48.844-9.7031-66.656-27.328-15.703-15.562-24.281-36.234-24.281-58.266 0.046875-22.078 8.7188-42.75 24.469-58.359 13.641-13.547 31.734-21 51.047-21h0.09375c19.266 0 37.312 7.4062 50.906 20.859 11.484 11.391 17.766 26.531 17.766 42.656-0.046875 16.125-6.375 31.266-17.906 42.75-9.4219 9.3281-21.938 14.484-35.25 14.531-13.312 0-25.781-5.1094-35.203-14.438-7.2656-7.2188-11.25-16.781-11.25-27 0.046875-10.219 4.0781-19.828 11.344-27.094 5.2031-5.1562 12.094-7.9688 19.453-8.0156 7.3594 0 14.25 2.8125 19.406 7.9688 3.0938 3.0469 4.7344 7.0781 4.7344 11.344 0 4.3125-1.6875 8.3438-4.7812 11.438-1.9219 1.9219-5.3906 1.9219-7.3125 0-2.3438-2.2969-6.1406-2.3438-8.4844 0.046875-2.3438 2.3438-2.3438 6.1406 0.046875 8.4844 6.4219 6.4219 17.812 6.375 24.234 0 5.3438-5.2969 8.2969-12.375 8.3438-19.922 0-7.5469-2.9062-14.578-8.2969-19.875-7.4531-7.3594-17.344-11.438-27.891-11.438-10.547 0.046875-20.438 4.125-27.891 11.484-9.5625 9.5156-14.859 22.125-14.906 35.578 0 13.453 5.25 26.109 14.812 35.578 11.672 11.531 27.141 17.906 43.641 17.906 16.5-0.046875 32.016-6.4219 43.688-18 13.781-13.688 21.422-31.875 21.422-51.234 0-9.2812-1.7812-18.234-5.1094-26.625 8.3906 3.2812 17.438 5.0625 26.766 5.0625h0.09375c19.453-0.046875 37.781-7.5938 51.609-21.234 11.672-11.625 18.141-27 18.188-43.406 0-16.406-6.375-31.781-18.094-43.359-9.5625-9.4688-22.266-14.672-35.766-14.672-13.5 0.046875-26.25 5.25-35.812 14.766-7.4531 7.4531-11.578 17.297-11.578 27.75 0 10.5 4.0781 20.344 11.578 27.75 5.3438 5.25 12.375 8.2031 19.875 8.2031 7.0781-0.23438 14.766-2.9062 20.109-8.25 3.2344-3.2344 5.0625-7.5 5.0625-12.094 0.046875-4.5938-1.7344-8.8594-5.0156-12.094-2.3438-2.2969-6.1406-2.3438-8.4844 0.046875-2.3438 2.3438-2.3438 6.1406 0.046875 8.4844 0.9375 0.9375 1.4531 2.2031 1.4531 3.5625s-0.51562 2.625-1.5 3.5625c-3.0938 3.0469-7.1719 4.7344-11.578 4.7344h-0.09375c-4.3125 0-8.3906-1.6875-11.438-4.7344-5.1562-5.1094-8.0156-11.906-7.9688-19.219 0-7.2656 2.8594-14.109 8.0625-19.266 7.3125-7.2656 17.062-11.25 27.375-11.25s20.016 3.9844 27.328 11.203c9.375 9.2812 14.531 21.656 14.531 34.828-0.046875 13.172-5.2031 25.594-14.625 34.922-11.578 11.438-26.859 17.766-43.172 17.766h-0.09375c-16.219 0-31.5-6.2812-42.984-17.625-13.594-13.5-21.094-31.406-21.047-50.484 0.046875-19.125 7.5469-37.031 21.188-50.578 15.75-15.609 36.656-24.234 58.922-24.281h0.09375c22.219 0 43.078 8.5781 58.734 24.094 17.812 17.672 27.609 41.156 27.562 66.141 0 34.969 13.688 67.875 38.578 92.578 24.844 24.703 57.891 38.344 93.094 38.344 32.578 0 63.234-12.609 86.25-35.531 22.922-22.922 35.625-53.438 35.625-85.828 0-29.859-11.672-57.891-32.906-78.984-12.469-12.422-27.422-21.469-43.688-26.859zm-730.69 21.609c-20.109 19.922-31.125 46.453-31.125 74.625 0 31.781-12.422 61.641-35.016 84.094s-52.641 34.828-84.609 34.828c-29.391 0-57-11.391-77.766-32.016-20.766-20.672-32.203-48.094-32.203-77.297 0-26.625 10.406-51.656 29.391-70.5 18.938-18.844 44.156-29.203 70.922-29.203 24.234 0 47.016 9.375 64.125 26.391 17.109 17.016 26.531 39.656 26.531 63.703 0 21.516-8.4375 41.719-23.719 56.906-15.281 15.234-35.625 23.578-57.281 23.578-19.031 0-36.984-7.3594-50.438-20.766-13.453-13.406-20.859-31.219-20.859-50.109 0-16.359 6.4219-31.734 18.047-43.312 11.672-11.578 27.141-17.953 43.594-17.953 13.922 0 26.953 5.3906 36.75 15.141 9.7969 9.75 15.234 22.734 15.234 36.516 0 11.25-4.4062 21.797-12.375 29.719-7.9688 7.9688-18.609 12.328-29.953 12.328-8.7188 0-16.922-3.375-23.109-9.5156-6.1406-6.1406-9.5625-14.25-9.5625-22.922 0-6.0938 2.3906-11.812 6.75-16.125 4.3594-4.3125 10.125-6.7031 16.266-6.7031 3.5625 0 6.9375 1.3594 9.4219 3.8438 2.5312 2.5312 3.8906 5.8125 3.8906 9.3281 0 0.9375-0.375 1.875-1.0312 2.5312-0.70313 0.70312-1.6406 1.0781-2.625 1.0781-3.3281 0-6 2.6719-6 6s2.6719 6 6 6c4.1719 0 8.1094-1.6406 11.062-4.5469 2.9531-2.9531 4.5938-6.8438 4.5938-11.062 0-6.75-2.625-13.078-7.4531-17.859-4.7812-4.7344-11.156-7.3594-17.906-7.3594-9.3281 0-18.141 3.6094-24.75 10.219-6.6094 6.5625-10.266 15.281-10.266 24.609 0 11.859 4.6406 23.062 13.078 31.453s19.641 12.984 31.547 12.984c14.531 0 28.172-5.625 38.391-15.797 10.266-10.219 15.938-23.766 15.938-38.25 0-17.016-6.6562-33-18.75-45-12.094-12.047-28.125-18.656-45.234-18.656-19.641 0-38.156 7.6406-52.078 21.469-13.922 13.828-21.562 32.25-21.562 51.797 0 22.172 8.6719 42.984 24.422 58.641s36.656 24.234 58.875 24.234c24.844 0 48.188-9.6094 65.766-27.094 17.578-17.438 27.234-40.688 27.234-65.391 0-27.281-10.688-52.922-30.094-72.188-11.062-10.969-24.188-19.031-38.531-24.047 14.297-5.0156 27.469-13.078 38.531-24.047 19.406-19.266 30.094-44.906 30.094-72.188 0-24.703-9.6562-47.953-27.234-65.391-17.578-17.438-40.922-27.094-65.766-27.094-22.266 0-43.172 8.625-58.875 24.281-15.75 15.656-24.422 36.469-24.422 58.594 0 19.594 7.6875 37.969 21.562 51.797 13.922 13.828 32.391 21.422 52.078 21.422 17.062 0 33.141-6.6094 45.234-18.656 12.094-12 18.75-28.031 18.75-45.047 0-14.438-5.6719-28.031-15.938-38.25-10.266-10.219-23.906-15.797-38.391-15.797-11.906 0-23.156 4.6406-31.547 12.984-8.4375 8.3906-13.078 19.547-13.078 31.453 0 9.2812 3.6562 18.047 10.266 24.656 6.6094 6.5625 15.375 10.172 24.75 10.172 6.75 0 13.125-2.625 17.906-7.3594 4.7812-4.7812 7.4062-11.109 7.4062-17.859 0-4.1719-1.6406-8.1094-4.5938-11.062-2.9531-2.9531-6.8906-4.5469-11.062-4.5469-3.3281 0-6 2.6719-6 6s2.6719 6 6 6c0.98438 0 1.9219 0.375 2.625 1.0781 0.70313 0.65625 1.0781 1.5938 1.0781 2.5312 0 3.5156-1.3594 6.8438-3.8906 9.3281s-5.8594 3.8906-9.4219 3.8906c-6.1406 0-11.906-2.3906-16.266-6.7031-4.3125-4.3125-6.75-10.078-6.75-16.125 0-8.6719 3.375-16.781 9.5625-22.922s14.391-9.5156 23.109-9.5156c11.297 0 21.938 4.3594 29.953 12.328 7.9688 7.9219 12.375 18.469 12.375 29.719 0 13.781-5.3906 26.766-15.234 36.516s-22.875 15.141-36.75 15.141c-16.453 0-31.969-6.375-43.594-17.953s-18.047-26.953-18.047-43.312c0-18.938 7.4062-36.75 20.859-50.109 13.453-13.406 31.406-20.766 50.438-20.766 21.656 0 42 8.3906 57.281 23.578s23.719 35.391 23.719 56.906c0 24.047-9.4219 46.688-26.531 63.703-17.109 17.016-39.891 26.391-64.125 26.391-26.812 0-51.984-10.359-70.922-29.203-18.984-18.703-29.391-43.734-29.391-70.359 0-29.203 11.438-56.625 32.203-77.297 20.766-20.672 48.375-32.016 77.766-32.016h0.046874c31.969 0 62.016 12.375 84.609 34.828s35.016 52.312 35.016 84.094c-0.046874 28.219 11.016 54.75 31.125 74.672 9.7969 9.7031 21.375 16.922 33.984 21.609-12.656 4.5938-24.234 11.859-34.031 21.562zm245.44-286.78c-20.062-19.875-46.688-30.844-75.094-30.844h-0.14063c-32.062 0-62.203-12.328-84.844-34.781-22.641-22.406-35.109-52.172-35.109-83.859 0-29.109 11.438-56.484 32.25-77.062 20.812-20.625 48.516-31.969 78-31.969 26.859 0 52.172 10.359 71.156 29.156 18.984 18.797 29.438 43.734 29.438 70.312 0 24-9.4219 46.547-26.578 63.516-17.203 16.969-40.031 26.344-64.312 26.344-21.703 0-42.094-8.3438-57.422-23.531-15.328-15.141-23.766-35.297-23.766-56.719 0-18.844 7.4062-36.609 20.906-49.969s31.453-20.719 50.578-20.719c16.5 0 32.062 6.375 43.734 17.906 11.672 11.531 18.094 26.859 18.094 43.172 0 13.734-5.3906 26.672-15.234 36.422s-22.969 15.094-36.891 15.094c-11.344 0-22.031-4.3594-30.047-12.281-8.0156-7.9219-12.422-18.422-12.422-29.625 0-8.625 3.375-16.734 9.5625-22.828 6.1875-6.1406 14.438-9.5156 23.203-9.5156 6.1875 0 11.953 2.3906 16.312 6.7031 4.3594 4.3125 6.75 9.9844 6.75 16.078 0 3.5156-1.3594 6.7969-3.8906 9.2812s-5.9062 3.8906-9.4688 3.8906c-0.98437 0-1.9219-0.375-2.625-1.0781-0.70312-0.65625-1.0781-1.5469-1.0781-2.5312 0-3.3281-2.6719-6-6-6-3.3281 0-6 2.6719-6 6 0 4.1719 1.6406 8.1094 4.6406 11.062 2.9531 2.9062 6.8906 4.5469 11.062 4.5469 6.75 0 13.125-2.625 17.906-7.3594 4.8281-4.7344 7.4531-11.109 7.4531-17.812 0-9.2812-3.6562-18.047-10.312-24.609-6.6094-6.5625-15.422-10.172-24.75-10.172-11.953 0-23.156 4.5938-31.641 12.984-8.4844 8.3906-13.125 19.5-13.125 31.359 0 14.391 5.6719 27.938 15.984 38.156 10.266 10.172 23.953 15.75 38.484 15.75 17.109 0 33.234-6.6094 45.328-18.562 12.141-12 18.797-27.938 18.797-44.953 0-19.547-7.6875-37.875-21.656-51.703-13.969-13.781-32.484-21.375-52.172-21.375-22.312 0-43.266 8.5781-59.016 24.188-15.797 15.609-24.469 36.375-24.469 58.5 0 24.656 9.7031 47.812 27.328 65.25 17.625 17.391 41.016 27 65.859 27 27.469 0 53.297-10.594 72.75-29.812 11.109-11.016 19.266-24.094 24.281-38.391 5.0625 14.25 13.219 27.375 24.281 38.391 19.406 19.219 45.234 29.812 72.75 29.812 24.891 0 48.281-9.6094 65.859-27 17.625-17.438 27.328-40.594 27.328-65.25 0-22.125-8.7188-42.891-24.469-58.5s-36.703-24.188-59.016-24.188c-19.734 0-38.25 7.5938-52.172 21.375-13.969 13.828-21.656 32.203-21.656 51.703 0 16.969 6.7031 32.953 18.797 44.953s28.219 18.562 45.328 18.562c14.531 0 28.219-5.625 38.484-15.75 10.266-10.172 15.938-23.766 15.938-38.156 0-11.859-4.6875-23.016-13.125-31.359s-19.688-12.984-31.641-12.984c-9.375 0-18.188 3.6094-24.75 10.172-6.6562 6.5625-10.312 15.281-10.312 24.609 0 6.75 2.6719 13.078 7.4531 17.812s11.156 7.3594 17.906 7.3594c4.1719 0 8.1094-1.5938 11.109-4.5469 2.9531-2.9531 4.5938-6.8906 4.5938-11.062 0-3.3281-2.6719-6-6-6-3.3281 0-6 2.6719-6 6 0 1.2656-0.65625 2.1094-1.0781 2.5312-0.70313 0.70312-1.6406 1.0781-2.6719 1.0781-3.6094 0-6.9375-1.3594-9.4688-3.8906-2.5312-2.4844-3.8906-5.7656-3.8906-9.2812 0-6.0938 2.3906-11.766 6.75-16.078 4.3594-4.3125 10.172-6.7031 16.312-6.7031 8.7656 0 16.969 3.375 23.203 9.5156 6.1875 6.0938 9.5625 14.203 9.5625 22.828 0 11.203-4.4062 21.703-12.375 29.625-8.0156 7.9219-18.703 12.281-30.047 12.281-13.922 0-27.047-5.3438-36.891-15.094s-15.234-22.641-15.234-36.422c0-16.312 6.4219-31.641 18.094-43.172 11.672-11.578 27.234-17.906 43.734-17.906 19.125 0 37.078 7.3594 50.578 20.719s20.906 31.078 20.906 49.969c0 21.422-8.4375 41.578-23.766 56.719-15.328 15.188-35.766 23.531-57.422 23.531-24.281 0-47.109-9.375-64.266-26.344s-26.578-39.516-26.578-63.516c0-26.578 10.453-51.516 29.438-70.312 19.031-18.797 44.25-29.156 71.156-29.156 29.484 0 57.188 11.344 78 31.969 20.812 20.578 32.25 47.953 32.25 77.062 0 31.688-12.469 61.453-35.109 83.859-22.641 22.406-52.781 34.781-84.844 34.781h-0.14062c-28.359 0-55.031 10.922-75.094 30.844-9.75 9.7969-17.062 21.328-21.75 33.891-4.6875-12.562-12-24.094-21.844-33.891zm43.688 530.34c20.062 19.875 46.734 30.797 75.094 30.797h0.09375c32.062 0 62.203 12.328 84.844 34.734 22.641 22.406 35.109 52.219 35.109 83.859 0 29.109-11.438 56.484-32.25 77.062-20.812 20.625-48.516 31.969-78 31.969-26.859 0-52.172-10.359-71.156-29.156-18.984-18.75-29.438-43.734-29.438-70.266 0-24 9.4688-46.547 26.578-63.516 17.156-16.969 40.031-26.344 64.266-26.344 21.703 0 42.094 8.3438 57.422 23.531 15.328 15.188 23.766 35.297 23.766 56.766 0 18.844-7.4062 36.609-20.906 49.969s-31.453 20.719-50.578 20.719c-16.547 0-32.062-6.375-43.734-17.906-11.672-11.531-18.094-26.859-18.094-43.172 0-13.734 5.3906-26.672 15.234-36.375 9.8438-9.75 22.922-15.141 36.891-15.141 11.344 0 22.031 4.3594 30.047 12.281 7.9688 7.9219 12.375 18.422 12.375 29.625 0 8.625-3.375 16.734-9.5625 22.828-6.1875 6.1406-14.391 9.4688-23.203 9.4688-6.1875 0-12-2.3906-16.359-6.7031-4.3125-4.2656-6.75-9.9375-6.75-16.031 0-3.5156 1.3594-6.7969 3.8906-9.2812 2.5312-2.5312 5.8594-3.8906 9.4688-3.8906 1.0312 0 1.9219 0.375 2.625 1.0781 0.375 0.375 1.0781 1.2656 1.0781 2.4844 0 3.3281 2.25 6.2344 6 6.0469 3.2812 0 6-2.6719 6-5.9531 0.046874-4.1719-1.6406-8.1094-4.5938-11.062-2.9531-2.9062-6.8906-4.5469-11.109-4.5469-6.7969 0-13.172 2.625-17.906 7.3594-4.7812 4.7344-7.4531 11.109-7.4531 17.812 0 9.3281 3.6562 18.094 10.266 24.562 6.6094 6.5625 15.375 10.172 24.797 10.172 11.953 0 23.203-4.5938 31.641-12.938 8.4375-8.3906 13.125-19.547 13.125-31.359 0-14.438-5.6719-27.984-15.938-38.156-10.266-10.172-23.953-15.75-38.484-15.75-17.109 0-33.234 6.6094-45.328 18.609-12.141 12-18.797 27.938-18.797 44.906 0 19.547 7.6875 37.875 21.656 51.703 13.922 13.781 32.484 21.375 52.172 21.375 22.312 0 43.266-8.5781 59.016-24.188 15.797-15.656 24.469-36.422 24.469-58.5 0-24.656-9.7031-47.812-27.328-65.25-17.578-17.391-40.969-27-65.859-27-27.469 0-53.297 10.594-72.75 29.812-10.969 10.922-19.125 24-24.188 38.25-5.0625-14.25-13.172-27.375-24.281-38.344-19.406-19.219-45.281-29.812-72.75-29.812-24.891 0-48.281 9.6094-65.859 27-17.625 17.438-27.328 40.594-27.328 65.25 0 22.078 8.7188 42.844 24.469 58.5 15.75 15.609 36.75 24.188 59.016 24.188 19.688 0 38.25-7.5938 52.172-21.375 13.969-13.828 21.656-32.156 21.656-51.703 0-16.969-6.7031-32.953-18.797-44.906-12.094-12-28.219-18.609-45.328-18.609-14.531 0-28.172 5.625-38.484 15.75-10.312 10.219-15.984 23.766-15.984 38.156 0 11.859 4.6875 23.016 13.125 31.359s19.688 12.938 31.641 12.938c9.375 0 18.188-3.6094 24.75-10.172 6.6562-6.5625 10.312-15.281 10.312-24.609 0-6.75-2.6719-13.078-7.4531-17.812s-11.156-7.3594-17.953-7.3594c-4.1719 0-8.1094 1.6406-11.062 4.5469-2.9531 2.9531-4.6406 6.8438-4.6406 11.062 0 3.3281 2.6719 6 6 6 3.3281 0 6-2.6719 6-6 0-0.9375 0.375-1.8281 1.0781-2.5312 0.70313-0.70312 1.6406-1.0781 2.625-1.0781 3.6094 0 6.9375 1.3594 9.4688 3.8906 2.5312 2.4844 3.8906 5.7656 3.8906 9.2812 0 6.0938-2.3906 11.766-6.75 16.078-4.3594 4.3125-10.125 6.7031-16.312 6.7031-8.7656 0-17.016-3.375-23.203-9.4688s-9.5625-14.25-9.5625-22.828c0-11.203 4.4062-21.703 12.422-29.625 8.0156-7.9219 18.703-12.281 30.047-12.281 13.922 0 27.047 5.3438 36.891 15.141 9.8438 9.75 15.234 22.641 15.234 36.375 0 16.312-6.4219 31.641-18.094 43.172-11.672 11.578-27.234 17.906-43.734 17.906-19.125 0-37.078-7.3594-50.578-20.719s-20.906-31.125-20.906-49.969c0-21.422 8.4375-41.578 23.766-56.766 15.328-15.188 35.719-23.531 57.422-23.531 24.281 0 47.109 9.3281 64.312 26.344 17.156 16.969 26.625 39.516 26.625 63.516 0 26.531-10.453 51.516-29.438 70.266-18.984 18.797-44.25 29.156-71.156 29.156-29.484 0-57.188-11.344-78-31.969-20.812-20.578-32.25-47.953-32.25-77.062 0-31.641 12.469-61.406 35.109-83.859 22.641-22.406 52.781-34.734 84.844-34.734h0.09375c28.406 0 55.078-10.922 75.094-30.797 9.8438-9.75 17.156-21.281 21.844-33.844 4.6875 12.562 12 24.094 21.844 33.891zm110.77-243.42c-15.891 15.75-24.703 36.75-24.75 59.062 0 11.484 2.3438 22.594 6.75 32.859-10.312-4.3594-21.469-6.7031-33.047-6.7031h-0.09375c-22.453 0.046875-43.594 8.7188-59.438 24.469-9.8906 9.8438-17.297 21.469-21.984 34.125-4.7344-12.656-12.094-24.281-21.984-34.125-15.891-15.75-37.031-24.469-59.484-24.516h-0.09375c-11.578 0-22.734 2.3438-33.047 6.7031 4.4062-10.266 6.75-21.375 6.75-32.859-0.046876-22.312-8.8125-43.266-24.703-59.062-9.8438-9.7969-21.562-17.062-34.266-21.75 12.703-4.6875 24.375-11.953 34.219-21.75 15.891-15.75 24.703-36.75 24.75-59.062 0-11.484-2.3438-22.594-6.75-32.859 10.312 4.3594 21.469 6.7031 33.047 6.7031h0.09375c22.453-0.046875 43.594-8.7188 59.484-24.516 9.8906-9.8438 17.297-21.469 21.984-34.125 4.7344 12.656 12.094 24.281 21.984 34.125 15.891 15.75 37.031 24.469 59.484 24.516h0.09375c11.578 0 22.734-2.3438 33.047-6.7031-4.4062 10.266-6.75 21.375-6.75 32.859 0.046874 22.312 8.8125 43.266 24.75 59.062 9.8438 9.7969 21.562 17.062 34.219 21.75-12.75 4.7344-24.422 12-34.266 21.797zm363.19 161.39c-20.766 20.672-48.375 32.016-77.766 32.016-31.969 0-62.016-12.375-84.609-34.828s-35.062-52.312-35.062-84.094c0.046875-28.219-11.016-54.703-31.078-74.672-9.7969-9.7031-21.375-16.922-33.984-21.609 12.609-4.6406 24.188-11.859 33.984-21.609 20.109-19.922 31.125-46.453 31.078-74.672 0-31.734 12.422-61.641 35.062-84.094 22.594-22.453 52.641-34.828 84.609-34.828 29.391 0 57 11.391 77.766 32.016 20.766 20.672 32.203 48.094 32.203 77.297 0 26.625-10.406 51.656-29.344 70.5s-44.156 29.203-70.922 29.203c-24.234 0-46.969-9.375-64.125-26.391-17.109-17.016-26.531-39.656-26.531-63.703 0-21.469 8.3906-41.719 23.719-56.906 15.281-15.234 35.625-23.578 57.281-23.578 19.078 0 36.984 7.3594 50.438 20.766 13.453 13.359 20.859 31.172 20.859 50.109 0 16.359-6.4219 31.734-18.047 43.312-11.672 11.578-27.141 17.953-43.594 17.953-13.922 0-26.953-5.3906-36.75-15.141s-15.234-22.734-15.234-36.516c0-11.203 4.4062-21.75 12.375-29.719s18.609-12.328 29.953-12.328c8.7188 0 16.922 3.375 23.109 9.5156s9.5625 14.25 9.5625 22.922c0 6.0938-2.3906 11.812-6.75 16.125s-10.125 6.7031-16.266 6.7031c-3.5625 0-6.9375-1.3594-9.4219-3.8906-2.5312-2.5312-3.8906-5.8125-3.8906-9.3281 0-1.2656 0.65625-2.1562 1.0781-2.5312 0.70312-0.70312 1.6406-1.0781 2.625-1.0781 3.3281 0 6-2.6719 6-6s-2.6719-6-6-6c-4.1719 0-8.1094 1.6406-11.062 4.5469-2.9531 2.9531-4.5938 6.8906-4.5938 11.062 0 6.75 2.625 13.078 7.4062 17.859 4.7812 4.7344 11.156 7.3594 17.906 7.3594 9.3281 0 18.141-3.6094 24.75-10.172 6.6094-6.6094 10.266-15.328 10.266-24.656 0-11.859-4.6406-23.062-13.078-31.406-8.4375-8.3906-19.641-13.031-31.594-13.031-14.531 0-28.172 5.625-38.391 15.797-10.266 10.219-15.938 23.766-15.938 38.25 0 17.016 6.6562 33 18.75 45.047 12.094 12 28.125 18.656 45.234 18.656 19.688 0 38.156-7.6406 52.078-21.422 13.922-13.828 21.609-32.25 21.609-51.797 0-22.172-8.6719-42.938-24.422-58.594s-36.656-24.281-58.922-24.281c-24.844 0-48.188 9.6094-65.766 27.094s-27.234 40.688-27.234 65.391c0 27.281 10.688 52.922 30.094 72.234 11.062 10.969 24.188 19.031 38.531 24.047-14.297 5.0156-27.469 13.078-38.531 24.047-19.406 19.266-30.094 44.906-30.094 72.188 0 24.75 9.7031 47.953 27.234 65.391 17.578 17.438 40.875 27.094 65.766 27.094 22.266 0 43.172-8.625 58.922-24.234 15.75-15.656 24.422-36.469 24.422-58.641 0-19.594-7.6875-37.969-21.609-51.797s-32.438-21.469-52.078-21.469c-17.062 0-33.141 6.6094-45.234 18.656-12.094 12-18.75 28.031-18.75 45 0 14.438 5.6719 28.031 15.938 38.25s23.859 15.797 38.391 15.797c11.953 0 23.156-4.6406 31.594-12.984 8.4375-8.3906 13.078-19.547 13.078-31.453 0-9.3281-3.6562-18.047-10.266-24.609-6.6094-6.6094-15.375-10.219-24.75-10.219-6.75 0-13.125 2.625-17.906 7.3594-4.7812 4.7812-7.4062 11.109-7.4062 17.812 0 4.1719 1.6406 8.1094 4.5938 11.062s6.8906 4.5469 11.062 4.5469c3.3281 0 6-2.6719 6-6s-2.6719-6-6-6c-0.98438 0-1.9219-0.375-2.625-1.0781s-1.0781-1.5938-1.0781-2.5312c0-3.5156 1.3594-6.8438 3.8906-9.3281 2.5312-2.5312 5.9062-3.8906 9.4688-3.8906 6.1406 0 11.906 2.3906 16.266 6.75 4.3125 4.2656 6.7031 10.031 6.7031 16.125 0 8.6719-3.375 16.781-9.5625 22.922s-14.344 9.5156-23.109 9.5156c-11.297 0-21.938-4.3594-29.953-12.328-7.9688-7.9219-12.375-18.516-12.375-29.719 0-13.781 5.3906-26.766 15.234-36.516s22.875-15.141 36.75-15.141c16.453 0 31.922 6.375 43.594 17.953 11.625 11.578 18.047 26.953 18.047 43.312 0 18.938-7.4062 36.75-20.859 50.109s-31.406 20.766-50.438 20.766c-21.656 0-42-8.3906-57.281-23.578s-23.719-35.391-23.719-56.906c0-24.047 9.4219-46.688 26.531-63.703s39.891-26.391 64.125-26.391c26.766 0 51.984 10.359 70.922 29.203 18.938 18.797 29.344 43.828 29.344 70.453 0 29.203-11.438 56.625-32.203 77.297z"/>
</svg>
