<?xml version="1.0" encoding="UTF-8"?>
<svg width="1200pt" height="1200pt" version="1.1" viewBox="0 0 1200 1200" xmlns="http://www.w3.org/2000/svg">
 <path d="m836.16 301.56c-3.7188-8.3984-10.922-14.281-19.32-17.398-16.801-6.2383-37.32 3.3594-45.961 18.48-9.8398 17.52-5.0391 42.84 13.199 52.922 2.7617 1.5586 5.8789 2.6406 9 3.3594 6 109.32-4.4414 228.6-86.52 309.36-17.762 17.52-38.398 32.039-61.078 42.121 0.12109-3.9609 0.23828-7.9219 0.35938-12 53.281-39.238 78.238-111.36 90-174 12.961-68.398 11.641-138.48 8.5195-207.72-1.9219-42.238-4.1992-84.48-6.2383-126.6 5.2812-1.9219 10.078-4.8008 13.922-8.8789 7.1992-7.5586 9.8398-17.281 9-26.879 0.48047-6.9609-0.71875-13.801-3.6016-20.281-3.7188-8.3984-10.922-14.281-19.32-17.398-16.801-6.2383-37.32 3.3594-45.961 18.48-9.8398 17.52-5.0391 42.84 13.199 52.922 3 1.6797 6.1211 2.7617 9.3594 3.4805 3.4805 68.762 8.5195 137.64 8.2812 206.4-0.12109 64.922-6.1211 130.8-29.762 191.76-10.559 27.359-24.961 56.16-46.32 77.281 0.23828-6.4805 0.35938-12.961 0.60156-19.441 35.398-49.68 43.32-113.28 48.48-172.56 5.8789-66.84 5.2812-134.04-1.5586-200.64 3.9609-1.9219 7.5586-4.4414 10.559-7.5586 7.1992-7.5586 9.8398-17.281 9-26.879 0.48047-6.9609-0.71875-13.801-3.6016-20.281-3.7188-8.3984-10.922-14.281-19.32-17.398-16.801-6.2383-37.32 3.3594-45.961 18.48-9.8398 17.52-5.0391 42.84 13.199 52.922 4.0781 2.2812 8.5195 3.6016 13.078 4.1992 6.1211 63 6.8398 126.48 1.8008 189.6-3.4805 42.84-8.1602 88.078-24.359 128.4 1.8008-83.879 1.4414-167.88-4.4414-251.64-4.4414-63.602-12.238-126.96-24.48-189.6 4.9219-1.9219 9.4805-4.6797 13.078-8.5195 7.1992-7.5586 9.8398-17.281 9-26.879 0.48047-6.9609-0.71875-13.801-3.6016-20.281-3.7188-8.3984-10.922-14.281-19.32-17.398-16.801-6.2383-37.32 3.3594-45.961 18.48-9.8398 17.52-5.0391 42.84 13.199 52.922 3.1211 1.6797 6.4805 2.8789 9.9609 3.6016 23.16 117.84 30.121 238.08 30.121 357.96 0 8.8789-0.23828 17.762-0.23828 26.641-9.2383-14.641-17.641-29.762-23.762-45.961-9.8398-26.039-14.398-53.762-18.84-81.238-7.1992-44.281-12.84-88.801-16.801-133.44 7.3203-1.5586 14.281-5.0391 19.441-10.441 7.1992-7.5586 9.8398-17.281 9-26.879 0.48047-6.9609-0.71875-13.801-3.6016-20.281-3.7188-8.3984-10.922-14.281-19.32-17.398-16.801-6.2383-37.32 3.3594-45.961 18.48-9.8398 17.52-5.0391 42.84 13.199 52.922 1.1992 0.71875 2.5195 1.1992 3.7188 1.6797 4.1992 47.398 10.199 94.68 17.879 141.6 4.5586 27.961 9.2383 56.281 19.441 82.922 10.32 26.641 25.68 50.641 41.398 74.398 1.0781 1.6797 2.3984 2.8789 3.8398 3.7188-0.35938 19.559-0.83984 39.238-1.4414 58.801-0.35938 0.48047-0.71875 0.96094-1.0781 1.4414-2.1602 2.7617-2.1602 6.4805-0.83984 9.7188-85.199-84.961-107.64-211.68-114.24-327.96-2.2812-39.48-3.1211-79.078-4.6797-118.68 4.5586-1.9219 8.7617-4.5586 12.238-8.2812 7.1992-7.5586 9.8398-17.281 9-26.879 0.48047-6.9609-0.71875-13.801-3.6016-20.281-3.7188-8.3984-10.922-14.281-19.32-17.398-16.801-6.2383-37.32 3.3594-45.961 18.48-9.8398 17.52-5.0391 42.84 13.199 52.922 3.4805 1.9219 7.1992 3.2383 11.16 3.9609 5.2812 135.24 3.7188 278.88 76.559 398.28 17.879 29.398 40.078 56.039 66.238 78.359-0.35938 9.7188-0.71875 19.441-1.0781 29.16-50.281-18.48-93-54-124.32-97.199-39.359-54.238-60.84-118.44-72.48-183.96-4.8008-27.238-7.8008-54.602-9.9609-82.078 3.7188-1.8008 7.0781-4.3203 9.9609-7.3203 7.1992-7.5586 9.8398-17.281 9-26.879 0.48047-6.9609-0.71875-13.801-3.6016-20.281-3.7188-8.3984-10.922-14.281-19.32-17.398-16.801-6.2383-37.32 3.3594-45.961 18.48-9.8398 17.52-5.0391 42.84 13.199 52.922 4.1992 2.2812 8.8789 3.7188 13.68 4.3203 10.559 125.76 43.078 256.68 145.8 338.4 25.078 19.922 52.922 35.52 83.16 45.602-1.3203 35.039-2.5195 70.078-3.6016 105.12-31.199-57.238-85.559-100.44-152.04-115.2-9.2383-2.0391-15.961 5.5195-14.398 14.398 7.8008 43.801 22.559 87.359 50.281 122.64 28.199 36 70.078 57.84 113.88 69-0.96094 58.801-0.83984 117.48 1.5586 176.28 0.60156 15 24.121 15.121 23.398 0-2.3984-56.762-2.5195-113.52-1.6797-170.28 0.12109 0 0.12109 0 0.23828-0.12109 86.641-43.199 150.96-127.32 169.8-222.24 1.9219-9.9609-7.9219-18.359-17.281-13.199-61.199 33.961-119.04 80.879-150.6 142.56 1.1992-36.84 2.5195-73.559 3.8398-110.28 50.398-19.801 91.078-56.879 119.64-102.6 33.121-52.801 47.762-114.48 52.32-176.16 2.3984-33 1.8008-66.238-0.12109-99.238 5.3984-1.9219 10.441-4.9219 14.398-9.1211 7.1992-7.5586 9.8398-17.281 9-26.879 0.50781-7.2305-0.69141-14.07-3.5703-20.551zm-220.68 607.56c-37.801-10.559-73.559-29.762-97.68-61.559-20.641-27.238-32.762-59.641-40.199-92.879 67.68 21.719 120.48 76.801 138.12 145.44-0.12109 2.9961-0.24219 5.9961-0.24219 8.9961zm163.32-171c-21.719 72.238-70.801 134.52-136.2 172.2 13.797-75.961 72.238-132.36 136.2-172.2z"/>
</svg>
