<?xml version="1.0" encoding="UTF-8"?>
<svg width="1200pt" height="1200pt" version="1.1" viewBox="0 0 1200 1200" xmlns="http://www.w3.org/2000/svg">
 <path d="m1168.9 591.37c-0.046875-1.7812-0.046875-3.5625-0.09375-5.2969-0.09375-2.9531-0.1875-5.9062-0.28125-8.9062-0.09375-1.8281-0.14062-3.6094-0.23438-5.4375-0.14062-2.9062-0.32812-5.8594-0.51562-8.8125-0.14062-1.875-0.23438-3.7031-0.375-5.5781-0.23438-2.9062-0.46875-5.8125-0.75-8.7188-0.1875-1.875-0.32812-3.7969-0.51562-5.6719-0.28125-2.8594-0.60938-5.7188-0.9375-8.625-0.23438-1.9219-0.42188-3.8438-0.70312-5.7656-0.375-2.8594-0.75-5.7188-1.1719-8.5781-0.28125-1.9219-0.5625-3.8906-0.84375-5.8125-0.42188-2.8594-0.89062-5.6719-1.4062-8.5312-0.32812-1.9219-0.65625-3.8906-0.98438-5.8125-0.51562-2.8594-1.0781-5.6719-1.6406-8.5312-0.375-1.9219-0.75-3.8438-1.125-5.8125-0.60938-2.8594-1.2188-5.7188-1.875-8.5781l-1.2656-5.7656c-0.65625-2.9062-1.4062-5.8125-2.1562-8.7188-0.46875-1.875-0.89062-3.7031-1.3594-5.5781-0.79688-3-1.6406-6.0469-2.4844-9.0469-0.46875-1.7344-0.9375-3.4688-1.4531-5.2031-0.9375-3.2812-1.9688-6.6094-2.9531-9.8906-0.42188-1.4531-0.84375-2.9062-1.3125-4.3594-1.5-4.7344-3.0469-9.4688-4.6875-14.203-102.38-296.34-426.89-454.31-723.42-351.94-5.8594 2.0156-11.672 4.1719-17.438 6.375-1.1719 0.42188-2.2969 0.89062-3.4219 1.3125-4.875 1.9219-9.75 3.8906-14.578 5.9062-0.89062 0.375-1.8281 0.75-2.7656 1.125-5.7188 2.4375-11.391 4.9688-17.016 7.5938-0.28125 0.14062-0.5625 0.28125-0.79688 0.375-5.2031 2.4375-10.359 4.9688-15.422 7.5469-1.0781 0.5625-2.1562 1.125-3.2344 1.6406-4.9688 2.5312-9.8906 5.1562-14.719 7.8281-0.375 0.23438-0.75 0.42188-1.1719 0.60938-5.3906 3-10.734 6.0938-15.984 9.2344-0.60938 0.375-1.2656 0.75-1.875 1.125-4.5938 2.7656-9.0938 5.5781-13.594 8.4844-0.89062 0.5625-1.7812 1.125-2.6719 1.7344-10.125 6.6094-19.969 13.453-29.625 20.672-0.70312 0.51562-1.4062 1.0781-2.1094 1.5938-4.2656 3.2344-8.4844 6.4688-12.656 9.8438-0.60938 0.46875-1.1719 0.9375-1.7812 1.4062-9.375 7.5469-18.469 15.422-27.328 23.531-0.65625 0.60938-1.3125 1.2188-1.9219 1.7812-4.1719 3.8438-8.2969 7.7812-12.328 11.766-0.1875 0.14062-0.32812 0.32812-0.46875 0.46875-4.4062 4.3125-8.7188 8.7188-12.984 13.219-0.1875 0.1875-0.32812 0.375-0.51562 0.5625-3.8906 4.125-7.7344 8.2969-11.484 12.516-0.5625 0.60938-1.0781 1.2188-1.6406 1.8281-3.8906 4.4062-7.7812 8.8594-11.531 13.406 42.188-73.875 93.703-170.76 60.094-177.56-48.562-9.7969-92.578 215.72-94.734 221.39 0.1875-1.0312 15.75-136.13-15.281-126.98-31.078 9.0938-6 134.44-16.031 178.26-0.51562 2.25-1.0312 4.4062-1.5469 6.5156-19.594 37.594-34.969 77.344-45.797 118.45-0.09375 0.28125-0.14062 0.5625-0.23438 0.84375-1.125 4.2188-2.1562 8.4375-3.1875 12.703-0.14062 0.60938-0.28125 1.1719-0.42188 1.7812-0.9375 3.9375-1.8281 7.875-2.6719 11.859-0.1875 0.79688-0.32812 1.6406-0.51562 2.4375-0.79688 3.75-1.5469 7.5-2.2031 11.25-0.1875 1.0312-0.375 2.0156-0.5625 3.0469-0.65625 3.5625-1.2656 7.1719-1.8281 10.734l-0.5625 3.5156c-0.5625 3.4219-1.0312 6.8906-1.5 10.359-0.1875 1.3125-0.32812 2.5781-0.51562 3.8906-0.42188 3.3281-0.84375 6.7031-1.2188 10.031l-0.42188 4.2188c-0.32812 3.2344-0.65625 6.5156-0.9375 9.75-0.14062 1.5-0.23438 3-0.375 4.5-0.23438 3.1875-0.46875 6.375-0.65625 9.5625-0.09375 1.5938-0.1875 3.1406-0.28125 4.7344-0.1875 3.1406-0.28125 6.2344-0.42188 9.375l-0.14062 4.9219c-0.09375 3.0469-0.14062 6.1406-0.1875 9.1875-0.046875 1.7344-0.046875 3.4219-0.046875 5.1562 0 3 0.046875 6.0469 0.046875 9.0469 0.046875 1.7812 0.046875 3.5625 0.09375 5.2969 0.09375 2.9531 0.1875 5.9062 0.28125 8.9062 0.09375 1.8281 0.14062 3.6094 0.23438 5.4375 0.14062 2.9062 0.32812 5.8594 0.51562 8.8125 0.14062 1.875 0.23438 3.7031 0.375 5.5781 0.23438 2.9062 0.46875 5.8125 0.75 8.7188 0.1875 1.875 0.32812 3.7969 0.51562 5.6719 0.28125 2.8594 0.60938 5.7188 0.9375 8.625 0.23438 1.9219 0.42188 3.8438 0.70312 5.7656 0.375 2.8594 0.75 5.7188 1.1719 8.5781 0.28125 1.9219 0.5625 3.8906 0.84375 5.8125 0.42188 2.8594 0.89062 5.6719 1.4062 8.5312 0.32812 1.9219 0.65625 3.8906 0.98438 5.8125 0.51562 2.8594 1.0781 5.6719 1.6406 8.5312 0.375 1.9219 0.75 3.8438 1.125 5.8125 0.60938 2.8594 1.2188 5.7188 1.875 8.5781l1.2656 5.7656c0.65625 2.9062 1.4062 5.8125 2.1562 8.7188 0.46875 1.875 0.89062 3.7031 1.3594 5.5781 0.79688 3 1.6406 6.0469 2.4844 9.0469 0.46875 1.7344 0.9375 3.4688 1.4531 5.2031 0.9375 3.2812 1.9688 6.6094 2.9531 9.8906 0.42188 1.4531 0.84375 2.9062 1.3125 4.3594 1.5 4.7344 3.0469 9.4688 4.6875 14.203 102.38 296.53 426.89 454.5 723.42 352.13 5.8594-2.0156 11.672-4.1719 17.438-6.375 1.1719-0.42188 2.2969-0.89063 3.4219-1.3125 4.875-1.9219 9.75-3.8906 14.578-5.9062 0.89062-0.375 1.8281-0.75 2.7656-1.125 5.7188-2.4375 11.391-4.9688 17.016-7.5938 0.28125-0.14063 0.5625-0.28125 0.79688-0.375 5.2031-2.4375 10.359-4.9688 15.422-7.5469 1.0781-0.5625 2.1562-1.125 3.2344-1.6406 4.9688-2.5312 9.8906-5.1562 14.719-7.8281 0.375-0.23437 0.75-0.42187 1.1719-0.60937 5.3906-3 10.734-6.0938 15.984-9.2344 0.60938-0.375 1.2656-0.75 1.875-1.125 4.5938-2.7656 9.0938-5.5781 13.594-8.4844 0.89062-0.5625 1.7812-1.125 2.6719-1.7344 10.125-6.6094 19.969-13.453 29.625-20.672 0.70312-0.51563 1.4062-1.0781 2.1094-1.5938 4.2656-3.2344 8.4844-6.4688 12.656-9.8438 0.60938-0.46875 1.1719-0.9375 1.7812-1.4062 9.375-7.5469 18.469-15.422 27.328-23.531 0.65625-0.60938 1.3125-1.2188 1.9219-1.7812 4.1719-3.8438 8.2969-7.7812 12.328-11.766 0.1875-0.14062 0.32812-0.32812 0.46875-0.46875 4.4062-4.3125 8.7188-8.7188 12.984-13.219 0.1875-0.1875 0.32812-0.375 0.51562-0.5625 3.8906-4.125 7.7344-8.2969 11.484-12.516 0.5625-0.60938 1.0781-1.2188 1.6406-1.8281 3.8906-4.4062 7.7812-8.8594 11.531-13.406-42.188 73.875-93.703 170.76-60.094 177.56 48.562 9.7969 92.578-215.72 94.734-221.39-0.1875 1.0312-15.75 136.13 15.281 126.98 31.078-9.0938 6-134.44 16.031-178.26 0.51562-2.25 1.0312-4.4062 1.5469-6.5156 19.594-37.594 34.969-77.344 45.797-118.45 0.09375-0.28125 0.14062-0.5625 0.23438-0.84375 1.125-4.2188 2.1562-8.4375 3.1875-12.703 0.14062-0.60938 0.28125-1.1719 0.42188-1.7812 0.9375-3.9375 1.8281-7.875 2.6719-11.859 0.1875-0.79688 0.32812-1.6406 0.51562-2.4375 0.79688-3.75 1.5469-7.5 2.2031-11.25 0.1875-1.0312 0.375-2.0156 0.5625-3.0469 0.65625-3.5625 1.2656-7.1719 1.8281-10.734l0.5625-3.5156c0.5625-3.4219 1.0312-6.8906 1.5-10.359 0.1875-1.3125 0.32812-2.5781 0.51562-3.8906 0.42188-3.3281 0.84375-6.7031 1.2188-10.031l0.42188-4.2188c0.32812-3.2344 0.65625-6.5156 0.9375-9.75 0.14062-1.5 0.23438-3 0.375-4.5 0.23438-3.1875 0.46875-6.375 0.65625-9.5625 0.09375-1.5938 0.1875-3.1406 0.28125-4.7344 0.1875-3.1406 0.28125-6.2344 0.42188-9.375l0.14062-4.9219c0.09375-3.0469 0.14062-6.1406 0.1875-9.1875 0.046875-1.7344 0.046875-3.4219 0.046875-5.1562 0-3-0.046875-6.0469-0.046875-9.0469zm-14.953 25.453c-0.046875 0.79688-0.046875 1.6406-0.09375 2.4375-0.09375 2.8594-0.23438 5.7188-0.375 8.5781-0.046875 0.5625-0.046875 1.125-0.09375 1.6875-0.51562 9.2812-1.2656 18.562-2.25 27.797-0.046875 0.28125-0.046875 0.60938-0.09375 0.89062-2.7656 25.969-7.4062 51.609-13.734 76.734-44.344 63.094-161.06 97.594-137.81 121.22 26.578 26.953 105.8-60.562 107.16-61.969-36.75 68.906-200.53 165.37-179.58 189.32 17.203 19.688 120.32-57.797 181.92-164.95-1.875 4.3125-3.75 8.625-5.7188 12.891-0.046875 0.09375-0.09375 0.14062-0.09375 0.23438-1.875 4.0781-3.8438 8.1562-5.8125 12.234-0.32812 0.65625-0.65625 1.2656-0.98438 1.9219-1.7344 3.4688-3.4688 6.9375-5.25 10.359-0.46875 0.89062-0.98438 1.8281-1.4531 2.7188-1.6875 3.1406-3.3281 6.2812-5.0625 9.4219-0.60938 1.0781-1.1719 2.1094-1.7812 3.1875-1.6875 2.9531-3.3281 5.9062-5.0625 8.8594-0.65625 1.125-1.3594 2.25-2.0156 3.375-1.6875 2.8125-3.375 5.6719-5.1094 8.4375-0.70312 1.1719-1.4531 2.3438-2.2031 3.4688-1.7344 2.7656-3.4688 5.4844-5.25 8.2031-0.75 1.1719-1.5469 2.3438-2.3438 3.5156-1.7812 2.6719-3.6094 5.3438-5.4375 8.0156-0.79688 1.1719-1.5938 2.2969-2.3906 3.4688-1.875 2.6719-3.75 5.2969-5.6719 7.9219-0.79688 1.125-1.6406 2.25-2.4375 3.375-1.9688 2.625-3.9375 5.25-5.9531 7.875-0.79688 1.0781-1.6406 2.1094-2.4375 3.1875-2.0625 2.6719-4.1719 5.2969-6.2812 7.9219-0.79688 0.98438-1.5938 1.9688-2.3438 2.9062-2.25 2.7188-4.5 5.3906-6.7969 8.1094-0.70312 0.84375-1.4062 1.6875-2.1562 2.5312-2.4844 2.8594-4.9688 5.7188-7.5 8.5312-0.5625 0.60938-1.125 1.2656-1.6875 1.875-2.9062 3.1875-5.8125 6.3281-8.8125 9.4688-0.23438 0.23438-0.42188 0.46875-0.65625 0.70312-13.031 13.641-26.766 26.672-41.25 38.953-0.51562 0.42188-1.0312 0.84375-1.5469 1.3125-3.0469 2.5781-6.1406 5.1562-9.2344 7.6406-0.84375 0.65625-1.6406 1.3125-2.4844 1.9688-2.8125 2.25-5.6719 4.5-8.5781 6.7031-1.0312 0.75-2.0156 1.5469-3.0469 2.2969-2.7188 2.0625-5.4844 4.125-8.25 6.1406-1.125 0.79688-2.25 1.6406-3.4219 2.4375-2.7188 1.9219-5.3906 3.8438-8.1562 5.7188-1.2188 0.84375-2.4375 1.6406-3.6562 2.4844-2.7188 1.8281-5.4375 3.6562-8.1562 5.4375-1.2656 0.84375-2.5312 1.6406-3.8438 2.4844-2.7188 1.7344-5.4844 3.4688-8.25 5.2031l-3.9375 2.3906c-2.7656 1.6875-5.5781 3.3281-8.3906 4.9688-1.3125 0.75-2.6719 1.5469-4.0312 2.2969-2.8594 1.6406-5.7188 3.2344-8.625 4.7812-1.3125 0.70312-2.625 1.4531-3.9844 2.1562-2.9531 1.5938-5.9531 3.1406-8.9531 4.6875-1.3125 0.65625-2.5781 1.3125-3.8906 1.9688-3.1406 1.5938-6.2812 3.0938-9.4219 4.5938-1.2188 0.5625-2.3906 1.1719-3.6094 1.7344-3.375 1.5938-6.75 3.0938-10.172 4.6406-1.0312 0.46875-2.0625 0.9375-3.0938 1.3594-3.7969 1.6406-7.5938 3.2812-11.438 4.8281-0.65625 0.28125-1.3594 0.5625-2.0156 0.84375-9.1875 3.75-18.516 7.2188-27.984 10.5-288.84 99.703-604.97-54.141-704.68-342.94v-0.046875c-1.4062-4.0312-2.7188-8.0625-4.0312-12.094-0.375-1.2188-0.75-2.3906-1.125-3.6094-0.9375-3.0469-1.875-6.0938-2.7656-9.1875-0.32812-1.125-0.65625-2.25-1.0312-3.4219-1.125-3.9844-2.25-7.9688-3.2812-11.953-0.23438-0.89062-0.42188-1.7344-0.65625-2.625l-2.3906-9.5625-0.98438-4.2188c-0.65625-2.9062-1.3125-5.8125-1.9219-8.7188-0.28125-1.2188-0.5625-2.4375-0.79688-3.6562-0.79688-3.8438-1.5469-7.6875-2.25-11.484-0.28125-1.4531-0.51562-2.9531-0.79688-4.4062-0.46875-2.5781-0.89062-5.1094-1.3125-7.6875-0.28125-1.6875-0.5625-3.4219-0.79688-5.1094l-1.125-7.7344c-0.28125-2.1562-0.60938-4.3125-0.84375-6.5156-0.375-2.9062-0.70312-5.8125-1.0312-8.7188-0.23438-1.9688-0.42188-3.9375-0.60938-5.9531l-0.5625-5.9062c-0.1875-2.1094-0.375-4.1719-0.51562-6.2812-0.14062-1.875-0.28125-3.7969-0.375-5.6719-0.23438-3.8438-0.46875-7.6875-0.65625-11.531-0.09375-1.5469-0.14062-3.0938-0.1875-4.6406-0.09375-2.4375-0.14062-4.8281-0.1875-7.2656-0.046875-1.3594-0.046875-2.6719-0.09375-4.0312-0.14062-8.625-0.046875-17.203 0.1875-25.734 0.046875-0.79688 0.046875-1.6406 0.09375-2.4375 0.09375-2.8594 0.23438-5.7188 0.375-8.5781 0.046875-0.5625 0.046875-1.125 0.09375-1.6875 0.51562-9.2812 1.2656-18.562 2.25-27.797 0.046875-0.28125 0.046875-0.60938 0.09375-0.89062 2.7656-25.969 7.4062-51.609 13.734-76.734 44.344-63.094 161.06-97.594 137.81-121.22-26.578-26.953-105.8 60.562-107.16 61.969 36.75-68.906 200.53-165.37 179.58-189.32-17.203-19.688-120.32 57.797-181.92 164.95 1.875-4.3125 3.75-8.625 5.7188-12.891 0.046876-0.09375 0.09375-0.14062 0.09375-0.23438 1.875-4.0781 3.8438-8.1562 5.8125-12.234 0.32813-0.65625 0.65625-1.2656 0.98438-1.9219 1.7344-3.4688 3.4688-6.9375 5.25-10.359 0.46875-0.89062 0.98437-1.8281 1.4531-2.7188 1.6875-3.1406 3.3281-6.2812 5.0625-9.4219 0.60938-1.0781 1.1719-2.1094 1.7812-3.1875 1.6875-2.9531 3.3281-5.9062 5.0625-8.8594 0.65625-1.125 1.3594-2.25 2.0156-3.375 1.6875-2.8125 3.375-5.6719 5.1094-8.4375 0.70313-1.1719 1.4531-2.3438 2.2031-3.4688 1.7344-2.7656 3.4688-5.4844 5.25-8.2031 0.75-1.1719 1.5469-2.3438 2.3438-3.5156 1.7812-2.6719 3.6094-5.3438 5.4375-8.0156 0.79687-1.1719 1.5938-2.2969 2.3906-3.4688 1.875-2.6719 3.75-5.2969 5.6719-7.9219 0.79687-1.125 1.6406-2.25 2.4375-3.375 1.9688-2.625 3.9375-5.25 5.9531-7.875 0.79688-1.0781 1.6406-2.1094 2.4375-3.1875 2.0625-2.6719 4.1719-5.2969 6.2812-7.9219 0.79688-0.98438 1.5938-1.9688 2.3438-2.9062 2.25-2.7188 4.5-5.3906 6.7969-8.1094 0.70312-0.84375 1.4062-1.6875 2.1562-2.5312 2.4844-2.8594 4.9688-5.7188 7.5-8.5312 0.5625-0.60938 1.125-1.2656 1.6875-1.875 2.9062-3.1875 5.8125-6.3281 8.8125-9.4688 0.23437-0.23438 0.42187-0.46875 0.65625-0.70312 13.031-13.641 26.766-26.672 41.25-38.953 0.51562-0.42188 1.0312-0.84375 1.5469-1.3125 3.0469-2.5781 6.1406-5.1562 9.2344-7.6406 0.84375-0.65625 1.6406-1.3125 2.4844-1.9688 2.8125-2.25 5.6719-4.5 8.5781-6.7031 1.0312-0.75 2.0156-1.5469 3.0469-2.2969 2.7188-2.0625 5.4844-4.125 8.25-6.1406 1.125-0.79688 2.25-1.6406 3.4219-2.4375 2.7188-1.9219 5.3906-3.8438 8.1562-5.7188 1.2188-0.84375 2.4375-1.6406 3.6562-2.4844 2.7188-1.8281 5.4375-3.6562 8.1562-5.4375 1.2656-0.84375 2.5312-1.6406 3.8438-2.4844 2.7188-1.7344 5.4844-3.4688 8.25-5.2031 1.3125-0.79688 2.625-1.5938 3.9375-2.3906 2.7656-1.6875 5.5781-3.3281 8.3906-4.9688 1.3125-0.75 2.6719-1.5469 4.0312-2.2969 2.8594-1.6406 5.7188-3.2344 8.625-4.7812 1.3125-0.70312 2.625-1.4531 3.9844-2.1562 2.9531-1.5938 5.9531-3.1406 8.9531-4.6875 1.3125-0.65625 2.5781-1.3125 3.8906-1.9688 3.1406-1.5938 6.2812-3.0938 9.4219-4.5938 1.2188-0.5625 2.3906-1.1719 3.6094-1.7344 3.375-1.5938 6.75-3.0938 10.172-4.6406 1.0312-0.46875 2.0625-0.9375 3.0938-1.3594 3.7969-1.6406 7.5938-3.2812 11.438-4.8281 0.65625-0.28125 1.3594-0.5625 2.0156-0.84375 9.1875-3.75 18.516-7.2188 27.984-10.5 288.84-99.703 604.97 54.141 704.68 342.94v0.046875c1.4062 4.0312 2.7188 8.0625 4.0312 12.094 0.375 1.2188 0.75 2.3906 1.125 3.6094 0.9375 3.0469 1.875 6.0938 2.7656 9.1875 0.32812 1.125 0.65625 2.25 1.0312 3.4219 1.125 3.9844 2.25 7.9688 3.2812 11.953 0.23438 0.89062 0.42188 1.7344 0.65625 2.625l2.3906 9.5625 0.98438 4.2188c0.65625 2.9062 1.3125 5.8125 1.9219 8.7188 0.28125 1.2188 0.5625 2.4375 0.79688 3.6562 0.79688 3.8438 1.5469 7.6875 2.25 11.484 0.28125 1.4531 0.51562 2.9531 0.79688 4.4062 0.46875 2.5781 0.89062 5.1094 1.3125 7.6875 0.28125 1.6875 0.5625 3.4219 0.79688 5.1094l1.125 7.7344c0.28125 2.1562 0.60938 4.3125 0.84375 6.5156 0.375 2.9062 0.70312 5.8125 1.0312 8.7188 0.23438 1.9688 0.42188 3.9375 0.60938 5.9531l0.5625 5.9062c0.1875 2.1094 0.375 4.1719 0.51562 6.2812 0.14062 1.875 0.28125 3.7969 0.375 5.6719 0.23438 3.8438 0.46875 7.6875 0.65625 11.531 0.09375 1.5469 0.14062 3.0469 0.1875 4.5938 0.09375 2.4375 0.14062 4.875 0.1875 7.3125 0.046875 1.3594 0.046875 2.6719 0.09375 4.0312 0.14062 8.625 0.046875 17.203-0.1875 25.734z"/>
</svg>
