<?xml version="1.0" encoding="UTF-8"?>
<svg width="1200pt" height="1200pt" version="1.1" viewBox="0 0 1200 1200" xmlns="http://www.w3.org/2000/svg">
 <path d="m317.02 442.29c7.6016-4.0469 15.832-7.8555 24.625-7.957 19.488-0.09375 39.156 7.6172 52.5 22.004 7.7617 7.9023 13.707 17.609 17.152 28.148 7.3828 23.41 6.5195 49.25-1.9688 72.258-6.9414 20.391-20.57 37.879-36.574 52.02-18.59 15.34-41.621 26.75-66.117 27.078-11.465 0.12891-23.219-0.49609-34.059-4.5391-4.3945-1.5391-8.7891-3.0898-13.094-4.8398-12.98 19.656-34.973 33.586-58.594 35.426-13.395 1.2656-26.672-3.5859-37.383-11.426-9.5859-6.9258-16.473-17.648-17.738-29.504-0.48047-5.7266 0.36719-11.66 3.3281-16.668 7.2617-12.641 21.637-20.402 36.078-20.82 23.555-1.3828 46.238 7.6836 66.676 18.551 6.3125-15.969 3.4688-34.449-5.3594-48.875-7.1367-11.895-18.562-20.531-30.797-26.676-21.613-10.133-46.902-10.316-69.457-3.2188-19.98 6.1406-36.418 21.012-47.477 38.438-13.945 22.984-21.172 50.555-17.91 77.414 1.9062 13.719 5.3359 27.559 12.914 39.34 10.473 16.133 25.293 28.863 40.566 40.289 21.77 16.332 47.828 26.086 74.426 31.031 29.125 4.6836 59.215 2.0078 87.559-5.8047 34.371-11.258 65.348-31.344 92.387-55.098 14.152-11.984 24.68-27.559 38.727-39.637 12.094-11.23 26.781-19.043 41.191-26.844 20.152-11.191 43.422-14.387 66.094-15.82 20.504-0.82422 40.523 6.793 57.418 18 17.984-11.898 39.547-19.738 61.34-17.781 14.531 1.3438 29.23 2.793 43.148 7.4609 13.684 4.332 26.062 11.805 38.402 18.992 15.652 8.9883 28.812 21.613 40.617 35.141 16.523 19.656 37.031 35.594 58.445 49.617 21.195 13.07 43.789 24.898 68.48 29.57 28.172 5.4375 57.73 6.832 85.707-0.57422 23.297-5.7422 45.785-15.574 64.695-30.512 17.336-13.355 34.566-28.656 43.41-49.172 8.0234-20.48 10.082-43.305 5.4141-64.84-4.7109-20.895-13.711-41.375-28.773-56.895-8.6641-8.6211-18.496-16.488-30.117-20.621-16.945-6.2617-35.625-8.3633-53.441-5.1289-21.469 4.043-42.234 16.398-53.086 35.766-7.6055 14.051-9.9023 31.383-3.8867 46.438 20.828-11.074 44.035-20.309 68.059-18.457 10.918 0.57422 21.484 5.5156 29.051 13.395 4.9922 4.9297 8.6992 11.516 9 18.641 0.58594 11.387-4.3984 22.852-12.746 30.547-11.816 11.203-28.484 17.648-44.828 15.559-22.711-2.6992-43.723-16.238-56.207-35.332-8.8164 3.5352-17.766 7.1992-27.246 8.4258-15.664 1.9961-31.93 1.5391-46.957-3.707-39.09-13.656-70.852-47.906-79.824-88.551-4.4609-19.996-3.6406-41.309 3.1289-60.703 8.1523-21.535 26.727-39.352 49.266-44.949 10.5-2.5938 22.016-4.2109 32.309 0.027344 16.355 5.7773 31.941 18.184 36.207 35.66 1.1758 10.527 1.0586 21.898-4.3438 31.371-4.1055 6.2344-9.4961 12.297-17.074 14.098-11.137 4.6719-24.691-5.2148-24.715-17.008-0.57422-4.9961 0.61328-10.254 4.1328-13.984 1.75-2.4648 5.6484-2.9453 7.9727-1.0547 4.1445 3.9531 6.168 9.5625 6.3906 15.207 3.8203-1.9805 7.4219-4.9297 8.6719-9.2344 1.9688-6.832 2.6484-14.844-1.2773-21.129-5.0742-8.6992-14.258-13.891-23.453-17.203-6.4961-2.2578-13.473-0.52344-19.941 0.92578-17.348 4.1992-31.488 18.102-37.398 34.758-4.8242 15.434-5.9727 32.09-2.2539 47.898 4.5898 23.516 18.832 44.293 37.199 59.309 17.465 14.008 39.848 23.293 62.543 20.961 9.7422-0.50781 19.02-3.668 28.004-7.2148-8.3477-19.602-6.4414-42.715 3.0938-61.539 9.2734-18.363 26.047-31.918 44.605-40.188 19.695-8.6875 41.844-9.9375 62.938-6.8086 12.285 2.0898 24.312 5.9766 35.281 11.922 21.523 12.875 38.465 32.883 48.285 55.906 5.4531 13.512 10.109 27.535 11.324 42.129 2.4766 26.047-1.5508 53.531-15.352 76.109-12.629 19.93-31.082 35.23-49.996 48.926-14.738 10.266-31.098 18.195-48.262 23.504-30.797 11.102-64.332 11.844-96.484 7.4375-18.965-2.4141-37.457-8.0117-54.676-16.254-24.625-11.438-47.363-26.715-68.102-44.191-8.7773-7.6445-17.398-15.535-24.898-24.469-10.656-12.484-22.434-24.234-36.535-32.816-10.852-6.3398-21.73-12.797-33.496-17.309-12.508-4.543-25.812-6.043-38.961-7.4609-17.113-2.2969-34.277 3.5586-48.875 12.168-4.1875 1.8633-4.5625 7.7227-9.0625 9.1289-3.1328 0.83594-6.5742 0.83594-9.6914-0.023437-4.4375-1.4492-4.8281-7.2031-8.9492-9.0664-14.648-8.6602-31.891-14.52-49.07-12.184-16.328 1.7109-33.09 3.7695-47.906 11.363-15.785 7.8633-31.488 16.5-44.402 28.668-9.5352 8.7539-17.32 19.176-26.492 28.293-25.969 25.172-56.203 46.184-89.359 60.77-28.211 12.453-59.504 16.422-90.129 15.73-25.109-0.09375-49.711-6.8359-72.73-16.438-22.098-9.3516-41.441-24.023-58.957-40.211-11.938-11.559-22.684-24.836-28.812-40.438-16.711-42.977-8.2852-93.91 19.355-130.48 8.582-10.996 19.133-20.402 30.875-27.902 22.836-13.016 50.176-16.719 75.988-12.977 20.586 3.4414 40.098 13.344 54.77 28.199 20.336 20.621 28.137 53.52 16.711 80.504 12.051 5.0742 25.043 8.1406 38.191 7.4766 20.961-0.90234 40.578-10.934 56.242-24.445 10.906-10.16 20.57-21.938 26.699-35.621 8.1797-18.68 11.324-39.926 6.5625-59.922-2.2422-11.559-7.957-22.473-16.629-30.496-10.555-10.109-25.633-15.562-40.176-14.375-10.277 2.8828-20.543 8.5039-26.164 17.91-3.9805 6.3398-3.2617 14.375-1.293 21.262 1.1875 4.3047 4.9062 7.1328 8.6602 9.1562 0.21094-5.6758 2.2578-11.297 6.418-15.25 2.0859-1.6562 5.582-1.5 7.3945 0.51172 5.4922 5.2695 5.7812 13.824 3.4844 20.645-3.6406 8.7422-14.359 14.793-23.555 10.906-7.2656-1.7227-12.457-7.4219-16.605-13.277-5.4805-9.3672-6.2617-20.754-4.9453-31.305 2.7031-13.555 13.07-24.223 24.551-31.16m-145.03 163.94c-4.0312 2.7148-8.2305 6.6523-8.1797 11.895 0.73047 6.6797 4.332 12.992 9.7969 16.934 7.6953 5.7227 17.254 9.9492 27.051 8.582 16.84-2.1289 32.543-11.727 42.367-25.555-15.875-8.6055-33.078-15.352-51.223-16.746-6.8359 0-14.102 0.79688-19.812 4.8906m799.85-1.0547c-10.762 2.7891-20.676 7.9023-30.523 12.91 10.086 14.18 26.336 24 43.711 25.695 9.3633 0.86328 18.34-3.2734 25.707-8.7109 5.6758-4.1367 9.4844-10.84 9.7578-17.895-0.96484-6.3555-6.8477-10.566-12.223-13.254-11.727-4.8008-24.68-1.8789-36.43 1.2539z"/>
</svg>
