<?xml version="1.0" encoding="UTF-8"?>
<svg width="1200pt" height="1200pt" version="1.1" viewBox="0 0 1200 1200" xmlns="http://www.w3.org/2000/svg">
 <path d="m588.69 395.74c3.2344-4.8008 11.438-4.7617 14.531 0.15625 1.8633 3.3008 2.6719 7.3828 5.8164 9.8242 6.5742 5.5039 14.465 9.0234 21.742 13.461 9.4727 5.4492 18.512 11.727 26.598 19.105 16.918 14.832 33.559 31.293 42.43 52.383 15.391-1.5508 31.723-1.9023 45.848 5.375 13.043 7.2383 24.484 17.559 32.727 30 12.262 19.789 16.617 43.867 14.062 66.848 15.039-3.5977 31.34-3.3125 45.809 2.4805 13.172 4.5117 24.285 13.238 36.91 18.91 18.117 8.2969 36.875 17.859 57.352 17.141 23.129-1.9844 46.684-8.3086 65.23-22.84-4.0664-8.1914-7.5781-17.895-4.1836-26.922 2.8281-8.3477 12.637-15.156 21.441-11.844 5.6367 2.7383 10.551 8.0469 11.387 14.441 1.4102 7.4727-0.078125 15.219-3.5078 21.949 12.012 7.3711 26.426 8.1016 40.148 8.1523 20.02-0.41406 40.016-2.0352 60.062-1.6289 4.0469 0.089843 8.0508 0.92578 12.043 1.6289 3.5195-1.707 8.1367-2.8047 11.426 0.054687 5.0195 3.5586 9.4688 10.395 6.0234 16.484-2.8555 5.207-9.6133 4.957-14.582 3.6289-6.168-1.8281-12.379-3.9023-18.875-3.875-26.086-0.18359-52.211 3.2734-78.258 0.69141-10.578-0.98047-20.387-5.3984-29.52-10.605-20.855 18.328-48.848 26.402-76.055 28.695-24.328 1.9844-46.945-8.7773-68.402-18.73-14.711-6.6641-27.598-17.555-43.758-20.777-11.469-2.7383-23.246-0.26172-34.461 2.4922-3.6914 12.758-10.555 24.441-19.281 34.395-7.8516 9.25-17.281 17.777-28.863 21.914-7.3438 2.4258-17.27 2.4258-22.176-4.5391-7.0156-8.6602-4.0703-21.496 2.2305-29.727 13.109-17.309 33.078-27.469 52.594-35.871 4.0938-19.305 1.3164-39.898-7.332-57.586-3.7812-7.9297-9.8594-14.453-16.41-20.164-5.8672-4.9297-12.352-9.5469-19.941-11.309-7.9062-2.2578-16.176-1.7617-24.25-1.1484 4.6172 21.066 3.0391 43.957-6.7305 63.391-7.9688 16.266-18.871 31.867-34.602 41.414-11.113 7.3555-25.332 11.438-38.363 7.082-12.363-4.918-22.59-15.73-25.836-28.746-4.2539-18.785 0.9375-39.379 13.578-53.883 17.684-20.938 41.961-35.766 68.031-43.789-9.9766-18.715-25.773-33.391-41.906-46.785-13.371-11.113-29.922-17.387-43.512-28.16-11.961 9.8086-26.648 15.414-38.938 24.754-18.078 13.984-35.176 30.145-46.512 50.203 25.98 7.7773 50.047 22.555 67.695 43.242 10.645 12.156 16.512 28.473 15.34 44.66 0.011718 13.473-7.4102 26.141-18.301 33.809-7.9688 6.3516-18.781 7.3711-28.527 5.75-17.527-4.4062-32.176-16.578-42.391-31.172-9.0391-13.082-16.488-27.703-18.938-43.566-1.8281-12.664-1.3984-25.656 1.2891-38.164-7.0156-0.58594-14.137-1.1211-21.078 0.45703-10.93 1.707-20.008 8.7656-27.742 16.25-12.574 11.949-18.445 29.27-20.387 46.137-1.293 9.0898-0.26172 18.262 1.2266 27.262 17.176 7.3555 34.445 16.043 47.504 29.738 6.0273 6.5352 11.945 14.609 11.336 23.973 0.33594 7.0039-3.5625 14.582-10.477 16.906-7.6016 2.4102-15.871 0.37891-22.578-3.5508-11.203-6.1406-20.008-15.715-27.559-25.836-5.2578-7.4609-9.8242-15.496-12.668-24.195-0.625-1.293-0.82031-3.3008-2.6211-3.457-11.699-3.2227-24.273-4.8906-36.117-1.3828-14.621 3.8984-26.531 13.695-40.16 19.824-21.43 10.02-44.047 20.766-68.375 18.902-27.402-2.1797-55.523-10.422-76.523-28.855-9.2227 5.7812-19.582 10.02-30.512 10.879-26.035 2.375-52.121-1.1211-78.18-0.78125-8.6094-0.16797-16.32 4.8633-24.902 4.5781-4.8125 0.16797-9.1172-4.4219-8.7266-9.1953-0.050782-5.0742 4.0195-8.8047 7.5273-11.895 3.2227-2.5859 7.6562-1.4766 11.023 0.19531 4.1211-0.65234 8.2148-1.5781 12.391-1.6445 20.059-0.39062 40.082 1.2266 60.129 1.6289 13.617-0.089844 28.02-0.69141 39.887-8.2148-4.0039-7.6719-5.3984-16.93-2.7109-25.238 2.2148-5.0898 6.5195-9.3281 11.645-11.441 6.3672-1.957 12.941 1.6836 17.18 6.2617 7.3828 9.5078 4.918 23.164-1.1484 32.699 17.52 13.879 39.652 20.191 61.539 22.695 13.633 1.5391 27.156-2.2812 39.707-7.25 12.547-5.3633 25.105-10.816 36.887-17.766 13.539-8.3242 28.719-15.172 44.867-15.484 7.5391-0.39062 15.078 0.61328 22.449 2.125-2.6094-23.059 1.9688-47.152 14.219-66.988 8.0859-12.172 19.289-22.137 31.941-29.387 14.281-7.5547 30.977-7.3438 46.617-5.6758 4.3047-11.203 11.582-20.988 19.422-29.961 10.098-11.18 21.066-21.586 33.012-30.781 10.086-7.6953 21.512-13.305 32.27-19.945 2.8438-1.8633 5.9102-3.625 7.918-6.4414 1.7227-2.3867 2.3359-5.3359 3.8359-7.8281m-83.922 115.68c-4.1328 16.941-3.0508 35.414 4.668 51.195 6.8086 14.32 16.188 28.344 30.355 36.262 6.2734 3.5586 13.992 6.875 21.156 3.8594 7.0664-3.4414 12.887-10.211 13.969-18.145 2.3594-13.473-3.0391-27.48-12.145-37.395-15.441-17.047-35.922-29.477-58.004-35.777m141.59 20.242c-9.5859 7.2266-18.793 15.512-24.754 26.09-4.8789 9.9766-7.293 22.121-2.9102 32.711 3.875 7.9961 12.523 15.328 21.953 13.082 8.6875-2.0195 16.266-7.2773 22.941-13.004 7.293-7.3438 13.059-16.133 17.766-25.305 8.5039-16.484 10.371-36.012 5.793-53.922-14.598 4.3984-28.617 11.113-40.789 20.348m85.75 120.34c14.66-4.1875 24.324-17.258 32.32-29.414-12.34 7.5664-26.988 14.988-32.32 29.414m-304.38-29.141c7.9023 12.133 17.672 24.98 32.176 29.258-5.4375-14.215-19.695-22.031-32.176-29.258z"/>
</svg>
