<?xml version="1.0" encoding="UTF-8"?>
<svg width="1200pt" height="1200pt" version="1.1" viewBox="0 0 1200 1200" xmlns="http://www.w3.org/2000/svg">
 <path d="m586.66 263.12c3.5625-2.1523 8.2969-1.6406 11.598 0.79688 7.0039 4.4727 10.199 12.496 14.855 19.031 11.766 17.254 23.699 34.512 32.816 53.371 7.1758 14.988 13.84 30.379 17.52 46.645 2.9727 12.926 3.2188 26.336 2.3086 39.523-1.3828 27.898-10.855 55.316-26.766 78.246-9.9414 14.375-20.715 28.277-33.574 40.148 8.4375 6.168 16.695 12.625 25.617 18.117 18.703-17.727 36.77-36.207 56.816-52.449 17.895-14.645 36.742-28.172 56.637-39.988 28.562-16.617 60.965-27.59 94.199-28.332 25.109-0.67969 51.586 4.9961 71.074 21.703 13.551 11.48 19.863 30.016 18.48 47.508-0.41797 16.301-9.9766 30.402-19.5 42.938-10.445 12.848-21.73 25.254-35.281 34.918-19.395 13.629-42.078 21.535-64.762 27.742-44.973 11.465-93.027 5.375-135.82-11.504-13.684-5.6602-27.117-12.027-39.758-19.762-8.4141 7.5664-17.062 14.898-26.047 21.758 41.23 31.824 86.945 57.73 135.27 77.074 20.988 8.2695 42.719 14.414 64.277 20.973 25.434-10.488 50.738-21.312 76.449-31.133 24.836-9.6406 49.461-19.84 73.773-30.746 24.719-10.16 50.152-21.73 77.492-20.828 11.32-0.51172 23.152 2.8945 31.367 10.969 8.3242 8.1914 13.973 20.398 11.051 32.191-3.5625 11.477-12.066 20.57-20.871 28.395-14.426 13.578-33.078 21.523-51.652 27.68-30.719 9.6523-62.793 15.703-95.102 15.262-33.949 0.59766-67.992-3.5898-100.76-12.523-64.918 24.742-126.81 56.543-191.27 82.395 25.668 8.8711 51.793 16.305 78 23.348 35.711 9.2617 71.711 17.859 108.36 22.422 32.91 4.6719 66.367 4.2812 99.328 0.30078 21.207-2.7109 42.949-4.4883 62.934-12.637 5.0195-2.1016 10.734-2.4688 16.016-1.2266 4.3438 1.1328 5.0625 7.0547 2.1016 9.9883-5.3594 7.6328-14.934 9.707-23.27 12.418-13.789 4.4375-28.238 6.0156-42.523 8.0234-31.055 4.1328-62.504 5.8047-93.781 3.625-32.023-2.5039-63.719-8.2188-94.957-15.547-46.566-11.023-92.883-23.648-137.63-40.711-22.137 8.4922-44.664 15.891-67.449 22.371-34.434 10.004-69.246 18.719-104.41 25.684-27.48 4.9414-55.277 8.9219-83.242 9.1055-29.766 0.50781-59.492-2.4922-88.867-7.0469-13.316-1.8516-26.438-5.3086-38.867-10.445-4.0977-1.5664-7.3555-4.7734-9.9023-8.2578-2.2812-3.2852-0.76953-8.4922 3.3008-9.3906 5.1406-0.98047 10.605-0.57422 15.457 1.4102 10.488 4.2383 21.547 6.9492 32.715 8.582 34.484 5.3086 69.48 8.8828 104.39 6.3516 31.25-2.4023 62.203-7.8789 92.727-14.949 40.004-9.3516 79.746-20.047 118.59-33.441-26.844-11.113-53.57-22.527-79.984-34.645-36.703-16.789-73.562-33.289-111.26-47.766-32.363 8.9883-66.078 13.043-99.652 12.562-26.938 0.375-53.844-3.4961-79.801-10.578-21.133-5.5586-42.301-12.875-60.145-25.801-10.07-8.1289-20.113-17.035-26.137-28.684-4.7227-8.4648-4.2031-19.266 0.63672-27.562 4.4609-9.1406 12.562-16.512 22.316-19.551 6.5625-2.4648 13.656-2.3867 20.547-2.3086 13.98 0 27.793 3.1562 40.875 7.918 26.898 9.0273 52.176 22.016 78.523 32.414 32.91 13.055 65.91 25.902 98.492 39.793 2.6875 0.88672 5.4375 3.0547 8.3867 1.918 28.094-8.3359 56.281-16.762 82.93-29.098 23.75-10.695 46.801-22.957 69.012-36.551 15.508-10.004 30.707-20.516 45.457-31.617-8.7891-7.0547-17.504-14.203-25.93-21.676-22.527 12.715-46.266 23.828-71.582 29.633-38.309 10.07-79.672 10.188-117.39-2.4766-24.328-7.4375-48.395-18.328-66.574-36.562-13.188-13.07-25.762-27.234-34.199-43.918-6.5352-12.926-6.9141-28.199-3.6133-42.09 3.4531-12.211 10.969-23.387 21.547-30.523 21.82-15.82 49.98-19.461 76.227-17.293 33.781 2.9062 66.129 15.781 94.422 34.16 20.215 12.914 39.559 27.285 57.508 43.211 15.926 13.555 30.418 28.656 45.664 42.941 8.8047-5.6875 17.191-11.934 25.555-18.234-16.527-15.457-30.16-33.809-41.727-53.191-14.465-26.051-20.48-56.297-18.77-85.945 0.46875-13.355 3.9258-26.414 8.543-38.895 6.2227-16.371 13.707-32.297 22.863-47.242 8.3086-14.129 18.211-27.211 26.871-41.102 2.7266-4.5391 6.0508-8.9609 10.93-11.336m5.1016 20.23c-13.254 20.977-28.566 40.789-38.977 63.445-6.7422 14.293-13.055 29.008-15.832 44.648-3.0664 16.406-1.5938 33.285 1.4219 49.578 4.4453 22.383 15.219 43.027 29.359 60.793 7.0938 9.7695 15.246 18.719 23.988 27.027 12.848-12.027 23.766-25.902 33.535-40.488 13.629-20.113 21.078-44.125 22.473-68.309 1.3281-13.734-0.3125-27.664-4.2266-40.875-6.625-21.613-16.891-42.016-28.945-61.098-7.2227-11.816-15.848-22.734-22.797-34.723m-287.91 179.56c-10.473 4.7617-21.613 10.891-26.594 21.859-5.375 11.52-5.6641 25.75 0.50781 37.031 7.3672 14.086 18.129 26.047 29.32 37.211 10.215 10.344 22.773 18.066 36.027 23.91 25.863 11.102 53.75 18.223 82.031 17.988 38.934-1.1992 77.27-12.68 111-32.035-13.371-12.863-26.504-25.996-40.5-38.191-19.867-17.414-41.141-33.223-63.707-46.957-27.574-16.527-59.152-27.066-91.461-27.547-12.402 0.54688-25.004 2.1133-36.625 6.7305m513.74-4.2539c-21.73 3.3516-42.297 11.793-61.484 22.316-20.977 12.34-40.828 26.547-59.504 42.145-17.348 14.258-33.145 30.25-49.359 45.742 7.2656 4.0469 14.664 7.8555 22.266 11.246 23.898 11.191 49.891 17.387 76.07 20.152 25.801 2.2422 51.977-1.8008 76.355-10.371 15.457-5.1133 30.668-11.711 43.695-21.613 7.6953-5.6719 14.219-12.754 20.715-19.734 7.3945-8.3984 14.477-17.258 19.551-27.301 6.0273-11.293 5.5039-25.461 0.039063-36.859-5.293-11.047-16.656-17.219-27.402-21.898-19.461-6.9531-40.75-7.7773-60.941-3.8242m-225.96 94.695c-8.2422 6.3672-16.59 12.641-25.316 18.34 8.3594 7.0039 16.605 14.191 25.461 20.582 8.6602-6.5469 17.035-13.5 25.254-20.594-8.7656-5.6875-17.023-12.105-25.398-18.328m-34.918 86.832c-24.246 16.645-50.176 30.691-76.641 43.461-24.691 11.934-50.57 21.156-76.789 29.125 15.301 5.2812 29.961 12.262 44.883 18.496 47.559 21.496 94.918 43.473 143.62 62.281 48.523-18.859 95.781-40.719 143.19-62.191 15.039-6.1797 29.703-13.395 45.145-18.547-25.355-7.8398-50.492-16.59-74.465-28.043-24.262-11.609-48.051-24.285-70.59-38.973-14.742-9.8477-29.246-20.062-43.398-30.719-11.348 8.7773-23.254 16.801-34.957 25.109m-415.89-2.4258c-8.6992 1.5-16.082 9.3906-16.773 18.195 1.7344 7.2266 7.3828 12.559 12.312 17.777 19.031 18.992 45.77 26.855 71.152 33.25 40.789 10.34 83.621 10.617 125.06 4.1836 5.2812-0.76953 10.512-2.2305 15.887-2.2031-6.2109-1.3164-11.844-4.3164-17.699-6.6523-30.848-12.781-62.297-24.09-92.844-37.617-23.219-9.9141-46.176-21.273-71.102-26.23-8.5547-1.3945-17.414-2.4922-25.996-0.70312m874.92 0.85938c-25.355 5.2422-48.68 16.945-72.363 26.988-29.363 12.859-59.48 23.883-89.141 36-5.9609 2.4375-11.777 5.2422-17.934 7.1484 30.023 5.5039 60.715 8.1758 91.227 5.9453 25.055-1.7188 49.746-7.25 73.641-14.844 21.039-6.9883 41.82-18 54.836-36.52 1.7344-2.9883 4.082-6.3672 3.0508-9.9805-1.957-7.043-7.3945-13.277-14.594-15.156-9.418-2.4492-19.293-1.1992-28.723 0.41797z"/>
</svg>
