<?xml version="1.0" encoding="UTF-8"?>
<svg width="1200pt" height="1200pt" version="1.1" viewBox="0 0 1200 1200" xmlns="http://www.w3.org/2000/svg">
 <path d="m589.63 334c3.6289-2.582 8.6094-1.6172 11.766 1.2656 16.148 11.609 23.18 31.656 25.617 50.688 3.0938 23.098 3.8359 47.504-4.668 69.613-3.3789 10.957-9.7969 20.555-16.238 29.906 16.523 19.789 37.172 35.559 58.461 49.867 20.074 13.238 39.91 26.988 58.07 42.797 17.816-10.934 36.898-20.152 57.352-24.902 26.281-6.4961 54.965-8.582 80.699 1.3438 21.938 7.957 40.043 24.391 52.605 43.801 14.895 24.535 16.184 54.992 10.133 82.449 10.812-0.83594 21.836-0.14453 32.242 3.0625 26.324 7.5547 47.598 26.504 73.867 34.188 19.605 5.6992 41.152 8.8438 60.875 1.9453 13.406-5.4141 25.746-15.797 30.117-29.977-0.99219-2.9336-2.1914-6.0391-1.4883-9.168 1.1875-3.1172 4.5273-5.2031 7.8125-5.2812 6.4844-0.65234 12.133 5.5938 12.223 11.816 0.37891 9.457-4.7109 17.934-9.8594 25.461-10.816 13.902-26.43 24.43-43.918 27.52-21.824 3.9414-44.402 0.70703-65.336-6.0898-20.738-6.8984-38.637-19.863-58.422-28.84-13.371-5.8672-28.551-8.7109-42.977-5.6328-3.7305 8.1914-7.0078 16.656-11.715 24.379-6 10.539-14.125 19.695-22.996 27.898-6.0117 5.2695-13.406 10.055-21.73 9.6641-6.7305-0.26172-12.285-5.582-14.66-11.582-1.9297-5.9102-1.7617-12.508 0.53516-18.301 3.5352-9.8477 10.656-17.828 17.828-25.211 10.254-10.84 23.793-18.055 37.867-22.605 5.7266-20.191 7.2773-42.117 0.40234-62.23-4.6172-13.801-13.914-25.617-24.77-35.102-15.848-14.477-37.719-20.883-58.875-20.984-18.629 0.76953-37.07 4.6016-54.613 10.863-9.9922 4.2266-19.812 8.9219-29.207 14.375 25.984 26.426 44.91 61.395 46.695 98.922 0.75781 16.645-0.42969 33.719-6.2344 49.461-8.0352 26.074-26.164 48.301-48.391 63.758-19.473 14.152-44.23 23.711-68.531 19.066-14.645-3.9492-26.973-13.746-36.625-25.184-9.1289-12.133-14.699-26.742-16.98-41.688-2.1289-21.574-0.26172-43.789 7.4219-64.16 7.9023-21.512 22.223-39.875 37.785-56.391 16.945-16.992 35.555-32.332 55.215-46.082-17.113-14.215-35.453-26.844-54.027-39.062-21.156-14.414-41.699-30.133-58.461-49.633-16.488 19.527-37.098 34.945-57.98 49.438-18.703 12.246-37.199 24.91-54.391 39.234 31.762 22.863 62.883 48.508 83.402 82.367 6.9492 12.379 12.754 25.578 15.09 39.668 4.4336 23.922 4.6562 49.93-6.4688 72.156-8.5195 17.934-24.367 32.215-43.082 38.816-19.02 4.7227-38.883-0.625-55.945-9.2891-18.324-9.9258-34.527-23.816-46.918-40.617-10.918-15.336-17.945-33.273-21.168-51.781-2.7539-22.055-1.9688-45.051 5.7773-66.078 7.918-23.754 22.199-44.961 39.496-62.91-8.543-5.1914-17.648-9.4023-26.777-13.461-18.016-6.8477-37.121-10.863-56.375-11.777-19.16-0.027344-38.66 5.1406-54.168 16.656-15.863 12.34-29.309 29.363-32.664 49.633-3.8477 17.203-1.3789 34.992 2.9492 51.848 22.422 6.9258 42.105 22.395 53.598 42.887 3.9102 6.6758 4.8359 14.727 3.2461 22.238-1.707 6.1836-7.1602 11.258-13.434 12.574-7.7891 1.0547-15.211-2.7383-21.055-7.5391-16.914-14.363-29.75-33.379-36.742-54.445-11.492-1.9023-23.336-1.1484-34.41 2.4648-16.406 5.4023-30.809 15.273-46.16 22.984-23.844 12.719-51.418 18.742-78.391 16.512-20.219-1.5625-39.402-12.168-51.664-28.289-4.8789-6.5898-8.8711-14.062-10.254-22.215-0.80859-5.5938 1.5664-12.066 6.9023-14.57 4.3047-2.0352 10.484-0.91016 12.781 3.5898 1.3828 3.2852-0.23438 6.7812-1.3438 9.8984 4.7891 14.152 16.957 24.703 30.574 30.129 18.73 6.4844 39.09 3.7695 57.848-1.1992 23.23-6.2344 42.602-21.223 64.422-30.703 13.945-6.0664 29.27-8.8047 44.453-7.4336-6.3398-29.531-4.6172-63.105 14.059-88.059 12.965-18.156 31.281-32.973 52.789-39.559 19.305-6.7188 40.277-6.3555 60.246-3.3281 26.18 4.1484 51.418 13.84 73.539 28.461 30.965-27.965 69.027-46.59 99.707-74.922 6.168-5.3594 11.254-11.766 16.969-17.582-3.3789-5.4922-7.0586-10.773-10.254-16.371-8.7109-16.344-12.781-34.918-12.836-53.387 0.18359-15.52 1.5-31.148 5.4297-46.211 3.9102-14.102 11.777-27.797 24.336-35.832m-8.0469 46.773c-3.168 16.734-5.0859 34.059-2.1641 50.977 1.7617 13.824 7.4609 26.828 15.066 38.41 4.2617-6.8203 8.582-13.734 10.953-21.496 7.3594-20.387 6.5898-42.652 2.8438-63.703-1.918-11.414-5.4258-23.219-13.812-31.617-7.1094 7.5-11.059 17.387-12.887 27.43m-137.49 249.77c-9.4141 15.914-17.27 33.25-19.277 51.824-3.2852 21.887 0.17188 44.777 9.9648 64.641 9.0391 18.941 24.629 34.07 42.117 45.312 11.27 6.8359 23.883 11.793 37.098 12.969 6.3906 0.28516 12.898-0.92969 18.469-4.2031 15.262-7.668 25.891-22.824 29.961-39.207 5.3867-19.137 2.582-39.445-2.2695-58.383-7.8281-23.816-23.559-44.113-41.387-61.371-15.758-14.895-32.766-28.445-50.504-40.914-9.3672 8.6055-17.113 18.793-24.172 29.332m208.38 31.059c-12.141 15.09-22.188 32.477-25.785 51.703-4.5 20.258-4.5273 42.391 4.6953 61.371 5.9727 13.238 17.465 23.738 30.914 29.047 9.9258 3.207 20.488 0.92578 30.156-2.0742 21.809-7.4336 40.148-22.84 53.961-41.008 19.395-27.809 23.906-64.645 13.824-96.797-7.2266-23.973-21.559-45.43-39.457-62.766-24.559 17.973-49.043 36.73-68.309 60.523m-359.2 45.062c3.8867 6.5742 7.3555 13.461 12.406 19.254 5.6836 6.6133 11.387 13.645 19.367 17.609-0.49609-3.1172-1.1484-6.2734-2.8047-9-6.9531-11.688-17.309-21.016-28.969-27.863m573.84 27.395c-1.8672 2.8281-2.5039 6.207-2.9609 9.5195 14.059-8.4258 23.844-22.355 31.344-36.625-11.453 6.5859-21.484 15.797-28.383 27.105z"/>
</svg>
