<?xml version="1.0" encoding="UTF-8"?>
<svg width="1200pt" height="1200pt" version="1.1" viewBox="0 0 1200 1200" xmlns="http://www.w3.org/2000/svg">
 <path d="m593.68 319.77c4.9023-2.5039 10.105-7.5664 15.977-4.6445 13.801 7.4883 27.719 15.156 39.508 25.645 14.492 12.82 24.406 29.922 32.285 47.375 8.8281 19.473 10.773 41.988 5.2148 62.66-6.0234 19.828-17.047 38.102-31.617 52.828-9.7969 10.969-21.508 19.969-33.234 28.746 20.465 13.254 41.102 26.414 59.91 42 4.5625 3.7305 8.75 7.9297 12.82 12.207 23.934-13.355 49.668-23.789 76.551-29.426 22.828-4.7188 47.387-5.543 69.434 3.0391 15.73 7.0586 29.867 18.691 38.031 34.07 4.6602 8.8711 7.4102 18.73 8.0117 28.75 20.699-3.875 42.832-4.6172 62.699 3.3516 15.641 5.6992 29.191 15.625 42.574 25.289 11.27 7.75 24.613 13.527 38.555 12.941 12.926-0.27344 25.32-4.9062 36.551-11.074 8.6602-4.8008 16.969-11.27 21.297-20.426 6.0273-12.551 8.1289-27.902 2.0898-40.852-2.9102-5.8047-6.5352-11.715-12.316-15.039-6.0781-3.6797-14.242-4.7617-20.527-0.94141-5.5703 2.9492-7.8281 9.3516-9.5117 15.039-3.3516 11.164 2.9883 24.848 14.309 28.461 2.8047-3.418 5.8438-8.4375 10.996-7.7734 4.3711 0.95312 7.293 5.7539 6.7969 10.121 0.35156 5.1641-2.9102 9.9648-7.1719 12.613-6.082 3.8203-14.035 3.625-20.469 0.78125-11.074-4.5508-18.586-15.18-22.066-26.32-3.4336-13.16-0.41797-27.43 6.9648-38.711 4.7852-7.0469 12.379-11.949 20.582-14.023 10.605-2.1016 22.199-0.19531 31.148 6.0391 10.328 6.9258 17.113 18.145 20.867 29.805 4.8789 18.77 1.4102 39.535-9.2188 55.762-9.2227 13.434-23.82 22.004-38.637 28.016-14.754 6.4297-31.434 8.125-47.258 5.543-13.383-3.0391-26.059-9.0781-36.977-17.371-13.723-10.227-28.371-20.102-45.328-23.883-14.895-3.6797-30.414-1.918-45.195 1.3438-0.15625 21.691-6.4297 43.328-18.352 61.473-10.094 15.234-21.809 29.789-36.809 40.473-13.383 8.7539-29.961 12.184-45.754 10.109-8.3633-1.1211-15.262-7.5781-18-15.391-4.4492-11.102-1.2656-23.543 4.1328-33.703 7.1211-13.125 17.336-24.316 28.16-34.488 19.773-18.105 43.316-31.812 68.18-41.66-0.67969-11.465-3.6914-23.09-10.762-32.348-8.543-10.684-20.398-19.098-33.926-21.926-20.648-5.0234-42.129-1.5273-62.297 3.9883-19.016 4.9336-36.938 13.215-54.469 21.953 14.426 17.219 25.578 37.277 31.316 59.062 5.1289 17.543 5.7422 35.984 5.2578 54.141-0.027344 15.105-4.4336 29.883-10.59 43.566-7.8672 16.762-22.047 29.543-37.227 39.641-27.195 16.344-59.246 24.77-90.992 22.879-30.352 1.7578-60.859-6.3789-87.184-21.367-13.996-8.582-26.621-19.707-35.672-33.508-5.375-8.8438-8.793-18.73-11.609-28.645-3.7188-12.781-3.1953-26.242-3.0273-39.402 0.32812-34.973 13.477-69.797 36.602-96.066-27.156-14.543-56.715-25.527-87.547-28.422-16.789-0.91406-34.934 0.85938-49.031 10.852-9.4297 6.3398-17.207 15.352-21.156 26.102-2.4023 6.2344-3.1562 12.949-3.7188 19.562 32.281 12.652 62.438 32.168 84.664 59.035 9.1172 11.531 18.078 24.941 17.676 40.266 0.45703 11.715-7.75 24.156-19.84 25.852-10.07 1.293-20.453 0.52344-30.129-2.6484-19.125-5.9844-33.117-21.52-44.883-36.988-16.098-20.52-26.113-46.082-25.93-72.34-15.238-3.5078-31.305-5.0859-46.605-1.082-18.613 4.5117-34.07 16.328-49.305 27.34-14.598 9.6367-32.062 16.027-49.773 14.621-14.688-0.3125-28.734-5.543-41.559-12.367-12.949-6.8203-24.898-16.93-30.859-30.586-6.6797-14.297-8.6758-30.82-4.9062-46.176 4.1367-14.254 13.266-27.949 27.066-34.328 10.75-4.6562 23.871-5.1797 34.238 0.79688 10.656 5.6211 16.5 17.176 19.203 28.473 1.7344 10.055 0.89844 20.988-4.5156 29.883-4.9805 9.457-13.891 17.27-24.637 19.082-7.2031 1.0938-15.355-1.5-19.203-7.9961-3.3906-5.4375-2.7266-14.438 3.8086-17.203 5.5039-1.6172 9.1719 3.8984 12.117 7.5781 11.598-3.8633 17.598-17.961 14.062-29.297-1.8516-6.6523-5.6875-13.734-12.77-15.797-10.121-3.0781-21.066 2.9102-26.23 11.676-10.199 14.895-8.1016 35.164 0.76953 50.152 4.8281 7.707 12.391 13.188 20.297 17.426 13.109 7.3047 28.199 11.949 43.316 10.355 13.449-1.6016 25.629-8.3711 36.246-16.445 15.078-11.246 31.617-21.262 50.141-25.449 16.355-3.5742 33.367-2.4648 49.707 0.58594 1.2031-18.77 10.047-36.938 24.523-49.043 16.07-14.949 38.531-20.766 60.051-20.258 38.074 0.74609 74.586 14.883 107.65 32.898 20.883-22.07 47.543-37.41 72.586-54.223-19.902-14.727-39.141-31.395-51.898-52.918-5.6992-8.8438-9.6641-18.691-12.914-28.656-5.6602-21.012-3.4297-43.852 5.582-63.602 5.9766-12.965 13.031-25.539 22.215-36.508 11.125-13.211 25.801-22.773 40.867-30.926m-26.703 42.496c-9.0625 11.086-16.082 23.754-21.547 36.977-3.7695 10.41-6.207 21.551-5.2031 32.676 1.3672 16.84 8.9219 32.582 18.625 46.172 12.703 17.375 29.91 30.602 46.867 43.543 16.5-12.145 32.84-24.969 45.43-41.297 11.309-15.211 20.113-33.211 20.555-52.477 0.054687-14.684-4.6055-29.02-11.609-41.816-5.5664-10.512-11.844-20.906-20.504-29.176-9.7305-9.6797-21.938-16.148-33.664-23.023-13.984 7.9062-28.488 15.898-38.949 28.422m-33.52 233.61c27.352 16.746 52.188 37.684 72.441 62.594 20.035-25.094 45.145-45.676 72.25-62.699-21.668-20.504-47.832-35.18-72.094-52.238-24.691 16.723-50.777 31.812-72.598 52.344m-12.824 13.484c-9.832 11.113-18.285 23.508-23.961 37.281-9.8711 22.512-12.441 47.621-10.562 71.961 1.4727 12.52 5.4648 24.781 11.477 35.855 15.027 23.152 41.152 35.961 67.02 43.07-2.832-6.4297-5.4648-13.07-6.2617-20.102-3.457-25.016 3.1055-50.516 14.543-72.73 6.2461-11.176 13.551-21.742 21.312-31.918-5.9883-7.1602-12.262-14.086-18.77-20.777-16.16-16.723-35.074-30.441-54.797-42.641m140.68 20.441c-16.41 12.391-30.758 27.273-43.812 43.109 4.4336 5.1133 7.7617 11.035 11.738 16.484 12.039 16.695 20.125 36.223 23.543 56.52 2.6211 17.176 2.2305 35.504-5.4766 51.43 21.781-5.8555 43.355-15.691 58.773-32.609 11.648-12.012 16.84-28.684 19.383-44.855 1.5781-18.613 0.61328-37.629-4.3438-55.707-5.3867-20.375-16.148-39.027-29.988-54.812-10.188 6.4336-20.348 12.98-29.816 20.441m-318.59 18.43c1.0938 7.75 2.1914 15.574 4.7852 22.996 4.0195 12.234 10.891 23.281 18.652 33.484 7.6562 9.5703 15.809 19.211 26.52 25.484 9.5195 4.9062 20.633 7.2148 31.262 5.3867 1.7227-2.6719 3.6797-5.5938 3.2227-8.9336-1.3281-12.027-9.1953-21.887-16.723-30.82-18.246-21.145-42.391-36.328-67.719-47.598m449.57 59.281c-3.9102 5.6758-7.082 12.145-7.7461 19.07-0.10547 3.7305 1.3711 9.1328 5.9102 9.3125 9.4141 1.293 19.121-1.1992 27.625-5.2305 10.617-5.8828 18.797-15.18 26.336-24.508 6.1172-8.0469 12-16.395 16.145-25.656 4.75-10.082 7.0977-21.117 8.2695-32.141-29.723 13.031-58.043 31.996-76.539 59.152m-186.43-19.969c-10.07 13.75-19.656 28.254-24.754 44.66-4.8672 15.395-7.6172 32.129-3.5508 48.039 1.6328 5.5312 3.7461 11.508 8.7539 14.91 11.191 7.707 27.105 7.8125 38.465 0.37891 5.543-3.5469 7.957-10.02 9.6016-16.07 4.1836-18.363 0.17969-37.566-6.5508-54.809-5.1758-13.539-13.852-25.238-21.965-37.109z"/>
</svg>
