<?xml version="1.0" encoding="UTF-8"?>
<svg width="1200pt" height="1200pt" version="1.1" viewBox="0 0 1200 1200" xmlns="http://www.w3.org/2000/svg">
 <path d="m426.13 345.41c11.324-5.7031 25.734-2.0508 34.684 6.4297 8.832 7.8516 12.469 19.68 14.324 30.988 3.5078 23.664-3.6406 47.113-11.52 69.172 12.875 14.988 25.879 29.867 39.641 44.074 10.434-21.078 21.469-42.25 37.277-59.871 16.668-19.395 37.25-34.957 53.949-54.312 2.1523-1.957 5.3594-2.0078 8.0586-1.4336 3.5352 1.0703 5.2305 4.6562 7.6719 7.1484 15.781 16.852 34.004 31.305 49.121 48.82 15.559 17.699 26.895 38.582 36.965 59.754 13.695-14.219 26.738-29.035 39.559-44.023-7.3945-22.098-14.973-45.301-11.41-68.895 1.668-11.219 5.1641-22.918 13.758-30.824 8.7148-8.7656 22.973-12.637 34.488-7.4336 8.7656 4.1211 13.801 13.371 15.457 22.59 2.0352 12.98 1.1875 26.531-3.2344 38.949-5.9609 18.078-16.801 34.098-28.41 49.004 10.215 28.332 24.418 54.953 37.801 81.848 14.805 30.641 32.047 60.273 43.031 92.609 16.25-19.734 31.785-40.055 46.133-61.215-13.121-17.137-21.547-38.309-21.023-60.078-0.51172-12.09 3.3633-23.777 7.9141-34.812 4.6211-9.457 11.219-18.926 21.496-22.734 8.9219-2.7109 19.359-2.0742 27.039 3.6016 7.0078 5.2695 10.02 14.059 11.414 22.395 3.1328 20.543-2.7656 40.93-9.7188 60.066-3.7695 10.617-8.7617 20.727-14.645 30.324 14.309 15.117 31.266 27.34 46.277 41.727 14.621-14.059 31.5-27.156 51.52-32.18 12.809-2.2695 26.883-2.0586 38.469 4.543 6.0898 3.4141 10.59 8.9062 14.465 14.594 20.727-9.457 44.699-14.531 67.145-8.5703 13.5 3.1562 26.547 8.1523 38.637 14.961 3.1953-0.84766 6.9258-1.8906 9.8984 0.21094 7.0977 4.3047 5.7812 17.086-2.4648 19.25-6.9375 1.8398-13.629-1.7344-19.512-4.9805-13.617-7.5273-28.84-12.145-44.281-13.855-14.625 0.11719-29.309 3.5508-42.457 10.008 1.7188 11.762-1.1484 24.18-8.2852 33.742-3.9102 5.3594-10.328 9.3789-17.152 8.8047-4.4219-0.37891-9.2852-2.125-11.582-6.1953-2.8828-4.6836-3.7695-10.422-2.6211-15.785 2.1133-10.914 8.8164-20.543 17.281-27.559-2.7617-3.7461-5.5156-7.9297-10.043-9.6797-10.445-4.2383-22.602-3.1562-32.699 1.5547-12.836 5.9062-23.949 14.918-34.004 24.715 11.438 12.926 18.535 31.059 14.203 48.301-3.6641 13.863-16.773 26.453-31.852 25.082-13.566-0.12891-25.367-12.312-25.695-25.762-0.64062-8.0352 2.1523-15.73 5.1914-23.02 3.625-8.5312 8.6094-16.422 14.047-23.91-14.281-14.219-30.664-26.113-44.961-40.328-15.508 23.684-33.469 45.637-51.547 67.379 7.293 25.422 10.332 52.07 9.25 78.484-1.8281 24.195-10.266 48.223-25.477 67.293-10.211 12.887-22.812 24.012-37.199 31.992-8.5938 5.0117-18.992 6.8359-28.723 4.7227-11.242-4.1602-20.215-13.656-24.223-24.898-4.3164-11.141-3.7422-23.766 0.26172-34.891 7.1602-21.98 19.254-41.922 31.918-61.098 16.238-23.387 35.375-44.555 54.039-66-5.7773-16.723-12.117-33.273-20.113-49.082-13.316-27.051-27.117-53.844-40.434-80.895-7.2383-14.621-14.297-29.375-20.219-44.598-12.156 15.055-25.773 28.852-38.961 43.004 7.9297 21.301 9.5234 44.48 7.2656 66.965-2.4922 21.852-11.309 43.84-28.121 58.555-9.9766 9.2617-24.574 12.352-37.746 9.9375-9.5352-1.9023-19.32-6.3242-24.34-15.078-6.3789-9.4688-6.5234-21.652-3.5352-32.32 3.8086-13.332 11.336-25.137 18.836-36.641 13.16-20.293 29.777-38.008 46.367-55.5-11.152-24.023-23.492-48.117-42.051-67.355-12.902-14.141-27.824-26.219-40.945-40.121-17.32 18.262-37.551 33.809-52.746 54.051-12.184 16.516-21.668 34.84-30.145 53.465 18.25 19.07 36.195 38.715 50.113 61.254 8.6602 13.98 17.805 29.297 16.734 46.383 0.039063 9.9648-5.4531 19.344-13.16 25.367-11.438 7.3594-26.191 9.2734-39.145 5.1406-8.8555-2.4375-15.977-8.6992-21.926-15.445-9.4414-11.387-16.07-25.094-19.16-39.559-3.1953-13.75-3.2344-27.98-2.5586-42 0.64062-12.691 3.4453-25.215 7.8008-37.137-13.316-14.02-26.672-28.027-39.039-42.91-10.316 26.633-23.984 51.781-36.547 77.387-15.719 31.918-33.469 63.129-44.074 97.25 18.184 21.133 37.137 41.727 53.023 64.695 13.277 19.438 25.512 39.941 32.789 62.453 4.1758 11.191 4.6328 24 0.19531 35.191-4.082 11.008-12.965 20.258-24.012 24.379-9.6641 2.1914-20.062 0.36328-28.629-4.5508-22.41-12.496-40.75-32.219-51.73-55.383-5.6484-13.645-10.086-27.992-11.09-42.797-1.1484-26.895 1.8125-54 9.2109-79.906-18.367-21.492-35.832-43.785-51.797-67.133-14.047 14.309-30.324 26.152-44.738 40.055 7.5 10.344 13.84 21.629 17.688 33.848 2.125 6.9023 2.3984 14.52-0.14453 21.355-3.418 10.422-14.008 17.973-25.004 17.75-17.754 0.86328-31.945-16.746-31.945-33.625-1.0938-14.832 5.9375-28.867 15.301-39.914-10.289-9.8359-21.535-19.07-34.656-24.859-9.5352-4.4102-20.844-5.2695-30.809-1.8281-5.0742 1.6055-8.375 6-11.398 10.082 8.8828 7.3047 15.809 17.508 17.66 29.012 1.082 6.0391-0.69141 12.664-4.9297 17.137-6.8086 5.4414-17.27 4.3828-23.336-1.6953-9.7422-9.5078-13.395-24.039-11.57-37.289-11.492-5.8047-24.207-8.7656-36.965-9.9531-8.6094-0.75781-17.047 1.6836-25.293 3.8203-9.9766 2.6484-19.512 6.7852-28.406 12.016-5.793 3.0234-14.008 5.5664-19.488 0.625-5.2422-4.4219-4.1484-13.449 1.5-16.996 3.0117-2.1523 6.7305-0.57422 10.07-0.5625 2.5039-0.78125 4.7461-2.1758 7.0703-3.3789 7.0312-3.9102 14.738-6.3125 22.344-8.8164 10.445-2.9609 21.246-5.6719 32.203-4.9297 15.145 0.89844 30.234 4.5 43.891 11.203 4.7891-7.5391 11.441-14.254 20.008-17.293 9.5508-3.8359 20.168-3.6289 30.211-2.4531 10.488 1.8125 20.191 6.6641 29.125 12.312 8.8945 6.1055 17.598 12.602 25.031 20.477 14.973-14.516 32.203-26.566 46.332-41.945-10.254-16.121-16.711-34.316-21.652-52.672-4.4102-16.812-5.8203-35.645 1.7852-51.754 7.5781-15.223 30.273-17.598 42.496-6.8086 11.242 9.8594 16.656 24.535 19.746 38.789 4.6719 26.051-3.9375 53.113-19.836 73.852 14.332 21.145 29.945 41.363 46.016 61.203 8.1914-24.078 20.023-46.684 31.434-69.352 16.906-34.855 36.223-68.688 49.488-105.18-12.129-15.234-23.086-31.906-28.93-50.637-3.9648-11.492-4.4492-23.961-2.9102-35.945 1.2656-9.4336 6.2109-18.926 14.855-23.504m5.8594 18.688c-3.668 7.1094-3.9531 15.535-2.9883 23.336 2.1641 17.688 11.715 33.184 21.363 47.727 4.0977-15.887 9.5352-32.23 6.7734-48.848-1.3711-8.2422-3.457-17.57-10.75-22.656-4.1484-2.793-11.203-4.5898-14.398 0.44141m318 2.4805c-5.1523 5.6094-6.3945 13.449-7.6328 20.672-2.6484 16.398 3.1562 32.391 6.8242 48.117 11.215-17.031 22.629-35.84 21.859-57.012-0.70312-5.9219-0.67969-13.957-6.8086-17.047-5.2422-1.3555-10.773 1.4102-14.242 5.2695m-460.36 105.74c-3.832 9.6133-3.7148 20.426-1.5625 30.43 3.6641 17.035 9.2188 33.797 17.688 49.07 8.543-13.188 13.445-28.785 13.445-44.516-0.83594-9.7578-3.3008-19.516-7.918-28.176-2.5156-4.1719-5.2539-8.9062-10.043-10.719-4.043-1.2656-9.9258-0.61328-11.609 3.9102m604.29-1.1094c-7.9961 8.7422-11.242 20.676-13.148 32.09-1.4492 17.137 3.7695 34.523 13.305 48.754 4.8125-10.066 9.5234-20.23 12.73-30.938 4.4883-15.328 9.3125-31.984 3.6797-47.688-1.8945-7.082-12.34-7.082-16.566-2.2188m-385.8 117.86c2.7148 13.406 9.1172 26.254 18.797 36 8.2969 8.6875 22.59 9.8086 32.688 3.7031 4.8242-3.457 6.7812-9.8477 5.9336-15.574-1.4336-10.902-7.2539-20.492-12.914-29.66-11.883-19.645-26.922-37.121-42.793-53.609-5.0352 19.227-5.9609 39.664-1.7109 59.141m142.08-10.617c-6.8477 11.152-14.828 22.445-16.199 35.844-0.84766 6.4023 2.5703 13.578 8.8047 15.938 9.0664 3.9922 20.598 3.0781 28.137-3.6641 8.0078-6.7969 13.355-16.215 17.242-25.84 7.9414-22.852 7.4727-47.934 1.5781-71.203-14.102 15.535-28.395 31.066-39.562 48.926m-412.45 82.969c0.28516 7.3438 5.0078 15.758 12.898 16.746 6.2344 0.60156 10.461-5.9062 9.5078-11.594-1.8398-10.668-7.8125-20.008-13.383-29.086-5.2031 6.8477-9.1406 15.195-9.0234 23.934m702.31 1.8633c-1.082 3.7461-1.0977 8.1289 1.3438 11.375 2.3594 3.5234 7.4453 4.3945 11.098 2.4531 6.3125-3.0273 9.5508-10.395 9.4062-17.152-0.52344-8.375-4.4102-16.004-8.9727-22.879-4.9453 8.375-10.164 16.773-12.875 26.203m-569.84 4.4375c-3.7969 16.289-5.5703 33.012-6.0117 49.723-0.39453 16.59 3.5977 33.062 10.105 48.246 9.6289 19.957 25.539 37.016 45.184 47.375 4.6719 2.1758 10.684 4.4336 15.379 1.1602 9.9258-6.1562 14.191-19.355 10.863-30.391-6.168-22.242-18.391-42.133-31.016-61.227-13.395-19.41-28.957-37.188-44.504-54.887m417.52 50.828c-12.414 17.91-23.973 36.707-31.473 57.262-2.1133 6.6133-4.668 13.594-3.0273 20.609 1.3711 7.9297 6.1445 15.887 13.855 18.977 5.1133 1.4219 10.422-0.9375 14.906-3.3125 12.785-7.1484 23.922-17.164 32.648-28.902 13.828-17.898 20.164-40.723 20.793-63.094-0.14453-17.699-2.3242-35.371-6.0273-52.668-14.242 16.734-28.984 33.129-41.676 51.129z"/>
</svg>
