<?xml version="1.0" encoding="UTF-8"?>
<svg width="1200pt" height="1200pt" version="1.1" viewBox="0 0 1200 1200" xmlns="http://www.w3.org/2000/svg">
 <path d="m686.76 209.72c17.344 111.8-22.406 107.2-73.5 189.79l-0.32812 0.14062c-0.09375-23.062-1.0781-46.828-2.2969-69.938-0.14062-3.8906-0.28125-8.0625 1.0781-11.766 21.234-38.156 43.734-77.062 75.047-108.19zm-69.188-123.47c30.609 58.922 57.188 125.58 9.9844 183.61-5.7188 9.5625-11.672 19.031-17.812 28.359-0.60938-60.75 0.9375-166.22-0.32812-225.66 3.375 3.2812 5.9531 9.4688 8.1562 13.688zm-62.906 99.281c3.2344-36.422 25.875-81.75 43.266-113.58-1.0312 57.469 0.046875 165.79-0.70312 224.68-21.516-33.797-47.672-68.672-42.609-111.09zm-216.37 728.95c-8.7656-7.8281-17.812-15.562-26.25-23.766 37.5 17.906 78.281 28.875 118.22 40.547 63.844 20.906 107.25 49.641 154.03 97.172l-0.09375 17.391c-39.281-26.719-85.031-40.5-129-57.328-49.172-19.359-77.859-39.047-116.91-73.969zm245.72 172.6c-86.391-21.375-163.26-67.828-220.82-136.03 19.312 13.828 39.703 27.516 61.828 37.219 52.641 25.125 112.64 36.234 159.28 73.031l-0.32812 25.781zm0.28125-75.703c-18.422-17.672-38.203-36.141-60.656-49.312-25.969-16.031-54.047-28.266-81.188-42.188-60.328-30.141-111.47-76.734-145.87-134.76 4.1719 1.6875 13.172 9.9844 17.531 13.125 34.172 25.219 74.531 40.078 113.02 56.812 54.328 40.547 114.56 79.266 157.18 133.08 0.09375 7.7812 0 15.516-0.046875 23.297zm0.046875-43.172h-0.46875c-35.859-40.219-81.375-69.75-123.61-102.61-69.375-53.297-123.61-117.7-158.95-198.37 11.859 10.594 24.562 25.266 37.781 35.016 27.75 22.828 59.766 39.188 90.75 56.906 64.922 37.172 112.31 70.219 155.06 132.42 0.14062 25.547-0.046875 51.094-0.60938 76.641zm0.84375-96.891-0.28125 0.09375c-2.7656-1.4062-6.2812-7.7344-8.25-10.359-12.281-16.406-26.859-31.078-42.328-44.531-25.5-22.219-54.562-39.047-81.797-58.875-65.719-47.859-106.08-110.06-136.03-184.69 4.0312 2.5312 13.312 15.703 17.625 20.391 29.25 33.469 66.891 57.703 105.89 78.234 57.469 26.906 110.86 64.594 145.92 118.45-0.046875 27.047-0.046875 54.188-0.79688 81.234zm1.3594-101.34-0.46875 0.46875c-28.078-39.094-68.062-66.609-106.08-95.25-67.734-54.094-99.188-101.58-129.32-182.34 38.672 37.547 85.734 64.641 130.82 93.844 40.219 27.797 73.922 60.141 106.22 96.656 0.09375 28.922-0.89062 57.797-1.1719 86.672zm1.5938-105.47-0.23438 0.42188h-0.70312c-30.141-34.922-67.547-62.156-103.08-91.125-47.906-42.703-67.781-96.328-81.516-157.5 27 26.438 58.453 46.875 87.703 70.594 37.172 30.141 69.938 66.984 99.094 104.77 0 24.281-1.0312 48.562-1.2656 72.844zm2.0625-91.969-0.28125 0.23438c-1.0312-0.23438-1.4531-1.2188-2.0625-2.0625l-0.75 0.46875c0.375-1.9219-22.078-26.812-25.219-30.234-63.141-65.578-106.78-105.23-122.53-199.82 56.344 50.391 110.16 106.27 151.64 169.87 0.09375 20.484-0.5625 41.016-0.79687 61.5zm1.875-83.109-0.65625 1.7812c-21.656-30.422-46.125-58.734-70.5-87-32.109-40.406-34.078-74.016-38.672-122.95 41.297 43.172 81.609 90.469 112.36 142.08-0.28125 21.984-1.6875 44.109-2.4844 66.047zm1.875-88.688c-53.25-85.406-91.594-76.359-73.781-191.58 32.953 31.219 53.953 71.906 77.016 110.39-0.75 27.047-2.6719 54.141-3.2344 81.188zm17.812 736.78c0.375 5.9062-0.9375 12.469-7.9219 13.172-2.0625-0.375-4.6406-1.0781-6.0469-2.7656-1.9688-2.3438-1.9219-6-2.0156-8.9062-0.70312-16.594-0.046875-33.516-0.046875-50.109-0.46875-223.55 6.0469-472.31 8.1094-696.42 1.9688 239.81 7.5469 506.06 7.9688 745.03zm3.2344-647.06c0.09375-0.046875 0.1875-0.14062 0.28125-0.1875v-0.09375l-0.51562 0.46875-0.375-0.14062c-0.1875-22.172-2.1094-44.344-2.25-66.516 28.406-53.344 70.312-96.75 111-140.81-1.1719 44.766-9.2344 86.438-38.672 122.11-25.359 29.016-47.203 53.016-69.188 84.984l0.09375 0.75-0.42188-0.51562zm1.5469 86.203c-0.046875-21.938-0.79688-43.875-1.125-65.766 39.703-65.484 96.703-116.72 151.55-169.03l0.42188 0.65625c-9.375 62.25-40.969 113.16-84.422 157.5-23.906 24.094-47.25 48.609-66.469 76.688zm1.0781 57.516c-0.09375-12.375-0.51562-24.703-0.46875-37.078 30.656-51.422 74.906-93.375 122.44-129.1 21.281-16.125 43.641-31.031 63.562-48.938-9.8906 62.484-41.391 125.16-91.734 165.28-32.906 25.031-66.609 49.125-93.422 81-0.65625-10.359-0.32812-20.812-0.42188-31.172zm0.98438 49.969c43.594-61.172 116.02-99.094 175.97-142.13 21.281-14.672 43.594-29.156 60.984-48.516 0.60938 3.6562-12.75 32.578-15.281 38.016-28.219 64.734-70.781 112.64-126.74 155.29-34.594 24.516-70.734 49.734-94.078 85.969 0.51562-29.531-0.9375-59.156-0.84375-88.688zm2.2031 160.08c-0.28125-17.672-0.42188-35.297-0.375-52.969 63.375-105 193.18-117.89 266.16-213.1 0.32813 5.625-15 34.641-18.188 40.781-28.266 54.375-59.484 96.891-108.42 134.63-17.203 13.266-35.719 24.422-53.578 36.703-36.094 24.891-58.781 47.766-85.219 82.641-0.46875-9.5156-0.23437-19.172-0.32812-28.734zm0.65625 48.891c65.766-109.03 196.6-136.03 282.19-223.97-36.469 93.656-103.73 157.18-183.05 216-35.578 27-67.688 51-98.062 84.328-1.5-4.9219-0.46875-15.984-0.51563-21.75l-0.51562-54.562zm0.9375 96.703c25.312-38.812 73.172-71.297 109.69-99.422 14.672-10.875 28.688-22.922 44.25-32.531 46.031-22.359 94.688-41.766 134.86-74.203 0.60938 4.125-13.5 23.344-16.781 28.031-27.938 38.062-63.609 70.406-104.2 94.453-24.75 14.719-51.188 26.062-76.828 38.953-36.188 18.281-62.438 37.5-90.797 66.328-1.0312-6.75-0.1875-14.812-0.14062-21.656zm177.14 6.9375c-51.656 45.797-110.3 70.875-175.55 90.562-1.6406-2.0625-0.89062-21.844-0.89062-25.828 33-30.047 91.688-46.5 133.22-62.812 27.375-10.781 53.438-22.828 78.516-38.297l0.09375 0.09375v0.65625c-11.438 12.234-22.875 24.516-35.391 35.625zm84.656-98.719c-18.047 19.781-41.062 41.812-63.797 57.047-61.641 38.531-136.97 48.844-196.97 90.422-1.7344-2.0625-0.70312-13.547-0.65625-16.688 43.453-51.141 106.78-84.328 170.68-102.89 30.188-8.9531 61.219-16.359 90.469-28.172z"/>
</svg>
