<?xml version="1.0" encoding="UTF-8"?>
<svg width="1200pt" height="1200pt" version="1.1" viewBox="0 0 1200 1200" xmlns="http://www.w3.org/2000/svg">
 <path d="m441.46 107.21c-12.281-3.6523-23.195-10.289-35.023-15.051-12.07-4.8594-24.777-6.0625-37.516-3.3125-12.047 2.6016-23.355 8.4805-33.547 15.266-10.246 6.8242-19.977 14.66-29.109 22.906-8.8984 8.0312-17.312 17.234-22.559 28.117-5.1836 10.758-7.4688 22.492-7.3867 34.406 0.16406 23.777 8.1953 46.617 12.176 69.855 1.8984 11.074 2.7188 22.477 1.1602 33.645-1.6719 11.977-5.4766 23.586-9.3008 35.016-3.8984 11.648-8.0078 23.285-10.469 35.344-2.5898 12.676-3.0742 25.297-1.2109 38.102 3.5664 24.539 15.535 47.277 29.465 67.461 13.637 19.758 29.379 39.664 51.086 50.945 22.547 11.715 48.762 12.238 73.578 10.758 12.613-0.75391 25.188-2.0664 37.812-2.6953 13.211-0.65625 26.496-0.66797 39.715-0.18359 26.781 0.98438 51.52 4.4414 77.691 10.84 12.695 3.1055 25.195 6.8906 37.523 11.227 0.16016 0.058593 0.32422 0.10547 0.48828 0.14844 11.59 24.68 20.969 50.371 28.266 76.695 11.031 39.789 17.477 80.824 20.262 121.99 2.5117 37.145 1.918 74.367-0.83203 111.46l-3.2578 35.305c-3.5039 31.758-8.4922 63.332-14.426 94.727-3.543-10.777-8.1406-21.273-13.555-31.207-12.906-23.68-30.965-44.191-50.34-62.777-0.082032-0.078125-0.16406-0.15625-0.24609-0.23438-0.92578-1.375-2.0547-2.4141-3.3086-3.1367-1.2773-1.1992-2.5586-2.3945-3.8477-3.582-10.547-31.254-2.7617-66.316 3.7773-97.652 6.75-32.344 12.562-68.352 0.1875-100.14-6.2422-16.031-16.742-29.371-30.754-39.328-13.352-9.4883-29.211-15.328-45.035-19.152-17.328-4.1875-35.727-7.0117-53.57-6.9141-9.8008 0.054687-19.824 1.2305-29.133 4.3984-8.7617 2.9844-16.758 7.6523-25.023 11.73-7.2109 3.5586-14.66 6.0664-22.469 6.3555-7.8398 0.28906-15.391-0.80859-23.02-2.1836-15.824-2.8477-32.383-7.0781-48.406-3.1758-36.828 8.9688-39.418 53.457-41.43 84.219-2.5391 38.832-0.21094 78.965 13.898 115.6 12.477 32.395 32.805 62.125 62.602 80.797 29.938 18.758 66.328 25.949 101.32 24.672 39.121-1.4297 77.016-12.914 113.09-27.453 8.4648-3.4102 16.859-6.9961 25.211-10.672 6.3164 6.5195 12.43 13.234 18.211 20.25 15.684 19.035 29.266 41.008 35.219 64.992 3.4688 13.965 3.2461 27.129 5.7109 41.977 0.125 0.75 0.41797 1.4453 0.82031 2.0859-8.1211 37.332-17.25 74.426-26.59 111.48-1.4141 5.6016-2.7695 11.18-3.9102 16.84-0.87109 4.3203 1.2422 8.8242 5.707 10.051 4.3281 1.1875 8.8047-1.457 10.051-5.707 6.5938-22.484 11.34-45.648 16.633-68.469 5.3594-23.098 10.668-46.211 15.531-69.418 9.6719-46.152 17.75-92.676 22.75-139.58 0.89453-8.3711 1.6758-16.758 2.3438-25.148 3.8555-13.867 8.0469-27.621 13.816-40.863 9.0742-20.836 21.582-39.543 32.75-59.246 11.746-20.723 19.328-42.848 24.238-66.102 5.0586-23.969 8.5078-48.281 10.688-72.672 2.0352-22.77 2.6367-45.609 2.3125-68.457 29.402 16.41 61.133 29.086 93.738 37.043 21.516 5.25 43.652 7.6758 65.648 4.293 16.859-2.5938 33.184-9.2734 47.469-18.527 30.508-19.766 52.215-50.145 64.629-83.996 7.0586-19.246 10.961-39.473 13.031-59.828 2.0156-19.84 2.4023-40.148 0.85938-60.039-0.85156-11.02-3.4648-21.121-10.668-29.746-5.957-7.1328-14.375-11.996-22.82-15.59-17.809-7.5703-36.746-10.848-55.656-14.391-9.0938-1.7031-18.188-3.5117-27.094-6.0352-4.3984-1.2461-8.7461-2.6875-12.996-4.3711-2.918-1.1523-7.5-3.3438-11.148-5.418-3.6406-2.0703-7.1445-4.3828-10.48-6.9141-0.45703-0.35938-0.91016-0.72656-1.3594-1.0938-0.67969-0.55859-1.3555-1.125-2.0195-1.6992-1.6641-1.4336-3.2852-2.918-4.8672-4.4453-2.9531-2.8594-5.7617-5.8672-8.4375-8.9883-3.0273-3.5312-4.5352-5.4727-6.8789-8.6719-10.035-13.715-18.355-28.57-27.016-43.164-4.4062-7.4258-8.8906-14.812-13.758-21.949-5.4141-7.9414-11.867-16-21.52-18.758-18.785-5.3633-32.074 11.988-38.527 27.125-4.2578 9.9883-7.6797 20.371-11.406 30.566-3.832 10.488-7.6641 20.977-11.496 31.465-7.4844 20.488-15.34 40.883-22.141 61.609-6.7695 20.625-11.941 41.832-13.02 63.586-2.1133 42.605 10.992 84.219 26.68 123.27 0.82031 2.043 1.6484 4.0781 2.4805 6.1133l8.2656 18.152c-0.64453 47.215-6.2656 94.73-15.898 140.92-4.6406 22.258-11.035 43.793-22.125 63.742-10.688 19.227-23.164 37.324-32.637 57.211 0.23047-17.133-0.085937-34.273-1.0312-51.395-2.332-42.145-8.3555-84.137-19.156-124.97-9.9102-37.469-23.828-74.004-42.176-108.17-1.4375-10.566-2.0898-21.18-2.5703-31.852-0.58594-12.969-0.31641-25.961 0.6875-38.902 1.9805-25.477 7.4961-50.41 15.535-74.637 8.2383-24.82 20.629-47.773 31.309-71.562 11.043-24.602 19.312-50.023 21.641-77.016 2.2109-25.613 0.10938-52.113-5.8438-77.113-5.3672-22.535-13.68-46.453-29.309-64.039-7.7148-8.6836-17.59-15.309-28.754-18.645-12.035-3.5977-24.879-3.2148-37.109-0.90625m-0.25391 445.17c-27.203-33.043-59.094-61.793-93.82-86.867-19.316-13.945-39.387-26.836-59.957-38.84-21.512-12.555-43.547-24.176-66.598-33.656-23.371-9.6133-47.789-16.645-72.906-19.387 5.1406-15.664 10.809-31.16 12.926-47.637 3.0234-23.523-3.4023-46.699-8.4922-69.465-1.0898-4.875-2.1641-9.8945-3.0312-14.969 51.824 18.648 99.184 49.34 140.04 85.996 47.426 42.559 86.664 93.707 119.61 148.07 15.812 26.098 30.496 52.895 44.566 79.98-4.0898-1.1406-8.1992-2.2188-12.328-3.2266zm37.316-431.03c19.52 7.2617 30.887 27.68 37.605 46.195 8.4219 23.199 13.262 48.25 12.793 72.977-0.46875 24.684-4.5859 49.555-12.586 72.93-8.3945 24.52-21.141 47.211-31.406 70.941-0.57031 1.3203-1.1328 2.6484-1.6836 3.9766 0.19141-9.5977 0.18359-19.203-0.23828-28.797-0.90234-20.422-2.8633-40.777-5.7617-61.012-2.9141-20.352-7.3047-40.527-12.531-60.406-4.8906-18.609-10.531-37.047-17.879-54.844-8.0859-19.586-18.07-38.055-31.625-54.406 19.699-8.6836 42.391-15.332 63.312-7.5508zm-244.79 12.656c11.875-1.5078 22.629 2.1836 33.238 7.1445 11.477 5.3633 22.793 10.594 35.258 13.242 5.5117 1.1719 11.113 1.9766 16.742 2.3945 0.070312 0.070313 0.13672 0.14453 0.21094 0.21484 32.773 30.391 54.512 70.059 72.535 110.46 9.5586 21.43 18.238 43.262 27.145 64.969 9.7812 23.836 19.223 47.82 27.574 72.199 4.7109 13.754 9.1523 27.602 13.062 41.605 1.2461 4.4648 2.4844 8.9453 3.6953 13.434-3.8281 24.621-4.6836 49.707-2.4258 74.672 0.10938 1.2227 0.23828 2.4492 0.375 3.6719-0.44141-0.21875-0.90234-0.37109-1.3711-0.45312-20.391-56.516-34.703-115.22-59.621-170.07-27.879-61.383-67.242-116.99-111.97-167.2-20.609-23.133-42.949-45.27-68.82-62.434 4.6289-1.8438 9.4297-3.2109 14.371-3.8398zm87.91 408.95c-24.328 2.2188-48.84 7.9297-73.371 6.6055-11.211-0.60547-22.656-2.7539-32.871-7.5586-10.332-4.8594-19.113-12.113-26.906-20.375-7.8867-8.3594-14.766-17.625-21.211-27.121-6.7852-9.9961-12.988-20.438-18.027-31.43-1.8047-3.9375-3.4453-7.9883-4.8633-12.121 5.4609 0.61719 10.93 1.207 16.367 2.0234 9.0703 1.3633 18.102 3.0039 27.07 4.9258 17.758 3.8008 35.285 8.6797 52.457 14.594 34.43 11.855 67.488 27.914 98.121 47.602 10.812 6.9492 21.406 14.203 31.684 21.879-16.184-0.78516-32.391-0.48828-48.457 0.97656zm16.039 132.49c29.125 4.6562 61.43 14.102 78.133 40.395 16.828 26.492 14.09 60.16 9.4102 90.004-5.3398 34.062-14.648 68.891-7.3594 103.36-0.13672-0.12109-0.26953-0.23828-0.40625-0.35938-2.7812-4.7812-5.5391-9.5781-8.25-14.402-8.0469-14.332-15.773-28.84-23.172-43.52-14.68-29.129-37.441-73.773-49.562-104.06-6.0547-15.129-24.348-53.414-32.742-74.309 11.359-0.37891 22.898 1.1172 33.945 2.8828zm-108.59 19.715c17.844 34.938 42.172 73.477 65.488 104.59 14.102 18.82 29.105 36.949 44.898 54.363-12.586-8.7148-25.039-17.613-37.184-26.941-30.512-23.43-59.547-49.953-82.652-80.863-11.664-15.602-25.02-38.105-33.629-56.824 1.0156 0.15234 2.0273 0.3125 3.0312 0.48047 11.254 1.8984 23.957 5.9258 40.051 5.2031zm-98.48 92.449c-0.10937-17.422 0.75-36.035 3.0469-52.91 0.66406 1.5781 1.2148 2.8477 1.4062 3.3711 8.1758 22.23 18.555 43.668 32.664 62.762 14.602 19.754 32.559 36.449 51.695 51.73 36.508 29.148 76.219 55.188 120.12 71.758 10.031 3.7891 20.281 7.0117 30.684 9.6016-0.33984 0.003906-0.67578 0.011719-1.0156 0.011719-10.273 0.046875-20.543-0.61328-30.738-1.8438-20.176-2.4336-40.07-7.2734-59.488-13.172-36.324-11.035-73.23-24.688-102.48-49.645-14.086-12.023-35.684-34.844-44.402-52.789-0.97656-9.6289-1.4375-19.293-1.5-28.871zm603.79-449.66c13.203 12.453 28.832 21 46.102 26.434 11.629 3.6562 23.578 5.9922 35.527 8.3281-27.031 26.316-54.031 52.633-80.594 79.422-27.004 27.234-53.582 54.887-80.348 82.352-1.7344 1.7773-3.4727 3.5469-5.2188 5.3164 6.6758-15.121 12.98-30.414 18.867-45.859 12.754-33.449 23.5-67.68 32.285-102.38 3.9766-15.699 11.844-48.484 16.734-71.512 4.7148 5.75 10.293 11.906 16.648 17.898zm-146.2 131.91c-2.0039-19.836-1.3828-39.766 2.7969-59.285 4.3359-20.25 11.469-39.754 18.688-59.117 7.5117-20.145 15.035-40.281 22.555-60.422 3.7656-10.094 7.5117-20.195 11.285-30.285 0.30469-0.81641 0.61328-1.6367 0.93359-2.4453 0.042969-0.10547 0.26172-0.63281 0.38281-0.93359 0.089843-0.20703 0.19141-0.44141 0.19922-0.45312 0.82812-1.7969 1.6758-3.5859 2.6289-5.3242 0.87891-1.6055 1.8242-3.1797 2.8516-4.6953 0.16016-0.23828 0.76562-1.0781 0.99609-1.4102 0.20312-0.24609 0.5625-0.6875 0.63672-0.76953 0.34766-0.40625 0.70312-0.80078 1.0664-1.1875 0.62891-0.66406 1.3125-1.2617 1.9609-1.9102 0.15234-0.15234 0.24609-0.25391 0.30469-0.32422 0.078125-0.042968 0.17969-0.10156 0.32812-0.19531 0.4375-0.27344 0.89062-0.53906 1.3359-0.8125-4.6367 43.914-13.094 133.33-18.918 170.07-6.2305 39.328-13.824 78.441-22.754 117.25-2.043 8.8789-4.0859 17.758-6.207 26.617-2.9766-8.5781-5.8086-17.207-8.3906-25.918-5.668-19.117-10.668-38.555-12.676-58.438zm298.67-26.082c-0.09375 9.707-0.55078 19.414-1.4844 29.074-0.90234 9.3359-2.1211 17.547-4.1875 27.223-3.875 18.18-9.5898 35.191-18.32 51.09-3.8242 6.9648-8.1641 13.672-12.992 19.984-0.070312 0.074219-1.082 1.3633-1.2852 1.6133-0.5625 0.69922-1.1328 1.3945-1.7109 2.082-1.3438 1.6055-2.7188 3.1875-4.125 4.7383-2.707 2.9844-5.5312 5.8633-8.4688 8.6172-2.9336 2.7539-5.9844 5.375-9.1406 7.875-0.16797 0.125-1.0586 0.8125-1.2773 0.97656-0.71094 0.53125-1.4297 1.0508-2.1523 1.5703-1.8008 1.2852-3.6367 2.5273-5.5 3.7227-3.3438 2.1406-6.7891 4.1328-10.32 5.9453-1.6992 0.87109-3.4141 1.7031-5.1523 2.4961-0.40234 0.18359-0.80469 0.35937-1.2031 0.54297-0.023437 0.011719-0.34375 0.14844-0.57422 0.25-0.21484 0.089844-0.45703 0.19141-0.47656 0.19922-0.68359 0.26953-1.3633 0.54297-2.0469 0.80859-17.234 6.6133-34.469 8.1641-52.836 6.3945-19.055-1.8398-38.945-7.6289-57.461-14.164-13.797-4.8672-26.852-10.383-39.863-16.832 4.5703-0.97656 9.1094-2.0508 13.629-3.2461 8.7852-2.3242 17.496-4.9297 26.117-7.8125 17.637-5.8984 34.914-12.941 51.676-21 33.336-16.02 64.59-35.715 92.973-59.465 13.277-11.105 39.902-41.047 56.195-59.996 0.015625 2.4414 0.007813 4.8789-0.015625 7.3164z"/>
</svg>
