<?xml version="1.0" encoding="UTF-8"?>
<svg width="1200pt" height="1200pt" version="1.1" viewBox="0 0 1200 1200" xmlns="http://www.w3.org/2000/svg">
 <path d="m754.8 380.16c-36.84 36.719-77.641 69.961-118.2 102.24 0.23828 62.879 0.60156 125.76 0.83984 188.76 30.961-2.8789 60.359-15.602 89.039-27.121 103.92-41.762 204.12-92.762 299.28-152.04 0-7.5586 0.35938-15.121 0-22.68-0.23828-7.1992-2.6406-14.398-11.281-12.84-7.8008 1.4414-15.238 6.7188-22.078 10.441-8.1602 4.4414-16.441 8.8789-24.602 13.441-31.922 17.398-63.84 34.922-96.121 51.84-16.078 8.3984-32.16 16.801-48.602 24.602-14.398 6.8398-31.078 13.441-47.281 11.398-15.359-2.0391-17.039-18.719-9.2383-29.762 9.4805-13.32 26.039-15.719 40.078-21.84 7.9219-3.3594 15.602-7.5586 23.52-10.922 7.9219-3.3594 16.199-6 24.48-8.5195 16.922-5.0391 33.602-10.559 49.922-17.16 16.32-6.6016 32.281-13.922 48.238-21.48 7.6797-3.6016 16.32-6.7188 23.281-11.398 3.7188-2.5195 4.5586-6.2383 6.2383-10.199 1.3203-3.1211 3-6 5.0391-8.7617 4.5586-6.2383 9.7188-11.762 10.199-19.801 0.60156-8.2812-1.9219-16.68-4.0781-24.719-4.3203-16.078-9.8398-31.801-16.559-46.922-6.6016-14.762-14.281-29.039-23.039-42.602-2.2812-3.4805-4.5586-6.9609-6.9609-10.441-1.6797-2.5195-5.0391-9.3594-8.6406-8.1602-1.5586 0.60156-3.3594 3.1211-4.5586 4.1992l-4.8008 4.8008c-3 3-5.8789 6-8.7617 8.8789-24.48 25.078-47.879 51.121-70.32 78.121-10.441 12.48-19.922 26.039-31.199 37.68-9.6016 9.8398-21.359 17.762-35.52 17.879-2.0391 0-4.6797-1.5586-4.9219-3.7188-2.6406-17.52 8.3984-31.078 18.602-43.922 11.879-14.879 23.879-29.762 33.719-46.078 0.23828-0.35938 0.48047-0.71875 0.83984-0.96094 17.641-22.68 32.879-48 40.68-75.84 2.0391-7.3203 3.6016-14.762 4.4414-22.32 0.71875-6.7188 1.5586-14.281 0-20.879-0.96094-4.0781-3.4805-7.3203-6.3594-10.199-8.7617 22.922-19.078 45.359-31.199 66.84-22.68 40.441-51 77.641-83.762 110.28zm-48.602 236.04c-3 2.6406-6.3594 4.8008-9.4805 7.1992l-0.71875 0.60156c-0.60156 0.48047-1.1992 0.96094-1.9219 1.4414-0.71875 0.60156-1.4414 1.0781-2.1602 1.5586-1.6797 1.0781-3.6016 1.9219-5.5195 2.2812-4.6797 0.83984-9.4805-0.83984-12-5.0391-2.1602-3.4805-2.2812-8.0391-0.83984-11.762 1.5586-4.0781 4.3203-7.4414 7.0781-10.801 2.6406-3.1211 5.5195-5.8789 8.7617-8.2812 5.5195-3.9609 13.078-5.6406 19.922-4.9219 0.60156 0 1.0781 0 1.6797 0.23828h0.35938c1.4414 0.48047 2.5195 1.5586 3 3 0 0.23828 0.23828 0.35938 0.23828 0.60156 3.3594 8.7617-1.9219 18.121-8.3984 23.762zm36.359-136.44c-4.8008 6-9.8398 11.641-14.879 17.52-9 10.559-19.441 22.441-34.559 22.559-3.3594 0-7.9219-0.35938-10.559-2.7617-2.6406-2.3984-2.6406-5.7617-2.2812-9.1211 0.83984-6.8398 3.9609-13.199 8.0391-18.719 4.0781-5.6406 8.6406-10.922 13.32-15.961 4.5586-4.9219 9.6016-9.4805 15.359-12.84 1.8008-2.2812 4.1992-3.7188 6.7188-5.2812 3.1211-1.9219 5.6406-4.4414 9.3594-5.1602 7.5586-1.4414 14.039 3.7188 15.602 11.039 1.4414 7.0781-1.9219 13.32-6.2383 18.84z"/>
 <path d="m609.48 749.04c-1.0781-11.879-4.0781-32.039 9.2383-38.398 2.7617-1.3203 5.6406-1.9219 8.5195-1.8008v-17.281c-6 7.3203-12.359 14.16-19.32 20.52-9.2383 8.5195-18.719 16.68-26.762 26.398-13.922 16.68-23.039 36.84-32.52 56.281-9.3594 19.199-18.719 39-31.559 56.281-12.719 17.039-30.359 29.762-48.84 39.84-16.441 9-34.199 16.32-52.559 20.762 23.16 9.3594 47.762 15.48 72.359 16.32 10.441 0.35937 21-0.35938 31.078-3.4805 10.32-3.2383 19.199-9.1211 27.238-16.199 15.121-13.199 28.32-28.441 39.48-45 0-0.96094 0.48047-2.0391 1.3203-3 4.9219-5.6406 9.1211-11.762 12.719-18.238 7.0781-12.961 11.641-27.48 12.84-42.238 1.3203-16.922-1.6797-33.84-3.2383-50.641z"/>
 <path d="m248.64 582.6c23.281 16.078 49.32 28.441 77.039 34.68 15.48 3.4805 31.078 4.4414 46.922 5.0391 17.398 0.71875 34.441 2.0391 51.48 5.6406 16.68 3.6016 33 8.3984 49.68 11.879 17.16 3.4805 34.68 5.5195 52.199 6.7188 33.602 2.1602 67.441 0.83984 101.04-0.60156 0-15.84-0.12109-31.559-0.23828-47.398-0.60156 0-1.3203-0.35938-2.0391-0.83984-31.559-20.762-64.441-39.359-97.32-57.961-54.359-30.719-110.04-61.32-156.6-103.56-40.199-36.48-72.84-80.641-93.84-130.68-20.039 22.32-42 43.922-50.16 73.32-0.12109 0.60156-0.48047 1.1992-0.83984 1.6797-2.8789 13.922 9.2383 24.719 20.281 30.719 12.84 6.8398 26.52 11.762 39.238 18.84 26.879 15.121 52.801 32.52 78.84 49.199 11.16 7.1992 21.961 15 32.039 23.762 10.199 9 20.398 17.879 31.078 26.16 10.559 8.0391 21.359 15.602 32.52 22.801 8.0391 5.1602 17.281 13.32 13.078 24-4.5586 11.52-19.68 7.9219-28.922 5.8789-12.719-2.7617-24.84-7.8008-36-14.52-10.801-6.6016-20.641-14.52-30.961-21.719-10.441-7.1992-21.48-13.441-33.359-18.238-11.641-4.6797-23.762-7.9219-36.121-10.199-12.961-2.3984-26.879-2.1602-39.238-6.9609-11.762-4.5586-21.48-12.359-31.68-19.559-9.9609-6.9609-21.84-14.398-34.559-13.441-7.5586 0.60156-9.9609 4.8008-12.48 11.281-2.2812 5.8789-4.5586 11.879-6.4805 18-0.96094 3-1.9219 6-2.7617 9.1211 18.84 25.801 41.762 48.84 68.039 66.961z"/>
 <path d="m331.08 378.12c35.398 45.961 81.121 81 130.2 111.24 54.48 33.602 111.84 62.52 165.48 97.441v-24.48c-0.12109-26.52-0.23828-53.16-0.35937-79.68-0.71875-1.0781-0.96094-2.3984-0.48047-3.7188-24.602-13.32-43.68-36-62.641-56.16-36.359-38.879-70.68-79.801-102.72-122.4-29.281-38.879-58.441-79.559-72.84-126.48-14.762 10.801-28.078 23.281-39.84 37.441 1.5586 24.238 12.961 46.199 27.121 65.52 15 20.641 32.762 39.48 49.441 58.68 15.121 17.398 31.199 34.199 44.762 52.801 4.5586 6.2383 10.078 14.281 7.3203 22.441-3.2383 9.6016-14.398 8.2812-21.359 3.8398-17.879-11.398-33.121-28.078-46.199-44.641-13.559-17.16-25.801-35.398-38.398-53.16-12.602-17.879-25.078-35.879-33.84-56.039-1.4414-3.1211-0.83984-3.3594-4.1992-2.8789-2.3984 0.35938-4.9219 0.96094-7.1992 1.6797-4.5586 1.4414-8.8789 3.4805-12.84 6.2383-8.5195 5.6406-14.398 14.281-20.52 22.199-2.3984 3-4.8008 6-7.3203 8.8789 0 0.12109 0.23828 0.35938 0.23828 0.48047 11.52 28.801 27.359 56.039 46.32 80.641zm196.92 96.359c4.6797-5.0391 11.879-6 18.121-3.6016 6.7188 2.6406 11.039 8.1602 15.84 13.199 0.35937 0.35938 0.60156 0.71875 0.71875 1.0781 2.6406 2.1602 4.8008 4.6797 6.7188 7.5586 1.6797 2.6406 3.2383 5.3984 5.6406 7.5586 2.7617 2.5195 5.6406 4.4414 7.3203 7.8008 1.6797 3.2383 2.2812 6.9609 2.3984 10.559 0.23828 6 0.12109 13.199-4.8008 17.52-4.5586 3.8398-11.16 4.8008-16.68 2.7617-6.6016-2.3984-11.398-7.6797-15.961-12.719-5.0391-5.5195-9.9609-11.16-14.398-17.039-7.4414-9.7188-14.879-23.879-4.9219-34.801z"/>
 <path d="m486.36 729.72c24.359-8.6406 48.121-18.961 71.879-28.922 22.922-9.6016 45.961-19.078 68.879-28.68v-16.078c-39.238 1.6797-78.602 3.1211-117.72-0.71875-17.641-1.8008-35.16-4.6797-52.441-8.8789-16.801-4.0781-33.602-8.8789-50.762-11.398-18.48-2.7617-37.199-2.1602-55.801-3.7188-14.52-1.1992-28.801-3.9609-42.719-8.2812-52.199-16.199-96.961-51.719-130.2-94.68-1.1992 5.8789-2.2812 11.762-2.7617 17.641-2.1602 24.121 2.2812 48.719 16.68 68.52 0.48047 0.23828 0.96094 0.48047 1.4414 0.83984 3.6016 3.1211 9.6016 2.5195 14.039 3.8398 4.0781 1.3203 7.6797 3.7188 10.199 7.3203 4.9219 7.1992 4.6797 16.68 3.7188 24.961-1.1992 10.68-2.2812 21.121-1.4414 31.922 0.83984 11.281 3.1211 22.441 6.4805 33.238 4.9219 16.078 12.121 31.199 20.641 45.719 29.52-2.3984 59.16-4.8008 88.68-7.1992 51.359-4.1992 102.24-8.3984 151.2-25.68zm-179.64-66.961c0-5.6406 5.8789-11.52 11.641-11.398 1.0781-0.23828 2.2812 0 3.4805 0.83984 8.8789 6.7188 19.68 8.5195 30.359 10.199 12 1.9219 23.52 4.9219 34.801 9.3594 14.879 5.8789 38.398 14.52 39.84 33.602 0.71875 9-5.7617 15.48-14.641 15.719-9.6016 0.23828-20.039-4.0781-28.68-7.8008-20.398-8.7617-39.121-21.359-58.078-32.762-6.3594-3.8398-18.84-8.7617-18.719-17.762z"/>
 <path d="m761.52 715.8c-23.762-1.8008-47.879-2.7617-70.922-9-18.238-4.9219-36.359-9.6016-53.039-18.359v23.16c5.0391 2.5195 9.6016 6.4805 12.84 10.68 19.441 25.441 5.5195 57.359 8.2812 86.039 1.4414 15.602 8.3984 30 16.441 43.199 7.9219 12.961 16.922 25.801 26.879 37.199 10.441 11.879 22.922 20.039 38.398 23.879 15.359 3.7188 31.801 4.1992 47.52 2.7617 31.441-2.8789 58.922-18.238 81.121-40.32 22.559-22.559 38.762-50.281 54.359-77.762 16.199-28.68 32.52-57.48 46.32-87.48 0.71875-1.5586 1.4414-3.2383 2.1602-4.8008-22.441 6.3594-45.48 10.441-68.762 12.602-47.16 4.5586-94.559 1.9219-141.6-1.6797zm123.96 108.12c-22.922 3.8398-45.602-6.1211-65.398-16.559-11.641-6.1211-23.16-12.48-34.441-19.199-7.6797-4.5586-15.961-10.559-17.039-20.281-1.9219-17.762 23.039-28.922 34.68-15.719 0.35938 0.35938 0.71875 0.71875 0.96094 1.0781 3.9609 6 10.078 5.2812 16.441 6.3594 5.7617 1.0781 11.039 3.8398 15.961 7.0781 11.039 7.1992 22.078 13.68 34.078 19.559 8.6406 4.1992 20.762 8.3984 25.199 17.641 4.4414 9-0.71875 18.359-10.441 19.922z"/>
 <path d="m1025.5 521.28v-17.16c-24.84 15.359-50.039 30.238-75.48 44.52-49.801 27.84-100.92 53.398-153 76.559-26.16 11.641-52.559 22.801-79.32 33.238-23.762 9.3594-47.641 18.48-72.961 22.078 18.238 9.3594 39.121 14.762 58.922 18.84 22.922 4.6797 46.922 5.3984 70.32 7.0781 22.68 1.6797 45.359 2.8789 68.16 3.1211 45.602 0.48047 91.32-3.3594 135.12-17.039 3.9609-9.4805 7.5586-19.078 10.68-28.922 5.1602-15.719 9-31.801 15.719-46.922s15.48-29.281 19.078-45.602c3.6016-16.199 3.1211-32.879 2.6406-49.32v-0.48047zm-110.64 125.4c-3.7188 9.2383-14.16 11.398-22.68 14.398-10.559 3.7188-21.359 6.9609-32.16 9.7188-9.9609 2.6406-19.922 4.8008-30 6.6016-9.9609 1.8008-20.16 3.8398-30.359 3.6016-6.9609-0.23828-17.879-0.96094-20.641-9-2.8789-8.2812 7.1992-13.199 13.078-16.078 8.2812-4.0781 17.039-6.7188 26.16-7.9219 10.078-1.1992 20.16-0.12109 30.238-0.83984 10.32-0.71875 19.801-5.0391 29.879-7.0781 9.8398-2.0391 19.922-2.3984 29.879-1.3203 1.4414 0.12109 2.5195 0.83984 3.3594 1.6797 2.6406 0.60156 4.6797 2.7617 3.3594 6z"/>
 <path d="m683.28 619.2v-0.23828s-0.12109 0 0 0.23828z"/>
 <path d="m523.32 362.76c16.922 19.922 34.32 39.359 52.199 58.32 15.48 16.441 31.078 34.32 50.52 46.199-0.23828-57.719-0.35937-115.32 0.35938-173.04 0.23828-21.48 0.71875-43.078 1.1992-64.559-13.68-23.039-20.879-49.68-28.68-75.238-9.6016-31.559-19.199-63-28.68-94.559-0.48047 0-0.96094 0.12109-1.4414 0.23828-11.641 1.5586-23.879 1.1992-35.16 4.9219-24.602 8.0391-20.398 36.602-16.559 56.52 5.3984 27.121 12.719 53.879 23.16 79.441 5.2812 12.961 11.641 25.199 18 37.441 5.8789 11.398 11.16 23.52 10.078 36.602-0.12109 2.0391-1.4414 4.5586-3.7188 4.9219-15.48 2.2812-23.52-14.879-30.602-25.801-8.8789-13.441-17.52-27-25.199-41.039-14.641-26.762-25.801-55.441-28.441-85.922-3.7188-4.5586-10.922-1.5586-15 1.0781-5.7617 3.8398-10.922 8.3984-16.922 12-12.359 7.1992-25.801 12.121-38.281 18.961-4.6797 2.6406-9.2383 5.3984-13.801 8.3984 7.5586 26.16 20.039 50.398 34.68 73.32 27.238 42.84 59.398 83.039 92.16 121.68zm53.398-53.398c2.8789-8.6406 13.441-8.0391 20.52-6 0.12109 0 0.23828 0 0.35938 0.12109h0.35938s1.0781 0.71875 1.4414 1.1992v0.23828l0.35937 0.23828c3.8398 4.0781 7.5586 8.2812 11.281 12.602 3.6016 4.0781 8.1602 8.2812 10.078 13.559 1.6797 4.6797 0 10.199-1.9219 14.52-2.0391 4.3203-6.1211 7.5586-11.039 7.3203-5.3984-0.23828-9.3594-4.1992-13.199-7.5586-3.7188-3.3594-7.5586-6.6016-11.281-10.078-3.6016-3.2383-6.3594-7.1992-7.3203-12.121-0.83984-4.3203-1.1992-9.7188 0.23828-13.922z"/>
 <path d="m695.04 266.16c-9.3594 15.121-18.48 30.48-27.961 45.48-8.6406 13.68-18.238 26.879-30.359 37.559-0.12109 0-0.23828 0.23828-0.35938 0.23828-0.12109 31.68 0 63.359 0 94.922v24.961c19.68-15.84 39.238-32.039 58.441-48.48 36.961-31.922 72.602-65.039 101.64-104.52 27.121-36.84 49.078-77.398 65.039-120.24-5.0391-4.4414-10.078-8.6406-15.238-12.84-21.84-17.762-44.52-34.441-68.039-49.801-5.5195-3.6016-11.16-7.1992-16.801-10.68-4.8008 17.039-10.441 33.961-17.039 50.398-13.32 32.879-30.961 63-49.441 93.238zm72-75.961c4.3203-8.3984 14.641-10.199 23.641-9 11.52 1.5586 16.922 10.801 16.441 21.84-0.35938 11.762-5.0391 23.039-10.199 33.359-5.7617 11.398-12.238 22.68-18.961 33.602-5.6406 9.1211-11.52 18.961-20.16 25.801-7.4414 5.8789-19.441 11.039-27.238 2.7617-6.2383-6.7188-6.3594-18.84-6-27.48 0.35938-10.559 2.6406-21 6.3594-30.84 7.4414-19.32 20.039-36.602 36.121-49.801z"/>
 <path d="m662.88 299.04c18.359-29.762 37.801-59.16 53.879-90.121 15.238-29.281 27.121-60.121 35.762-91.922-12.121-7.6797-24.238-15.359-35.879-23.762-18.602-13.559-35.762-29.16-48.602-48.48-3-4.5586-6.1211-9.9609-10.801-13.078-2.6406-1.6797-5.3984-1.9219-8.0391-1.1992-4.5586 48.602-7.5586 97.441-9.6016 146.16-2.1602 52.801-3 105.72-3.3594 158.64 10.32-10.922 18.602-23.398 26.398-36.238zm8.3984-84.238c0.96094-5.3984 2.7617-10.68 4.9219-15.719 2.0391-4.6797 4.3203-9.3594 6.6016-13.922 2.2812-4.3203 4.9219-8.8789 9.4805-11.039 4.4414-2.0391 10.199-2.0391 13.801 1.5586 3.4805 3.4805 2.2812 8.0391 2.5195 12.359 0 0.48047 0 0.96094-0.23828 1.4414-1.3203 11.52-7.3203 21.359-13.801 30.719-2.8789 4.1992-5.6406 9.3594-9.6016 12.602-4.6797 3.8398-11.762 3.2383-13.922-3-1.5586-4.5586-0.71875-10.32 0.12109-15z"/>
 <path d="m628.32 208.44c1.8008-57.719 4.9219-115.32 10.199-172.92-9.9609 5.6406-20.039 10.801-30.961 14.879-8.8789 3.2383-17.879 5.7617-27.121 7.6797 9.2383 30.602 18.602 61.078 27.84 91.68 6 19.559 11.52 39.961 20.039 58.68z"/>
 <path d="m515.16 835.68c11.398-17.879 20.281-37.32 29.641-56.281 9.4805-19.199 19.441-37.922 34.078-53.762 12.48-13.441 26.641-24.719 38.52-38.398-22.559 9.3594-45.121 18.84-67.68 28.199-23.398 9.7188-46.68 19.801-70.801 27.602-24.48 8.0391-49.801 12.84-75.359 16.199-50.16 6.3594-100.8 9.2383-151.2 13.199 11.281 17.398 24.48 33.719 38.281 48.84 25.559 28.199 54.961 53.281 87.961 72.359 6.7188 3.8398 13.68 7.5586 20.762 10.922h0.12109c25.441-4.3203 49.922-14.039 71.879-27.48 17.641-10.801 32.52-23.879 43.559-41.398zm-153.12-18.961c3.2383-9.2383 12.84-16.801 21.121-21.602 9.2383-5.2812 19.441-7.5586 30-8.2812 24.961-1.6797 50.281 0 75.121 3h0.48047 0.96094c9.3594 1.8008 19.922 8.7617 17.281 19.68-2.7617 11.762-15.602 14.16-25.559 16.441-24.121 5.5195-48.602 9.9609-73.441 10.922-12.359 0.48047-54.238 3.8398-45.84-20.398z"/>
 <path d="m586.68 312.24-0.12109 0.12109v-0.12109z"/>
 <path d="m639.36 726.6c-0.48047-5.5195-4.4414-10.199-10.199-10.199-5.1602 0-10.68 4.6797-10.199 10.199 9 112.2 18.121 225.36 7.3203 337.92-3 31.199-7.6797 62.039-14.16 92.762-2.7617 12.84 17.039 18.359 19.801 5.3984 23.762-111.48 22.32-226.08 14.879-339.12-2.1602-32.281-4.6797-64.559-7.3203-96.84z"/>
</svg>
