<?xml version="1.0" encoding="UTF-8"?>
<svg width="1200pt" height="1200pt" version="1.1" viewBox="0 0 1200 1200" xmlns="http://www.w3.org/2000/svg">
 <path d="m442.22 341.95-0.79688-0.9375c0 0.046875 0.046875 0.09375 0.046875 0.1875l0.79688 0.79688z"/>
 <path d="m327.98 445.6c22.781 1.2656 46.406 9.7969 69.188 8.1562 4.9219-0.65625 10.266-2.6719 13.266-6.8906 8.3906-11.859 3.0469-37.031 1.125-50.578-10.781-73.969 11.156-145.78 48.422-209.29 26.25-46.312 68.203-80.203 98.672-123.32 11.062 28.219 24.891 57.234 44.438 81.141 36.047 45.516 84.703 79.781 116.2 129.24 12.141 18.188 22.922 37.266 31.828 57.234 10.547 20.391 13.547 46.031 26.297 64.641 18.891 17.391 51.047-14.484 69.281-23.25 15.562-8.8125 31.5-16.734 48.281-22.875 52.266-19.078 105.75-21.891 160.69-16.688 21.516 2.0156 42.938 5.5312 64.594 6.0469-74.391 20.344-143.26 65.578-201.05 115.45 5.7188-33.703 18.562-64.359 38.953-91.453-27.094 23.344-39.047 61.031-44.625 95.297-40.781 37.125-79.172 76.875-117.05 117-10.734-49.406 5.8594-98.625 25.453-143.63 1.5-3.5625 6.3281-12.141 5.4375-15.797l-0.75 0.46875c-24.469 49.406-48.844 108.23-34.875 164.02-34.734 39.984-68.344 85.5-82.125 137.29-25.172-37.172-48.094-75.938-70.031-115.08 5.2031-53.812 29.859-74.203 48.938-119.86 20.859-47.297 13.406-87.938 22.359-137.16l-0.65625-0.375c-9.5156 22.266-7.6875 84.656-17.062 110.58-11.953 50.203-51.844 83.859-58.734 135.98-30.609-60.844-54.375-125.48-69.375-191.95 43.219-47.766 69.469-113.67 69.844-177.98-8.5312 61.969-27.375 126-71.016 172.74-18.234-70.219-27.797-143.63-20.484-216.19 3.9375-31.594 9.4219-62.906 14.344-94.312 0.46875-2.625 2.5781-12.141 1.125-14.344-16.922 78.984-31.5 159.74-17.625 240.42-27.75-23.578-48.891-60.516-63.938-93.141 10.734 39.234 35.859 74.25 65.438 101.77 5.25 47.391 18.703 99.75 31.688 145.6-50.297-10.359-92.766-52.125-117.98-95.297-2.7656-4.6875-12.75-26.062-14.953-28.078 19.547 59.062 72.141 117.52 134.95 130.74 22.172 82.172 67.828 158.16 111.33 230.53-58.406-57.984-138.71-79.969-211.31-113.77-0.98438-15.047-7.125-44.438-13.312-57.75-11.109-23.859-34.688-45.422-59.344-54.469 45.188 29.25 60.281 57.797 67.031 109.59-45.703-19.969-90.938-41.438-138.28-57.375-15.234-41.953-37.125-64.219-75.75-84.938 23.953-0.5625 47.344-0.5625 71.25 1.8281zm-123.14 3.0938c12.609-2.0156 25.406-3.0469 38.109-4.125 3.8438-0.51562 6.2812-0.46875 9.8438 1.0781 34.359 16.266 60.047 45.703 73.453 81.094-78.516-25.594-163.97-43.219-246.84-39.328 39.75-17.391 82.547-31.828 125.48-38.719zm86.25 495.1c8.4844-40.969 14.109-83.859 35.109-120.79 8.8594-18.094 24.797-31.641 34.5-48.891 12.703-27.281-13.594-34.5-32.203-45.562-17.812-10.453-34.828-22.172-50.953-35.109-80.062-59.156-111.42-161.48-205.36-203.63 4.7812 0.23437 9.6562-0.1875 14.438-0.46875 99.047-2.0625 205.87 27.984 296.26 68.016-45.422 25.641-70.547 34.781-123.89 34.781-13.922 0-28.359-2.0156-42.234-0.79687 46.078 7.7344 92.953 8.2031 136.13-11.672 12.516-5.7188 23.484-13.922 35.859-19.781 54.516 22.594 106.97 50.109 162.1 71.297-61.266 38.531-133.87 54.938-205.5 54.516 75.422 11.297 148.03-13.594 212.29-51.797 50.766 17.438 104.58 54.188 140.44 94.031-16.734-0.89063-32.625-0.79688-49.219 1.5469-24.703 2.0625-60 13.125-82.875 22.781-28.875-10.125-59.016-14.625-89.484-10.219 33 2.5312 47.344 2.5781 79.688 14.766-44.016 18-83.719 45.375-122.72 71.812-6 2.6719-25.922 4.8281-34.078 6.7031-12.609 2.8594-24.75 6.9844-37.219 10.125 20.391-4.125 41.531-10.125 62.859-9.6562-55.594 40.734-104.02 91.125-146.29 145.45 5.0156-12.141 9.1406-24.609 12.328-37.359zm264.19 28.266c-9.7031-13.172-15.984-35.906-25.125-48.422-1.3594-1.2188-2.7656-1.7344-4.5938-1.4062-21 6.4219-41.672 15.656-63.516 19.969-32.391 7.5469-65.484 9.0469-98.156 14.438-29.859 5.9531-59.531 17.766-85.875 32.953 60.516-82.641 153.19-156.98 242.39-206.48-22.406 27.469-25.922 62.672-39.844 94.031-7.4531 14.344-17.344 25.078-29.203 35.812l-0.23438-0.79687-1.2656 2.25c4.3125-1.4531 9.9375-6.8906 13.359-9.8906 27.797-24.469 28.078-42.234 39.281-74.109 9.6094-24.938 22.5-54.375 50.109-62.953 43.594-19.594 91.5-31.406 139.45-30.422-25.125 19.172-37.641 52.734-48.234 81.422-34.406 17.906-57.234 49.547-83.438 77.062 28.969-21.609 47.203-51.047 80.484-67.922-24.938 79.266-24.281 161.95-16.5 243.89-15.656-35.766-47.859-66.328-69.141-99.281zm154.64-38.812c-17.578 28.266-42.984 50.906-60.516 79.172-9.0469 14.531-15.328 30.422-21.375 46.312-6.2344-66.844-7.3594-134.39 9-199.97 5.8594 14.156 11.812 28.453 18.844 42.047-1.8281-9.7031-9.5156-22.219-11.438-33.375-6.3281-21.891 3.7969-46.641 12.562-66.844 10.031-22.875 24.047-51.656 48.562-61.266 5.7188-1.3594 8.9531 2.7656 10.969 7.5469 10.547 22.875 12.891 48.188 14.766 72.984 3 39.422-0.46875 78.797-21.375 113.39zm84-66.281c57.188 81.047 135.32 150.94 160.13 250.6-2.3438 3.8906-4.8281 7.5-7.6406 11.062l-8.2969 9.6094c0.60937-88.266-65.391-156.94-117.84-220.78-38.25-48.375-79.266-104.16-95.578-164.44 9.7031 6.75 15.891 16.922 19.781 27.844 13.125 30.375 30.609 59.016 49.453 86.109zm216.61-139.31c-48.328 20.812-84.656 67.594-137.39 78.516-37.594 7.8281-73.547-5.1562-104.77-25.406-18.516-13.5-34.172-28.922-50.203-45.234 26.906-21.234 82.266-35.906 115.83-41.109 14.906 11.953 24.094 23.625 42.328 32.719 8.8125 4.3594 39.984 13.781 49.219 10.688-1.875-1.5469-6.9844-1.2188-9.6562-1.5469-29.016-3.6562-56.062-20.25-73.969-43.172 19.641-2.0156 38.812-2.8125 58.5-3.0469 48.469 0.375 104.25 7.4531 148.92 27.047-13.359 2.1562-26.438 5.2031-38.906 10.547zm110.48-382.55c-70.266 54.75-79.734 134.29-116.95 207.61-7.4531 14.016-15.844 27-24.938 39.938-3.6562 5.25-19.547 23.719-20.203 27.141-0.14063 0.75-0.046876 3 0.23437 3.75 1.2656 3.1875 12.422 9.9375 15.516 12.141 27.797 19.688 63.328 51.984 83.578 79.5-67.172-25.828-140.68-34.547-212.11-27.234 16.172-18.188 37.922-30.094 49.547-52.266-19.031 19.312-40.641 35.719-61.172 53.531-40.781 6.1875-82.734 19.594-118.92 39.188 10.031-46.547 35.719-89.859 66.516-125.72 49.219 11.344 112.55-0.51562 150.32-35.016-43.547 28.594-94.641 41.812-146.44 29.906 30.422-38.438 66.188-72.656 101.62-106.45 34.453 8.9062 76.5 10.781 107.44-9.1875-31.734 11.062-69.797 14.859-102.75 4.8281 65.906-63.938 141.71-121.82 231.66-146.11l0.60938 0.09375c0.5625 1.2188-2.6719 3.5156-3.6094 4.3594z"/>
</svg>
