<?xml version="1.0" encoding="UTF-8"?>
<svg width="1200pt" height="1200pt" version="1.1" viewBox="0 0 1200 1200" xmlns="http://www.w3.org/2000/svg">
 <path d="m949.56 228.48c4.5586 2.1602 10.078 3.2383 14.762 4.4414 13.078 3.6016 26.398 6.6016 39.84 9 25.922 4.8008 52.078 7.5586 78.359 8.2812 28.559 0.71875 57.121-1.1992 85.32-5.1602 3.2383 50.52 2.6406 101.28-0.60156 151.68-53.762 7.5586-108.48 4.3203-160.68-11.039-26.762-7.8008-51.359-20.039-77.281-30.121-23.762-9.2383-49.199-12.719-74.52-13.078-21.84-0.35938-43.559 1.5586-65.16 4.1992 51.238-42 104.28-81.961 159.84-118.2zm206.04-84.121c3.7188 18.961 6.4805 38.039 8.6406 57.238 1.1992 10.32 2.1602 20.641 2.8789 30.961-59.641 8.7617-120.84 6.4805-179.64-6.8398-7.5586-1.6797-15.121-3.6016-22.559-5.6406-0.48047-0.12109-1.0781-0.23828-1.6797-0.35938 3.1211-2.0391 6.1211-4.0781 9.2383-6 28.559-17.879 57.719-34.801 86.762-51.961 27.602-16.441 55.199-35.039 85.922-45.238 6.2383 7.8008 8.6406 18.359 10.559 27.84zm-45.961-42.84c7.8008 1.4414 16.32 2.8789 23.762 6.1211-23.762 9.1211-45.602 22.559-67.441 35.52-26.281 15.602-52.559 31.078-78.719 46.801-11.52 6.9609-22.922 14.16-34.32 21.359 0-1.6797 0.48047-3.3594 0.71875-5.0391 2.6406-14.641 6.1211-29.039 10.441-43.199 8.2812-27.602 19.68-54.121 33.602-79.32 37.441 4.9219 74.879 10.559 112.08 17.641zm-125.28-19.441c-10.922 20.281-20.281 41.398-27.84 63.238-4.1992 12.238-7.8008 24.719-10.801 37.32-1.4414 5.8789-2.6406 11.762-3.7188 17.641-1.0781 5.5195-3 12-1.8008 17.52 0 0.48047 0.35938 0.96094 0.48047 1.4414-33.719 22.078-66.602 45.48-98.641 69.961-23.16 17.762-45.961 35.879-68.398 54.48-2.1602-94.801 10.078-194.04 60.84-275.88 35.52 2.6406 71.16 5.6406 106.68 9.3594 14.398 1.5586 28.801 3.2383 43.199 4.9219zm-381.96-27.602c56.281 0.48047 112.68 5.1602 168.72 8.7617 16.441 1.0781 33 2.2812 49.441 3.4805-50.879 85.559-62.398 189.24-59.039 287.16-42.719 35.762-84.48 72.719-125.76 110.16 0.60156-50.641-9.8398-100.8-24.84-148.92-8.3984-27-19.68-53.039-27.719-80.16-8.2812-27.719-7.6797-56.039-7.5586-84.719 0-32.039 1.4414-64.078 7.6797-95.52 6.3594-0.12109 12.602-0.23828 18.961-0.23828zm-156.84 24.238c40.68-14.16 82.559-21.359 125.16-23.52-4.9219 25.801-6.8398 52.078-7.3203 78.48-0.48047 27.961-2.0391 57.238 3 84.84 5.0391 27.719 17.16 53.762 26.16 80.281 9.1211 26.879 17.039 54.238 22.68 82.078 6.3594 31.199 9.2383 62.879 7.8008 94.68-15.359 13.922-30.602 27.961-45.961 41.879-23.762 21.719-46.559 43.441-64.68 70.32-9.7188 14.398-18.961 29.16-28.078 44.039-3.4805-63.84-8.3984-128.04-25.801-189.84-9.9609-35.281-24.719-68.16-41.762-100.44-16.922-32.16-34.32-64.078-44.52-99.238-11.762-40.922-14.879-84.121-9.1211-126.36 26.398-14.641 53.762-27.359 82.32-37.199zm-404.63 575.77c-5.7617-22.801-8.0391-46.32-9.2383-69.719-1.1992-24.359-2.1602-48.961-1.4414-73.441 13.441 16.559 34.441 28.441 50.641 40.32 14.879 10.801 29.762 21.84 44.762 32.52 13.32 9.6016 27.238 17.16 43.441 20.641 32.641 7.0781 67.559 1.9219 100.56 0 34.68-1.9219 70.68-5.6406 104.64 3.7188 24.602 6.7188 47.398 19.559 66.121 36.961-1.5586-0.23828-3.1211-0.60156-4.8008-0.71875-14.762-1.8008-29.641-2.0391-44.398-1.3203-30.238 1.4414-60.121 7.1992-89.398 14.398-30.121 7.3203-59.879 16.199-90 23.641-30.48 7.5586-62.398 14.52-93.961 11.641-28.559-2.6406-56.641-18.961-77.039-38.641zm151.44-405c37.078-37.078 76.559-71.879 119.76-101.76 12.359-8.5195 25.078-16.559 38.039-24.238-3.3594 32.398-2.3984 65.039 4.0781 97.078 7.1992 36.121 21.719 69.602 38.641 102.12 17.16 33.121 35.16 65.52 47.039 101.04 11.762 35.16 19.078 71.879 23.762 108.72 3.2383 25.559 5.2812 51.238 6.8398 76.922-4.9219-13.559-11.281-26.641-18.84-39-16.559-27.48-36.961-54.84-60.961-76.199-25.32-22.559-56.762-34.32-86.039-50.398-29.762-16.32-56.641-37.559-80.762-61.199-27.602-27-51.48-57.48-71.52-90.48-0.12109-0.23828-0.35938-0.35938-0.48047-0.48047 13.32-14.281 26.879-28.32 40.559-42.121zm-145.32 177c10.32-22.922 25.32-43.559 41.281-62.879 17.641-21.359 36-42.238 54.719-62.641 33.359 54.238 77.52 103.08 130.44 138.6 27.84 18.719 59.641 30.121 87.84 48.121 27.84 17.641 49.078 44.16 67.68 70.922 20.281 29.039 37.078 61.801 37.922 97.801-17.281-21.961-39.359-39.719-65.039-51.121-29.281-12.961-60.48-15.961-92.281-15-34.559 1.0781-69.121 4.9219-103.68 5.2812-16.559 0.12109-33.602-1.0781-49.078-7.4414-15.84-6.3594-29.52-18.121-43.32-28.078-16.441-12-32.762-23.879-49.199-35.879-12.84-9.2383-27.359-19.441-32.762-35.039 2.0391-21.602 6.4805-42.961 15.48-62.762zm0.96094 250.2c14.16 10.559 30 18.961 46.559 24.238 27.121 8.5195 56.762 5.5195 84.359 0.48047 60.961-11.039 119.4-33.719 180.84-42.602 17.641-2.5195 35.52-3.8398 53.281-3.3594 4.3203 0 9 0.23828 13.68 0.48047-26.879 4.3203-53.762 22.32-75.48 36-23.16 14.641-46.199 29.281-69.359 44.039-21.121 13.441-42.238 27-64.922 37.68-25.199 11.879-53.398 20.52-81.48 16.68-2.1602-1.9219-4.3203-3.7188-6.3594-5.6406-33.121-30.602-64.559-65.641-81.121-108zm366.6 12.238c-16.199 17.16-21.602 41.16-34.559 60.48-13.078 19.441-32.039 34.32-51.719 46.801-20.879 13.32-43.32 26.398-66.961 34.078-24.719 8.0391-49.801 6.9609-73.559-3.8398-13.078-6-25.078-14.039-36.48-22.922 40.078-0.60156 78.121-20.16 111.84-40.801 22.32-13.68 44.16-27.961 66.238-42 21.602-13.68 42.84-28.68 65.398-40.68 19.801-10.441 43.922-17.039 64.559-7.5586-16.199-3.3594-33.238 4.0781-44.641 16.32zm-17.281 199.32c7.1992-39.84 22.078-78.238 43.559-112.56 16.078-25.559 54.121-61.32 34.801-93.84 11.281-1.1992 18.48 10.68 20.52 21 2.5195 13.199 1.8008 28.441-0.96094 41.52-5.3984 25.559-22.559 45.719-36.602 66.961-27.719 41.879-39.719 91.078-45.238 140.52-2.5195 22.078-3.7188 44.398-4.5586 66.602-2.7617-5.8789-5.2812-11.762-7.3203-17.762-12.48-35.641-10.801-75.719-4.1992-112.44zm23.16 151.8s0-0.35937 0.12109-0.48047c1.8008-55.68 3.8398-112.56 21.719-165.84 9.1211-27 23.039-50.281 39.238-73.559 16.32-23.641 27.84-47.281 28.441-76.559 0.23828-14.281-0.48047-30.359-9.4805-42.238-2.6406-3.4805-6.1211-6.4805-9.9609-8.5195 6.6016-0.71875 13.32-0.48047 19.078 2.1602 14.039 6.4805 10.68 28.441 11.039 41.039 1.0781 34.441 0.60156 68.879-7.6797 102.6-8.0391 32.879-19.559 64.801-27.961 97.559-8.2812 32.16-14.52 65.039-16.078 98.398-1.4414 31.199 1.4414 62.762 10.199 92.762-7.0781-5.5195-13.922-11.52-20.281-18-14.281-14.52-27.48-31.199-38.398-49.199zm75.359 78.719s0-0.71875-0.12109-1.1992c-24.719-68.16-14.039-141.36 4.4414-209.52 9.4805-35.039 22.801-69.48 28.922-105.24 6-35.281 5.3984-71.762 3.3594-107.28 0-1.9219-0.35938-3.8398-0.60156-5.7617 6.1211 10.559 10.199 22.922 12.238 33.359 7.1992 36.238 9.7188 73.801 11.879 110.64 4.3203 74.16 2.7617 148.56 8.8789 222.6 2.5195 30.84 8.0391 62.52 24.84 88.922-14.16-0.60156-28.32-2.2812-42-5.2812-18.602-4.0781-35.879-11.398-51.719-21.238zm109.08 26.762c-19.559-26.52-25.199-59.52-27.719-91.68-3-38.641-3.8398-77.52-4.8008-116.4-1.0781-39.719-2.0391-79.32-4.8008-119.04-1.3203-19.801-3.1211-39.48-5.5195-59.16-2.1602-17.398-4.0781-35.281-8.7617-52.199-6.8398-24.48-25.078-49.68-50.039-54.359 29.16-6.3594 58.801 16.32 74.879 39.238 10.441 14.879 18.602 31.199 27.359 47.16 9.2383 16.801 20.281 32.16 30.719 48.238 11.039 16.922 18.602 35.281 26.52 53.762 7.3203 17.398 15.359 34.441 23.879 51.238 17.281 33.961 37.078 66.719 58.922 98.039 23.641 33.719 49.801 65.52 78.121 95.398-49.32 29.52-103.68 48.359-161.64 55.68-18.602 2.3984-37.801 3.9609-57 4.0781zm445.32-271.32c-5.1602 8.6406-10.801 16.922-17.281 24.719-50.52 57.48-106.08 110.64-166.44 157.56-10.441 8.1602-21.238 15.48-32.281 22.559-54.719-57.238-101.04-122.28-137.04-192.96-18.48-36.121-30.84-75.961-53.52-109.68-11.039-16.559-21.84-32.879-31.32-50.398-8.8789-16.441-17.52-33-29.16-47.762-20.039-25.559-53.641-45.121-85.922-36.719 29.039-27.48 69.84-36.359 108.12-25.078 38.52 11.52 70.559 38.398 101.88 62.641 34.68 26.879 70.801 51.961 108 75 18 11.16 36.359 21.84 54.84 32.039 19.078 10.559 36.84 19.559 58.801 21.359 26.039 2.1602 52.559 1.4414 78.719 1.5586 24.961 0.23828 49.801 0.12109 74.762 0-9.2383 22.559-19.68 44.398-32.16 65.16zm36.961-77.641c-47.879 0.48047-95.762 0.35938-143.52-0.83984-12.121-0.35938-24.238-0.83984-35.762-4.8008-11.039-3.7188-21.238-9.9609-31.441-15.48-19.441-10.68-38.52-21.961-57.359-33.602-38.52-24-75.359-50.039-111.24-77.879-30.961-24-63.238-49.441-101.64-60.121-33.48-9.3594-68.879-4.0781-97.801 13.68 2.3984-3.8398 4.6797-7.5586 7.0781-11.398 16.078-25.199 34.922-46.801 56.879-67.078 20.281-18.84 40.801-37.559 61.32-56.16 30.84-18.48 70.32-16.078 104.16-8.2812 36.121 8.2812 72 24.121 104.28 42 32.039 17.641 58.199 44.039 90.238 62.039 28.441 15.961 59.16 27.84 90.961 35.281 36.84 8.7617 74.762 11.762 112.56 11.039-5.1602 23.762-10.559 47.52-16.922 70.922-9 33.602-19.078 67.801-31.68 100.8zm51.121-184.2h-0.60156c-69.961 1.5586-140.04-10.801-201.24-45.961-31.922-18.238-58.078-44.762-90.48-62.16-32.641-17.52-68.52-33.48-104.76-41.879-26.039-6-54.961-8.7617-81.602-2.8789 13.32-11.879 26.52-23.879 39.84-35.641 23.879-21.121 48-41.879 72.48-62.281 50.879-7.0781 105.24-12.84 154.32 6.2383 25.922 10.078 50.398 22.199 77.16 30.121 25.199 7.3203 51 12.121 77.16 14.281 28.68 2.2812 57.359 1.0781 85.922-2.7617-1.0781 14.281-2.1602 28.559-3.6016 42.719-5.3984 53.762-13.68 107.4-24.602 160.44z"/>
</svg>
