<?xml version="1.0" encoding="UTF-8"?>
<svg width="1200pt" height="1200pt" version="1.1" viewBox="0 0 1200 1200" xmlns="http://www.w3.org/2000/svg">
 <path d="m600.19 521.11c4.8281 42.234 11.438 84.797 10.594 127.36 30.328-39.609 67.734-85.688 96.469-126-19.312-88.875-34.266-196.78 10.266-280.74 2.1562-3.5156 4.3594-6.8906 6.8906-10.125-40.453 88.594-29.391 190.36-11.297 283.22 28.219-37.594 55.688-75.891 81.328-115.27-16.359-53.906-30.469-121.97-8.2969-176.11-12.375 53.016-3.9844 117.14 13.312 168.32 20.812-28.969 41.25-59.062 59.391-89.672-6.5156-29.812 1.2188-84.75 11.578-113.72-3.8438 35.016-9.1875 70.172-6.0469 105.52 12.141-16.031 116.95-195.14 116.53-204.1-37.078 35.391-77.484 68.438-124.26 90.141-22.969 10.875-48.047 16.406-69.703 29.953-5.625 3.4219-13.781 10.734-20.016 11.766-5.4844-3.4688-2.6719-15.375-2.8125-21-13.172 3.0938-36.094 10.453-46.078 19.172-3.7969 3.2812-11.906 15.703-14.812 17.062-9.1406 3.0469-9.9375-22.359-10.359-27.938-24.516 10.453-48.281 19.078-59.109 45.609-1.6406 4.0781-2.9531 8.2969-3.9375 12.562 2.5312-3.2812 4.9688-6.6562 7.3125-10.078-38.297 82.172-48.422 174.61-36.938 264.05z"/>
 <path d="m345.19 990.84c-31.875 42.094-59.203 88.312-85.078 133.97 2.0156 6 4.4062 11.812 7.2188 17.438l0.9375 1.8281 0.79688 0.14062c17.25-39.469 35.203-79.406 58.547-115.92 3.7969-6.375 16.312-25.172 19.828-31.219 1.2656-2.3906-0.375-4.8281-2.2969-6.2344z"/>
 <path d="m1005.8 581.29c15.188-15.375 19.594-43.453 23.578-63.938-6.75 1.4531-19.266 4.9688-25.547 1.0781l-0.5625-1.3125c1.125-2.8125 7.7344-8.5312 10.125-12.469 6.75-11.297 8.3438-29.203 10.828-42.188-4.5938 1.6406-11.484 4.3125-16.359 2.7188l-0.75-0.79688c2.2969-6.8906 6.7969-13.125 9.1875-20.203 6.3281-18.516 5.4844-40.781 5.2969-60.141-6.9844 4.1719-13.641 6.6094-21.469 8.4844 1.8281-5.625 5.6719-10.266 7.3594-15.938 4.6406-15.375 0.9375-42.234-0.32812-58.734-1.3594 1.5469-2.7188 3.5156-4.6875 4.1719-2.0156-0.60938-2.5781-1.4531-3.6094-3.2812-5.3906-9.8906-6.9844-22.406-9.2344-33.375-10.734-51.891-14.156-99.844-9.6094-152.68 0.46875-5.7188 6.2344-46.219 5.9062-48.188-36.141 88.875-84.938 171.94-137.48 252.05 31.594-10.219 87.422-58.594 113.2-81.656-6.1406 17.766-62.859 61.078-79.828 72.562-12.188 8.2969-25.266 15.656-39.938 18.469-21.516 30.609-41.812 62.203-63.141 92.906 77.344-9 148.92-43.266 210.24-90.047-46.219 54.047-145.69 92.109-215.29 98.484-29.438 40.922-60 81.375-89.016 122.53 130.69 4.3594 219-61.312 320.53-132.61-8.9531 13.734-30.234 27.281-43.688 36.984-84.328 64.688-174.05 109.5-283.31 103.31-16.078 21.469-52.875 68.109-68.297 89.109 103.31-8.7188 210.94-18 304.69-65.906 29.25-15.234 54.656-36.938 81.562-55.5-95.625 105.38-258.05 122.68-392.72 129.74-26.344 33.984-52.688 68.062-79.594 101.62 75.891-18.703 154.87-10.453 231.89-20.672 85.453-12.094 170.29-46.125 235.31-103.64-19.875 31.828-88.5 68.297-123.14 82.078-34.266 13.5-70.172 22.688-106.5 28.594-78 13.359-159.32 2.25-236.06 22.969-16.641 3.2344-22.172 17.766-35.531 33.188-18.375 21.609-36.141 43.734-54.891 65.062 15.234-5.3438 30.094-10.266 45.891-13.922 46.781-8.7188 93.281-1.5938 140.06 3.2812 116.06 15.375 211.82-18.422 312.71-74.484-15.656 15.469-37.922 26.438-57.609 35.953-40.547 19.547-83.719 36.844-128.16 45.234-102.61 21.281-202.31-25.266-302.68 12.281-10.359 3.8906-22.781 8.3438-30.703 16.172-8.0156 7.875-16.453 19.125-23.297 28.219 48.234-9.5156 96.844-2.625 143.39 11.672 96.281 27.938 174.94 42.938 270.05-1.1719-7.5 7.4062-16.781 12.094-26.391 16.312-67.969 30.094-145.55 23.109-215.39 3.5625-60.188-17.391-123.61-34.875-185.39-14.625-5.2031 5.4375-9.9375 11.484-14.578 17.438 105.52-0.42188 192.94 64.5 289.6 96.562-27.281 0.75-58.078-12.891-82.875-23.484-69.281-29.438-135.56-65.156-213.42-61.641 33.234 56.625 83.531 107.3 147.14 127.82 31.125 9.6562 58.266 7.7344 89.812 3.4688-5.1562-5.625-17.438-18.188-4.3125-22.125 33.938 11.766 68.25 14.531 101.34-1.6875-4.3594-4.5469-15.891-13.453-15.703-19.781-0.14062-3.7031 3.3281-6.6094 6.8438-6.5625 5.5781 1.2656 11.531 1.6406 17.25 0.65625 21.188-2.8594 59.25-23.156 76.172-36.469-5.0625-1.7344-15-4.0781-17.391-9.1875-1.4531-3.0469 0.51562-6.8438 3.6094-7.9219 4.7812-1.6875 16.5-2.2031 23.062-3.7969 20.344-4.9219 39.891-17.812 56.297-30.469-7.3125-4.4531-27.844-13.078-27.328-22.969 0.5625-0.9375 1.0781-2.0625 2.2031-2.3906 5.0156-1.5469 14.906-1.3594 20.672-2.4375 20.062-2.8125 34.125-15.141 48.375-28.5-5.0156-2.1094-11.297-7.0781-8.25-13.125 5.7656-4.2188 12.703-6.2344 18.562-10.781 12.844-9.9375 39.328-44.812 47.812-59.391-9.5156-1.3125-18.797-2.8125-28.172-4.9688 27.469-16.125 46.781-41.109 62.859-68.016-7.9219 0.28125-23.578 4.6406-24.562-6.9375 0.65625-5.0156 16.969-17.109 21.516-21.609 12.375-12.141 22.125-27.094 27.375-43.688-7.4531 0.79688-16.922 2.4844-17.625-7.6406 4.3125-9.2812 12.609-16.172 18-24.844 12.516-20.156 17.859-43.734 23.859-66.422-14.156 1.5469-26.719 4.3594-39.656 10.453 4.5469-8.4375 13.312-14.484 19.969-21.234z"/>
 <path d="m308.81 759.32c-35.719-76.922-44.016-170.81-14.953-250.64l0.375 0.23437c-1.6406 24.703-11.109 50.25-11.438 75.469-3.8438 58.125 10.078 115.55 32.625 168.89 9.0938 20.109 20.344 39.188 29.719 59.203 16.922 37.688 27.703 76.5 33.516 117.42 7.4062-9.5156 23.484-26.531 30-36.469 23.672-68.719-11.297-144.42-28.078-211.31-28.594-101.95-31.172-238.13 55.547-313.13-67.266 67.781-76.031 174.84-58.406 264.32 14.344 74.438 61.828 167.81 46.312 243.79 20.766-27.609 45.516-52.406 67.031-79.594 8.4844-10.266 20.203-20.438 20.062-34.781 4.4062-33.703-0.70312-69.844-6.75-103.03-9.375-57.328-21.984-114.23-26.531-172.22-1.5938-59.906 9.1406-143.72 56.672-185.72-30.797 36.188-41.391 83.016-46.078 129.14-5.8125 45.984-0.1875 91.969 8.9062 137.11 9 58.453 31.359 134.02 23.531 192.89 18.562-23.625 63.234-76.875 80.625-100.17 3.2344-40.922-3.1406-82.078-8.4844-122.58-12.938-92.859-8.625-184.82 35.578-269.44-2.5312-7.9219-10.875-40.312-15.281-45-23.484 20.906-51.609 39.281-64.312 69.047-1.5469 1.7812-4.3594 2.5781-6.375 1.1719-4.6406-5.8125-9.8906-25.031-11.625-32.953-20.719 20.25-53.484 45-70.453 68.062-5.7656 8.25-7.875 18.562-12.375 27.375-1.0312 1.6875-1.9688 2.8125-3.8906 3.5156-1.2656-0.28125-1.2656-0.42188-1.9219-1.5-4.1719-6.75-8.0156-24.328-9.6562-32.484-19.5 22.312-42.047 41.484-60.656 64.734-6.4688 7.2188-10.969 15.844-13.688 24.984-0.70312 1.1719-1.2656 1.3594-2.4375 1.9219-9.2812-1.0781-11.344-15.375-14.531-22.5-20.859 25.359-49.781 51.047-54.75 84.984-0.32812 3.5625 1.125 17.531-0.046875 19.406-0.75 1.1719-1.9219 1.5469-3.1875 1.7812-9-2.8594-15.094-14.906-19.734-22.547-13.734 28.781-31.969 57.047-39.75 88.219-3.1875 10.734 0.5625 21.797-0.14062 32.484-4.1719 7.6406-15.562-7.7344-18.609-11.484-4.9688 23.906-12.656 50.859-4.0312 74.766 1.5938 4.4062 7.6875 12.234 3.7969 16.078-9.5625 1.9219-18.094-6.7969-25.922-11.156-0.70312 29.625 0.46875 74.25 21.703 96.797 2.3438 2.4844 5.5312 4.1719 5.5781 7.9219-0.60938 1.3594-0.70312 1.7812-2.1562 2.4375-5.1094 2.25-21.375-4.2188-26.812-6.1406 7.6406 100.03 76.172 164.76 159.84 210.1l6.6562-9c0.5625-54.281-28.641-102.28-63.844-141.42-28.359-33.75-57.75-67.078-74.531-108.42-1.3125-3.2344-5.1094-11.531-4.0781-14.953 35.109 84.328 122.02 129.98 146.81 219.94 3.0938 11.438 4.7344 23.062 6.4688 34.781 4.5469-5.625 9.7031-11.297 13.688-17.344-3.1875-65.344-30.141-125.63-59.578-183z"/>
</svg>
