<?xml version="1.0" encoding="UTF-8"?>
<svg width="1200pt" height="1200pt" version="1.1" viewBox="0 0 1200 1200" xmlns="http://www.w3.org/2000/svg">
 <path d="m895.87 305.86c0.84375-1.6406 2.0625-3.2812 3.375-5.0156 0.375-0.51562 0.79688-1.0781 1.1719-1.5938 1.0781 0.84375 2.25 1.5938 3.75 1.8281 28.5 11.156 59.156-2.4375 84.75-15.281 65.672-34.547 96.047-115.55 87.75-186.79-3.7031-26.109-3.2812-55.594-29.531-27.609-18.562 13.969-33.094 18.797-55.641 27.516-21.609 8.1562-44.719 13.5-64.172 26.391-16.547 11.203-29.109 27.469-37.781 45.281-12.516 25.875-16.125 55.594-11.906 83.953 1.7812 10.547 4.6406 21.797 10.031 31.266-1.7344 2.0625-3.0938 4.3125-3.8906 5.7656-9.3281 14.297-17.109 24.844-25.125 34.266-10.5 12.281-22.312 23.906-34.781 34.781 15.891-29.062 22.875-63.422 20.625-96.094-8.7656-71.906-62.578-127.45-118.31-168.84-8.8594-7.2656-26.25-15.797-26.906 2.6719-2.5781 26.625-8.6719 42.656-17.25 67.359-16.641 47.297-17.438 102.98 12.703 145.08 17.016 28.172 42.516 49.078 70.453 65.719 6.2812 4.4531 12.047 9.5625 17.578 14.906-12.656 8.1094-25.594 15.328-38.578 21.188-24.844 12.328-51.188 22.547-76.688 32.391-22.547 8.7188-45.562 17.766-67.875 28.312 18.844-69.281 7.4531-146.39-26.859-208.97-28.359-42.844-70.594-76.922-115.59-101.16-17.344-9.2812-20.25 4.125-21.375 18.656-4.4062 34.266-9.2344 68.859-8.6719 103.45 1.5 39.75 9.7031 79.828 29.438 114.66 17.906 31.734 45.375 57.797 76.547 76.359 10.359 6.2812 21.703 10.781 33.328 14.203-0.14062 0.09375-0.28125 0.14062-0.375 0.23438-68.016 38.719-125.44 100.83-165.56 178.13-7.7344-119.25-125.9-184.87-241.03-174.79-9.375 0.98438-18.797 1.9688-27.938 4.1719-4.9688 0.9375-9.8906 4.6406-9.5156 10.172 0.375 4.0312 3.1406 7.1719 5.3438 10.406 12.516 17.672 19.828 32.016 27.562 48.375 16.594 33.234 31.5 68.109 55.688 96.75 15.328 17.156 34.688 30.562 54.984 41.25 27.938 13.078 59.953 20.391 90.75 16.5 7.7344-1.2188 15.328-3.0469 22.688-5.6719-1.125 2.8125-2.2969 5.5312-3.375 8.3438-36.516 100.45-49.406 217.87-37.266 339.66 2.4375 17.531 5.25 37.453 10.828 56.578 0.75 1.7344 1.2656 3.7031 1.7812 5.8125 1.1719 4.6406 2.5312 9.8906 7.2656 12.891 1.1719 0.5625 2.4844 0.84375 3.75 0.84375 2.2031 0 4.4531-0.84375 6.2344-2.4375 2.7656-2.5312 3.75-6.1875 2.5312-9.5156-24.609-82.734-25.125-194.81-5.4844-296.58 13.688 36 44.156 64.359 76.875 85.594 56.109 39.609 132.47 60.141 197.26 29.812 23.391-10.781 46.031-26.578 56.859-50.766 7.3594-16.266-5.5312-17.953-17.578-22.266-25.969-10.078-42.562-20.484-62.812-35.766-24.188-19.031-47.297-40.312-75.75-52.922-42.844-17.625-90.891-24.234-136.69-16.219-8.4375 1.5938-16.688 3.9375-24.938 6.375 9.0938-32.297 20.25-62.719 33.609-89.531 17.906-36.094 38.109-67.453 61.734-94.922 9.8438 79.641 73.219 166.08 145.31 197.21 27.328 12.281 56.531 21.797 86.766 22.031 18-0.51562 37.125 1.9688 54.562-1.8281 7.2188-5.0156 4.5-15.422 4.4062-22.969-1.7812-23.719-7.2656-46.969-15.609-69.234-38.484-103.08-140.11-177.56-248.58-153.42 46.641-44.25 105.42-77.391 182.53-104.62 4.4531 49.641 35.344 95.203 73.641 125.72 48.516 35.578 112.45 52.172 170.48 31.781 22.125-6.75 42.844-17.25 64.406-25.594 6.2344-1.9688 12.984-8.0156 8.4844-14.812-41.297-39.516-71.203-91.312-126.56-120.19-27.609-14.766-58.406-23.062-89.672-24.703-11.859-0.75-23.719-0.51562-35.578 0.32812 36-17.531 73.359-40.641 104.77-72.703 15-14.438 29.25-31.875 42.469-52.078z"/>
</svg>
