<?xml version="1.0" encoding="UTF-8"?>
<svg width="1200pt" height="1200pt" version="1.1" viewBox="0 0 1200 1200" xmlns="http://www.w3.org/2000/svg">
 <path d="m1032 441.98c-6.8438-5.5781-13.594-10.875-20.953-15.094-17.953-10.266-37.875-14.672-58.359-18.656-9.1406-1.7812-18.188-3.1875-27.75-4.6406-1.4531-0.23438-2.9062-0.46875-4.3594-0.65625 24.844-2.9062 48.891-8.7188 71.484-17.25 11.156-4.2188 19.5-11.906 26.203-24.094 1.5938-2.8594 1.2656-4.875 0.75-6.0938-0.51562-1.125-1.6875-2.5781-4.4531-3.2344l-2.4375-0.5625c-6.9375-1.6406-14.156-3.375-21.375-3.8906-6.8906-0.46875-14.016 0.046875-20.859 0.5625l-10.828 0.75c-19.406 1.3594-39.469 2.7188-59.203 4.5-8.9062 0.79688-17.906 2.0156-26.625 3.2344 0.9375-0.32812 1.875-0.65625 2.7656-0.98438 4.3125-1.5469 8.8125-3.1406 13.172-4.9219 33.797-13.969 62.344-29.344 87.281-47.062 9.2812-6.6094 17.812-14.578 26.016-22.266 2.9062-2.7188 5.8594-5.4844 8.8125-8.1562 1.5938-1.4531 2.7656-5.0156 1.875-7.0781-0.9375-2.1094-4.3125-3.1875-6.4219-3.2812-2.1094 0.09375-4.2188 0.14062-6.2812 0.23438-8.0625 0.23438-16.406 0.51562-24.562 1.7812-26.625 4.0781-54.141 12.984-86.531 27.984-5.7188 2.625-11.484 5.2031-17.25 7.7812l-1.4062 0.60938c1.5938-1.6406 3.2812-3.2344 4.875-4.8281l1.5938-1.5 63-61.172c5.1094-4.9688 10.875-10.594 16.312-16.406 1.3594-1.5 2.1094-4.9688 0.9375-6.7969-1.125-1.8281-4.6406-2.3438-6.4688-1.9688l-3.1875 0.75c-7.1719 1.6875-14.625 3.4688-21.703 5.9062-28.547 9.8438-54.938 24.891-80.719 46.031-6.7031 5.5312-13.406 11.25-19.875 16.828-0.98438 0.84375-1.9219 1.6406-2.9062 2.4844 16.641-25.969 33.234-54.234 44.531-85.312 8.4375-23.344 10.219-47.297 10.828-69.703 0.09375-2.7656-0.84375-4.8281-2.5312-5.8125-1.6875-0.9375-3.7969-0.70312-6.0469 0.70312-10.312 6.4219-18.516 13.781-25.172 22.453-15.844 20.719-28.875 44.625-39.844 73.125-2.8125 7.2656-5.8125 14.578-8.7656 21.75 0.32812-1.5 0.70312-3.0469 1.0312-4.5 8.6719-36.234 10.453-68.578 5.4375-98.906-0.79688-4.9219-2.8594-10.312-6.3281-16.547-1.9219-3.4688-4.125-4.2188-5.625-4.2188-1.6875-0.14062-3.8438 0.70312-6.0469 4.3125l-3 4.9688c-4.6406 7.6406-9.4219 15.516-13.078 23.812-11.906 27.141-19.125 55.969-21.422 85.781-0.28125 3.8906-0.70312 7.8281-1.125 11.719-0.51562-4.5-0.9375-8.9531-1.4062-13.312-0.46875-4.9219-0.98438-9.7969-1.5469-14.719-3.75-32.578-12.094-64.359-24.797-94.406-0.79688-1.8281-2.7656-4.6875-5.0625-5.0156-2.0156-0.28125-5.3906 1.5938-6.4219 3.6562-6.4688 13.266-12.422 26.391-14.016 41.062-0.5625 5.3438-0.84375 10.688-1.1719 16.406-0.046875 1.0781-0.09375 2.1562-0.1875 3.2812l-2.2031-4.1719c-8.2031-15.375-20.062-29.438-36.188-42.984-3-2.5312-5.25-2.4375-6.5156-1.875-1.2188 0.51562-2.7656 1.8281-3.0938 5.25-1.5 16.219-2.625 32.109 0.75 48.047 1.3125 6.1406 2.8125 12.375 4.3125 18.422l0.84375 3.375c-0.9375-0.89062-1.875-1.7812-2.8125-2.7188-5.0156-4.7812-9.75-9.2812-14.812-13.641-6.375-5.4844-12.281-9.9844-18.094-13.688-3.1875-2.0625-5.3906-1.3594-6.375-0.79688-1.875 1.0781-2.8594 3.375-2.7656 6.5156 0.84375 28.266 6.0938 50.672 16.5 70.547 4.0781 7.7812 8.3906 15.188 12.984 23.062 1.0312 1.7344 2.0625 3.5156 3.0938 5.25-0.046875-0.046875-0.14062-0.09375-0.1875-0.14062-3.9375-2.625-7.6406-5.1094-11.531-7.4062-15.938-9.4219-32.953-13.406-50.484-12-3.9375 0.32812-6.4688 1.4062-7.6875 3.375-1.0312 1.6406-1.0781 3.75-0.09375 6.2812 4.7812 12.656 10.875 27.047 22.5 37.781 17.062 15.75 34.922 31.547 53.109 46.922 18.984 16.031 39.984 30.094 62.438 41.766 5.9531 3.0938 12.141 6.0469 18.094 8.9062 2.2031 1.0312 4.4062 2.1094 6.6562 3.1875-0.5625 0.5625-1.125 1.125-1.7812 1.6406-19.828 16.781-36.609 36.328-49.922 58.172-24.094 39.656-42.047 81.375-53.297 123.98-2.7656 10.5-4.7344 21.469-6.6562 32.062-0.84375 4.5938-1.6406 9.1875-2.5312 13.828h-34.781l-0.70312-5.625c-0.60938-5.0625-1.1719-9.8906-2.25-14.719-2.9531-13.547-9.75-25.547-16.266-37.125-1.0312-1.875-2.1094-3.75-3.1406-5.625l-1.4531-2.5781c-4.0781-7.1719-7.875-13.922-6.6562-22.688 1.6875-12.281 7.875-22.172 18.938-30.281 6.0469-4.4531 12.281-8.8125 18.328-13.031 7.7344-5.3906 15.75-10.969 23.391-16.781 8.3906-6.375 18.797-14.344 23.859-26.109 4.2656-9.8906 8.0625-20.203 11.719-30.141 1.5-4.0312 2.9531-8.0156 4.4531-12.047 0.46875-1.2656 0.9375-2.7188 0.79688-4.1719l-0.09375-1.1719c-0.14062-2.1562-0.28125-4.5469-1.7812-5.8594-1.9688-1.6875-5.8594-0.98438-7.4062-0.60938-2.8125 0.70312-5.4375 2.1094-7.4062 3.2812-12.094 7.0312-25.125 11.719-39.844 14.297-11.156 1.9688-21 6.0469-29.297 12.234-17.484 13.031-25.172 31.641-22.219 53.859 2.3906 17.766-0.89062 33.984-4.7344 47.719l-56.062-62.906c1.6406-1.1719 3.3281-2.3438 5.0156-3.5625 4.9688-3.5156 10.078-7.1719 15.375-10.5 3.1406-1.9688 6.6094-3.75 9.9375-5.4844 5.7656-3 11.719-6.0938 16.594-10.406 16.172-14.25 21.797-33.938 16.641-58.641-2.1094-10.031-4.0312-20.297-5.9062-30.234-1.3125-7.0312-2.625-14.062-4.0312-21.094-0.32812-1.6406-1.6406-4.2656-3.5625-4.9688-1.7812-0.60938-4.7812 0.32812-6.0469 1.875-3.1875 3.9375-5.6719 7.5938-7.6406 11.109-2.7188 4.875-5.3438 9.75-7.9688 14.672-4.2188 7.9219-8.5781 16.078-13.266 23.859-2.3438 3.8906-5.25 7.5938-8.1094 11.156-2.625 3.2812-5.3438 6.7031-7.5938 10.312-8.1094 12.844-15.844 28.5-11.719 47.109 0.79688 3.6562 0.89062 7.5 0.98438 11.906 0 1.125 0.046875 2.2969 0.09375 3.5156-1.1719-0.89062-2.0156-1.5938-2.8594-2.2969-21.469-18-37.078-41.203-47.672-70.969-2.5312-7.125-0.42188-12.141 6.375-15 6.5625-2.7656 13.406-5.2969 20.016-7.7812 7.4531-2.7656 15.141-5.625 22.547-8.8125 31.312-13.594 49.641-32.156 57.656-58.453 1.9688-6.4219 4.0312-12.797 6.1406-19.219 2.2031-6.75 4.4062-13.547 6.4688-20.344 0.70312-2.25 0.375-5.9062-1.3125-7.8281-1.5938-1.8281-5.9062-1.3594-7.7344-0.51562l-3.75 1.7812c-19.312 9.0469-39.281 18.422-58.688 28.125-16.031 8.0156-26.578 18.188-32.344 31.078-3 6.75-5.25 13.875-7.4531 20.766-0.75 2.3438-1.5 4.6406-2.25 6.9375-3 9.0938-6.2812 17.859-12.75 25.781l-0.28125-1.125c-0.60938-2.4844-1.1719-4.7344-1.6875-6.9844-6.4219-30.047-6.6562-60.75-6.3281-92.25 0.046875-4.0781 1.6875-5.0625 4.3125-5.3438 6.0938-0.65625 13.219-1.3125 20.297-1.3594 28.078-0.14062 51.797-10.125 70.453-29.766 13.359-14.016 21.609-31.078 27.281-44.391 0.9375-2.2031 2.1562-6.75 0.5625-9.75-1.875-3.5625-5.7656-4.4531-11.484-2.7188-6.8906 2.1094-13.125 4.125-19.078 6.1406l-2.25 0.75c-12.375 4.2188-25.172 8.5781-38.578 9.375-6.8906 0.42188-13.312 2.8594-19.688 7.4531-10.172 7.3594-15.703 17.906-21.047 28.125l-1.7344 3.2812c-2.25 4.2656-4.4062 8.5781-6.5625 12.891l-1.4531 2.9062v-0.375l0.75-17.438c0.51562-12.656 1.0312-25.359 1.5469-38.016 0.14062-3.2812 1.6875-5.4844 4.9688-6.9844 1.4062-0.65625 2.9062-1.2188 4.4062-1.7812 3.0469-1.1719 6.2344-2.3906 8.9062-4.3594 25.172-18.797 50.672-43.547 49.219-84.75-0.42188-12.047 1.4062-22.125 5.625-30.844 0.9375-1.9688 0.70312-5.25-0.5625-7.0312s-5.0625-1.4062-6.7031-0.84375c-8.9531 3.1406-19.547 6.9375-30.328 11.156-1.4062 0.5625-2.8125 1.0781-4.2188 1.5938-9.75 3.7031-19.875 7.5469-26.625 16.453-5.625 7.4062-10.781 15.281-15.797 22.922-1.7812 2.7188-3.5625 5.3906-5.3438 8.0625-13.125 19.641-12.75 43.828 0.9375 63.234 3.8438 5.4375 5.625 10.922 5.5312 16.828-0.09375 6.5156-0.28125 12.984-0.46875 19.5l-2.7188 87.375c-1.2656-3.9375-2.3438-8.2969-3.4688-13.359-5.25-24.656-18-43.641-37.875-56.484-7.2188-4.6875-14.438-9.4219-21.609-14.156-3.7969-2.5312-7.5938-5.0156-11.391-7.5l-5.5781-3.6562c-6.1875-4.0781-12.609-8.2969-19.031-12.281-1.875-1.125-5.625-2.0625-7.5469-0.65625-2.0156 1.4062-2.0156 5.5312-1.6875 7.3125 1.0312 5.4844 2.1562 10.969 3.2812 16.453 1.3125 6.3281 2.625 12.844 3.75 19.266 3.2344 18.188 8.1094 39.422 19.781 59.016 9.375 15.703 19.406 24.141 32.578 27.328 10.922 2.6719 22.172 4.5938 33.047 6.4688l6.2812 1.0781c5.5312 0.98438 10.969 6.1875 12.094 11.672l0.28125 1.3125c2.8125 13.594 5.7188 27.609 9.1875 41.297 1.5 5.9531 3.5625 11.766 5.625 17.391 0.32812 0.9375 0.65625 1.9219 1.0312 2.8594l-2.6719-1.9688c-4.8281-3.5625-9.7969-7.2656-14.859-10.734-4.3125-2.9531-8.7188-5.7656-13.125-8.625-5.5781-3.5625-11.344-7.2656-16.781-11.156-15.656-11.156-30.094-16.359-45.375-16.453h-1.5c-12.656-0.046875-25.688-0.09375-37.078-7.2188-1.5938-1.0312-5.0625-0.5625-6.4219 0.84375s-1.3125 3.9844-1.0781 5.9062c0.1875 1.5 0.9375 2.9062 1.6406 4.125l0.32812 0.60938c1.4531 2.6719 2.8594 5.3906 4.2656 8.1094 3.6094 6.9375 7.3125 14.062 11.484 20.812 4.3125 6.9844 8.5781 12.047 13.078 15.516 7.9219 6.0938 16.359 11.719 24.562 17.156 3.2344 2.1562 6.4688 4.3125 9.7031 6.5156 15 10.172 29.25 11.625 43.547 4.4062 4.6406-2.3438 9.6094-4.2188 14.484-6.0469 1.4531-0.5625 2.9062-1.125 4.4062-1.6875 11.156-4.3125 19.5-1.5 26.344 8.7656l1.2188 1.875c4.4062 6.6094 9 13.5 14.578 19.266 7.1719 7.4062 14.812 14.531 22.219 21.469 3.8906 3.6094 7.7344 7.2188 11.531 10.875 2.625 2.5312 5.1562 5.1562 7.6875 7.8281 0.23438 0.28125 0.46875 0.51562 0.75 0.75-1.125-0.28125-2.1562-0.65625-3.2812-1.0312-4.5469-1.6875-9.0938-3.4219-13.688-5.1562-9.375-3.5625-19.078-7.2188-28.688-10.594-13.875-4.875-30.094-9.7969-47.062-6.3281-13.734 2.8125-27.562 6.375-40.922 9.8438l-10.969 2.8125c-1.8281 0.46875-4.125 2.4375-4.4531 4.4531-0.32812 1.9219 1.1719 4.5 2.7188 5.625 1.6875 1.1719 3.4688 2.2031 5.1562 3.1875 2.0156 1.1719 3.8906 2.25 5.625 3.5625 8.625 6.6562 20.016 15.469 31.312 24.797 8.4844 7.0312 20.203 14.906 36.094 13.5 4.8281-0.42188 9.8438-0.375 14.672-0.32812l4.1719 0.046875h0.09375c15.469 0 27.328-5.0625 36.141-15.516 3.1406-3.7031 6.8438-7.0781 10.5-10.312l0.75-0.65625c5.0625-4.5 13.594-4.7812 17.578-0.5625 18.375 19.359 32.297 38.25 42.609 57.75 2.7188 5.2031 5.5312 10.359 8.3906 15.469l0.51562 0.9375c-11.062-11.297-22.5-22.922-36.984-30.75-21.656-11.672-39-13.406-56.297-5.5312-2.8125 1.2656-5.8125 2.3906-8.7188 3.4688-1.6875 0.60938-3.375 1.2656-5.0625 1.9219l-3.8438 1.5469c-9.8438 3.9375-20.016 8.0625-30.938 8.9062-4.125 0.32812-8.1562 1.5469-12.281 2.8594-1.7344 0.5625-3.8906 2.6719-3.8906 4.5469 0 1.9688 1.3594 4.4062 3 5.3906 2.4844 1.4062 4.9219 2.9062 7.4062 4.3594 14.531 8.625 29.531 17.484 47.297 20.672 7.4531 1.3125 14.766 4.7344 21.844 8.0156 2.625 1.2188 5.25 2.4375 7.875 3.5625 12.891 5.4844 28.219 9.5625 44.25-1.5469 5.2969-3.6562 12.281-5.25 19.078-6.75l2.0156-0.46875c6.375-1.4531 16.406 3.5625 17.812 9 1.2188 4.5938 1.7812 9.375 2.3906 14.438 0.1875 1.7344 0.42188 3.4688 0.65625 5.25l-1.2656 0.09375c-1.5 0.09375-2.6719 0.1875-3.8438 0.23438-9.4219 0.23438-18.844 0.42188-28.219 0.60938-2.0156 0.046875-4.2656 0.28125-5.7188 1.8281-1.0312 1.0781-1.5 2.5781-1.4062 4.5469 0.75 19.734-6.375 37.359-22.406 55.547-12.281 13.922-26.953 24.188-45.234 35.25-38.344 23.25-62.203 54.844-72.891 96.609-17.062 66.562-23.25 133.22-18.375 198.05 2.2969 30.516 14.438 54.141 36.094 70.219 14.625 10.828 32.25 19.125 55.453 26.062 28.219 8.4375 57.094 10.359 84.094 11.156 13.594 0.42188 26.812 0.60938 39.703 0.60938 46.219 0 88.078-2.625 127.08-7.9219 23.625-3.2344 46.641-11.25 68.438-23.859 26.906-15.562 42-40.547 44.812-74.297 5.25-62.344-0.09375-126.47-15.844-190.6-3.4219-13.922-8.5312-32.062-17.766-48.938-10.406-19.078-26.25-35.812-48.375-51.094-4.0312-2.7656-8.0625-5.4844-12.141-8.1562-9.9844-6.6562-20.344-13.5-29.625-21.281-24.797-20.812-35.859-42.375-34.734-67.922 0.09375-1.6406-0.375-3-1.2656-3.9375-1.5-1.5938-3.8438-1.8281-5.9062-1.875l-4.5469-0.09375c-7.5469-0.14062-15.094-0.28125-22.641-0.46875-1.9688-0.046875-3.8906-0.1875-6.0469-0.32812l-1.5469-0.09375c0.09375-1.0312 0.14062-2.0156 0.1875-3 0.1875-3 0.32812-5.8125 0.75-8.5312 3.7969-24.188 9.4219-45.797 17.156-66.141 11.859-31.312 27.141-67.688 50.297-100.31 14.344-20.25 29.953-36.516 47.625-49.594 0.375 0.60938 0.75 1.1719 1.125 1.7812 1.4062 2.2031 2.7656 4.2656 3.9375 6.4688 5.1562 9.6094 13.031 17.812 24.094 25.031 11.812 7.6875 23.578 15.375 35.391 23.109 25.312 16.547 50.625 33.094 75.984 49.5 13.594 8.8125 32.016 18.703 54.375 16.828 6.6094-0.51562 9.1875-3.3281 8.8594-9.6562-0.42188-8.3906-2.8125-14.344-7.5-18.75l-8.7188-8.25c-12.422-11.766-25.266-23.906-38.25-35.484-5.7188-5.1094-12-9.7969-18.047-14.297-1.4062-1.0781-2.8125-2.1094-4.2656-3.1875l28.453 4.2188c28.219 4.1719 57.375 8.4375 86.062 12.938 16.406 2.5781 31.828-0.09375 47.062-8.0625 3.4219-1.7812 5.2031-3.7969 5.4375-6.1406 0.23438-2.2969-1.0781-4.5938-4.0312-6.9844zm-249.89-0.1875c-9.75-6.2812-19.031-12.234-24.75-22.312 7.125 3.8906 14.203 7.7812 21.281 11.625 19.312 10.5 37.5 20.438 55.922 30.938 34.688 19.828 65.109 39.703 92.906 60.797 1.3594 1.0312 2.6719 2.1094 4.2656 3.4219-9 0.14062-16.359-1.3125-22.922-4.6875-12.75-6.5625-25.688-14.016-38.484-22.172-22.969-14.672-46.125-29.906-68.531-44.625l-15.656-10.312c-1.3594-0.89062-2.7188-1.7812-4.0781-2.625zm133.03-211.87c-57.562 38.25-110.25 89.672-164.53 160.6 5.5781-21.094 17.062-40.688 35.109-59.906 31.031-33.094 56.953-56.344 83.953-75.422 14.672-10.359 29.906-18.844 45.469-25.266zm14.484-1.5469c-0.75 0.79688-1.4531 1.6406-2.2031 2.4844-5.25 5.9062-11.156 12.562-17.531 18.656-13.406 12.891-27.188 25.828-40.5 38.297-12.281 11.531-24.562 23.062-36.703 34.688-7.5 7.1719-14.953 14.672-22.125 21.938-7.6406 7.6875-15.516 15.609-23.484 23.156-6.0469 5.7656-12.703 11.156-19.172 16.312-2.4844 2.0156-4.9688 3.9844-7.4062 6-0.42188 0.32812-0.84375 0.65625-1.3594 0.98438 24.234-43.172 135.19-145.55 170.48-162.61zm-91.734 182.76c0.375-0.046875 0.70312-0.09375 1.0312-0.14062 11.906-1.3594 24.188-2.7656 36.516-3.4688 5.9531-0.375 12.188 0.65625 18.234 1.5938 2.2969 0.375 4.5938 0.75 6.8906 1.0312 28.453 3.6562 57.844 7.4531 85.688 16.5 12.422 4.0312 22.5 9.1406 30.797 15.609-59.484-15.609-120.89-24.328-179.21-31.078zm41.062-13.734c-17.203 1.7344-34.969 3.5625-52.453 4.875-12.516 0.9375-25.312 1.125-37.734 1.3594-3.8438 0.046875-7.6406 0.14062-11.438 0.1875 65.906-15.469 132.89-25.688 197.76-35.578l30.375-4.6406c-4.0781 5.7656-8.7188 9.5625-14.484 11.906-24.094 9.7969-51.469 16.078-83.766 19.078-9.4219 0.89062-18.797 1.8281-28.219 2.8125zm88.359-35.391c-66.094 10.547-134.44 21.469-200.81 37.266l3.4219-1.5c4.6875-2.1094 9.4219-4.1719 14.062-6.3281 47.344-21.797 96.938-27.141 152.26-31.453 15.094-1.1719 30.562-1.7344 45.469-2.25l8.7656-0.32812h0.9375c1.125 0 2.25 0.09375 3.4688 0.1875-9.1875 1.5-18.422 2.9531-27.609 4.4062zm-161.53 9.4219c67.359-45.984 127.87-76.172 189.56-94.547-2.4844 1.9688-4.9219 3.9844-7.4062 6-7.0312 5.7188-14.297 11.625-21.984 16.547-31.078 19.922-57.703 33.797-83.719 43.688-19.688 7.5-39.797 14.859-59.25 21.984-5.7188 2.1094-11.484 4.2188-17.203 6.3281zm-1.6406-7.0312c1.6406-1.5938 3.3281-3.1875 4.9688-4.7812 6.75-6.4219 13.688-13.031 20.109-19.969 11.297-12.141 25.312-19.5 41.203-27.234 26.625-12.891 52.781-25.078 80.578-32.109 7.5469-1.9219 15.469-3.5625 24.188-5.0625-56.719 19.969-112.92 49.219-171.1 89.109zm-15.141 64.031c-8.5781-4.7812-17.156-9.5156-25.688-14.297 33.188 4.6875 61.453 14.719 86.156 30.656 30.75 19.781 56.672 44.062 80.109 67.359 1.5469 1.5 2.7656 3.375 3.75 5.3906-45.562-34.219-95.766-62.109-144.32-89.062zm25.406-12.328c73.594 6.0938 139.92 17.25 202.5 34.031-7.875 3.0469-16.969 5.3906-26.812 4.0312-11.344-1.6406-22.688-3.3281-34.078-5.0156-23.953-3.5625-48.703-7.2188-73.125-10.406-19.875-2.5781-39.609-8.9062-62.203-19.969-2.0625-0.98438-4.1719-1.875-6.2812-2.6719zm-62.812-103.55c0.32812-37.969 2.0625-82.547 12.656-125.48 4.5469-18.375 10.453-33.984 18.047-47.672-2.8125 15.844-5.8125 31.781-8.7188 47.25-8.5781 45.375-17.391 92.156-21.562 139.22-0.23438-4.4531-0.42188-8.9062-0.375-13.359zm36.328-85.547c-7.3125 32.156-16.781 65.062-28.969 100.59 4.0312-49.781 13.781-99.375 23.203-147.37 3.1406-15.938 6.375-32.391 9.3281-48.656 0.46875 2.25 0.98438 4.5469 1.3125 6.8438 4.0312 27.469 2.4375 56.484-4.875 88.641zm39.938 26.531-0.5625 1.0312c-11.062 19.359-24.328 38.578-41.391 59.906 12.562-25.312 24.375-51.188 35.859-76.359 14.25-31.219 28.922-63.469 45.047-94.5-0.46875 15.094-3.0938 30.328-7.8281 45.281-7.3125 22.969-19.406 44.156-31.125 64.688zm-50.109 56.953c3.9375-9.8438 7.875-19.688 11.766-29.531 12.141-30.609 24.703-62.25 38.016-92.953 7.9688-18.469 18.703-34.406 31.875-47.484-12.609 25.219-24.422 51.188-35.812 76.359-15.094 33.328-30.703 67.594-48.375 100.55 0.79688-2.3438 1.6406-4.6406 2.5312-6.8906zm-195.94-27.562 147.98 117c-0.9375-0.28125-1.7812-0.5625-2.625-0.9375-26.203-12.141-46.406-24.141-63.469-37.781-15.797-12.609-31.359-26.062-46.453-39.094l-17.297-14.906c-7.125-6.0938-12.938-13.875-18.141-24.328zm136.45-20.016c1.5 9.375 3 18.75 4.4062 28.172 2.6719 17.859 6.1875 35.859 9.5625 53.297 0.9375 4.9219 1.9219 9.8906 2.8594 14.812-0.70312-2.1562-1.4062-4.3594-2.0625-6.5156-13.312-45.234-22.078-90.281-28.922-128.44-4.5-25.312-5.0625-46.078-1.6875-65.391 0.79688-4.6875 2.2969-9.3281 3.75-13.875 0.046875-0.14062 0.09375-0.32812 0.14062-0.46875-0.65625 40.078 5.7656 79.875 11.953 118.41zm-13.5 15.609-45.609-125.06c0.70312 0.84375 1.4531 1.6406 2.1562 2.4844 4.0781 4.6406 8.2969 9.4688 11.812 14.578 11.672 17.109 18.703 35.109 21.516 55.078 2.3906 17.109 6.0938 34.266 9.7031 50.906l0.42188 1.9688zm-53.109-122.34c4.8281 12.891 9.9375 25.828 14.906 38.344 10.688 26.953 21.656 54.75 30.188 83.109-0.375-0.65625-0.75-1.3125-1.0781-1.9688-5.2969-9.5625-10.781-19.5-17.25-28.5-14.109-19.688-22.641-43.266-26.766-74.297-0.75-5.4375-0.46875-10.969 0-16.688zm69.656 195.89 3.5625 7.9219c0.09375 0.1875 0.1875 0.375 0.23438 0.5625-27.422-30.422-96-136.87-105.56-167.34l6.0469 5.7656c6.9375 6.5625 14.109 13.406 20.438 20.672 25.734 29.484 43.5 63.938 57.516 93.75 6.0469 12.844 12 25.969 17.719 38.672zm-44.484-45.562c4.0781 6.0469 8.1562 12.094 12.188 18.141-40.734-32.766-64.688-71.719-72.938-118.55 16.969 35.578 39.188 68.484 60.75 100.41zm23.109 42c10.922 10.078 24.469 23.906 32.625 41.766 0.60938 1.3594 1.0312 2.8125 1.5 4.4062l-154.6-122.44 0.09375-0.14062c8.3438-0.5625 16.406 0.60938 24.656 3.5156 11.953 4.1719 23.344 10.875 34.734 20.438l11.297 9.4219c16.547 13.828 33.656 28.125 49.781 42.984zm38.578-8.4375c-10.641-50.016-17.438-101.11-23.203-148.87-1.5469-12.797-1.8281-25.969-2.0625-38.719-0.09375-5.25-0.23438-10.547-0.42188-15.797 0.28125 0.60938 0.5625 1.1719 0.84375 1.7812 11.625 29.203 18.562 61.219 21.188 98.016 2.0156 28.5 3.3281 57.516 4.5938 85.594 0.46875 9.7969 0.89062 19.594 1.3594 29.344-0.75-3.7969-1.5-7.5469-2.2969-11.344zm-62.016 619.08c-0.28125 0.09375-0.51562 0.23438-0.75 0.42188-0.28125 0.28125-0.42188 0.70312-0.375 1.0781 0.75 15.094-3.3281 29.625-12.469 44.438-4.125 6.7031-9.8906 11.672-17.625 15.281-26.625 12.328-55.641 13.125-86.25 2.25-13.5-4.7812-23.625-15.047-28.547-28.875-13.031-36.703-12.656-69.234 1.2656-99.375 9.75-21.094 27.281-33.844 52.219-37.969 4.6406-0.75 9.2344-1.125 13.781-1.125 19.172 0 36.984 6.9375 53.109 20.625 12.891 10.969 19.781 23.203 21.094 37.359 1.0312 10.922 2.1562 21.844 3.2344 32.766l1.3125 13.078zm-38.391-529.6c-0.1875 0.65625-0.42188 1.2656-0.65625 1.9219-0.9375 2.4375-1.9219 4.875-2.8594 7.2656-1.875 4.6406-3.7969 9.4688-5.3906 14.344-4.9688 14.953-16.172 24.375-29.25 34.266-9.1875 6.9375-18.984 13.547-28.453 19.969-3 2.0156-6 4.0312-9 6.0938 9.0938-23.812 21.328-40.641 38.25-52.781 9.3281-6.6562 18.094-14.344 26.625-21.75 3.5625-3.0938 7.125-6.2344 10.734-9.2812zm-7.7344-0.9375-7.4531 6.1875c-8.4375 7.0312-17.203 14.297-26.25 20.766-17.344 12.422-29.625 28.266-37.547 48.562-1.4062 3.5625-3 6.8906-4.875 10.031-0.09375-2.25-0.28125-4.5-0.375-6.75-0.51562-8.2969-1.0781-16.875-0.32812-25.172 1.875-21 14.25-35.344 35.766-41.438 13.219-3.75 26.625-7.7344 39.234-11.531 0.65625-0.1875 1.3125-0.42188 1.9219-0.70312zm-141.74 34.031c3.8438-8.0156 7.9688-16.031 12-23.766 11.906-22.969 24.188-46.641 28.969-73.219 0.51562 2.0625 1.0781 4.1719 1.5938 6.2344 2.625 9.9844 5.2969 20.297 6.2812 30.562 1.9688 20.672-5.2031 35.766-21.234 44.859-7.2656 4.125-14.531 8.1562-21.938 12.234l-5.625 3.1406zm25.688-68.859c-9.0938 20.156-19.312 41.062-32.906 67.359-0.1875-1.4531-0.375-2.9062-0.5625-4.3125-1.3594-9.7969-2.6719-19.078 1.6875-28.594 4.2188-9.2812 10.172-17.484 15.938-25.453 2.4844-3.4219 4.9688-6.8438 7.3125-10.359 4.6406-6.8906 8.6719-14.391 12.516-21.609 1.3594-2.5312 2.7188-5.0625 4.0781-7.5938-0.5625 9.8906-3.1406 19.547-8.1094 30.516zm-24-51.188-1.3594 1.0312c-12.984 9.9375-27.703 15.234-43.312 20.812-2.9062 1.0312-5.8594 2.1094-8.7656 3.1875 19.031-24.656 42-45.797 64.219-66.281 8.2969-7.6406 16.875-15.562 25.172-23.578-1.3594 3.7031-2.6719 7.4062-4.0312 11.109-3.8438 10.688-7.8281 21.75-12.234 32.438-3.7969 9.1875-11.859 15.375-19.688 21.328zm26.156-65.438c-7.5469 7.3594-15.328 14.578-22.875 21.656-21.375 19.969-43.406 40.547-61.828 64.312l2.3906-7.2188c2.8125-8.4844 5.5781-16.969 8.4844-25.406 4.125-11.906 11.625-21.188 21.844-26.766 12.891-7.0781 26.297-13.734 39.281-20.156 4.2188-2.1094 8.4844-4.2188 12.703-6.3281zm-50.391-172.74c0.28125 14.062-4.4062 26.906-14.297 39.234-7.7812 9.7031-16.266 18.609-25.125 26.484-4.5 3.9844-10.406 6.375-16.688 8.8594l-0.375 0.14063c8.3906-40.922 32.625-72 57.469-100.22-0.09375 1.9688-0.1875 3.8906-0.32812 5.8125-0.375 6.8438-0.75 13.312-0.65625 19.734zm-4.9219-29.109c-24.141 27.656-49.594 60.469-59.109 102.28-5.4375-6.6562-7.5938-14.391-8.9062-21.234-2.0625-10.734 0.09375-20.719 6.6094-30.562 5.2031-7.8281 10.125-15.75 14.859-23.391 5.7188-9.2812 14.203-15.797 25.828-20.016 5.6719-2.0625 11.344-3.9375 17.344-5.9531 1.125-0.375 2.25-0.75 3.375-1.125zm-0.60938 156.98c5.0625-2.8125 10.312-5.7656 15.375-8.8125 8.1562-4.875 15.891-10.641 23.438-16.172 3.6562-2.7188 7.3594-5.4375 11.062-8.0625 1.3125-0.9375 2.6719-1.7812 4.125-2.6719-18.469 42.094-49.406 62.344-91.875 60.328 11.625-9.8906 24.984-17.391 37.922-24.609zm45.234-38.062c-0.5625 0.42187-1.1719 0.84375-1.7344 1.3125-5.3438 3.9844-10.875 8.1094-16.5 11.812-6.2812 4.0781-12.797 8.0156-19.125 11.812-4.8281 2.9062-9.6562 5.8125-14.391 8.8125-7.4062 4.6875-14.859 9.5625-22.078 14.344l-8.8594 5.8125c-1.6875 1.125-3.3281 2.1562-5.1562 3.0938 0.28125-0.5625 0.51562-1.125 0.79688-1.7344 1.7812-3.7969 3.6094-7.7344 5.6719-11.391 0.9375-1.6406 1.8281-3.3281 2.7188-5.0156 3.8438-7.2188 7.4531-14.062 14.016-19.125 4.4531-3.4688 9.4688-6.7031 15.703-7.0781 17.016-1.0312 32.719-6.7031 47.906-12.234 0.32812-0.14062 0.70312-0.23437 1.0312-0.375zm-151.31 124.69c-12.234-2.5312-20.906-7.9688-27.281-17.203-14.578-21-19.969-44.344-23.297-64.406-0.79688-4.8281-1.6406-9.7031-2.4844-14.531l-0.375-2.1094c1.3594 1.8281 2.7188 3.6562 4.125 5.4844 4.9219 6.5156 9.9844 13.219 14.203 20.25 14.766 24.609 32.906 47.109 55.453 68.812 2.625 2.5312 5.4375 4.9688 8.1562 7.3594 0.9375 0.79688 1.8281 1.5938 2.7188 2.3906l-0.09375 0.1875c-0.98438-0.14062-1.9688-0.28125-2.9062-0.375-2.8594-0.375-5.8594-0.75-8.7188-1.3594-3.2812-0.65625-6.5625-1.4531-9.8438-2.25-3.1875-0.75-6.4219-1.5469-9.6562-2.2031zm29.625-5.7188c-5.3906-5.0156-11.062-10.312-16.781-15.516-15.188-13.734-26.531-30.984-37.5-47.672-1.5469-2.3906-3.1406-4.7812-4.6875-7.125-4.125-6.2344-8.6719-12.375-13.078-18.281-1.9688-2.6719-3.9375-5.3438-5.9062-8.0156 0.60938 0.46875 1.2656 0.89062 1.875 1.3594 4.5938 3.2812 9.375 6.7031 14.203 9.8906 6.7031 4.4531 15.609 10.266 24.75 15.703 17.016 10.125 28.172 25.219 34.078 46.172 2.1094 7.5469 3.75 15.094 5.3438 22.359 0.28125 1.4062 0.60938 2.7656 0.89062 4.125zm-24.516 117.7c-4.6875-1.5469-9.6094-4.0312-14.766-7.3125-4.4062-2.8594-8.8125-5.9062-13.031-8.8594-5.1562-3.5625-10.453-7.3125-15.844-10.641-7.3594-4.5938-12.656-10.875-16.594-19.781-0.84375-1.8281-1.6875-3.6562-2.5781-5.6719 28.781 22.688 63 35.484 106.92 39.984-2.6719 1.0312-5.2969 2.0625-7.9688 3.0938-8.3438 3.2812-16.969 6.6562-25.594 9.5625-2.8594 0.98438-6.9844 0.84375-10.547-0.32812zm0-46.594c8.4844 5.9062 17.344 11.625 25.875 17.156 4.5 2.9062 9 5.8125 13.453 8.7656 0.46875 0.32812 0.9375 0.65625 1.4062 1.0312-43.781-5.0156-77.062-18.422-103.97-41.953 1.9219 0.14062 3.75 0.28125 5.625 0.42188 6.7969 0.5625 13.219 1.125 19.641 0.98438 12.656 0 24.234 4.0312 37.922 13.594zm50.766 122.44c-11.438-3.3281-23.109-6.4219-34.453-9.4219-3.4219-0.89062-6.8438-1.8281-10.312-2.7188 2.4375-0.70312 4.9219-1.4531 7.4531-2.1094 1.6406-0.42188 3.3281-0.84375 4.9688-1.2188 2.4844-0.5625 5.0156-1.125 7.5-1.9219 14.203-4.4531 28.734-4.0781 44.484 1.1719 10.594 3.5156 21.234 7.3594 31.594 11.016l10.5 3.75c0.75 0.28125 1.5 0.5625 2.25 0.9375-22.734 6.2344-43.734 6.4219-64.031 0.51562zm-38.812-3.5625c10.219 2.4375 20.766 4.9688 30.891 8.1562 24.938 7.875 48.422 8.4844 71.953 1.875 0.5625-0.14062 1.1719-0.28125 1.9688-0.32812l-2.4844 2.4375c-3.6562 3.5625-7.3125 7.1719-10.875 10.828-5.25 5.3906-12.188 8.0156-21.797 8.25l-5.1562 0.14062c-8.1562 0.23438-16.641 0.46875-24.938-0.046875-4.5-0.28125-9.3281-1.875-12.469-4.2188-9.9375-7.3594-19.828-15.234-29.344-22.828-2.9062-2.2969-5.7656-4.5938-8.625-6.8906 3.6562 0.89062 7.2656 1.7812 10.922 2.625zm123.89 59.438c17.016 5.3438 31.781 15.141 46.078 30.609-0.60938-0.23438-1.1719-0.42188-1.7344-0.65625-5.25-1.9688-10.266-3.8438-15.281-5.4375-6-1.875-10.969-3-15.703-3.5156-19.219-2.0625-39-4.125-59.016-4.125-5.4375 0-10.875 0.14062-16.359 0.51562-2.3438 0.14062-4.8281-0.09375-7.5469-0.42188l9.9844-3.6562c12.844-4.7344 25.312-9.375 37.828-13.828 6.375-2.25 13.266-2.1094 21.703 0.5625zm-61.266 23.484c13.266 0.09375 27 0.23438 40.5 0.84375 12.094 0.5625 26.344 1.5469 39.938 4.4062 7.875 1.6875 15.703 4.6875 23.25 7.5938 2.625 1.0312 5.25 2.0156 7.875 3-0.75 0.23438-1.4531 0.42188-2.1562 0.65625-3.375 0.98438-6.8438 2.0156-10.172 3.3281-6.0938 2.4375-10.875 4.6875-15 7.0781-6.5156 3.8438-12.656 4.5938-18.844 2.3906-3.7969-1.4062-7.5469-2.9062-11.25-4.4062-4.2656-1.6875-8.6719-3.4688-13.078-5.0625l-2.7188-0.98438c-7.6875-2.7188-15.609-5.5781-23.672-7.4531-8.8594-2.0625-17.391-5.7188-26.625-11.484 3.9844 0.046875 7.9688 0.09375 12 0.09375z"/>
</svg>
