<?xml version="1.0" encoding="UTF-8"?>
<svg width="1200pt" height="1200pt" version="1.1" viewBox="0 0 1200 1200" xmlns="http://www.w3.org/2000/svg">
 <path d="m599.63 918.32c5.7656 68.578 6.9844 137.26-0.23438 205.78-0.75 6.9375-3.0938 17.109-2.3438 23.812 0.1875 1.5938 0.65625 2.0156 1.7812 3.0469 2.1562 0.60937 3.7031 0.1875 5.8594-0.28125 3.5156-3.8438 3.3281-15.75 3.8906-21.094 2.2969-23.109 3.7031-46.266 4.2656-69.469 1.0781-47.016-1.4531-94.125-6.8906-140.81-2.1094-0.375-4.2188-0.75-6.375-0.9375z"/>
 <path d="m1037.1 619.26c-3.9844 1.4531-11.812 5.6719-15.094 1.9219 12.984-24.516 17.906-53.344 11.297-80.578-2.5312 2.1562-5.4375 5.2969-8.9531 5.3906-1.0312-0.84375-1.1719-0.79688-1.2656-2.2031 0.70312-19.406-0.28125-41.344-9.7031-58.969-4.0781 4.2656-8.0156 8.8594-12.891 12.281 4.1719-24.141-4.4531-48.656-17.156-69.094-1.8281 3.6562-3.8438 8.4844-7.2188 10.969l-0.9375-0.09375c-9.5156-25.5-23.578-51.047-43.828-69.844-2.2031 4.4531-4.6875 11.625-8.625 14.672h-1.0781c-2.2969-3-2.2031-10.406-3.1406-14.203-4.0781-17.156-14.438-30.281-26.812-42.422-2.2031 4.5469-5.25 11.484-10.031 13.828l-1.1719-0.09375c-11.156-34.688-39.422-63.047-70.219-82.125 0.046875 4.5938 1.5469 13.219-3.8906 15.188l-1.3125-0.1875c-6.8438-20.672-27.281-32.484-45.797-42 0.60938 1.6875 1.875 4.1719 1.5 6-3.8906-0.32812-49.359-37.641-56.109-42.188-1.2656 3.375-3.0469 8.8125-7.0781 9.5625-10.031-11.438-15.844-26.156-26.297-37.641 0.09375 2.3438 0.1875 4.2188-0.60938 6.4688l-0.9375 0.84375c-6.4219-3.6094-8.2031-12.469-12.609-18.141-21.938-31.5-40.453-65.109-57.609-99.375-12.094 23.531-21.891 48.469-36.516 70.734-9.4688 14.109-20.672 33.234-32.484 44.625-1.2188-0.046875-1.875-0.42188-2.9062-1.0312-4.9219 2.4844-22.453 31.5-30.188 31.969-2.2031-2.2969-0.79688-6-0.51562-8.8594-14.016 9.5156-27.516 19.688-40.125 31.031-5.5781 4.6406-10.219 11.531-17.062 14.203-2.3438-0.5625-2.6719-3.0938-3.2344-5.0625-7.5938 0.70312-27 19.734-32.016 25.828-2.6719 3.2812-5.625 10.969-8.3906 12.844-4.6406-3.7969-4.2188-11.25-5.3906-16.734-24.891 17.25-46.312 39.562-62.531 65.156-2.3438 3.75-7.1719 16.359-10.219 18.375-0.79688 0.51562-1.875 0.46875-2.7656 0.5625-5.1094-1.5938-5.6719-7.875-6.7031-12.375-13.688 10.875-25.078 25.219-28.125 42.844-0.98438 3.75-0.14062 8.5781-2.8594 11.625-5.3906-1.6406-7.125-8.5781-10.031-12.938-12.609 13.781-23.484 29.438-30.703 46.734-1.6406 4.2188-4.5938 17.203-7.4062 19.453-4.4531-1.1719-7.4531-6.7969-10.359-10.125-10.406 14.484-18.703 35.531-19.922 53.391-0.23438 3.7969 1.2188 13.266-0.23438 16.219-5.6719-0.09375-8.1562-6.8906-11.344-10.688-8.1094 19.688-10.828 37.453-7.5938 58.359 0.28125 1.6875 0.65625 2.8594-0.75 4.0781-4.2656 0.1875-8.5781-4.5-11.625-7.1719-3.3281 20.484-3.4688 41.672 2.1562 61.781 1.125 3.9844 7.7344 18.703 6.3281 21.469-4.0781 1.125-9.9844-2.0156-13.594-3.8906 0.14062 16.359 4.4531 31.312 13.453 45.047 2.5781 3.9844 8.8125 9.6094 7.5469 14.531-4.6406 2.3438-10.031-1.2656-14.578-2.625 3.0469 11.531 8.0156 23.578 15 33.328 4.2188 6.75 12.141 12.656 12.422 21.094-2.3438 4.5-9.2812-1.7344-11.953-3.4688 7.9219 19.547 20.25 37.875 34.547 53.344 4.7812 5.3906 11.859 9.7031 14.578 16.547-1.8281 3.2344-8.2031 1.5-11.391 1.6406 18.984 19.078 41.859 33.234 62.391 50.438-0.98438 1.0312-0.375 0.70312-1.4531 1.0312-3.0938 0.89062-5.7188 2.3906-8.5312 3.9375 17.062 10.359 36.094 18.281 53.953 27.281 40.969 19.312 80.484 43.734 123.79 57.141 29.25 6.5625 59.672-1.2188 86.156-14.016 15.703-7.8281 31.922-15.281 49.734-16.172-21.469-10.594-35.484-33.141-50.531-51-11.859-14.016-24.656-28.219-39.328-39.375-25.781-19.547-55.734-30.422-85.266-42.844-91.453-36.328-179.21-98.859-214.69-193.78l0.51562-0.14062c40.594 86.391 110.48 140.48 197.02 176.39 32.578 14.25 70.266 26.578 98.906 47.625 39.422 27.047 59.016 74.625 97.031 102.8l6.9844-0.09375-2.2969-47.906c-27.469-42.047-53.062-86.812-89.906-121.5-84.047-80.391-297.66-141.1-283.36-280.4-1.1719 149.16 220.22 192.74 303.98 287.86 24.75 26.531 50.625 68.016 68.625 99.797-2.1562-23.953-4.875-73.594-6.4219-98.062-0.60938-9.2344-0.1875-23.297-2.6719-31.781-27.656-46.031-67.594-85.5-108.94-119.81-21.188-17.016-43.547-32.672-64.031-50.531-52.453-45.234-87.422-114.61-79.125-184.55 2.5312 110.2 61.641 167.02 146.44 226.26 41.016 31.359 76.547 69.844 104.48 113.3-2.25-41.531-4.6406-83.109-7.6406-124.6-94.594-82.781-177.94-173.68-150.84-309-13.125 135.89 56.484 211.18 150.32 297.24-3.5625-51.281-3.9844-102.84-4.4531-154.22-59.484-65.578-85.547-128.86-50.438-215.86-23.297 90.141-5.7656 135.61 50.484 207.79 1.5-105.52 24.469-208.97 29.016-314.11 3.5625 48.094-6.375 96.328-10.734 144.14-4.5469 44.625-8.6719 89.344-10.594 134.16 45.469-50.391 98.906-109.17 98.297-181.45 8.6719 25.688-6.1875 64.125-17.906 87.656-19.172 38.625-49.031 71.203-80.719 99.984-0.28125 75.844 1.875 152.11 7.9219 227.68 59.344-103.69 185.06-187.78 178.87-318.94 19.453 134.53-120.56 223.18-177.42 330.14 2.4844 56.625 7.875 113.44 12 169.97 23.719-37.594 49.172-74.203 80.766-105.7 45.844-48 105.47-94.172 139.74-150.79 29.062-47.156 38.719-102.8 42.094-157.31 0.23438-2.9531 0.46875-14.625 1.7344-16.453 15.234 232.36-160.82 264.94-263.9 437.76 2.0625 23.859 6.75 93.234 9.0938 116.02 24.75-99.844 138.14-149.02 214.92-204.42 43.078-30.844 83.906-67.359 113.11-111.98 23.578-34.922 39.75-76.547 44.016-118.27-1.5469 90.609-65.156 169.92-134.11 223.03-82.594 64.781-192.61 104.3-233.95 208.36 32.344-28.031 70.875-49.828 110.72-65.391 93.984-34.828 202.64-51.703 270.32-132.98l-0.1875 0.75c-95.062 123.28-271.13 106.12-383.34 204.71 43.312 12.938 85.172 40.594 132.28 30.75 39.047-7.0312 77.297-28.969 112.03-47.297 23.25-12.375 46.875-24.375 69.469-37.922-2.9062-1.8281-10.219-4.3594-8.0625-8.7656 22.172-12 42.609-26.812 60.328-44.812-4.0781-0.375-7.6875-0.89062-11.484-2.4844 19.875-21.234 40.5-43.172 50.625-71.203-3.4688 2.1094-9 6.9375-13.266 4.875-0.84375-1.5-1.1719-2.3906-0.65625-4.0781 1.9688-6.75 9.0469-13.922 13.031-19.734 6.8438-9.8906 11.438-20.344 14.391-32.016-3.6562 1.6406-10.359 4.9688-13.5 1.0781 0.32812-8.4844 10.969-16.781 13.547-25.219 4.6406-10.219 6.9375-21.609 5.6719-32.812zm-778.78 155.06c53.391 44.344 120.52 69.703 188.48 80.859 29.25 5.2031 66.375 4.3125 94.266 13.5 2.7656 0.9375 5.3438 1.8281 6.6562 4.5-13.125 2.9062-26.812-1.6875-40.031-2.4375-24.094-2.0625-47.812-3.3281-71.625-7.6875-61.359-11.156-119.81-37.781-168.52-76.688-12.422-10.031-25.688-21.75-34.781-34.922 3.2344 1.6406 20.203 18.516 25.547 22.875zm737.95-70.453c0.32813-0.51562 0.65625-1.0312 0.98438-1.2656-0.32813 0.42188-0.65625 0.79688-0.98438 1.2656z"/>
</svg>
