<?xml version="1.0" encoding="UTF-8"?>
<svg width="1200pt" height="1200pt" version="1.1" viewBox="0 0 1200 1200" xmlns="http://www.w3.org/2000/svg">
 <path d="m1090.4 413.39c-63.199 5.6953-126.71 12.883-187.77 30.938-52.805 15.613-104.39 40.387-146.36 76.457-17.887 15.371-34.094 32.734-47.43 52.156l-0.003906 0.003906c5.4102-21.531 10.141-43.285 13.816-65.191 4.7031-8.0469 10.258-15.68 16.012-22.84 9.1094-11.336 18.84-22.066 28.883-32.566 9.9258-10.379 19.957-20.754 30.523-30.473 9.9258-9.1367 20.852-17.809 33.414-23.016 13.398-5.5508 28.984-5.4102 40.906-14.426 10.246-7.7461 17.297-19.434 18.293-32.352 0.96484-12.445-5.5664-24.461-16.387-30.605-10.727-6.1016-24.012-6.5234-35.262-1.6758-12.996 5.6055-21.66 18.875-23.922 32.578-1.2227 7.4531-1.0625 15.16 1.1055 22.445 1.1172 3.7695 2.7617 7.3984 5.1406 10.531 0.76953 1.0156 1.543 1.8711 2.3594 2.6094-2.3516 1.0977-4.6602 2.2852-6.9062 3.5586-11.32 6.4219-21.371 14.992-30.738 23.977-9.6523 9.2656-18.961 18.938-28.129 28.688-10.262 10.906-20.16 22.445-28.277 35.051-1.2578 1.9531-2.457 3.9297-3.6172 5.9219 3.0664-23.18 4.8242-46.496 4.832-69.852 0.015625-37.27-2.3672-74.457-9.0703-110.83 1.8633-0.27734 3.4453-1.5273 4.3945-3.1367 0.10547-0.097657 0.20703-0.20703 0.30078-0.33984 12.016-17.195 28.887-29.594 46.57-40.469 18.129-11.148 37.254-20.602 55.426-31.707 18.938-11.574 36.238-24.922 50.191-42.336 14.477-18.066 25.176-39.152 32.254-61.148 8.0938-25.141 11.812-51.449 11.234-77.836-0.10156-4.6172-4.8633-8.2031-9.0234-4.9688-18.445 14.348-36.832 28.805-55.113 43.367-16.605 13.227-33.246 26.398-49.047 40.594-31.434 28.234-59.879 60.406-78.043 98.895-7.1289 15.105-12.742 31.117-16.137 47.539-0.78906-3.0117-1.6172-6.0195-2.4766-9.0156-3.1289-13.195-7.5508-26.398-9.293-39.863-0.89453-6.9258-1.5352-13.859-1.8477-20.832-0.3125-7.0312 0.12109-14.016 0.29297-21.043 0.29297-12.324-1.5078-24.359-8.0234-35.027-5.9141-9.6719-14.641-17.305-25.273-21.336-9.8477-3.7305-20.992-3.1094-30.637 0.92969-9.2656 3.875-17.578 11.059-21.715 20.352-5.4766 12.305-3.7578 26.461 2.2383 38.25 6.1367 12.09 17.191 21.379 30.156 25.301 13.188 3.9883 31.031 3.3008 41.281-6.9492 0.035156 0.42188 0.082031 0.84375 0.125 1.2617-0.41797 0.035156-0.83984 0.40625-0.65625 0.86719 0.36328 0.92969 0.71094 1.8633 1.0664 2.7969 0.71875 5.6016 1.8477 11.16 3.5 16.711 5.3203 17.859 10.844 35.59 16.773 53.199 0.58984 2.8672 1.1602 5.7344 1.6992 8.6133-36.328-17.57-74.879-29.246-115.12-34.098-44.246-5.3359-89.578-2.3633-132.74 8.7656-24.301 6.2656-47.727 15.312-69.957 26.953-3.8281 2.0039-3.0312 7 0 9.1797 36.035 25.895 79.262 36.777 122.86 41.145 21.641 2.168 43.453 2.8867 65.195 2.875 21.535-0.011719 43.133-1.2422 64.27-5.5898 22.969-4.7266 44.91-13.785 63.242-28.559 1.8633-0.23438 3.7148-0.53906 5.5273-0.95312 4.2305 28.965 5.9648 58.309 5.4609 87.434-0.27734 15.973-1.7578 31.973-3.6133 47.84-1.9219 16.391-3.6367 32.785-6.2148 49.094-4.875 30.844-11.621 61.395-19.605 91.578l-2.3125 8.6133c-7.5273 27.613-15.977 54.984-25.133 82.137 1.9961-13.867 3.2852-27.816 3.4766-41.801 0.22656-16.934-1.2461-33.758-4.1523-50.438-2.7305-15.703-7.0625-31.57-6.8945-47.605 0.085937-7.7344 1.8359-14.801 4.0781-22.156 2.3711-7.7539 3.625-15.535 2.2148-23.586-2.4609-14.09-13.121-25.727-24.68-33.379-12.121-8.0156-27.809-13.332-42.012-7.8125-6.6133 2.5664-12.672 7.0547-16.062 13.422-3.7266 6.9844-4.3398 15.031-3.1758 22.738 2.3359 15.449 12.805 30.137 26.633 37.445 10.871 5.7461 25.781 8.3516 38.207 4.6992-0.51172 4.8828-0.59375 9.8086-0.25391 14.711 1.0547 15.266 5.4844 29.695 9.1992 44.449 3.6289 14.441 5.4414 29.164 6.0547 44.039 0.89844 21.82-0.38672 43.559-2.2148 65.266-5.8242-36.977-18.84-72.484-36.906-105.28-19.883-36.09-45.895-68.941-76.602-96.422-17.383-15.551-36.277-29.418-56.375-41.25-3.793-2.2305-7.207 1.4414-6.707 5.1602 6.7148 49.848 15.484 100.07 34.781 146.81 16.906 40.938 42.547 81.492 79.895 106.63 12.871 8.6562 28.277 15.461 43.961 17.062 2.9023 0.30469 5.8203 0.42578 8.7305 0.33594-1.3633 3.6719-2.7344 7.3398-4.1172 11.004-4.9219 13.055-9.9609 26.051-15.098 39.008-7.6953 19.418-15.695 38.719-24.012 57.883-0.066406-22.461-5.0078-45.328-15.695-65.145-5.3359-9.8867-12.391-19.246-21.109-26.395-9.1016-7.4648-21.57-14.059-33.484-9.3125-9.5508 3.8047-14.699 13.398-15.266 23.336-0.59375 10.547 4.6445 20.25 12.82 26.672 5.125 4.0273 11.062 6.9414 17.348 8.6953 5.8789 1.6367 12.266 1.8945 17.977 2.9023 5.1133 0.89844 9.582 2.3711 12.031 6.5234 2.9883 5.0703 8.1172 20.051 8.7148 26.023 1.9883 19.938 2.0195 32.609 0.77344 42.277-8.7031 18.938-17.738 37.723-27.137 56.328-3.668-35.754-15.273-70.539-33.215-101.76-21.777-37.902-52.371-70.133-87.816-95.539-19.793-14.188-41.133-26.074-63.461-35.777-4.5078-1.9609-8.5195 1.2344-7.8359 6.0234 6.7344 47.242 21.816 93.199 44.188 135.34 20.527 38.672 47.273 76.441 84.062 101.21 14.742 9.9258 31.348 17.078 48.793 19.988-28.582 53.762-60.414 105.83-96.109 155.17-4.543 6.2812-9.1484 12.512-13.812 18.707-2.7617 3.6641-0.58984 9.4961 3.0469 11.621 4.3398 2.5391 8.875 0.64062 11.629-3.0469 38.383-51.426 72.492-105.93 102.88-162.43 2.3867-4.4375 4.7344-8.8906 7.0703-13.352 41.297 23.09 88.746 39.492 136.38 34.555 26.484-2.7461 51.262-12.348 74.48-25.07 21.895-12 43.129-25.91 63.109-40.883 21.977-16.469 42.453-35.281 56.289-59.297 2.125-3.6875-0.53125-9.1172-5.082-8.8555-26.254 1.5078-52.395 3.8633-78.461 7.3633-26.082 3.5-52.062 7.6758-78 12.109-22.812 3.8984-45.656 7.7734-68.25 12.836-19.77 4.4297-39.348 9.8711-57.695 18.598-9.043 4.3008-17.762 9.3594-25.789 15.297 20.641-41.789 39.449-84.48 56.816-127.73 8.6797-21.602 17.102-43.352 25.176-65.246 46.367 22.465 98.703 29.496 149.79 24.93 53.062-4.7461 104.04-22.398 151.05-46.992 26.664-13.949 52.016-30.191 76.555-47.574 3.2578-2.3086 3.5625-8.6289-1.2344-9.4922-49.246-8.8398-99.539-10.961-149.39-6.7578-49.559 4.1836-98.348 14.555-145.22 31.199-25.098 8.9141-49.43 20.027-72.695 32.98-0.41016 0.22656-0.81641 0.46094-1.2227 0.6875 0.69922-1.957 1.4023-3.9141 2.0938-5.8789 11.051-31.277 21.324-62.824 30.539-94.625 1.9961-6.8945 3.9414-13.816 5.832-20.766h0.003906c55.355 3.9805 111.41-2.9102 164.42-19.266 56.617-17.473 109.8-45.473 155.98-82.613 25.816-20.766 49.508-44.363 70.133-70.297 2.3281-2.9336 1.2344-8.8086-3.4727-8.3828z"/>
</svg>
