<?xml version="1.0" encoding="UTF-8"?>
<svg width="1200pt" height="1200pt" version="1.1" viewBox="0 0 1200 1200" xmlns="http://www.w3.org/2000/svg">
 <path d="m1104.1 155.95c-40.176-36.48-99.781-68.652-138.88-83.328-44.895-16.105-92.629-24.625-141.42-24.625-48.527 0-96.047 8.4961-140.79 24.551-0.5625 0.13281-1.1289 0.19141-1.668 0.40625-0.32422 0.13281-0.58984 0.37109-0.89844 0.52734-48.637 17.832-93.84 44.723-133.27 79.812-61.441-5.9414-125.63 2.3398-185.93 24.289-45.574 16.586-87.301 40.789-123.83 71.148-0.50391 0.33594-1.957 1.5703-2.1953 1.8359-40.512 34.141-74.461 75.949-99.684 123.72-0.92578 1.5117-3.5039 7.8242-1.2734 12.516 2.7617 5.7969 9.4062 6.8516 12.527 6.4688 6-0.875 148.55-19.234 248.28 126.74 7.1641 10.488 12.887 21.719 17.074 33.469l9.6953 26.352c11.566 31.824 42.047 53.207 75.84 53.207 7.4648 0 14.762-1.3203 21.898-3.3477 15.469 32.629 83.137 146.22 292.39 200.66v78.613c-20.387-10.344-44.965-18.574-73.668-24.613-206.66-43.488-307.12-110.46-334.3-131.07 10.141-18 13.633-38.496 9.6836-58.848-4.8359-24.961-20.039-47.531-43.945-65.27-78.023-57.938-256.4-94.871-263.96-96.422-4.5742-0.96484-9.4336 1.0273-12.191 4.8281-2.7227 3.7305-3.0469 8.6992-0.85156 12.758 3.6719 6.7812 90.648 166.84 168.68 224.77 20.965 15.562 43.547 23.652 65.844 23.652 3.1211 0 6.2383-0.16797 9.3359-0.48047 20.461-2.1016 38.93-11.242 52.992-25.703 29.867 22.945 131.91 90.695 343.78 135.27 32.352 6.8047 58.453 16.465 78.613 28.715 0 0 0 203.44 0.011718 203.44 0 2.6289 0.85156 5.2695 2.5781 7.4414 2.3281 2.9531 5.832 4.5586 9.4062 4.5586 1.7539 0 3.5391-0.38281 5.207-1.1992 92.699-44.746 149.5-127.03 141.36-204.76-6.6719-63.793-55.609-112.26-134.58-134.1v-285.39c38.867-5.832 68.797-39.348 68.797-79.812v-28.117c0-12.527 1.5859-25.055 4.7148-37.246 43.824-171.25 183.98-202.74 189.93-204 0.45703-0.097656 8.3633-2.2578 9.2148-10.297 0.625-5.8438-3.4805-10.176-4.5234-11.121zm-969.47 419.12c57.434 33.48 161.65 106.21 153.95 188.98-4.332-2.3633-8.6406-5.0625-12.863-8.207-52.035-38.617-110.69-129.78-141.09-180.77zm243.78 173.82c-10.871 14.652-26.594 23.711-44.258 25.523-7.3438 0.71875-14.855 0.21484-22.402-1.4648 12.766-82.953-65.797-153.75-129.1-196.36 57.637 16.223 131.59 41.258 172.8 71.844 19.008 14.113 30.996 31.609 34.68 50.578 3.3711 17.426-0.75781 35.09-11.629 49.754zm462.77-359.8h-34.391c-14.809-26.062-24.613-69.445-24.613-111.02 0-48.145 7.8594-95.316 24.023-144.25 5.0898-15.434 11.102-30.66 17.785-45.574 6.6836 14.902 12.695 30.133 17.797 45.574 16.164 48.938 24.012 96.121 24.012 144.25-0.011719 41.578-9.8164 84.945-24.613 111.02zm-79.465-13.645c-21.984-85.895-66.637-139.4-108.98-172.25 33.238 14.004 70.008 36.289 105.49 72.023 0 0.94922-0.058594 1.8945-0.058594 2.8555 0 40.32 8.3281 81.324 21.77 111.02h-15.359c-0.79297-4.5977-1.6953-9.1445-2.8594-13.656zm-229.81 88.438c0.42188 4.6328 1.1172 9.2539 1.9453 13.859l-14.426 5.2422c2.4727-32.496-3.7188-73.895-17.508-111.78-0.3125-0.83984-0.66016-1.668-0.97266-2.5078 18.996-41.375 44.184-76.391 76.273-105.6-29.051 45.414-54.168 111.7-45.312 200.79zm-70.043 40.047c-22.824-19.441-46.871-56.855-61.094-95.93-16.453-45.254-25.199-92.27-26.734-143.76-0.49219-16.152-0.058593-32.41 1.1055-48.602 11.34 11.688 22.309 23.723 32.316 36.434 31.945 40.488 55.465 82.129 71.902 127.34 14.207 39.059 19.836 83.172 14.832 112.75zm-157.87-139.85c-8.0391-13.547-15.574-27.492-22.297-41.652-6.3711-13.43-12.18-27.168-17.34-41.051 14.941 7.4414 29.594 15.66 43.766 24.562 17.281 10.824 33.996 22.906 49.922 35.785 2.5664 14.016 5.7852 27.77 9.5898 41.34-22.242-8.9258-43.516-15-63.641-18.984zm245.2-186.54c4.3555 1.0195 31.488 8.0039 64.512 28.391-25.598 15.926-48.277 34.094-68.172 54.672-1.9805-9.8398-4.1758-19.645-6.6953-29.34-4.9219-18.875-11.184-37.391-18.109-55.559 9.5898 0.28906 19.105 0.81641 28.465 1.8359zm-79.656 123.62c3.9258-20.113 8.9531-40.117 15.227-59.508 5.1484-15.926 11.09-31.633 17.762-46.945 4.9688 13.969 9.3477 28.223 13.094 42.59 3.9609 15.227 7.1289 30.742 9.6719 46.199-13.715 17.062-25.934 35.496-36.527 55.523-5.8086-12.852-12.184-25.438-19.227-37.859zm-7.5938-66.887c-3.9961 12.312-7.4297 24.875-10.523 37.535-7.7656-11.652-16.094-23.184-25.105-34.598-11.902-15.109-25.066-29.363-38.734-43.078 31.477-9.7812 64.344-15.84 96.938-17.891-8.6211 18.84-16.203 38.266-22.574 58.031zm-111.89 30.695c0.43359 14.531 1.4648 28.715 3.0117 42.637-10.512-7.7031-21.215-15.133-32.184-21.996-17.375-10.922-35.461-20.844-53.93-29.652 25.934-19.598 54.312-36.07 84.73-48.828-1.6641 19.223-2.2031 38.602-1.6289 57.84zm229.33-107.43c28.871-23.027 60.59-41.688 94.246-55.633-0.25391 19.055 0.19141 38.219 2.0039 57.238 0.9375 9.8984 2.207 19.812 3.6953 29.688-38.805-18.957-74.086-27.055-99.945-31.293zm285.18-31.258c-6.0234-18.266-13.164-36.277-21.289-53.785 33.121 1.6211 65.566 7.4297 96.742 17.016-14.398 14.641-28.309 29.902-40.98 46.188-7.957 10.223-15.48 20.855-22.715 31.68-3.3203-13.605-7.1953-27.285-11.758-41.098zm-158.34 77.352c-2.9141-15.422-5.2305-31.094-6.707-46.738-1.3906-14.773-2.1484-29.664-2.2578-44.484 11.508 12.121 22.465 24.84 32.734 38.051 12.539 16.078 24.109 33.145 34.668 50.688-2.375 14.051-4.0664 28.094-5.125 42.156-17.828-16.02-35.742-29.016-53.312-39.672zm77.199-77.352c-4.5703 13.812-8.4492 27.492-11.762 41.102-7.2461-10.836-14.773-21.469-22.727-31.68-12.637-16.234-26.531-31.523-40.957-46.176 31.188-9.625 63.648-15.445 96.742-17.051-8.1484 17.527-15.285 35.551-21.297 53.805zm99.887 74.879c10.559-17.531 22.129-34.609 34.668-50.711 10.285-13.223 21.254-25.945 32.746-38.051-0.10938 14.844-0.85156 29.734-2.2578 44.508-1.4883 15.695-3.8047 31.367-6.707 46.727-17.566 10.645-35.496 23.652-53.316 39.672-1.0781-14.051-2.7578-28.094-5.1328-42.145zm89.027-42c1.8242-19.031 2.2695-38.219 2.0156-57.312 33.77 13.945 65.566 32.617 94.465 55.656-25.883 4.2227-61.262 12.312-100.18 31.344 1.4883-9.8516 2.7578-19.762 3.6953-29.688zm-803.33 204.94c19.188-31.402 42.527-59.699 69.277-84.266 6.2656 17.93 13.535 35.641 21.73 52.871 4.2617 8.9883 8.8555 17.879 13.645 26.664-42.984-4.5352-78.914-0.10547-104.65 4.7305zm84.793 17.855c35.965 1.8242 78.035 10.176 123.49 31.5 0.32422 0.91016 0.61328 1.8477 0.9375 2.7617 13.789 37.895 35.641 73.586 58.414 96.898l-14.41 5.2422c-2.3047-4.0312-4.7031-8.0039-7.3438-11.867-49.934-73.117-110.09-108.13-161.09-124.54zm190.58 189.65-9.6602-26.27c-0.625-1.7656-1.3672-3.4922-2.0625-5.2422l107.12-38.977c0.57422 1.7656 1.1055 3.5391 1.7539 5.293l9.6016 26.41c10.703 29.398-4.5352 62.051-33.973 72.77-6.2539 2.2812-12.805 3.4453-19.465 3.4453-23.75 0.007813-45.16-15.027-53.32-37.43zm97.273 48.359c30.875-20.016 45.133-59.363 32.027-95.328l-9.6016-26.438c-4.3789-11.965-7.1641-24.254-8.2812-36.59-12.707-127.86 49.656-204.85 84.277-237.13 38.352 30.504 78.574 79.453 98.398 156.9 3.1211 12.168 4.7031 24.695 4.7031 37.246v28.117c0 40.465 29.941 73.98 68.809 79.812v279.02c-192.4-51.965-256.32-157.32-270.33-185.61zm294.34 335.48c9.1797 9.3945 16.152 19.727 20.258 31.262 13.883 39.109-3.8398 83.629-20.258 113.09zm110.7-6.8789c5.7969 55.367-27.539 114.01-85.621 155.62 17.316-33.324 33.539-80.988 17.797-125.4-7.6562-21.602-22.055-39.984-42.887-55.141v-86.785c65.207 19.801 105.3 59.965 110.71 111.71zm-65.902-501.84c0 31.32-25.477 56.797-56.797 56.797-31.32 0-56.809-25.477-56.809-56.797v-28.117c0-1.8477-0.12109-3.6953-0.16797-5.543h113.96c-0.058594 1.8477-0.17969 3.6953-0.17969 5.543zm5.457-71.289c-1.1523 4.5117-2.0625 9.0703-2.8555 13.656h-15.359c13.441-29.688 21.758-70.703 21.758-111.02 0-0.94922-0.046874-1.8945-0.058593-2.8438 35.484-35.746 72.266-58.031 105.5-72.047-42.352 32.84-87.004 86.348-108.99 172.26z"/>
</svg>
