<?xml version="1.0" encoding="UTF-8"?>
<svg width="1200pt" height="1200pt" version="1.1" viewBox="0 0 1200 1200" xmlns="http://www.w3.org/2000/svg">
 <path d="m936.16 347.04c-15.395-3.5742-30.926-5.7461-46.488-6.6133 1.3789-1.7539 2.7461-3.5156 3.9258-5.4375 9.0977-14.762 11.566-32.16 6.9844-48.973l-0.3125-1.2109c-5.4844-19.836-20.617-35.797-40.477-42.684-4.5352-1.5703-9.1797-2.4375-13.824-2.9531 4.1875-8.6055 6.5273-18.133 6.5273-27.938 0-14.855-5.0156-28.777-14.484-40.262-11.426-13.906-28.273-22.367-46.234-23.195-5.9883-0.23828-11.855 0.40625-17.52 1.7266 0.79297-7.8594 0.27734-15.863-1.7891-23.652-4.8711-18.336-17.398-33.719-34.355-42.18l-1.2461-0.625c-18.938-9.3242-40.57-9.2383-59.363 0.25391-4.9922 2.5195-9.5391 5.6289-13.633 9.1797-2.5664-7.0078-6.2891-13.633-11.172-19.535-12.422-15.023-30.719-23.762-50.184-23.988l-4.1289-0.011719c-19.355 0.035156-37.621 8.6406-50.102 23.605-4.9062 5.8789-8.6758 12.48-11.281 19.477-4.1523-3.6719-8.6172-7.0312-13.703-9.6367-18.719-9.5508-40.379-9.793-59.398-0.63672-0.011719 0.011719-1.2461 0.60156-1.2461 0.61328-17.184 8.375-29.879 23.785-34.859 42.266-2.0898 7.7539-2.6523 15.707-1.9219 23.52-5.7734-1.4297-11.746-2.1016-17.773-1.8711-18.238 0.74219-34.738 8.8906-46.5 22.98-9.5156 11.496-14.746 25.98-14.746 40.766 0 10.297 2.5078 20.305 7.1172 29.281-4.3438 0.50391-8.6758 1.3086-12.938 2.7461-19.906 6.707-35.23 22.5-40.957 42.254-0.011719 0.011718-0.46875 1.6562-0.46875 1.668-4.7539 16.535-2.3633 34.512 6.5273 49.297 1.1172 1.8477 2.5195 3.4453 3.8164 5.125-15.445 0.88672-30.852 3.0703-46.141 6.625-87.973 20.461-147.23 97.922-140.88 184.2 5.3047 70.223 59.102 123.17 125.12 123.17 28.273 0 55.188-11.652 73.824-31.969 17.316-18.875 25.691-42.828 23.566-67.523-0.40625-4.4414-1.1523-8.7227-2.1953-12.816 37.633 37.031 46.766 110.58 52.895 159.88l8.8203 70.906c9.3711 75.301 64.633 134.99 135.49 152.72 9.1914 64.273 14.352 130.07 15.145 195.84 0.12109 5.9297 0.12109 11.844 0.12109 17.641 0 6.625 5.3633 12 12 12h64.57c6.6367 0 12-5.375 12-12 0-71.867 5.1953-143.62 15.203-213.48 70.883-17.723 126.18-77.41 135.55-152.75l8.8203-70.906c6.1328-49.297 15.266-122.84 52.895-159.88-1.043 4.1172-1.7773 8.4258-2.1953 12.898-2.125 24.625 6.2539 48.574 23.566 67.453 18.648 20.316 45.551 31.969 73.824 31.969 66.023 0 119.81-52.957 125.12-123.2 6.3008-86.211-52.941-163.67-140.93-184.13zm-58.742-54.707c2.8203 10.332 1.2969 21.012-4.2617 30.07-5.6289 9.1445-14.594 15.371-25.246 17.543-3.1211 0.63672-6.2539 1.3203-9.3594 2.0625l0.085937 0.37109c-44.363 5.6289-87.961 21.516-128.17 46.738-2.207-6.0469-4.8711-11.855-7.9688-17.363 34.164-34.535 71.699-70.273 115.04-102.38 9.8984-7.0312 22.391-8.7461 34.379-4.5703 12.398 4.2891 21.828 14.176 25.5 27.531zm-328.88 57.504c15.098-9.5391 32.555-14.594 50.496-14.594 42.07 0 78.852 27.852 90.66 67.957-33.227 24.215-63.684 54.926-89.723 91.441-26.461-37.105-57.469-68.242-91.32-92.641 6.625-21.539 20.602-39.973 39.887-52.164zm270.94-163.6c5.8906 7.1523 9.0117 15.793 9.0117 25.008 0 12.887-6.2773 25.066-16.824 32.605-47.016 33.73-87.035 71.543-123.29 108.07-3.7812-4.3203-7.8477-8.3516-12.203-12.07 19.656-48.312 49.031-102.42 85.414-157.18 7.668-7.4023 18.395-11.449 29.074-10.906 11.355 0.51562 21.566 5.6523 28.816 14.469zm-131.18-81.504c12-6.0469 25.836-6.0977 37.934-0.14453 0.023438 0.011718 1.1289 0.55078 1.1523 0.5625 10.801 5.3867 18.781 15.18 21.875 26.855 3.1328 11.762 1.0312 24.324-5.7461 34.465-36.91 55.199-66.926 109.99-87.504 159.37-7.1992-3.9492-14.867-7.0938-22.824-9.4805l32.652-181.5c2.3594-13.137 10.543-24.117 22.461-30.129zm-121.6-16.797c7.9219-9.4922 19.488-14.953 32.34-14.977l3.2031 0.011718c12.383 0.13281 24.023 5.7109 31.945 15.277 7.9805 9.6484 11.281 22.234 9.0703 34.535l-2.6875 16.98-30.938 171.97c-3.4922-0.3125-7.0195-0.49219-10.586-0.49219-2.543 0-5.0391 0.37109-7.5703 0.52734l-33.996-189.02c-2.2539-12.422 1.1211-25.105 9.2188-34.812zm-115.76 42.957c3.1797-11.773 11.27-21.602 22.223-26.941l1.1641-0.5625c12.168-5.8789 26.062-5.7461 38.062 0.38281 11.867 6.0586 20.027 17.051 22.379 30.18l3.3828 16.98 29.605 164.62c-8.125 2.2188-15.898 5.4609-23.398 9.3594-20.676-49.402-50.723-104.09-87.637-159.13-6.8867-10.258-9-22.977-5.7812-34.883zm-70.91 53.727c7.332-8.7852 17.641-13.871 29.016-14.34 10.883-0.50391 21.539 3.6484 29.27 11.184 36.359 54.504 65.762 108.42 85.598 156.74-5.1133 4.1758-9.8984 8.6875-14.207 13.598-32.125-32.809-71.902-73.152-121.81-108.79-10.691-7.6562-17.062-19.98-17.062-32.965-0.015625-9.2148 3.2734-18.262 9.1992-25.426zm-56.953 106.4c3.5508-12.203 13.117-21.996 25.586-26.207 12.109-4.0938 24.707-2.293 34.738 4.7656 44.699 33.348 81.277 70.523 110.94 100.84l1.3203 1.3438c-2.9531 5.2578-5.543 10.715-7.668 16.402-41.293-25.609-86.09-41.555-131.62-46.523-1.7383-0.40625-3.4805-0.81641-5.1953-1.1758-10.309-2.1836-19.008-8.4102-24.504-17.531-5.4727-9.1094-6.9375-20.16-4.0312-30.312zm71.043 288.35c-17.508-44.113-47.281-80.773-100.56-84.121-1.5352-0.13281-4.7148-0.21484-4.7266-0.21484-6.5508 0-11.891 5.2578-12 11.809-0.10937 6.5625 5.1016 12 11.664 12.18 0.12109 0 3.8867 0.21484 4.2461 0.26562 17.699 2.3867 27.203 20.711 28.766 37.738 1.5352 17.855-4.6328 35.316-17.34 49.176-14.113 15.383-34.586 24.203-56.148 24.203-53.328 0-96.828-43.414-101.2-100.96-5.4609-74.387 46.008-141.27 122.38-159.02 116.43-27 237.04 28.703 316.43 145.62-33.684 53.293-58.164 115.52-73.008 185.53-27.367-51.297-68.43-93.84-118.5-122.21zm226.19 547.72h-40.656c-0.011719-2.0039-0.046875-4.0195-0.085938-6.0117-0.76562-64.07-5.7109-128.2-14.352-191.01 6.2266 0.66016 12.516 1.0664 18.887 1.0664h31.738c6.3594 0 12.625-0.40625 18.828-1.0547-8.8984 64.586-13.844 130.68-14.359 197.01zm159.71-428.09-8.8086 70.906c-9.7422 78.238-76.523 137.23-155.35 137.23h-31.738c-78.828 0-145.62-59.004-155.35-137.23l-8.8086-70.906c-2.9297-23.555-6.707-53.93-14.426-84 45.191 31.98 80.449 77.375 100.81 130.46 1.9453 5.0742 6.9609 8.1719 12.469 7.6328 5.3984-0.57422 9.7578-4.7031 10.598-10.066 12.254-77.879 35.965-146.57 70.586-204.5 34.621 57.926 58.332 126.61 70.586 204.5 0.83984 5.3633 5.1953 9.5039 10.598 10.066 5.4961 0.52734 10.523-2.5547 12.469-7.6328 20.363-53.09 55.633-98.496 100.81-130.46-7.7383 30.07-11.516 60.445-14.445 84zm273.12-169.59c-4.3555 57.574-47.855 100.99-101.2 100.99-21.562 0-42.035-8.8203-56.148-24.203-12.719-13.859-18.875-31.32-17.34-49.094 1.5703-17.102 11.074-35.426 28.715-37.801 0.3125-0.035156 3.1797-0.22656 4.2969-0.26562 6.5625-0.17969 11.762-5.6055 11.676-12.156-0.097656-6.6836-5.9883-11.891-12.348-11.832-0.9375-0.011719-2.7227 0.058593-4.0547 0.17969-53.496 3.2148-83.34 39.938-100.88 84.145-50.074 28.367-91.152 70.906-118.51 122.21-14.848-70-39.328-132.25-73.012-185.53 79.367-116.91 200-172.64 316.41-145.62 76.383 17.75 127.85 84.625 122.39 158.98z"/>
</svg>
