<?xml version="1.0" encoding="UTF-8"?>
<svg width="1200pt" height="1200pt" version="1.1" viewBox="0 0 1200 1200" xmlns="http://www.w3.org/2000/svg">
 <path d="m452.4 106.8c-20.398 0-38.398 16.801-38.398 38.398 0 20.398 16.801 38.398 38.398 38.398 20.398 0 38.398-16.801 38.398-38.398 0.003906-20.398-17.996-38.398-38.398-38.398zm0 52.801c-7.1992 0-14.398-6-14.398-14.398 0-7.1992 6-14.398 14.398-14.398 7.1992 0 14.398 6 14.398 14.398 0.003906 8.3984-7.1953 14.398-14.398 14.398z"/>
 <path d="m561.6 132c0 20.398 16.801 38.398 38.398 38.398 21.602 0 38.398-16.801 38.398-38.398 0-21.602-18-38.398-38.398-38.398s-38.398 16.797-38.398 38.398zm38.398-14.398c7.1992 0 14.398 6 14.398 14.398s-6 14.398-14.398 14.398c-7.1992 0-14.398-6-14.398-14.398s7.1992-14.398 14.398-14.398z"/>
 <path d="m1036.8 169.2c-132-79.199-283.2-120-436.8-120s-306 42-436.8 120c-3.6016 2.3984-6 6-6 9.6016 0 3.6016 1.1992 8.3984 4.8008 10.801l56.398 42c20.398 15.602 38.398 32.398 55.199 51.602 38.398 43.199 64.801 97.199 76.801 153.6l45.602 208.8c15.602 72 69.602 128.4 136.8 150l16.801 50.398c9.6016 28.801 15.602 58.801 16.801 90l10.801 204c0 6 6 10.801 12 10.801h21.602c6 0 12-4.8008 12-10.801l10.801-204c1.1992-30 7.1992-61.199 16.801-90l16.801-50.398c67.199-21.602 121.2-78 136.8-150l45.602-208.8c12-56.398 38.398-109.2 76.801-153.6 16.801-19.199 34.801-36 55.199-51.602l56.398-42c3.6016-2.3984 4.8008-6 4.8008-10.801-0.007813-4.8008-2.4102-7.1992-6.0078-9.6016zm-618 471.6-34.801-159.6c49.199 34.801 88.801 80.398 116.4 134.4 0 33.602 3.6016 67.199 10.801 99.602-12 6-24 13.199-34.801 21.602-28.797-25.199-49.199-58.801-57.598-96zm210 196.8c-10.801 31.199-16.801 63.602-18 96l-10.801 183.6-9.6016-182.4c-1.1992-32.398-8.3984-64.801-18-96l-12-34.801c10.801 2.3984 21.602 2.3984 33.602 2.3984h13.199c12 0 22.801-1.1992 33.602-2.3984zm-21.602-56.402h-13.199c-36 0-69.602-10.801-98.398-30 31.199-21.602 67.199-32.398 105.6-32.398 38.398 0 74.398 12 105.6 32.398-30.004 19.199-63.605 30-99.605 30zm-82.801-166.8c0-82.801 21.602-162 63.602-232.8v313.2c-19.199 1.1992-37.199 4.8008-55.199 10.801-6-29.996-8.4023-59.996-8.4023-91.199zm87.602 80.402v-313.2c42 70.801 63.602 150 63.602 232.8 0 30-3.6016 61.199-9.6016 90-16.801-4.8008-34.801-8.4023-54-9.6016zm169.2-54c-8.3984 38.398-28.801 70.801-56.398 96-10.801-8.3984-22.801-15.602-36-21.602 7.1992-32.398 10.801-66 10.801-99.602 27.602-54 67.199-99.602 116.4-134.4zm45.602-210-3.6016 16.801c-50.398 31.199-93.602 73.199-126 123.6-7.1992-85.199-37.199-166.8-88.801-236.4-4.8008-6-14.398-6-19.199 0-50.398 69.602-80.398 151.2-88.801 236.4-32.398-50.398-74.398-92.398-124.8-123.6l-3.6016-16.801c-12-55.199-37.199-108-72-151.2 93.602-44.398 194.4-68.398 298.8-68.398 104.4 0 205.2 22.801 298.8 68.398-33.598 44.398-58.797 96-70.797 151.2zm140.4-218.4c-19.199 14.398-36 30-52.801 48-98.398-48-204-73.199-315.6-73.199-110.4 0-217.2 25.199-315.6 73.199-15.602-18-33.602-33.602-52.801-48l-42-31.199c124.8-70.801 265.2-108 409.2-108s285.6 37.199 409.2 108z"/>
 <path d="m308.4 148.8c-20.398 0-38.398 16.801-38.398 38.398 0 20.398 16.801 38.398 38.398 38.398 20.398 0 38.398-16.801 38.398-38.398 0.003906-20.398-16.797-38.398-38.398-38.398zm0 52.801c-7.1992 0-14.398-6-14.398-14.398s6-14.398 14.398-14.398c8.3984 0 14.398 6 14.398 14.398 0.003906 8.3984-7.1953 14.398-14.398 14.398z"/>
 <path d="m891.6 225.6c20.398 0 38.398-16.801 38.398-38.398 0-20.398-16.801-38.398-38.398-38.398-20.398 0-38.398 16.801-38.398 38.398-0.003906 21.598 16.797 38.398 38.398 38.398zm0-52.801c7.1992 0 14.398 6 14.398 14.398 0 8.3984-6 14.398-14.398 14.398-7.1992 0-14.398-6-14.398-14.398-0.003906-8.3984 5.9961-14.398 14.398-14.398z"/>
 <path d="m750 184.8c20.398 0 38.398-16.801 38.398-38.398 0-20.398-16.801-38.398-38.398-38.398-20.398 0-38.398 16.801-38.398 38.398s16.797 38.398 38.398 38.398zm0-51.602c7.1992 0 14.398 6 14.398 14.398 0 8.3984-6 14.398-14.398 14.398-7.1992 0-14.398-6-14.398-14.398 0-8.3984 6-14.398 14.398-14.398z"/>
</svg>
