<?xml version="1.0" encoding="UTF-8"?>
<svg width="1200pt" height="1200pt" version="1.1" viewBox="0 0 1200 1200" xmlns="http://www.w3.org/2000/svg">
 <path d="m1062.5 212.48c-132.64-105.6-292.56-161.41-462.48-161.41-169.95 0-329.88 55.812-462.52 161.4-2.5938 2.0625-4.2109 5.1133-4.4883 8.4102-0.27734 3.3008 0.83984 6.5742 3.0586 9.0234l70.586 77.891c71.207 78.574 122.36 174.49 147.94 277.37l3.3242 13.379c-3.6953-2.2695-7.3086-4.6797-11.062-6.8633-4.1758-2.4102-9.3828-2.125-13.234 0.76953-3.8516 2.8906-5.6055 7.8125-4.4414 12.492l34.801 140c17.27 69.504 63.758 127.75 127.57 159.79 16.414 8.2305 33.527 14.363 51.215 18.707 9.2031 64.211 14.375 130.04 15.168 195.97 0.12109 5.9297 0.12109 11.844 0.12109 17.652 0 6.625 5.375 12 12 12h59.723c6.625 0 12-5.375 12-12 0-71.93 5.1953-143.72 15.227-213.61 17.605-4.332 34.738-10.477 51.168-18.719 63.805-32.039 110.3-90.289 127.56-159.79l34.812-140c1.1641-4.6797-0.58984-9.6016-4.4414-12.492-3.8516-2.9023-9.0586-3.1914-13.234-0.76953-3.6484 2.125-7.1641 4.4648-10.766 6.6719l3.2891-13.199c25.559-102.88 76.727-198.78 147.94-277.37l70.586-77.891c2.2305-2.4609 3.3359-5.7227 3.0586-9.0234-0.27734-3.2969-1.8828-6.332-4.4766-8.3828zm-451.8 494.35c-1.9805-4.1992-6.2031-6.875-10.848-6.875s-8.8672 2.6758-10.848 6.875c-28.453 60.277-44.051 124.74-46.801 191.73-11.039-3.0703-21.793-7.1406-32.316-11.941 2.3984-39.301 8.9766-78.277 19.957-115.97 15.445-53.148 38.977-103.19 70.031-149 53.305 78.742 84.098 169.87 89.914 265-10.5 4.7891-21.238 8.8555-32.258 11.914-2.7305-67.027-18.344-131.49-46.832-191.73zm23.066 197.02c-12.457 3.4922-50.711 3.9102-67.789 0 1.8125-56.219 13.105-110.57 33.887-162 20.809 51.395 32.102 105.76 33.902 162zm43.258-684.97c-1.668-5.2695-3.5898-10.488-5.3398-15.73 36.301 4.3672 72.109 12.109 106.96 23.062-18.793 20.941-36.238 43.211-51.793 66.516-7.3906 11.074-14.855 23.137-21.73 34.895-7.4531-36.719-16.742-73.016-28.094-108.74zm25.332 316.18c0 64.57-6.9492 138.12-18.648 200.14-17.617-50.16-42.469-97.777-74.102-141.46-2.2578-3.1211-5.8672-4.9688-9.7188-4.9688-3.8398 0-7.4648 1.8359-9.7188 4.957-31.535 43.488-56.293 90.926-73.98 141.28-12.191-65.82-18.562-147.68-18.562-198.27 0-109.44 17.496-217.88 51.984-322.32 13.992-42.383 30.898-84.18 50.387-124.55 21.277 44.125 39.457 89.855 54.145 136.26 31.609 99.492 47.82 203.45 48.215 308.93zm-207.66-207.32c-6.8984-11.82-14.387-23.914-21.805-35.016-15.516-23.258-32.914-45.457-51.648-66.359 34.801-10.957 70.57-18.707 106.86-23.102-0.40625 1.2109-0.875 2.4102-1.2734 3.625-13.137 39.77-23.84 80.113-32.133 120.85zm67.656-212.9c-127.29 6.9727-249.07 49.164-353.3 122.45-13.273-6.5625-26.762-12.66-40.402-18.434 119.93-90.191 261.55-139.48 411.94-143.39-6.3398 12.996-12.41 26.121-18.23 39.371zm-10.523 24.66c-5.2188 12.781-10.164 25.645-14.867 38.594-94.945 9.6367-187.11 41.449-267.74 92.496-11.797-7.2734-23.844-14.16-36.086-20.773 94.957-64.117 204.35-101.99 318.7-110.32zm-160.77 97.285v128.17c-30.758-29.375-64.094-56.074-99.574-79.824 31.633-19.215 64.98-35.379 99.574-48.348zm24 18.863c13.559 16.117 26.242 32.988 37.883 50.41 12.562 18.828 25.547 40.691 34.738 58.488l0.32422-0.16797c-5.3633 32.16-9.1797 64.535-11.52 97.055-18.949-25.68-39.551-50.016-61.414-72.781v-133zm296.81 108.8 0.19141 0.097656c9.168-17.762 22.152-39.625 34.738-58.488 11.641-17.426 24.312-34.297 37.883-50.41v133.93c-21.828 22.68-42.312 46.703-61.223 71.988-2.3594-32.621-6.25-65.012-11.59-97.121zm96.816-127.92c34.848 13.02 68.438 29.293 100.29 48.625-35.484 23.855-69.086 50.832-100.29 80.52zm122.65 34.141c-80.449-50.941-172.51-82.859-268.21-92.652-4.6914-12.91-9.6602-25.754-14.867-38.508 114.36 8.293 223.91 46.164 318.88 110.28-12.109 6.6094-24.047 13.57-35.797 20.879zm59.832-33.445c-104.26-73.297-226.25-115.56-353.59-122.47-5.7969-13.223-11.855-26.316-18.18-39.289 150.31 3.8984 291.88 53.16 411.79 143.28-13.512 5.7383-26.844 11.906-40.02 18.48zm-613.27 342.18c-26.531-106.71-79.594-206.2-153.44-287.7l-32.699-36.086c24.422 11.723 48.203 24.684 70.992 39.059 48.059 30.395 92.363 66.406 131.73 107.07 29.27 30.059 56.102 63.168 79.895 98.387-0.42187 12.191-0.73047 24.383-0.73047 36.602 0 43.957 4.7148 111 13.789 171.48-29.531-33.938-63.227-64.234-99.91-90.145zm9.3867 159.79-27.695-111.38c56.93 37.488 106.77 86.23 145.61 142.3-9.4805 34.031-15.613 69-18.457 104.3-49.406-30.098-85.336-78.375-99.457-135.22zm230.55 385.91h-35.809c-0.011718-2.0156-0.035156-4.0195-0.085937-6.0234-0.78125-64.105-5.7227-128.17-14.34-190.84 17.137 3.2031 46.5 3.2539 64.57 0.011719-8.875 64.535-13.82 130.58-14.336 196.85zm194.62-385.91c-14.102 56.762-49.934 105-99.266 135.11-2.8672-35.484-9.1328-70.355-18.574-104.28 38.82-56.027 88.645-104.72 145.54-142.2zm163.09-447.49c-73.859 81.504-126.92 181-153.44 287.69l-9.5742 38.473c-36.613 25.812-70.234 56.016-99.719 89.82 8.6758-55.848 13.535-116.55 13.535-172.67-0.046874-11.773-0.35937-23.52-0.79297-35.258 71.902-104.63 170.8-189.62 282.6-244.03z"/>
</svg>
