<?xml version="1.0" encoding="UTF-8"?>
<svg width="1200pt" height="1200pt" version="1.1" viewBox="0 0 1200 1200" xmlns="http://www.w3.org/2000/svg">
 <path d="m604.8 48c-304.37 0-552 247.63-552 552s247.63 552 552 552c304.37 0 552-247.63 552-552s-247.63-552-552-552zm483.67 340.55c-35.93 14.988-172.49 74.508-230.35 136.21-36.898 39.371-40.98 90.672-11.711 126.24l-7.9453 8.5078c-102.84 110.15-159.48 253.8-159.48 404.5v58.68c-19.883 2.8086-40.129 4.4531-60.648 4.9688v-444.48c67.859-6.2031 125.1-54.66 141.77-121.73l28.523-114.83c18.719-75.289 56.148-145.48 108.25-202.98l45.023-49.668c62.828 52.262 113.3 118.82 146.57 194.58zm-217.48 253.74-0.12109-0.10937c-17.941-16.824-23.617-39.77-17.41-62.746 16.57 8.7461 31.992 19.586 45.84 32.555 13.836 12.973 25.645 27.66 35.438 43.633-22.551 7.6797-45.816 3.4922-63.746-13.332zm85.031 2.2422c-11.074-18.359-24.504-35.219-40.309-50.051-15.828-14.832-33.516-27.145-52.547-37.008 3.4453-5.5781 7.5469-11.051 12.469-16.297 47.473-50.629 156.8-102.02 205.82-123.49-18.266 50.305-62.508 162.72-109.98 213.35-4.9219 5.2578-10.117 9.6953-15.457 13.5zm-174.7-448.55c0.82812 19.836 0.53906 40.859-0.625 62.855-29.82 25.223-56.988 53.688-81.109 85.031-2.8672-33.348-7.9062-66.348-14.977-98.879 10.5-19.934 22.176-39.758 34.922-58.922 16.285-24.383 34.465-47.891 54.047-70.246 4.2383 26.965 6.8555 53.82 7.7422 80.16zm-78.73 215.95-0.023437-3.0586c-0.035156-9.1797-0.26562-18.336-0.625-27.469 49.262-71.484 114.37-128.75 190.33-168.41l-13.176 14.531c-54.758 60.422-94.094 134.18-113.76 213.3l-28.523 114.83c-9.6836 38.988-35.531 70.523-69.312 88.32 23.207-74.883 35.09-152.8 35.09-232.05zm102.84-172.82c0.38281-15.047 0.45703-29.879-0.13281-44.039-0.96094-28.512-4.043-57.66-8.8203-86.902 43.105 16.859 83.484 39.168 120.25 66.168-39.781 17.277-77.043 39.043-111.3 64.773zm-105.88-66.359c-8.207 12.348-15.875 24.984-23.242 37.715-3.1562-11.879-6.4922-23.711-10.211-35.438-11.062-34.957-24.961-69.301-40.98-102.53 46.703 1.7773 91.883 9.5625 134.75 22.766-21.922 24.562-42.25 50.457-60.312 77.484zm-270.35 86.844c-1.1875-20.977-1.4883-42.348-0.69531-63.672 0.97266-26.762 3.5742-53.676 7.7539-80.305 19.523 22.309 37.645 45.949 54.035 70.5 13.402 20.074 25.766 41.102 36.949 62.473-6.9727 32.797-11.914 66-14.605 99.48-24.672-32.715-52.621-62.332-83.438-88.477zm120.23-93.41c-5.207 15.758-9.7578 31.68-13.934 47.699-8.0039-13.969-16.332-27.77-25.234-41.102-18.133-27.168-38.449-53.113-60.266-77.594 43.715-13.441 89.855-21.215 137.55-22.766-14.688 30.438-27.586 61.832-38.121 93.762zm-144.91 28.848c-0.55078 14.914-0.46875 29.832-0.085938 44.664-34.367-25.895-71.797-47.809-111.79-65.207 36.887-27.133 77.449-49.535 120.74-66.434-4.7109 28.836-7.8047 57.973-8.8633 86.977zm106.08 191.44c-0.23828 7.7031-0.48047 15.395-0.50391 23.113l-0.035156 2.3516c0 79.883 12.098 158.44 35.699 233.9-35.578-17.398-62.953-49.777-72.996-90.168l-28.523-114.83c-19.668-79.105-59.004-152.87-113.76-213.3l-13.309-14.676c77.723 40.621 143.83 99.816 193.43 173.61zm63.648 269.58c-26.629-78.406-40.176-160.51-40.176-244.12l0.023437-1.7656c0.16797-80.844 12.996-160.4 38.125-236.47 9.5625-29.004 21-57.648 34.105-85.414 14.398 30.504 26.762 62.027 36.887 93.996 23.172 72.973 35.062 149.23 35.363 226.91l0.011718 2.7344c0 83.352-13.477 165.19-39.938 243.37-10.871 2.8672-22.234 4.4414-33.875 4.5469-10.477-0.074219-20.676-1.4453-30.527-3.7852zm-306.59-462.07 45.023 49.668c52.117 57.516 89.543 127.7 108.25 202.98l28.523 114.83c16.922 68.051 75.625 116.84 144.85 121.87v444.41c-20.242-0.39453-40.199-1.9336-59.832-4.5586v-59.172c0-150.7-56.641-294.35-159.48-404.5l-7.957-8.5312c12.84-15.648 19.738-34.812 19.488-55.129-0.3125-25.078-11.09-49.668-31.176-71.09-59.809-63.781-203.7-125.23-233.63-137.58 33.266-75.191 83.496-141.27 145.93-193.2zm-25.656 437.06c-47.461-50.629-91.715-163.04-109.98-213.35 49.02 21.469 158.36 72.852 205.82 123.49 4.9219 5.2422 9.0352 10.691 12.516 16.262-19.055 9.875-36.758 22.188-52.598 37.031-15.816 14.832-29.258 31.703-40.344 50.102-5.3242-3.8281-10.496-8.293-15.418-13.539zm72.191-19.043c13.859-12.996 29.305-23.844 45.91-32.594 1.4883 5.5547 2.375 11.16 2.4375 16.766 0.21484 17.426-6.8633 33.77-19.992 46.078l-0.097656 0.097656c-13.055 12.238-29.809 18.227-47.184 16.895-5.5938-0.43359-11.125-1.668-16.57-3.5156 9.8164-16.031 21.637-30.742 35.496-43.727zm-237.41-12c0-62.594 11.004-122.64 31.094-178.39 17.629 49.391 64.141 169.88 116.63 225.85 20.074 21.422 43.922 33.758 68.93 35.688 2.2305 0.17969 4.4648 0.25391 6.6719 0.25391 17.797 0 34.836-5.6055 49.43-16.031l7.9453 8.5078c98.676 105.68 153.01 243.52 153.01 388.12v55.391c-246.29-44.594-433.71-260.44-433.71-519.39zm626.2 518.7v-54.695c0-144.6 54.336-282.43 153.01-388.12l7.9336-8.5078c14.82 10.609 31.703 15.926 49.043 15.926 26.41 0 53.762-12.133 75.996-35.855 50.605-53.965 95.641-167.9 114.61-220.29 18.84 54.203 29.207 112.32 29.207 172.84 0 257.58-185.45 472.54-429.8 518.7z"/>
</svg>
