<?xml version="1.0" encoding="UTF-8"?>
<svg width="1200pt" height="1200pt" version="1.1" viewBox="0 0 1200 1200" xmlns="http://www.w3.org/2000/svg">
 <path d="m1082.5 249.77c-128.76-128.81-300-199.74-482.17-199.74-182.45 0-353.91 71.16-482.8 200.36-2.3164 2.3164-3.5898 5.4961-3.5039 8.7617 0.085937 3.2656 1.5 6.3828 3.9258 8.5781l93.863 85.332c65.328 60.121 111.18 137.39 132.55 223.48l46.211 186.02c20.207 81.133 83.484 141.7 161.39 159.65 10.32 70.906 15.637 143.81 15.637 216.83 0 6.625 5.3633 12 12 12h40.836c6.6367 0 12-5.375 12-12 0-73.008 5.3164-145.89 15.625-216.79 78.023-17.914 141.39-78.516 161.57-159.68l46.246-186.02c21.395-86.113 67.223-163.39 132.5-223.46l93.758-85.992c2.4102-2.207 3.8164-5.3047 3.8867-8.5781 0.050782-3.2539-1.207-6.4219-3.5234-8.7383zm-138.34 8.6992c-28.586 23.867-154.49 144.56-192.3 442.82-16.234 17.426-31.234 35.902-45.215 55.176 25.141-305.55 113.72-525.49 128.36-560.06l92.172-28.598zm-37.945-109.29-73.906 22.934-34.246-67.824c37.34 11.711 73.535 26.664 108.15 44.891zm-161.61-59.195-65.113 41.281-51.434-56.578c39.602 1.6289 78.555 6.8359 116.55 15.297zm-79.777 60.828c-4.5234 31.094-25.43 188.11-38.676 517.05-5.0156-8.8203-10.199-17.543-15.695-26.074-2.2188-3.4219-6.0117-5.4961-10.094-5.4961-4.0781 0-7.8711 2.0625-10.094 5.4961-5.4609 8.4727-10.609 17.148-15.602 25.906-13.273-329.28-34.211-486.24-38.699-517.02l64.355-70.801zm-92.234-76.129-51.383 56.543-64.621-41.352c37.824-8.3867 76.586-13.559 116-15.191zm-169.48 29.438-34.715 67.992-73.945-22.945c34.785-18.301 71.145-33.301 108.66-45.047zm-129.86 63.609 92.426 28.68c14.723 34.488 103.95 254.26 129.14 560.1-13.98-19.285-28.98-37.754-45.215-55.164-34.32-291.36-164.95-416.91-195.22-442.4zm-26.398 9.1797-15.383 74.363-76.633-3.2148c28.824-26.578 59.566-50.387 92.016-71.148zm138.5 465.09-17.699-71.23c-22.523-90.66-70.789-172.05-139.64-235.39l-69.434-63.121 78.133 3.2773c19.754 16.441 145.38 130.54 185 397.98-11.664-10.945-23.758-21.469-36.359-31.512zm119.62 236.23c-44.242-25.586-77.965-68.605-91.117-121.45l-18.625-75c47.363 42.348 86.867 91.871 117.68 147.77-3.4297 16.094-5.9258 32.363-7.9414 48.684zm-117.23-691.23 43.367-84.926 81.086 51.887c4.4766 30.527 27.012 198.25 40.152 557.5-12.324 26.809-22.703 54.492-30.707 82.883-20.52-329.11-117.8-569.54-133.9-607.34zm220.73 940.07h-16.922c-0.51562-67.535-5.6055-134.87-14.832-200.63 7.7031 0.83984 15.469 1.4297 23.363 1.4297h0.035157c7.8359 0 15.539-0.57422 23.195-1.4023-9.2383 65.746-14.312 133.07-14.84 200.6zm-8.3633-223.2h-0.035156c-25.43 0-49.848-5.1836-72.312-14.449 8.2188-76.906 33.059-151.86 72.59-218.33 39.48 66.383 64.285 141.28 72.527 218.15-22.586 9.375-47.152 14.617-72.77 14.629zm48.359-192.16c13.117-359.35 35.699-527.41 40.164-557.82l81.504-51.66 42.793 84.77c-15.984 37.801-113.04 279.25-133.26 609.56-8.0508-29.086-18.625-57.43-31.199-84.852zm137.86 45.086c-13.078 52.668-46.621 95.566-90.66 121.19-1.957-15.875-4.4023-31.68-7.7031-47.328 30.492-55.668 69.648-105.06 116.64-147.38zm185.81-421.37c-68.762 63.277-117.04 144.66-139.57 235.34l-18.023 72.527c-11.941 9.5742-23.426 19.57-34.488 29.941 45.637-294.9 182.46-398.8 183.89-399.84l-0.38281-0.52734 78.816-1.8594zm-5.3789-86.641-13.535-72.254c32.207 20.555 62.734 44.125 91.379 70.414z"/>
</svg>
