<?xml version="1.0" encoding="UTF-8"?>
<svg width="1200pt" height="1200pt" version="1.1" viewBox="0 0 1200 1200" xmlns="http://www.w3.org/2000/svg">
 <path d="m1023.5 357.1c-3.5156 3.5156-9.2344 3.5156-12.75 0s-3.5156-9.2344 0-12.75 9.2344-3.5156 12.75 0 3.5156 9.2344 0 12.75zm-129.52 485.44c-13.219 0-26.062-5.2969-35.859-15-11.297-11.391-16.547-26.859-14.531-42.375-138.84 115.31-190.45 191.06-209.29 234.14-0.14062 0.375-0.23438 0.70312-0.46875 1.0781-5.7656 13.547-8.3906 23.859-9.375 31.078 0 0.60937-0.14062 1.3125-0.23438 1.9219v0.14063c0 2.2969 0.70312 4.2188 2.2969 5.625 1.6875 1.7812 3.9375 2.5312 6.6094 2.1562 29.391-3.7031 112.78-33 267.47-219.47-2.1562 0.23437-4.3125 0.70312-6.6094 0.70312zm106.69-157.55c-11.766-11.766-17.531-27.234-17.391-42.703-6.4688 4.9219-15.469 12.375-28.078 23.625-11.766 10.688-26.625 24.609-45.234 43.219-10.312 10.312-18.938 20.391-26.156 30.234-0.375 0.60938-0.70312 1.2188-1.2188 1.6875-10.547 15-17.531 29.625-20.625 43.453-2.5312 10.922 0.84375 22.219 8.8594 30.375 8.1562 8.0625 19.453 11.391 30.375 9 23.391-5.3906 48.844-21.469 75.375-48 38.391-38.531 57.469-60.938 66.844-73.453h-0.60938c-15.234 0-30.469-5.7656-42.141-17.391zm32.906-82.547h-0.23438c-7.3125 1.6875-14.297 5.2969-19.922 11.062-3.8438 3.8438-6.6094 8.1562-8.625 12.703 0 0.23438-0.14062 0.375-0.23438 0.60938-0.14062 0.46875-0.23438 0.84375-0.46875 1.3125 0 0.14062 0 0.23438-0.14062 0.375-5.5312 14.625-2.2969 31.922 9.4688 43.781 12 11.859 29.391 15 44.156 9.375 0.46875-0.23438 0.84375-0.375 1.3125-0.46875 4.7812-2.0625 9.375-4.9219 13.312-8.8594 16.312-16.219 16.312-42.609 0-58.781-10.453-10.453-25.219-14.156-38.625-11.062zm-29.812-279.84c-7.7344-7.9688-16.219-15.797-25.172-23.297-3.7969-3.1875-9.5156-2.6719-12.656 1.1719-3.1875 3.7969-2.6719 9.5156 1.1719 12.703 8.4844 7.0781 16.5 14.438 23.766 21.938 1.7812 1.8281 4.125 2.7656 6.4688 2.7656 2.25 0 4.5-0.84375 6.2344-2.5312 3.5625-3.4688 3.6562-9.1406 0.23438-12.75zm42.984 260.76c16.078-33.844 46.547-119.62-3.9375-209.16-2.5312-4.3125-8.0625-5.8594-12.375-3.375-4.3125 2.3906-5.7656 7.9219-3.375 12.234 52.781 93.609 7.5469 185.63-1.9219 202.92 6.9375-2.1562 14.391-3 21.609-2.625zm-79.547 48.703c2.8594-58.922-54.938-144.61-67.922-162.94-1.3125-17.531-4.0781-35.391-7.4531-52.078 0-0.14062-0.14062-0.23438-0.14062-0.23438-10.547-17.156-18.375-31.922-26.156-46.781-2.7656-5.2969-5.5312-10.312-8.1562-15.609 11.297 36.141 33.703 126 20.766 167.16-10.688-17.625-24.234-36.938-41.156-57.469-2.8594-14.391-19.547-93.609-51.469-152.06 1.4531-8.1562 4.3125-30.234-1.0781-56.625-10.078-11.156-20.391-22.219-30.703-32.859 12.844 23.297 15.703 47.062 15.703 64.219-1.3125-1.7812-2.625-3.8438-4.0781-5.5312-27.141-33.844-41.156-70.312-47.859-94.078l-0.14062-0.14063c-7.7812-6.9375-15.469-13.453-23.156-19.547 2.625 15.469 14.859 72.469 57.141 125.06 30.141 37.312 50.297 102.47 60.469 142.45-37.219-41.297-70.922-86.531-100.69-126.71-42.938-57.844-76.547-103.22-106.22-118.45-7.3125 5.2969-14.156 9.1406-20.391 12.375 25.312 0.14062 67.688 56.859 112.22 116.86 31.219 42.141 66.703 90 106.31 133.31 73.312 80.062 91.922 142.78 96.609 170.63-50.391-28.547-110.53-69.375-116.53-101.16-11.625-61.453-55.547-110.62-134.39-150.47-62.391-31.453-117.61-76.781-132.71-89.531-1.7812 6.4688-2.8594 12.234-3.8438 18.141-0.14062 0.60938-0.23438 1.2188-0.375 1.7812 21.938 18.141 71.859 56.859 128.86 85.688 43.219 21.844 75 46.547 96.141 74.391-23.391-10.688-58.781-22.781-100.22-24.234-61.453-2.0625-135.47-57.469-157.78-75.469-3.6094 4.4531-7.3125 9.2344-11.062 14.391 24 19.219 100.69 76.781 168.24 79.078 60.375 2.1562 108.23 29.531 118.69 35.859 4.9219 10.781 8.5312 21.938 10.781 33.703 0.375 2.2969 1.0781 4.4531 1.7812 6.7031-35.062-13.078-104.62-37.312-172.69-50.625-77.766-15.234-136.08-42.938-153.84-51.844-1.6875 6.7031-2.1562 13.312-1.2188 19.453h0.14062c23.625 11.531 76.781 34.781 146.76 49.078-32.156 8.0625-82.922 16.078-126.14 2.1562 2.3906 7.2188 4.9219 14.156 9 21 14.766 3.375 29.859 4.6875 44.531 4.6875 51 0 97.312-15.703 108.94-19.922 75.938 18.234 146.63 45.938 159 50.859 6 7.5469 13.219 15 21.375 22.312-34.453-7.0781-78.938-8.2969-107.16 21.141 6 2.3906 12 5.0625 17.859 7.9219 40.688-33 118.22-2.7656 130.22 2.1562 33.938 22.922 70.219 41.625 89.391 51-2.8594 2.7656-5.7656 5.5312-8.625 8.1562-0.14062 0-0.14062 0.14062-0.23438 0.14062-9.9375 9.6094-19.547 19.078-27.375 26.859-0.14062 0.14062-0.375 0.375-0.375 0.46875-9.9375 9.9375-18.469 19.688-25.688 29.391-21.234 2.3906-121.08 15.938-192.14 64.922-67.781 46.547-294.47 73.688-336.14 78.234 2.5312 6 5.5312 11.625 8.7656 17.156 23.859-2.625 75.703-9 132.61-19.078-16.922 18.703-47.859 47.766-91.219 67.453 4.7812 4.4531 9.8438 8.625 15 12.844 59.625-29.156 94.781-73.078 103.78-85.312 69.938-13.547 142.22-32.297 177.37-56.531 13.312-9.1406 27.844-16.922 42.609-23.625-21.609 27.469-58.312 69.469-93.469 87.375-8.5312 4.3125-18 9.1406-28.078 14.156-54.609 27.234-121.92 60.938-160.31 93.703 5.2969 3.6094 10.547 6.9375 15.703 10.453 37.547-30.703 103.45-63.469 152.63-88.078 10.078-5.0625 19.688-9.8438 28.219-14.156 53.391-27.141 107.06-101.39 117.47-116.3 37.453-13.078 73.219-19.922 94.078-23.156l-153.71 144c-0.09375 0-0.14062 0.046875-0.23438 0.14062-78 29.156-168.24 111.7-187.69 129.94 6.4688 3.2344 12.703 5.3906 18.938 6.9375 23.062-21 81.609-72.141 139.31-103.31-29.156 35.531-46.312 63.938-56.156 86.297-4.3125 9.8438-7.3125 18.375-9.2344 25.781-13.219 6-31.453 11.859-52.219 11.859-20.391 0-43.453-5.625-66.938-22.219-9.8438-6.8438-20.531-13.922-31.781-21.234-3.7031-2.3906-7.4531-4.7812-11.156-7.3125-0.14062 0-0.375-0.14062-0.46875-0.23438-0.375-0.23438-0.84375-0.60938-1.2188-0.70312l-0.375-0.375c-0.375-0.14062-0.70312-0.46875-1.0781-0.84375-56.297-36.844-118.31-82.547-129.37-157.92-0.14063-0.70312-0.23438-1.5469-0.23438-2.2969-1.7812-12-2.0625-24.938-0.84375-38.625 0.9375-10.453 4.2188-20.625 10.078-30.609 10.312-18.141 28.781-35.156 55.078-51 33.234-20.062 77.766-36.703 125.29-49.453 1.2188-0.60938 2.5312-1.0781 3.9375-1.0781h0.14062c77.297-20.391 161.76-30.703 218.76-28.922-0.84375-0.46875-1.6875-1.0781-2.625-1.5469-9.2344-5.1562-18.609-9.8438-28.219-13.922l-0.14062-0.14062c-0.84375-0.375-1.4531-0.70312-2.1562-0.9375h-0.14062c-2.2969-0.9375-4.3125-1.9219-6.6094-2.7656h-0.14062c-2.2969 0.14062-6.9375 0.23438-13.453 0.46875-8.625 0.375-20.625 0.84375-35.062 1.9219h-0.70312c-26.062 1.7812-49.547 4.0781-72 6.9375-8.1562 0.9375-16.547 2.1562-24.844 3.4688-0.46875 0-0.9375 0.14062-1.4531 0.14062-1.0781 0.14062-2.1562 0.375-3.2344 0.60938-0.60938 0.14062-1.2188 0.14062-1.7812 0.14062-65.062 9.9375-117.84 24.609-156 43.219-0.60938 0.375-1.2188 0.70312-1.7812 0.9375l-6 3.1406c-14.859 7.9219-27.234 16.688-36.703 25.922-7.3125 7.0781-14.156 14.531-21.141 23.062-0.375 0.46875-0.60938 0.84375-1.0781 1.3125-14.062 17.531-24.469 35.531-30.703 53.156-8.5312 22.781-10.547 46.078-6.375 69.609 0 0.23438 0 0.375 0.14062 0.46875 2.1562 12.703 6.2344 25.547 12.141 38.625 0.23438 0.375 0.46875 0.84375 0.60938 1.2188 6.4688 14.156 14.859 27.938 25.547 42.375 2.0625 2.8594 4.4531 5.7656 6.9375 8.7656l0.375 0.375c13.078 16.078 30.234 33.141 49.312 49.453 0.14062 0.14062 0.23438 0.14062 0.375 0.375 0.14062 0 0.23438 0.14062 0.23438 0.23438 0.23438 0.14062 0.375 0.23438 0.46875 0.46875 14.391 12.141 29.297 23.156 44.156 33 47.297 31.312 134.53 75.141 192 21.844-0.23438 1.0781-0.375 2.1562-0.46875 3.2344-0.70312 6.2344 0.70312 12.375 3.9375 17.391-21.234 16.219-45 22.453-69.141 22.453-39 0-78.844-16.453-110.53-34.219-4.7812-2.625-9.375-5.3906-13.688-8.0625-3-1.7812-5.8594-3.6094-8.625-5.5312-1.2188-0.70312-2.3906-1.4531-3.4688-2.1562-5.8594-3.8438-11.766-7.9219-17.531-12.234-8.0625-5.7656-15.938-11.859-23.766-18.375-1.7812-1.4531-3.4688-3-5.2969-4.4531-3-2.5312-5.8594-5.0625-8.7656-7.6875-14.391-12.844-27.609-26.062-38.531-38.859-1.6875-1.9219-3.2344-3.7031-4.6875-5.5312-2.5312-2.8594-4.7812-5.8594-6.9375-8.625-0.375-0.375-0.70312-0.84375-0.9375-1.2188-9.1406-12.375-16.781-24.375-22.922-36.469-1.5469-3-3.1406-6-4.4531-9-1.0781-2.3906-2.1562-4.9219-3.1406-7.3125-4.0781-9.7031-7.3125-19.453-9.4688-29.062-0.60938-2.625-1.0781-5.1562-1.5469-7.7812-0.60938-3.375-1.2188-6.8438-1.5469-10.219-2.1562-19.078-0.60938-38.156 4.5469-57 1.2188-4.0781 2.5312-8.2969 4.0781-12.375 0.70312-1.9219 1.4531-3.8438 2.1562-5.7656 4.7812-12.141 11.391-24.234 19.547-36.375 3.7031-5.5312 7.9219-11.062 12.375-16.547 0.84375-0.9375 1.5469-1.9219 2.3906-2.8594 6.7031-8.1562 13.547-15.609 20.766-22.547 3.1406-3 6.4688-6 10.078-8.8594 4.9219-3.9375 10.219-7.7812 15.938-11.391 4.6875-3 9.7031-6 15-8.7656l2.625-1.3125c0.14062-0.14062 0.23438 0 0.23438 0l3.9375-2.2969c0.375-0.14062 0.60938-0.23438 0.9375-0.375 0.23438-0.14062 0.375-0.23438 0.60938-0.23438l0.14062-0.14062c23.766-11.625 52.781-21.703 86.859-30.141 16.078-3.9375 33.234-7.6875 51.469-10.922 7.6875-1.3125 15.469-2.625 23.531-3.8438h0.70312c0.09375 0 0.14062-0.046875 0.23438-0.14062h0.23438c1.5469-0.23438 2.8594-0.46875 4.3125-0.70312 0.9375-0.14062 1.7812-0.23438 2.7656-0.375 7.5469-1.2188 15.141-2.1562 22.453-3.1406 22.781-2.8594 46.453-5.0625 72.469-6.8438 0.60938-0.14062 1.2188-0.23438 1.7812-0.23438h1.2188c-24.234-6.1406-47.531-9.7031-70.219-13.219-19.078-2.8594-37.781-5.7656-56.156-10.078-0.23438 0-0.60938-0.14062-0.9375-0.23438-0.14062 0-0.23438 0-0.46875-0.14062-26.859-6.2344-52.922-15.703-78.703-32.859-9.2344-6.2344-17.391-13.078-24.141-20.531-1.0781-1.0781-2.0625-2.1562-3-3.2344-4.0781-4.6875-7.7812-9.7031-10.922-15-5.625-9.2344-9.8438-19.312-12.469-30.141-0.375-1.4531-0.70312-3-1.0781-4.5469-1.2188-5.7656-1.9219-11.391-2.1562-16.781-1.0781-19.453 2.5312-37.219 6.7031-50.766 0.70312-2.1562 1.3125-4.2188 2.0625-6.1406 1.4531-3.9375 3-7.9219 4.6875-11.766 8.1562-18.609 19.547-35.766 31.547-47.062 2.7656-2.7656 5.2969-5.3906 7.3125-8.1562 1.5469-2.0625 3-3.9375 4.2188-6.1406 2.0625-3.2344 3.6094-6.4688 5.0625-9.8438 3.375-7.6875 5.3906-15.844 7.5469-24.234 4.9219-19.219 10.547-40.922 31.781-63 4.9219-5.0625 9-9.9375 12.469-15 1.6875-2.2969 3.2344-4.5469 4.6875-6.9375 0.9375-1.5469 1.9219-3.1406 2.7656-4.6875 0.70312-1.3125 1.3125-2.5312 2.0625-3.7031 0.84375-1.7812 1.7812-3.6094 2.625-5.2969 3.375-6.8438 6.9375-13.922 12.703-21.844 0.375-0.46875 0.70312-1.0781 1.2188-1.5469 5.625-7.5469 12.844-15.141 22.078-23.297h0.14062c3.2344-2.8594 6.6094-5.7656 10.312-8.7656 1.4531-1.2188 3-2.3906 4.6875-3.7031 2.7656-2.1562 5.7656-4.3125 9-6.7031 77.391-56.391 180 58.547 247.92 134.53 31.312 34.781 47.062 60.703 60.609 85.922 0.46875 0.84375 0.9375 1.6875 1.3125 2.625 2.5312 4.6875 4.9219 9.1406 7.3125 13.688 14.625 27.844 29.766 56.766 63.609 99.234 45.938 57.609 58.078 106.08 60.469 135.37-1.6875 1.4531-3.375 2.8594-4.9219 4.4531-4.9219 4.9219-8.5312 10.547-11.391 16.547-0.60938 0.23438-1.0781 0.46875-1.6875 0.84375-5.5312 2.8594-12.609 7.6875-20.391 13.922zm-261.74 66c-5.8594-1.3125-11.531-2.5312-17.156-3.8438h-0.14062c-7.2188-1.6875-14.391-3.375-21.234-4.9219-37.219-8.5312-70.078-15.938-99.234-20.531h-0.14063c-19.219 3.7031-38.297 8.1562-57.141 13.312 32.156-0.84375 70.781 6.4688 117.38 16.781-69.469 6.8438-186 21.703-265.45 49.219-0.09375 0.09375-0.14062 0.14062-0.23437 0.14062-11.156 9.7031-19.312 19.219-24.375 29.156 86.297-40.453 264.37-58.453 326.86-63.703-24.375 23.531-80.766 64.922-176.06 65.391-92.391 0.60938-137.16 21.141-157.55 36 0 7.6875 0.70312 15 2.0625 22.078 7.6875-8.625 43.078-39.375 155.63-40.078 124.31-0.70312 185.86-65.297 201.24-84 3.8438 0.84375 7.5469 1.6875 11.531 2.625 17.156 3.8438 34.547 5.2969 51.469 5.2969 60.703 0 114.7-19.922 125.86-24.234-10.688-0.84375-22.312-3.375-35.297-7.3125-32.859 9.2344-87.375 20.062-138.14 8.625zm-48-555.47c-30.375-16.453-58.688-20.391-82.453-3.1406-4.7812 3.6094-9.2344 6.9375-13.078 10.078-13.688 10.781-23.297 20.297-30 29.391-0.14062 0.23438-0.23437 0.375-0.375 0.60938-5.0625 6.8438-8.0625 12.844-11.297 19.312-2.1562 4.3125-4.3125 8.625-7.2188 13.312-0.375 0.84375-0.84375 1.7812-1.5469 2.625l-0.14062 0.14062c-5.0625 8.3906-11.156 16.078-18.938 24-17.766 18.609-22.312 36.375-27.234 54.938-3.2344 12.844-6.7031 26.156-14.625 39-0.23437 0.46875-0.60937 0.9375-0.9375 1.3125-3.4688 5.7656-7.9219 11.156-13.453 16.547-12.375 11.766-23.859 30.375-31.312 50.391 0 0.23438-0.14063 0.46875-0.23438 0.70312 0 0.375-0.14062 0.84375-0.375 1.2188-0.14062 0.23438-0.23437 0.60938-0.375 0.84375-5.1562 15.469-10.312 38.625-5.3906 62.766 3.2344 15.703 9.9375 29.391 20.531 41.531 6.375 7.5469 14.156 14.391 23.391 20.531 5.7656 3.8438 11.531 7.2188 17.297 10.312-7.4531-9.7031-11.625-19.312-15-28.781 0-0.14062 0-0.23438-0.14063-0.375-1.0781-3-2.0625-6-3-9-3.2344-10.078-6.375-19.547-12.609-29.531-24.844-39.609 12.375-95.297 48-134.86 13.078-14.625 14.859-25.078 17.391-39.609 0.70313-4.2188 1.5469-8.625 2.7656-13.547 0.14062-0.46875 0.14062-1.0781 0.375-1.5469 2.8594-12 8.0625-26.156 19.688-43.922 20.859-31.922 38.297-40.922 55.078-49.688 1.6875-0.9375 3.4688-1.7812 5.2969-2.7656 0.14062-0.14063 0.23437-0.14063 0.23437-0.14063 8.3906-4.5469 17.156-9.7031 27-18.609 17.156-15.469 36.703-21.844 52.688-24.141zm261.61 491.16c9.9375 5.1562 19.078 9.8438 26.766 13.547 14.859-33.844-19.688-102.23-46.312-145.08-1.0781 15.234-4.3125 28.688-10.453 38.766 24.703 46.922 29.297 80.062 30 92.766zm-715.78 93c20.766-4.7812 45-8.7656 72.609-11.766 2.5312-3.7031 5.3906-7.4531 8.3906-11.062 7.3125-9.1406 15.375-18 24.375-26.859 4.4531-4.3125 9.2344-8.5312 14.531-12.609-62.156 12.234-131.16 34.922-160.55 75.703-0.23438 0.14063-0.375 0.23438-0.375 0.46875-6.4688 8.8594-10.781 18.609-12.938 28.781-6 29.859-4.2188 58.922 5.625 86.391 0.14062 0.60937 0.375 1.0781 0.46875 1.5469 0 0.23438 0.14062 0.60938 0.375 0.84375 9.375 25.453 25.219 49.547 48.375 74.062 17.531 18.703 37.312 35.391 54.375 49.547 0.84375 0.70312 1.6875 1.3125 2.5312 1.7812l6.7031 5.7656c11.531 9.375 22.547 18.375 32.391 27 26.156 22.922 53.156 30.141 76.781 30.141 1.7812 0 3.6094 0 5.2969-0.23438-11.625-8.0625-22.781-16.781-33.703-25.922-1.2188 0.84375-2.2969 1.6875-3.375 2.3906-6-2.1562-12.141-5.0625-18.234-8.8594 1.9219-1.4531 4.5469-3.375 7.7812-5.7656-15-13.547-28.547-27.609-39.938-40.922-5.3906 3.1406-10.312 6.1406-14.766 9-0.23438-0.23438-0.60938-0.46875-0.84375-0.70313l-8.3906-6.8438c-1.7812-1.4531-3.4688-2.8594-5.2969-4.4531 5.2969-3.7031 11.297-7.3125 18.141-11.156-9.6094-12.844-17.531-25.688-24.141-38.531l-32.297 15.609c-3.375-3.375-6.7031-6.7031-9.9375-10.219-1.3125-1.3125-2.5312-2.7656-3.8438-4.0781 13.219-4.3125 26.156-9.8438 38.859-16.453-0.46875-1.2188-0.9375-2.2969-1.3125-3.4688-0.46875-0.9375-0.84375-2.0625-1.2188-3.1406-2.2969-5.3906-4.2188-11.062-5.8594-17.062-0.70312-2.2969-1.4531-4.9219-2.1562-7.6875l-0.23438-1.2188c-0.375-1.6875-0.70312-3.375-1.2188-5.0625l-62.859 1.4531c-1.9219-3.9375-3.6094-7.9219-5.0625-12-0.70312-2.0625-1.4531-3.9375-2.0625-6 11.062 0 35.766-0.14062 67.312-1.2188-2.1562-18.844-0.9375-37.922 3.6094-56.531-51 4.3125-71.391 19.547-77.156 24.703-0.46875-7.4531-0.375-15 0.46875-22.547 14.391-8.3906 39.703-18 82.219-20.766l0.46875-1.2188c1.7812-5.2969 4.2188-10.922 6.8438-16.312 0.46875-0.9375 0.84375-1.7812 1.3125-2.625 2.2969-4.6875 4.7812-9.375 7.6875-14.156-35.766 4.5469-65.062 10.781-87.469 18.469 0.375-0.84375 0.84375-1.5469 1.4531-2.2969 6.2344-8.5312 15-16.688 26.297-24.141zm859.31-429.14c-3.9375 2.8594-4.9219 8.5312-2.0625 12.609 68.859 96.141 17.156 240.94 2.625 276.71 5.625 1.9219 11.062 4.7812 15.938 8.625 14.766-35.062 72.469-189.24-3.9375-295.92-2.8594-4.0781-8.5312-4.9219-12.609-2.0625zm-729.47 786.52c8.625 1.5469 17.062 2.3906 25.078 2.3906 4.0781 0 8.1562-0.23438 12.141-0.70312 2.0625-0.14062 4.0781-0.375 6.1406-0.70312 0.60938 0 1.2188-0.14062 1.6875-0.375 1.9219-0.23438 3.8438-0.60938 5.7656-1.0781 1.7812-0.375 3.4688-0.84375 5.2969-1.3125 0.23438 0 0.60938-0.14062 0.9375-0.375 2.1562-0.46875 4.3125-1.2188 6.4688-2.0625 2.3906-0.84375 4.6875-1.7812 6.9375-2.8594 2.5312-1.0781 5.0625-2.2969 7.4531-3.6094 2.2969-1.3125 4.4531-2.625 6.7031-4.0781-6.1406-3.6094-12-7.2188-17.391-10.781-3.2344 1.6875-6.6094 3.1406-9.9375 4.3125-1.2188 0.46875-2.3906 0.9375-3.7031 1.2188-1.6875 0.60938-3.375 1.0781-5.1562 1.4531-2.0625 0.60938-4.0781 1.0781-6.1406 1.4531l-2.1562 0.375c-9.8438 1.5469-20.297 1.5469-31.219 0h-0.14062c-1.7812-0.375-3.7031-0.60938-5.5312-0.9375-10.688-1.9219-21.469-5.2969-32.531-9.7031-4.3125-1.7812-8.7656-3.8438-13.078-5.8594-2.1562-1.0781-4.4531-2.1562-6.6094-3.375-5.0625-2.5312-9.9375-5.3906-15-8.3906-4.9219-3-9.8438-6.2344-14.766-9.4688-17.062-11.625-33.609-25.078-48.938-39.234-30.469-28.453-56.156-59.766-71.297-85.453-51.703-87.234-36.844-161.29 45.234-226.22 1.6875-1.3125 3.4688-2.7656 5.3906-3.9375 2.0625-1.4531 4.0781-2.8594 6.375-4.2188 1.7812-1.2188 3.6094-2.2969 5.5312-3.2344 1.4531-0.84375 2.8594-1.6875 4.4531-2.3906 6.2344-3.2344 12.938-6.2344 20.062-9 2.0625-0.84375 4.0781-1.5469 6.1406-2.2969 1.4531-0.60938 2.8594-1.0781 4.3125-1.5469 2.5312-0.84375 5.1562-1.6875 7.7812-2.5312 5.2969-1.6875 10.688-3.1406 16.219-4.5469 2.7656-0.70312 5.5312-1.4531 8.3906-2.0625 3.7031-0.9375 7.4531-1.6875 11.297-2.5312 3.9375-0.84375 8.0625-1.5469 12.141-2.2969 0.84375-0.23438 1.7812-0.375 2.625-0.46875 4.4531-0.84375 8.8594-1.5469 13.312-2.1562 1.5469-0.23438 3.1406-0.46875 4.6875-0.70312 3.375-0.46875 6.8438-0.9375 10.312-1.4531 4.9219-0.60938 9.9375-1.2188 15-1.6875 20.156-2.1562 40.453-3.4688 60-4.3125 18.844-6.9375 39.703-13.312 62.625-18.938l0.46875-0.14062c-16.219-0.23438-33.844-0.14062-52.312 0.46875-4.4531 0.14062-8.8594 0.23438-13.453 0.46875-0.9375 0-1.9219 0.14062-3 0.14062-16.078 0.70312-32.531 1.7812-49.078 3.4688-1.0781 0.14062-2.2969 0.23438-3.4688 0.375-11.156 1.0781-22.453 2.5312-33.469 4.2188-3 0.46875-6.1406 0.9375-9.2344 1.4531-6.1406 1.0781-12.234 2.1562-18.234 3.375-12.844 2.625-25.453 5.7656-37.312 9.375-1.9219 0.60938-3.8438 1.2188-5.7656 1.7812-24.469 7.7812-46.219 18-62.859 31.219-59.062 46.688-86.297 99.375-81.703 157.22 0.375 4.2188 0.84375 8.3906 1.5469 12.609v0.14062c0.70312 4.2188 1.5469 8.5312 2.5312 12.844 2.0625 8.625 4.7812 17.391 8.1562 26.297 5.0625 13.219 11.625 26.766 19.781 40.547 4.3125 7.3125 9.6094 15.375 15.703 23.625 1.5469 2.0625 3.1406 4.0781 4.6875 6.2344 3.2344 4.2188 6.6094 8.5312 10.219 12.844 44.625 54.141 115.92 114.7 183.94 127.31zm-59.906-575.29c1.9219 2.7656 4.2188 5.3906 6.4688 8.0625 4.4531 4.9219 9.375 9.7031 14.766 14.156 2.625 2.1562 5.2969 4.3125 8.0625 6.375 4.3125 3.2344 8.7656 6.375 13.453 9.375 15.609 9.9375 33 18.234 53.062 25.312 0.23438 0.14062 0.60938 0.23437 0.84375 0.375 0.23438 0.14062 0.46875 0.23437 0.60938 0.23437 0.23438 0.14063 0.60938 0.23438 0.84375 0.23438 8.625 3 17.156 5.625 25.922 8.1562 9.1406 2.625 18.234 5.0625 27.703 7.5469 8.1562 2.1562 16.312 4.3125 24.609 6.6094 0.70312 0.23437 1.4531 0.46875 2.2969 0.70312 8.2969 2.2969 16.688 4.7812 25.078 7.5469h0.14062c11.062-2.3906 22.453-4.5469 34.453-6.6094-3.8438-1.4531-7.5469-3-11.297-4.3125-12.141-4.5469-24.141-8.3906-36-11.766-13.922-5.625-27.844-12.844-41.766-22.078-11.859-8.0625-22.312-17.156-30.844-27.141-2.5312-3-4.9219-6-7.2188-9.2344-18.609-1.4531-35.625-4.6875-51-9.9375-2.7656-6-4.3125-11.766-5.625-17.531-0.375-1.4531-0.70312-2.8594-0.9375-4.3125 13.547 6 29.062 10.219 46.219 12.469-4.4531-9.1406-7.6875-18.938-9.8438-29.156-0.60938-3-1.0781-5.8594-1.4531-8.7656-22.453-11.062-39.469-21.141-50.062-27.703-0.375-4.2188 0.23438-8.625 1.4531-13.453 0.46875-1.9219 1.0781-3.8438 1.7812-5.8594l45.703 25.312c0.375-20.859 5.1562-39.375 9.9375-52.781 0.14062-0.375 0.23438-0.60937 0.375-0.9375l-23.531-21.375c1.9219-2.1562 4.0781-4.4531 6.2344-6.7031 2.0625-2.0625 4.0781-4.0781 6.1406-6.2344 4.2188 4.2188 10.453 10.219 18.234 17.297 8.8594-18.844 20.766-36 33.234-47.859 2.5312-2.5312 4.6875-4.9219 6.6094-7.4531-7.5469-7.2188-13.781-13.453-18.609-18.375 0.14062-0.60938 0.375-1.0781 0.46875-1.6875 1.2188-3.9375 2.3906-8.1562 3.9375-12.703 0.46875-1.5469 1.0781-3.1406 1.7812-4.9219 4.0781 4.2188 11.156 11.531 20.625 20.625 1.5469-4.6875 2.8594-9.8438 4.3125-15.234 5.1562-20.297 11.625-45.469 36.141-71.062 6.375-6.4688 11.062-12.375 14.859-18.703 1.9219-3.2344 3.4688-6.1406 4.7812-8.8594-2.625 1.2188-5.1562 2.2969-7.5469 3.2344-0.70312 0.23437-1.4531 0.46875-2.0625 0.84375l-5.1562 2.0625c-18.469 7.2188-35.859 14.062-60.141 43.453-11.625 14.297-19.453 27.703-24.469 42.234-0.14062 0.14062-0.23438 0.375-0.23438 0.46875-1.6875 4.7812-3 9.2344-4.2188 13.688-4.2188 14.062-7.0781 24.375-21.609 37.453-7.3125 6.6094-13.781 12.703-19.688 18.938-0.46875 0.46875-0.9375 0.9375-1.3125 1.4531-24 24.938-38.625 47.766-43.781 68.297-0.23438 0.375-0.375 0.70313-0.375 1.0781-3.7031 14.391-2.625 27.609 3 39.234 5.1562 10.547 7.3125 20.625 9.4688 31.219 0.70312 3 1.3125 6 2.0625 9 0 0.14063 0.14062 0.23438 0.14062 0.375 2.1562 9.1406 5.1562 19.219 11.766 29.625-1.2188-0.84375-2.5312-1.5469-3.7031-2.3906-1.4531-0.84375-2.7656-1.9219-4.0781-2.8594-2.7656-2.0625-5.5312-4.2188-8.2969-6.4688-5.3906-4.5469-10.219-9.2344-14.391-14.156-1.9219-2.1562-3.6094-4.3125-5.2969-6.6094-8.625-11.766-14.156-24.609-16.453-38.391-0.46875-2.7656-0.84375-5.5312-1.0781-8.3906-0.23438-3.2344-0.375-6.6094-0.23438-10.078 0.14062-5.1562 0.60938-10.453 1.4531-15.703 0.23438-1.6875 0.60938-3.375 0.9375-5.1562 0.84375-3.4688 1.6875-6.8438 2.625-10.219 1.0781-3.4688 2.1562-6.7031 3.4688-10.078 2.5312-6.4688 5.625-12.938 8.8594-18.938s6.9375-11.625 10.781-16.781c4.2188-5.7656 8.625-10.922 13.078-15.234 3-3.1406 6-5.625 8.8594-7.9219 10.547-8.0625 17.531-16.781 22.781-25.781 2.625-4.5469 4.7812-9.1406 6.8438-13.688 1.9219-4.5469 3.7031-9.1406 5.3906-13.688 6.8438-18.141 13.219-35.156 33.141-51.938 17.859-15 25.312-26.625 31.781-36.844 9.375-14.766 18.141-28.547 60.703-53.156 4.9219-2.8594 9.9375-4.9219 15.141-6.2344 1.9219-0.46875 3.8438-0.9375 5.7656-1.2188 4.0781-0.60938 8.1562-0.70313 12.469-0.46875 1.0781 0.14062 2.1562 0.23437 3.375 0.375 1.5469 0.14062 3.1406 0.375 4.6875 0.70312 4.7812-4.5469 10.219-9.2344 16.219-14.062-5.1562-1.7812-10.312-3.1406-15.234-3.9375-2.0625-0.375-3.9375-0.60937-5.8594-0.70312-16.078-1.6875-31.219 1.6875-45.469 9.9375-26.062 15.141-40.688 26.766-50.391 37.219-1.0781 1.0781-2.1562 2.1562-3.1406 3.375-2.8594 3.2344-5.2969 6.375-7.4531 9.4688-2.1562 3.1406-4.0781 6-6 9-1.2188 1.7812-2.3906 3.7031-3.6094 5.625-1.2188 1.7812-2.5312 3.7031-3.9375 5.625-4.6875 6.4688-10.688 13.219-20.625 21.469-23.391 19.781-31.312 40.781-38.391 59.391-6.4688 17.297-12.141 32.297-29.062 45.234-15.609 12-31.453 31.688-42.469 55.078-5.0625 10.312-9 21.469-11.531 32.859-0.70312 2.7656-1.2188 5.625-1.6875 8.5312-0.9375 5.8594-1.5469 11.625-1.6875 17.531-0.14062 7.4531 0.375 14.625 1.6875 21.703 3 17.297 10.078 33.375 21.141 47.859z"/>
</svg>
