<?xml version="1.0" encoding="UTF-8"?>
<svg width="1200pt" height="1200pt" version="1.1" viewBox="0 0 1200 1200" xmlns="http://www.w3.org/2000/svg">
 <path d="m498.47 249.24c3.5156-3.5156 9.2344-3.5156 12.75 0s3.5156 9.2344 0 12.75-9.2344 3.5156-12.75 0-3.5156-9.2344 0-12.75zm12.703-15.984c0.79688 0.23438 1.6406 0.32812 2.4375 0.32812 3.9375 0 7.5469-2.5781 8.6719-6.5625 3.4688-12.328 7.4531-25.031 11.859-37.688 1.6406-4.6875-0.84375-9.8438-5.5781-11.438s-9.7969 0.84375-11.438 5.5781c-4.5 13.031-8.625 26.016-12.188 38.719-1.3594 4.7812 1.4531 9.75 6.2344 11.109zm-21.234 57.609c-12.703 83.297-0.46875 138.47 7.0781 162.61 6.8438-0.60937 13.688 0.14063 20.062 2.3906-5.3906-14.062-23.297-70.078-9.375-162.37 0.70312-4.9219-2.625-9.4688-7.5469-10.219-5.0625-0.70312-9.4688 2.625-10.219 7.5469zm588.61 444.1c-32.062 42.844-111.47 108.61-180.47 113.86-3 0.14063-5.8594 0.23438-8.7656 0.23438-20.297 0-38.062-5.5312-53.062-16.547 3.7031-4.5469 5.2969-10.312 4.5469-16.312-0.14062-1.0781-0.375-2.1562-0.46875-3.375-0.23438-1.2188-0.46875-2.625-0.84375-3.9375-1.4531-6.8438-4.0781-15-8.3906-24.703 5.3906 3.8438 22.688 14.625 45.234 14.625 4.2188 0 8.625-0.375 13.078-1.3125-18.141-16.312-56.391-49.078-95.391-72-8.2969-10.547-18-21.938-29.391-34.312 59.391 22.453 127.45 84 144.24 99.703 3.6094-1.7812 7.0781-3.9375 10.688-6.4688 7.6875-5.2969 15.844-10.688 24.609-16.312l0.046876-0.046874c-29.203-22.969-78.422-47.578-115.41-66.094-7.8281-3.8906-15.234-7.5938-21.891-11.016-41.156-20.859-82.453-77.531-91.219-90.094l-0.09375-0.09375c-26.297-9.1406-51.375-14.156-67.547-16.781-3.4688-6.6094-7.6875-13.312-12.703-20.062 12.141 1.4531 48.609 6.6094 87.469 20.391 0 0 0.09375 0.046874 0.1875 0.09375 0.23438 0.046874 0.42188 0.1875 0.65625 0.23437 0.65625 0.1875 1.2656 0.375 1.9219 0.65625 0 0 0.14062 0 0.23437 0.14063 19.922 7.0781 40.078 16.547 58.078 28.922 25.5 17.578 80.484 31.5 133.74 41.578h0.046875c0.14062 0.046874 0.28125 0.046874 0.375 0.09375 54 10.219 106.22 16.453 123.71 18.469 2.8594-6.9375 5.0156-14.25 6.4688-22.125-6.3281-6.7031-33.75-29.203-118.31-29.672-95.062-0.5625-143.21-49.031-156.32-64.781-2.625 0.60938-5.0625 1.1719-7.7344 1.7812-13.406 3-27.047 4.2188-40.219 4.2188-46.734 0-88.219-15.047-97.641-18.703-2.4375 0.32812-4.7812 0.46875-7.1719 0.46875h-1.2188c-1.3125-1.4531-2.625-2.8594-4.0781-4.3125-7.7812-7.7812-15-14.766-21.609-21.141 9.2344 5.3906 19.078 8.3906 32.859 7.2188 0.65625-0.1875 1.4062-0.23437 2.2031-0.28125 0.14062 0 0.23438-0.046874 0.375-0.046874 0.046875 0 0.14062-0.046876 0.1875-0.046876 16.922-2.0625 39.469-10.078 73.453-27.141 11.062-5.5312 23.391-12 37.078-19.547 4.0781-2.1562 8.0625-4.3125 12-6.1406-31.312-21.938-88.312 0.46875-96.375 3.8438-24.703 16.688-50.859 30.469-66.141 38.062-12.844-11.859-23.391-21-31.781-27.234 0.60938-45.703 42.469-108.14 52.688-122.63l0.046875-0.046875c0.75-9.8438 2.1562-19.875 3.7969-29.625 0 0 0 0.14062-0.14062 0.14062-6.8438 10.219-14.859 21.234-24.844 33.938-43.312 54.234-44.297 97.219-43.312 110.39-0.60938-0.23438-1.2188-0.60938-1.6875-0.84375-2.2969-4.6875-5.0625-9.1406-9-12.938-2.1562-2.1562-4.4531-3.9375-6.8438-5.5312 2.625-23.297 12.844-59.766 46.781-102.38 26.156-32.766 37.781-54.938 49.078-76.547 12.469-23.859 24.234-46.453 53.766-79.453 53.062-59.297 133.31-148.78 194.39-104.16 33.844 24.703 40.688 38.391 47.297 51.609 3.9375 8.1562 7.7812 15.844 18.609 27.141 16.781 17.391 21.234 34.547 25.078 49.688 3.4688 13.547 6.6094 25.219 18.141 36.234 19.922 18.938 38.391 57.375 35.297 94.078-2.5312 27.938-17.156 51.609-42.375 68.391-20.297 13.547-40.688 20.859-61.547 25.781-0.375 0.14062-0.84375 0.14062-1.2188 0.23438-14.156 3.375-28.688 5.625-43.312 7.7812-13.453 2.0625-27 4.2188-40.922 7.0781 68.156 5.3906 184.69 21.469 233.29 69.141 62.766 61.453 68.859 130.22 17.766 198.61zm-90.094 2.5312c-43.828-22.312-70.219-54.516-77.719-64.594-53.953-10.453-109.73-24.938-137.06-43.781-7.7812-5.2969-16.078-10.078-24.703-14.391h-0.046875c16.922 20.719 42.094 47.953 66.188 60.188 6.6562 3.375 14.016 7.0781 21.797 10.969 41.812 20.906 93.047 46.594 123.05 71.859 0.046875-0.046876 0.09375-0.046876 0.14062-0.09375 9.6094-6.375 19.312-12.938 28.453-20.156zm44.25-45.844c-18.609-2.2969-54.234-6.7031-93.938-13.688 13.406 14.062 35.391 33.281 65.016 46.922 11.156-10.078 21.141-21 28.922-33.234zm-119.53-157.97c-21.844-0.65625-47.625 3.7031-78.094 10.266 50.859 5.3906 125.39 15.656 181.6 33.141-0.046876 0-0.046876-0.046876-0.046876-0.046876l-0.14062-0.14062c-3.1406-2.0625-6.375-4.2188-9.8438-6.375-25.219-15.141-58.312-27.469-93.234-36.844h-0.14062s-0.09375-0.046876-0.14063-0.046876zm51.75-178.74c-18.703 8.8594-54.656 23.906-101.2 34.359 0.09375 0.046875 0.1875 0.046875 0.28125 0.046875 24.234 5.1562 57.469 8.8594 86.297-0.14062 0.375-0.84375 0.60938-1.6875 0.84375-2.5312 2.625-8.0625 5.625-17.156 11.391-26.391 1.0781-1.6875 1.9219-3.4688 2.3906-5.3906zm-148.78 3.6094c-45.469 1.5469-81.609 21.844-90.375 27.234h-0.14063c-3.4688 7.9219-6.1406 16.219-7.7812 24.844-0.14062 0.60938-0.23437 0.9375-0.375 1.5469v0.046875c23.766-8.7656 64.078-22.594 106.27-32.672h0.046874c0.23438 0 0.60938-0.14062 0.84375-0.23438 0.09375-0.046875 0.23438 0 0.32813-0.046875 7.5469-1.7812 15.141-3.4688 22.688-4.9688 58.031-11.391 101.77-31.641 116.91-39.234v-0.046875c-3.1406-12.234-10.781-25.453-18.844-36.844-20.297 16.219-78.375 58.547-129.61 60.375zm94.547-117.28c-18.234 14.766-55.312 43.078-97.312 64.312-29.859 15.141-52.781 31.922-68.766 50.625 18-7.3125 42.844-14.766 70.922-15.703 45.609-1.5469 100.31-41.766 119.16-56.625-2.7656-3.375-5.3906-6.375-7.5469-8.8594-11.391-12.703-14.531-23.391-16.453-33.703zm-91.453-51.469c13.406-1.1719 32.672-5.3906 52.031-18.188l-0.046876-0.046875c-4.3125-3.1406-8.7656-5.2969-13.312-7.6875-0.84375-0.46875-1.7812-0.9375-2.625-1.4531-9.1406 0.375-21.609 11.062-36 27.375zm-46.406-55.078c-2.2969 13.031-12.047 56.625-44.438 96.891-21.141 26.25-35.859 70.406-44.25 101.34 26.484-30.094 50.625-62.625 72.094-91.641 13.312-18 25.547-34.453 36.844-48.375 15.844-19.688 30-34.547 43.312-42.234-2.2969-1.6875-4.5469-3.6094-6.9375-5.7656-18.703-16.781-43.078-15.844-50.156-15.234h-0.14063c-2.1562 1.7812-4.1719 3.3281-6.3281 5.0156zm-57.797 84.703c18-22.688 28.266-46.641 33.984-64.312-7.5469 6.9375-14.953 14.391-21.938 21.703l-0.14063 0.14062s-0.09375 0.14062-0.1875 0.1875c-8.1562 14.859-11.062 30.094-11.766 42.328zm-85.5 182.76c7.9219-12.469 17.391-25.875 29.109-39.984 2.3906-12.141 15.234-72.141 39.656-117.05-1.0312-6.1406-2.625-19.969-0.23438-36.984l-0.09375 0.09375c-2.2969 2.5312-4.3125 4.7812-6.375 7.0781-22.781 25.453-34.453 44.297-44.531 62.766-0.14062 0.23438-0.14062 0.46875-0.23437 0.70312 0 0.046875-0.046876 0.046875-0.046876 0.09375-11.297 35.578-23.438 93.234-17.25 123.28zm-34.453 90.844c0.84375-10.781 4.6875-35.766 22.922-70.547l0.046876-0.046875c-3.75-6.6094-6-14.812-7.1719-24.094-0.046874 0.046875-0.046874 0.09375-0.09375 0.14062-21.234 35.297-41.156 80.297-33.234 103.45 5.1562-2.5312 11.156-5.5312 17.531-8.8594zm97.828-70.641c0.09375-0.14062 0.14063-0.23438 0.32813-0.375 3.6094-5.0625 6-10.078 6.9375-14.766 2.0625-10.453 5.1562-20.391 9.7031-30 0.23438-0.84375 0.60938-1.6875 1.0781-2.3906 16.078-33.469 47.156-61.547 94.219-85.312 46.688-23.625 88.219-57.234 101.16-68.062-1.9219-6.9375-5.3906-14.859-11.766-24.609-3.375-5.1562-6.4688-9.375-9.4688-12.844-0.046874-0.09375-0.09375-0.09375-0.1875-0.1875-29.156 20.859-58.594 24.422-74.438 24.422-2.5312 0-4.5938-0.09375-6.375-0.1875-10.688 13.312-21.938 28.547-33.328 44.016-24.234 32.625-51.703 69.609-82.453 103.22-52.781 57.844-68.625 103.92-73.453 126.84 9.9375-5.7656 20.297-12 30.234-18.609 0.60938-0.60938 1.3125-1.0781 2.1562-1.4531 0.14063 0 0.23438-0.14062 0.46875-0.23438 17.625-12.141 33.703-24.938 43.312-37.219l0.14063-0.14062c0.32812-0.375 0.5625-0.75 0.84375-1.0781 0.28125-0.375 0.5625-0.75 0.89062-1.0781zm77.25 43.547c0.60938-0.23438 1.0781-0.46875 1.5469-0.60938 0.60937-0.375 1.2188-0.46875 1.9219-0.70312 33.469-13.219 64.078-18 92.062-22.219 14.391-2.1562 27.938-4.3125 41.062-7.3125 17.859-8.5312 27.703-16.688 33.703-24.938-9.9375 1.9219-20.062 2.625-30 2.625-38.766 0-74.297-11.625-84.375-15.234-0.046876 0-0.046876 0-0.046876-0.046875-57.891 13.969-111.66 34.969-121.74 39.047-3.2344 4.0781-6.9375 8.0156-11.016 12.094h-0.14062l-0.046875 0.046875c0.046875 0 0.09375-0.046875 0.14062-0.046875 25.547-4.2188 56.297-3.2344 76.922 17.297zm21.469 69.375c24.141-5.5312 45.844-10.5 65.578-14.062h-0.046876c-65.391-11.625-126.84-13.312-147.24-4.6875h-0.14062c-18.234 9.1406-33.703 15.938-47.391 20.531 25.547 6.6094 63.75 12.984 99.469 5.0156 10.312-2.2969 20.25-4.5938 29.766-6.7969zm258.24 95.109c-0.14062-3-0.23438-6-0.46875-9-0.46875-4.875-1.9219-9.7031-4.3125-14.438-64.219-29.812-193.55-43.781-245.86-48.328 20.156 18.234 61.828 45.656 130.74 46.031 67.781 0.375 102.61 14.297 119.91 25.828v-0.046875zm16.359 21.984s-0.046875 0.046875-0.046875 0.09375c-0.9375 6.2344-2.2969 12.141-4.0781 17.766 1.875-5.6719 3.2344-11.672 4.125-17.859zm1.5469-27.234c0.375 8.3438-0.14062 16.078-1.1719 23.578 0.14062 0.98438 0 1.9219-0.1875 2.9062 0.09375-0.60938 0.23438-1.1719 0.28125-1.7344 1.2188-7.7812 1.5469-16.078 1.0781-24.703zm-451.55 32.625c87.141 104.3 144.24 143.29 176.86 157.55 0.46875 0.14062 0.84375 0.23438 1.3125 0.60938 9.9375 4.0781 17.625 6 23.062 6.8438 0.60937 0 1.2188 0.14062 1.7812 0.14062 1.4531 0 2.2969-0.60938 2.625-1.0781 0.60937-0.46875 1.3125-1.5469 1.0781-3.375-0.70312-5.625-2.625-13.688-7.3125-24.609-13.922-32.625-52.688-90-157.78-177.84 0 10.922-4.2188 21.609-12.234 29.531-7.9219 7.9219-18.375 12.234-29.156 12.234zm7.4062-79.312c-0.23438-0.375-0.60938-0.84375-0.9375-1.3125-5.3906-7.5469-12.141-15.234-19.922-23.156-14.156-14.062-25.547-24.844-34.547-33l-0.75-0.75c-0.14062-0.14062-0.375-0.23438-0.46875-0.375-7.5469-6.7031-13.312-11.625-17.859-15.141-0.84375 11.156-5.2969 22.078-13.781 30.469-8.3906 8.5312-19.312 12.938-30.469 13.781 3.4688 4.5469 8.3906 10.312 15.141 17.859 0.14062 0.14062 0.23438 0.23438 0.375 0.46875 0.23438 0.14062 0.46875 0.375 0.60938 0.60938 0.14062 0.14062 0.23438 0.23438 0.23438 0.375 8.2969 9 18.938 20.297 32.859 34.312 14.297 14.156 27.938 24.375 41.062 30.609 5.5312 2.7656 11.062 4.7812 16.312 6 7.6875 1.6875 15.703-0.70312 21.469-6.4688s8.1562-13.781 6.4688-21.469c-2.3906-10.453-7.6875-21.469-15.703-32.859zm-151.69-70.547c1.2188 5.3906 3.9375 10.453 8.0625 14.625 2.625 2.625 5.7656 4.7812 9 6.2344 0.70313 0.14062 1.3125 0.375 1.9219 0.70312 10.688 3.9375 23.156 1.5469 31.688-6.9375 8.5312-8.5312 10.922-20.859 6.9375-31.547v-0.14062c-0.09375-0.09375-0.14063-0.14062-0.14063-0.23438-0.14062-0.375-0.23437-0.60938-0.375-0.9375v-0.14062c-0.14062-0.23438-0.14062-0.375-0.23437-0.60938-1.4531-3.2344-3.4688-6.2344-6.2344-9-4.0781-4.2188-9.375-6.8438-14.766-8.0625-2.1562-0.46875-4.3125-0.70312-6.4688-0.70312-7.6875 0-15.469 2.8594-21.375 8.7656-7.4531 7.5469-10.219 18.234-8.0625 27.938zm-285.56 26.625c1.0781 0 2.0625-0.14062 3-0.46875 153.47-53.391 247.45-24.234 266.53-17.062-2.2969-6.375-3-13.219-2.3906-20.062-33.234-10.547-126.14-30-270 20.062-4.6875 1.6875-7.2188 6.8438-5.5312 11.531 1.2188 3.7031 4.6875 6 8.3906 6zm17.016 143.53c33-29.531 55.547-41.297 79.453-53.766 21.609-11.297 43.781-22.922 76.547-49.078 42.609-33.938 78.938-44.156 102.23-46.781h0.14063c1.5469 2.3906 3.375 4.6875 5.5312 6.8438 3.8438 3.9375 8.2969 6.8438 12.938 9 0.23437 0.46875 0.60937 1.0781 0.84375 1.6875-13.078-0.9375-56.062 0-110.39 43.312-12.703 9.9375-23.766 18-33.938 24.844 0 0.14062-0.14062 0.14062-0.14062 0.14062 9.7031-1.6875 19.734-3.0938 29.625-3.8438l0.046874-0.046875c14.531-10.219 76.922-52.078 122.63-52.688 6.2344 8.3906 15.375 18.938 27.234 31.781-2.5312 5.0625-5.625 11.156-9.4688 18.141-7.4531 14.156-17.297 31.453-28.547 48-3.375 8.0625-25.781 65.062-3.8438 96.375 1.7812-3.9375 3.9375-7.9219 6.1406-12 7.5469-13.688 14.062-26.062 19.547-37.078 17.062-33.938 25.078-56.531 27.141-73.312 0-0.09375 0.046875-0.14062 0.046875-0.23438 0-0.23438 0.09375-0.46875 0.09375-0.70312 0.046875-0.65625 0.09375-1.3125 0.23438-1.9219 1.2188-13.781-1.7812-23.531-7.2188-32.859 6.375 6.6094 13.312 13.781 21.141 21.609 1.4531 1.4531 2.7656 2.7656 4.2188 3.9375v0.14062c0.14062 2.625 0 5.4844-0.375 8.3438 4.6875 12.047 28.172 76.922 14.531 137.9-0.60938 2.6719-1.1719 5.0625-1.7344 7.6875 0.046875 0.046875 0.046875 0.046875 0.09375 0.046875 15.938 13.453 64.219 61.688 64.688 156.37 0.46875 83.625 22.688 111.47 29.625 118.22 7.7812-1.3125 15.234-3.4688 22.219-6.4688-2.0625-17.625-8.2969-69.703-18.469-123.61-10.078-53.391-24-108.61-41.625-134.16-12.375-18-21.844-38.297-28.922-58.219l-0.14062-0.14062c-0.375-0.84375-0.60938-1.6875-0.84375-2.5312-13.922-39-19.078-75.609-20.531-87.703 6.7031 5.0625 13.453 9.2344 20.062 12.703 2.625 16.219 7.7812 41.391 16.922 67.688 12.703 8.8594 69.234 50.156 90 91.219 3.4688 6.7031 7.0781 14.062 11.062 21.938 18.469 36.938 43.078 86.156 66.141 115.31 5.625-8.7656 11.062-16.922 16.312-24.609 2.5312-3.6094 4.6875-7.0781 6.4688-10.688-15.844-17.062-77.297-84.938-99.703-144.24 12.375 11.391 23.766 21.141 34.312 29.391 22.922 39 55.688 77.297 72 95.391 5.3906-28.781-9-52.078-13.312-58.312 9.7031 4.3125 17.859 6.9375 24.703 8.3906 1.3125 0.375 2.7656 0.60938 3.9375 0.84375 1.2188 0.14062 2.2969 0.375 3.375 0.46875 0.9375 0.14062 1.9219 0.23438 2.8594 0.23438 5.0625 0 9.7031-1.6875 13.547-4.9219 12.609 17.297 18 38.062 16.219 61.922-5.2969 69-71.062 148.45-113.86 180.47-30.609 22.922-61.312 34.312-91.312 34.312-37.219 0-73.312-17.391-107.3-52.078-47.625-48.609-63.703-165.14-69.141-233.29-2.8594 13.922-5.0625 27.469-7.0781 40.922-2.1562 14.625-4.4531 29.156-7.7812 43.312-0.14062 0.375-0.14062 0.84375-0.23438 1.2188-4.9219 20.859-12.234 41.297-25.781 61.547-16.781 25.219-40.453 39.844-68.391 42.375-2.7656 0.14062-5.625 0.23438-8.3906 0.23438-33.938 0.14062-68.156-17.156-85.688-35.531-11.062-11.531-22.688-14.625-36.234-18.141-15.141-3.8438-32.297-8.2969-49.688-25.078-11.297-10.781-18.938-14.625-27.141-18.609-13.219-6.6094-26.859-13.453-51.609-47.297-44.766-61.219 44.859-141.37 104.16-194.39zm521.53 325.69c-13.547-29.625-32.859-51.609-46.922-65.062 6.9375 39.703 11.391 75.375 13.688 93.938 12.234-7.7812 23.156-17.766 33.234-28.922zm12.609-15.375c7.2188-9.2344 13.781-18.844 20.156-28.453-25.219-30-50.859-81.375-71.766-123.14-3.9375-7.7812-7.5469-15.141-10.922-21.844-12.234-24.141-39.609-49.453-60.375-66.234 4.3125 8.625 9.1406 17.062 14.531 24.844 18.844 27.375 33.375 83.156 43.781 137.16 10.078 7.5469 42.234 33.844 64.547 77.625zm-178.82-189.24c4.5469 52.312 18.469 181.69 48.234 245.86 4.7812 2.3906 9.6094 3.8438 14.531 4.3125 3 0.23438 6.1406 0.46875 9 0.46875-11.531-17.391-25.312-52.219-25.781-119.86-0.375-68.859-27.703-110.62-45.938-130.78zm-14.672 35.953c-6.5156 30.375-10.828 56.109-10.266 77.906 0 0.046875 0 0.09375 0.046875 0.09375v0.23438c9.375 34.922 21.703 68.062 36.844 93.234 2.1562 3.4688 4.3125 6.8438 6.4688 9.9375-17.484-56.109-27.656-130.6-33.094-181.45zm-22.781 21.984c3.5625-19.734 8.5312-41.391 14.062-65.531 2.2031-9.5156 4.4531-19.453 6.7969-29.766 8.0156-35.812 1.6406-74.016-5.0156-99.516 0.046875 0.046875 0.09375 0.09375 0 0.1875-4.6875 13.547-11.391 29.062-20.391 47.062 0 0.14062-0.14062 0.23438-0.14062 0.375-8.625 20.391-6.9375 81.844 4.6875 147.24zm-328.4-63.938c0.46875-0.375 0.9375-0.70312 1.4531-1.0781 13.688-11.062 29.625-22.922 47.062-35.859 29.016-21.469 61.5-45.562 91.641-72.094-30.891 8.3906-75.047 23.109-101.34 44.25-40.266 32.344-83.859 42.094-96.891 44.438-1.7812 2.1562-3.4688 4.3125-5.0156 6.5625-0.60938 7.2188-1.5469 31.453 15.234 50.062 2.1562 2.3906 4.0781 4.6875 5.7656 6.8438 7.7812-13.219 22.547-27.375 42.141-43.078zm-3 26.016c-16.312 14.297-27 26.766-27.375 36 0.46875 0.84375 0.9375 1.7812 1.4531 2.625 2.3906 4.5469 4.5469 9 7.6875 13.312 12.844-19.219 17.062-38.531 18.234-51.938zm94.078 115.45c14.859-18.797 55.078-73.594 56.625-119.2 0.98438-28.219 8.3438-52.875 15.703-70.875-18.703 15.938-35.531 38.859-50.625 68.766-21.234 42-49.547 79.078-64.312 97.312 10.312 1.9219 21 5.0625 33.703 16.453 2.5312 2.1562 5.5312 4.7812 8.8594 7.5469zm90.422-87c1.5-7.5469 3.1875-15.141 4.9688-22.641 0.046875-0.14062 0-0.23438 0.046875-0.375 0.14062-0.375 0.14062-0.60938 0.23438-0.84375 0 0 0-0.046875 0.046875-0.046875 10.078-42.234 23.906-82.5 32.672-106.27h-0.046875c-0.60938 0.14062-0.9375 0.23438-1.5469 0.375-8.625 1.6875-16.922 4.3125-24.844 7.7812v0.14062h-0.09375c-5.3438 8.8125-25.547 45.047-27.094 90.328-1.7812 51.328-44.203 109.31-60.375 129.61 11.391 8.0625 24.609 15.703 36.844 18.844h0.046875c7.5938-15.188 27.844-59.062 39.234-116.91zm15.047 16.312c-0.046875-0.09375-0.046875-0.1875-0.046875-0.28125-10.406 46.547-25.5 82.453-34.359 101.2 1.9219-0.46875 3.7031-1.3125 5.3906-2.3906 9.2344-5.7656 18.375-8.7656 26.391-11.391 0.84375-0.23438 1.6875-0.46875 2.5312-0.84375 9-28.781 5.2969-62.062 0.14062-86.297zm59.297-170.76s0.046875-0.09375 0.046875-0.14062l-0.046875 0.046875v0.14062c-4.0781 4.0781-8.0156 7.7812-12.094 11.016-4.0312 10.078-25.078 63.891-39.047 121.74 0 0.046874 0 0.046874 0.046875 0.046874 4.4531 12.703 21.703 65.297 12.609 114.38 8.2969-6 16.453-15.844 24.938-33.703 3-13.078 5.1562-26.625 7.3125-41.062 4.2188-27.938 9-58.688 22.219-92.156 0.23438-0.70313 0.46875-1.4531 0.84375-2.1562 0.14062-0.375 0.375-0.70313 0.46875-1.2188-20.531-20.625-21.469-51.375-17.297-76.922zm33.188-78.188c-6.4688 1.2188-14.672 3.3281-24.469 7.0312-9.0938 3.4219-19.547 8.0625-31.078 14.297h-0.046875c-0.14062 0.09375-0.28125 0.14062-0.42188 0.23438-15.938 8.7656-34.078 20.766-53.859 37.219-0.14062 0.14062-0.23438 0.14062-0.375 0.23438-5.3906 4.4531-10.781 9.2344-16.312 14.297-33.609 30.703-70.547 58.219-103.22 82.453-15.469 11.391-30.703 22.688-44.062 33.375 0.84375 13.078 0.14062 47.156-24 81 3.4688 3 7.6875 6.1406 12.844 9.4688 9.7031 6.375 17.625 9.8438 24.609 11.766 10.781-12.938 44.391-54.469 68.062-101.16 23.672-46.875 51.656-77.859 84.938-94.031 0.046875-0.046875 0.09375-0.046875 0.14062-0.09375 0.09375-0.046875 0.14062-0.09375 0.23438-0.14062 0.70312-0.46875 1.5469-0.84375 2.3906-1.0781 9.6094-4.5469 19.547-7.6875 30-9.7031 5.0625-0.9375 10.312-3.9375 16.078-8.1562l0.28125-0.28125c0.23438-0.14062 0.375-0.23438 0.60938-0.46875 18.844-14.859 40.172-45.703 57.703-76.266zm-83.484-4.1719c9.1875 1.125 17.391 3.375 23.953 7.0781 0.046875-0.046875 0.09375-0.046875 0.14062-0.09375 34.781-18.234 59.859-22.078 70.547-22.781 3.2344-6.1406 6.1406-12 8.8594-17.531-23.062-7.9219-68.062 12-103.31 33.234h-0.14062s-0.09375 0.046875-0.14062 0.09375zm-190.18 87.141c17.016-2.3438 30.797-0.79688 36.984 0.23438 44.906-24.375 104.86-37.219 117.05-39.656 14.25-11.859 27.656-21.281 40.078-29.062-30-6.2344-87.75 5.9062-123.37 17.203-0.046875 0-0.046875 0.046875-0.046875 0.046875-0.23438 0.14062-0.46875 0.14062-0.70312 0.23438-18.469 10.078-37.312 21.703-62.766 44.531-2.2969 2.0625-4.5469 4.0781-7.0781 6.375l-0.09375 0.09375zm-31.359 29.062c-7.3125 6.9375-14.625 14.297-21.609 21.844l-0.046875 0.046875c17.672-5.7188 41.672-15.984 64.219-33.938-12.234 0.70312-27.422 3.6094-42.328 11.766-0.046875 0.046875-0.14062 0.09375-0.1875 0.1875l-0.14062 0.14062z"/>
</svg>
