<?xml version="1.0" encoding="UTF-8"?>
<svg width="1200pt" height="1200pt" version="1.1" viewBox="0 0 1200 1200" xmlns="http://www.w3.org/2000/svg">
 <path d="m498.47 261.98c-3.5156-3.5156-3.5156-9.2344 0-12.75s9.2344-3.5156 12.75 0 3.5156 9.2344 0 12.75-9.2344 3.5156-12.75 0zm23.812-34.969c3.4688-12.375 7.4531-25.078 11.859-37.641 1.6406-4.6875-0.84375-9.8438-5.5312-11.438-4.6406-1.5938-9.7969 0.84375-11.438 5.5312-4.5 12.938-8.625 25.969-12.188 38.719-1.3594 4.7812 1.4531 9.75 6.2344 11.109 0.79688 0.23438 1.6406 0.32812 2.4375 0.32812 3.9375 0 7.5469-2.5781 8.6719-6.5625zm-32.344 63.844c-12.703 83.766-0.375 139.22 7.3125 163.08 6.7031-0.60938 13.547 0.14062 19.922 2.2969-5.1562-13.688-23.531-70.312-9.4688-162.71 0.84375-4.9219-2.625-9.4688-7.5469-10.219-4.7812-0.70312-9.4688 2.625-10.219 7.5469zm570.84 245.53c62.766 61.547 68.859 130.22 17.766 198.61-32.062 42.844-111.47 108.61-180.47 113.86-3 0.23438-5.8594 0.23438-8.7656 0.23438-20.297 0-38.062-5.5312-53.062-16.453 3.7031-4.6875 5.2969-10.453 4.5469-16.453-0.14062-1.0781-0.375-2.2969-0.60938-3.4688 14.766 13.688 33.844 19.781 56.531 18.141 60.609-4.5469 136.22-64.922 167.39-106.69 46.219-61.922 41.062-119.16-15.938-174.94-60.938-59.859-251.16-66.234-271.22-66.703h-0.14062c-7.3125 3-14.625 6.375-22.312 10.453 73.312-0.46875 193.69 21.375 261.47 62.156 31.922 19.219 49.219 41.062 51.375 64.688 7.6875 84.703-62.062 129.94-112.92 163.08-8.625 5.625-17.062 11.062-24.469 16.312-18.609 13.078-36.844 17.531-53.062 17.531-14.625 0-27.609-3.6094-37.453-7.7812-1.4531-6.7031-4.0781-14.859-8.3906-24.609v-0.14062c-17.766-39.469-64.547-103.69-182.39-198.71v-0.14062c-6.4688-12.938-16.219-26.297-29.156-39.703-1.2188-1.4531-2.625-2.8594-4.0781-4.3125-7.6875-7.6875-15-14.766-21.609-21.141-11.391-10.781-21.234-19.547-29.391-26.297-7.5469-6.1406-13.688-10.453-18.469-12.938-0.46875-0.23438-0.9375-0.60938-1.4531-0.70312-2.1562-4.6875-5.2969-9.1406-9.1406-12.938-2.1562-2.1562-4.4531-3.9375-6.8438-5.5312v-0.14062c2.5312-23.297 12.703-59.766 46.688-102.23 26.156-32.766 37.781-54.938 49.078-76.453 12.469-24 24.234-46.547 53.766-79.547 53.062-59.297 133.22-148.92 194.39-104.16 33.844 24.703 40.688 38.391 47.297 51.609 3.9375 8.1562 7.7812 15.844 18.609 27.141 16.781 17.531 21.234 34.547 25.078 49.688 3.4688 13.547 6.6094 25.312 18.141 36.234 19.922 18.938 38.391 57.375 35.297 94.078-2.5312 27.938-17.156 51.609-42.375 68.531-20.156 13.453-40.688 20.766-61.688 25.688-0.375 0.14062-0.60938 0.23438-0.9375 0.23438-14.156 3.375-28.688 5.625-43.453 7.7812-13.453 2.0625-27 4.2188-40.922 7.0781 68.156 5.3906 184.69 21.469 233.29 69.141zm-255-422.86c11.297 2.5312 24.141 7.6875 35.625 18 9.1406 8.2969 16.688 12.234 24.703 16.312 13.312 6.9375 27 14.062 43.453 39.141 13.312 20.297 15.844 34.781 17.859 46.453 1.9219 10.922 3.375 18.844 13.078 29.625 27.938 31.219 57.234 75.141 37.219 106.78-4.5469 7.4531-6.9375 14.766-9.4688 22.453-2.5312 7.5469-4.9219 15.234-9.4688 22.922 1.9219-1.2188 3.8438-2.3906 5.7656-3.7031 20.766-13.922 32.391-32.391 34.312-55.078 2.625-30.703-13.312-63.844-29.766-79.453-15.234-14.531-19.219-30-23.062-44.859-3.7031-14.156-7.2188-27.609-20.625-41.625-12.703-13.312-17.531-23.062-21.844-31.547-6.1406-12.375-11.391-22.922-41.625-45.141-16.219-11.859-35.625-9.9375-56.156-0.23438zm-325.78 409.18c2.8594 2.8594 6.2344 4.9219 9.9375 6.375 0.14062 0.14062 0.375 0.14062 0.60938 0.23437 0 0 0.14062 0.14063 0.23438 0.14063 3.375 1.0781 6.9375 1.6875 10.547 1.6875 7.7812 0 15.609-2.7656 21.234-8.3906 8.3906-8.3906 10.781-20.531 7.2188-31.078-0.14062-0.375-0.23438-0.60938-0.375-0.9375 0-0.14063-0.14062-0.375-0.23438-0.60938-0.14062-0.46875-0.375-0.84375-0.46875-1.3125-1.4531-3.1406-3.4688-6.1406-6.1406-8.7656-4.0781-4.0781-9.1406-6.8438-14.766-8.0625-2.0625-0.46875-4.3125-0.70313-6.4688-0.70313-8.0625 0-15.609 3.1406-21.375 8.7656-7.4531 7.5469-10.219 18.234-8.0625 27.938 1.2188 5.3906 3.9375 10.547 8.0625 14.766zm114 110.16c0.60938 0.375 1.3125 0.70312 1.9219 0.9375 5.2969 2.5312 10.453 4.3125 15.469 5.5312 7.6875 1.6875 15.703-0.70313 21.469-6.4688 5.7656-5.7656 8.1562-13.781 6.4688-21.469-1.2188-5.1562-3-10.312-5.625-15.703v-0.14062c-0.14062-0.375-0.23438-0.60938-0.46875-0.9375l-0.14062-0.14063c-6.2344-12.938-16.453-26.391-30.375-40.453-26.859-26.859-43.547-41.391-53.531-49.219-0.70312 11.156-5.2969 22.078-13.781 30.609-8.2969 8.1562-19.078 13.078-30.609 13.922 7.9219 9.9375 22.453 26.625 49.219 53.391 13.781 13.781 27.234 23.859 39.938 30.141zm-410.53-115.78c-4.6875 1.6875-7.2188 6.8438-5.5312 11.531 1.3125 3.7031 4.7812 6 8.5312 6 0.9375 0 1.9219-0.14063 2.8594-0.46875 153.47-53.391 247.45-24.234 266.53-17.062-1.7812-5.0625-2.625-10.453-2.625-15.703 0-1.4531 0-2.7656 0.23438-4.2188-33.234-10.688-126.14-30.141-270 19.922zm19.922 161.02c33-29.531 55.547-41.297 79.547-53.766 21.469-11.297 43.688-22.922 76.453-49.078 42.609-33.938 78.938-44.156 102.23-46.688 1.6875 2.3906 3.4688 4.6875 5.625 6.8438 3.8438 3.8438 8.1562 6.8438 12.938 9.1406 0.14062 0.46875 0.46875 0.9375 0.70312 1.4531 5.3906 10.078 18.609 26.062 39.234 47.859 6.375 6.6094 13.453 13.922 21.141 21.609 1.4531 1.4531 2.7656 2.7656 4.2188 3.9375 13.547 13.078 26.766 22.781 39.844 29.297h0.14062c95.062 117.84 159.24 164.63 198.71 182.29 9.7031 4.4531 18 7.0781 24.703 8.5312 8.7656 21 15.234 55.078-9.7031 90.469-5.2969 7.5469-10.688 15.844-16.312 24.469-31.453 48.234-73.781 113.39-150.37 113.39-4.0781 0-8.3906-0.14062-12.703-0.46875-23.625-2.1562-45.469-19.453-64.688-51.375-40.781-67.781-62.625-188.16-62.156-261.47-4.0781 7.6875-7.4531 15.141-10.453 22.453 0.46875 20.062 6.8438 210.24 66.703 271.22 55.781 57 113.06 62.156 174.94 15.938 41.766-31.219 102.14-106.78 106.69-167.39 1.6875-22.688-4.4531-41.625-18-56.391 1.2188 0.14062 2.2969 0.375 3.375 0.46875 0.9375 0.14062 1.9219 0.23438 2.8594 0.23438 5.0625 0 9.8438-1.6875 13.688-4.7812 12.469 17.156 17.859 38.062 16.078 61.781-5.2969 69-71.062 148.45-113.86 180.47-30.609 22.922-61.312 34.312-91.312 34.312-37.219 0-73.312-17.391-107.3-52.078-47.625-48.609-63.703-165.14-69.141-233.29-2.8594 13.922-5.0625 27.469-7.0781 40.922-2.1562 14.766-4.4531 29.297-7.7812 43.453 0 0.375-0.14062 0.60938-0.23437 0.9375-4.9219 21-12.375 41.531-25.781 61.688-16.781 25.219-40.453 39.844-68.391 42.375-2.7656 0.23438-5.625 0.375-8.3906 0.375-33.938 0-68.156-17.297-85.688-35.625-11.062-11.531-22.688-14.625-36.234-18.141-15.141-3.8438-32.156-8.2969-49.688-25.078-11.297-10.781-18.938-14.625-27.141-18.609-13.219-6.6094-26.859-13.453-51.609-47.297-44.766-61.219 44.859-141.37 104.16-194.39zm144.14-33.469c1.5469 3 4.6875 4.6875 7.7812 4.6875 1.5469 0 3-0.375 4.4531-1.2188 14.391-7.9219 34.312-19.781 61.078-41.156 3.8438-3 4.5469-8.7656 1.4531-12.609-3.1406-3.8438-8.7656-4.5469-12.703-1.4531-25.547 20.531-44.766 31.922-58.547 39.469-4.3125 2.3906-5.8594 7.9219-3.4688 12.234zm-31.078 19.547c3.6094 3.6094 9.2344 3.6094 12.703 0 3.6094-3.4688 3.6094-9.1406 0-12.703-3.4688-3.4688-9.1406-3.4688-12.703 0-3.4688 3.6094-3.4688 9.2344 0 12.703zm-128.76 108.52c1.6875 1.5469 3.8438 2.3906 6 2.3906 2.5312 0 4.9219-1.0781 6.7031-3 19.781-21.938 43.078-43.078 65.297-62.859 11.391-10.219 22.219-18.844 32.859-26.297 4.0781-2.8594 5.1562-8.5312 2.2969-12.609-2.7656-4.0781-8.3906-5.0625-12.469-2.1562-11.391 7.7812-22.688 16.922-34.688 27.609-22.547 20.156-46.219 41.625-66.609 64.219-3.375 3.7031-3.1406 9.375 0.60937 12.703zm-73.922 89.25c22.219 30.234 32.766 35.531 45.141 41.625 8.5312 4.3125 18.234 9.1406 31.547 21.844 14.062 13.453 27.469 16.922 41.625 20.625 14.859 3.8438 30.234 7.7812 44.859 23.062 15.609 16.453 48.703 32.531 79.453 29.766 22.688-1.9219 41.156-13.547 55.078-34.312 1.3125-1.9219 2.5312-3.8438 3.7031-5.7656-7.6875 4.5469-15.375 6.9375-22.922 9.4688-7.6875 2.5312-15 4.9219-22.453 9.4688-7.2188 4.6875-15.234 6.6094-23.531 6.6094-27.703 0-59.297-22.312-83.297-43.922-10.781-9.6094-18.703-11.062-29.625-12.938-11.625-2.0625-26.062-4.5469-46.453-17.859-25.078-16.453-32.156-30.141-39.141-43.453-4.0781-8.0625-8.0625-15.609-16.219-24.703-10.312-11.391-15.609-24.234-18-35.531-9.8438 20.391-11.766 39.844 0.14063 56.062zm633.94-73.688c18.141 13.312 32.859 21.609 44.531 26.766 0.23437 0.14062 0.46875 0.14062 0.70312 0.375 0.46875 0.14062 0.9375 0.375 1.4531 0.46875 10.688 4.5469 18.609 6.375 24.141 7.0781 1.7812 0.23438 2.8594-0.46875 3.375-1.0781 0.60938-0.46875 1.3125-1.5469 1.0781-3.375-0.70313-5.5312-2.5312-13.453-7.0781-24.141v-0.14062c-0.14062-0.375-0.23437-0.60938-0.46875-0.9375-14.156-32.766-53.062-89.859-157.55-177.14 0.14062 10.922-4.2188 21.469-12.234 29.391-7.9219 7.9219-18.375 12.234-29.156 12.234h-0.375c55.688 66.469 99.141 106.55 131.63 130.45z"/>
</svg>
