<?xml version="1.0" encoding="UTF-8"?>
<svg width="1200pt" height="1200pt" version="1.1" viewBox="0 0 1200 1200" xmlns="http://www.w3.org/2000/svg">
 <path d="m1134 740.4c-4.8008-13.199-10.801-25.199-19.199-34.801-14.398-15.602-33.602-27.602-55.199-27.602-9.6016 0-18 1.1992-27.602 3.6016-38.398 10.801-67.199 44.398-87.602 102-6 18-9.6016 33.602-10.801 48-2.3984 2.3984-3.6016 4.8008-2.3984 8.3984 2.3984 33.602 15.602 64.801 38.398 88.801-7.1992 19.199-14.398 38.398-20.398 58.801-15.602-28.801-31.199-61.199-49.199-103.2-7.1992-18-15.602-37.199-22.801-56.398-6-14.398-12-28.801-18-43.199-14.398-37.199-28.801-75.602-46.801-111.6-1.1992-3.6016-3.6016-6-4.8008-9.6016 8.3984-28.801 16.801-56.398 27.602-84 7.1992 2.3984 15.602 3.6016 22.801 3.6016 27.602 0 55.199-13.199 72-36 2.3984-2.3984 2.3984-6 1.1992-9.6016 8.3984-9.6016 16.801-20.398 22.801-33.602 10.801-22.801 16.801-45.602 16.801-66 0-43.199-31.199-91.199-80.398-93.602-46.801-2.3984-82.801 34.801-97.199 73.199-7.1992 18-12 39.602-14.398 67.199h-1.1992c-3.6016 1.1992-6 6-6 9.6016 0 28.801 14.398 57.602 38.398 75.602-7.1992 20.398-14.398 40.801-20.398 61.199-13.199-22.801-27.602-44.398-43.199-63.602-21.602-26.398-46.801-54-79.199-86.398-37.199-36-76.801-70.801-118.8-102-4.8008-10.801-8.3984-21.602-10.801-33.602 27.602 0 51.602-15.602 73.199-46.801 2.3984-3.6016 2.3984-8.3984-1.1992-12 0 0-1.1992-1.1992-2.3984-1.1992 18-33.602 18-73.199 12-104.4-8.3984-42-39.602-85.199-90-86.398-48 0-75.602 45.602-85.199 90-7.1992 30-4.8008 67.199 7.1992 98.398-2.3984 3.6016-3.6016 8.3984-1.1992 12 14.398 20.398 34.801 37.199 58.801 48 0 3.6016 1.1992 7.1992 1.1992 10.801-4.8008-3.6016-10.801-7.1992-15.602-10.801-64.801-44.398-133.2-81.602-204-112.8 2.3984-30-4.8008-58.801-18-79.199-8.3984-13.199-12-9.6016-14.398-6-6-7.1992-13.199-14.398-20.398-20.398-19.199-15.602-69.602-49.199-121.2-32.398-38.398 12-63.602 54-56.398 97.199 6 40.801 39.602 75.602 85.199 88.801 13.199 3.6016 28.801 6 44.398 6 1.1992 2.3984 3.6016 3.6016 7.1992 4.8008 31.199 1.1992 62.398-9.6016 85.199-31.199 100.8 44.398 194.4 100.8 278.4 169.2-20.398 3.6016-39.602 9.6016-58.801 16.801-14.398-27.602-38.398-48-64.801-57.602-3.6016-1.1992-8.3984 0-10.801 3.6016-10.801-3.6016-21.602-6-33.602-7.1992-22.801-1.1992-46.801 2.3984-70.801 10.801-22.801 7.1992-40.801 18-54 32.398-33.602 36-22.801 90 7.1992 121.2 14.398 15.602 32.398 26.398 51.602 32.398 8.3984 2.3984 18 3.6016 27.602 3.6016 13.199 0 27.602-2.3984 42-7.1992 15.602-6 30-12 42-18 2.3984 2.3984 4.8008 3.6016 7.1992 3.6016 1.1992 0 2.3984 0 3.6016-1.1992 32.398-13.199 54-46.801 61.199-91.199 25.199-9.6016 51.602-15.602 79.199-20.398 15.602 13.199 30 26.398 44.398 40.801 24 22.801 46.801 46.801 69.602 72s44.398 52.801 61.199 81.602c6 9.6016 10.801 19.199 15.602 28.801 14.398 27.602 26.398 56.398 38.398 85.199-10.801-6-21.602-12-34.801-16.801-7.1992-21.602-19.199-40.801-34.801-56.398-2.3984-2.3984-7.1992-3.6016-10.801-1.1992-14.398-14.398-32.398-25.199-48-32.398-46.801-20.398-96-16.801-132 8.3984-39.602 27.602-54 79.199-32.398 121.2 9.6016 20.398 27.602 37.199 49.199 48 18 8.3984 38.398 10.801 58.801 10.801 19.199-1.1992 40.801-2.3984 60-8.3984v1.1992c1.1992 4.8008 7.1992 4.8008 10.801 4.8008 6-1.1992 13.199-4.8008 19.199-8.3984 6-3.6016 10.801-7.1992 16.801-12 10.801-8.3984 19.199-19.199 26.398-31.199 1.1992-1.1992 10.801-20.398 10.801-20.398 20.398 8.3984 38.398 20.398 55.199 32.398 2.3984 7.1992 6 15.602 8.3984 22.801 9.6016 25.199 18 50.398 28.801 75.602 26.398 67.199 67.199 151.2 136.8 213.6 2.3984 2.3984 6 3.6016 9.6016 3.6016 3.6016 0 8.3984-2.3984 12-6 4.8008-6 6-16.801-1.1992-22.801-9.6016-8.3984-19.199-18-27.602-27.602-10.801-12-20.398-25.199-30-40.801 6-26.398 13.199-52.801 24-78 3.6016 0 7.1992 1.1992 10.801 1.1992 31.199 2.3984 62.398-8.3984 82.801-33.602 2.3984-2.3984 3.6016-4.8008 4.8008-7.1992 2.3984-3.6016 2.3984-7.1992 0-10.801l-1.1992-1.1992c4.8008-6 9.6016-10.801 14.398-16.801 7.1992-9.6016 13.199-21.602 18-31.199 7.1992-15.602 13.199-31.199 16.801-48 1.1953-16.812-1.2031-33.613-6.0039-49.215zm-318-314.4c12-30 39.602-60 74.398-57.602 36 2.3984 58.801 37.199 58.801 69.602 0 16.801-4.8008 36-14.398 55.199-7.1992 15.602-16.801 27.602-27.602 36l-32.398-2.3984s-1.1992-10.801-1.1992-12c-1.1992-3.6016-2.3984-8.3984-3.6016-12-2.3984-6-6-15.602-14.398-15.602-2.3984 0-3.6016 1.1992-6 2.3984-6 3.6016-10.801 7.1992-15.602 10.801-1.1992 1.1992-13.199 12-12 13.199-6-4.8008-12-9.6016-18-15.602v-6c1.1992-27.598 6-47.996 12-65.996zm-345.6-235.2c2.3984-12 18-70.801 61.199-70.801 37.199 0 60 33.602 67.199 67.199 7.1992 33.602 4.8008 79.199-22.801 108-1.1992 1.1992-2.3984 2.3984-3.6016 3.6016-7.1992 2.3984-14.398 4.8008-21.602 6 1.1992 0-2.3984-22.801-3.6016-24-2.3984-7.1992-4.8008-15.602-9.6016-20.398-2.3984-2.3984-6-4.8008-10.801-4.8008-4.8008 0-8.3984 4.8008-10.801 9.6016-4.8008 10.801-8.3984 24-10.801 34.801-8.3984-2.3984-15.602-6-22.801-8.3984-15.586-31.207-17.988-70.805-11.988-100.8zm-316.8 66c-30-8.3984-63.602-33.602-68.398-69.602-3.6016-27.602 9.6016-61.199 40.801-70.801 6-2.3984 13.199-3.6016 20.398-3.6016 24 0 52.801 10.801 78 31.199 10.801 8.3984 20.398 19.199 27.602 31.199 1.1992 10.801 1.1992 22.801 1.1992 33.602-9.6016-1.1992-19.199-2.3984-28.801-1.1992-4.8008 0-8.3984 0-13.199 1.1992-3.6016 0-7.1992 0-10.801 3.6016-2.3984 2.3984-3.6016 6-2.3984 9.6016 1.1992 3.6016 2.3984 6 4.8008 7.1992 8.3984 7.1992 16.801 13.199 26.398 19.199-1.1992 2.3984-7.1992 6-8.3984 6-3.6016 2.3984-7.1992 4.8008-10.801 6-7.1992 2.3984-13.199 2.3984-20.398 2.3984-12.004-1.1953-24.004-2.3984-36.004-5.9961zm235.2 297.6c-20.398 7.1992-38.398 8.3984-55.199 3.6016-15.602-4.8008-30-13.199-40.801-25.199-22.801-24-31.199-63.602-7.1992-90 10.801-10.801 25.199-20.398 44.398-26.398s37.199-9.6016 54-9.6016h8.3984c14.398 1.1992 28.801 4.8008 42 12 0 1.1992 1.1992 2.3984 1.1992 4.8008l2.3984 4.8008c2.3984 6 4.8008 10.801 6 15.602l-28.797 28.797c-2.3984 2.3984-3.6016 7.1992-2.3984 12 1.1992 3.6016 3.6016 7.1992 8.3984 7.1992l32.398 4.8008c-2.3984 9.6016-6 20.398-9.6016 30-17.996 12-38.395 21.598-55.195 27.598zm253.2 260.4c-20.398 1.1992-40.801 1.1992-60-8.3984-16.801-8.3984-30-21.602-38.398-37.199-15.602-32.398-4.8008-70.801 25.199-92.398 15.602-10.801 36-16.801 56.398-16.801 16.801 0 34.801 3.6016 52.801 10.801 19.199 8.3984 39.602 22.801 52.801 42 0 4.8008 0 10.801-1.1992 15.602-12 6-25.199 10.801-36 18-3.6016 2.3984-6 6-6 10.801s2.3984 8.3984 6 9.6016c7.1992 3.6016 13.199 7.1992 20.398 12-3.6016 8.3984-8.3984 15.602-12 22.801-19.199 9.5898-40.801 11.992-60 13.191zm472.8-36c0 2.3984 0 4.8008-1.1992 7.1992-3.6016 25.199-14.398 50.398-28.801 70.801-7.1992 10.801-18 21.602-31.199 30l-26.398 3.6016c0-14.398 0-28.801 1.1992-43.199 0-4.8008-2.3984-9.6016-7.1992-10.801-4.8008-1.1992-8.3984 0-12 3.6016-6 9.6016-13.199 19.199-21.602 27.602-10.801-10.801-20.398-20.398-31.199-30 0-14.398 3.6016-30 9.6016-48 18-50.398 40.801-78 72-87.602 16.801-4.8008 32.398-2.3984 45.602 4.8008 25.195 13.195 32.395 45.594 31.195 71.996z"/>
</svg>
