<?xml version="1.0" encoding="UTF-8"?>
<svg width="1200pt" height="1200pt" version="1.1" viewBox="0 0 1200 1200" xmlns="http://www.w3.org/2000/svg">
 <path d="m884.28 510.96c-2.6406-0.60156-5.2812-0.96094-7.9219-1.3203 5.2812-6.2383 9.2383-13.32 10.922-21.602 5.8789-30-24.121-35.762-47.879-35.281 18.238-7.9219 36.48-17.762 48.238-32.879 8.3984-10.68 12.359-25.32 4.4414-37.559-6.4805-9.8398-18.121-13.078-29.16-12.602-7.1992 0.23828-14.16 2.0391-20.879 4.3203 19.078-14.762 37.559-31.922 49.199-53.16 5.7617-10.559 11.879-25.441 9.9609-37.801-2.5195-16.199-19.801-17.281-32.641-14.762-17.879 3.4805-33.719 14.762-47.879 27.48 4.9219-10.32 9.3594-20.762 13.199-31.559 6-17.16 11.879-35.52 12-53.762 0.12109-34.441-32.16-52.801-62.16-38.52-23.641 11.281-32.398 35.52-36.961 60.359-5.2812-20.398-13.801-39.48-30.602-52.441-1.5586-2.1602-3.9609-3.8398-6.9609-4.5586-2.8789-1.3203-5.6406-1.1992-7.9219-0.12109-18.719 1.6797-34.559 16.199-41.039 33.84-8.3984 22.801-2.8789 48 4.1992 70.32 4.4414 14.039 10.078 27.48 16.559 40.68-6.2383-4.9219-12.602-9.6016-19.199-13.68-9.3594-5.8789-21.84-10.32-32.762-7.1992-29.641 8.2812-14.039 44.398-3.2383 61.922 6.4805 10.441 14.281 19.922 22.68 28.801-14.16-2.2812-27.84 1.5586-34.801 18.238-2.7617 6.4805-3.4805 12.602-2.8789 18.48-1.6797-1.3203-3.3594-2.6406-5.1602-3.8398-12-8.3984-27.121-18.602-42.48-14.641-15.121 3.9609-20.641 19.199-17.879 33.602 3.2383 16.68 12.48 31.922 23.762 45.48-12.121-5.7617-27.359-11.398-39.961-4.3203-13.32 7.4414-14.281 23.641-8.2812 36.359 5.1602 11.039 13.32 20.16 22.801 28.078-10.199-1.0781-20.641-1.1992-30.84-0.35938-34.32 3-92.281 19.078-95.641 61.559-1.5586 19.559 12.238 35.398 29.52 42.602 17.398 7.1992 36.602 6.3594 54.961 4.8008 27-2.2812 54-4.8008 81-7.1992 13.078-1.1992 27.238-2.7617 40.68-1.3203-52.559 3-104.04 19.078-148.56 48.238-12.359 8.1602-25.922 18.121-29.398 33.602-3.2383 14.641 3.1211 30.121 17.641 35.398 15.121 5.5195 34.078 0.48047 48.84-4.0781 0.35938-0.12109 0.71875-0.23828 1.0781-0.35938-1.4414 1.6797-2.8789 3.3594-4.1992 5.1602-7.5586 10.32-13.922 22.68-14.16 35.879s7.5586 25.559 21.48 26.52c9.2383 0.71875 18.602-3.2383 27.121-8.2812-19.441 21.84-39.961 42.719-61.32 62.762-53.039 49.68-111 93.719-171.36 133.8-12.48 8.2812 0.23828 27.961 12.84 19.68 87.121-57.719 169.68-124.44 239.52-202.92-1.8008 6.4805-3.3594 12.961-4.6797 19.559-2.2812 11.281-3.7188 24.238 2.2812 34.68 6.6016 11.52 20.52 15.359 32.16 9.2383 12.84-6.7188 19.801-21.48 26.398-33.719 2.5195-4.6797 4.6797-9.3594 6.9609-14.16 2.8789 11.16 7.8008 21.719 15.359 30.359 7.9219 9 21.84 15.719 32.641 7.3203 10.68-8.2812 11.281-29.762 13.441-42.121 1.1992-6.9609 2.1602-13.922 3-20.879 3.1211 6.6016 7.3203 12.602 13.32 17.52 7.4414 6 18 11.039 27.719 8.2812 11.16-3.2383 15.359-15.961 16.559-26.398 2.1602-18.121-2.7617-36.602-9-53.762 17.879 13.922 38.52 24.719 59.52 32.52 15.121 5.6406 30.359 3 39.48-11.398 8.6406-13.559 6.2383-31.199 0-45.359-12.238-27.238-36.961-47.641-62.281-62.039 14.52 0 29.16-1.0781 43.559-3.8398 10.68-2.0391 21.48-4.4414 26.281-15.48 4.4414-10.078 1.0781-22.078-4.4414-30.961-7.8008-12.48-19.922-19.559-33.238-23.762 0.71875-0.12109 1.4414-0.23828 2.1602-0.35938 17.641-3.2383 35.281-7.1992 52.441-12.719 14.039-4.4414 28.559-9.6016 39.238-20.281 21.961-22.316 12.84-57.113-17.398-64.074zm-38.402-34.68c4.3203 0.12109 16.801-0.60156 18.719 4.0781 1.5586 3.8398-3.3594 10.559-5.3984 13.199-9.3594 11.879-26.281 18.602-40.078 23.52-28.68 10.441-58.68 17.641-88.32 25.199 0.48047-1.6797 1.0781-3.4805 1.6797-5.1602 24.598-37.676 67.918-61.918 113.4-60.836zm0.72266-171c6.1211-4.8008 12.719-9.2383 19.922-12 3.3594-1.3203 6.8398-2.1602 10.441-2.3984-0.60156 2.1602-0.71875 5.1602-1.1992 6.9609-1.1992 3.8398-2.8789 7.4414-4.6797 10.922-3.3594 6.3594-7.5586 12.121-12.238 17.52-9.8398 11.52-21.48 21.48-33.359 30.719-17.762 13.559-36.84 25.078-56.879 34.559 12.961-19.441 27.48-37.559 43.68-54.48 10.672-11.16 21.949-22.32 34.312-31.801zm-86.883 25.438c0.71875-11.52 1.4414-23.039 2.5195-34.559 1.6797-17.762 3.4805-35.52 6.1211-53.16 2.1602-14.039 4.8008-29.281 13.801-40.68 6.4805-8.2812 18.602-14.52 29.16-11.039 13.922 4.5586 11.641 23.039 9.3594 34.32-6.6016 31.559-19.801 61.68-37.078 88.68-7.6797 12-15.719 23.641-23.398 35.52-0.003906-6.4805-0.24219-12.84-0.48438-19.082zm-7.918 122.76c8.5195-21.238 35.039-33 55.441-40.922 14.762-5.7617 29.52-12.359 44.641-17.039 4.9219-1.5586 22.32-6.3594 21.121 3.3594-1.4414 11.398-21.719 21.238-30.359 25.922-12.48 6.8398-25.801 11.762-39 16.801-18.238 6.9609-36.84 14.039-53.762 23.762 0.59766-3.8438 1.1953-7.8047 1.918-11.883zm-72.723-220.2c0.23828-15.48 8.0391-31.922 23.398-34.559 21.84 16.32 25.32 53.16 28.922 77.879 2.6406 18.238 4.3203 36.48 5.0391 54.84-0.71875 11.879-1.1992 23.879-1.5586 35.762-15.84-24.238-30.602-49.078-41.52-75.961-7.1992-18.004-14.52-38.164-14.281-57.961zm-43.68 88.32c3.3594-2.0391 11.879 3.2383 14.641 4.9219 6.8398 4.1992 13.32 9.4805 19.559 14.52 24.961 20.039 46.441 43.559 64.68 69.961-0.96094 9.8398-2.2812 19.68-3.7188 29.52-25.199-31.922-60.602-54.84-83.398-89.398-3-4.3242-16.441-26.766-11.762-29.523zm11.402 91.078c11.398 2.2812 21 11.039 28.922 19.078 17.281 17.52 32.16 37.559 45.359 58.441-2.7617 11.879-5.8789 23.641-9.3594 35.398-1.0781 1.5586-2.0391 3.2383-3 4.9219-7.0781-14.641-15.238-28.68-24.84-41.879-7.6797-10.559-16.078-20.641-24.961-30-8.1602-8.6406-19.801-17.039-23.879-28.559-3.4844-10.082 0.23828-19.684 11.758-17.402zm-106.08 90.359c3-2.0391 12 2.5195 14.641 3.7188 24.602 10.68 46.199 28.801 66.961 45.719 12.238 9.9609 24.359 20.281 35.879 31.199 1.1992 1.0781 2.3984 2.2812 3.4805 3.4805-7.3203-4.4414-14.762-8.6406-22.441-12.602-23.762-12.48-48.48-23.52-70.922-38.398-9.8398-6.4805-20.16-14.398-25.922-25.078-1.0742-2.0391-3.8359-6.5977-1.6758-8.0391zm28.68 123c-20.52 1.8008-41.16 3.6016-61.68 5.3984-15.48 1.3203-31.559 3.4805-46.922-0.35938-14.398-3.7188-27-16.199-17.039-31.199 9.1211-13.559 28.922-20.398 43.801-24.719 34.922-10.199 70.078-5.0391 102.72 10.078 17.641 8.1602 36.84 15.121 53.52 25.199 8.6406 5.2812 19.922 16.441 20.641 27.719-27.719-19.676-62.758-14.996-95.039-12.117zm-65.398 111.96c-7.4414 2.2812-43.801 13.078-35.52-6.1211 3.1211-7.0781 11.16-11.762 17.281-15.84 7.4414-4.9219 15.121-9.4805 22.922-13.68 15.84-8.3984 32.52-15.121 49.559-20.398 25.078-7.6797 51.359-11.762 77.641-12.121-26.039 16.078-53.039 30.48-80.16 44.879-16.684 8.8828-33.602 17.762-51.723 23.281zm30.238 58.801c-4.4414 2.7617-9.6016 5.8789-14.879 6.9609-3 0.60156-2.2812-1.3203-1.6797-4.9219 1.4414-10.078 8.1602-19.078 15-26.281 16.078-17.039 38.039-28.441 58.32-39.359 9.1211-4.9219 18.359-9.6016 27.48-14.52-8.7617 9.7188-17.762 19.199-27 28.441-17.762 17.641-36.121 36.48-57.242 49.68zm59.523 62.277c-1.8008 3.1211-10.199 19.441-13.922 15.121-1.6797-1.9219-0.83984-7.8008-0.60156-10.078 0.60156-5.3984 1.9219-10.801 3.2383-16.078 5.1602-21.961 13.559-43.078 24.48-62.762 7.6797-13.68 16.68-26.281 26.762-38.039-0.35938 2.1602-0.71875 4.4414-1.1992 6.6016-0.48047 1.8008-0.96094 3.4805-1.4414 5.2812-1.3203 5.5195-2.6406 11.16-3.7188 16.801-7.5586 29.035-18.719 56.996-33.598 83.152zm76.68-72.598c-1.0781 17.52-3.2383 34.922-6.1211 52.199-1.3203 7.9219-2.8789 15.84-4.6797 23.641-0.12109 0.35938-0.12109 0.71875-0.23828 1.0781-1.4414-2.0391-3.9609-4.1992-5.1602-6.1211-13.68-21.84-9.2383-51.121-4.0781-75.719 2.0391-7.6797 3.8398-15.359 5.3984-23.16 3.9609-15.238 8.6406-30.238 14.039-45 1.918 24.242 2.2773 48.723 0.83984 73.082zm-29.883-263.16c-19.441-17.281-40.441-33.719-56.16-54.719-6.7188-9-15.602-21-16.922-32.641-1.4414-13.32 20.52 2.7617 24.84 5.8789 21.238 15 38.762 34.68 53.641 55.922 8.7617 12.48 16.559 25.559 23.879 39 4.8008 8.8789 11.52 19.32 15.121 29.879-14.156-15-28.918-29.52-44.398-43.32zm84.242 294.12c-0.12109 1.6797-1.6797 5.3984-1.5586 7.1992-1.3203-0.71875-3.6016-1.4414-4.3203-2.0391-3-2.2812-5.3984-5.2812-7.1992-8.6406-5.5195-9.8398-6.4805-21.961-7.8008-32.879-1.6797-14.16-2.7617-28.441-3.6016-42.719 4.0781 7.6797 7.8008 15.602 11.039 23.641 4.1992 10.441 7.9219 21.121 10.801 32.039 1.3203 4.9219 2.2812 9.9609 2.6406 15.121 0.23828 2.875 0.35938 5.6367 0 8.2773zm79.68-82.562c7.6797 9 15.238 20.762 15.602 33 0.12109 4.1992-0.83984 10.078-5.1602 12.121-4.5586 2.0391-11.039-2.0391-15.238-3.7188-22.68-9.6016-44.281-22.078-61.68-39.84-16.32-16.559-28.199-37.68-39.602-58.441 39.477 9.3594 79.316 25.441 106.08 56.879zm19.441-81.957v0.12109c-0.60156 0.23828-1.1992 0.35938-1.9219 0.60156-3.1211 0.96094-6.4805 1.4414-9.7188 2.0391-5.7617 0.96094-11.52 1.6797-17.281 2.2812-12 1.0781-24.238 1.3203-36.238 0.35938-23.16-1.8008-45.961-7.6797-67.32-16.801 2.0391-4.3203 4.0781-8.6406 6.1211-13.078 24.84-3.9609 50.16-5.2812 75.238-3.1211 11.52 1.0781 24.121 2.1602 34.68 7.3203 5.6406 2.9961 18.961 11.996 16.441 20.277zm-107.04-58.082c10.32-7.9219 23.16-13.68 33.961-19.32 15.961-8.2812 32.281-15.719 48.961-22.441 16.559-6.6016 33.602-13.199 50.879-17.398 9.8398-2.3984 33.121-7.4414 39.121 5.0391 17.039 35.043-121.2 49.68-172.92 54.121z"/>
</svg>
