<?xml version="1.0" encoding="UTF-8"?>
<svg width="1200pt" height="1200pt" version="1.1" viewBox="0 0 1200 1200" xmlns="http://www.w3.org/2000/svg">
 <path d="m1033 952.88c-37.848 10.09-69.801-33.945-100.76-76.336-15.344-21.02-31.203-42.738-46.105-55.133-49.602-41.234-120.32-41.805-210.26-1.7031-114.33 50.922-464.08 172.1-467.6 173.33-1.0156 0.34766-2.0508 0.51172-3.0664 0.51172-3.8828 0-7.5156-2.4375-8.8633-6.3164-1.6914-4.8867 0.90625-10.219 5.7969-11.918 3.5156-1.2109 352.5-122.13 466.11-172.74 97.047-43.215 174.39-41.75 229.87 4.4141 14.738 12.277 28.836 30.715 43.469 50.645l-0.035156-0.085937c33.844-1.5977 54.199-20.934 54.199-69.02 0-37.145-48.496-84.398-37.145-128.39 11.43-44.289-6.8789-59.305-25.223-89.879-18.344-30.57-75.203 14.215-121.98 23.539-35.66 7.1094-43.844 33.484-45.723 45.812-1.6289 19.266-6.0391 35.793-16.438 46.703-7.6367 8.0039-17.707 12.113-29.852 12.395-3.5664 9.3164-8.8203 16.16-16.363 19.574-4.9258 2.2148-9.5938 3.1133-13.898 3.1133-5.375 0-10.102-1.4648-14.086-3.4258-4.5234 11.281-11.867 18.855-23.617 21.078-2.1992 0.42188-4.2852 0.60547-6.2812 0.60547-11.695 0-19.562-6.707-24.332-13.945v0.054687c-11.332-13.816-30.383-15.109-35.402-15.207l-0.42578 0.023437c-0.31641 0-0.57422-0.027343-0.87891-0.03125-0.035156 0.77734 0.089844 1.5898 0.019531 2.3555-1.6484 17.797-10.191 31.273-22.844 36.055-3.3164 1.2656-6.7734 1.8672-10.328 1.8672-5.2266 0.007813-10.625-1.4219-15.98-4.0312-0.51172 1.8789-1 3.7891-1.707 5.4414-6.125 14.262-17.98 18.551-29.086 18.551-3.9453 0-7.7031-0.58594-11.168-1.4102-1.0625 2.0859-2.0039 4.25-3.6328 5.9531-6.5 6.7578-13.258 8.4219-18.32 8.4219-0.71484 0-1.3906-0.039063-2.0312-0.09375-2.2695-0.19922-4.5-0.79297-6.7031-1.6055-61.641-15.016-75.34-49.062-135.47-56.285-52.582-6.3164-181.73 30.977-181.73 30.977-1.4375 0.78906-3.0039 1.1719-4.543 1.1719-3.2969 0-6.4922-1.7383-8.2031-4.832-2.5195-4.5234-0.89062-10.219 3.6445-12.746 3.0156-1.6719 68.871-37.875 151.35-60.789-8.4727-5.1953-16.887-11.172-26.043-17.984-28.82-21.477-123.16-109.44-127.16-113.18-3.7812-3.5352-3.9922-9.4688-0.45703-13.238 3.543-3.7734 9.457-3.9727 13.258-0.45703 0.97266 0.89844 97.566 90.984 125.57 111.82 26.027 19.391 44.129 31.367 75.953 34.258 34.406 3.1328 74.195 26.184 92.539 53.633 16.414 24.57 25.176 30.195 29.637 30.578 0.66016 0.10938 2.4062 0.23828 5.1719-2.6562 1.2188-1.2656 1.8047-3.4414 1.7305-6.4648-0.41406-18.844-24.316-53.852-39.953-68.758-18.246-17.395-49.395-31.074-49.703-31.219-4.7422-2.0703-6.9141-7.582-4.8516-12.324 2.0625-4.7617 7.5625-6.9023 12.332-4.8711 1.4023 0.62109 34.48 15.125 55.16 34.828 14.34 13.676 41.621 50.184 45.102 77.211 5.4414 1.6406 16.312 3.5156 20.375-5.8945 4.7344-11.043 3.1484-36.895-20.637-62.934-28.301-30.945-68.309-54.402-68.711-54.621-4.4688-2.6172-5.9883-8.3477-3.3867-12.816 2.6016-4.5039 8.3672-6.0039 12.809-3.4062 1.7383 1.0078 42.848 25.066 73.133 58.211 17.289 18.906 25.41 39.113 27.207 56.176 6.7422 5.5391 13.258 7.8281 18.191 5.9883 5.7969-2.1992 9.832-9.7773 10.805-20.25 1.7109-18.586-14.559-43.762-48.367-74.855-29.406-27.062-55.895-39.039-56.156-39.148-4.7266-2.1055-6.8555-7.6367-4.75-12.379 2.0977-4.7266 7.6445-6.8867 12.352-4.7617 1.1914 0.51172 29.426 13.184 61.25 42.48 28.43 26.148 45.457 48.953 51.719 69.137 5.1211 0.41406 12.535 0.11719 17.449-3.4219 3.4141-2.4531 5.3633-6.3711 5.9766-11.992 1.6016-14.777-33.93-59.746-82.645-104.59-32.484-29.902-64.379-42.645-110.09-43.98-44.109-1.3164-74.02-19.316-95.152-34.828-20.766-15.273-157.84-128.21-163.66-133.01-4-3.2969-4.5703-9.1914-1.2734-13.203 3.2773-3.9727 9.1914-4.5781 13.191-1.2656 1.4297 1.1719 142.49 117.39 162.84 132.37 18.934 13.898 45.676 30.031 84.605 31.184 38.719 1.1484 69.348 10.301 97.766 29.543-3.9648-59.352 3-89.914 8.3086-112.66 2.1797-9.3555 4.0547-17.434 4.668-25.598 2.3164-31.02 0-181.38-0.027343-182.91-0.082032-5.1836 4.0469-9.4492 9.2305-9.5195 5.2461 0.60547 9.4375 4.0469 9.5195 9.2305 0.10156 6.2266 2.3633 152.73-0.027344 184.59-0.71484 9.6328-2.7578 18.348-5.1094 28.453-5.5039 23.621-12.93 56-6.5039 124.03 1.4648 1.2852 2.9453 2.4141 4.4062 3.7578 7.6719 7.0703 18.145 17.035 29.188 28.359-4.7969-19.473-10.203-34.137-10.281-34.348-1.8125-4.8516 0.64063-10.254 5.4844-12.066 4.832-1.8672 10.246 0.64062 12.074 5.4766 0.51172 1.3672 12.312 33.188 16.922 67.379 11.23 13.199 21.281 26.738 27.777 39.062-3.1602-74.098-20.531-120.14-20.75-120.71-1.8672-4.832 0.53125-10.254 5.3555-12.121 4.8242-1.9062 10.254 0.51172 12.121 5.3281 1.1797 3.0195 28.527 74.906 21.387 186.88 1.3008 3.7734 5.0352 11.281 13.695 9.5391 18.566-3.5156 15.379-55.242 12.562-100.88-3.5156-56.652-25.926-99.719-26.148-100.14-2.418-4.5781-0.66016-10.254 3.918-12.672 4.543-2.3984 10.234-0.67578 12.672 3.918 0.98828 1.9062 24.516 47.113 28.27 107.72 1.875 30.387 3.6133 58.699 0.61719 80.309 1.7266 1.7188 7.1172 6.1211 15.461 2.2891 19.301-8.7148 9.5039-94.812 6.2812-123.12l-1.4297-13.035c-3.1875-31.441-22.906-57.328-23.09-57.586-3.168-4.1016-2.418-9.9961 1.6836-13.148 4.082-3.1875 10.016-2.3984 13.148 1.6836 0.95312 1.2266 23.199 30.449 26.898 67.164l1.4297 12.816c4.3125 37.945 7.6719 75.664 3.8594 103.12 4.5469-0.92188 8.5703-2.5352 11.578-5.6953 14.559-15.273 12.633-55.445 11.371-82.051l-0.45703-9.7969c-1.8477-42.684-3.7734-86.848-38.617-128.14-36.656-43.398-37.902-72.602-39.348-106.4-0.21875-4.9062-0.4375-9.9414-0.76953-15.215-2.3633-37.684-3.6602-113.71-3.6797-114.46-0.09375-5.1836 4.0469-9.4492 9.2109-9.5391 5.5664-0.56641 9.4492 4.0469 9.5391 9.2109 0.019532 0.76953 1.3008 76.355 3.6445 113.62 0.34766 5.3828 0.56641 10.547 0.78906 15.582 1.4102 32.867 2.418 56.617 34.938 95.121 34.602 40.992 40.18 84.598 42.32 124.45 15.953-1.6641 48.883-6.0781 73.59-15.984 8.1836-3.2773 17.816-10.418 28.016-17.98 26.695-19.777 63.227-46.875 95.598-10.418 38.801 43.727 68.316 169.88 87.141 260.96 1.9609 9.4688 4.1211 19.043 6.2422 28.527 14.207 63.227 28.895 128.61-22.191 142.02zm-169.74-287.84c9.0469-0.17188 43.773-2.75 62.387-31.523 2.8281-4.3398 1.5859-10.141-2.7695-12.949-4.2852-2.832-10.141-1.5859-12.949 2.7695-15.285 23.602-47.82 22.988-48.227 22.961-5.1367-0.46875-9.4688 3.9141-9.6445 9.082-0.14062 5.168 3.8945 9.4844 9.0664 9.6445 0.19922 0.011719 0.95312 0.039063 2.1445 0.011719z"/>
</svg>
