<?xml version="1.0" encoding="UTF-8"?>
<svg width="1200pt" height="1200pt" version="1.1" viewBox="0 0 1200 1200" xmlns="http://www.w3.org/2000/svg">
 <path d="m871.45 679.55c-0.14062-0.46875-0.375-1.0781-0.60938-1.5469 0-0.23438-0.23438-0.9375-0.23438-1.0781-11.156-38.297-29.297-74.297-53.859-106.78-3-3.9375-6-7.5469-9.2344-11.391l-2.8594-3.4688c-2.1562-2.625-5.3906-4.0781-8.7656-4.0781s-6.6094 1.5469-8.7656 4.0781c-6.5156 7.875-7.125 8.4844-24.891 26.344-0.23438 0.23438-0.375 0.375-0.60938 0.51562-12.469 12.234-25.781 22.781-39.375 31.219-4.7812 2.7656-9.6094 5.5312-14.391 8.2969-1.3125 0.65625-2.7188 1.5-4.0781 2.3438-7.4531 4.2188-14.859 8.5312-22.219 13.078-6.375 3.9375-12.703 8.1562-18.938 12.609-5.1562 3.6094-6.375 10.688-2.7656 15.844s10.688 6.375 15.844 2.7656c5.8594-4.0781 11.859-8.1562 18-12 8.3906-5.1562 16.922-10.078 25.453-14.859 4.9219-2.8594 9.8438-5.625 14.859-8.625 15.469-9.4688 30.375-21.375 44.156-35.062 2.5312-2.3906 4.5469-4.5469 6.4688-6.375-6.6094 49.547-20.391 83.156-37.547 108.61l-8.2969-25.922c-1.9219-6-8.2969-9.2344-14.297-7.3125-4.7812 1.4531-7.9219 6-7.9219 10.781 0 1.2188 0.14062 2.2969 0.46875 3.4688l12.938 40.688c-13.312 14.859-27.844 26.859-42.234 38.766-42.609 35.156-86.391 71.531-94.312 172.92-0.46875-0.84375-1.2188-1.5469-1.6875-2.3906-8.3906-15.469-14.625-31.547-18.469-47.859-1.9219-7.3125-3.2344-15.141-4.3125-24.375-0.9375-10.078-1.0781-20.062-0.46875-28.547 0.46875-6.2344-4.3125-11.766-10.547-12.234h-0.84375c-5.8594 0-10.781 4.5469-11.297 10.547-0.70312 9.8438-0.46875 21 0.60938 32.531 1.0781 10.547 2.625 19.312 4.7812 27.469 4.2188 18.141 11.156 36.141 20.625 53.391 3.9375 7.0781 9.2344 13.453 15.141 18.234 2.625 2.3906 5.2969 4.3125 8.1562 5.8594 7.2188 4.7812 15.844 8.3906 25.547 10.312l6.1406 0.9375c12.703 2.2969 25.547 3.375 38.297 3.375 6.9375 0 13.922-0.375 20.766-1.0781 11.766-1.0781 23.391-3.1406 34.922-6.2344 0.60938-0.14062 1.2188-0.46875 1.9219-0.70312 5.625-1.5469 11.062-3.2344 16.453-5.2969 32.062-11.391 60.141-30 83.766-55.453 15-16.219 27.703-35.625 37.547-57.234 12.703-26.859 20.062-54 21.844-80.859 2.0625-29.906-1.5469-60.703-10.875-94.219zm-11.766 92.766c-1.6875 23.906-8.2969 48.234-19.828 72.75-9 19.547-20.297 36.938-33.609 51.375-24.938 26.766-55.453 45-90.609 54.469-0.42188 0.09375-1.1719 0.32812-1.875 0.70312-27.234 7.0781-55.078 8.1562-83.156 3.2344l-5.8594-0.9375c-3.2344-0.60938-6.375-1.5469-9.2344-2.7656 3.6094-104.16 42.234-136.22 86.859-173.06 16.781-13.922 34.547-28.547 50.625-47.859l31.922-3.8438c6.2344-0.70312 10.688-6.4688 9.9375-12.703-0.70312-6.2344-6.4688-10.688-12.703-9.9375l-11.297 1.4531c16.312-26.531 29.531-60.844 36.141-108.94 18.469 27 32.766 56.297 41.859 87.844 0.23438 0.60938 0.46875 1.4531 0.84375 2.5312 8.5312 30.516 11.766 58.594 9.9844 85.688z"/>
 <path d="m750.61 984.47c-1.5469 0-3 0.375-4.4531 0.84375-3.9375 1.7812-6.8438 5.7656-6.8438 10.547v90.469c-129.14 40.922-270.37 40.922-399.47 0v-605.26c0-22.547 8.8594-43.922 24.938-60.234 16.078-16.078 37.594-24.844 60.281-24.844 23.297 0 42.234-18.938 42.234-42.234v-27.844c21.375 4.0781 46.312 6.2344 72.375 6.2344 25.922 0 50.859-2.1562 72.234-6.2344v27.844c0 11.062 4.3125 21.703 12.469 30 8.0156 7.9219 18.562 12.234 29.766 12.234 46.922 0 85.219 38.156 85.219 85.078v80.531c0 6.375 5.0625 11.391 11.297 11.391 0.84375 0 1.5469-0.14063 2.2969-0.23438 5.2031-1.0781 9.0469-5.625 9.0469-11.156v-80.531c0-59.531-48.375-107.86-107.86-107.86-5.1562 0-9.9375-2.0625-13.688-5.625-3.7031-3.8438-5.7656-8.7656-5.7656-13.781v-33.234c18.938-5.7656 31.547-13.078 37.781-21.844 2.7656-2.0625 4.6875-5.1562 4.6875-9v-71.625c0-29.297-54.234-40.219-86.531-44.062v-63.047c0-28.078-22.922-51-51-51-28.219 0-51 22.922-51 51v63c-32.297 3.8438-86.531 14.766-86.531 44.062v71.625c0 3.8438 1.9219 6.9375 4.6875 9 6.2344 8.7656 18.703 16.078 37.688 21.844v33.234c0 10.688-8.7656 19.453-19.453 19.453-28.781 0-55.922 11.156-76.453 31.688-20.297 20.531-31.547 47.625-31.547 76.219v613.55c0 4.9219 3.2344 9.375 7.9219 10.781 69.281 22.922 141.37 34.547 214.6 34.547 73.219 0 145.45-11.625 214.69-34.547 4.6406-1.4531 7.7812-5.9062 7.7812-10.828v-98.766c0-6.3281-5.0625-11.391-11.391-11.391z"/>
 <path d="m687.37 612.71c3.1406 0 6-1.2188 8.0625-3.375 2.0625-2.0625 3.375-4.7812 3.375-8.0625v-52.078c0-3.375-1.5469-6.6094-4.2188-8.7656-2.5312-2.1562-6-3.1406-9.375-2.3906l-47.156 8.8594c-65.297 12.234-131.53 12.234-196.92 0l-47.062-8.8594c-3.2344-0.70312-6.7031 0.23438-9.375 2.3906-2.625 2.1562-4.0781 5.3906-4.0781 8.7656v458.06c0 5.0625 3.375 9.6094 8.2969 10.922 49.312 13.922 100.08 21 150.71 21 50.766 0 101.53-7.0781 150.84-21 6-1.6875 9.4688-8.0625 7.7812-14.062-1.4531-4.9219-5.8594-8.2969-10.781-8.2969-1.0781 0-2.1562 0.14062-3.2344 0.46875-91.781 26.016-188.76 26.719-280.78 2.25v-435.61l33.469 6.375c68.156 12.844 137.29 12.844 205.31 0l33.703-6.375v38.391c0 6.375 5.0625 11.391 11.438 11.391z"/>
 <path d="m601.45 611.06c-4.2188-6.375-14.766-6.375-18.938 0-5.5312 8.2969-54.234 82.453-54.234 117.61 0 29.297 16.078 54.375 38.859 65.156 7.6875 3.4688 16.078 5.5312 24.844 5.5312 35.062 0 63.609-31.688 63.609-70.688 0-15.375-9.2344-38.156-20.156-59.766-14.203-27.75-30.891-53.203-33.984-57.844z"/>
</svg>
