<?xml version="1.0" encoding="UTF-8"?>
<svg width="1200pt" height="1200pt" version="1.1" viewBox="0 0 1200 1200" xmlns="http://www.w3.org/2000/svg">
 <path d="m761.86 846.71-0.9375-0.89062c-3.0938-73.266-9.9375-105.52-11.109-110.62-1.1719-11.062-1.8281-24-2.1094-37.359-2.9531-1.2656-5.7656-2.9062-8.3906-5.0156l-136.82-107.77c-1.0781-0.84375-2.1094-1.7344-3.0469-2.7188l-4.0312-4.2188s-17.531-22.125-19.922-45.328c-0.32812-2.7656-0.46875-5.625-0.46875-8.4375 0-5.0625 0.46875-9.9375 1.3125-14.578 2.3906-25.875 20.297-42.75 32.812-51.516 0.23438-1.0312 0.51562-1.9688 0.75-2.8594l3.75-10.594 0.1875-0.375c0.5625-1.125 1.3125-2.1562 2.1094-3l1.125-1.0312 1.6875-1.1719 0.5625-0.32812 1.875-0.75c0.75-0.28125 1.5938-0.46875 2.3906-0.5625l0.9375-0.09375c2.0625-0.046875 4.1719 0.375 6.0938 1.3594 2.3438 1.1719 4.1719 3 5.3906 5.1562l0.60938 1.4531c6.3281-1.5469 12.891-2.3906 19.641-2.3906 21.328 0 40.734 8.25 55.266 21.703l47.297 37.641c0.79688-12.422 1.5-25.688 2.0625-39.656l24.141 15.375c24.75 17.531 92.438 62.719 115.17 176.16 0.046875 0.1875 15.75 91.781 15.75 91.781 0.5625 3.2812 2.3906 6.1875 5.1094 8.1094l148.6 104.11-109.27 142.08-115.08-92.062c-0.84375-0.65625-1.7344-1.2656-2.7656-1.6875-32.016-14.016-61.641-40.5-80.672-59.906zm-275.06-96.75s111.14 6.0938 180.56 59.906c5.4375 4.2188 13.312 3.2344 17.531-2.2031s3.2344-13.312-2.2031-17.531c-74.812-58.031-194.48-65.109-194.48-65.109-6.8438-0.375-12.797 4.875-13.172 11.766s4.875 12.797 11.766 13.172zm-80.578-144.1c7.5469-3.75 16.031-5.8594 25.031-5.8594 31.078 0 56.25 25.219 56.25 56.25 0 12.188-3.8438 23.438-10.453 32.672-0.375 0.51562-0.79688 1.0312-1.2656 1.5l-116.86 118.36c-4.875 4.9219-12.797 4.9688-17.672 0.14062-4.9219-4.875-4.9688-12.797-0.14062-17.719 0 0 116.16-117.56 116.2-117.66 3.2812-4.9688 5.2031-10.875 5.2031-17.297 0-17.25-14.016-31.266-31.266-31.266-9.4219 0-17.906 4.2188-23.625 10.875-0.23438 0.23438-0.42188 0.46875-0.65625 0.70312l-123.24 122.29c-4.875 4.875-12.797 4.8281-17.672-0.046875-4.875-4.9219-4.8281-12.797 0.046874-17.672l116.53-115.69c7.6406-8.0156 15.281-15.609 23.578-19.594zm178.18 106.22s61.125 15.562 94.547 47.016c5.0156 4.7344 12.938 4.5 17.672-0.51562s4.5-12.938-0.51562-17.672c-37.406-35.203-105.47-53.016-105.47-53.016-6.6562-1.7344-13.5 2.2969-15.188 9-1.7344 6.6562 2.2969 13.5 8.9531 15.188zm110.72-228.42 125.21 99.609c5.3906 4.3125 6.2812 12.188 1.9688 17.578-4.2656 5.3906-12.141 6.3281-17.531 2.0156l-125.68-100.03c-0.32812-0.23438-0.65625-0.51562-0.9375-0.84375-5.625-5.5312-13.359-8.9062-21.891-8.9062-17.25 0-31.219 14.016-31.219 31.266 0 8.4844 3.375 16.219 8.9531 21.844l136.26 107.34c5.4375 4.3125 6.375 12.188 2.1094 17.578-4.3125 5.4375-12.188 6.375-17.578 2.1094l-136.87-107.86-3.0938-3.0469s-12.75-15.609-14.484-32.109c-0.1875-1.9219-0.32812-3.8906-0.32812-5.8594 0-3.8906 0.375-7.6406 1.125-11.25 1.7812-26.953 29.906-39.047 29.906-39.047 7.5938-3.8438 16.172-5.9531 25.219-5.9531 15.094 0 28.781 5.9062 38.859 15.562zm-181.69-228.98s24.094 60.141 24.094 120.32c0 2.7656-1.4062 6.0469-3.2812 9.8438-2.5781 5.2969-6.2812 11.062-10.594 17.062-21.469 29.953-57.234 64.031-57.234 64.031-5.0156 4.7812-5.2031 12.703-0.42188 17.672 4.7344 5.0156 12.656 5.2031 17.672 0.42188 0 0 37.688-35.953 60.328-67.594 11.344-15.797 18.516-31.172 18.516-41.438 0-64.828-25.875-129.66-25.875-129.66-2.5781-6.375-9.8438-9.5156-16.266-6.9375-6.375 2.5312-9.5156 9.7969-6.9375 16.266zm149.11-104.67c0 46.219-11.203 69.422-11.203 69.422-3.0938 6.1406-0.5625 13.688 5.5781 16.734 6.1875 3.1406 13.734 0.60938 16.781-5.5781 0 0 13.828-26.812 13.828-80.578 0-6.8906-5.5781-12.516-12.516-12.516-6.8906 0-12.469 5.625-12.469 12.516zm-62.531-37.5c0 40.312-11.625 70.453-11.625 70.453-2.4844 6.4688 0.65625 13.688 7.125 16.219 6.4219 2.4844 13.688-0.70312 16.172-7.125 0 0 13.359-34.031 13.359-79.547 0-6.8906-5.625-12.516-12.516-12.516s-12.516 5.625-12.516 12.516zm-75-37.5c0 50.625-12.094 96.844-12.094 96.844-1.7344 6.6562 2.25 13.5 8.9531 15.234 6.6562 1.7812 13.5-2.25 15.281-8.9062 0 0 12.891-49.266 12.891-103.17 0-6.8906-5.625-12.516-12.516-12.516s-12.516 5.625-12.516 12.516zm-87.469 76.688c-3.7031-0.65625-7.4531-1.2188-11.203-1.5938-6.8438-0.75-13.031 4.2188-13.734 11.062-0.75 6.8906 4.2188 13.031 11.109 13.781 23.344 2.5312 46.734 11.672 46.734 11.672 6.4219 2.5312 13.688-0.60938 16.219-7.0312s-0.65625-13.688-7.0781-16.219c0 0-6.8438-2.6719-17.062-5.6719v-82.688c0-6.8906-5.5781-12.516-12.516-12.516-6.8906 0-12.469 5.625-12.469 12.516zm-49.641 790.13 0.09375 2.3438c-15 12.234-32.156 24.047-50.109 31.875-3.7031 1.6406-6.375 4.9219-7.2188 8.8594l-40.406 188.63c-52.594-7.9219-133.69-26.203-163.45-33l60.516-355.74c22.734-114.47 90.469-160.08 115.27-177.74l74.953-48.234 2.625 34.594c4.9219-4.0781 9.9844-7.5 15.047-9.9844 10.875-5.3438 23.109-8.3906 36.047-8.3906 44.859 0 81.281 36.375 81.281 81.234 0 17.578-5.625 33.891-15.141 47.203-1.125 1.5938-2.4375 3.1406-3.8438 4.5469l-102.28 103.59c-1.9219 29.859-4.0781 73.125-3.7031 113.53 0.046875 5.625 0.14062 11.203 0.32812 16.688zm374.26-57.703c0.23437 12.656 0.375 26.297 0.375 40.875l-0.09375 1.3594c-0.375 31.219-2.5781 60.75-7.8281 81.422-6.4688 25.547-24 49.875-49.172 69.656-36.094 28.453-87.984 47.578-142.92 47.578-81.141 0-154.36-55.031-168.14-117.61-2.1094-9.375-3.6094-20.625-4.6875-33l-1.0312 0.79688c-11.016 7.9219-22.734 15.234-34.828 21.047l-41.578 193.87c-1.3594 6.375-7.3594 10.594-13.828 9.7969-63.938-8.3438-188.76-37.734-188.76-37.734-6.4219-1.5-10.547-7.7812-9.4688-14.25l62.531-367.5c0-0.14062 0.046874-0.23438 0.046874-0.32812 24.75-125.02 98.859-174.52 125.53-193.6 0.1875-0.09375 0.375-0.23438 0.51563-0.32812l86.578-55.734-0.28125-3.5156c-15.984-63.094-50.062-126.28-50.062-201.94 0-61.5 16.219-106.92 23.203-123.56-4.5469-7.3125-8.3906-16.641-11.484-26.578-8.625-28.031-11.672-61.219-11.672-61.219-0.046876-0.375-0.046876-0.75-0.046876-1.125 0-53.156 12.422-78 13.875-80.766 1.2656-2.5312 16.828-31.734 61.125-31.734 27.047 0 43.922 14.719 53.25 33.563 8.5781-11.859 21.141-21.047 38.906-21.047 31.125 0 45.516 18.047 52.172 33.891 7.2656-5.1562 17.203-8.9062 30.656-8.9062 20.484 0 33.609 13.969 40.969 31.969 3.0469 7.3594 5.0156 15.375 6.375 22.734 5.7656-2.8125 13.031-4.6875 22.312-4.6875 13.453 0 23.766 7.125 30.844 18 6.6094 10.125 10.219 23.719 11.484 35.344 5.25-2.0156 11.672-3.375 19.594-3.375 20.391 0 44.016 18.703 43.406 55.359-0.1875 12.562-4.2656 29.438-11.531 45.469 5.7188 17.625 24.047 79.641 24.047 149.21 0 15.844-0.23438 31.312-0.60938 46.219l37.266 23.859c26.766 18.891 100.83 68.016 125.58 192.1l14.953 87 154.97 108.66c2.8125 1.9688 4.6875 4.9688 5.2031 8.3438 0.51563 3.375-0.375 6.7969-2.4375 9.5156l-125.02 162.52c-2.0625 2.625-5.0625 4.3594-8.3906 4.7344-3.3281 0.42188-6.7031-0.51562-9.3281-2.625 0 0-123.74-99-123.66-98.953-25.594-11.484-49.781-30-69-47.297z" fill-rule="evenodd"/>
</svg>
