<?xml version="1.0" encoding="UTF-8"?>
<svg width="1200pt" height="1200pt" version="1.1" viewBox="0 0 1200 1200" xmlns="http://www.w3.org/2000/svg">
 <path d="m375 387.52c0-54.422 25.875-83.297 37.5-93.562v-231.47c0-6.8906 5.625-12.469 12.516-12.469h300c6.8906 0 12.516 5.5781 12.516 12.469v190.4c15.375 4.9219 45.094 18.094 70.266 50.625 16.125 20.812 30.562 49.875 37.641 90.328l66.328 42.656c26.672 19.078 100.73 68.578 125.48 193.6 0.046875 0.09375 0.09375 0.1875 0.09375 0.28125l62.484 367.5c1.125 6.5156-3 12.75-9.4219 14.297 0 0-124.87 29.391-188.76 37.734-6.4688 0.79688-12.469-3.4219-13.828-9.7969l-41.578-193.87c-41.812-20.203-79.172-58.172-96.234-77.109v99.609c0 31.078-25.172 56.25-56.25 56.25-11.531 0-22.266-3.4688-31.219-9.4688v-303c0-6.9375-5.625-12.516-12.516-12.516s-12.516 5.5781-12.516 12.516v312.47c0 6.8906 5.625 12.516 12.516 12.516 4.9688 0 9.2812-2.9062 11.297-7.1719-5.3438 25.5-27.984 44.672-55.031 44.672-27.094 0-49.734-19.172-55.078-44.672 2.0156 4.2656 6.3281 7.1719 11.297 7.1719 6.9375 0 12.516-5.625 12.516-12.516v-312.47c0-6.9375-5.5781-12.516-12.516-12.516-6.8906 0-12.469 5.5781-12.469 12.516v303c-8.9531 6-19.734 9.4688-31.266 9.4688-27.094 0-49.688-19.172-55.031-44.625 1.9688 4.2188 6.3281 7.125 11.297 7.125 6.8906 0 12.469-5.5781 12.469-12.469v-210.71c20.016-20.578 22.266-31.359 24.844-53.578l0.1875-4.5c0-44.859-36.422-81.234-81.281-81.234-16.688 0-32.25 5.0625-45.141 13.688-1.125 0.79688-2.2031 1.6406-3.2344 2.5781l-7.875 7.4062v-38.25l-72.422 46.641c-24.797 17.672-92.531 63.234-115.27 177.71l-60.516 355.74c29.766 6.8438 110.86 25.078 163.45 33l40.406-188.63c0.84375-3.9375 3.5156-7.2188 7.2188-8.8125 28.969-12.703 56.016-35.531 75-54.141l-0.98438-0.375c-21.516-7.9219-36.891-28.594-36.891-52.781v-40.828c0.60938-0.46875 1.125-1.0312 1.6875-1.5938l85.828-86.906v176.06c-4.8281 3.2344-10.219 5.7656-15.938 7.3594-18.328 19.875-53.625 54.422-92.766 73.359l-41.578 193.92c-1.3594 6.3281-7.3594 10.594-13.828 9.75-63.891-8.2969-188.76-37.734-188.76-37.734-6.4219-1.5-10.547-7.7812-9.4688-14.25l62.531-367.5c0-0.09375 0.046874-0.23438 0.046874-0.32812 24.75-125.02 98.859-174.47 125.53-193.6 0.1875-0.09375 0.375-0.23438 0.51563-0.32812l86.203-55.5zm385.92 356.06-0.60938-0.75c7.5 4.5 16.5 7.1719 27.188 7.1719 25.5 0 41.531-16.969 50.719-38.391 3.375-7.875 5.8125-16.359 7.5-24.375-4.4062-0.65625-8.5781-2.4844-12.094-5.2969l-22.828-18.469c-0.70312-0.60938-1.3594-1.2188-2.0625-1.875l-58.734-59.484v97.875c0 6.8906-5.5781 12.516-12.469 12.516s-12.516-5.625-12.516-12.516v-123.19l-15.797-15.938-6.5625-7.4062c-3.8438-5.3906-7.0781-11.25-9.5156-17.484-19.406-6.6094-105.61-45.188-105.61-210.98 0-6.8906 5.5781-12.469 12.469-12.469 6.9375 0 12.516 5.5781 12.516 12.469 0 120.28 49.125 165.28 75 180.66 0.32812-44.578 36.609-80.625 81.234-80.625 23.953 0 45.516 10.359 60.375 26.906l20.812 20.578 0.09375-22.5c0-6.2344-0.42188-16.641-0.65625-21.422l-0.14062-2.5781 48.234 31.031c24.75 17.672 92.484 63.234 115.22 177.61 0.046875 0.14062 60.516 355.87 60.516 355.87-29.719 6.7969-110.81 25.078-163.4 33l-40.406-188.63c-0.84375-3.9375-3.5156-7.2656-7.2188-8.8594-49.734-21.75-93.75-73.359-101.25-82.453zm-298.4-89.719-103.59 104.91c-4.875 4.9219-12.797 4.9688-17.672 0.14062-4.9219-4.875-4.9688-12.797-0.14062-17.672 0 0 116.16-117.61 116.2-117.7 3.2812-4.9219 5.2031-10.875 5.2031-17.297 0-17.25-14.016-31.219-31.266-31.219-9.4219 0-17.906 4.1719-23.625 10.828-0.23438 0.23438-0.42188 0.46875-0.65625 0.70312l-123.24 122.34c-4.875 4.8281-12.797 4.8281-17.672-0.09375s-4.8281-12.797 0.046875-17.672l108.89-108.09 25.031-23.578c8.9531-5.9531 19.688-9.4688 31.219-9.4688 31.078 0 56.25 25.219 56.25 56.25v1.6406c-2.1562 18.703-4.4062 26.438-24.984 45.984zm264.47-110.58 0.046875-0.046875-4.0781-4.3594c-6.5625-9.1875-10.453-20.438-10.453-32.625 0-31.031 25.219-56.25 56.25-56.25 16.828 0 31.922 7.4062 42.234 19.078l122.95 122.06c4.875 4.875 4.9219 12.75 0.046875 17.672-4.875 4.875-12.797 4.9219-17.672 0.046875l-123.24-122.29c-0.23438-0.23438-0.42188-0.46875-0.65625-0.70312-5.7188-6.6562-14.203-10.875-23.672-10.875-17.25 0-31.219 14.016-31.219 31.266 0 6.4219 1.9219 12.422 5.25 17.391l116.16 117.56c4.8281 4.9219 4.7812 12.844-0.14062 17.672-2.5781 2.5781-6.0469 3.75-9.4219 3.6094l-22.828-18.469-76.547-77.484z" fill-rule="evenodd"/>
</svg>
