<?xml version="1.0" encoding="UTF-8"?>
<svg width="1200pt" height="1200pt" version="1.1" viewBox="0 0 1200 1200" xmlns="http://www.w3.org/2000/svg">
 <path d="m220.61 872.89c-8.1211 6.8359-13.27 16.555-14.363 27.113 0 53.117 168.39 112.5 393.75 112.5s393.75-59.383 393.75-112.5c-1.0938-10.559-6.2422-20.277-14.363-27.113-58.438 28.172-122.63 42.332-187.5 41.363-65.242-0.41016-130.01-11.156-191.89-31.836-61.859 20.68-126.61 31.438-191.83 31.875-64.887 0.97656-129.11-13.199-187.55-41.402zm435.64 64.613h37.5v37.5h-37.5zm-75 0h37.5v37.5h-37.5zm-93.75 0h37.5v37.5h-37.5z"/>
 <path d="m366.38 473.74c-61.07-36.312-127.8-62.141-197.4-76.406 0.070313 76.574 12.852 152.61 37.816 225 118.55-0.54297 276.56 25.781 367.37 151.73l0.003906-0.003906c-9.793-62.469-33.566-121.92-69.547-173.92-35.977-52.004-83.234-95.207-138.24-126.39z"/>
 <path d="m600 718.12c27.645-99.918 88.719-187.34 173.02-247.67-3.9648-50.18-16.906-99.238-38.211-144.84-29.172-62.234-68.383-119.25-116.06-168.75v105.64h-37.5v-102.3c-45.746 50.348-82.84 107.92-109.78 170.38-19.875 47.293-30.879 97.84-32.457 149.12 78.285 59.738 134.84 143.49 160.99 238.43zm-18.75-418.12h37.5v37.5h-37.5z"/>
 <path d="m432.09 328.39c-31.441-29.949-66.406-55.969-104.12-77.492-19.543 46.391-30.957 95.801-33.75 146.06 37.93 15.332 74.281 34.316 108.54 56.68 3.8438-42.918 13.715-85.082 29.324-125.25z"/>
 <path d="m905.76 396.96c-2.8047-50.254-14.223-99.656-33.75-146.04-35.148 20.09-67.902 44.105-97.633 71.586 17.078 39.461 28.562 81.113 34.125 123.75 30.953-19.176 63.488-35.668 97.258-49.293z"/>
 <path d="m625.84 774.07c90.805-125.93 248.81-152.27 367.37-151.73l0.003906 0.003906c24.965-72.395 37.742-148.43 37.816-225-69.602 14.258-136.32 40.078-197.4 76.387-55.012 31.188-102.27 74.398-138.25 126.4-35.98 52.004-59.75 111.46-69.543 173.93z"/>
 <path d="m1027.5 879.17c2.4062 6.6875 3.6719 13.727 3.75 20.832 0 97.5-222.19 150-431.25 150s-431.25-52.5-431.25-150c0.078125-7.1055 1.3438-14.145 3.75-20.832-26.758 18.957-41.25 38.965-41.25 58.332 0 70.949 192.51 150 468.75 150s468.75-79.051 468.75-150c0-19.367-14.492-39.375-41.25-58.332z"/>
 <path d="m825 768.75c88.781 0 207.21-64.836 268.12-102.15-108.15-14.586-375.23-26.98-468.26 184.57 62.297 19.656 127.54 28.352 192.8 25.707 126.24-6.8828 220.31-63.938 280.67-169.48-67.199 39.934-181.7 98.848-273.34 98.848z"/>
 <path d="m101.72 707.4c60.543 105.86 155.01 162.94 281.81 169.55v0.003906c64.895 2.4922 129.73-6.2031 191.68-25.707-93.148-211.88-360.2-199.37-468.34-184.69 60.898 37.312 179.42 102.19 268.12 102.19v37.5c-91.633 0-206.14-58.914-273.28-98.852z"/>
 <path d="m187.5 225c14.918 0 29.227-5.9258 39.773-16.477 10.551-10.547 16.477-24.855 16.477-39.773s-5.9258-29.227-16.477-39.773c-10.547-10.551-24.855-16.477-39.773-16.477s-29.227 5.9258-39.773 16.477c-10.551 10.547-16.477 24.855-16.477 39.773s5.9258 29.227 16.477 39.773c10.547 10.551 24.855 16.477 39.773 16.477zm0-75c4.9727 0 9.7422 1.9766 13.258 5.4922 3.5156 3.5156 5.4922 8.2852 5.4922 13.258s-1.9766 9.7422-5.4922 13.258c-3.5156 3.5156-8.2852 5.4922-13.258 5.4922s-9.7422-1.9766-13.258-5.4922c-3.5156-3.5156-5.4922-8.2852-5.4922-13.258s1.9766-9.7422 5.4922-13.258c3.5156-3.5156 8.2852-5.4922 13.258-5.4922z"/>
 <path d="m1068.8 131.25c-14.918 0-29.227 5.9258-39.773 16.477-10.551 10.547-16.477 24.855-16.477 39.773s5.9258 29.227 16.477 39.773c10.547 10.551 24.855 16.477 39.773 16.477s29.227-5.9258 39.773-16.477c10.551-10.547 16.477-24.855 16.477-39.773s-5.9258-29.227-16.477-39.773c-10.547-10.551-24.855-16.477-39.773-16.477zm0 75c-4.9727 0-9.7422-1.9766-13.258-5.4922-3.5156-3.5156-5.4922-8.2852-5.4922-13.258s1.9766-9.7422 5.4922-13.258c3.5156-3.5156 8.2852-5.4922 13.258-5.4922s9.7422 1.9766 13.258 5.4922c3.5156 3.5156 5.4922 8.2852 5.4922 13.258s-1.9766 9.7422-5.4922 13.258c-3.5156 3.5156-8.2852 5.4922-13.258 5.4922z"/>
</svg>
