<?xml version="1.0" encoding="UTF-8"?>
<svg width="1200pt" height="1200pt" version="1.1" viewBox="0 0 1200 1200" xmlns="http://www.w3.org/2000/svg">
 <path d="m487.11 261.09c1.8906 0.72656 46.203 18.367 40.09 64.848-0.64844 4.9258 2.8242 9.4453 7.7539 10.098 0.39844 0.050781 0.79297 0.078125 1.1836 0.078125 4.4492 0 8.3164-3.2969 8.9141-7.8281 6.3906-48.609-30.922-76.211-51.539-84.016-4.6602-1.7461-9.8203 0.57812-11.582 5.2148-1.7773 4.6289 0.55078 9.8203 5.1797 11.605z"/>
 <path d="m520.39 471.17c18.996 5.3086 31.828 13.117 37.109 22.582 3.4531 6.1797 3.9258 13.34 1.457 21.902-1.3789 4.7734 1.3828 9.7617 6.1602 11.141 0.83203 0.23828 1.6719 0.35156 2.4961 0.35156 3.9102 0 7.5078-2.5664 8.6406-6.5117 3.8086-13.219 2.7891-25.211-3.0352-35.648-7.7812-13.953-23.93-24.434-47.988-31.148-4.8047-1.3594-9.7617 1.4531-11.086 6.2461-1.3438 4.7852 1.4609 9.7461 6.2461 11.086z"/>
 <path d="m461.76 463.64c0.16016-0.007813 6.8594-0.042969 16.723 0.68359 0.23047 0.015625 0.45312 0.023437 0.67188 0.023437 4.6719 0 8.6172-3.6094 8.9648-8.3359 0.36328-4.957-3.3594-9.2734-8.3164-9.6406-10.875-0.79688-18.199-0.73438-18.195-0.73438-4.9688 0.046875-8.957 4.1094-8.918 9.0781 0.042969 4.9688 4 8.7422 9.0703 8.9258z"/>
 <path d="m592.57 678.06c-20.836-7.1133-36.809-10.391-37.477-10.523-4.8242-0.98828-9.6211 2.1484-10.609 7.0234-0.98828 4.8672 2.1562 9.6211 7.0234 10.609 0.15234 0.027343 15.574 3.2109 35.25 9.9258 0.96094 0.32812 1.9453 0.48047 2.9062 0.48047 3.7422 0 7.2422-2.3516 8.5195-6.0938 1.6055-4.7031-0.91016-9.8164-5.6133-11.422z"/>
 <path d="m265.64 672.93c-24.52 8.1641-51.527 33.773-52.664 34.859-3.5898 3.4336-3.7266 9.1211-0.29297 12.723 1.7695 1.8516 4.1367 2.7891 6.5117 2.7891 2.2344 0 4.4727-0.82812 6.2109-2.4883 0.25391-0.23438 25.254-23.918 45.922-30.801 4.7148-1.5703 7.2656-6.668 5.6953-11.379-1.5742-4.7227-6.6641-7.2812-11.383-5.7031z"/>
 <path d="m1010.8 695.56c10.555-22.641 18.984-54.152 13.406-93.168-0.49609-3.4688-2.957-6.332-6.3086-7.3398-28.949-8.7734-72.34-1.1992-99.246 11.141-8.5469-23.473-24.875-51.719-56.414-75.367-2.8008-2.1055-6.5625-2.3906-9.6484-0.73438-26.633 14.285-51.984 50.324-62.301 78.078-22.652-10.559-54.176-18.996-93.164-13.418-3.4688 0.49609-6.332 2.957-7.3398 6.3086-5.2969 17.543-4.5078 40.438-0.41016 61.789-47.746-25.242-111.61-42.094-182.63-48.633 30.426-8.0508 58.152-18.695 81.273-31.645 44.785-25.09 67.852-55.91 64.953-86.789-4.0273-42.902-58.176-75.344-137.94-86.344 56.691-13.879 96.238-46.84 98.938-87.293 3.9297-58.996-68.602-110.26-165.13-116.7-96.297-6.3594-175.3 36.07-179.15 93.758-1.9336 29.012 14.812 57.164 47.156 79.266 20.438 13.965 45.73 24.418 73.539 30.828-57.012 6.8711-109.45 22.398-148.8 44.434-44.785 25.082-67.852 55.902-64.953 86.789 3.793 40.395 52.039 71.504 124.25 84.188-113.58 23.59-190.79 75.59-190.79 137.41 0 84.668 144.77 151 329.58 151 97.715 0 190.46-19.746 252.45-53.238-4.1914 17.781-5.9883 38.48-2.6289 61.965 0.49609 3.4688 2.957 6.332 6.3086 7.3398 8.7109 2.6367 18.758 3.7969 29.273 3.7969 24.379 0 51.199-6.2656 70-14.859 8.5547 23.457 24.875 51.668 56.375 75.289 1.5938 1.1914 3.4922 1.7969 5.4023 1.7969 1.457 0 2.918-0.35156 4.2539-1.0664 26.621-14.277 51.969-50.297 62.297-78.043 17.656 8.2266 40.688 15.164 68.516 15.16 7.8516 0 16.082-0.55078 24.664-1.7734 3.4688-0.49609 6.332-2.957 7.3398-6.3086 8.7344-28.914 1.1914-72.293-11.125-99.215 23.461-8.5508 51.715-24.93 75.344-56.441 2.0977-2.8008 2.3867-6.5625 0.73438-9.6484-14.293-26.637-50.324-51.984-78.074-62.301zm-3.6797-84.672c7.1758 68.992-35.293 111.42-35.82 111.93-25.008 25.008-67.051 30.141-92.371 30.793 19.414-20.227 49.062-58.004 49.062-100.07 0.019531-1.1758 0.015624-13.082-4.0781-30.008 21.859-10.727 58.18-17.723 83.207-12.641zm-295.7 201.79c-23.047-7.8633-53.672-28.605-67.777-49.887 43.16-53.191 102.24-53.824 104.42-53.824h0.058594c35.359 0 68.703 26.094 87.066 43.535-28.031 0.57812-75.695 6.3398-105.43 36.078-0.84766 0.82031-9.2617 9.2344-18.34 24.098zm144.75-263.76c53.871 43.711 53.836 103.74 53.828 104.48 0 35.363-26.105 68.715-43.547 87.078-0.57422-28.031-6.3242-75.695-36.066-105.44-0.82031-0.84766-9.2461-9.2539-24.105-18.324 7.8672-23.055 28.605-53.684 49.891-67.793zm-150.55 62.922c68.973-7.1719 111.42 35.285 111.94 35.812 25 25.008 30.125 67.047 30.777 92.363-20.227-19.414-57.996-49.051-100.06-49.051-1.1328 0.046874-13.035 0.058593-29.977 4.1484-10.75-21.852-17.758-58.223-12.68-83.273zm-417.98-311.45c2.8945-43.508 65.277-77.59 142.02-77.59 5.9141 0 11.898 0.19922 17.965 0.60547 85.016 5.6719 151.57 49.422 148.36 97.543-3.1211 46.859-75.199 82.68-159.99 76.98-42-2.7969-80.711-14.988-109.02-34.324-26.863-18.367-40.84-40.812-39.344-63.215zm88.703 312.56c-99.672 0-177.83-31.863-181.8-74.121-2.1641-23.02 18.188-48.316 55.832-69.398 40.418-22.641 95.727-38.207 155.73-43.848 15.816-1.4844 31.676-2.2383 47.141-2.2383 99.672 0 177.83 31.863 181.8 74.121 2.1641 23.016-18.188 48.309-55.832 69.391-40.418 22.641-95.719 38.215-155.73 43.852-5.0859 0.47656-10.164 0.75391-15.242 1.0781-4.7148 0.19531-9.3828 0.44922-14.031 0.73047-5.9805 0.22266-11.969 0.43359-17.863 0.43359zm320.02 223.7c-58.746 36.605-154.71 58.453-256.7 58.453-168.89 0-311.58-60.902-311.58-133 0-65.922 119.33-122.46 268.89-131.66 3.8203-0.15625 7.6406-0.40234 11.48-0.64062 10.285-0.46094 20.695-0.69922 31.211-0.69922 99.773 0 194.52 21.105 253.45 56.461 0.74219 0.44922 1.5547 0.625 2.3555 0.83984 1.6758 5.0195 3.5078 9.6602 5.4766 13.953-10.918 3.9648-22.824 9.5703-34.875 17.664-4.1055-3.8164-8.625-7.5586-13.703-11.109-4.0586-2.8242-9.6719-1.8594-12.535 2.2227-2.8477 4.0742-1.8594 9.6797 2.2227 12.535 3.4688 2.4258 6.5703 4.9414 9.4844 7.4805-8.9531 7.6094-17.758 16.594-25.977 27.559-2.0977 2.8008-2.3867 6.5625-0.73438 9.6484 14.277 26.633 50.309 51.984 78.059 62.301-1.0195 2.1875-2.0273 4.3945-2.9961 6.75-1.2188 0.16406-2.4219 0.54688-3.5273 1.2344zm10.203 76.684c-7.1758-68.992 35.293-111.42 35.82-111.93 25-24.992 67.039-30.125 92.359-30.781-19.414 20.23-49.051 58-49.051 100.06-0.019531 1.1758-0.015624 13.082 4.0742 30.012-21.859 10.73-58.164 17.734-83.203 12.637zm150.95 61.973c-53.863-43.711-53.828-103.74-53.824-104.48 0-35.363 26.102-68.711 43.543-87.078 0.57812 28.031 6.3281 75.695 36.07 105.44 0.82031 0.84766 9.1914 9.2773 24.09 18.367-7.8828 23.051-28.613 53.652-49.879 67.75zm150.55-62.922c-68.957 7.125-111.42-35.293-111.94-35.812-25-25.008-30.129-67.043-30.781-92.363 20.23 19.414 58 49.051 100.06 49.051h0.49219c2.6445 0 13.938-0.26172 29.535-4.0391 10.723 21.859 17.703 58.152 12.629 83.164zm-42.512-97.125c-35.402 0-68.789-26.16-87.141-43.602 27.988-0.53906 75.652-6.1523 105.5-36.008 0.84766-0.82031 9.2617-9.2383 18.34-24.098 23.047 7.8633 53.672 28.605 67.777 49.887-43.746 53.902-103.98 53.699-104.48 53.82z"/>
</svg>
