<?xml version="1.0" encoding="UTF-8"?>
<svg width="1200pt" height="1200pt" version="1.1" viewBox="0 0 1200 1200" xmlns="http://www.w3.org/2000/svg">
 <path d="m693.56 69.234h370.31c3.6562 0 7.2188 1.4531 9.7969 4.0781 2.5781 2.5781 4.0312 6.0938 4.0312 9.7969 0 110.62-27.328 183.32-52.781 249.1-36.281 93.797-68.438 172.78-1.6875 336.47 65.156 159.84 145.13 279.84 32.859 455.72-2.5312 3.9844-6.9375 6.4219-11.672 6.4219h-499.82c-3.75 0-7.4062-1.5469-10.031-4.3125-2.625-2.7188-3.9844-6.4219-3.7969-10.219 0 0 1.6406-32.625-6-61.875-4.1719-15.938-10.312-31.594-23.625-36.562-136.31-39.094-228.79-175.92-228.79-325.5 0-162.79 112.92-299.48 264.89-336.37-28.125-18.516-60.891-51.844-61.219-106.59-0.1875-30.562 19.406-60.328 48.375-86.109 61.5-54.75 164.29-93.094 164.29-93.094 1.5469-0.5625 3.1875-0.89062 4.8281-0.89062zm-93.516 369.24c-140.11 0-253.87 113.72-253.87 253.82 0 140.11 113.77 253.82 253.87 253.82 140.11 0 253.82-113.72 253.82-253.82 0-140.11-113.72-253.82-253.82-253.82zm0 27.656c124.78 0 226.13 101.34 226.13 226.18 0 124.83-101.34 226.18-226.13 226.18-124.82 0-226.18-101.34-226.18-226.18 0-124.83 101.34-226.18 226.18-226.18zm0 111.94c-11.25-13.547-24.609-21.703-38.344-25.734-29.062-8.5312-60.516 1.6406-80.156 20.766-30.516 29.766-33.234 89.156-2.7656 148.64 20.062 41.625 70.922 83.672 113.72 111.47 4.5938 2.9531 10.5 2.9531 15.094 0 42.75-27.75 93.656-69.797 113.67-111.47 30.469-59.484 27.797-118.88-2.7188-148.6-19.641-19.125-51.094-29.344-80.156-20.812-13.734 4.0312-27.094 12.188-38.344 25.734zm-12.375 31.5c2.3906 4.5938 7.125 7.5 12.328 7.5 5.1562 0 9.9375-2.9062 12.281-7.5 8.8125-17.109 20.812-26.906 33.844-30.656 19.219-5.6719 40.031 1.3594 53.016 14.062 8.7656 8.5312 13.781 20.625 15.516 34.641 2.9531 23.766-3.2812 52.688-18.188 81.656l-0.14062 0.375c-16.969 35.344-59.203 70.406-96.328 95.391-37.172-24.984-79.406-60-96.328-95.391l-0.1875-0.375c-14.859-28.969-21.141-57.891-18.141-81.656 1.7344-14.016 6.75-26.062 15.516-34.641 12.984-12.703 33.75-19.734 53.062-14.062 12.984 3.7969 25.031 13.547 33.797 30.656zm-320.11-198.47c5.3906 5.4375 5.3906 14.203 0 19.594-5.4375 5.4375-14.203 5.4375-19.594 0l-39.188-39.141c-5.3906-5.4375-5.3906-14.156 0-19.594 5.4375-5.3906 14.156-5.3906 19.594 0zm-108.94 174.32c7.4062 1.9688 11.766 9.5625 9.7969 16.969s-9.6094 11.766-16.969 9.7969l-53.484-14.344c-7.4062-1.9688-11.766-9.5625-9.7969-16.969s9.5625-11.766 16.969-9.7969zm-7.1719 205.45c7.3594-1.9688 15 2.4375 16.969 9.7969 1.9688 7.4062-2.4375 15-9.7969 16.969l-53.484 14.344c-7.3594 1.9688-15-2.3906-16.969-9.7969s2.3906-15 9.7969-16.969zm76.969 240.28c-5.3906 5.3906-14.156 5.3906-19.594 0-5.3906-5.3906-5.3906-14.203 0-19.594l52.219-52.219c5.3906-5.3906 14.203-5.3906 19.594 0 5.3906 5.4375 5.3906 14.203 0 19.594z" fill-rule="evenodd"/>
</svg>
