<?xml version="1.0" encoding="UTF-8"?>
<svg width="1200pt" height="1200pt" version="1.1" viewBox="0 0 1200 1200" xmlns="http://www.w3.org/2000/svg">
 <defs>
  <clipPath id="a">
   <path d="m0.046875 274h1200v652h-1200z"/>
  </clipPath>
 </defs>
 <g clip-path="url(#a)">
  <path d="m115.92 391.92c-58.266 15.141-115.88 70.406-115.88 183.1 0 157.22 106.5 225.52 197.24 254.06 86.953 27.375 450.84 83.25 450.84 83.25l87.609 12.562c6.8438 0.9375 13.172-3.7969 14.156-10.641 0.98438-6.7969-3.7969-13.172-10.594-14.109l-50.578-7.2656 53.531-29.578 81 11.578c6.7969 0.98438 13.172-3.7969 14.156-10.594 0.9375-6.8438-3.7969-13.172-10.641-14.156l-48.188-6.8906 53.531-29.578 78.609 11.203c6.8438 0.98438 13.172-3.75 14.156-10.594 0.98438-6.7969-3.75-13.172-10.594-14.156l-45.844-6.5156 33-18.281 84.281 12.047c6.8438 0.98438 13.219-3.75 14.156-10.594 0.98438-6.7969-3.75-13.172-10.594-14.156l-51.516-7.3594 35.953-19.875 86.766 14.438c6.7969 1.1719 13.219-3.4688 14.344-10.266 1.1719-6.7969-3.4688-13.266-10.266-14.391l-55.594-9.2812 48.75-26.906 65.25 10.875c6.7969 1.125 13.266-3.5156 14.391-10.312s-3.5156-13.219-10.312-14.344l-34.078-5.6719 31.406-17.391 61.078 10.219c6.7969 1.125 13.266-3.5156 14.391-10.312s-3.4688-13.219-10.266-14.344l-74.859-12.469c-13.734-2.7188-264.47-52.875-367.92-76.125-8.7188-1.9688-16.875-3.9375-23.625-5.625 12.188-16.781 26.859-47.531 26.859-98.203 0-57.188-15.422-83.812-37.312-110.72-51.656-63.609-137.72-59.531-137.72-59.531-0.79688 0.046875-1.5938 0.14062-2.3906 0.32812-102.66 25.453-406.92 101.95-456.71 116.58zm927.05 244.36-431.68 245.02c17.438 2.7656 30.234 4.7344 36.422 5.7188l438.05-242.11c-11.25-2.25-25.875-5.2031-42.797-8.625zm-124.45-25.312-491.63 239.81c52.359 9.0938 104.16 17.672 144.84 24.234l433.87-246.28c-26.859-5.4375-56.766-11.531-87.094-17.766zm-848.53-164.63c-26.203 26.016-44.953 67.922-44.953 128.68 0 142.74 97.359 204.28 179.76 230.26 21.75 6.8438 60.984 15.469 107.48 24.516l495.79-241.82c-43.641-9.2344-80.016-17.25-98.344-21.938-3.8438-0.9375-6.9375-1.8281-9.375-2.5312-65.719 28.547-364.31 155.26-431.86 183.84-17.953 9.4688-40.406 15.188-68.484 15.188-54.703 0-98.016-36.188-120.52-88.781-32.484-52.172-59.203-149.39-9.5156-227.39zm162.94 95.016c-10.266-23.203-36.328-41.344-66.375-41.344-50.906 0-79.031 44.016-79.031 87.469 0 80.016 43.922 150 112.5 150 28.781 0 50.531-6.7969 66.703-18.281 7.125-5.0156 13.125-10.875 18.281-17.344-59.859 5.9531-91.875-9.8906-104.11-18.094-8.6719-3.6094-16.219-9.6094-22.453-17.391-13.641-16.969-20.906-42.844-20.906-66.375 0-15 3.6562-28.594 9.4219-37.125 5.7656-8.4375 13.641-12.844 22.547-12.656 6.1875 0.14062 13.219 2.2969 20.484 5.4375zm82.734 158.86c113.81-48.281 329.9-140.06 377.95-161.06 4.8281-4.125 31.406-29.812 31.406-93.891 0-49.734-12.609-71.531-31.688-94.969-40.594-49.969-106.31-50.531-116.02-50.344-78.281 19.5-269.44 62.016-379.4 94.031 79.5 22.078 139.64 99 139.64 206.02 0 31.734-4.9219 69.234-21.891 100.22zm-62.859-247.92c-15.562 3.7969-47.531 12.047-78.938 22.969 49.781 3.75 88.688 45.047 88.688 87.234 0 13.312-4.0312 22.078-9 27.75-6.0938 6.8438-14.109 9.75-21.984 9.75-8.4375 0-18.984-4.2656-29.812-10.125-6.4219-3.4219-13.031-7.3125-19.406-10.359-4.7812-2.2969-9.2344-4.2188-13.312-4.3125-0.46875 0-2.1094 2.8594-2.6719 3.9375-2.625 5.3906-3.8438 12.844-3.8438 20.859 0 15.141 3.6562 31.547 10.969 44.156 6.0469 10.453 14.625 18.328 26.531 18.328 18.984 0 28.641-8.8594 28.641-8.8594 1.125-1.0781 2.4375-1.9688 3.75-2.5312l79.828-37.312c0.1875-4.6875 0.28125-9.3281 0.28125-13.781 0-63.094-23.344-114.7-59.719-147.71z" fill-rule="evenodd"/>
 </g>
</svg>
