<?xml version="1.0" encoding="UTF-8"?>
<svg width="1200pt" height="1200pt" version="1.1" viewBox="0 0 1200 1200" xmlns="http://www.w3.org/2000/svg">
 <path d="m317.11 600h-92.109c-82.734 0-150 67.219-150 150 0 52.125 26.672 98.109 67.125 125.02h-92.109c-6.8906 0-12.516 5.5781-12.516 12.469v125.02c0 6.8906 5.625 12.516 12.516 12.516h75v162.47c0 6.8906 5.625 12.516 12.516 12.516h412.5c6.8906 0 12.469-5.625 12.469-12.516v-162.47h75v162.47c0 6.8906 5.625 12.516 12.516 12.516h412.5c6.8906 0 12.516-5.625 12.516-12.516v-162.47h75c6.8906 0 12.469-5.625 12.469-12.516v-125.02c0-6.8906-5.5781-12.469-12.469-12.469h-92.109c40.406-26.906 67.078-72.891 67.078-125.02 0-82.781-67.219-150-150-150h-92.062c40.406-26.859 67.078-72.844 67.078-125.02 0-82.781-67.219-150-150-150h-399.98c-82.781 0-150 67.219-150 150 0 52.172 26.672 98.156 67.078 125.02zm732.89 425.02h-312.47v150h312.47zm-849.98 150v-150h-50.016v150zm512.48 0v-150h-49.969v150zm50.016-275.02h375v99.984h-375zm-24.984 0v99.984h-675v-99.984zm-79.594-275.02c40.406 26.906 67.078 72.844 67.078 125.02 0 52.125-26.672 98.109-67.078 125.02h317.06c69 0 125.02-56.016 125.02-125.02s-56.016-125.02-125.02-125.02zm-165.79 0h-184.22c40.406 26.906 67.078 72.844 67.078 125.02 0 52.125-26.672 98.109-67.078 125.02h184.22c-40.453-26.906-67.125-72.891-67.125-125.02 0-52.172 26.672-98.109 67.125-125.02zm82.875 0c-69 0-125.02 56.016-125.02 125.02 0 49.406 28.781 92.203 70.453 112.45-21.422-22.641-32.953-54.75-32.953-87.469 0-43.219 29.859-99.984 87.516-99.984 34.5 0 62.484 27.984 62.484 62.484s-27.984 62.531-62.484 62.531c-6.8906 0-12.516-5.625-12.516-12.516s5.625-12.516 12.516-12.516c20.719 0 37.5-16.781 37.5-37.5 0-20.672-16.781-37.5-37.5-37.5-42.328 0-62.484 43.219-62.484 75 0 34.547 15.422 68.719 44.812 84.891 16.453 9.0469 37.172 12.234 61.688 7.125 47.297-17.812 81-63.516 81-117 0-69-56.016-125.02-125.02-125.02zm-305.95 242.02c47.297-17.812 80.953-63.516 80.953-117 0-69-56.016-125.02-125.02-125.02s-124.97 56.016-124.97 125.02c0 49.406 28.734 92.203 70.453 112.45-21.422-22.641-32.953-54.75-32.953-87.469 0-43.219 29.859-99.984 87.469-99.984 34.5 0 62.531 27.984 62.531 62.484s-28.031 62.531-62.531 62.531c-6.8906 0-12.469-5.625-12.469-12.516s5.5781-12.516 12.469-12.516c20.719 0 37.5-16.781 37.5-37.5 0-20.672-16.781-37.5-37.5-37.5-42.328 0-62.484 43.219-62.484 75 0 34.547 15.422 68.719 44.812 84.891 16.5 9.0469 37.172 12.234 61.734 7.125zm530.95-267c69 0 125.02-56.016 125.02-125.02s-56.016-124.97-125.02-124.97h-317.11c40.453 26.859 67.125 72.844 67.125 124.97 0 52.172-26.672 98.156-67.125 125.02zm-345.47-12.516c41.719-20.297 70.453-63.047 70.453-112.5 0-69-55.969-124.97-124.97-124.97s-125.02 55.969-125.02 124.97c0 53.531 33.656 99.234 81 117.05 24.516 5.1094 45.188 1.875 61.688-7.1719 29.391-16.172 44.812-50.297 44.812-84.844 0-31.781-20.156-75-62.484-75-20.719 0-37.5 16.781-37.5 37.5 0 20.672 16.781 37.5 37.5 37.5 6.8906 0 12.469 5.5781 12.469 12.469s-5.5781 12.516-12.469 12.516c-34.5 0-62.531-27.984-62.531-62.484s28.031-62.531 62.531-62.531c57.656 0 87.469 56.766 87.469 100.03 0 32.719-11.484 64.828-32.953 87.469zm135.56-567.37c11.016 14.344 22.406 28.875 22.406 54.891 0 28.031-11.578 43.875-22.828 60.234-13.734 20.109-27.188 40.828-27.188 77.25 0 33.047 13.641 51.938 27.609 70.125 4.2188 5.4844 12.047 6.5156 17.531 2.2969 5.4375-4.2188 6.5156-12.047 2.2969-17.531-11.016-14.344-22.406-28.875-22.406-54.891 0-29.859 11.531-46.641 22.828-63.094 13.781-20.156 27.141-39.938 27.141-74.391 0-33.047-13.594-51.891-27.562-70.125-4.2188-5.4375-12.047-6.5156-17.531-2.2969s-6.5156 12.094-2.2969 17.531zm99.984 0c11.016 14.344 22.406 28.875 22.406 54.891 0 28.031-11.578 43.875-22.781 60.234-13.734 20.109-27.188 40.828-27.188 77.25 0 33.047 13.594 51.938 27.562 70.125 4.2188 5.4844 12.094 6.5156 17.531 2.2969 5.4844-4.2188 6.5156-12.047 2.3438-17.531-11.062-14.344-22.453-28.875-22.453-54.891 0-29.859 11.578-46.641 22.828-63.094 13.781-20.156 27.188-39.938 27.188-74.391 0-33.047-13.594-51.891-27.562-70.125-4.2656-5.4375-12.094-6.5156-17.578-2.2969-5.4375 4.2188-6.5156 12.094-2.2969 17.531zm-200.02 0c11.062 14.344 22.453 28.875 22.453 54.891 0 28.031-11.625 43.875-22.828 60.234-13.734 20.109-27.188 40.828-27.188 77.25 0 33.047 13.594 51.938 27.562 70.125 4.2188 5.4844 12.094 6.5156 17.578 2.2969 5.4375-4.2188 6.4688-12.047 2.2969-17.531-11.016-14.344-22.453-28.875-22.453-54.891 0-29.859 11.578-46.641 22.828-63.094 13.781-20.156 27.188-39.938 27.188-74.391 0-33.047-13.594-51.891-27.562-70.125-4.2188-5.4375-12.094-6.5156-17.578-2.2969-5.4375 4.2188-6.4688 12.094-2.2969 17.531z" fill-rule="evenodd"/>
</svg>
