<?xml version="1.0" encoding="UTF-8"?>
<svg width="1200pt" height="1200pt" version="1.1" viewBox="0 0 1200 1200" xmlns="http://www.w3.org/2000/svg">
 <path d="m559.79 621.28c0-4.9688-4.0312-9-9-9s-9 4.0312-9 9c0 2.3555-8.543 9.1758-24.844 9.1758s-24.844-6.8203-24.844-9.1758c0-4.9688-4.0312-9-9-9s-9 4.0312-9 9c0 15.492 18.422 27.176 42.844 27.176s42.844-11.684 42.844-27.176z"/>
 <path d="m641.67 768.71c-4.6172 4.3125-18.551 8.6758-36.246 8.6758-20.461 0-34.137-5.625-36.938-9.4258-2.9414-4.0039-8.5781-4.8594-12.574-1.9102-4.0078 2.9492-4.8633 8.582-1.9102 12.586 9.0938 12.352 32.52 16.754 51.422 16.754 21.012 0 39.598-5.1836 48.527-13.527 3.6328-3.3906 3.832-9.0859 0.43359-12.723-3.3984-3.625-9.0938-3.8203-12.715-0.42969z"/>
 <path d="m747.61 621.28c0-4.9688-4.0312-9-9-9s-9 4.0312-9 9c0 2.3555-8.543 9.1758-24.844 9.1758s-24.844-6.8203-24.844-9.1758c0-4.9688-4.0312-9-9-9s-9 4.0312-9 9c0 15.492 18.422 27.176 42.844 27.176s42.844-11.684 42.844-27.176z"/>
 <path d="m190.41 431.39c2.8945 0 5.7305-1.3906 7.4648-3.9609l13.789-20.406 63.871 72.57 16.828 141.89c5.8594 36.398 30.035 69.012 30.891 70.141l107.64 153.89c10.102 15.094 23.086 19.945 34.922 19.945 8.707 0 16.66-2.6523 22.52-5.75 6.3906 4.6406 12.941 8.8555 19.621 12.707v108.93c-2.0977 6.2344-20.965 51.238-129.86 47.078-4.4766-0.25391-9.1289 3.6914-9.3164 8.6602s3.6914 9.1445 8.6602 9.3281c4.8984 0.17969 9.6445 0.26953 14.227 0.26953 119.65 0 133.55-59.609 134.1-62.242 0.12891-0.60547 0.1875-1.2188 0.1875-1.8398v-100.83c25.688 11.691 52.902 17.824 80.508 17.824 0.58594 0 1.1719 0 1.7578-0.007812 27.738-0.25781 55.059-6.7734 80.742-18.844v101.86c0 0.62109 0.058594 1.2344 0.1875 1.8398 0.55078 2.6367 14.426 62.25 134.1 62.242 4.582 0 9.3398-0.085938 14.227-0.26953 4.9688-0.17969 8.8477-4.3594 8.6602-9.3281-0.17578-4.9688-4.8047-8.9141-9.3164-8.6602-109.52 4.1016-127.9-41.172-129.86-47.047v-110.23c5.3555-3.1836 10.621-6.6016 15.781-10.297 5.4141 2.582 12.555 4.7109 20.383 4.7109 11.766 0 24.844-4.7734 34.957-19.891l107.58-153.81c1.0195-1.3711 25.195-33.984 31.113-70.754l16.781-141.52 62.18-70.664 6.3164 9.668c1.7227 2.6406 4.6055 4.0781 7.5469 4.0781 1.6875 0 3.3867-0.47656 4.9102-1.4648 4.1602-2.7188 5.332-8.2969 2.6133-12.457l-111.82-171.14c-2.7188-4.1602-8.2734-5.3359-12.457-2.6133-4.1602 2.7188-5.332 8.2969-2.6133 12.457l8.3828 12.828c-12.496 8.2969-35.656 24.406-59.398 44.375-56.461-94.871-137.46-141.09-141.05-143.1-18.023-9.6445-36.059-10.859-53.66-3.6133-29.828 12.289-52.254 47.254-66.516 76.559-97.027 16.348-149.88 61.316-151.49 62.766-12.422 8.9805-22.637 19.422-30.734 30.961-30.805-30.355-67.816-56.324-85.043-67.777l8.7031-12.879c2.7891-4.1172 1.6992-9.7148-2.4141-12.496-4.125-2.7773-9.7148-1.6875-12.492 2.4219l-121.55 179.86c-2.7891 4.1172-1.6992 9.7148 2.4141 12.496 1.5469 1.043 3.293 1.543 5.0273 1.543zm417.64 450.2c-37.965 0.35156-74.887-11.973-107.75-35.453 6.5508-15.938-2.0742-35.789-8.9219-45.508l-95.766-169.15 1.9102-96.715 35.391 42.539c21.035 28.809 48.926 23.602 50.109 23.359l1.9688-0.63281c11.062-5.0273 18.281-12.328 21.434-21.703 4.7109-13.98-1.7812-26.668-2.0859-27.117l-16.234-40.871c57.684-38.348 109.97-64.082 155.57-76.637 31.301 18.109 60.531 38.898 84.805 57.812l-23.305 58.75c-0.75 1.3984-7.2422 14.086-2.5312 28.066 3.1523 9.375 10.371 16.676 21.445 21.707l1.9688 0.62891c1.1602 0.25391 29.074 5.4102 49.758-22.918l35.73-42.98 1.9102 96.715-95.637 168.93c-0.74609 1.2344-15.555 26.332-7.1328 46.918-31.34 22.02-66.652 33.926-102.64 34.262zm-64.598-490.06c25.945 6.0391 52.469 16.793 78.133 30.059-42.254 14.051-89.309 38.125-140.25 71.695l-16.422-41.344c34.121-30.773 68.34-53.766 78.543-60.41zm442.05 1.7578-69.184 78.621-17.379 146.72c-5.1445 31.941-27.48 62.156-27.867 62.691l-107.85 154.2c-12.035 17.984-28.594 11.359-33.727 8.668-9.5508-11.484 3.5977-34.254 3.8438-34.68l98.203-173.45-2.9648-149.93-66.961 80.555c-12.422 17.004-27.492 16.781-31.195 16.434-5.6602-2.7852-9.2461-6.2891-10.688-10.422-2.3438-6.7422 1.2773-13.891 1.7227-14.84l63.891-160.93c15.477-46.543 96.02-103.45 123.12-121.55zm-547.85-81.926c0.48438-0.42578 47.109-39.965 131.4-56.969-5.6797 13.801-8.8008 23.773-9.1836 25.023-1.4648 4.7539 1.207 9.7852 5.9648 11.238 4.8047 1.5078 9.7852-1.2188 11.238-5.9648 0.28125-0.91016 28.441-91.219 74.273-110.1 12.516-5.1719 25.055-4.2617 38.145 2.7461 0.80859 0.45703 81.539 46.57 135.49 138.5 0.16797 0.28516 0.47266 0.39453 0.66406 0.65234-9.2266 8.3477-18.184 17.109-26.266 26.129-8.9609-16.773-17.582-28.93-17.98-29.488-2.8828-4.0391-8.4844-4.9844-12.562-2.0898-4.043 2.8945-4.9688 8.5156-2.0859 12.555 0.10547 0.14062 10.184 14.316 19.5 32.73 0.22656 0.44922 0.67969 0.64844 0.96484 1.043-8.4375 11.168-15.141 22.445-18.777 33.387l-3.5664 8.9883c-48.316-60.301-101.58-102.8-103.92-104.66-3.8906-3.0938-9.5508-2.4141-12.645 1.4648-3.082 3.8945-2.4258 9.5547 1.4648 12.645 0.58594 0.46094 58.906 46.977 107.44 109.86l-21.871 55.133c-71.32-54.973-135.43-88.805-191.01-100.85-0.46094-0.13672-0.91797-0.19531-1.3945-0.25781-5.8711-1.2383-11.75-2.4844-17.43-3.2305-5.0156-0.70312-9.457 2.8281-10.09 7.7539-0.46094 3.457 1.1797 6.6367 3.8633 8.4961-15.039 10.445-37.82 27.215-61.449 48.035l-17.035-42.891c-0.91797-2.7617-2.2305-5.5625-3.5039-8.3594 2.1836-0.85156 4.2383-1.5625 6-1.9609 4.8398-1.1094 7.875-5.9297 6.7734-10.773-1.1016-4.8594-5.9062-7.8594-10.781-6.7773-3.2031 0.73047-6.8398 2.0469-10.672 3.668-5.6211-8.6094-12.535-17.188-20.148-25.598 7.1992-11.059 16.77-21.059 29.188-30.082zm-13.77 86.047 64.16 161.39c0.035157 0.070313 3.5625 7.1016 1.3242 13.781-1.418 4.1914-5.0273 7.7344-10.734 10.543-3.7734 0.36719-18.75 0.59766-31.535-16.887l-66.621-80.113-2.9648 149.93 98.66 174.18c0.16406 0.23828 16.441 24.258 4.4062 33.391-2.1445 1.2891-21.305 11.977-34.852-8.2578l-107.91-154.29c-0.22266-0.29688-22.559-30.516-27.645-62.086l-17.438-147.09-70.664-80.305 78.535-116.21c27.117 18.129 107.66 75.082 123.27 122.02z"/>
</svg>
