<?xml version="1.0" encoding="UTF-8"?>
<svg width="1200pt" height="1200pt" version="1.1" viewBox="0 0 1200 1200" xmlns="http://www.w3.org/2000/svg">
 <path d="m906.24 269.76c-196.69-86.297-336.24-36.469-395.86 32.156-11.391 12.938-20.625 27.375-27.375 42.609-0.46875 1.0781-0.84375 2.2969-1.3125 3.375-18.703-1.7812-38.062-3-58.688-3-214.78 0-322.55 101.53-349.69 188.39-5.2969 16.453-7.9219 33.234-7.9219 50.062 0 4.0781 0.23438 8.0625 0.70312 12.141-14.062 18.469-23.531 45.141-9.8438 76.078 3.375 7.6875 8.5312 15.469 15.141 23.297-3.8438 9.1406-6 18.609-6 28.219 0 4.4531 0.46875 8.7656 1.3125 13.078-0.84375 8.0625-1.3125 15.938-1.3125 24 0 129 143.63 215.76 357.47 215.76 140.06 0 249.94-37.219 309.24-99 50.156 15.141 97.312 22.781 139.78 22.781 93.469 0 164.39-36.141 195-106.22 3.8438-8.8594 7.2188-18.141 9.9375-27.469 1.3125-2.2969 2.5312-4.6875 3.6094-7.0781 3.7031-8.5312 5.625-17.531 5.8594-27.141 9.7031-4.5469 18-9.8438 24.469-15.844 25.078-23.062 27-51.469 21.375-74.062 1.9219-3.375 3.9375-6.7031 5.625-10.312 6.7031-15.375 11.062-31.781 12.844-48.938 10.219-90.469-47.766-226.78-244.55-313.08zm-809.86 270.84c24.609-79.219 124.92-171.61 326.76-171.61 12.703 0 24.938 0.375 36.844 1.0781-11.859 12-20.625 28.781-20.625 51.609 0 8.3906 1.5469 17.531 4.5469 27.375-7.2188 6.8438-12.938 14.625-16.781 23.531-1.7812 4.0781-3.1406 8.2969-4.0781 12.609-3.9375 6.9375-7.6875 14.062-10.781 21.375-26.531 60.609-14.859 126.47 33.703 190.45 7.3125 9.6094 15.469 19.078 24.234 28.312-15.703 0.70312-31.453 1.0781-47.062 1.0781-161.29 0-333.61-37.547-333.61-142.92 0-14.297 2.2969-28.547 6.8438-42.844zm-20.766 88.547c35.297 75.844 161.76 121.22 347.53 121.22 24.609 0 48-0.84375 70.453-2.3906 9.9375 9 20.625 17.625 32.062 26.156-8.5312 1.0781-17.062 2.0625-25.688 2.8594-11.625 1.0781-20.859 5.625-29.766 10.078-12.609 6.2344-24.469 12.141-45.469 9.7031h-1.3125c-9.8438 0-20.156-4.3125-31.078-8.8594-10.547-4.4531-21.469-8.8594-32.859-9.8438-8.8594-0.70312-17.625-2.1562-26.062-3.6094-11.391-1.9219-22.453-3.7031-33.375-3.7031-7.9219 0-15.938 0.9375-24 3.6094-45 14.531-89.625-9.2344-114.23-34.078-15.938-16.078-30.703-26.625-42.609-35.156-20.062-14.297-34.453-29.625-40.312-43.219-5.3906-12.375-5.3906-23.297-2.7656-32.766zm347.39 322.78c-184.45 0-316.55-69.609-331.92-171.61 52.219 55.781 179.16 94.453 331.31 94.453 84 0 160.22-11.766 220.55-31.688 3.375 1.5469 6.6094 3 9.9375 4.5469 17.766 7.7812 35.297 14.531 52.453 20.531-57 51.938-157.78 83.766-282.37 83.766zm239.53-126.32c-85.781-37.547-156-88.453-197.63-143.29-27-35.531-53.625-88.547-37.547-146.86 9 25.312 27.375 52.922 54.938 81.141 50.156 51.375 124.92 100.45 210.71 138 85.781 37.547 172.45 59.391 244.22 61.453 3.6094 0 7.2188 0.14062 10.688 0.14062 35.766 0 65.531-5.3906 88.312-15.609-54.469 88.219-204 99.375-373.69 24.938zm432.24-127.22c-11.625 10.688-32.531 19.312-58.781 24.234-8.625 1.6875-17.625 6.1406-27.234 10.781-11.391 5.625-24.234 12-34.453 12-11.297 0-23.062-5.1562-36.469-11.156-12.469-5.5312-26.531-11.625-42.609-14.531-29.766-5.2969-60.703-13.219-92.062-23.625-7.4531-2.5312-14.531-3.1406-21.234-3.1406-3.375 0-6.7031 0.14062-10.078 0.23438-14.062 0.60938-27.234 1.2188-45.609-9.375-0.375-0.23438-0.70313-0.46875-1.2188-0.60938-9-3.9375-16.688-12-24.938-20.531-7.9219-8.2969-16.078-16.781-26.156-22.219-7.9219-4.2188-15.375-9-22.453-13.781-16.688-10.922-32.391-21.141-52.547-23.297-47.062-4.7812-78.375-44.531-90.938-77.062-8.1562-21.141-17.391-36.703-24.938-49.312-12.609-21.141-19.547-40.922-19.547-55.781 0-13.453 4.4531-23.531 10.547-31.078 1.9219 83.625 99.469 175.92 269.63 250.45 92.156 40.453 176.39 62.625 243.61 64.312h8.0625c50.297 0 89.062-12.469 115.31-36.141-1.3125 9.7031-5.7656 19.922-15.703 29.156zm32.297-118.17c-1.5469 14.766-5.1562 28.781-10.922 41.859-18 41.062-61.078 61.078-128.39 59.297-64.078-1.5469-145.22-23.156-234.47-62.391-147.71-64.781-290.39-168.24-248.16-264.71 5.7656-13.078 13.547-25.312 23.391-36.469 33.375-38.391 94.688-69.938 179.76-69.938 53.766 0 116.86 12.609 188.39 43.922 184.78 81 239.53 205.92 230.29 288.47z"/>
</svg>
