<?xml version="1.0" encoding="UTF-8"?>
<svg width="1200pt" height="1200pt" version="1.1" viewBox="0 0 1200 1200" xmlns="http://www.w3.org/2000/svg">
 <path d="m1030.6 730.59c-8.8242 0-17.648-7.0586-17.648-17.648s7.0586-17.648 17.648-17.648c81.176-1.7656 127.06-30 146.47-45.883-3.5312-1.7656-7.0586-1.7656-10.59-1.7656 0 0-37.059 1.7656-81.176-81.176-1.7656-3.5312-125.29-262.94-402.35-194.12-5.293 1.7656-121.77 21.176-199.41 123.53-8.8242-79.41-45.883-215.29-201.18-257.65-56.473-22.941-213.53-82.941-234.71-93.527-5.2969-3.5312-10.59-1.7656-15.883 0-5.2969 3.5273-8.8242 8.8242-8.8242 14.117 0 7.0586-5.293 146.47 104.12 213.53-7.0586 40.59-12.352 158.82 135.88 217.06-17.648 30-44.117 90-24.707 158.82-12.352 14.117-35.293 44.117-47.648 77.648-12.352 33.531-49.41 49.41-77.648 44.117-8.8242-1.7656-15.883 3.5312-19.41 10.59-3.5312 7.0586 0 17.648 7.0586 21.176 5.293 3.5312 109.41 63.531 211.77 19.41 61.766-26.469 109.41-84.707 137.65-174.71 7.0586 15.883 17.648 33.531 28.234 44.117-21.176 51.176 7.0586 79.41 17.648 105.88 10.59 26.469 44.117 37.059 68.824 17.648 17.648-14.117 31.766-31.766 44.117-52.941 21.176 24.707 60 56.469 107.65 56.469 0 60-14.117 116.47-14.117 116.47-1.7656 7.0586 0 14.117 5.293 17.648 3.5312 3.5312 7.0586 3.5312 12.352 3.5312 1.7656 0 5.293 0 7.0586-1.7656 95.293-44.117 169.41-141.18 187.06-167.65 165.88-35.293 238.23-148.23 262.94-195.88-30 21.176-77.648 38.824-146.47 40.59zm-79.414-81.18c-68.824 0-68.824-90 0-90s68.824 90 0 90z"/>
 <path d="m531.18 307.06c-5.293 14.117-22.941 54.707-31.766 95.293 1.7656 7.0586 5.293 12.352 7.0586 19.41 97.059-84.707 257.65-123.53 391.77-74.117-61.766-61.766-172.94-137.65-333.53-137.65-17.648 0-37.059 0-54.707 3.5312-7.0586 0-12.352 5.293-14.117 10.59-1.7656 7.0586-1.7656 14.117 3.5312 17.648 15.883 17.645 35.297 47.645 31.766 65.293z"/>
</svg>
