<?xml version="1.0" encoding="UTF-8"?>
<svg width="1200pt" height="1200pt" version="1.1" viewBox="0 0 1200 1200" xmlns="http://www.w3.org/2000/svg">
 <path d="m131.25 1031.2h18.75v56.25c0 4.9727 1.9766 9.7422 5.4922 13.258 3.5156 3.5156 8.2852 5.4922 13.258 5.4922h75c4.9727 0 9.7422-1.9766 13.258-5.4922 3.5156-3.5156 5.4922-8.2852 5.4922-13.258v-56.25h675v56.25c0 4.9727 1.9766 9.7422 5.4922 13.258 3.5156 3.5156 8.2852 5.4922 13.258 5.4922h75c4.9727 0 9.7422-1.9766 13.258-5.4922 3.5156-3.5156 5.4922-8.2852 5.4922-13.258v-56.25h18.75c4.9727 0 9.7422-1.9766 13.258-5.4922 3.5156-3.5156 5.4922-8.2852 5.4922-13.258v-75c0-4.9727-1.9766-9.7422-5.4922-13.258-3.5156-3.5156-8.2852-5.4922-13.258-5.4922h-669c-6.4258-13.613-14.762-26.238-24.75-37.5 63.562 55.125 146.62 48.938 206.25-18.75-19.355-23.211-44.812-40.551-73.5-50.062 4.1562-5.9609 7.8555-12.23 11.062-18.75 28.723 39.207 66.379 71.004 109.85 92.754 43.465 21.75 91.488 32.824 140.09 32.309 165.38 0 300-126.19 300-281.25-1.3281-60.703-22.074-119.39-59.191-167.44-37.121-48.051-88.66-82.945-147.06-99.562v-183c0-33.492-17.867-64.441-46.875-81.191-29.008-16.746-64.742-16.746-93.75 0-29.008 16.75-46.875 47.699-46.875 81.191v183c-58.398 16.617-109.94 51.512-147.06 99.562-37.117 48.051-57.863 106.73-59.191 167.44 0.089844 16.367 1.7227 32.688 4.875 48.75-23.98 3.2227-46.957 11.672-67.312 24.75-9.5117-28.688-26.852-54.145-50.062-73.5-23.211 19.355-40.551 44.812-50.062 73.5-32.934-20.637-71.742-29.863-110.44-26.25-4.4609 0.34375-8.6523 2.2734-11.812 5.4375-3.1641 3.1602-5.0938 7.3516-5.4375 11.812-3.6406 38.699 5.5859 77.516 26.25 110.44-28.688 9.5117-54.145 26.852-73.5 50.062 59.062 67.875 142.12 75 206.25 18.75-9.8555 11.285-18.062 23.91-24.375 37.5h-181.88c-4.9727 0-9.7422 1.9766-13.258 5.4922-3.5156 3.5156-5.4922 8.2852-5.4922 13.258v75c0.070312 4.9648 2.0117 9.7188 5.4375 13.312 3.5391 3.5078 8.3281 5.4648 13.312 5.4375zm719.06-625.31c20.504 29.059 33.922 62.516 39.188 97.688 2.8164 20.402 2.8164 41.098 0 61.5l-37.5-5.25c2.4375-16.914 2.4375-34.086 0-51-7.2617-43.41-28.223-83.355-59.812-114 19.715 1.5938 39.203 5.3047 58.125 11.062zm-137.81-162.19h112.5v37.5h-112.5zm0 75h112.5v42.562c-37.195-6.75-75.305-6.75-112.5 0zm-64.5 184.88c5.2656-35.172 18.684-68.629 39.188-97.688 18.801-5.7305 38.16-9.4414 57.75-11.062-31.59 30.645-52.551 70.59-59.812 114-2.4375 16.914-2.4375 34.086 0 51l-37.5 5.25c-2.6914-20.422-2.5625-41.113 0.375-61.5zm-235.5 250.31c19.766-17.508 44.586-28.273 70.875-30.75 3.0273 8.9297 6.5352 17.695 10.5 26.25-4.3711 21.012-14.348 40.449-28.875 56.25-33.527 1.7773-65.371 15.246-90 38.062 22.625-24.625 35.895-56.41 37.5-89.812zm-75 89.812c-24.562-22.492-56.18-35.746-89.438-37.5-20.758-23.352-32.23-53.504-32.25-84.75 31.074 0.20703 61.008 11.742 84.188 32.438 1.6055 33.402 14.875 65.188 37.5 89.812zm-187.5 112.5h900v37.5h-900z"/>
</svg>
