<?xml version="1.0" encoding="UTF-8"?>
<svg width="1200pt" height="1200pt" version="1.1" viewBox="0 0 1200 1200" xmlns="http://www.w3.org/2000/svg">
 <path d="m115.92 730.03c-20.398-2.2227-40.18-7.9961-60.469-10.688-3.543 65.625 6.2344 131 5.2031 196.6 38.297 0.57031 76.754 6.168 115.11 8.4375l-0.23438-0.22656c-2.1094-2.7461-4.5078-5.4297-6.3359-8.3438-4.6328-7.0859-7.7148-13.547-11.887-19.949-3.6641-5.9453-8.0625-12.188-11.773-17.887-7.6602-11.43-14.117-22.004-20.062-30.18-2.9727-4.1719-5.2578-8.1641-7.9414-11.371-2.6797-3.207-4.8008-6.0547-6.5625-8.4375-3.543-4.6328-5.2578-7.4258-4.7422-7.8828 0.51562-0.46094 3.1406 1.4805 7.5 5.3711 2.1758 1.9414 4.8008 4.3398 7.7734 7.2578h-0.003906c3.2617 3.4258 6.3555 7.0117 9.2617 10.742 7.0312 8.1172 14.062 18.289 22.059 29.492 4.0039 5.625 8.1172 11.082 12.461 17.812 4.1172 6.0547 7.8828 13.539 11.945 19.688 1.6602 2.6797 3.6562 4.7422 5.3711 7.1445l0.34766 0.46094 0.054688 0.054687 0.85156 0.74219 1.875 1.5469c1.0938 1.0195 2.2812 1.9375 3.543 2.7383l2.8125 1.9414c22.387 0.96484 44.809-0.50781 66.871-4.3984-42.664-63.617-76.844-147.63-143.02-190.67zm57.957 127.27c-2.1758 1.4922-20.625-20.914-41.043-50.062-21.77-28.34-37.715-52.633-35.625-54.234 2.0898-1.6016 21.488 20.008 43.258 48.348 20.66 29.383 35.633 54.469 33.41 55.949z"/>
 <path d="m622.23 497.18-0.53516-0.16797h0.003906c-4.2617-0.75-8.5625-1.2539-12.883-1.5078-1.9414-0.16016-3.6562-0.28125-4.9766-0.46094-2.5586-0.32812-5.0625-0.77734-8.1289-1.3867-3.5078 0-6.8242 0-9.4492-0.22656-2.9492-0.26172-5.8789-0.73828-8.7578-1.4258l-9.5352-2.25 7.5 6.3203c4.4805 3.7695 9.4492 6.9219 14.766 9.375 6.0742 2.25 12.141 4.2617 18.195 6.0391h0.003907c7.0938 1.4531 14.273 2.4609 21.496 3.0156l2.7266 0.24219-0.1875-2.7383v0.003906c-0.09375-3.1953-1.1094-6.2969-2.9258-8.9297-1.8164-2.6289-4.3555-4.6797-7.3125-5.9023z"/>
 <path d="m688.48 555.68c-3.5352-0.46875-7.0703-1.0859-10.586-1.7148l-10.848-1.875h0.003906c-12.879-1.8906-25.586-4.7969-38.008-8.6914-2.5781-0.9375-5.1094-1.875-7.5859-2.8672l-20.934-8.6172 18.75 12.723c11.348 7.6211 23.5 13.973 36.234 18.938l6.2734 2.457c13.961 5.4648 28.398 11.117 42.02 17.812l2.1641 1.0586 1.0039-2.1953c4.3594-9.6289 5.1484-16.414 2.3984-20.785v0.003907c-2.418-3.3398-6.3984-5.1797-10.508-4.8672z"/>
 <path d="m895.31 414.51c-4.2852-7.3789-5.8867-15.262-10.406-22.754-14.398-24.055-32.914 8.9141-40.117 18.863-7.0312 9.0391-16.805 15.555-27.852 18.57-13.211 3.8711-25.77 9.6875-37.266 17.258-1.875 1.4336-3.543 3.75-5.8867 3.8359-1.5117-9.1484-1.6836-18.469-0.51562-27.664 1.1797-7.0352 1.2188-14.211 0.12109-21.254-1.1719-14.035-8.9648-26.668-20.98-34.012-14.625-7.0781-27.027 1.6602-34.633 13.781-3.5977 8.7266-5.0078 18.199-4.1133 27.598 0.58594 10.074 2.625 20.008 6.0547 29.496 0.46094 0.85156 0.9375 1.6484 1.3203 2.5117 0.61719 0.94922 1.2852 1.8594 2 2.7383 1.168 1.4883 2.5117 2.832 4 4 2.875 2.2617 6.0742 4.0703 9.4883 5.375 2.4258 1.1289 5.1328 1.5078 7.7734 1.0859 1.7109-0.47656 3.0664-1.7891 3.5977-3.4883 0.22656-0.85156 0.46094-1.6016 0.68359-2.2891 0.22656-0.68359 0.22656-1.4805 0.28125-2.0547 0.23438-1.0859 0.51562-1.7148 0.80469-1.7148 0.28906 0 0.74219 0.51562 1.1445 1.5469 0.16797 0.57031 0.39453 1.1992 0.62891 1.9961 0.054688 0.9375 0.11328 1.9414 0.16797 3.1953l0.003906 0.003906c-0.16016 1.4414-0.58594 2.8359-1.2578 4.1172-0.87891 1.6602-2.2891 2.9805-4.0039 3.75-3.7852 1.4414-7.9414 1.6055-11.828 0.46094-4.3125-1.1289-8.4062-2.9609-12.113-5.4297-2.2031-1.4219-4.1836-3.1562-5.8867-5.1484-0.85547-0.875-1.6367-1.8164-2.3438-2.8125-0.79688-1.2578-1.5469-2.5117-2.3438-3.75-4.4844-10.293-7.1133-21.301-7.7734-32.512-0.16797-1.4336-0.22656-2.9141-0.28125-4.4062-0.22656 0.046875-0.46094 0.066406-0.69531 0.058594-1.2109 0.57812-2.5391 0.87109-3.8789 0.85937-32.465-0.34766-60.523 25.145-89.211 40.117 2.2305 1.4336 4.4531 2.9141 6.6289 4.3516h-0.003906c35.355 2.1367 69.773 12.215 100.7 29.484-2.9727-3.75-6.2266-7.8828-9.7109-12.055-7.9414-7.8828-14.344-15.836-20.289-21.027-5.4844-5.4375-8.4375-9.3203-7.6602-10.406 0.77734-1.0859 5.3164 0.9375 11.887 5.0898v-0.003906c17.473 11.082 31.363 26.98 40.004 45.777 0.17188 0.375 0.32422 0.75781 0.45703 1.1445 2.8125 1.707 5.625 3.4766 8.2891 5.3164 1.4258 0.9375 2.8125 1.875 4.2852 2.8125-1.7383-5.8516-2.2812-11.992-1.5938-18.055 1.1992-6.2891 3.0859-9.8359 4.3398-9.7109 1.2578 0.12109 1.875 4.2266 2.457 10.227 1.1367 7.25 3.2695 14.309 6.3477 20.969 1.5 2.7812 3.1602 5.4727 4.9688 8.0625 11.074 7.8477 21.184 16.973 30.121 27.188 12.73 16.465 26.473 32.121 41.145 46.875 13.828-8.1172 26.57-17.148 27.602-34.688 0.046875-2.0312 0.86719-3.9727 2.2891-5.4258-2.9062-2.1719-5.1289-5.1289-6.4062-8.5234-1.3242-3.4258-1.5625-7.1758-0.68359-10.742 0.82422-3.0625 2.7344-5.7148 5.3711-7.4727 1.5977-1.1758 3.5781-1.707 5.5508-1.4922 1.1992 0.17969 1.9414 0.51563 2.1641 1.1445 0.22656 0.62891-0.11328 1.4336-0.9375 2.3438h0.003906c-0.91406 0.875-1.668 1.8984-2.2344 3.0273-0.69531 1.2734-1.125 2.6719-1.2539 4.1172 0.007813 1.8984 0.35547 3.7773 1.0312 5.5508 1.1328 2.9414 3.0234 5.5273 5.4844 7.5 0.5625-0.11719 1.1406-0.17188 1.7148-0.16797h9.1875c8.9141-2.8125 5.5391-11.719 2.9727-19.086-2.625-7.6602-6.0547-15.094-8.2891-22.922v-0.003906c-1.1133-3.2695 0.10547-6.8789 2.9727-8.8008 0.17969-0.33594 0.38672-0.64844 0.62891-0.9375 21.375-24.977 7.4336-45 15.602-71.102zm-140.95-19.492c-2.9727 1.875-7.8945 0.054687-11.09-0.28906-4.1719-0.44922-13.773-2.1094-13.773 4.0039-0.054688 4.5742 6.4609 5.3711 8.8594 8.2305 1.5547 1.8633 2.7188 4.0195 3.4219 6.3438 0.63672 2.2891 0.80469 3.9922 1.0859 5.3711l0.003907 0.003907c0.074218 0.67969 0.22656 1.3516 0.45703 1.9961l0.34766 1.0859s0.22656 0.57031 0.28125 0.74219c0.57031 1.3672 1.1992 2.457 1.7148 3.4297 0.21875 0.30859 0.46875 0.59375 0.74219 0.85547l0.11328-0.11328c2.0625-3.0039 3.7188-6.2695 4.9219-9.7148 1.0859-2.5703 1.875-4.1719 2.5117-4.0039s1.1445 1.6602 1.1992 4.7422v0.003906c0 1.8398-0.17578 3.6758-0.51562 5.4844-0.375 2.6406-1.25 5.1836-2.5703 7.5-0.53516 0.88672-1.2344 1.6602-2.0625 2.2891-0.50391 0.4375-1.0859 0.78516-1.7148 1.0195-0.76953 0.28906-1.5781 0.46484-2.3984 0.51562-2.5664-0.26562-4.9023-1.5938-6.4492-3.6562-1.1797-1.4141-2.2188-2.9453-3.0938-4.5664-0.22656-0.57031-0.28125-0.46094-0.74219-1.5469l-0.46094-1.1445v0.003906c-1.293-4.0508-3.2617-7.8555-5.8203-11.25-2.7344-3.1719-4.6055-6.9883-5.4375-11.094-2.625-10.969 2.1172-15.883 12.461-16.742 0.64844-0.035156 1.3008-0.015625 1.9492 0.054687 4.5078 0.62891 8.0547 5.3164 12.281 5.1484 1.0312-0.054688 0.80469-4.9141 0.62891-5.4844-0.33594-1.293-0.94141-2.5-1.7734-3.543-1.4805-1.875-2.8125-2.7461-2.625-3.4297 0.1875-0.68359 1.9961-0.9375 4.9141 0.57031 3.0273 1.6055 5.1172 4.5508 5.6367 7.9375 0.51953 3.3906-0.59375 6.8242-3.0039 9.2656z"/>
 <path d="m250.57 747.41c-36-5.832-71.832-12.637-107.73-18.863 58.809 48.18 92.016 126.98 133.73 187.74 0.23438 0.39453 0.40234 0.79688 0.62891 1.1992 21.562 10.68 50.062 6.2266 74.41 2.8125-11.711-15.254-20.973-34.52-30.461-47.438-29.375-39.844-66.293-74.191-70.586-125.45z"/>
 <path d="m757.78 350.95c25.781 12.57 36.562 44.578 32.465 72.289 17.945-7.0234 37.781-16.875 45.891-30.402 5.2031-8.6797 11.316-19.367 21.723-22.574 5.6406-1.7461 11.523-2.5938 17.43-2.5117-2.2891-1.3711-4.3672-3.0625-6.1719-5.0273-1-1.0508-1.918-2.1797-2.7461-3.375-0.75-1.0625-1.4375-2.168-2.0508-3.3164-4.5195-8.7383-4.6875-14.57-3.6641-15 1.3789-0.62891 4.0586 4.6875 9.375 11.25h-0.003906c0.64453 0.85156 1.3516 1.6562 2.1211 2.3984 0.75 0.85547 1.5898 1.6211 2.5117 2.2891 1.8906 1.6172 4.0117 2.9453 6.2891 3.9453l0.50781 0.28125 0.054688 0.054687 1.1445 0.46094 2.2891 0.9375c1.4336 0.68359 2.9141 1.3672 4.4062 2.0547 2.9141 1.3672 5.8867 2.7461 8.9141 4.2266 0.5625 0.19141 1.1172 0.42188 1.6484 0.68359-0.75-7.1133-2.6484-14.059-5.625-20.566-2.8125-6.8047-4.2266-11.25-3.1953-11.832s4.2852 2.625 8.6797 8.8594c2.6719 3.793 4.8984 7.8828 6.6289 12.188 2.375 5.2383 3.332 11.008 2.7773 16.734l-0.46094 2.6914h-3.75c-1.1992 0-2.5117 1.3125-3.75 1.1445l-2.457-0.054688c-1.0312-0.34766-1.9492-0.57031-2.8594-0.86328 6.1133 8.6914 7.4258 19.266 13.773 27.945 7.0859-1.4805 14.176-2.8125 15.375-10.574 8.8047-56.398-54.637-96.695-98.129-113.38-29.383-11.316-66.301-29.664-98.438-26.062-13.484 1.7148-26.832 4.3672-39.945 7.9414-17.605 4.6328-23.09 11.832-29.551 28.867-7.5 19.996-21.375 36.055-29.832 55.547v-0.003907c-10.727 25.551-17.676 52.523-20.625 80.074 28.125-15 54.242-37.547 86.645-38.98 8.0352-25.539 34.379-52.051 62.605-38.336zm35.27 6.7422c0.44922-0.33594 1.5938 0.11328 3.0859 1.1445l-0.003907-0.003906c1.9102 1.4297 4.0273 2.5508 6.2812 3.3203 2.4023 0.87891 5.0859-0.14453 6.293-2.3984 2.0352-3.5625 3.0469-7.6211 2.9141-11.719l0.16797-11.148 7.9492 7.8828c2.1094 2.1172 3.75 4.3516 5.0234 5.7188h0.003906c0.40234 0.49219 0.91406 0.88281 1.4922 1.1445-0.12109 0.054687-0.17969 0.11328 0.054688 0.16797l1.0781-0.28125 0.51562-0.16797h0.12109c1.4766-1.0156 2.6875-2.3672 3.5352-3.9453 2.2227-3.8867 4.0078-8.0078 5.3164-12.293 2.5234-7.6602 2.9727-12.348 4.2383-12.684 1.2656-0.33594 3.4766 5.3711 2.457 14.062h-0.003907c-0.52734 5.2695-1.9609 10.41-4.2266 15.199-1.5547 3.6172-4.3008 6.5938-7.7812 8.4375l-2.7383 0.86328v-0.003906c-1.5117 0.24609-3.0547 0.26562-4.5742 0.058593-1.918-0.51953-3.6953-1.457-5.2031-2.7461-0.86328 2.457-2.1602 4.7422-3.8242 6.75-2.0625 2.332-4.8672 3.8867-7.9414 4.3945-2.6094 0.32812-5.25-0.23828-7.5-1.6016-2.6836-1.6211-4.8477-3.9805-6.2266-6.7969-0.85156-1.8672-1.0195-3.0117-0.50391-3.3555zm-48.523-36.805-0.003906-0.003906c3.3906 0.32812 6.7461-0.88672 9.1406-3.3086 3.1484-2.8125 6.5625-7.2578 10.52-11.664l3.375-3.75 3.75 3.6016 2.1172 2.0547h0.003907c1.8086 1.8242 3.8203 3.4336 6 4.7969 0.39062 0.125 0.77344 0.28125 1.1406 0.46094 0.39453 0.17969 0.33594 0 0.57031 0.17969v0.054688c0.054687 0 0.11328 0 0.16797-0.12109h0.003906c0.96484-1.5352 1.5508-3.2773 1.7148-5.082 0.35938-2.0391 0.58594-4.1016 0.68359-6.168 0.40234-7.8359 0.34766-13.125 1.7148-13.32 1.1992-0.22656 3.75 4.4062 5.082 12.977v-0.003906c0.39453 2.3789 0.56641 4.7891 0.51563 7.1992 0.10156 3.3516-0.75 6.6602-2.4531 9.543-1.4844 2.293-3.918 3.8047-6.6289 4.1172-1.2617 0.070313-2.5234-0.046875-3.75-0.34766-1.0078-0.28906-2-0.62891-2.9727-1.0195-2.6172-1.4141-5.0352-3.1641-7.1992-5.2031-2.7266 3.082-5.7266 5.9062-8.9727 8.4375-2.418 1.8008-5.2109 3.0352-8.1758 3.5977-2.5664 0.37109-5.1875 0.15625-7.6602-0.62891-3.1172-0.95703-6.0117-2.5312-8.5117-4.6289-1.7148-1.4805-2.4648-2.5703-2.1758-3.1406 0.60156-1.2578 5.375 0.68359 12 1.3672zm-65.492 0.34766c-0.9375 0.68359-1.9414 1.3125-2.9141 2.1094l-0.003906-0.003906c-6.4844 4.7188-12.258 10.34-17.148 16.695-1.7734 2.293-2.9141 5.0117-3.3086 7.8867-0.023437 2.1484 0.97266 4.1797 2.6797 5.4844l2.3984 2.3438-1.3125 2.0547 0.003907-0.003906c-2.8398 4.4414-6.3711 8.3984-10.465 11.719-2.7383 2.2891-4.4531 3.375-5.0234 2.9141-0.57031-0.46094 0.28125-2.3438 2.1172-5.4297 1.4258-2.5117 3.8828-5.832 5.9453-9.7773v0.003906c-0.82031-0.65625-1.5156-1.4492-2.0625-2.3438-0.75391-0.91797-1.3008-1.9922-1.6055-3.1406-0.46484-1.125-0.71484-2.3281-0.73828-3.543-0.042968-4.6367 1.3125-9.1797 3.8906-13.031 3.3164-5.0273 7.2734-9.6016 11.766-13.613-0.25391-0.058594-0.5-0.13281-0.74219-0.22656-0.60156-0.30859-1.1758-0.67188-1.7148-1.0859-2.7695-2.1367-4.2539-5.543-3.9375-9.0273 0.14844-2.5273 0.80859-4.9961 1.9414-7.2578 3.3398-6.3164 7.7266-12.023 12.973-16.875 8.5117-8.0547 14.176-12 15-11.25 1.1445 0.86328-3.1953 6.8047-10.059 15.664v0.003906c-3.9531 4.8867-7.293 10.238-9.9453 15.938-0.89062 1.6211-1.0742 3.543-0.50781 5.3047 0.066406-0.007812 0.12891 0.015625 0.16797 0.066406 0.24609 0.050782 0.49219 0.089844 0.74219 0.11328 0.81641 0.054687 1.6367 0.054687 2.457 0 1.875-0.054688 4.0039-0.40234 6.6836-0.46094l15.836-0.34766z"/>
 <path d="m482.32 471.49c0.16797 0.44922 0.28906 0.85156 0.46094 1.3125h-0.003906c2.2695 2.0586 3.1602 5.2344 2.2891 8.1758-5.8867 22.742-10.742 44.57 0.11328 66.695v-0.003906c0.53906 1.1289 0.85547 2.3516 0.9375 3.6016 0.81641 1.3789 1.2344 2.9609 1.207 4.5664-0.46094 19.688-19.098 74.352 10.801 77.898 11.945-20.055 8.2891-44.914 17.812-66.348 0-30.938 91.668 18.289 99.836 20.805 23.898 7.3672 65.727 30.684 89.559 16.969 0.22656-0.85156 0.51562-1.7148 0.68359-2.5703v-0.003906c0.039062-0.3125 0.10156-0.62891 0.17969-0.9375-47.898-26.344-99.508-34.801-134.65-80.867-17.898-24.703-34.254-50.488-48.977-77.203-3.1484-5.3711-6.2344-11.316-9.6016-17.203-1.1836-1.1328-2.0156-2.5781-2.3984-4.1719-4.3281-7.7773-9.8281-14.844-16.305-20.953-9.9375-8.625-20.512-16.227-29.719-25.602-22.742-1.4258-97.152-10.742-113.95 5.3164 28.285 15.43 50.578 40.52 79.895 53.605 19.52 8.625 42.121 16.367 51.836 36.918z"/>
 <path d="m644.06 523.12c-4.8906-0.089844-9.7695-0.46484-14.617-1.1172-6.6953-1.2852-13.895-3.0664-22.668-5.625l-3.4961-1.0117c-3.9102-1.1914-7.8203-2.5039-11.672-3.8516l-12.496-4.332 10.18 8.4375c5.0352 4.1172 10.426 7.7734 16.117 10.922 25.477 9.5469 51.863 16.457 78.75 20.625l1.0508 0.12109c3.4961 0.42188 7.5 0.9375 11.605 1.5742l2.5586 0.41406 0.14844-2.5859c0.32422-4.0898-1.0742-8.1289-3.8516-11.148-9.3477-10.445-33.797-11.559-51.609-12.422z"/>
 <path d="m222.68 630.88c-50.352-17.148-111.39-30.289-156.37-61.332h0.003906c-6.543 42.98-7.293 86.645-2.2344 129.82 61.668 7.6016 122.48 20.117 183.75 30.289-1.4336-1.1992-2.7461-2.3984-3.9453-3.375-3.543-3.1406-6.2812-5.4297-5.7109-6.6836 0.57031-1.0859 3.8828-1.3125 9.1953 0.85156l0.003906 0.003907c6.2227 2.8164 12.109 6.3242 17.551 10.461 4.8398 3.6992 10.188 6.6836 15.879 8.8594 4.3516 1.4258 7.6016 1.7734 7.8945 3.1953 0.28125 1.1445-2.8125 3.375-8.8047 3.543v0.003907c-3.4453 0.015624-6.8633-0.64453-10.059-1.9414-0.82031-0.33594-1.6211-0.71875-2.3984-1.1445 2.457 46.18 35.625 78.008 62.523 112.7 15.938 20.465 36.234 78.816 68.691 69.676-1.0234-3.375-1.9961-6.6953-2.9609-9.9453-5.3164-14.914-10.52-28.238-15.32-39.43-9.3203-22.406-14.578-36.562-13.125-37.266s9.2539 12.188 20.512 33.891l-0.003907-0.003906c6.7109 12.715 12.684 25.805 17.891 39.207 2.582 7.6016 5.25 15.582 8.0078 23.945h-0.003906c1.0312 2.7344 3.0352 4.9922 5.625 6.3477 2.5664 0.92969 5.4258 0.49609 7.6055-1.1445 0.70313-0.46094 1.3711-0.98047 1.9961-1.5469l1.5469-1.5391 1.9414-2.7461c0.22656-0.65234 0.51562-1.2773 0.85937-1.875 1.1094-3.3711 1.4297-6.9492 0.9375-10.461-1.2461-7.8008-3.4922-15.406-6.6836-22.633-1.4258-3.75-2.9141-7.4258-4.2266-11.203-1.1445-3.6562-2.2891-7.1992-3.375-10.621-2.1641-6.75-4.1719-13.125-6-18.863-7.4258-22.922-13.492-36.637-11.887-37.5 1.1992-0.68359 9.9453 11.945 19.547 34.633 2.3438 5.625 4.9141 11.887 7.4336 18.57 1.2578 3.3203 2.5117 6.75 3.8828 10.312 1.3125 3.3086 2.8125 6.8516 4.5195 10.566h-0.003906c3.8594 8.0586 6.5703 16.621 8.0547 25.434 0.45703 3.4961 0.39844 7.0391-0.16797 10.52 0.054688 0.28125 0.11328 0.51562 0.16797 0.74219v-0.003907c0.30469 0.89063 0.6875 1.75 1.1445 2.5703 1.2539 3.2695 4.5156 5.3164 8.0039 5.0352 0.77344-0.17578 1.5078-0.49609 2.168-0.9375 0.83594-0.59766 1.5898-1.3047 2.2305-2.1094 0.51562-0.75 1.1445-1.7734 1.6602-2.6914 0.4375-1.0508 0.78125-2.1406 1.0195-3.2539 0.44531-2.7383 0.5625-5.5195 0.34766-8.2852-0.16797-2.9727-0.51562-7.0859-0.57031-10.117-0.98047-12.043-4.2773-23.785-9.7148-34.574-4.9219-10.406-10.059-19.895-13.602-28.352-2.9688-6.668-5.1172-13.672-6.4023-20.859-0.68359-5.0898-0.46094-7.9414 0.28906-8.1172 0.75-0.17969 2.0547 2.3984 4.0508 6.9766 2.0078 4.3984 5.0898 10.742 9.4297 18.402 4.3398 7.6602 10.059 16.52 15.777 27.188 5.1445 9.4062 8.7734 19.57 10.746 30.109 0.11328 0.28906 0.16797 0.51562 0.28125 0.86328 0.51562 1.875 1.0312 4.3984 1.4922 6.2812 0.74219 3.375 1.6016 6.918 2.457 10.117h-0.003906c0.1875 0.89453 0.53906 1.75 1.0312 2.5195 1.875 2.8125 11.773-7.5 12.57-9.0391l0.003907 0.003906c1.2578-2.8828 1.8945-5.9961 1.875-9.1406 0.027343-2.3555 0.33984-4.6992 0.9375-6.9766-1.875-32.812-64.809-174.48-80.699-191.74-51.012-55.453-122.68-53.559-189.27-76.188zm128.36 202.55c-0.9375 2.5117-4.5078 3.0859-7.8281 1.0859-1.2734-0.66016-2.1953-1.8477-2.5156-3.2461-0.32031-1.3984-0.007812-2.8672 0.85156-4.0156 0.85938-1.1484 2.1836-1.8594 3.6133-1.9492 1.4336-0.085938 2.832 0.46094 3.8242 1.4961 2.207 1.4141 3.0742 4.2148 2.0547 6.6289zm31.949-17.598c-1.6016 2.0547-5.4297 2.1094-8.7461-0.9375-4.1055-4.2266-2.8125-7.6016-0.79688-9.0273 2.2305-1.5469 5.9453 0.9375 7.4336 2.1094 2.3984 2.1172 3.7109 5.7656 2.1094 7.8945zm40.922-34.293c0.25-1.4727 1.2305-2.7148 2.6055-3.3047 1.3711-0.58984 2.9492-0.44141 4.1914 0.39062 1.3906 0.51563 2.4375 1.6875 2.793 3.1289 0.35547 1.4414-0.027344 2.9648-1.0234 4.0703-1.5703 1.6094-3.9297 2.1719-6.0547 1.4336-0.74219-0.42188-3.3086-3.168-2.5117-5.6797zm-9.4883 17.203c-1.0859 2.3984-6.2266 2.0547-11.43-0.86328-4.6328-3.0859-7.1992-7.4258-5.7188-9.6562 1.4805-2.2305 6.3477-1.5391 10.977 1.5469 4.457 2.4102 7.2031 6.4961 6.1719 8.9727z"/>
 <path d="m1043.8 612.24c-45.094-27.945-94.574-48.094-146.36-59.605-1.293-0.23438-2.5117-0.78516-3.543-1.6016-1.7344 1.0117-3.5742 1.832-5.4844 2.457-1.4414 0.9375-3.1367 1.418-4.8555 1.375h-7.3125c-2.0078 10.527-7.293 20.148-15.094 27.488 75.215-1.3125 141.91 61.949 199.46 103.22 1.5391 1.1992 3.0859 2.3984 4.5078 3.4766 1.3125 0.91797 2.5625 1.8359 3.75 2.7461 2.1172 1.875 4.6328 3.0859 6.0664 4.2266 1.4336 1.1445 2.1641 2.0625 1.9414 2.6914-0.22656 0.62891-1.3125 0.9375-3.1406 0.85156v0.003906c-2.5977 0.03125-5.1719-0.49609-7.5469-1.5469-1.6016-0.5625-3.375-1.3125-5.2578-2.1094-1.6602-0.9375-3.4297-1.9414-5.3164-2.9727v0.003906c-3.9336-2.3594-7.7266-4.9336-11.371-7.7188-7.3125-5.625-13.434-10.969-18-15-24.75-17.148-54.863-27.094-80.352-43.211-32.812-20.746-67.5-33.207-106.53-25.312l-0.003906 0.003906c-1.168 0.22266-2.3711 0.22266-3.543 0 2.457 6.1328 4.1641 12.543 5.082 19.086 0.51562 7.2578 0.11328 11.887-1.1992 12.188s-3.2539-4.0039-5.4844-10.914v0.003906c-3.0469-8.4258-6.793-16.578-11.203-24.375-0.34766-0.49609-0.66016-1.0117-0.9375-1.5469-29.539-26.008-48.863-59.773-82.574-82.125-38.129-25.258-79.555-44.859-125.96-46.293l-0.003906-0.003907c-2.0664 0-4.0547-0.80078-5.5508-2.2305-6.9102-4.5664-14.062-9.2539-21.43-13.773v0.003906c-0.82031-0.17187-1.6094-0.46094-2.3438-0.85547-0.73438-0.46094-1.3906-1.043-1.9414-1.7148-14.727-9.1875-30.957-15.703-47.945-19.258 8.9141 15.43 17.598 31.145 27.027 46.285 9.0859 2.1758 18.055 5.0352 27.094 7.5h0.003906c12.637 0.12891 25.184 2.1875 37.199 6.1133 1.582 0.3125 3.1484 0.71484 4.6875 1.1992 12.188 4.0586 16.633 12.008 13.031 22.18v0.003907c12.227 0.45312 24.41 1.75 36.457 3.8789 18.516 3.8906 29.664 12.918 27.609 31.602v0.003906c7.0039 1.4336 13.469 4.7773 18.688 9.6641 14.398 15.195 5.9453 25.367-7.7148 30.57 0.28906 0.16797 0.57031 0.34766 0.9375 0.51562h-0.003906c3.0195 1.5781 4.6445 4.9492 3.9961 8.2891 0.16797 0.63281 0.24609 1.2852 0.23438 1.9414-0.16797 4.0312-0.91797 8.0156-2.2305 11.832-0.39844 1.2148-1.0352 2.3438-1.875 3.3086-0.64063 1.4922-1.668 2.7852-2.9727 3.75-20.398 14.859-43.211 8.3438-64.867-0.9375-16.238-6.918-34.004-8.9727-49.836-16.688-12.348-6.0547-23.945-13.828-36.918-18.75-3.207-1.2109-31.715-11.25-33.75-6.75-10.688 23.371-4.7422 49.781-21.086 71.492-1.3086 1.793-3.2539 3.0195-5.4375 3.4336-1.207 0.58594-2.543 0.85937-3.8828 0.79687-52.18-1.0781-31.266-62.914-30.461-95.211l-0.17969-0.33594 0.003907-0.003907c-5.2227 6.4609-11.254 12.223-17.941 17.145-5.625 4.1172-9.6016 6.0547-10.453 5.082-0.85156-0.97656 1.4258-4.7422 5.7656-10.004 4.3398-5.2578 10.742-12.188 16.633-20.109 0.68359-0.86328 1.1992-1.7734 1.875-2.6328h-0.003906c-5.6016-21.312-4.9844-43.781 1.7734-64.754-11.082-23.258-41.719-25.258-60.805-38.914-12.684-9.0859-24.684-18.863-37.199-27.945-23.953 15.883-53.492 21.027-76.246 38.973l-0.003906-0.003906c-1.2344 1-2.7148 1.6445-4.2852 1.875-1.0039 0.64453-2.1328 1.0742-3.3086 1.2656-70.93 12.188-174.49 28.688-214.78 96.562 25.547 19.258 56.98 28.922 87.789 38.633 1.7148-1.3125 3.4883-2.5703 5.3164-3.8242 2.5703-1.6016 5.3164-3.4297 7.8828-4.8672v0.003906c5.0039-2.6562 9.7031-5.8555 14.004-9.543 1.8086-1.6875 3.4688-3.5234 4.9688-5.4844 0.86328-1.0859 1.7734-2.8125 2.6914-4.1719l2.3984-3.9453c1.9961-3.1406 3.9922-6.3359 6-9.543l0.003907-0.003906c1.9375-3.2852 4.1562-6.4023 6.625-9.3086 3.0273-3.75 6.0547-7.4336 9.0859-11.035 3.1406-3.375 6.4023-6.5625 9.6016-9.7695 3.1953-3.207 6.2891-6.2344 9.375-8.9141 3.0859-2.6797 6.1133-5.4922 9.0859-8.1172 11.438-10.461 22.293-20.398 32.184-27.777l-0.003907-0.003906c7.8945-6.1367 16.605-11.141 25.887-14.859 6.5625-1.9961 10.461-2.2227 11.035-1.0781 0.57031 1.1445-2.3984 3.8828-7.8359 7.8828-4.8008 4.1719-11.945 9.9453-20.164 18.348-8.2227 8.3984-17.551 18.684-28.867 30.348-2.8125 2.8125-5.7188 5.625-8.6328 8.625-2.9141 3-6 5.8867-8.7383 8.9141-2.7383 3.0273-5.7188 6.1133-8.6328 9.207l-8.1094 9.9922-0.003907 0.003906c-2.1992 2.5664-4.1719 5.3203-5.8906 8.2305-1.875 2.7461-3.6016 5.4922-5.3711 8.2305-1.0859 1.6016-2.1172 3.207-3.1484 4.7422-1.0312 1.5391-1.7148 2.8125-2.9141 4.3398l-0.003906 0.003906c-2.5508 3.3047-5.4609 6.3164-8.6797 8.9805-5.4336 4.3086-11.387 7.918-17.719 10.742-0.28125 0.16797-0.51562 0.28125-0.74219 0.39453 3.1406 1.0312 6.2812 2.1172 9.3086 3.2617h0.003906c40.176 13.711 81.156 24.949 122.71 33.656 10.66 2.4844 21.172 5.5586 31.492 9.207 8.6445-3.6172 17.043-7.8008 25.145-12.516 16.254-9.25 31.586-20.043 45.777-32.23l7.3125-6.3477c2.0625-2.0625 3.8359-3.8359 5.3711-5.2578 3.0273-2.8125 4.9766-4.1172 5.4922-3.75 0.51562 0.36719-0.46094 2.5703-2.5781 6.1133-1.0859 1.7734-2.457 3.8906-4.1172 6.2891-1.875 2.2891-4.1172 4.8555-6.6289 7.6602h0.003906c-13.406 14.223-28.926 26.297-46.012 35.793-5.6797 3.3672-11.582 6.3477-17.664 8.9141 13.523 5.5352 26.41 12.508 38.438 20.805 15.77-5.8867 42.008-22.574 56.691-7.3789 15.602 16.238 1.1445 39.555-13.602 51.273 3.9883 6.0859 7.5039 12.477 10.508 19.105 9.9453 21.562 70.012 131.56 61.379 174.2 34.52-0.28906 68.98-1.2578 103.5-1.3789v0.003906c0.65234 0 1.3047 0.058594 1.9492 0.17578 22.105-24.008 42.992-49.109 62.578-75.215 0.4375-3.1562 2.9023-5.6484 6.0547-6.1133 68.297-13.828 132.65-40.574 197.97-64.07v0.003906c0.070312-0.085937 0.125-0.18359 0.16797-0.28125-4.4531-1.2578-9.0859-2.6328-13.773-4.1719-35.09-11.035-64.238-19.434-63.496-22.238 0.62891-2.3438 30.402 1.7734 66.301 13.031 4.2852 1.3789 8.4375 2.6914 12.516 4.0039-0.17578-0.15625-0.36719-0.28906-0.57031-0.40625-11.473-8.1562-21.844-17.762-30.863-28.574-6.7422-8.2305-10.227-13.828-9.2617-14.746s6.2891 3.0938 14.176 10.059c8.0078 6.75 18.637 16.352 31.434 25.312 11.082 7.418 22.852 13.75 35.148 18.918 4.8555 1.8281 8.8047 3.4219 11.484 4.7422 34.922 8.2305 70.012 18 105.16 17.203 35.383-0.80469 107.5-14.008 105.68-62.926-1.9062-50.105-62.844-84.801-100.95-107.38zm-650.02-86.406c-15.012 13.199-31.723 24.328-49.688 33.094-9.9844 4.7461-20.328 8.6992-30.938 11.82-8.7383 2.4414-17.699 4.0117-26.746 4.6875-15.664 1.0859-24.805-1.3672-24.75-2.457 0-1.5391 9.6562-1.5391 23.887-4.2852 8.4766-1.5898 16.84-3.75 25.031-6.457 9.9961-3.4297 19.785-7.4375 29.316-12 40.809-19.688 68.352-45.207 70.312-42.977 0.81641 0.86328-5.0156 8.3633-16.426 18.574zm169.69 232.89c-1.2578 0.28125-3.4883-2.6328-5.625-8.1172-2.5117-7.3906-3.8789-15.121-4.0586-22.922-0.28125-17.945 2.3984-31.773 4.9766-31.875 2.8125 0 4.3984 14.457 4.6875 31.492 0.39453 8.4375 0.74219 16.004 0.9375 21.562 0.48828 5.6875 0.48828 9.5156-0.91797 9.8594z"/>
 <path d="m424.73 700.71 1.5273 1.875 1.8203-1.5859c3.75-3.2734 16.875-19.332 13.48-26.852-0.86328-1.9297-3.0547-4.0781-8.5234-3.4219v0.003906c-8.6641 1.5352-17.062 4.3125-24.938 8.2422l-3.3555 1.4727 2.7461 2.4297v-0.003906c6.207 5.4844 11.973 11.449 17.242 17.84z"/>
</svg>
