<?xml version="1.0" encoding="UTF-8"?>
<svg width="1200pt" height="1200pt" version="1.1" viewBox="0 0 1200 1200" xmlns="http://www.w3.org/2000/svg">
 <path d="m621.28 137.06c-95.812-55.078-230.81-48.047-344.02 17.953-101.95 59.391-162.47 153.1-161.9 250.55 0.09375 13.734 11.25 24.844 24.984 24.844h0.14062c13.781-0.09375 24.938-11.344 24.844-25.172-0.46875-79.359 50.766-156.79 137.06-207.05 98.016-57.141 213.32-64.078 293.9-17.812 79.969 45.938 122.21 140.16 122.21 272.53 0 101.2-40.641 137.39-87.656 179.21-52.969 47.109-112.97 100.5-117.05 244.08-3.2344 114.38-73.641 170.11-137.72 173.53-81.188 4.3594-173.29-67.688-196.36-238.31-1.8281-13.688-14.484-23.344-28.125-21.422-13.688 1.8281-23.297 14.438-21.422 28.125 26.531 196.03 137.48 281.81 239.02 281.81 3.1875 0 6.375-0.09375 9.5625-0.23438 86.203-4.5938 180.89-76.031 185.02-222.05 3.4688-122.02 50.484-163.87 100.27-208.18 51.328-45.656 104.44-92.906 104.44-216.56 0-191.11-80.109-277.26-147.28-315.89z"/>
 <path d="m203.76 659.86c5.7188 10.406 17.719 15.188 28.688 12.094 19.078 55.406 56.484 114.98 122.68 174.79 20.297 18.328 41.719 27.609 62.062 27.609 16.453 0 32.203-6.0938 46.031-18.328 45.844-40.547 60.141-149.39 11.438-218.72-20.766-29.578-79.688-86.156-206.76-36.891-8.2969-71.203 15.094-129.05 31.969-160.08 54.047-99.562 151.6-153.1 205.74-138.71 13.359 3.5156 27.047-4.4531 30.562-17.766 3.5156-13.359-4.4062-27.047-17.766-30.562-83.766-22.125-201.56 51.047-262.45 163.22-21.281 39.234-51.609 114.66-36.141 206.11-2.0156 1.0781-4.0781 2.1562-6.1406 3.2812-12.094 6.6094-16.594 21.844-9.9375 33.938zm230.06 6.1875c34.453 49.078 22.078 129.79-3.6562 152.53-4.7812 4.2188-15.984 14.109-41.484-8.9062-60.984-55.172-94.078-109.64-110.02-159.71 72.234-30.094 126.52-24.703 155.16 16.078z"/>
 <path d="m494.29 583.87c-11.812 7.125-15.609 22.453-8.4844 34.312 4.6875 7.7812 12.938 12.094 21.422 12.094 4.4062 0 8.8594-1.1719 12.891-3.6094 120.28-72.422 114.14-221.44 109.41-265.4-1.4531-13.734-14.062-23.719-27.516-22.172-13.734 1.4531-23.672 13.781-22.172 27.516 3.9375 36.516 9.375 160.03-85.547 217.22z"/>
 <path d="m1033.3 387.32c7.5469 83.438-17.953 164.76-71.766 228.98-8.8594 10.594-7.4531 26.344 3.1406 35.203 4.6875 3.9375 10.359 5.8125 16.031 5.8125 7.1719 0 14.203-3.0469 19.172-8.9531 62.391-74.484 91.969-168.79 83.203-265.6-8.7188-96.562-54.562-184.13-129.14-246.56-10.594-8.8594-26.391-7.5-35.203 3.1406-8.8594 10.594-7.4531 26.344 3.1406 35.203 64.359 53.906 103.92 129.47 111.42 212.76z"/>
 <path d="m942.1 395.58c5.8594 65.156-14.016 128.68-56.016 178.78-8.8594 10.594-7.5 26.344 3.0938 35.203 4.6875 3.9375 10.406 5.8594 16.031 5.8594 7.1719 0 14.203-3.0469 19.172-8.9062 50.625-60.375 74.578-136.92 67.547-215.44-7.0781-78.562-44.391-149.53-105-199.87-10.594-8.8125-26.391-7.3125-35.203 3.2812-8.8125 10.641-7.3594 26.391 3.2812 35.203 50.297 41.766 81.234 100.69 87.141 165.89z"/>
 <path d="m900.66 399.28c-5.4375-60.328-33.938-114.84-80.297-153.52-10.594-8.8594-26.344-7.4531-35.203 3.1875-8.8594 10.594-7.4062 26.391 3.1875 35.203 36.094 30.141 58.312 72.609 62.531 119.62 4.2656 46.969-10.078 92.625-40.312 128.63-8.8594 10.594-7.5 26.344 3.0938 35.203 4.6875 3.9375 10.406 5.8594 16.078 5.8594 7.125 0 14.203-3.0469 19.172-8.9062 38.859-46.266 57.281-104.95 51.844-165.28z"/>
</svg>
