<?xml version="1.0" encoding="UTF-8"?>
<svg width="1200pt" height="1200pt" version="1.1" viewBox="0 0 1200 1200" xmlns="http://www.w3.org/2000/svg">
 <path d="m1063.1 897.37h-17.859c12.234-12.844 19.781-30.234 19.781-49.312 0-39.703-32.156-71.859-71.766-71.859l-72.703-0.046875c2.7656-2.1562 5.5312-4.5469 8.0625-7.2188 20.859-21.609 25.688-51.844 26.766-67.922 0.375-5.2969-1.6875-10.453-5.5312-14.156-3.7031-3.7031-9-5.5312-14.297-5.0625-11.062 1.2188-28.688 4.4531-45.469 13.312-5.8594-18.234-16.547-33-23.391-41.156-6.9375-8.1562-20.766-8.1562-27.609 0s-17.531 22.922-23.531 41.297c-16.688-9-34.453-12.234-45.469-13.453-5.2969-0.46875-10.453 1.3125-14.297 5.0625s-5.7656 8.9062-5.5312 14.203c1.0781 16.078 6 46.312 26.859 67.922 2.5312 2.625 5.1562 5.0625 8.0625 7.2188h-72.844c-1.9219 0-3.8438 0.14062-5.625 0.23438-36.938 2.8594-66.141 33.844-66.141 71.625 0 19.078 7.5469 36.469 19.781 49.312h-17.859c-42.469 0-76.922 34.547-76.922 76.922v1.3125c0 18.469 6.6094 35.531 17.625 48.703 14.062 17.156 35.391 28.078 59.297 28.078h420.61c42.469 0 76.922-34.453 76.922-76.781v-1.3125c0-42.375-34.453-76.922-76.922-76.922zm-350.76-98.766h280.92c27.234 0 49.312 22.078 49.312 49.453 0 27.234-22.078 49.312-49.312 49.312h-280.92c-27.234 0-49.312-22.078-49.312-49.312 0-27.375 22.078-49.453 49.312-49.453zm405.24 177c0 30-24.375 54.375-54.469 54.375l-420.61-0.046875c-30.094 0-54.469-24.328-54.469-54.328v-1.3125c0-30 24.375-54.469 54.469-54.469h31.688c0.23438 0 0.46875 0.14062 0.60938 0.14062 0.09375-0.046875 0.23438-0.1875 0.375-0.1875h387.98c30.141 0 54.469 24.469 54.469 54.469z"/>
 <path d="m548.06 1032c-1.7812-1.2188-3.9375-1.9219-6.375-1.9219h-242.9c-18.141 0-33.844-13.547-36.609-32.062l-5.0625-25.688c6-5.625 10.922-12.609 13.922-20.531 20.391 9 44.859 5.0625 61.453-11.531 16.594-16.5 20.438-40.875 11.438-61.266 20.766-8.0625 35.297-28.078 35.297-51.469s-14.531-43.547-35.297-51.469c9-20.391 5.1562-44.859-11.391-61.453-16.547-16.547-41.062-20.391-61.453-11.391-7.9219-20.766-28.078-35.297-51.469-35.297-7.7812 0-15.234 1.6875-22.078 4.6875l-20.625-104.3c59.297 28.453 195.84 36.938 277.08 36.938 81.141 0 217.69-8.5312 276.94-36.938l-36 181.08c-1.2188 6 2.7656 12 8.8594 13.219 0.70312 0.14062 1.4531 0.14062 2.1562 0.14062 5.2969 0 9.9375-3.6094 11.062-9l41.859-210.94v-0.23438c0.23438-1.0781 0.46875-2.0625 0.60938-3.1406l0.14062-0.70312v-0.46875c0.14062-0.60938 0.23438-1.0781 0.23438-1.6875 0-0.70312-0.23438-1.3125-0.23438-2.0625v-0.375c-5.625-50.625-188.06-65.391-294.47-66.375v-22.453c11.156-1.2188 21.609-5.1562 30.375-12 31.688-24.609 34.547-69.609 34.547-70.922 11.062-101.62-80.625-203.63-84.469-207.94l-3-3.2344c-2.8594-3.2344-7.4531-4.4531-11.625-3.1406-4.2188 1.3125-7.2188 4.9219-7.6875 9.2344l-0.46875 3.2344c-0.14062 1.3125-0.14062 2.625 0.23438 3.9375 0 0.23438 0.9375 4.3125 1.9219 11.391 6.6094 46.453-4.2188 95.156-30.234 137.29-23.766 38.531-23.766 75.938 0 105.38 12.703 15.703 29.625 25.078 48 26.859v22.312c-106.36 0.98438-288.66 15.75-294.42 66.281-0.14062 0.23438-0.14062 0.46875-0.14062 0.70312 0 0.60938-0.23438 1.2188-0.23438 1.7812 0 0.46875 0.23438 0.9375 0.23438 1.5469 0 0.23438-0.14062 0.375 0 0.60938l0.14062 0.9375c0.23438 0.9375 0.375 1.9219 0.60938 2.7656l28.688 144.94c-3.9375 4.6875-7.2188 9.9375-9.4688 15.844-20.391-9-44.766-5.1562-61.312 11.391s-20.531 41.062-11.531 61.453c-20.766 7.9688-35.297 28.172-35.297 51.562s14.531 43.406 35.297 51.469c-9 20.391-5.0625 44.766 11.531 61.312 16.547 16.547 40.922 20.531 61.312 11.531 8.0625 20.766 28.078 35.297 51.469 35.297 6 0 11.625-0.9375 17.062-2.625l3.4688 17.391c4.4531 28.781 29.625 50.625 58.688 50.625h242.86c6.2344 0 11.297-5.0625 11.297-11.297-0.046875-3.8438-1.9219-7.1719-4.9219-9.2344zm-135.84-627.61c-22.312-27.469-11.391-58.312 1.5469-79.312 24.703-39.938 36.938-85.453 35.297-130.08 25.547 35.156 65.625 101.77 58.688 165.47 0 0.375-2.5312 36.844-25.922 55.219-4.9219 3.7031-10.547 6.1406-16.688 7.2188v-65.438c0-6.1406-5.0625-11.156-11.156-11.156-6.2344 0-11.297 5.0625-11.297 11.156v65.156c-11.531-1.7812-22.219-7.9219-30.469-18.234zm-138.52 423.14c0 29.766-24.234 54.141-54.141 54.141-29.766 0-54.141-24.375-54.141-54.141 0-29.859 24.375-54.141 54.141-54.141 29.906 0 54.141 24.234 54.141 54.141z"/>
</svg>
