<?xml version="1.0" encoding="UTF-8"?>
<svg width="1200pt" height="1200pt" version="1.1" viewBox="0 0 1200 1200" xmlns="http://www.w3.org/2000/svg">
 <path d="m312.52 788.16c-143.63 5.9062-230.72 50.719-230.72 50.719-4.1719 2.1562-6.7969 6.4219-6.7969 11.109v337.5c0 6.8906 5.625 12.516 12.516 12.516h1025c6.8906 0 12.469-5.625 12.469-12.516v-337.5c0-4.3594-2.25-8.3906-5.9531-10.641s-8.3438-2.4375-12.234-0.46875c0 0-82.734 42.141-219.28 47.953v88.172c0 20.719-16.828 37.5-37.5 37.5-20.719 0-37.5-16.781-37.5-37.5v-88.781c-129.1-7.7812-206.81-47.344-206.81-47.344s-82.031-42.234-218.21-50.109v73.734c0 20.719-16.781 37.5-37.5 37.5s-37.5-16.781-37.5-37.5zm549.98-101.91v288.74c0 6.8906-5.5781 12.516-12.469 12.516s-12.516-5.625-12.516-12.516v-288.74c-28.5-5.8125-50.016-31.031-50.016-61.266 0-34.5 28.031-62.484 62.531-62.484s62.484 27.984 62.484 62.484c0 30.234-21.469 55.453-50.016 61.266zm-525 176.26v-288.74c-28.5-5.8125-49.969-31.031-49.969-61.266 0-34.5 27.984-62.484 62.484-62.484s62.484 27.984 62.484 62.484c0 30.234-21.469 55.453-49.969 61.266v288.74c0 6.8906-5.625 12.516-12.516 12.516s-12.516-5.625-12.516-12.516zm204.28-414.74c7.6406 19.5 24.797 34.266 45.75 38.484v288.74c0 6.8906 5.5781 12.516 12.469 12.516 6.9375 0 12.516-5.625 12.516-12.516v-288.74c24.75-5.0156 44.203-24.703 48.891-49.547 1.0312-0.23438 1.9688-0.42188 3-0.70312 4.0312-1.0781 7.8281-2.7188 11.344-4.8281l149.48-84.703c63.094-38.578 97.266-99.984 107.77-121.45h179.53c6.8906 0 12.469-5.625 12.469-12.516v-199.97c0-6.9375-5.5781-12.516-12.469-12.516h-225c-0.75 0-1.4531 0.046875-2.1562 0.1875-99.703 17.25-286.69 37.406-286.69 37.406-0.51563 0.046875-1.0312 0.14062-1.5469 0.23438-16.875 3.9844-40.406 16.078-64.969 31.359-54.656 34.078-115.08 83.625-115.08 83.625-2.1562 1.7812-3.6562 4.2188-4.2656 6.9375 0 0-12.797 56.016-12.797 215.26 0 4.2656 2.2031 8.25 5.8125 10.594 0 0 50.062 31.641 97.641 50.344 13.266 5.25 26.391 9.4219 38.297 11.812zm308.26 139.74c20.672 0 37.5 16.828 37.5 37.5 0 20.719-16.828 37.5-37.5 37.5-20.719 0-37.5-16.781-37.5-37.5 0-20.672 16.781-37.5 37.5-37.5zm-500.02-112.5c20.719 0 37.5 16.828 37.5 37.5 0 20.719-16.781 37.5-37.5 37.5s-37.5-16.781-37.5-37.5c0-20.672 16.781-37.5 37.5-37.5zm249.98-87.469c-20.719 0-37.5 16.828-37.5 37.5 0 20.672 16.828 37.5 37.5 37.5 17.484 0 32.156-12 36.328-28.172-15.984-6.0469-29.672-20.578-34.922-40.312-0.60938-2.2031-1.0781-4.3594-1.4062-6.5156zm128.95-153.79c6-5.0156 11.25-9.2812 15.516-12.422 5.5312-4.0781 13.359-2.9062 17.484 2.625s2.9531 13.359-2.625 17.484c-32.062 23.719-123.89 111.61-123.89 111.61-0.32812 0.28125-0.65625 0.5625-0.98437 0.84375-8.9531 6.8906-12.469 20.344-8.9062 33.703 4.4062 16.453 18.469 28.031 32.391 24.281 1.8281-0.51562 3.5156-1.2656 5.0625-2.2031l149.44-84.656c70.266-43.125 101.02-117.28 101.02-117.28 1.9688-4.6406 6.5156-7.6875 11.578-7.6875h174.98v-175.03h-211.31c-96.656 16.641-273.1 35.906-286.69 37.406-14.906 3.75-35.203 14.719-56.578 28.031-45.75 28.5-95.578 68.062-109.03 78.938-2.625 14.953-11.109 72.422-11.344 198.66 11.578 7.0312 38.859 23.062 68.25 36.422 14.906 6.7969 30.328 13.031 44.297 16.828 0.5625-9.1406 3.0469-17.719 7.0781-25.359-4.5-6-11.531-14.25-21.656-23.812-15.188-14.344-34.125-21-38.25-22.359-5.6719-1.125-9.9844-6.1875-9.9844-12.234v-26.062c0.09375-55.312 11.812-82.875 11.812-82.875 0.9375-2.25 2.5312-4.2188 4.5469-5.5781 53.25-35.953 133.18-71.906 133.18-71.906 1.5938-0.70312 3.375-1.0781 5.1094-1.0781 18.891 0 37.969 10.594 54.984 26.625 17.578 16.453 33.141 38.531 44.531 57.094zm-19.125 16.547c-10.594-17.578-25.453-39.422-42.516-55.453-11.156-10.5-23.016-18.703-35.438-19.688-13.688 6.2812-77.391 35.953-123.32 66.328-2.5781 8.2031-8.6719 31.547-8.7188 70.031v17.203c9.8438 4.0312 26.391 12.047 40.359 25.219 8.8594 8.3906 15.75 15.984 20.812 22.266 10.688-8.5312 24.281-13.688 39-13.688 0.375 0 0.70313 0.046875 1.0312 0.046875 2.9062-11.391 9.0938-21.281 17.484-27.938 4.6875-4.4531 53.297-50.766 91.312-84.328z" fill-rule="evenodd"/>
</svg>
