<?xml version="1.0" encoding="UTF-8"?>
<svg width="1200pt" height="1200pt" version="1.1" viewBox="0 0 1200 1200" xmlns="http://www.w3.org/2000/svg">
 <path d="m240.2 357.7c45 102.25 97.695 202.03 170.13 287.71 2.0508 1.1289 3.6523 2.9258 4.5469 5.0898 2.1406 4.9258 6.2188 8.75 11.27 10.57 5.0508 1.8242 10.629 1.4805 15.422-0.94141-0.76953-0.46094-1.5391-1.0039-2.2305-1.4609-8.9336-6.3203-13.566-10.633-12.945-12.637 0.76953-2.082 8.0156-0.85156 17.953 2.8125 3.3203 1.2266 36.562 15.797 33.824 5.082-1.0039-3.8516-6.9375-4.2383-9.7891-5.8516-3.3086-1.9297-6.1602-4.6328-9.7031-6.4766-3.1602-1.6953-11.711-4.8555-13.258-8.4375-1.875-4.2383 2.3906-4.3125 6.3203-3.4688 13.789 3.0078 25.039 12.488 38.223 16.949 4.6875 1.6211 22.031 2.4648 16.715-7.0117-1.6953-3.0742-6.3203-3.4609-9.168-4.3125v-0.003906c-9.5898-2.5938-18.922-6.043-27.891-10.312-4.2383-2.1562-7.6328-3.9297-10.098-5.1641-2.6172-1.3047-4.0039-2.4648-3.8516-3.543 0.14844-1.0781 1.7734-1.875 4.6211-2.4648v-0.003906c4.2734-0.48828 8.5977-0.25391 12.797 0.69531 5.4688 1.0742 10.797 2.7812 15.871 5.0898 3.6602 2.2773 7.4961 4.2578 11.477 5.9258 5.0898 1.2383 18.336-0.99219 16.031-8.625-0.9375-3.2344-5.3906-4.6875-8.4375-5.6992v-0.003906c-5.6758-1.0078-11.242-2.5312-16.641-4.5469-4.2383-2.1562-8.1641-4.6211-12.637-6.4766h-0.003906c-10.477-4.4023-22.289-4.3711-32.746 0.085938-5.8398 2.8477-11.113 6.7383-15.562 11.473-5.0078 4.6211-9.0195 7.0859-10.789 5.8594-1.7734-1.2266-1.0039-5.7852 1.875-12.328 1.8203-4.0781 4.2656-7.8477 7.2461-11.176 2.9062-3.2812 6.4805-5.9062 10.48-7.7031-1.3125 0-55.406-128.13-60.18-139.85-16.727-40.602-40.07-79.285-49.004-122.74-2.625-12.711 1.875-138.7 0.46094-138.7-35.625-0.14844-71.117-0.61719-106.57 0.85156l0.003907 0.003906c0.03125 57.266 5.4414 114.4 16.16 170.65 0.074218 0.38281 0 0.69531 0.074218 1.0781z"/>
 <path d="m496.77 579c5.4492 2.1094 10.504 5.1289 14.941 8.9336 0.69922-0.60156 1.4492-1.1445 2.2422-1.6211 40.105-23.059 84.969-36.605 131.14-39.602-5.543-15.59-12.152-30.777-19.781-45.457-31.305 41.062-78.535 65.879-128.54 77.746z"/>
 <path d="m328.34 573.38c-41.609-64.895-77.77-133.13-108.1-204-0.35547-0.82031-0.63672-1.6719-0.84375-2.5391-0.76953-1.2305-1.3203-2.5859-1.6211-4.0039-3.75-19.191-6.7773-38.297-9.168-57.477-0.84375 2.8125-1.5391 5.5391-2.3164 8.4375v-0.003907c-2.2734 21.574-3.2148 43.27-2.8125 64.961 0.5625 12.965 2.5273 25.832 5.8594 38.371 0.84375 2.8125 1.6953 5.625 2.5391 8.3164 1 2.625 2.0039 5.168 3.0078 7.6328 1.8477 4.5859 3.957 9.0625 6.3203 13.406 3.4531 6.3203 7.2266 12.469 11.297 18.41 2.9258 4.4609 4.1641 7.2383 3.543 7.7812-0.61719 0.54297-3.2344-1.0039-7.3203-4.3984v0.003907c-5.7969-5.043-10.973-10.758-15.414-17.027-3.0352-4.3906-5.7891-8.9727-8.2383-13.715-1.25-2.625-2.5586-5.3203-3.9297-8.0898-1.0039-2.8125-2.1562-5.8594-3.2344-8.8594-3.7812-11.617-6.1367-23.648-7.0117-35.832-5.0586 26.52-12.301 52.574-21.656 77.898 41.371 49 96.918 92.23 159.1 110.73z"/>
 <path d="m825.54 321.41c0.0625 0.11328 0.14062 0.21875 0.23438 0.30859 30.516 50.082 44.691 106.79 73.285 157.34 13.172 23.344 28.051 45.938 39.758 70.117 5.2422 11.016 23.652 46.152 16.18 58.125-7.9414 12.637-28.434 13.941-32.812 29.738l0.003906-0.003907c-0.58984 4.2617-0.43359 8.5898 0.45703 12.797 5.6992-1.9297 16.105-23.664 22.574-20.117 1.875 1.0039 0.61719 7.2461-2.9258 16.492-1.875 4.6875-4.0039 10.023-6.4766 15.797-2.957 5.5508-5.2812 11.418-6.9258 17.492-2.6992 14.176 10.172-2.6992 12.02-5.3984 4.3867-7.7812 8.3242-15.789 11.785-22.34l-0.003907-0.003907c2.7266-5.4492 6.1445-10.527 10.172-15.102 2.8125-3.1602 4.8555-4.6211 5.7852-4.0781 0.92969 0.54297 0.69531 3.0742-0.54297 7.0859-1.5391 4.0781-3.0859 9.7773-5.2422 16.332-2.5234 8.5625-5.6562 16.93-9.375 25.043-1.4727 3.0859-8.7109 9.5547-4.9297 13.18 6.0859 5.7734 14.324-12.945 15.711-16.492 1.0039-2.2422 1.7734-4.4727 3.0078-6.8633l0.84375-1.7734 0.54297-1.0781 0.38281-0.69531c0.60938-1.0039 1.1523-1.875 1.6875-2.8125 2.3164-3.6953 4.4727-7.1641 6.4023-10.312 8.3164-12.562 14.867-19.5 16.566-18.336 1.875 1.2266-1.0781 9.9375-6.7773 23.438-4.3203 10.172-15.188 20.035-14.719 31.742 5.7734-0.46094 12.02-12.242 15.102-16.641 5.1562-7.5469 9.4766-15.637 14.633-23.109 5.5508-8.1758 10.098-11.867 12.02-10.949 1.9219 0.91797 0.46875 7.1719-2.1562 15.797-1.1523 3.6289-2.6172 7.9414-4.5469 12.562l0.007812 0.003907c-0.14453 1.1914-0.34766 2.375-0.60938 3.543-0.61719 2.6992-4.5469 10.633 1.1523 10.48 6.3945-0.074218 12.188-21.273 15.328-26.117 3.9961-5.9453 6.7539-12.633 8.1094-19.668 2.0469-10.391 1.7227-21.109-0.9375-31.359-2.2305-7.9414-8.9453-11.559-10.555-19.875-2.3164-12.254-4.7812-24.43-7.9414-36.562-6.5625-24.742-14.633-49.086-22.031-73.586-12.094-39.918-26.738-80.363-53.785-112.8v0.003906c-1.6328-1.8789-2.6172-4.2344-2.8125-6.7148-0.6875-1.0898-1.1797-2.2852-1.4609-3.543-12.977-59.289-40.164-113.3-60.949-169.93-34.977 0.38281-69.891 2.4648-104.87 2.4648 14.062 46.613 37.5 89.062 58.641 132.84v-0.003906c0.49609 1.1289 0.83203 2.3242 0.99219 3.5469z"/>
 <path d="m399.92 437.07c1.6211 1.0781 3.2344 2.1562 5.0078 3.3086 1.2383 0.84375 2.4648 1.6953 3.75 2.5391 1.4609 0.76953 2.9258 1.5469 4.4727 2.3164 3 1.5391 6.1602 3.1602 9.375 4.8555 0.9375 0.38281 2.6992 1.0781 4.2383 1.6133-0.074219-0.61719-0.22656-1.2266-0.30078-1.875-0.77734-3.7031-1.7734-8.0898-2.8125-11.867-0.9375-3.9297-1.9297-7.8555-2.9336-11.945-1.0039-4.0859-2.6914-7.9297-4.0039-12.02v0.003906c-11.004-27.789-23.48-54.977-37.371-81.441-10.012-21.348-13.867-35.137-12.402-35.832 1.7734-0.9375 8.7852 11.945 20.57 31.52 16.496 25.711 30.41 52.988 41.531 81.441 1.3867 4.3867 3.0859 8.4375 4.0859 12.863 1.0039 4.4258 1.9961 8.6328 3 12.797 1.0039 4.3125 1.6953 8.0156 2.4648 12.188 0.45312 2.2852 0.71094 4.6055 0.76953 6.9375 0.11719 2.0938-0.36328 4.1758-1.3867 6.0078-0.88281 1.5781-2.3047 2.7812-4.0039 3.3945-1.168 0.49609-2.4258 0.73047-3.6953 0.69531-2.5859-0.20703-5.1211-0.83984-7.5-1.875-1.9844-0.73437-3.9141-1.6094-5.7734-2.6172-3.1602-1.875-6.168-3.6953-9.0938-5.3906-0.33984-0.23828-0.70312-0.44531-1.0781-0.61719 9.6328 23.125 19.391 46.215 29.277 69.273v-0.003906c0.19531 0.085937 0.40625 0.13672 0.62109 0.15234 1.3945 0.12891 2.8008 0.023437 4.1602-0.3125 3.6953-0.69531 8.9336-1.875 13.172-2.9258 4.3984-1.0781 8.8594-2.082 13.406-3.1602v0.003906c30.773-8.5312 59.465-23.297 84.293-43.379 4.6328-4.0117 8.7852-7.6328 12.488-10.789 3.7031-3.1602 6.7031-6.3945 9.3203-8.7109 5.2422-4.7734 8.4375-7.1641 9.0938-6.6172 0.65625 0.54297-1.2266 4.0781-5.2422 9.9375h-0.003907c-2.3711 3.5781-4.9688 7-7.7812 10.246-3.4688 3.75-7.3984 8.0898-11.785 12.789l0.003906-0.003907c-24.391 23.355-54.234 40.238-86.812 49.117-4.7812 1.0781-9.5547 2.1562-14.176 3.2344-4.8555 1.0781-8.6328 1.9961-13.789 2.8125l-1.3125 0.22656c4.0859 9.168 8.1641 18.348 12.328 27.516h-0.003906c1.1016-0.49219 2.2734-0.80859 3.4688-0.9375 59.398-6.3203 122.28-32.363 155.62-84.141 0.23437-0.33203 0.49219-0.64453 0.76953-0.9375-2.2109-32.191-11.695-63.461-27.738-91.453-1.2461-2.1992-1.7344-4.7461-1.3906-7.25v-0.14844c-0.76953 1.3125-1.4609 2.5391-2.2305 3.8516-1.9297 2.6172-3.8516 5.2422-5.8594 8.0078-2.5391 3.0859-4.6875 5.3242-7.1641 8.0898h0.003906c-2.3398 2.7891-4.8633 5.418-7.5586 7.8672-17.969 16.938-37.945 31.609-59.484 43.688-16.172 9.3203-26.652 14.41-27.656 12.863-1.0039-1.5469 7.707-9.2422 22.574-20.492v-0.003906c19.41-13.969 37.938-29.125 55.473-45.383 2.5469-2.2812 4.9453-4.7227 7.1719-7.3125 2.1562-2.3906 4.3867-4.6875 6.4688-7.0977 2.082-2.6172 4.0859-5.1562 6.0859-7.6953 1.6211-2.4648 3.168-4.9297 4.7812-7.3203 3.7031-6.3203 6.8633-12.488 9.6289-18.336 1.875-12.102 4.3984-24.047 7.1719-35.98-3.75 1.875-7.5547 3.75-11.559 5.5391l-0.003907-0.003906c-19.559 8.4141-40.301 13.77-61.488 15.871-16.48 1.5469-26.43-0.46094-26.43-2.082 0-1.875 9.9453-3.2344 24.965-6.9297v0.003906c19.773-4.6719 39.129-10.965 57.875-18.809 8.0078-3.6172 15.637-7.3125 22.5-11.25 0.94141-2.1016 2.4688-3.8906 4.3945-5.1562 36.289-23.812 49.312-62.953 62.484-101.86-47.23 9.9375-100.16 3.3086-147.47 1.6875-51.168-1.6875-102.25-4.1523-153.41-5.0078 9.4766 4.8555 18.102 8.7852 25.117 11.633 11.867 4.3125 19.039 7.0117 18.805 8.5586-0.23438 1.3047-8.0156 1.1523-21.039-1.2383l0.003906 0.007812c-11.512-2.7383-22.715-6.6367-33.441-11.637 2.4766 5.3789 4.6641 10.883 6.5625 16.492 2.6172 7.0859 4.8555 13.941 7.5 19.949 2.6094 5.9492 5.5156 11.762 8.7109 17.418 5.3594 9.582 11.684 18.59 18.871 26.887 4.8242 5.5273 10.285 10.469 16.266 14.719 1.9961 1.4609 3.9297 2.5391 5.1562 3.3945 1.2266 0.85156 1.7734 1.5391 1.6211 1.9219-0.30859 0.69531-3.3203 1.1523-8.8594-0.69531v0.003907c-7.6562-2.8516-14.668-7.1992-20.625-12.789-8.7773-8-16.402-17.18-22.648-27.281-3.7344-5.9023-7.1094-12.027-10.098-18.336-1.6133-3.4688-3-6.9297-4.3125-10.473 0.22656 29.809-1.6289 59.594-5.5508 89.145 0.49219 0.69922 0.90625 1.4492 1.2383 2.2344 17.352 40.434 33.918 81.188 50.559 121.8z"/>
 <path d="m380.2 650.11 4.0039-0.22656c-10.855-13.332-21.309-26.969-31.359-40.914l-0.003906 0.003906c-5.3945-3.6016-11.031-6.8203-16.875-9.6367-64.875-15.18-124.58-56.523-170.02-105.64-4.2773 29.93-6.1328 60.156-5.5508 90.387 78.809-15.105 165.25 3.9258 219.81 66.027z"/>
 <path d="m1139.8 641.1c-0.1875 0.15234-0.39062 0.28125-0.60937 0.38281-3.8867 2.4062-7.9297 4.543-12.105 6.3945-13.16 5.5547-26.91 9.5898-40.988 12.02-10.48 1.875-17.336 2.6992-17.879 0.9375-0.53516-1.6211 5.0078-5.4766 15.18-9.7109 10.023-4.3867 24.121-8.6992 38.297-15 4.0039-1.5469 7.3984-3.75 11.016-5.4766 1.6211-0.9375 3.2422-1.875 4.7812-2.9258-0.52734-1.8906-1.1719-3.7422-1.9297-5.5508-28.039 6.5625-54.375 19.105-82.828 24.73-4.0352 12.438-10.473 23.957-18.949 33.91-2.2305 3.8086-4.8945 7.3477-7.9375 10.547-3.3047 3.332-7.3047 5.8906-11.711 7.5-4.6992 1.707-9.9336 1.0508-14.062-1.7734-0.85156-0.74219-1.6289-1.5664-2.3164-2.4648-0.36328-0.082032-0.72266-0.1875-1.0781-0.30859-0.98438-0.32812-1.9258-0.76953-2.8125-1.3125l-0.69531-0.61719-0.14844-0.074218v-0.003906c-1.9531 2.2305-4.0664 4.3164-6.3164 6.2461l-1.0781 0.9375-0.84375 0.69531c-0.69531 0.46875-1.7734 1.2383-2.625 1.7734v-0.003906c-1.7148 1.0938-3.5156 2.0312-5.3906 2.8125-2.3711 0.99219-4.9336 1.4414-7.5 1.3125-0.86719-0.0625-1.7188-0.21875-2.5508-0.46094l-1.3047-0.46875-0.16016-0.074219c-0.69531 0.46094-1.2266 0.76953-1.875 1.3125-4.0508 2.4219-8.8516 3.2695-13.488 2.3906-4.043-0.51562-7.8867-2.0547-11.168-4.4727-1.207-0.82422-2.2734-1.8398-3.1562-3.0078-0.41406-0.51562-0.79688-1.0547-1.1562-1.6133-0.39453 0.14844-0.69531 0.38281-1.1641 0.53516h0.003906c-5.1992 1.3828-10.73-0.32031-14.25-4.3867-0.94922-0.97656-1.7773-2.0625-2.4648-3.2344l-1.3867-2.2422h-0.003907c-0.46875-0.89062-0.83203-1.832-1.0781-2.8125-0.33984-0.75391-0.54688-1.5625-0.61719-2.3906-0.46484-2.6523-0.46484-5.3633 0-8.0156 0.38281-2.2773 0.94922-4.5195 1.6953-6.7031 0.53516-1.3125 0.9375-2.3164 1.3125-3.2344-1.168-0.88672-2.1641-1.9844-2.9336-3.2344-0.27344-0.41016-0.50781-0.85156-0.69141-1.3125-1.0508-1.2812-1.8594-2.7422-2.3906-4.3125-1-3.3398-1.3203-6.8477-0.9375-10.312 0.078124-0.27344 0.12891-0.55859 0.14844-0.84375-2.5352-2.0352-3.8945-5.1953-3.6172-8.4375 0.48437-4.1562 1.5469-8.2305 3.1562-12.094-121.88-49.312-260.62-91.152-383.56-20.344-0.18359 0.058594-0.36328 0.13672-0.53516 0.23438 0.38281 1.0781 0.9375 1.9961 1.3047 3.0742 1.6445 3.3203 1.1055 7.3047-1.3594 10.07 0.082031 0.25 0.13281 0.50781 0.16016 0.76953 0.27344 1.6328 0.24609 3.3047-0.085937 4.9297-0.36719 2.1367-1.2109 4.1641-2.4648 5.9336l-0.84375 0.9375-0.16016 0.14844-0.84375 0.9375-0.074219 0.074219h-0.074219l-0.16016 0.14844-0.69531 0.39453-0.22656 0.14844 0.003906 0.007813c0.61719 1.1133 1.082 2.3047 1.3867 3.543l0.074219 0.074219 0.074218 0.61719v0.23438l0.074219 0.38281 0.074219 0.60938 0.003906 0.003906c0.066406 1.2539-0.007812 2.5117-0.22656 3.75-0.73828 3.3438-2.6172 6.3281-5.3164 8.4375-1.7656 1.5547-3.7695 2.8203-5.9336 3.75-3.4844 1.4766-7.1719 2.4258-10.941 2.8125l-1.4609 0.074219-1.2383 0.074219-0.23438-0.074219-0.53516-0.074219c-0.69531-0.074219-1.3867-0.23438-2.082-0.30859h0.003906c-0.28125 1.0625-0.72656 2.0781-1.3125 3.0078-1.6797 2.707-3.9766 4.9727-6.7031 6.6172l-0.84375 0.54297-0.23438 0.14844-0.074218 0.085937-1.0039 0.53516-0.30859 0.074218-1.3867 0.61719-0.003906 0.003906c-1.3203 0.59766-2.7188 1.0156-4.1523 1.2383-1.4375 0.34766-2.918 0.50391-4.3984 0.45703-1.25 0.10547-2.5117 0.050782-3.75-0.15625-2.543-0.21484-5.0586-0.70703-7.5-1.4648 0.28516 4.0859-2.1211 7.8828-5.9336 9.375-18.488 8.7109-41.531 7.7812-54.703-7.5-5.6992 0.60938-11.484 1.0781-17.184 1.3047 3.9297 24.742 23.812 43.848 34.828 65.879 2.0078-3.75 4.1641-7.2383 6.168-10.473 4.8477-7.3203 9.6289-13.258 13.555-18.336 7.707-9.5625 12.789-16.266 14.719-15.18 1.875 0.9375 0.53516 8.8594-5.3906 21.027h0.003907c-8.0859 13.934-15.027 28.496-20.758 43.547-1.4609 3.8516-2.4648 9.168-3.7031 13.406-1.2461 4.1562-2.2734 8.375-3.0742 12.637-1.0039 4.1523-1.875 8.2422-2.5508 12.02-1.6289 16.418-1.7578 32.949-0.38281 49.387l1.0039-1.7734-0.003906 0.003907c0.63672-1.1016 1.3867-2.1367 2.2344-3.0859l2.082-2.6992 2.2422-2.0703 1.3867-1.3125c0.30078-0.38281 0.60938 0 1.0781-1.0039l1.3047-2.3164 0.77734-0.99219v-0.085938h-0.003906c0.41797-5.3828 1.1641-10.73 2.2305-16.023 0.27344-4.3359 1.3203-8.5898 3.0859-12.562 1.5391-2.4648 2.8125-3.6953 3.6953-3.3828 0.88281 0.30859 1.1523 1.9961 1.0781 4.9297 0.23438 2.6914 0.61719 6.4688 1.0781 11.09h-0.003907c1.0234 6.3281 1.0234 12.781 0 19.109l-0.14844 0.69531-0.074219 0.38281v0.23438l-0.46875 1.0781v0.074219l-0.53516 1.1641-1.0781 2.3047c-1.2734 2.0586-2.7734 3.9727-4.4727 5.6992l-1.6953 1.7734-1.3047 1.6953c-0.39453 0.49219-0.75781 1.0078-1.0859 1.5469l-1.3867 2.4648c-3.918 6.7734-5.8164 14.527-5.4688 22.34 2.6328 11.645 8.293 22.391 16.41 31.145 8.1172 8.75 18.406 15.203 29.82 18.703 54.973 15.371 111.13 26.133 167.89 32.176 57.402 6.3945 115.31 9.8633 172.21 19.688 61.789 10.633 122.28 24.273 185.22 25.191 1.2773 0.023438 2.5469 0.25781 3.75 0.69141 38.605 0.54297 76.977 5.3242 115.66 4.8555v0.003907c4.5078-27.41 5.1797-55.312 1.9961-82.906-12.434-5.4805-25.59-9.1406-39.066-10.863-7.5469-1.3125-16.715-2.9258-24.656-4.8555-8.1641-2.1562-16.566-4.3125-25.117-6.5625-36.312-9.6016-73.188-16.938-110.41-21.969-10.258-1.1523-20.344-2.3828-30.055-2.8125-4.9297-0.22656-9.6289-0.76953-14.633-0.84375-5.0078-0.074219-10.023-0.074219-15-0.074219l-7.3984-0.085938c-1.875 0-4.2383 0.23438-6.3203 0.30859v0.003906c-4.3711 0.3125-8.7188 0.87891-13.023 1.6953-8.7852 1.4609-18.262 3.8516-28.199 5.0078-5.2109 0.69922-10.465 1.0352-15.723 1.0039-2.3828-0.14844-4.4609-0.38281-6.7031-0.53516l-3.2344-0.23438-1.1523-0.16016h-0.23438l-0.38281-0.14844-0.84375-0.14844-1.6211-0.30859-0.003906-0.003906c-8.5938-1.5742-17.105-3.5781-25.5-6.0078-4.0117-1.1641-7.9414-2.3164-11.867-3.3945-3.75-1.3125-7.5-2.6172-11.09-3.8516-7.2461-2.4648-14.062-5.0078-20.578-7.5-25.809-10.023-46.227-18.188-60.488-23.195-14.559-4.9297-22.801-7.9414-22.414-9.7891 0.38281-1.6211 9.0195-2.082 24.496-0.074219 21.758 3.7383 43.23 8.9688 64.273 15.648 6.6289 1.9297 13.48 3.9297 20.625 5.7852 3.5352 1.0039 7.2383 1.9961 10.941 3 3.6953 0.85547 7.4688 1.7031 11.324 2.5391 15.211 4.4141 31.16 5.6719 46.875 3.7031 8.1641-1.2383 16.875-3.6172 26.812-5.6992 5.1562-1.1094 10.379-1.8828 15.637-2.3164 2.8125-0.22656 5.3984-0.53516 8.3242-0.53516l7.3984-0.16016c5.0078 0 10.012-0.074219 15-0.14844 5.0898 0.074219 10.555 0.53516 15.883 0.76953 10.781 0.38281 21.414 1.6211 32.055 2.9258l-0.003906-0.003907c38.449 5.0938 76.426 13.266 113.57 24.434 17.336 5.2305 32.438 10.086 47.812 13.246 11.156 2.3555 22.086 5.6797 32.66 9.9375 1.3125-13.25 2.4688-26.578 3.4688-39.984 0.16016-5.625 0.30859-10.789 0.54297-15.336h0.003907c0.23437-5.9297 0.77344-11.844 1.6094-17.719 1.7734-29.898 3.3203-59.711 5.3984-89.531 2.0547-29.355 17.617-67.887 15.07-99.703zm-291.86 286.16c0.84375-0.30859 2.082 0.61719 3.6172 2.4648 1.9414 2.1953 4.0547 4.2305 6.3203 6.0859 7.7422 6.1797 16.25 11.336 25.312 15.336 21.73 10.172 40.988 15.562 40.527 19.18-0.30859 3.5547-22.117 3.75-45.992-7.3984v0.003906c-10.699-4.5312-19.988-11.848-26.898-21.188-2.168-3.0273-3.543-6.5508-4.0039-10.246-0.035156-2.3906 0.27344-3.9297 1.1172-4.2383zm15-285c-4.0117-0.38281-8.9453-1.0039-14.645-1.7734s-11.945-2.4648-18.957-3.9297c-28.125-6.0078-65.258-18.957-107.95-24.039-85.453-11.945-155.34 3.2344-155.95-1.1641-0.14844-0.84375 4.0039-2.4648 11.711-4.6211 3.9297-1.0039 8.6328-2.3906 14.176-3.4688 5.7109-0.9375 12.102-2.0703 19.266-3.3086v0.003907c37.309-5.2617 75.164-5.3672 112.5-0.30859 44.156 5.2422 81.562 19.883 108.65 27.977 6.7773 2.0703 12.871 4.3125 18.262 5.7734 5.3906 1.4609 10.086 2.8125 13.867 3.9297 7.5547 2.3164 11.711 4.0117 11.711 4.8555-0.13672 0.9375-4.5977 0.9375-12.613 0.066406z"/>
 <path d="m149.58 771.09c24.453-13.055 49.699-24.555 75.59-34.445 12.055-4.6953 25.266-5.5547 37.828-2.4648 22.352 3.9297-7.3125-32.512-9.7773-37.293-4.2305-6.3516-6.8984-13.609-7.7812-21.188-0.90234-6.0312 0.25-12.188 3.2656-17.484 3.0195-5.293 7.7305-9.4219 13.375-11.719 5.5508-2.4688 11.789-2.9297 17.645-1.3125 7.8164-0.54297 15.453 2.5234 20.727 8.3242 0.9375 0.84375 1.6133 1.875 2.4648 2.6992l0.69531 0.46094c21.883 15 13.867 24.375 53.438 26.504v-0.003907c1.8359 0.22656 3.6797-0.33203 5.082-1.5352-1.2695-4.9102-2.0195-9.9375-2.2305-15-0.070313-1.332 0.10937-2.6641 0.53125-3.9297-22.641-22.969-50.332-40.336-80.871-50.719-30.539-10.379-63.078-13.488-95.031-9.0742-4.6875 1.4609-11.102 3.1602-18.805 5.0156-9.5312 2.0781-18.82 5.1211-27.73 9.0859-10 4.3242-18.195 11.977-23.195 21.656-3.3047 6.7656-5.2148 14.125-5.625 21.645-1.0664 5.1914 0.29297 10.582 3.6953 14.645l11.102 6.7031-11.469 5.1367c-9.6328 4.3008-17.992 11.016-24.273 19.492-4.5469 5.9336-6.7773 11.016-8.2422 10.398-1.1523-0.46094-2.0078-5.1562 1.3125-14.176h0.003906c3.7617-9.0508 9.8789-16.926 17.719-22.812-1.2109-1.7227-2.1602-3.6211-2.8125-5.625-1.4922-4.5977-2.1719-9.418-2.0078-14.25 0.11719-6.5117 1.1836-12.973 3.1602-19.18-6.4922 6.8281-11.758 14.723-15.562 23.344-8.9648 19.41-15.691 39.773-20.055 60.703-3.4688 20.344 5.1641 33.75 8.8594 52.5-0.011718 0.23438 0.015626 0.46875 0.085938 0.69531 1.8906-2.9883 4.168-5.7109 6.7773-8.0938 1.1055-0.89062 2.2617-1.7148 3.4688-2.4648-0.91406-1.7812-1.3164-3.7773-1.1602-5.7734 0.16406-1.6758 0.66406-3.3047 1.4688-4.7812 1.0664-1.9375 2.4453-3.6836 4.0781-5.168 4.7539-4.0273 10.047-7.3711 15.723-9.9375 4.0039-1.875 7.8555-3.6172 11.785-5.1562 1.875-0.69531 3.4688-1.3125 5.1641-1.875v-3.2344c0.46484-3.6523 1.7461-7.1562 3.75-10.246 3.2422-4.793 7.4727-8.8398 12.406-11.867 7.2891-4.4531 15.211-7.7773 23.492-9.8633 13.641-3.6172 22.426-2.5391 22.5-0.69531 0.074219 1.8477-7.5 4.0859-19.18 9.7891-11.984 4.1211-21.652 13.145-26.59 24.816-5.9258 14.793-11.398 14.945-26.504 22.34-3.582 1.6445-7.0117 3.6055-10.246 5.8594l17.109 6.7773-17.879 6.6289c-7.1484 2.2852-13.367 6.8281-17.719 12.945-2.918 4.6641-3.4648 10.434-1.4688 15.562 3.9375 9.3203 10.641 13.715 9.3281 15.328-0.38281 0.76953-2.3164 0.46875-5.625-0.84375-4.8008-2.2617-8.8984-5.7734-11.871-10.172-0.61719-1.1523-1.2266-2.3906-1.875-3.6172-0.32031 4.8516 0.015625 9.7227 1.0039 14.484 0.35547 2.3359 0.11719 4.7188-0.69531 6.9375-0.11328 1.707-0.61328 3.3633-1.4609 4.8477-3.2383 6.3125-3.2383 13.797 0 20.109 0.14844 0.30859 0.22656 0.61719 0.38281 0.9375 17.258 20.184 52.855 37.5 77.203 20.953 2.832-34.754-40.469-73.512 5.5234-101.32z"/>
 <path d="m366.79 695.34c-13.242 0.68359-26.5-0.87891-39.219-4.6211 5.2891 7.8906 12.102 14.648 20.035 19.875 20.727 11.555 38.496 27.746 51.93 47.305 0.23438-1.3867 0.46094-2.8125 0.69531-4.2383-0.074219-0.074218-0.14844-0.22656-0.23438-0.30078-9.4727-20.809-24.5-37.836-33.207-58.02z"/>
 <path d="m396.45 778.41c-9.168-28.977-35.746-42.609-61.258-61.875-10.633-8.0156-33.977-51.32-50.008-58.48h0.003906c-5.9258-1.625-12.133 1.4102-14.484 7.0859 0.47656-0.23047 0.96484-0.4375 1.4609-0.61719 3.3242-0.77734 6.8125-0.36719 9.8633 1.1602 1.9961 0.875 3.8594 2.0156 5.5508 3.3867 1.9297 1.6953 7.8672 7.2461 5.9336 10.48-1.9297 3.2344-8.8594-0.30859-11.324-1.2266-3.0078-1.1641-7.2461-4.2461-8.4375 0.074219-0.84375 3.543 4.8555 8.6992 7.5 10.246 4.0117 2.3906 18.496 8.8594 17.035 15.18-0.46875 2.082-5.3242 2.9258-12.102 0.84375h-0.003906c-3.9844-1.1914-7.7734-2.957-11.25-5.2422-3.3047-2.0117-5.9531-4.9453-7.6211-8.4375-0.30859-0.61719-5.1641-10.172-5.4766-9.2539-3.0859 9.375 7.707 17.727 12.789 24.508 5.0156 6.3945 21.508 32.812 5.5508 38.906-11.945 4.6211-22.414-3.2344-34.688-1.6133-23.344 3.0742-42.188 18.75-64.18 25.883-18.957 6.0938-58.949 26.117-35.445 54.938h-0.003906c4.4531 4.9727 8.1719 10.559 11.043 16.586 4.1523 10.383 4.1797 21.961 0.078124 32.363 0.85547 0.84375 1.6055 1.7891 2.2383 2.8125 0.14062 0.082031 0.29688 0.13281 0.46094 0.14844 21.496 10.023 62.492 42.301 83.211 18.188 3.2656-4.1992 9.2852-5.0312 13.566-1.875 1.4844 0.082031 2.9414 0.42188 4.3125 0.99609 9.2422 4.0859 17.258 10.172 26.25 14.645 11.016 5.625 16.48 4.6211 21.262-7.707-0.25781-3.3281-1.0898-6.5859-2.4648-9.6289-0.76562-1.5234-1.7852-2.9023-3.0078-4.0898-0.91406-0.97266-2.1367-1.6016-3.4609-1.7695-0.69531-0.074219-1.3867-0.30859-2.2422-0.46094-0.9375 0.074218-1.875 0.22656-2.6914 0.22656h0.003906c-1.3164 0.27734-2.668-0.27734-3.4023-1.4023s-0.70312-2.5898 0.082031-3.6797c0.30078-0.88672 0.74219-1.7227 1.3125-2.4648 1.1367-1.0625 2.375-2.0039 3.7031-2.8125 1.7734-0.85938 3.6719-1.4336 5.625-1.6992 2.4062-0.1875 4.8281 0.15625 7.0859 1.0039 4.8047 1.9219 8.7109 5.582 10.941 10.246 1.3438 2.8398 2.1797 5.8945 2.4648 9.0195 0.53516 0.14844 0.99219 0.22656 1.5391 0.38281v0.003906c0.54297-0.015624 1.082 0.011719 1.6211 0.074219 25.82 2.8164 51.5-6.3867 69.648-24.965 0.6875-0.66016 1.4375-1.2539 2.2383-1.7734-5.1406-29.191-5.418-59.031-0.82422-88.312z"/>
</svg>
