<?xml version="1.0" encoding="UTF-8"?>
<svg width="1200pt" height="1200pt" version="1.1" viewBox="0 0 1200 1200" xmlns="http://www.w3.org/2000/svg">
 <path d="m880.45 261.48 20.043 115.61c2.6211 15.164 9.6094 28.418 19.699 38.508l0.22656 0.24219c10.035 9.9492 23.23 16.852 38.297 19.473l115.6 20.043c3.2617 0.55469 5.457 3.6562 4.9023 6.918-0.4375 2.5781-2.4648 4.4805-4.9023 4.9023l-115.6 20.043c-15.18 2.6367-28.461 9.625-38.523 19.699-10.09 10.105-17.078 23.359-19.699 38.523l-20.043 115.61c-0.55469 3.2617-3.6562 5.457-6.918 4.9023-2.5781-0.4375-4.4805-2.4648-4.9023-4.9023l-20.055-115.61c-2.6211-15.164-9.6094-28.418-19.699-38.508l-0.22656-0.24219c-10.035-9.9492-23.23-16.852-38.281-19.473l-115.61-20.043c-3.2617-0.55469-5.457-3.6562-4.9023-6.918 0.4375-2.5781 2.4648-4.4805 4.9023-4.9023l115.61-20.043c15.164-2.6367 28.445-9.625 38.508-19.699 10.09-10.105 17.078-23.359 19.699-38.523l20.055-115.61c0.55469-3.2617 3.6562-5.457 6.918-4.9023 2.5781 0.4375 4.4805 2.4648 4.9023 4.9023zm-108.2 575.46 14.91 86.09c1.8984 10.969 6.9727 20.578 14.258 27.863 7.3008 7.3008 16.91 12.359 27.863 14.258l86.09 14.91c3.2617 0.55469 5.457 3.6562 4.9023 6.918-0.4375 2.5781-2.4648 4.4805-4.9023 4.9023l-86.09 14.91c-10.957 1.8984-20.566 6.9609-27.863 14.258-7.3008 7.3008-12.359 16.91-14.258 27.863l-14.91 86.09c-0.55469 3.2617-3.6562 5.457-6.918 4.9023-2.5781-0.4375-4.4805-2.4648-4.9023-4.9023l-14.91-86.09c-1.8984-10.957-6.9609-20.566-14.258-27.863-7.2852-7.2852-16.895-12.359-27.863-14.258l-86.09-14.91c-3.2617-0.55469-5.457-3.6562-4.9023-6.918 0.4375-2.5781 2.4648-4.4805 4.9023-4.9023l86.09-14.91c10.969-1.8984 20.578-6.9727 27.863-14.258 7.2852-7.2852 12.359-16.895 14.258-27.863l14.91-86.09c0.55469-3.2617 3.6562-5.457 6.918-4.9023 2.5781 0.4375 4.4805 2.4648 4.9023 4.9023zm-220.37-771.95 11.184 64.531c1.3594 7.8945 5.0156 14.824 10.262 20.07l0.22656 0.24219c5.1875 5.1016 12.047 8.6758 19.871 10.035l64.504 11.168c3.2617 0.55469 5.457 3.6562 4.9023 6.918-0.4375 2.5781-2.4648 4.4805-4.9023 4.9023l-64.504 11.184c-7.9375 1.375-14.883 5.0312-20.098 10.262-5.2422 5.2578-8.9023 12.188-10.262 20.082l-11.184 64.531c-0.55469 3.2617-3.6562 5.457-6.918 4.9023-2.5781-0.4375-4.4805-2.4648-4.9023-4.9023l-11.184-64.504c-1.375-7.9375-5.0312-14.883-10.262-20.098-5.2578-5.2422-12.188-8.9141-20.082-10.277l-64.531-11.184c-3.2617-0.55469-5.457-3.6562-4.9023-6.918 0.4375-2.5781 2.4648-4.4805 4.9023-4.9023l64.504-11.168c7.9219-1.375 14.855-5.0312 20.098-10.277 5.2422-5.2422 8.9023-12.176 10.277-20.098l11.184-64.504c0.55469-3.2617 3.6562-5.457 6.918-4.9023 2.5781 0.4375 4.4805 2.4648 4.9023 4.9023zm-148.82 355.09 27.27 157.3c3.6406 21.074 13.379 39.531 27.41 53.562s32.484 23.77 53.562 27.41l157.3 27.27c3.2617 0.55469 5.457 3.6562 4.9023 6.918-0.4375 2.5781-2.4648 4.4805-4.9023 4.9023l-157.3 27.27c-21.062 3.6562-39.516 13.367-53.562 27.41-14.031 14.031-23.77 32.484-27.41 53.562l-27.27 157.3c-0.55469 3.2617-3.6562 5.457-6.918 4.9023-2.5781-0.4375-4.4805-2.4648-4.9023-4.9023l-27.27-157.3c-3.6562-21.074-13.395-39.531-27.426-53.562s-32.484-23.77-53.562-27.41l-157.3-27.27c-3.2617-0.55469-5.457-3.6562-4.9023-6.918 0.4375-2.5781 2.4648-4.4805 4.9023-4.9023l157.3-27.27c21.074-3.6406 39.531-13.379 53.562-27.41s23.77-32.484 27.426-53.562l27.27-157.3c0.55469-3.2617 3.6562-5.457 6.918-4.9023 2.5781 0.4375 4.4805 2.4648 4.9023 4.9023z" fill-rule="evenodd"/>
</svg>
