<?xml version="1.0" encoding="UTF-8"?>
<svg width="1200pt" height="1200pt" version="1.1" viewBox="0 0 1200 1200" xmlns="http://www.w3.org/2000/svg">
 <path d="m837.21 404.86c0.14062 4.8867 4.1367 8.7539 9 8.7539 0.082031 0 0.16406 0 0.24609-0.007812 4.9688-0.13672 8.8828-4.2695 8.7539-9.2383-1.0781-38.828-36.68-89.109-38.191-91.23-2.8828-4.0391-8.4961-4.9844-12.551-2.0898-4.0547 2.8906-4.9805 8.5078-2.0977 12.555 0.33984 0.47656 33.926 47.863 34.84 81.258z"/>
 <path d="m595.41 621.28c0-4.9688-4.0312-9-9-9s-9 4.0312-9 9c0 2.3555-8.543 9.1758-24.844 9.1758s-24.844-6.8203-24.844-9.1758c0-4.9688-4.0312-9-9-9s-9 4.0312-9 9c0 15.492 18.422 27.176 42.844 27.176s42.844-11.684 42.844-27.176z"/>
 <path d="m677.27 768.71c-4.6172 4.3125-18.551 8.6758-36.246 8.6758-20.461 0-34.137-5.625-36.938-9.4258-2.9297-4.0039-8.5781-4.8594-12.574-1.9102-4.0078 2.9492-4.8633 8.582-1.9102 12.586 9.0938 12.352 32.52 16.754 51.422 16.754 21.012 0 39.598-5.1836 48.527-13.527 3.6328-3.3906 3.832-9.0859 0.43359-12.723-3.3984-3.625-9.082-3.8203-12.715-0.42969z"/>
 <path d="m774.21 612.28c-4.9688 0-9 4.0312-9 9 0 2.3555-8.543 9.1758-24.844 9.1758-16.301 0-24.844-6.8203-24.844-9.1758 0-4.9688-4.0312-9-9-9s-9 4.0312-9 9c0 15.492 18.422 27.176 42.844 27.176 24.422 0 42.844-11.684 42.844-27.176 0-4.9688-4.0312-9-9-9z"/>
 <path d="m362.79 555.69c-0.77344 3.1641-18.621 77.777 10.43 114.14 10.035 12.559 24.223 18.988 42.023 19.43 11.457 46.191 31.73 88.457 59.707 123.44 20.254 25.332 43.465 45.449 68.613 59.957v108.69c-2.0977 6.2344-20.93 51.18-129.87 47.078-0.10547-0.007813-0.22266-0.007813-0.33984-0.007813-4.8164 0-8.8008 3.8164-8.9766 8.668-0.1875 4.9688 3.6914 9.1445 8.6602 9.3281 4.8984 0.17969 9.6445 0.26953 14.227 0.26953 119.65 0 133.56-59.609 134.11-62.238 0.12891-0.60938 0.1875-1.2266 0.1875-1.8477v-100.64c25.48 11.582 52.605 17.633 80.461 17.633 0.58594 0 1.1953 0 1.793-0.007812 28.406-0.26563 55.594-6.8945 80.742-18.785v101.8c0 0.62109 0.058594 1.2344 0.1875 1.8398 0.55078 2.6367 14.426 62.25 134.1 62.242 4.582 0 9.3398-0.085938 14.227-0.26953 4.9688-0.17969 8.8477-4.3594 8.6602-9.3281-0.17578-4.9688-4.8516-8.9141-9.3164-8.6602-109.45 4.1016-127.9-41.172-129.86-47.047v-110.27c59.465-35.539 105.23-101.55 124.76-181.99 17.059-0.74219 30.574-7.043 39.922-19.211 24.125-31.395 11.863-91.43 7.4609-109.37 10.105-11.578 10.453-23.137 10.434-23.516 25.875-250.61-189.06-374.17-191.38-375.47-18.012-9.6445-36.059-10.859-53.66-3.6133-29.828 12.289-52.25 47.254-66.508 76.555-97.031 16.348-149.88 61.316-151.5 62.77-52.453 37.957-52.852 88.133-51.492 104-38.953 38.531-57.012 76.816-53.684 113.86 1.1914 13.254 5.0547 24.914 10.055 34.984-2.0156 1.1953-3.582 3.1406-4.1836 5.5859zm280.86 325.9c-0.53906 0.007812-1.0781 0.007812-1.6289 0.007812-57.375 0-111.67-28.414-153.02-80.133-42.246-52.852-65.906-123.55-66.609-199.09-0.046875-3.9805-0.011719-7.9414 0.082031-11.879 0.023438-1.0703-0.21875-2.0703-0.53906-3.0312 28.648-24.695 148.32-123.71 257.29-153.79 85.781 49.742 161.22 123.09 179.44 141.38 0.5625 7.6953 0.92188 15.504 1 23.25 1.4414 155.07-95.461 282.15-216.01 283.28zm249.32-222.64c-5.1953 6.7695-12.281 10.57-21.711 11.875 4.3867-23.301 6.6367-47.641 6.4062-72.68-0.054687-5.8047-0.42969-11.609-0.74609-17.414 8.9141-2.0195 16.191-4.7891 22.109-7.9961 5.0742 24.453 9.4805 65.992-6.0586 86.215zm-471.13-243.27c0.45312-0.25781 0.9375-0.42188 1.3477-0.76563 9.8789-8.1797 39.141-30.23 55.699-33.988 4.8516-1.1016 7.8867-5.9219 6.7852-10.77-1.1016-4.8594-6-7.8633-10.77-6.7852-14.363 3.2656-33 15.16-46.383 24.785 1.1562-18.473 8.8047-50.758 44.742-76.793 0.48438-0.42578 47.113-39.969 131.41-56.969-5.6797 13.801-8.7969 23.773-9.1797 25.023-1.4648 4.7539 1.207 9.7852 5.9648 11.242 4.8047 1.4648 9.7852-1.2266 11.238-5.9727 0.28125-0.91016 28.441-91.219 74.262-110.1 12.516-5.1719 25.055-4.2617 38.145 2.7539 2.0742 1.1602 206.81 118.86 182.09 358.49-0.035156 0.82031-1.3672 18.625-30.914 26.555-7.6055-129.47-172.5-261.6-179.71-267.31-3.9023-3.0938-9.5508-2.4141-12.645 1.4648-3.082 3.8945-2.4258 9.5547 1.4648 12.645 1.6289 1.2891 151.87 121.61 171.12 238.45-46.027-44.281-165.61-150.38-276.87-174.46-0.070313-0.019531-0.13672-0.03125-0.21094-0.046875-6.1328-1.3203-12.246-2.4805-18.312-3.2812-5.0391-0.70312-9.457 2.8281-10.09 7.7539-0.44922 3.375 1.125 6.4609 3.6875 8.3438-20.992 14.293-56.305 40.293-84.441 70.863-3.3633 3.6562-3.1289 9.3516 0.52734 12.715 1.7227 1.5938 3.9141 2.3789 6.0938 2.3789 2.4258 0 4.8516-0.98047 6.6211-2.9062 34.906-37.93 83.047-69.586 95.5-77.496 25.777 5.9805 52.207 16.664 78.105 30.07-109.94 36.559-221.67 130.19-248.05 153.19-10.16-8.5547-31.406-29.965-34.219-61.242-2.7773-30.945 13.164-63.848 46.996-97.836zm-17.391 178.21c-0.039063 2.8906-0.089844 5.7812-0.058594 8.6719 0.21484 23.371 2.7773 46.219 7.0781 68.395-10.422-1.0898-18.32-5.0117-24.176-12.344-17.133-21.422-13.211-66.398-8.832-90.055 12.105 15.859 24.898 24.609 25.988 25.332z"/>
 <path d="m187.42 487.86c0.45703 0.31641 45.328 32.301 45.328 69.98 0 4.9688 4.0312 9 9 9s9-4.0312 9-9c0-37.676 44.871-69.664 45.328-69.98 3.1406-2.2148 4.5469-6.1758 3.4688-9.8672-1.0664-3.6914-4.3477-6.3047-8.1914-6.4922-22.934-1.1367-37.289-37.453-40.887-51.352-0.10938-0.41016-0.375-0.71875-0.53516-1.1016-0.23438-0.56641-0.44531-1.1172-0.78906-1.625-0.33984-0.50391-0.75-0.90234-1.1719-1.3242-0.39062-0.38672-0.75391-0.76562-1.2109-1.0781-0.54687-0.37109-1.1367-0.60938-1.7539-0.85156-0.35156-0.14062-0.63281-0.39062-1.0117-0.48828-0.14844-0.039063-0.28516 0.007812-0.43359-0.023438-0.59766-0.125-1.207-0.097656-1.832-0.097656-0.62109 0-1.2266-0.027344-1.8203 0.097656-0.14062 0.027344-0.27344-0.015625-0.41406 0.023438-0.35938 0.09375-0.62891 0.33594-0.96484 0.46875-0.64844 0.25-1.2695 0.5-1.8359 0.89062-0.42578 0.29297-0.76172 0.64844-1.125 1.0078-0.44922 0.44141-0.88281 0.86328-1.2383 1.3945-0.32812 0.49219-0.53516 1.0273-0.76172 1.5781-0.16016 0.39062-0.43359 0.70703-0.54297 1.1289-3.5977 13.898-17.953 50.215-40.887 51.352-3.8438 0.1875-7.125 2.8008-8.1914 6.4922-1.0742 3.6875 0.33203 7.6484 3.4727 9.8672zm54.328-39.969c6.2656 13.141 16.125 28.434 30.457 36.328-9.5898 8.7773-22.109 22.305-30.457 38.793-8.3477-16.488-20.863-30.016-30.457-38.793 14.332-7.8945 24.195-23.188 30.457-36.328z"/>
 <path d="m301.34 778.95c-0.097656 0.62891-0.17578 1.2344-0.13672 1.8789 0.011719 0.20312-0.070313 0.39062-0.042969 0.59375 0.09375 0.71484 8.6016 71.992-37.863 81.914-3.9023 0.83203-6.7969 4.1367-7.1016 8.1133-0.30469 3.9766 2.0508 7.6797 5.7773 9.1016 0.71484 0.26953 71.145 27.547 83.988 78.363 1.0312 4.082 4.6992 6.7969 8.7188 6.7969 0.73828 0 1.4766-0.085937 2.2148-0.27344 4.8164-1.2188 7.7461-6.1094 6.5273-10.926-12.82-50.676 36.164-108.29 36.656-108.86 2.5664-2.9844 2.9062-7.2852 0.83203-10.629-2.0742-3.332-6.1055-4.9531-9.8789-3.9727-44.754 11.484-72.352-53.566-72.633-54.223-0.070313-0.16797-0.21484-0.27344-0.29688-0.4375-0.3125-0.64844-0.72266-1.1953-1.1719-1.7383-0.29297-0.35938-0.55469-0.72266-0.89453-1.0273-0.46875-0.41797-1.0039-0.71875-1.5547-1.0273-0.48047-0.27344-0.9375-0.55078-1.4609-0.73438-0.48438-0.16406-0.99219-0.22266-1.5078-0.30469-0.66016-0.10938-1.2969-0.19922-1.9766-0.15625-0.20312 0.007812-0.38672-0.070313-0.59375-0.046876-0.41406 0.050782-0.74219 0.28125-1.1328 0.38672-0.39062 0.10156-0.78906 0.070313-1.1758 0.23047-0.19531 0.082031-0.31641 0.24609-0.50391 0.33984-0.55469 0.27344-1.0156 0.63281-1.4961 1.0078-0.45312 0.35156-0.89844 0.68359-1.2695 1.1133-0.36719 0.42187-0.625 0.89062-0.91016 1.3711-0.30469 0.51953-0.60156 1.0117-0.79297 1.5781-0.17578 0.50781-0.23438 1.0273-0.32031 1.5664zm72.863 71.273c-10.48 15.496-24.516 40.414-29.262 67.945-17.074-21.734-40.918-36.898-57.48-45.605 19.965-13.098 28.598-36.992 31.406-59.281 12.195 16.625 30.73 34.496 55.336 36.941z"/>
 <path d="m914.78 769.62c-3.7383-0.83203-7.6289 0.76172-9.6562 4.0234-2.0273 3.2695-1.7461 7.4648 0.69141 10.441 0.33984 0.43359 34.898 43.242 24.645 79.645-1.3477 4.7891 1.4297 9.7578 6.2227 11.105 0.80859 0.23437 1.6289 0.33984 2.4375 0.33984 3.9375 0 7.5469-2.5898 8.6602-6.5547 10.219-36.27 62.086-54.887 62.613-55.066 3.6211-1.2773 6.0469-4.7148 6.0234-8.5547-0.035156-3.8438-2.4961-7.2461-6.1289-8.4727-21.773-7.3203-25.734-46.168-25.43-60.516 0.007812-0.42188-0.16797-0.78906-0.21484-1.1953-0.070313-0.61719-0.12891-1.207-0.32422-1.7969-0.18359-0.55859-0.46094-1.0391-0.74609-1.543-0.27734-0.5-0.54297-0.98437-0.91797-1.4258-0.40625-0.48047-0.89062-0.84766-1.3906-1.2344-0.31641-0.24609-0.53125-0.57812-0.88672-0.78516-0.13672-0.078125-0.29297-0.074219-0.43359-0.14844-0.53516-0.27734-1.1172-0.41406-1.707-0.57812-0.57422-0.16016-1.125-0.34375-1.7109-0.38672-0.16406-0.011719-0.30469-0.10156-0.47266-0.10547h-0.19922c-0.40625 0-0.75781 0.17578-1.1523 0.22656-0.57422 0.078126-1.1211 0.14844-1.668 0.33203-0.58984 0.19531-1.1055 0.48047-1.6328 0.78906-0.46094 0.26562-0.90234 0.51953-1.3125 0.86719-0.49609 0.42188-0.88281 0.91406-1.2773 1.4336-0.22656 0.29687-0.54297 0.49219-0.73438 0.82422-7.2305 12.398-30.867 43.359-53.297 38.336zm54.164-9.2734c2.4648 14.348 7.8047 31.746 19.453 43.23-11.609 5.8516-27.328 15.477-39.832 29.082-3.5625-18.133-11.941-34.551-18.797-45.598 15.938-3.7148 29.582-15.766 39.176-26.715z"/>
</svg>
