<?xml version="1.0" encoding="UTF-8"?>
<svg width="1200pt" height="1200pt" version="1.1" viewBox="0 0 1200 1200" xmlns="http://www.w3.org/2000/svg">
 <path d="m472.07 344.29c-3.9102-13.508-14.27-50.477-28.527-52.32l-0.003907-0.003906c-0.83984 0.12891-1.6914 0.15234-2.5391 0.066406-3.2422 0.74609-6.125 2.5859-8.1641 5.2109-22.555 25.379 1.3789 60.695 6.1797 91.414l-0.003906 0.003906c12.734-13.434 23.828-28.328 33.059-44.371z"/>
 <path d="m486.68 321.8c5.625-8.1914 12.004-15.84 19.059-22.836-4.3867-20.164-0.60938-63.301-26.129-63.301-16.801 0-25.098 20.625-27.188 36.898 17.859 6.4414 27.676 29.008 34.258 49.238z"/>
 <path d="m531.66 617.3c2.8789-3.3555 12-15.496 22.012-30.852h0.003907c-7.0391-4.1016-13.863-8.5703-20.438-13.379-5.2109-3.3555-13.379-5.6914-16.801-11.25-7.0703-11.316 6.7891-24.543 13.227-32.812 9.9453-12.684 21.816-24.75 39.234-22.902 6.25 0.51953 12.359 2.1445 18.039 4.8008 0.33984-6.5156-4.4258-12.18-10.902-12.957-43.004-7.6875-99.102 32.438-129.55 59.316-22.551 22.07-48.836 39.973-77.633 52.875-2.6875 1.2852-5.8594 1.0234-8.2969-0.68359-2.2578 0.27344-4.5938 0.47656-6.9297 0.68359h-0.9375l-0.47656-0.066406h-0.9375l-1.875-0.14062-3.9102-0.20703c-2.7891-0.0625-5.5664-0.375-8.2969-0.9375-2.9453-0.60938-5.9609-1.1641-8.8398-1.7812-2.8789-0.61719-5.4922-1.7148-8.1016-2.6055-5-1.8008-9.8398-4.0234-14.465-6.6484-4.3203-2.6797-8.2305-5.418-11.727-8.1016-3.2891-2.9453-6.375-5.625-8.9141-8.3633l-0.003906 0.003906c-4.0703-4.1641-7.5742-8.8438-10.426-13.922-1.9883-3.6367-2.6055-6.0391-1.6406-6.9297 0.96484-0.89062 3.3555-0.066406 6.7891 1.9219 3.4297 1.9883 8.1562 5.1484 13.715 8.9141 2.8125 1.7812 5.9609 3.7031 9.2539 5.7578 3.4297 1.875 7.0703 3.75 10.836 5.5586v0.003906c4.0352 1.8008 8.1797 3.3359 12.414 4.5938 2.1953 0.61719 4.3867 1.4453 6.6562 1.9219 2.2695 0.47656 4.3867 0.82422 6.6484 1.3047 4.2578 0.9375 10.836 1.0312 14.68 1.5078h1.2266c-3.9336-12.422-4.8242-25.605-2.5977-38.438-4.6875 2.0469-9.7734 3.0078-14.887 2.8125-3.3555-0.17188-6.6523-0.94141-9.7383-2.2695-2.1172-0.9375-3.1484-1.875-3.0195-2.6719 0.28125-1.7812 5.2891-1.875 12.188-3.2266 3.793-0.82422 7.4258-2.2617 10.762-4.2461 3.7461-2.4258 7.1211-5.3867 10.012-8.7852-0.67188 0.19141-1.3594 0.33203-2.0508 0.41406-4.0547 0.53516-8.1641 0.44531-12.188-0.27344-6.4102-1.0625-12.598-3.1719-18.32-6.2422-9.7305-5.1367-13.988-10.828-12.957-11.926 1.0312-1.3047 6.5625 1.5742 16.051 4.3125 5.3828 1.6602 10.922 2.7656 16.527 3.3008 5.9805 0.91797 12.086-0.48047 17.074-3.9102 5.1172-4.3477 9.5586-9.4336 13.172-15.094 1.5-2.0547 3.0078-4.0391 4.5938-5.9609-2.4766-0.47656-5.0078-1.0977-7.5-1.7812-15.457-2.9258-29.637-10.543-40.605-21.816-1.8594-2.2422-3.4141-4.7266-4.6211-7.3789-0.69531-2.0469-1.1758-4.1641-1.4453-6.3086 0.14062-3.6367 0.68359-5.418 1.4453-5.418 2.0547-0.14063 2.3984 7.1328 10.426 13.445v-0.003906c11.215 8.0508 24.035 13.594 37.582 16.246 5.0078 1.3047 10.012 2.4766 14.812 3.4961v0.003907c3.0742-2.0469 6.5234-3.4688 10.145-4.1836 0.69141-2.1836 1.5391-4.3125 2.543-6.375 0.41406-26.746 4.7344-52.602 19.133-72.086v0.003906c-1.8672-1.8828-2.8164-4.4844-2.6055-7.125 0.13281-9.7578-1.457-19.465-4.6875-28.672-51.703 17.898-100.74 39.301-155.62 45.805-64.051 7.6133-71.25 69.477-91.004 118.65-23.117 57.469-39.711 116.51-60.148 174.88-11.457 32.711-23.586 68.023-49.031 92.652 24.375 43.473 54.242 79.688 97.586 104.79 19.754-19.199 45.055-31.754 65.625-50.129l-0.003906 0.003906c19.523-16.832 41.234-30.953 64.539-41.973 59.316-29.492 109.52-67.688 144.5-124.27 0.47266-2.5312 1.8945-4.7891 3.9766-6.3086 1.5781-2.3281 4.125-3.8164 6.9258-4.0508 28.137-24.121 65.242-36.598 89.793-64.52z"/>
 <path d="m517.5 244.16c3.1328 13.219 5.1055 26.691 5.8984 40.254 12.266-8.5195 25.281-15.91 38.887-22.078-1.6484-7.6992-2.3867-15.566-2.1953-23.438-4.4453 6.1094-10.09 11.242-16.594 15.086-8.4375 4.6875-13.789 4.875-14.477 3.6367-0.89062-1.5078 4.0508-4.8672 9.6016-10.219 7.5117-7.2148 13.668-15.715 18.18-25.098 4.6719-10.344 8.2539-21.145 10.695-32.23-0.80859-5.2148-3.5781-9.9258-7.7422-13.172-31.961-25.172-55.895 17.148-58.125 43.547-0.066406 0.91016-0.25 1.8086-0.54297 2.6719 7.6602 4.9883 13.438 12.391 16.414 21.039z"/>
 <path d="m588.17 190.19c0.72656 10.633-0.74219 21.301-4.3125 31.34-2.7891 10.461-3.5117 21.363-2.1289 32.102 2.9453-1.2383 5.8984-2.5391 8.8398-3.75h0.003906c9.4883-4.125 19.59-6.6602 29.906-7.5-1.5391-7.0664-2.5-14.25-2.8789-21.469-1.0977 0.47656-2.1289 1.0312-3.0938 1.5078-4.3867 1.3203-8.9297 2.0391-13.512 2.1289-6.5156 0.20703-11.523 1.0234-12-0.61719-0.41406-1.3672 2.6719-4.7344 10.312-7.4062v-0.003906c3.7578-1.1094 7.4453-2.4375 11.047-3.9727l2.2695-1.4453h-0.003906c0.71484-0.57031 1.3789-1.1953 1.9883-1.875 0.73438-0.65625 1.3398-1.4453 1.7812-2.3242l0.89062-1.3047 0.066406-0.074218c0.074219-3.8359 0.28125-7.7422 0.48828-11.719 0.40234-6.2422 1.6406-15.43 2.1953-24.965h-0.003906c-3.0625-10.992-4.6758-22.34-4.7969-33.75-0.91406-1.5312-2.0469-2.918-3.3672-4.1172-18.039-16.051-49.379 0.82422-54.449 21.742 8.1016 2.7734 15.27 7.7461 20.703 14.363 5.4336 6.6211 8.9141 14.621 10.055 23.109z"/>
 <path d="m639.38 169.21c2.4648 9.6641 5.6914 18.93 8.5039 28.258v-0.003906c3.5977 4.8984 7.8125 9.3086 12.543 13.125 1.8984 1.4531 4.0312 2.5625 6.3086 3.293 0.74219 0.25781 1.5 0.46484 2.2695 0.61719 0.68359 0.13281 1.0977 0.41406 1.1641 0.82422 0.066407 0.41406 0 0.81641-0.41406 1.3672v0.003906c-0.57422 0.78906-1.3945 1.3672-2.3359 1.6406-3.4961 1.1523-7.2969 1.0078-10.695-0.41406-1.4336-0.57422-2.832-1.2383-4.1797-1.9883 1.8867 9.3906 2.2578 19.023 1.0938 28.527-0.17187 1.125-0.51953 2.2109-1.0312 3.2266 5.7422 2.4805 11.156 5.6602 16.117 9.4688 12.695 9.6016 22.836 22.5 39.094 26.539 15.227 3.8359 30.656 6.168 46.152 8.9141v0.003906c-0.046875-0.058593-0.074219-0.13281-0.066406-0.20703-0.68359-0.875-1.2383-1.8438-1.6484-2.8789-5.3164-14.711-7.7617-30.305-7.1992-45.938-2.3164 0.55078-4.6836 0.85156-7.0586 0.89062-4.7461 0.089843-9.4805-0.48438-14.062-1.707-4.0312-1.0156-7.9727-2.3477-11.797-3.9844-6.5977-2.7539-12.605-6.7617-17.688-11.793-3.6992-3.5156-6.1953-8.1094-7.1367-13.125-0.41406-3.5703 0.54297-5.1484 1.1641-5.3516 0.89062-0.27344 1.6484 1.7812 3.2266 4.1172l-0.003907-0.003907c2.125 3.2734 4.875 6.0938 8.0938 8.2969 5.0469 3.3555 10.512 6.0312 16.254 7.9609 3.4102 1.1758 6.8945 2.1367 10.426 2.8789 3.5195 0.74609 7.1016 1.1602 10.695 1.2383 2.9844 0.027344 5.9453-0.53516 8.7109-1.6523 5.6211-27.574 3.4336-56.172-6.3086-82.574-9.8047-26.879-33.188-68.23-68.102-64.688-23.664 2.4648-33.75 26.617-35.625 49.039 1.3281 4.2227 2.25 8.5625 2.7461 12.957 0.73828 7.6836 1 15.406 0.78906 23.121z"/>
 <path d="m374.75 585.07c11.227-5.7539 21.973-12.402 32.129-19.883-0.13672-0.61719-0.20703-1.2461-0.20703-1.875-0.20703-14.336-1.7812-31.059-2.8789-48.414-12.402 6.3242-22.141 16.867-27.465 29.73-5.3242 12.863-5.8828 27.203-1.5781 40.441z"/>
 <path d="m562.8 516.29c-12.188 1.2383-20.785 13.031-27.508 22.152v0.003906c-3.207 4.0117-6.1836 8.2031-8.9141 12.551-3.75 6.918 5.3516 8.9141 8.6445 10.969 7.5469 6.0039 15.629 11.305 24.141 15.844 11.453-17.105 20.391-35.766 26.539-55.414-6.5508-4.9375-14.766-7.1289-22.902-6.1055z"/>
 <path d="m664.69 455.62c11.07-5.082 22.594-9.1016 34.426-12 0.15625-1.1406 0.71875-2.1836 1.582-2.9453-3.7031-16.398-9.4688-38.953-29.016-38.953-11.383 0-27.188 4.3125-32.297 15.938-4.2344 9.8828 11.812 45.34 25.305 37.961z"/>
 <path d="m821.48 951.37c12.188-23.867 22.078-48.695 32.711-73.453-22.566-38.539-61.875-58.902-89.156-93.133-7.6016 43.242-12.09 86.973-13.438 130.86-0.69531 20.09-1.0977 40.801-3.6367 61.105 7.3945-2.8242 14.977-5.1172 22.699-6.8594 17.297-5.1406 34.27-11.324 50.82-18.516z"/>
 <path d="m1123.6 881.82c-20.438-51.227-45.816-100.81-68.586-151.08-21.047-46.359-43.613-92.859-80.305-129.14-16.727-15.984-32.074-33.348-45.883-51.906-17.148-22.227-37.84-41.48-61.238-56.992-32.023-23.324-53.766-51.648-88.266-70.434-2.3984 17.559-4.8008 35.184-5.7578 53.082h0.003907c-0.09375 1.5859-0.53906 3.1328-1.3047 4.5273 13.629 29.625 32.422 56.586 55.5 79.621 1.0977 0.13281 2.1953 0.27344 3.3555 0.33594 8.2969 0.68359 16.191 1.0312 22.086 1.875 5.8984 0.84375 9.5352 2.2578 9.5352 3.8438 0 1.5859-3.5703 3.0859-9.3281 4.3203v0.003906c-6.4297 1.2812-12.988 1.832-19.547 1.6406 0.89063 0.47656 1.7812 1.0312 2.7383 1.5078 7.4258 4.3555 15.074 8.3164 22.914 11.871 2.9453 1.3047 5.2773 2.2578 6.9922 3.0195 1.9883 0.68359 3.0195 1.4336 3.0859 2.1953 0.066407 0.75781-1.0977 1.5742-3.0195 2.2578v-0.003906c-2.9883 0.70312-6.082 0.83984-9.1211 0.41406-9.3906-1.5508-18.398-4.8789-26.543-9.8047-1.3672-0.75781-2.6055-2.5391-3.8359-2.5391-14.27 0-21.469-13.922-29.352-23.438v-0.003906c-13.52-16.469-25.598-34.074-36.094-52.621-14.68-25.648-17.898-56.164-33.676-80.852-11.176-17.625-26.812-35.867-48.75-39.508-22.5-3.8438-35.867 5.418-41.906 19.613l0.003906 0.003906c10.387-9.2461 24.266-13.547 38.062-11.797 24.555 3.6367 31.273 29.625 36.008 50.539v0.003906c0.054687 0.45703 0.074219 0.91797 0.066406 1.3789 1.1445 1.5625 1.3086 3.6406 0.42578 5.3672-0.88672 1.7266-2.668 2.8047-4.6094 2.7891-20.578 0-29.352 10.633-44.371 15.43-7.6133 2.4648-15.938-4.3203-20.297-9.4688-0.9375-1.0977-1.875-2.3984-2.8867-3.6289 10.566 27.844 28.332 53.438 42.113 79.547 34.152 64.398 43.273 138.33 76.668 202.66 26.953 51.918 80.625 78.523 111.04 127.14 2.9727-7.7227 5.5352-15.598 7.6758-23.59 1.875-8.3633 3.2891-13.781 4.9414-13.781 1.5078 0.13281 2.9453 5.4844 3.2891 14.336-0.49609 11.984-3.2891 23.758-8.2305 34.688l-0.82422 1.6484c-0.12891 0.96875-0.37891 1.9141-0.75 2.8125-18.383 42.188-33.816 84.141-60 122.41-19.961 29.211-41.25 57.469-58.293 88.406 52.051 1.0234 103.9 5.8203 155.95 6.9922 55.48 1.3047 111.17-0.28125 166.59 3.3555 24.824 1.6484 48.75 7.6133 53.691-25.715 2.9531-19.883 2.8867-39.918 3.9102-59.945 2.4805-47.113 4.0938-88.195-13.871-133.39z"/>
 <path d="m718.06 841.36c6.0391 7.4258 11.559 15.258 16.527 23.438 2.6367-34.84 7.3516-69.488 14.129-103.76-14.262-25.406-25.602-52.348-33.805-80.309-14.746-46.359-27.094-93.75-50.82-136.61-17.418-31.547-43.199-65.84-48.965-102.11l-0.003906 0.003906c-1.832-9.9648-2.9102-20.051-3.2227-30.18l-0.33594 0.066406h-0.003906c-2.75 0.67188-5.5508 1.1328-8.3711 1.3789-2.8789 0.20703-5.625 0.27344-8.1562 0.33594-2.5312 0.066406-4.6875-0.20703-6.7227-0.41406-8.0234-0.68359-12.891-2.0547-13.031-3.6289s4.875-3.1602 12.684-4.5273c1.9961-0.27344 4.1172-0.61719 6.3828-0.9375 2.2695-0.32031 4.3203-0.89062 6.7227-1.2266h0.003906c2.6211-0.49219 5.207-1.1562 7.7422-1.9883l2.1289-0.55469 1.0312-0.27344h0.13281l0.074219 0.20703 0.066406-0.14062-0.003906 0.003906c0.15625-0.082031 0.31641-0.14844 0.48047-0.20703 0.44922-6.3633 2.5664-12.5 6.1445-17.785 3.5781-5.2852 8.4844-9.5352 14.227-12.316 8.9258-4.1289 18.516-6.6367 28.32-7.4062 5.6992-3.6562 11.195-7.6172 16.465-11.871 4.1797-3.9102 7.4062-6.3086 8.8398-5.4844 1.4336 0.82422 0.55469 4.7344-2.5312 10.695v0.003906c-1.6641 2.5352-3.5469 4.9219-5.625 7.1328 11.988 1.3359 23.41 5.8047 33.121 12.957 20.566 15.375 36.297 36.32 45.328 60.355 5.4922-40.809 12.898-81.273 3.4297-121.53-28.734-5.625-58.914-6.6484-83.531-23.859-11.445-7.9609-22.969-25.312-37.5-27.301-26.129-3.6367-46.023 7.5-68.305 17.812-30.309 12.914-55.602 35.324-72.074 63.855-13.039 22.246-29.152 42.539-47.867 60.281-0.58594 1.5625-1.582 2.9336-2.8906 3.9727-36 29.625-24.477 95.195-21.562 140.62 14.746-11.793 29.211-24.066 44.645-35.043-3.3984-0.64062-6.6641-1.8438-9.6641-3.5625-2.4062-1.1406-4.6172-2.6484-6.5625-4.4609-1.5195-1.1016-2.7969-2.5-3.75-4.1172-1.6406-2.3984-2.3242-4.0391-1.7812-4.6875 1.0312-1.5742 6.7227 3.3555 15.227 5.6914h-0.003907c5.2617 1.5 10.73 2.1328 16.191 1.875 1.793-0.13281 3.5781-0.36719 5.3438-0.69531 8.6367-5.3906 17.699-10.066 27.094-13.988 27.637-11.383 72.188-28.527 90.73 5.832 16.941 31.48-20.914 85.789-37.727 109.25-30.746 42.91-77.379 58.539-113.64 93.387 15.086 70.707 35.867 140.32 49.688 211.23 6.1055-12.742 14.387-24.324 24.477-34.219 9.2617-8.9141 15.703-13.031 16.875-12 1.1719 1.0312-3.4961 7.5-10.633 17.352l0.003906 0.003907c-9.4922 12.371-17.246 25.984-23.043 40.461l-1.0977 3.1484-0.55469 1.5078-0.13281 0.34766v0.13281l-0.074219 0.20703 0.074219 0.066406v0.14062l-0.12109 0.21484c-0.41406 1.7812-0.89063 3.5625-1.2383 5.2773 13.238 64.539 37.727 148.89 116.04 148.89 82.359 0 103.89-72.289 106.88-140.93 0.82422-18.383 1.7812-36.695 3.0195-54.938-1.1641-2.4648-2.3984-4.9297-3.7031-7.5-6.7227-12.758-13.648-24.281-18.102-33.055-4.4531-8.7734-6.4492-14.746-5.0703-15.57 1.3789-0.82812 5.7266 3.5859 11.961 11.059zm-146.62-120.94c6.0586-5.3203 12.938-9.625 20.371-12.75 17.352-7.1328 32.23-8.9141 33.195-5.9727 1.0977 3.0859-12.281 9.8828-28.602 16.594-15.355 6.5156-29.062 13.855-30.863 10.836-0.8125-1.4023 1.4453-4.6289 5.8984-8.7461zm78.32 21.883c-11.363 10.328-23.516 19.75-36.348 28.18-14.738 9.7422-27.977 18.516-37.648 24.898-9.6641 6.5625-15.938 10.426-17.07 9.1875-1.1328-1.2383 3.3555-7.1328 11.727-15.43 11.387-10.375 23.586-19.824 36.477-28.258 14.746-9.7422 28.051-18.582 37.727-25.031 9.5352-6.4492 15.844-10.219 16.941-9.0469 1.0938 1.1719-3.293 7.0898-11.805 15.461z"/>
</svg>
