<?xml version="1.0" encoding="UTF-8"?>
<svg width="1200pt" height="1200pt" version="1.1" viewBox="0 0 1200 1200" xmlns="http://www.w3.org/2000/svg">
 <path d="m231.98 369.32c-37.969 1.5-80.391 2.0625-117.09-0.09375-24.75-1.5-47.016-4.2656-63.844-8.7188-12.562-3.3281-22.406-7.7812-28.641-12.938-24.328-16.406-22.359-48.469-22.359-48.469 0.375-5.2969 4.0781-9.7969 9.2344-11.203 194.58-52.359 290.34-86.766 346.78-105.94 39.609-13.453 60.891-19.453 82.219-19.453 0.75 0 1.5 0.046875 2.25 0.1875 0 0 19.828 3.6562 32.906 18.094 7.7344 8.5781 13.641 22.172 17.672 37.266 6.3281 24.047 8.2031 51.797 8.7188 63.516 22.359 19.219 129.56 111.94 212.76 193.13l0.46875-74.719c-0.5625-65.109 14.156-83.484 22.219-105.47 0.09375-0.28125 0.23437-0.5625 0.32812-0.84375l78-173.81c2.3906-5.3438 8.25-8.2969 14.016-7.0781 1.6875 0.32812 3.1875 1.0312 4.5469 1.9688l160.6 73.875c3.1406 1.4531 5.5781 4.2188 6.6562 7.5469s0.70312 6.9844-1.0312 10.031c-12.281 21.562-74.953 180.84-85.312 207.14 4.6406 19.125 24.422 104.06 24.422 149.16 0 0.32812 0 0.65625-0.046875 0.98438 0 0-5.1562 64.828-26.297 112.92-5.5312 12.422-21.281 46.594-30.891 66.328 4.5 19.125 7.2656 38.484 7.2656 57.281v9.0469c54.891-6.8906 184.78-21.562 300-21.562 6.8906 0 12.469 5.5781 12.469 12.516v274.97c0 6.8906-5.5781 12.516-12.469 12.516h-275.02c-58.125 0-81.656-0.84375-114.19-17.062-42.141-21-69.188-64.641-90.656-104.44-8.3906-15.562-118.45-201.52-207.74-352.13-22.266 10.359-106.22 47.062-182.48 48.562l-146.48 134.29c-2.5781 2.3438-6.0938 3.5156-9.5625 3.2344-3.5625-0.32812-6.75-2.1562-8.8594-4.9688l-112.5-150c-4.0312-5.3438-3.0938-12.938 2.0625-17.156l133.18-108.94c1.125-16.359 6.5156-36.469 14.016-57 13.125-36 32.344-73.406 42.703-92.578zm255.14 222.98c-24.094 11.109-103.59 45.188-174.61 45.188-3.1406 0-6.1406 1.1719-8.4375 3.2812l-139.82 128.21-97.031-129.42 128.21-104.91c2.9062-2.3438 4.5938-5.9062 4.5938-9.6562 0-20.25 9.75-48.656 21.047-75.609 17.672-42.188 39.797-80.672 39.797-80.672 0.14062-0.23438 0.28125-0.51562 0.42187-0.75l2.4844-0.1875 68.391-80.578c0.46875-0.5625 0.98438-1.125 1.5-1.6875 13.688-14.25 32.766-23.016 53.859-23.016 41.156 0 75 33.75 75 75.75 0 19.781-7.5 37.781-19.688 51.188l-43.406 55.078c17.812 29.953 50.25 84.656 87.703 147.79zm338.11 17.578c13.734 24.328 31.453 58.969 44.531 96.891 7.4062-15.891 15.047-32.625 18.469-40.453 18.656-42.281 23.766-98.531 24.281-104.48-0.23438-49.266-24.609-146.34-24.609-146.34-0.65625-2.4844-0.46875-5.1562 0.46875-7.5469 0 0 60.141-153.24 82.312-201.94l-139.5-64.219-72.562 161.68c-7.4062 20.016-21.094 36.984-20.531 96.422l-0.375 74.344-68.016 86.297c-12.188 13.453-19.688 31.406-19.688 51.188 0 42.047 33.844 75.797 75 75.797 21.094 0 40.172-8.8125 53.859-23.062 0.51563-0.51562 1.0312-1.125 1.5-1.6875zm21.797-64.312-85.688 101.02c-0.1875 0.1875-0.32812 0.375-0.51562 0.5625-9.0938 9.4688-21.797 15.328-35.812 15.328-27.516 0-50.016-22.641-50.016-50.766 0-13.547 5.25-25.875 13.781-34.969l76.406-96.984c4.2656-5.4375 12.141-6.375 17.578-2.1094 5.3906 4.3125 6.375 12.188 2.0625 17.578l-76.781 97.453c-0.23438 0.32812-0.51563 0.60938-0.79688 0.89062-4.5 4.6875-7.2188 11.109-7.2188 18.141 0 14.156 11.109 25.781 24.984 25.781 6.8438 0 13.078-2.8594 17.578-7.4062l85.406-100.69c4.4531-5.25 12.328-5.9062 17.625-1.4531 5.25 4.4531 5.9062 12.375 1.4062 17.625zm-581.53-141.19 85.688-101.02c0.1875-0.14063 0.375-0.375 0.51563-0.51563 9.0938-9.4688 21.797-15.375 35.812-15.375 27.516 0 50.016 22.688 50.016 50.766 0 13.594-5.25 25.875-13.781 35.016l-76.406 96.938c-4.2656 5.4375-12.141 6.375-17.531 2.1094-5.4375-4.2656-6.375-12.141-2.1094-17.531l76.781-97.453c0.28125-0.32812 0.51562-0.60937 0.79687-0.9375 4.5-4.6875 7.2188-11.062 7.2188-18.141 0-14.109-11.109-25.734-24.984-25.734-6.8438 0-13.031 2.8125-17.531 7.4062l-85.453 100.69c-4.4531 5.25-12.328 5.9062-17.625 1.4062-5.25-4.4531-5.9062-12.328-1.4062-17.625z" fill-rule="evenodd"/>
</svg>
