<?xml version="1.0" encoding="UTF-8"?>
<svg width="1200pt" height="1200pt" version="1.1" viewBox="0 0 1200 1200" xmlns="http://www.w3.org/2000/svg">
 <path d="m140.73 1097.1c0 15.535-16.789 28.125-37.5 28.125-20.711 0-37.5-12.59-37.5-28.125 0-15.531 16.789-28.125 37.5-28.125 20.711 0 37.5 12.594 37.5 28.125z"/>
 <path d="m215.73 1003.4c0 15.535-16.789 28.125-37.5 28.125-20.711 0-37.5-12.59-37.5-28.125 0-15.531 16.789-28.125 37.5-28.125 20.711 0 37.5 12.594 37.5 28.125z"/>
 <path d="m300.1 1078.4c0 15.535-16.789 28.125-37.5 28.125-20.711 0-37.5-12.59-37.5-28.125 0-15.531 16.789-28.125 37.5-28.125 20.711 0 37.5 12.594 37.5 28.125z"/>
 <path d="m147.37 227.93c-17.316-17.305-26.242-40.211-25.164-64.5 1.1445-25.461 13.406-51.113 34.539-72.242 43.004-43.012 99.227-46.867 136.74-9.375 21.441 21.441 31.398 53.277 26.082 81.965l-116.06 89.277c-20.945-1.5117-41.73-10.707-56.137-25.125zm71.766 36.758 108.75-83.652 44.242 38.344-118.74 94.977zm44.934 65.156 122.48-97.977 316.11 273.96c-31.648 0.38281-65.727 0.60156-102.54 0.60156-85.855 0-157.12-1.1328-216.35-3.0195zm413.79 129.68-32.277-27.977c403.64 1.9688 454.16 29.758 460.38 37.352-1.7891 2.0234-8.1289 6.543-30.289 11.773-96.836-21.391-249.51-21.344-397.81-21.148zm341.28 30.582c-54.742 6.7305-143.74 12.965-288.32 15.32l-31.359-27.18c115.59-0.11328 231.84 0.53516 319.68 11.859zm-674.6-10.555 15.898 23.055c-83.156-3.0859-140.42-7.6875-179.83-12.555 42.734-5.5586 95.762-8.9062 163.93-10.5zm-220.04 1.1133c-22.004-5.1953-28.387-9.6953-30.215-11.738 4.0977-4.4609 32.316-22.633 220.99-31.82l16.547 23.992c-93.555 2.5625-158.11 8.6758-207.32 19.566zm-96.262-11.734c0-12.301 18.844-53.727 258.21-73.613l16.32 23.664c-227.52 11.926-227.65 37.5-227.65 49.949 0 6.7891 0.027344 18.543 45.168 29.551 1.3047 0.67578 2.7109 1.1523 4.2266 1.1523 0.14844 0 0.30078-0.046874 0.44922-0.046874 59.398 13.5 189.62 25.594 475.15 25.594s415.74-12.094 475.15-25.594c0.14844 0.007812 0.30078 0.046874 0.44922 0.046874 1.5195 0 2.9141-0.47656 4.2188-1.1445 45.148-11.016 45.188-22.773 45.188-29.559 0-16.461-0.046876-54.957-501.25-56.203l-32.477-28.145c2.9336-0.007812 5.7656-0.027343 8.7266-0.027343 544.3 0 571.88 70.285 571.88 84.375 0 5.082-3 14.043-19.66 24.301-0.027344 0.019531-0.054687 0.039062-0.085937 0.054687-17.055 10.473-48.348 22.293-105.31 32.719-98.98 18.121-249.31 27.301-446.81 27.301-544.31 0-571.88-70.297-571.88-84.375zm69.504 168.06c-1.3516-10.574-2.5977-20.297-4.0039-28.949-5.5039-33.852-13.586-59.852-26.898-85.164 84.723 32.672 263.06 49.172 533.26 49.172 270.19 0 448.52-16.5 533.25-49.164-13.312 25.32-21.383 51.32-26.879 85.164-1.3984 8.6445-2.6445 18.348-4.0039 28.895-10.191 79.492-27.242 211.89-178.64 287.58-51.047-37.273-119.98-53.652-173.87-52.461-5.043 0.12109-9.0859 4.1992-9.1602 9.2422-0.47656 34.867 1.1055 66.094 4.6211 94.051-44.324 6.0195-93.047 9.1953-145.33 9.1953-457.88 0.003907-486.8-226.09-502.34-347.56zm502.37 413.19c-118.86 0-228.7-2.0352-266.86-26.633-4.5742-2.9453-5.0352-8.4922-5.0156-10.742 0.027344-4.7148 2.0078-9.1016 4.9023-10.922 0.35547-0.21484 0.70312-0.46875 1.0234-0.74219l29.699-24.711c63.102 16.895 140.67 26.887 236.25 26.887 53.203 0 102.84-3.2422 148.05-9.4023 3.2266 19.18 7.5078 36.609 12.883 52.266-47.234 3.4453-104.96 4-160.93 4zm363.69 64.105c-48.965-70.762-128.74-142.9-132.34-146.15-3.8438-3.4492-9.7695-3.1484-13.238 0.69531-3.4609 3.8438-3.1484 9.7773 0.69531 13.238 0.88281 0.78906 84.234 76.164 131.81 146.32-53.805 11.961-95.102 6.3672-125.66-17.492-43.895-34.273-65.934-108.32-65.586-220.14 68.551 1.0312 154.65 31.359 193.86 89.953 1.6406 2.4453 3.1797 4.9297 4.6328 7.4453 0.14844 0.23438 0.23438 0.49609 0.41406 0.72266 20.641 36.082 22.43 78.156 5.4141 125.41zm142.67-3.3867c-30.543 23.852-71.867 29.445-125.64 17.484 47.559-70.117 130.92-145.52 131.8-146.3 3.8438-3.4609 4.1523-9.3945 0.69531-13.238-3.4609-3.8516-9.3945-4.1523-13.238-0.69531-3.0664 2.7578-61.227 55.398-108.68 114.61 5.9922-36.066 1.0586-69.602-14.68-99.242 38.438-60.449 124.69-91.773 195.35-92.758 0.33984 111.84-21.719 185.87-65.602 220.14z"/>
</svg>
