<?xml version="1.0" encoding="UTF-8"?>
<svg width="1200pt" height="1200pt" version="1.1" viewBox="0 0 1200 1200" xmlns="http://www.w3.org/2000/svg">
 <path d="m733.62 459.2c-1.457-1.25-3.5273-1.4844-5.2266-0.59375-1.6992 0.89063-2.6875 2.7266-2.4883 4.6367 2.8555 21.793 7.3711 43.336 13.5 64.441l1.9883 7.5938c0.33984 1.3086 1.2266 2.4062 2.4375 3.0117 0.64062 0.28906 1.2266 0.68359 1.7344 1.1719 4.3242 4.543 9.7852 7.8477 15.816 9.5703 0.42188 0.11719 0.85547 0.17578 1.293 0.17969 2.1836-0.003906 4.0781-1.5156 4.5664-3.6484 7.5625-33.188-11.43-67.293-33.621-86.363z"/>
 <path d="m135.54 340.77c-1.9961-4.5938-2.7539-9.6328-2.1953-14.609 0.61719-4.8008 1.9219-6.7969 2.5312-6.8633 0.9375 0 0.9375 2.8125 1.7891 6.8633h0.003906c0.78516 5.5742 3.1953 10.789 6.9258 15 5.9219 5.7969 13.809 9.1445 22.09 9.375l1.7812 0.074219c0.14062 0 0.47656 0.066407 0.61719 0.066407h0.066406l0.9375-0.066407v0.003907c1.2539 0.023437 2.5117-0.070313 3.75-0.28125 2.2695-0.57031 4.4922-1.3047 6.6562-2.1953 6.2383-3.1875 13.273-4.4922 20.238-3.75 3.5117 0.52344 6.918 1.6133 10.078 3.2266 6.6562 3.4961 11.934 7.1328 17.016 10.359 1.3047 0.89063 2.4648 0.75 3.7031 1.4336l0.41406-1.1641 1.0312 1.875 2.1172 2.2578c2.8867 1.0977 5.625 2.1953 8.3711 3.2266 5.418 2.3984 10.5 3.5625 15.301 5.2109 4.8008 1.6484 9.3281 2.8789 13.586 4.0508 16.801 4.8672 27.367 8.0234 27.027 9.6641-0.34766 1.4453-11.324 1.1719-28.883-1.707v0.003906c-4.8516-0.65234-9.6602-1.5898-14.402-2.8125-5.5195-1.1562-10.973-2.625-16.328-4.3984-2.7422-0.88672-5.5547-1.8477-8.4375-2.8789l-2.1953-0.68359-1.0977-0.41406-0.27344-0.074219-0.69531-0.33594-0.13281-0.066407-0.55469-0.28125c-1.5078-0.81641-3.1484-1.6406-4.5273-2.5312-5.6914-3.4297-10.977-7.2734-16.258-10.023l0.007812 0.003906c-2.043-1.0508-4.2109-1.8359-6.4492-2.3359l-0.41406-0.066406c-4.9609-0.43359-9.9453 0.51953-14.398 2.75-3.1602 1.2148-6.457 2.043-9.8164 2.4648-1.4727 0.21094-2.9688 0.25781-4.4531 0.14062l-1.0312-0.066406c-0.46094 0.015625-0.92188-0.03125-1.3672-0.14062l-2.2031-0.20703c-1.6406-0.20703-3.2148-0.55469-4.6875-0.89062 50.625 34.293 109.83 52.5 171.02 65.852 36.363 7.8945 73.059 14.793 109.14 24.168 34.781 8.9922 68.258 22.023 102.98 31.219-11.531-10.914-18.113-20.992-15.852-23.531 2.6055-2.8789 15.648 5.1484 29.156 16.875 13.648 11.523 24.148 21.262 22.293 24.836-0.9375 1.875-6.5625 0.82422-13.789-2.6719 15.094 34.688 18.461 80.738 43.125 108.59h-0.003906c9.5391 8.8281 17.438 19.281 23.324 30.871 2.3984 6.375 6.0273 28.668 14.672 31.004-1.4336-5.5586-2.9453-11.316-4.2461-17.492v-0.003907c-3.9844-14.25-6.9883-28.762-8.9883-43.422-0.89062-11.316-0.47656-18.449 1.3789-18.797 1.8555-0.34766 4.9297 6.1797 8.2969 16.949 3.6367 10.633 8.2969 24.965 12.758 41.84 1.6484 7.4062 3.1602 14.477 4.2578 21.066h-0.003907c1.5234 0.94141 2.7734 2.2617 3.6289 3.832 2.1289 3.8438 7.5 7.8281 11.867 5.418l0.003906 0.003907c0.38281-0.48438 0.79688-0.94141 1.2344-1.3711-0.27344-0.82422-0.47656-1.5742-0.75-2.4648-1.5508-4.9375-2.7422-9.9844-3.5703-15.094-1.875-10.426-2.4648-20.102-3.1602-28.809-0.69531-8.7109-1.3672-16.332-2.0547-22.707-0.47656-3.0195-0.82422-5.9062-1.0312-8.4375-0.47656-2.6172-0.82422-4.875-1.1641-6.7305-0.47656-3.75-0.34766-6.0273 0.54297-6.375 0.89062-0.34766 2.4766 1.3047 4.5273 4.4609h0.003907c1.2734 1.9219 2.3984 3.9375 3.3672 6.0273 1.0312 2.5391 2.1953 5.5586 3.3555 8.9258 4.2305 16.863 7.3594 33.98 9.375 51.246 0.69531 4.625 1.6797 9.207 2.9453 13.715l0.14062 0.55469v-0.003906c0.85938-0.015626 1.7148 0.097656 2.5391 0.33984 2.9102 0.85156 6.0352 0.60938 8.7773-0.68359 0.9375-0.89063 2.1289-1.875 3.0195-2.6055 0.61719-0.47656 1.0312-0.89062 1.5078-1.3047 2.4922-3.6602 4.1562-7.8203 4.875-12.188 0.70703-2.0586 1.5312-4.0742 2.4648-6.0391-0.27344-0.55469-0.61719-1.0977-0.82422-1.6484-0.96875-2.2461-1.6836-4.5898-2.1289-6.9961l-0.28125-0.89844-0.27344-1.2383-0.27344-1.6406-0.55469-3.3008c-0.33594-2.1953-0.68359-4.4531-1.0234-6.7891-1.3789-9.1953-2.7461-17.699-3.75-25.586-1.1641-7.6875-2.2578-14.551-2.8789-20.512-2.3984-11.934-3.0859-19.621-1.2383-20.176 1.8477-0.55469 5.7656 5.9727 10.641 17.156 1.875 5.8984 4.1172 13.172 6.1016 21.195 1.6484 7.8828 3.4297 16.734 4.8008 25.789 0.61719 4.4609 1.2383 8.7109 1.875 12.898l0.007813 0.007813c0.24609 1.8281 0.67969 3.6211 1.3047 5.3555 0.12891 0.625 0.35938 1.2266 0.68359 1.7812 0.035156 0 0.066406 0.027344 0.066406 0.066406 28.406-5.5586 5.6992-87.871 1.4453-104.89-7.6133-30.73-16.668-58.52-17.352-90.207-14.68-8.3711-29.57-16.125-44.867-23.438-43.902-21-87.188-43.426-132.39-61.473-85.133-33.957-168.89-71.25-253.34-106.94h-0.003907c-1.3203-0.51172-2.4961-1.3359-3.4336-2.3984-54.375-11.738-113.95-16.68-163.54 11.859 0.75 19.352 3.75 38.484 4.8672 57.836 6.1992 6.3906 12.574 12.363 19.164 17.914zm500.57 198.05c3.0859-0.75 6.4492 1.7891 7.1992 6.2422 0.75781 5.625-2.3984 8.0234-5.4844 8.1016-3.2266 0-5.4844-4.0508-5.9727-6.3828l0.003906-0.003906c-0.73438-3.3398 1.0703-6.7148 4.2539-7.957zm-36.629 5.0078c2.8789-1.293 7.6797 2.8125 10.633 9.2617 2.9531 6.4492 3.0859 12.836 0.20703 14.203-2.8789 1.3672-7.6875-2.8125-10.707-9.375-3.0195-6.5664-3.082-12.715-0.12891-14.094zm-204.7-169.58c23.531 9.0547 43.492 14.68 42.938 18.254-0.27344 1.5742-5.6914 1.7812-14.336 0.9375-11.277-1.4219-22.34-4.2305-32.926-8.3711-25.105-10.566-40.883-24.281-39.582-26.82 1.5781-3.2109 20.992 6.5312 43.906 16z"/>
 <path d="m781.46 481.06c13.836-15.707 30.746-28.406 49.688-37.312 22.707-9.375 45.348-8.0352 69.086-9.543 0.27344-2.2578 0.60938-4.5195 0.9375-6.7891-63.113-9.8828-126.91-5.4844-190.5-2.9531 2.3984 1.3789 4.6875 2.6055 7.0703 3.9844 24.176 13.645 45.75 31.457 63.719 52.613z"/>
 <path d="m799.3 572.64v-0.074219h-0.28125c0.074218 0 0.20312 0.074219 0.28125 0.074219z"/>
 <path d="m794.57 497.11c2.1289 2.8125 4.3203 5.5586 6.5156 8.5117 1.5273 1.9336 2.1758 4.4219 1.7812 6.8555 1.7852-2.2656 3.7344-4.3945 5.8281-6.375 3.0195-2.6719 5.9727-5.2773 8.7188-7.7539 4.9414-4.1055 10.094-7.9531 15.434-11.523 8.9805-6.2422 15.227-9.4688 16.461-8.0234 1.2383 1.4453-2.6055 7.1992-9.8828 15.367-3.6289 4.0508-8.5039 8.5703-13.379 13.648l-7.6094 7.8086c-2.6719 2.6055-4.8008 5.7656-7.4062 8.7109-4.7812 5.207-8.5703 11.242-11.184 17.812-2.6055 6.1016-4.5938 12.281-6.7227 17.492-0.61719 1.5078-1.2266 2.8789-1.875 4.1797-0.14062 0.83984-0.21094 1.6914-0.20703 2.543 0.050781 0.20312 0.070312 0.41016 0.066406 0.61719 0.035156 0.21875 0.10547 0.42578 0.20703 0.62109 0.0625 0.19922 0.10938 0.40234 0.14062 0.60938 0.14062 0.09375 0.23828 0.24219 0.26953 0.41016 0.14844 0.19922 0.28906 0.40625 0.41406 0.62109 0.097656 0.10547 0.21094 0.19922 0.33594 0.26953 0.14063 0.20703 1.4453 1.1055 1.4453 1.1719 0.50391 0.33594 1.0273 0.63281 1.5742 0.89062 0.28125 0.066406 1.9219 0.61719 1.9219 0.61719s1.3047 0.20703 1.875 0.33594h0.066406v0.003906c1.0625-1.8594 2.2773-3.625 3.6367-5.2773 7.5742-8.2422 16.363-15.273 26.062-20.852 7.7539-4.8086 14.203-8.2305 18.523-10.707 2.1953-1.1641 3.8438-2.1289 5.082-2.6719 1.2383-0.54297 2.0547-0.82422 2.3984-0.48828 0.34766 0.33594 0.20703 1.1055-0.41406 2.4102h0.003906c-1.0195 1.8203-2.2617 3.5-3.7031 5.0078-5.1016 5.1445-10.508 9.9766-16.191 14.477-7.9766 6.1211-15.27 13.09-21.75 20.781-1.7539 2.207-3.0195 4.7656-3.7031 7.5v0.066406c0.011718 0.12109-0.011719 0.23828-0.0625 0.34766 0.22266 0.38672 0.40625 0.80078 0.54297 1.2266 2.8125 8.8516 11.738 9.7422 19.211 5.832h-0.003906c0.82422-0.42969 1.6992-0.74609 2.6094-0.9375 4.1875-4.1367 8.6055-8.0273 13.234-11.66 10.023-6.7227 19.078-12.488 26.832-17.223 15.496-9.4609 25.648-14.539 26.82-13.031 1.1719 1.5078-7.0039 9.4688-21 20.926-6.9922 5.7578-15.57 12.414-24.965 19.613v-0.003906c-2.3906 1.9648-4.6367 4.0977-6.7188 6.3867 1.9961 1.2109 4.1094 2.2227 6.3086 3.0195 1.875-0.27344 3.75-0.61719 5.832-1.0977 5.543-1.7695 10.863-4.1875 15.844-7.1992 9.4219-6.1328 18.266-13.113 26.418-20.859 6.5625-5.832 10.969-9.8828 12.555-8.7734 1.5859 1.1055 0.19531 6.7891-5.0156 15l-0.003906-0.003906c-6.7891 10.77-15.93 19.863-26.734 26.598-0.41406 0.28125-0.89062 0.48828-1.3047 0.75781 0.058594 0.21875 0.14844 0.42969 0.27344 0.62109 0.27344 0.33594 0.54297 0.68359 0.82422 1.0977 15.637 25.996 78.066-41.914 85.883-53.102 16.234-23.805 30.176-49.094 41.645-75.523 28.371-65.723 51.984-133.39 70.648-202.5-42.047-0.81641-84.168-3.8359-125.88 1.9961 5.8984 59.27-29.062 109.48-33.195 168-0.11719 3.2305-1.8086 6.1992-4.5273 7.9492-1.793 2.3281-4.4844 3.8008-7.4141 4.0508-20.852 1.9883-44.316-1.875-64.07 6.3086-18.805 8.6016-35.605 21.039-49.32 36.516z"/>
 <path d="m624.51 775.08c-22.566-29.773-28.125-72.375-5.8984-104.2 1.1133-1.5977 2.625-2.875 4.3867-3.7031-2.6602-9.75-6.7227-19.066-12.066-27.648-15.57-20.305-30.121-35.531-38.277-60.301v0.003906c-7.168-25.992-16.062-51.477-26.625-76.285-24.965-6.0664-49.32-14.195-73.809-21.949-0.78906 1.9336-2.2539 3.5156-4.1172 4.4531-6.6016 2.5195-12.691 6.2148-17.969 10.914 4.3789 4.2305 7.3359 9.7188 8.4531 15.703 1.1211 5.9883 0.34766 12.172-2.2109 17.699-0.14062 0.28125-0.34766 0.48828-0.48828 0.75781v0.003907c0.054687 0.003906 0.10547 0.027343 0.14062 0.0625 0.47656-0.27344 0.9375-0.41406 1.5742-0.68359 3.3672-1.875 6.8633-4.4609 10.977-7.1992 3.75-2.6797 6.7969-4.2578 10.359-6.5625h0.003906c3.375-2.0977 6.9336-3.8906 10.629-5.3516 6.4141-2.7812 13.406-3.9609 20.375-3.4336 11.598 0.9375 17.57 3.75 17.57 5.1484-0.074219 1.7812-7.3398 1.7812-17.289 3.0195-5.7148 0.61328-11.258 2.3125-16.332 5.0039-3.1133 1.5938-6.1367 3.3555-9.0586 5.2773-2.8789 1.9961-6.9297 4.3984-9.8711 6.4492-2.7461 1.875-5.7656 3.9102-8.9258 5.6992v0.003906c8.8242 7.0039 17.211 14.539 25.117 22.566 1.5078 0.34766 3.0195 0.68359 4.6875 1.0977v-0.003906c14.66 4.293 28.551 10.867 41.164 19.484 12.52 8.625 23.551 19.238 32.656 31.414 6.6562 9.6094 9.3281 16.398 8.0898 17.156-1.4336 0.9375-6.4492-4.0508-14.27-11.805-10.32-9.8945-21.375-19-33.066-27.234-8.1914-5.4883-16.66-10.547-25.379-15.156 10.5 11.867 20.512 24.562 30.32 37.66 37.387 50.082 59.41 100.5 28.332 153.52 20.484 1.9023 40.379 5.1914 60.816 8.418z"/>
 <path d="m112.55 757.5c0.29688 0.34766 0.57031 0.71484 0.82422 1.0977 20.445 33.133 61.473 24.629 98.305 16.398-3.4961 0.54297-7.0703 0.75-10.5 1.1641l0.003907-0.003906c-14.434 0.69531-28.832-1.9805-42.047-7.8203-8.625-3.7031-16.934-8.1055-24.836-13.172-5.5586-3.4961-8.5039-5.832-8.0898-6.5156 0.41406-0.68359 3.9102 0.20703 10.078 2.5391 6.1797 2.1953 14.82 5.9609 25.66 9.4609 12.348 4.2852 25.457 5.9453 38.484 4.875 3.6367-0.61719 7.2734-0.75781 11.109-1.6484 3.9844-0.81641 8.0234-1.7148 12.422-2.3984 1.6406-0.27344 3.4297-0.47656 5.1484-0.61719l-0.82812-0.54688c-5.8477-4.3672-12.492-7.5508-19.555-9.375-6.6797-1.7969-13.492-3.0508-20.375-3.75-6.5625-0.75-12.824-1.1641-18.59-1.7812-9.1875-0.67578-18.273-2.3516-27.094-5.0078-6.1797-2.4766-9.3281-4.1914-9.0547-4.9414 0.27344-0.75 3.9102-0.47656 10.012 0.61719v0.003906c8.8438 0.87891 17.727 1.293 26.617 1.2383 5.6992 0.13281 11.945 0 18.871 0.40234 7.4102 0.28125 14.781 1.2578 22.012 2.9062 2.5039 0.46875 4.957 1.1562 7.3398 2.0547-4.543-5.6797-7.543-12.434-8.707-19.613-1.1953-7.832 0.30469-15.84 4.2539-22.707-7.6055 2.6406-15.551 4.1875-23.598 4.5938-17.016 0.82422-27.102-1.2383-27.102-2.6055 0-1.7148 10.312-2.5391 26.137-5.3516v-0.003906c8.9883-1.3906 17.68-4.2617 25.727-8.5 4.1562-2.1992 7.6055-5.5312 9.9453-9.6094 0.32031-0.71484 0.59766-1.4492 0.82422-2.1953-9.5039 5.3555-20.305 7.9883-31.207 7.6133-11.102 0.13672-22.031-2.7539-31.613-8.3633-6.8867-3.7383-11.945-10.133-13.988-17.699-0.41016-1.0742-0.57422-2.2227-0.48828-3.3672 0.074218-0.9375 0.074218-1.7812 0.14062-2.4648 0.20703-1.3047 0.47656-2.0625 0.82422-2.1289 0.34766-0.066406 0.89062 0.54297 1.5078 1.7148 0.27344 0.61719 0.61719 1.3672 0.9375 2.2578l0.003906 0.003906c0.24609 1.0078 0.71484 1.9453 1.3789 2.7461 3.1719 5.293 7.957 9.4258 13.648 11.805 8.6602 3.7578 18.086 5.4023 27.508 4.7969 5.5078-0.16797 10.969-1.0469 16.254-2.6055 5.3281-1.6055 10.242-4.3438 14.41-8.0234 0.82422-0.9375 1.6406-1.875 2.5391-2.8125l1.7812-1.9961h0.003907c-2.3555-10.383-2.6719-21.121-0.9375-31.625l-0.41406-0.89062c-4.1133-8.6875-9.8125-16.527-16.809-23.117-3.0977-3.0234-6.375-5.8633-9.8086-8.5039-1.5859-1.2383-3.1602-2.4766-4.6875-3.6367-1.5273-1.1641-3.0859-2.0625-4.5273-3.0195-11.316-7.6133-20.035-10.902-19.414-12.555 0.41406-1.2383 9.375-0.9375 23.324 5.5586 1.7148 0.81641 3.4297 1.7148 5.2891 2.6055 1.8555 0.89062 3.5625 2.1953 5.418 3.3555v0.003906c4.0273 2.5156 7.8594 5.3359 11.457 8.4375 5.2188 4.5547 9.9219 9.668 14.023 15.254 0.35547-2.0859 0.47266-4.207 0.34766-6.3203-0.43359-4.6133-1.6133-9.1289-3.4961-13.367-3.457-7.6094-8.0859-14.625-13.727-20.793-9.6758-10.969-17.625-15.938-16.809-17.559 0.55469-1.3047 10.359 1.3047 22.574 11.727 7.2734 6.1562 13.266 13.688 17.625 22.164 0.19922 0.28906 0.35938 0.60547 0.47656 0.9375 3.9922-21.375 14.887-40.844 31.016-55.426 21.195-18.656 53.785-24.488 82.801-26.25h-0.003906c-14.09-13.258-30.48-23.836-48.363-31.219-4.3867-1.3672-10.078-3.2891-16.875-5.418-16.672-4.0938-34.102-3.9297-50.691 0.47656 4.8008 0.20703 9.7422 0.20703 14.336 0.41406 2.7461 0.074218 5.6914 0.28125 8.6445 0.61719h-0.003907c2.5859 0.24219 5.1523 0.65625 7.6797 1.2383 4.8594 0.99609 9.5664 2.6289 13.996 4.8633 6.2227 3.2734 11.602 7.9453 15.715 13.652 2.8789 3.8438 3.9102 6.2422 3.4297 6.7969-0.61719 0.54297-2.8125-0.9375-6.5625-3.75-4.7891-3.9648-10.164-7.1562-15.938-9.4609-3.9453-1.3984-8.0312-2.3672-12.188-2.8867-2.3984-0.13281-5.1484-0.68359-7.4062-0.61719-2.2578 0.066407-4.8086-0.066406-7.6211 0-5.3438 0.14063-11.316 0.34766-17.699 0.20703v-0.003906c-5.75-0.23438-11.434-1.293-16.875-3.1484-0.40234 0.20703-0.81641 0.41406-1.1641 0.61719l0.61719 0.33594 0.20703 0.074219 2.7383 1.6406v0.003906c3.582 2.1133 6.9766 4.5234 10.152 7.2109 5.6992 4.5938 10.203 10.5 13.125 17.211 1.1836 2.6016 1.9219 5.3867 2.1953 8.2305 0.39844 2.0625 0.42578 4.1758 0.074219 6.2461-0.61719 3.1602-1.3047 4.9414-2.0625 4.9414-1.875 0.27344-2.1289-7.7539-7.5-15.711v-0.003906c-8.125-10.828-19.41-18.871-32.297-23.016-0.9375-0.20703-1.875-0.34766-2.8867-0.47656-0.13281 0-0.27344 0.066406-0.47656 0.066406l-0.003907-0.003906c-8.2344-0.25781-16.48-0.03125-24.691 0.6875-0.9375 0.14062-1.9883 0.34766-2.8789 0.47656-0.63281 0.15234-1.2734 0.26562-1.9219 0.34766 4.0547 1.2461 8.0391 2.7109 11.934 4.3867 10.758 4.7539 20.875 10.84 30.113 18.113 15.844 12.281 21.883 24.074 20.371 24.836-1.3047 0.75781-8.9141-8.1641-25.105-18.18-9.3242-5.8906-19.176-10.898-29.43-14.953-11.762-5.2188-24.738-7.0938-37.5-5.418-4.1406 2.1836-8.0664 4.7539-11.727 7.6758 2.0664 0.36328 4.0898 0.9375 6.0391 1.7148 5.3164 2.3789 9.9141 6.1211 13.32 10.848 4.832 7.0547 8.6641 14.742 11.391 22.848 2.3984 6.4492 4.2461 11.598 5.625 14.812 1.4336 3.4297 2.2578 5.4922 1.6406 5.9062s-2.2578-0.68359-4.8008-3.6367c-3.3828-4.3164-6.3555-8.9375-8.8867-13.801-3.4531-6.8477-7.5898-13.328-12.348-19.34-6.3828-7.0703-26.887-16.875-28.949-0.41406 0.47266 5.9609 1.6016 11.848 3.3672 17.559l0.066407 0.41406c0 0.066406 0.20703 0.68359 0.20703 0.68359l0.47656 1.5078 1.0312 3.0195c0.61719 2.0625 1.2383 4.0508 1.9219 6.0391 2.9062 7.5625 6.3203 14.918 10.219 22.023 3.4297 7.0586 7.8203 13.125 11.457 19.07 4.1797 5.5586 7.6133 11.184 11.523 15.637 14.617 18.59 26.758 27.992 25.594 29.43-0.55469 0.69531-3.9102-1.0977-9.6758-4.6875l-0.003906-0.003906c-3.5156-2.3203-6.8633-4.8867-10.012-7.6875-4.25-3.6484-8.2812-7.543-12.074-11.664-4.6367-4.8945-9.0156-10.02-13.125-15.363-4.6562-6.2305-8.9609-12.711-12.902-19.418-4.4453-7.4453-8.3242-15.215-11.594-23.25-0.68359-2.1953-1.4336-4.3984-2.1953-6.5625l-1.1641-3.2891-0.55469-1.6484-0.27344-0.89063-0.27344-1.3047c-0.41406-2.2578-0.82422-4.8008-1.1641-7.3398-1.3125 2.7461-2.5391 5.418-3.5703 8.1641h0.007813c-2.3672 6.9062-3.7305 14.113-4.0508 21.402-0.15625 12.57 2.2734 25.039 7.1328 36.629 8.2305 20.305 15.852 32.043 14.344 33-1.0312 0.68359-10.914-9.2617-21.562-29.773-6.4688-12.359-9.9961-26.047-10.312-39.996 0-0.81641 0.066406-1.6406 0.066406-2.4648-1.2266 2.3359-2.4648 4.7344-3.6289 7.1328l-0.41406 1.875c-0.48828 2.1953-0.9375 4.5195-1.4453 6.9297-0.50781 2.4102-0.47656 5.0078-0.82422 7.6133h0.003906c-0.53125 5.6094-0.64453 11.25-0.33984 16.875 0.86328 12.832 3.4883 25.48 7.8125 37.594 4.6641 12.059 10.891 23.453 18.523 33.891 3.3828 4.5 7.0742 8.7656 11.043 12.758 1.9219 1.875 3.5625 3.8438 5.4844 5.4844 1.9219 1.6406 3.7031 3.0859 5.418 4.5273 14.203 11.316 25.105 15.637 24.375 17.559-0.27344 1.0977-12.555-0.47656-29.223-10.902l-6.3086-4.3203c-2.1953-1.5742-4.1797-3.4961-6.3828-5.3516-4.6172-4.0664-8.9258-8.4688-12.891-13.172-8.8242-10.98-15.875-23.273-20.906-36.434-4.6172-12.754-7.1875-26.16-7.6133-39.719-2.4922 8.0625-4.5078 16.262-6.0352 24.562-0.20703 1.7812-0.34766 3.5625-0.41406 5.418-0.14062 2.9453-0.68359 6.0391-0.55469 8.9805 0.13281 2.9453 0.20703 5.9062 0.34766 8.9141v2.2695l0.41406 2.4648 0.82422 4.6875c0.27344 1.6484 0.54297 3.2266 0.82422 4.6875l0.33594 1.9883 0.68359 1.9961h0.003906c1.5391 5.2617 3.7461 10.301 6.5625 15 4.9883 8.3203 11.051 15.941 18.027 22.68 4.7344 4.4336 9.8789 8.4102 15.367 11.867 4.3867 2.2695 6.6562 3.9102 6.375 4.6875-0.28125 0.77734-3.0195 0.54297-7.8203-0.34766v0.003907c-6.9258-2.1875-13.426-5.5547-19.211-9.9492-8.4922-6.4531-15.844-14.293-21.738-23.184-0.074218-0.14062-0.20703-0.33594-0.27344-0.47656 5.4844 27.094 19.547 43.633 46.875 61.602 2.4336 1.543 4.0938 4.0469 4.5664 6.8906z"/>
 <path d="m263.67 767.6c3.0938 2.3359 18.871-1.0977 22.988-1.4336 9.0547-0.61719 18.039-1.4453 27.094-2.1953 17.973-1.4453 36.02-2.9531 54.055-3.5703 17.984-0.8125 36-0.35547 53.918 1.3672 16.191 1.7148 32.109 8.9922 48.508 9.0547 17.906 0.14063 36.496-4.5273 54.602-5.2773 5.2109-0.20703 10.359-0.20703 15.441-0.14062 42.871-57.965 0.68359-110.1-35.625-158.95-33.598-45.137-76.684-81.457-134.34-87.871-2.6797-0.26563-5.1562-1.543-6.9297-3.5703-31.219 1.0312-71.691 6.7969-93.094 30.32-18.113 19.828-20.859 36.02-20.035 62.09h0.003906c-0.87891 5.7852-3.4961 11.164-7.5 15.43-13.379 18.449 5.5508 46.238-10.152 67.164-25.801 34.367 5.5195 58.238 31.066 77.578zm116.9-72.441c6.293-0.74219 12.672-0.035156 18.656 2.0625 8.3516 2.8672 16.496 6.3125 24.375 10.312 2.2031 1.0312 4.3984 2.0547 6.6562 3.0195l1.6484 0.68359 1.2266 0.55469 0.9375 0.40234c1.1641 0.55469 2.3984 1.1719 3.6289 1.875 20.102 10.5 32.812-1.0977 21.402-21.133-0.58594-1.0156-1.1133-2.0664-1.5742-3.1484-0.28516-0.64453-0.51172-1.3125-0.68359-1.9961l-0.34766-1.3672c-0.47656-2.2578-0.68359-4.0508-0.9375-5.7656v-0.003906c-0.23047-2.7734-0.78516-5.5117-1.6484-8.1562-0.75-1.875-1.4336-2.3359-2.9453-2.6055-3.0195-0.28125-5.418 0.68359-5.7656-0.14062-0.27344-0.55469 0.75781-2.7461 5.418-4.2578 1.5078-0.37891 3.0977-0.25781 4.5312 0.34766 1.6914 0.72266 3.1406 1.9141 4.1797 3.4336 1.8281 3 3.1953 6.2617 4.0508 9.6719 0.47656 1.5742 0.9375 3.2148 1.4453 4.9297l0.54297 1.3047c0.11328 0.26562 0.25 0.51953 0.41016 0.76172 0.34766 0.61719 0.82422 1.3672 1.3672 2.1953l0.003907-0.003907c2.7734 3.7109 5.2539 7.6328 7.4141 11.73l0.89062 1.9883c0.27344 0.9375 0.47656 1.875 0.68359 2.8867 0.28906 1.4922 0.35938 3.0156 0.20703 4.5273-0.19922 1.4531-0.69141 2.8555-1.4453 4.1172-0.60938 0.9375-0.9375 1.3047-1.4336 1.9883-0.9375 1.3047-1.7891 2.1953-2.6797 3.2891-1.875 1.9883-3.75 3.9102-5.7578 5.832l-3.1602 2.8125-1.875 1.5078-0.48828 0.34766-1.0234 0.61719c-0.69531 0.33594-1.3789 0.68359-2.0625 0.9375h0.003906c-2.2578 0.60547-4.6133 0.74609-6.9297 0.41406-6.0547-1.2969-11.82-3.6914-17.016-7.0703-1.0977-0.61719-2.1953-1.2266-3.4297-1.7812l-0.79688-0.40234c-0.058594-0.050781-0.12891-0.074219-0.20703-0.074219h0.13281l-0.20703-0.066406-0.27344-0.13281-1.9219-0.9375c-2.4648-1.1641-4.6875-2.3984-6.9297-3.5625-8.7109-4.8008-16.117-9.2617-22.566-12.188h0.003906c-4.9062-2.4883-10.152-4.2461-15.57-5.2109-3.5703-0.68359-6.3828-0.41406-6.4492-1.3672-0.003907-0.64063 1.5078-2.2812 6.3086-3.1797z"/>
 <path d="m1140.9 598.85c-2.7461-31.695-7.0039-66.402-22.227-95.008-17.43-32.859-41.371-45.938-73.473-59.062-12.602 31.77-27.695 62.488-45.141 91.875-16.602 27.375-96.723 129.31-133.7 81.977h-0.003906c-11.637 1.8086-23.52-1.0469-33.066-7.9492-8.1914 3.3125-17.379 3.1328-25.438-0.49219-8.0586-3.6289-14.285-10.391-17.234-18.719-5.668-1.3555-10.715-4.582-14.324-9.1602-3.6094-4.5742-5.5703-10.23-5.5703-16.059-1.1875 0.11719-2.3828 0.09375-3.5625-0.066406-4.8984-0.61328-9.707-1.7891-14.336-3.4961 1.7812 8.5039 3.2891 17.008 4.2461 25.586 2.9531 26.551 4.2578 70.105-28.125 74.773-1.7852 8.4336-6.625 15.906-13.59 20.984-6.9648 5.0781-15.559 7.4023-24.133 6.5234-5.7969 4.8242-13.23 7.2305-20.754 6.7188-7.5234-0.51172-14.562-3.9023-19.652-9.4688-5.7031 1.1875-11.645 0.078124-16.539-3.082-8.375 15.41-10.809 33.355-6.832 50.438 3.9727 17.082 14.078 32.113 28.395 42.242 14.953 4.582 30.535 6.7969 46.172 6.5625 0.82422 0 1.5742-0.066406 2.3984-0.13281l0.003906 0.003907c-2.75-1.9062-5.3867-3.9688-7.8945-6.1797-5.8203-6.0391-8.2969-10.219-7.2656-11.316s5.5586 0.75 12.188 4.3203v0.003906c8.9414 4.4766 18.352 7.9531 28.059 10.359l10.152 2.1289v-0.003906c26.516-3.1875 53.363-2.2148 79.574 2.8789 8.457 1.7773 16.723 4.3477 24.695 7.6797 5.5586 2.3984 8.5117 4.1914 8.2305 5.2109-0.28125 1.0234-3.75 1.1055-9.7422 0.41406-6.0391-0.9375-14.539-1.5742-24.758-2.8125-27.215-2.1367-54.578-1.3984-81.637 2.2031-8.0898 0.81641-15.227 2.3984-23.438 3.4961l-11.25 1.4336c-3.9766 0.20703-7.9609 0.34766-11.727 0.48828-11.129-0.24219-22.188-1.832-32.938-4.7344-0.96484 0.21875-1.9609 0.26172-2.9414 0.13281-0.75781 0.082032-1.5195 0.0625-2.2695-0.066406-34.914-4.3203-67.836-12.281-102.55-13.586-2.2422 1.0117-4.832 0.91016-6.9922-0.26953-5.6992 0-11.391 0.066406-17.156 0.47656-39.047 2.0195-77.688 8.8984-115.03 20.477-61.539 20.512-123.48 25.312-178.77 59.605 23.738 12.188 53.719 5.082 79.445 4.3984v-0.003907c37.246-1.2305 74.281-6.1055 110.58-14.547 4.1797-3.4961 8.0234-6.8516 11.457-9.2539 5.0703-3.5703 8.8516-5.2227 9.9453-4.1172 1.0977 1.1055-0.61719 4.8672-4.2578 9.9453-1.0312 1.5742-2.3984 3.2891-3.8438 5.0703 37.594 15.938 71.691 37.5 111.56 48.16 42.883 11.523 86.164 21.469 129.11 32.578 90 23.324 192.42 31.285 284 12.188 3.7031-0.82422 2.6719-31.012 2.4648-34.688l0.003906 0.003906c-0.78125-12.109-2.5703-24.133-5.3438-35.945-2.8398-10.152-4.9727-20.488-6.3867-30.938-0.14063-10.535-1.2891-21.031-3.4297-31.348-3.6055-10.41-7.9609-20.543-13.031-30.32-21.883-48.367-42.047-87.328-38.137-89.598 1.7812-0.9375 8.9141 7.5 18.656 22.367 4.6875 7.1328 10.012 15.844 15.508 25.66-2.3984-11.25-3.0938-18.383-1.5859-18.871 3.0938-0.9375 14.062 26.137 24.562 60.508 1.3047 4.3203 2.5391 8.5039 3.7031 12.629 0.82422 2.4648 1.5078 4.6875 2.2695 7.1328 20.504-9.1953 41.504-17.363 61.801-27.027 2.9531-2.8867 6.0391-6.0391 9.1328-9.4688h-0.003906c5.9141-7.1562 11.043-14.93 15.289-23.184 0.90234-1.4492 1.6406-2.9961 2.2031-4.6055 0.54297-1.4336 1.1641-2.6719 1.6406-3.7031 1.0977-1.9883 2.1289-3.0195 2.8789-2.8789 1.3789 0.41406 2.4766 5.2109 1.2383 13.172-1.293 6.0352-3.5391 11.824-6.6562 17.148 0.83203-0.19531 1.6875-0.28516 2.5391-0.27344 31.414 0.33594 62.906 4.3867 93.637-3.2266-1.8633-54.738 3.5938-109.55-1-164.29z"/>
 <path d="m242.2 836.06c53.512-27 114.05-36.086 172.05-52.547 1.6406-0.47656 3.3555-0.89062 5.0703-1.3672-55.836-5.9727-112.02 5.0078-168.27 6.5156-0.41406 0-0.75-0.066406-1.1641-0.066406-0.20703 0-0.34766 0.066406-0.48828 0.066406-51.039 4.1172-115.73 35.465-151.32-15.938h0.003906c-0.042969 0-0.074219 0.03125-0.074219 0.074219-5.418 6.1016-13.445 15.57-10.566 24.617 2.3203 6.3359 6.4766 11.836 11.934 15.797 41.016 28.332 90.414 22.164 137.95 21.75 1.6875-0.027344 3.3594 0.34766 4.875 1.0977z"/>
 <path d="m447.84 535.59v-14.43c2.7266-9.6562-5.9062-20.973-22.82-29.477-20.934-10.547-38.98-8.6914-45.938 4.7617l-5.625 10.996 12.113 2.4922v0.003906c16.957 3.4688 33.281 9.5234 48.395 17.953z"/>
</svg>
