<?xml version="1.0" encoding="UTF-8"?>
<svg width="1200pt" height="1200pt" version="1.1" viewBox="0 0 1200 1200" xmlns="http://www.w3.org/2000/svg">
 <path d="m627.56 231.74c11.766 2.4844 29.203 11.625 29.344 23.297 0.046875 2.1094-1.6875 3.8438-3.7969 3.8906h-0.046875c-2.1094 0-3.7969-1.6875-3.8438-3.7969-0.046875-5.5312-11.578-13.359-23.25-15.844-6.375-1.3594-10.359-0.51562-11.062 0.98438-0.89062 1.9219-3.1875 2.7656-5.1094 1.875-1.9219-0.89063-2.7656-3.1875-1.875-5.1094 2.5312-5.4844 9.6562-7.4062 19.641-5.2969zm-146.48 3.6562c-3.3281-8.8125-5.625-20.625-5.625-38.812 0-20.484 8.1094-37.031 21.75-44.25 9.375-4.9688 20.344-4.6875 30.938 0.46875 3.5625-7.0312 7.875-13.266 12.609-17.812 6.0938-5.8594 12.75-8.8125 19.312-8.5312 9.1875 0.375 17.812 0.09375 26.109-0.1875 31.594-1.0312 59.016-1.8281 71.766 40.734 4.5938-0.79687 8.8125-1.1719 11.812-1.1719 29.062 0 48.797 4.6406 59.906 13.969 9.7031-7.0781 30.609-16.922 49.172-12.141 21.938 5.6719 33.047 28.266 33.047 67.172 0 18.375 14.109 24.609 29.062 31.266 16.453 7.3125 36.891 16.359 24.656 44.953-5.3906 12.656-18.141 17.391-32.906 22.875-26.719 9.9375-60 22.312-76.406 86.109-3.6562 14.25-31.641 66.047-48.797 71.297-13.688 27.469-59.25 39.797-94.031 39.797-12.047 0-22.828-1.5-30.516-4.3125-53.297-19.641-81.281-40.219-95.953-103.88-6.9375-30-5.8125-47.812-4.2656-72.469 1.5938-25.078 3.5625-56.297-1.5469-115.03zm215.26 252.1c-0.09375-0.14062-0.09375-0.32812-0.14063-0.46875-5.7656-3.7969-23.25-9.2344-29.578-10.641-56.438 2.1562-70.312-30.188-82.641-58.688-8.8594-20.484-17.25-39.844-40.266-47.062-23.953-7.5-38.812-26.812-37.828-49.266 1.6406-38.766-4.3125-52.266-11.531-63.234 2.8125 45.047 1.125 72.328-0.1875 93.047-1.5469 24.562-2.5781 40.781 3.9844 69.141 13.594 58.875 38.344 77.062 88.734 95.672 25.125 9.2812 93.281 0.1875 109.5-28.453zm146.72-207.74c-1.0781 4.5-3.3281 9.0938-7.0312 13.594-14.953 18.469-51 35.297-75.609 35.297-7.9688 0-15.984-0.46875-24-0.98438h-0.09375c-0.046875 0-0.14062-0.046875-0.1875-0.046875-4.2188-0.28125-8.4844-0.5625-12.656-0.89062-42.75-3.3281-79.688-6.1406-95.25 30.516 0.65625 0.375 1.4062 0.89062 2.0625 1.2188 11.531 6.1406 20.625 8.4844 28.688 10.5 18.75 4.7812 29.906 9 40.312 40.875 7.5469 23.109 7.6406 45.422 7.6406 69 10.641-8.1562 34.453-47.297 38.156-61.781 17.906-69.656 55.875-83.766 83.578-94.078 12.797-4.7344 22.875-8.4844 26.344-16.594 6.4219-15.047 1.4062-20.297-11.906-26.719zm-273.47 20.25c5.2969 15.234 29.297 37.594 48.797 51.047 2.9062-6.4688 6.4219-11.859 10.406-16.359 1.5-17.906-13.547-30.797-22.922-36.938-14.484-9.5156-21.609-17.391-27.562-26.156-0.046875-0.046875-0.046875-0.09375-0.09375-0.14062-2.3438-3.4688-4.5-7.0781-6.8438-10.969-1.9688-3.2812-3.9844-6.6562-6.375-10.453-3.7969-5.9531-5.8125-12.891-6.3281-19.969-3.1406 8.0625-5.2031 19.594-4.3125 36.75 5.1562 9.0938 10.5 19.594 15.234 33.281zm46.078-102.09c-7.3125 0.51562-14.859 1.0781-22.5 0.42188-7.2188-0.60938-13.922 3.2812-18.375 10.641-6.3281 10.5-6.375 24.797-0.046875 34.734 2.4844 3.9375 4.6406 7.5469 6.5625 10.734 0.32812 0.60938 0.65625 1.125 0.98438 1.6875 2.9531-6.4688 4.7344-12.703 3.8438-19.875 0-0.09375 0.046875-0.14062 0-0.23438-0.046875-2.0156 0.1875-3.6562 0.42188-4.7812 3.0938-14.438 20.438-23.953 39.422-21.609 8.5312 1.0312 15.562 2.8125 21.422 4.9688-0.375-6.2812-1.7812-10.828-4.3594-13.406-5.0156-4.9688-15.375-4.2188-27.375-3.375zm117.75 79.172c-8.7656 10.922-21.844 16.922-37.688 17.625-11.531 10.266-26.953 13.453-39.188 15.938-7.6406 1.5469-14.812 3.0938-19.453 5.7656 1.125 2.7656 2.0156 5.6719 2.5312 8.7188 22.406-14.719 53.859-12.328 84.656-9.9375 3.2812 0.23438 6.6094 0.46875 9.9375 0.70312 27.984-24.516 38.625-47.297 32.297-69.562-3.7031-13.031-8.1562-15.469-14.297-18.844-1.875-1.0312-3.8438-2.1094-5.8594-3.4688 1.5 21.984-2.8594 40.453-12.984 53.062zm-108.84-55.875c-1.5-0.1875-2.9062-0.28125-4.3594-0.28125-11.906 0-20.953 6.1875-22.406 12.844-1.8281 8.5312 8.4375 17.391 26.766 23.109 6.375 2.0156 11.766 5.5312 16.453 8.625 10.547 6.9375 13.312 8.2031 19.406-0.9375 3.8438-5.7656 6.5625-15 2.6719-23.578-4.7812-10.453-18.094-17.297-38.531-19.781zm-35.016 46.359c5.0156 6.8906 11.156 12.984 22.641 20.484 4.9219 3.2344 13.031 9.4219 19.312 18.141 6.2344-3.5156 14.344-5.1562 22.781-6.8906 4.2656-0.89062 8.5781-1.7344 12.75-2.8594-3.3281-4.6406-4.9219-10.641-5.7188-16.453-2.9062 1.8281-5.8125 2.5781-8.625 2.5781-6.6094 0-12.844-4.0781-18-7.4531-4.3125-2.8125-8.7188-5.7188-13.594-7.2188-12.422-3.8906-20.438-8.625-25.734-13.453-1.5938 4.875-3.75 9.2812-5.8594 13.125zm110.81-26.016c-0.9375-11.578-7.2656-22.312-16.922-28.688-7.6875-5.0625-16.5-6.6094-25.359-5.0156 0.65625 3.6094 0.9375 7.7344 0.84375 12.328 7.9219 5.0156 12.328 10.828 14.672 15.984 5.2031 11.391 2.8125 23.25-1.6406 31.641v0.14062c0.32812 7.5 1.0312 21.188 7.3125 24.141 13.828-6.7031 23.578-19.734 21.094-50.531zm36.516-52.875c0.70312 1.3125 1.4531 2.5312 1.9688 3.9375 6.1406 17.766 12.375 21.188 19.031 24.797 6.9375 3.7969 14.812 8.1094 19.828 25.781 6.8438 24.094-2.3906 48.797-27.328 73.594 3.375 0.14062 6.7969 0.32812 10.125 0.32812 20.953 0 53.953-15.375 66.656-31.031 2.3906-2.9531 4.875-7.125 5.1094-11.297-15.141-6.8906-31.875-16.219-31.875-39.984 0-21.375-3.7969-48.328-21.75-55.172-15.234-5.7656-34.5 4.0312-41.719 9zm-67.172-11.297c-10.641 0-26.203 4.125-29.531 9.2812-0.09375 0.14062-0.09375 0.23438-0.14062 0.375 4.1719 1.0781 7.9688 2.9062 11.109 6.0469 1.125 1.125 2.0156 2.5312 2.9062 3.8906 12.422-2.8594 24.938-0.89062 35.719 6.2344 12.609 8.2969 20.859 22.266 22.078 37.359 1.4531 18.094-1.0781 31.219-5.9531 40.922 7.5469-2.0625 13.828-5.8594 18.516-11.672 10.594-13.172 13.547-36 8.1094-62.578-1.5938-3.1406-3.1406-6.6094-4.6406-10.875-3-8.6719-15.516-18.984-58.172-18.984zm-140.02 13.594c0 26.953 5.5781 41.766 13.406 56.109 2.5781-28.125 14.484-38.156 20.766-43.453 0.79688-0.70312 1.5-1.2656 1.9219-1.6875 6.8438-10.453 17.016-15.984 28.312-15.047 6.75 0.5625 13.875 0.046875 20.719-0.42188 4.6875-0.32812 9.2812-0.65625 13.641-0.60938 0.32812-1.875 0.89062-3.7031 2.0156-5.3906 3.1875-4.9219 9.4688-8.2969 16.266-10.594-10.125-33.609-28.359-33.047-60.234-32.016-8.5312 0.28125-17.344 0.5625-26.953 0.1875-4.2188-0.14062-8.25 2.8125-10.875 5.3438-10.312 9.8906-19.031 31.688-19.031 47.625zm-42.75 5.625c0 30.516 6.75 40.266 13.922 50.625 9.1406 13.172 18.562 26.812 16.5 74.672-0.89062 20.672 14.812 33.047 29.766 37.734 28.078 8.7656 37.922 31.5 47.438 53.484 12.469 28.875 23.297 53.812 72.281 51.703 1.0781 0 16.641 3.5156 28.453 8.8594-0.046875-21.375-0.5625-40.453-7.0312-60.188-8.9531-27.375-16.734-29.344-32.203-33.281-8.25-2.1094-18.562-4.7344-31.312-11.531-2.3906-1.2656-5.0625-2.9062-7.7812-4.6406-0.046875 0-0.09375 0-0.09375-0.046875-0.046875 0-0.046875-0.046875-0.046875-0.046875-21.844-13.922-51.375-40.547-58.172-60.188-5.9531-17.203-12.75-28.734-19.312-39.891-11.391-19.312-21.234-36-21.234-72.891 0-8.5781 2.0625-18.234 5.3906-27.375-7.4062-3.7969-14.719-4.3594-20.953-1.0312-9.6094 5.1094-15.609 18.141-15.609 34.031zm419.11 599.63c-11.016 6.7031-27.141 12.281-44.297 15.422-20.203 3.6562-41.438 3.8438-56.859-1.5469-12-4.2188-17.156-2.5312-18.938 2.5781-1.4062 3.9844 0.70312 7.6875 3.0469 11.859l1.4062 2.5312c-14.156 2.5312-24.562-2.1562-36.609-7.5938-6.6562-3-13.781-6.2344-22.266-8.7656-3.2344-0.98438-6.6094 0.89062-7.5938 4.125-0.375 1.3125-0.32812 2.625 0.09375 3.8438 1.0781 3.6094 1.3594 6.4688 0.60938 8.6719-0.42188 1.2188-1.3125 2.3438-2.625 3.4219-14.812-14.812-32.719-25.547-53.812-29.016-16.734-2.7188-35.344-0.65625-55.734 7.5-0.32812-1.9219-0.65625-3.8438-0.98438-5.7188 1.875-6.0938 4.9219-13.359 8.625-21.047 10.453-21.609 25.828-44.953 34.688-54.141 20.297-21.047 41.578-34.547 66.094-40.219 22.312-5.2031 47.531-3.9844 77.203 3.7969-1.9219 1.7344-4.125 3.6094-6.1406 5.2969-2.4844 2.1562-4.7344 4.0781-6.1875 5.4844-2.4375 2.3438-2.4844 6.1875-0.1875 8.625 0.79688 0.84375 1.7812 1.4062 2.8125 1.6875 5.1562 1.4062 11.672 2.8594 18.516 4.3594 15.375 3.4219 32.391 7.2188 42.094 12.516l-0.42188 0.32812c-1.9219 1.3594-3.8438 2.7656-5.3438 4.2656l-0.09375 0.09375c-3.75 3.7031-4.9688 7.5-1.0781 11.484 3.6562 3.75 6.7031 7.0312 9.75 10.312 14.906 16.125 29.344 31.734 54.188 40.031zm-56.203-18.094c-9.375-2.8125-17.953-5.5312-26.484-8.25-10.828-3.4688-21.656-6.9375-32.484-10.031l-0.09375-0.14062c2.8594-2.625 7.1719-5.0625 11.906-6.9375 6.3281-2.4844 13.219-3.9375 18.375-3.4688 2.25 0.1875 4.2188-1.5 4.4062-3.7031 0.1875-2.25-1.5-4.2188-3.7031-4.4062-6.3281-0.5625-14.578 1.125-22.031 4.0781-7.2656 2.8594-13.875 7.0781-17.391 11.766-0.09375 0.14063-0.1875 0.23438-0.23438 0.375-17.062-4.5938-34.031-8.1562-50.719-9.3281 4.0312-3.5625 9.9375-7.9219 15.844-11.672 7.5469-4.7812 14.672-8.4844 16.641-7.7344 2.1094 0.79687 4.4531-0.28125 5.2031-2.3906 0.79688-2.1094-0.28125-4.4531-2.3906-5.2031-4.6875-1.7344-14.438 2.5312-23.859 8.4844-9.0469 5.7188-18.281 13.172-22.219 18.141-16.922-0.09375-33.469 2.625-49.594 9.5156 2.4844-4.5 6-9.9844 9.7031-14.953 5.3438-7.2188 10.641-13.172 12.75-13.219 2.25-0.046876 4.0312-1.875 4.0312-4.125-0.046875-2.25-1.875-4.0312-4.125-4.0312-5.0156 0.046874-12.562 7.5469-19.172 16.5-6.5156 8.8125-12.562 19.359-14.297 25.312-9.4219 5.2969-18.703 12.234-27.75 21.047-1.5938 1.5469-1.6406 4.125-0.09375 5.7656 1.5469 1.5938 4.125 1.6406 5.7656 0.09375 7.9219-7.7344 16.031-13.875 24.375-18.703 2.5312 2.625 6.4688 5.0625 10.781 7.6875 7.1719 4.4062 15.656 9.6094 17.672 15.422 0.75 2.1094 3.0469 3.2344 5.1562 2.4844s3.2344-3.0469 2.4844-5.1562c-3-8.5781-12.797-14.578-21.047-19.688-2.9531-1.7812-5.625-3.4688-7.4531-4.7812 15.984-7.6406 32.578-10.781 49.594-10.875 1.3125 3.4688 4.2656 7.3125 7.4531 11.531 5.1094 6.7031 11.109 14.578 10.922 20.766-0.046875 2.25 1.6875 4.125 3.9375 4.1719 2.25 0.046876 4.125-1.6875 4.1719-3.9375 0.28125-9.0469-6.6562-18.188-12.562-25.922-1.8281-2.3906-3.5156-4.5938-4.7344-6.375 18.844 0.98437 38.156 5.2969 57.562 10.781 0.60938 0.75 1.2656 1.5 1.9219 2.2969 4.3125 5.1094 9.0469 10.641 8.8594 15.281-0.046875 2.25 1.6875 4.125 3.9375 4.1719 2.25 0.046874 4.125-1.6875 4.1719-3.9375 0.14062-4.9219-2.1094-9.4688-5.1562-13.734 6.9844 2.1562 13.969 4.3594 20.953 6.6094 9.1875 2.9531 18.328 5.8594 26.625 8.3438 2.1562 0.65625 4.4062-0.5625 5.0625-2.7188s-0.5625-4.4062-2.7188-5.0625zm-268.18-247.82c-11.344-4.1719-21.469-8.3906-30.562-12.984-0.42188 3.2812-1.7344 7.875-3.375 13.688-5.6719 20.156-15.891 56.297-3.9844 84.469 11.812-22.266 34.312-38.531 54.797-53.391 13.875-10.031 26.719-19.359 33.891-28.875-20.016 2.4375-39.188 1.2656-50.719-2.9531zm29.859 273.14c-11.531-66.75-14.484-140.16 13.219-246.52-5.9531 4.8281-12.562 9.6094-19.406 14.578l-3 2.1562c-0.046875 0.28125-0.14062 0.5625-0.23438 0.84375-18.844 52.453-24.047 104.67-22.5 155.29 0.046875 0.1875 0.046875 0.375 0.09375 0.5625 0.65625 1.7812 1.4531 3.75 1.875 5.3906 0.046875 1.5469 0.09375 3.0938 0.14062 4.5938-0.375-0.14062-0.75-0.23438-1.1719-0.375-0.046875 1.5-0.046875 3.0938-0.375 4.3594 2.6719 48.469 11.016 95.344 18.844 139.45 12.422 69.938 23.672 133.08 9.7031 185.95 1.3594 1.6406 3.7969 2.7656 6.7969 3.4688 4.5 1.0312 10.031 0.98438 15.469 0s10.688-2.8594 14.672-5.4375c3.375-2.2031 5.6719-4.8281 5.9531-7.6406v-0.14062c0-74.297-12.891-130.97-25.312-185.68-4.5469-20.062-9.0469-39.844-12.844-60.141-0.42188-1.2188-0.65625-2.625-0.75-4.125-0.046875-0.32813-0.09375-0.65625-0.1875-0.98438-0.89062 0.375-1.7812 0.5625-2.6719 0.9375 0.32812-1.9688 0.9375-4.2656 1.6875-6.7031zm115.36-303.94c-8.6719 0.32812-16.125 0.5625-21.656-0.79688-8.1094 12.375-22.875 21.281-39.703 27.141 2.25 1.8281 4.8281 3.1875 7.9219 4.8281l2.0156 1.0781c19.734 10.547 44.344 10.172 67.312 9.7969 26.391-0.42188 50.859-0.79688 66.469 13.688-9.2812-58.266-53.906-56.719-82.359-55.734zm70.641 317.16c-0.23438 0.60938 0.09375 0.65625 0.5625 0.75-0.23438-1.0781-0.28125-1.6875-0.5625-0.75zm-316.55-312c16.172 3.6094 33.422 7.5 55.594 4.2656-6.9844-4.5469-13.219-9.5625-18.844-15.281-6.4688-6.6094-12-14.062-16.781-22.734-8.25-6-17.297-9.4219-26.438-10.547-9.9844-1.2188-20.016 0.32812-29.156 4.2656-9.1875 3.9844-17.484 10.406-23.906 18.891-5.2031 6.8438-9.1875 15.094-11.484 24.516 28.078-12.984 48.562-8.3906 71.016-3.3281zm98.672 225.74c0.79688 3.5625 0.98438 6.7031 0.89062 9.6094-20.578-8.2969-39.328-10.359-56.156-7.5938-21.047 3.4219-38.953 14.156-53.719 28.969-1.3125-1.0781-2.2031-2.25-2.625-3.4219-0.79688-2.1562-0.46875-5.0625 0.60938-8.625 0.42188-1.1719 0.51562-2.5312 0.09375-3.8438-0.9375-3.2344-4.3594-5.0625-7.5938-4.0781-8.4844 2.5312-15.562 5.7188-22.219 8.7188-12 5.4375-22.406 10.125-36.562 7.5938 0.42188-0.79688 0.9375-1.6875 1.4062-2.4844 2.3438-4.1719 4.4531-7.875 3.0469-11.812-1.7812-5.0625-6.8906-6.7969-18.891-2.5781-19.688 6.8906-36.516 5.2969-56.812 3.3281-11.062-1.0781-23.109-2.25-37.219-2.25 12.844-26.016 20.625-41.297 55.875-64.312 4.2188-2.7656 4.4062-6.1406 1.9219-9.9844-1.4531-2.2031-4.1719-4.2188-6.9844-6.2812l-0.89062-0.65625c9.6562-5.2969 26.672-9.0938 42.047-12.516 6.8438-1.5469 13.359-3 18.516-4.3594 1.0312-0.28125 2.0156-0.84375 2.8125-1.6406 2.3438-2.4375 2.25-6.2812-0.1875-8.625-1.4531-1.4062-3.7031-3.3281-6.1875-5.4375-2.0156-1.7344-4.1719-3.6094-6.0938-5.2969 29.625-7.7344 54.797-8.9531 77.062-3.75 24.469 5.6719 45.75 19.172 66 40.172 8.8594 9.1875 24.188 32.484 34.641 54.047 3 6.2344 5.3906 11.953 7.2656 17.25zm-19.172-15.984c-9-8.8125-18.281-15.703-27.703-21-1.7344-5.9531-7.7812-16.5-14.297-25.266-6.6094-8.9531-14.156-16.406-19.172-16.453-2.25-0.046875-4.0781 1.7812-4.0781 3.9844-0.046875 2.25 1.7812 4.0781 3.9844 4.0781 2.1094 0.046875 7.4062 6 12.75 13.219 3.7031 5.0156 7.2188 10.453 9.7031 14.953-16.078-6.8906-32.625-9.6094-49.5-9.5156-3.9375-4.9219-13.125-12.375-22.172-18.094-9.4219-5.9531-19.125-10.219-23.812-8.4375-2.1094 0.79688-3.1406 3.0938-2.3906 5.2031 0.79688 2.1094 3.0938 3.1406 5.2031 2.3906 1.9688-0.75 9.0469 2.9531 16.641 7.7344 5.9062 3.75 11.766 8.0625 15.797 11.625-16.641 1.1719-33.609 4.6875-50.625 9.3281-0.09375-0.14062-0.14062-0.23438-0.23438-0.375-3.5156-4.6875-10.125-8.8594-17.344-11.766-7.4062-2.9531-15.656-4.5938-21.984-4.0312-2.25 0.1875-3.8906 2.1562-3.7031 4.4062s2.1562 3.8906 4.4062 3.7031c5.1094-0.42188 12 0.98438 18.328 3.4688 4.7344 1.875 9.0469 4.3125 11.906 6.9375l-0.09375 0.14062c-10.781 3.1406-21.609 6.5625-32.438 10.031-8.5312 2.7188-17.062 5.4375-26.438 8.25-2.1562 0.65625-3.375 2.9062-2.7188 5.0625s2.9062 3.375 5.0625 2.7188c8.25-2.4844 17.391-5.3906 26.578-8.2969 6.9844-2.25 13.969-4.4531 20.906-6.6094-3.0469 4.2656-5.2969 8.7656-5.1562 13.688 0.046875 2.25 1.9219 3.9844 4.1719 3.9375s3.9844-1.9219 3.9375-4.1719c-0.14062-4.5938 4.5469-10.125 8.8594-15.234 0.65625-0.75 1.3125-1.5469 1.9219-2.2969 19.406-5.4844 38.672-9.7969 57.469-10.781-1.2188 1.7812-2.9062 3.9844-4.6875 6.375-5.8594 7.7344-12.844 16.875-12.562 25.875 0.046875 2.25 1.9219 3.9844 4.1719 3.9375s3.9844-1.9219 3.9375-4.1719c-0.1875-6.1406 5.8125-14.016 10.875-20.719 3.2344-4.2188 6.1406-8.0625 7.4531-11.531 16.969 0.09375 33.562 3.2344 49.5 10.875-1.8281 1.3125-4.5 2.9531-7.4531 4.7812-8.25 5.0625-18.047 11.109-21.047 19.641-0.75 2.1094 0.375 4.4062 2.4844 5.1562s4.4062-0.375 5.1562-2.4844c2.0156-5.7656 10.5-10.969 17.625-15.375 4.3125-2.6719 8.25-5.0625 10.734-7.6875 8.2969 4.8281 16.406 10.969 24.328 18.656 1.5938 1.5469 4.1719 1.5469 5.7188-0.09375 1.5469-1.5938 1.5469-4.1719-0.09375-5.7188zm-165.66 33.656c0.46875-0.09375 0.79687-0.14062 0.5625-0.75-0.32813-0.89062-0.32813-0.28125-0.5625 0.75z"/>
</svg>
