<?xml version="1.0" encoding="UTF-8"?>
<svg width="1200pt" height="1200pt" version="1.1" viewBox="0 0 1200 1200" xmlns="http://www.w3.org/2000/svg">
 <path d="m376.36 752.63c-4.3125-1.6875-8.9531-2.625-13.828-2.625-20.719 0-37.5 16.781-37.5 37.5v27.141c-3.6562-1.3125-7.5-2.0156-11.531-2.1562h-0.98438c-20.719 0-37.5 16.828-37.5 37.5v225c0 33.281 17.297 57.891 24.984 67.219v45.281c0 6.8906 5.625 12.516 12.516 12.516s12.516-5.625 12.516-12.516v-49.969c0-3.3281-1.3594-6.5156-3.6562-8.8594 0 0-21.375-21.469-21.375-53.672v-225c0-6.8906 5.625-12.469 12.516-12.469 6.6562 0 12.141 5.25 12.469 11.812l0.046875 0.65625v100.03c0 6.8906 5.5781 12.469 12.469 12.469 6.9375 0 12.516-5.5781 12.516-12.469v-162.52c0-6.8906 5.625-12.516 12.516-12.516s12.469 5.625 12.469 12.516v162.52c0 6.8906 5.625 12.469 12.516 12.469s12.516-5.5781 12.516-12.469v-187.5c0-6.9375 5.5781-12.516 12.469-12.516 6.9375 0 12.516 5.5781 12.516 12.516v187.5c0 6.8906 5.625 12.469 12.516 12.469s12.469-5.5781 12.469-12.469v-162.52c0-6.8906 5.625-12.516 12.516-12.516s12.516 5.625 12.516 12.516v212.48c0 6.8906 5.5781 12.516 12.469 12.516 6.9375 0 12.516-5.625 12.516-12.516v-96.75c9.4219 8.0625 24.984 24.797 24.984 46.781v124.97c0 12.422-7.0781 24.609-15.047 35.016-13.266 17.484-29.953 30-29.953 30-3.1406 2.3438-4.9688 6.0938-4.9688 9.9844v37.5c0 6.8906 5.5781 12.516 12.469 12.516 6.9375 0 12.516-5.625 12.516-12.516v-31.5c6.75-5.625 19.219-16.875 29.859-30.797 11.25-14.812 20.156-32.578 20.156-50.203v-124.97c0-43.594-43.078-72.938-43.078-72.938-2.1562-1.4062-4.5469-2.0625-6.9375-2.0625v-87.516c0-20.719-16.781-37.5-37.5-37.5-4.875 0-9.5625 0.9375-13.828 2.625-4.3125-15.891-18.891-27.609-36.188-27.609-17.25 0-31.828 11.719-36.141 27.609zm375-125.02c-4.0312-1.5469-8.3438-2.4844-12.844-2.625h-0.98438c-20.719 0-37.5 16.828-37.5 37.5v87.516c-2.3906 0-4.8281 0.65625-6.9375 2.1094 0 0-43.078 29.297-43.078 72.891v125.02c0 17.578 8.9062 35.391 20.156 50.156 10.641 13.969 23.109 25.172 29.859 30.844v31.5c0 6.8906 5.5781 12.469 12.469 12.469 6.9375 0 12.516-5.5781 12.516-12.469v-37.5c0-3.9375-1.8281-7.6875-5.0156-10.031 0 0-16.641-12.469-29.953-29.953-7.9219-10.453-15.047-22.641-15.047-35.016v-125.02c0-21.984 15.609-38.719 25.031-46.734v96.75c0 6.8906 5.5781 12.469 12.469 12.469 6.9375 0 12.516-5.5781 12.516-12.469v-212.53c0-6.8906 5.625-12.469 12.516-12.469 6.6562 0 12.141 5.25 12.469 11.812v163.18c0 6.8906 5.625 12.516 12.516 12.516s12.516-5.625 12.516-12.516v-187.5c0-6.8906 5.5781-12.516 12.469-12.516 6.9375 0 12.516 5.625 12.516 12.516v187.5c0 6.8906 5.625 12.516 12.516 12.516s12.469-5.625 12.469-12.516v-162.52l0.046875-0.65625c0.32812-6.5625 5.8125-11.812 12.469-11.812 6.8906 0 12.516 5.5781 12.516 12.469v162.52c0 6.8906 5.5781 12.516 12.469 12.516 6.9375 0 12.516-5.625 12.516-12.516v-99.984l0.046875-0.65625c0.32812-6.6094 5.7656-11.859 12.469-11.859 6.8906 0 12.469 5.5781 12.469 12.516v225c0 32.156-21.328 53.625-21.328 53.625-2.3438 2.3438-3.6562 5.5312-3.6562 8.8594v50.016c0 6.8906 5.625 12.469 12.516 12.469s12.469-5.5781 12.469-12.469v-45.281c7.7344-9.3281 25.031-33.984 25.031-67.219v-225c0-20.391-16.266-36.984-36.516-37.5h-0.98438c-4.4062 0-8.625 0.75-12.516 2.1094v-27.141c0-20.344-16.266-36.984-36.516-37.5h-0.98438c-4.875 0-9.5625 0.9375-13.828 2.625-4.3125-15.891-18.891-27.609-36.188-27.609-17.25 0-31.828 11.719-36.141 27.609zm-501.32 397.4v-175.03c0-30.234 21.469-55.453 49.969-61.219v-1.2656c0-34.5 28.031-62.484 62.531-62.484 11.391-15.188 29.578-25.031 49.969-25.031 20.438 0 38.578 9.8438 50.016 25.031 34.5 0 62.484 27.984 62.484 62.484v72c12.516 10.078 50.016 44.156 50.016 90.516v75h83.156c-2.6719-3.0469-5.2969-6.3281-7.875-9.7031-14.625-19.125-25.266-42.516-25.266-65.297v-125.02c0-46.312 37.5-80.438 49.969-90.469v-72.047c0-34.5 28.031-62.484 62.531-62.484 11.391-15.188 29.578-24.984 49.969-24.984 20.438 0 38.578 9.7969 50.016 24.984l1.5938 0.046875v-0.046875c33.75 0.89062 60.891 28.547 60.891 62.484v1.2656c28.5 5.8125 50.016 31.031 50.016 61.266v225c0 33.609-14.203 60.141-24.562 75h87.047c6.9375 0 12.516-5.625 12.516-12.516 0-79.453-12.375-220.69-32.766-311.29-9.375-41.578-21.234-72.891-33.375-85.078-0.79688-0.75-1.6406-1.4062-2.5781-1.9219 0 0-85.219-49.688-243.79-86.672v-32.344c61.734-33.844 87.516-113.91 87.516-145.18v-162.56c-0.14062-56.156-39.703-187.69-200.02-186.94-160.26-0.75-199.87 130.78-199.97 186.94v162.56c0 31.266 25.781 111.33 87.469 145.18v32.344c-158.58 36.984-243.74 86.672-243.74 86.672-0.9375 0.51562-1.8281 1.1719-2.5781 1.9219-12.141 12.188-24.047 43.5-33.375 85.078-20.391 90.609-32.766 231.84-32.766 311.29 0 6.8906 5.5781 12.516 12.469 12.516zm601.5-487.5c68.156 0 123.47-55.359 123.47-123.52v-240.52c0-68.156-55.312-123.47-123.47-123.47-6.8906 0-12.516 5.5781-12.516 12.469 0 6.9375 5.625 12.516 12.516 12.516 54.375 0 98.484 44.109 98.484 98.484v240.52c0 54.375-44.109 98.484-98.484 98.484-6.8906 0-12.516 5.625-12.516 12.516s5.625 12.516 12.516 12.516zm-503.02-487.5c-68.156 0-123.52 55.312-123.52 123.47v240.52c0 68.156 55.359 123.52 123.52 123.52 6.8906 0 12.516-5.625 12.516-12.516s-5.625-12.516-12.516-12.516c-54.375 0-98.484-44.109-98.484-98.484v-240.52c0-54.375 44.109-98.484 98.484-98.484 6.8906 0 12.516-5.5781 12.516-12.516 0-6.8906-5.625-12.469-12.516-12.469z" fill-rule="evenodd"/>
</svg>
