<?xml version="1.0" encoding="UTF-8"?>
<svg width="1200pt" height="1200pt" version="1.1" viewBox="0 0 1200 1200" xmlns="http://www.w3.org/2000/svg">
 <path d="m632.48 116.3c-97.453-4.3594-221.95 30.703-280.4 119.2-17.391 26.344-27.703 55.734-31.078 87.562-31.781 47.578-46.969 102.42-49.266 152.02-4.4062 93.844 59.625 211.03 62.344 215.95l1.3594 2.4844c9.5156 56.859 52.453 156.37 139.6 222.84 6.6562 46.781 5.7656 113.06-36.422 162.89-2.1562 2.5312-1.8281 6.3281 0.70312 8.4375 2.5312 2.1562 6.3281 1.8281 8.4375-0.70313 1.0781-1.2656 1.875-2.625 2.9062-3.8906 39.234-49.219 43.125-110.44 37.969-157.18 20.766 14.25 43.547 26.812 68.953 36.328 23.391 8.7656 43.688 12.703 61.875 12.234 1.0781 0.046875 2.2031 0.046875 3.2812 0.046875 17.625 0 36.938-4.0312 58.969-12.281 25.453-9.5625 48.234-22.125 68.953-36.328-5.1562 46.781-1.2656 107.95 37.969 157.18 1.0312 1.2656 1.8281 2.625 2.9062 3.8906 1.1719 1.4062 2.8594 2.1094 4.5938 2.1094 1.3594 0 2.7656-0.46875 3.8906-1.4062 2.5312-2.1562 2.8594-5.9062 0.70312-8.4375-42.188-49.828-43.078-116.11-36.422-162.89 86.344-65.812 129.32-164.11 139.36-221.26l1.9688-4.5938c3.5625-8.25 86.484-203.29 28.641-345.14-41.578-102.19-113.58-220.5-301.78-229.08zm134.86 782.29c-2.4375 2.0156-4.8281 4.0312-7.3594 6-2.3906 1.8281-4.6875 3.75-7.1719 5.5312-22.172 16.266-47.156 30.375-75.281 40.922-21.609 8.1094-40.828 11.906-58.031 11.438-16.734 0.46875-36.094-3.375-57.656-11.438-28.125-10.547-53.109-24.656-75.281-40.922-2.4375-1.7812-4.7812-3.7031-7.1719-5.5312-2.5312-1.9688-4.9219-3.9844-7.3594-5.9531-87.75-72.375-125.68-178.64-126.71-225.05 0.79688-32.578 7.2656-115.92 48.609-197.34 75.609-51.703 142.97-114.42 167.76-138.32 63.703 35.766 194.63 105.8 292.74 135.32 25.828 48.797 36.047 100.03 39.656 140.16l0.09375 58.031c0 45.281-37.828 153.74-126.84 227.16zm140.53-248.34c-0.046875-10.266-0.5625-22.219-1.6406-35.344-1.1719-13.547-3.0469-28.406-6-44.062-1.6875-9.0469-3.75-18.328-6.2344-27.797-6.0469-23.062-14.578-47.016-26.531-70.594-13.641-26.906-31.594-53.297-55.594-76.969-51.75-51.141-122.29-82.266-210.61-93.375 54.234-17.016 116.44-24.094 186.14-21.188 13.828 0.5625 27.797 1.4062 42.188 2.7656 1.3594 0.14062 2.5781-0.28125 3.6562-0.9375 1.5469-0.9375 2.7188-2.5312 2.9062-4.5 0.09375-0.9375-0.09375-1.8281-0.42188-2.6719-0.79688-0.9375-1.5-1.9219-2.2969-2.8125-0.79688-0.51562-1.6875-0.9375-2.6719-1.0312-2.4844-0.23438-4.875-0.32812-7.3594-0.5625-10.922-0.9375-21.656-1.6406-32.25-2.1094-3.0938-0.14062-6.1406-0.23438-9.1406-0.375-79.453-2.6719-149.29 7.5469-209.02 30.562-4.2656 1.6406-8.4375 3.4219-12.656 5.2031-0.89062 0.375-1.7344 0.75-2.625 1.125-3.375 1.4531-6.7969 2.8594-10.125 4.4062-6.2812 2.9531-12.375 6.0938-18.375 9.3281-27.141 14.672-51.797 32.484-73.828 53.484-36.938 35.203-62.672 75.938-80.672 116.25-14.016 31.359-23.297 62.391-29.484 90.328-2.4375 11.156-4.4531 21.797-6 31.781-3.2812 21.094-4.8281 39.281-5.4844 52.594-0.1875-0.32812-0.32812-0.75-0.51562-1.0781-18.469-38.766-52.641-120.32-49.5-186.98 0.89062-18.656 6.0938-73.547 36.047-128.39 1.9219-3.4688 3.8906-6.9844 6.0469-10.453 2.25-3.6562 4.5938-7.3125 7.0312-10.969 20.672-30.469 49.969-59.391 91.641-80.344 5.5312-2.7656 11.297-5.3906 17.25-7.875 6.6094-2.7656 13.5-5.2969 20.719-7.6875 11.062-3.6094 22.781-6.75 35.25-9.2812 8.8125-1.7812 17.812-3.4219 27.328-4.6406 2.5781-0.32812 4.5-2.25 5.0625-4.6875 0.14062-0.65625 0.23438-1.3125 0.14062-2.0156-0.42188-3.2812-3.4688-5.625-6.7031-5.2031-4.8281 0.60938-9.2344 1.5938-13.875 2.3906-3.8438 0.65625-7.7344 1.2188-11.438 1.9688-8.1562 1.6406-15.938 3.6094-23.578 5.7188-6.4219 1.7812-12.797 3.6562-18.844 5.7656-51.375 17.906-90.516 47.25-119.16 82.266 4.875-21.516 13.359-41.578 25.547-60.047 55.875-84.609 175.55-118.08 269.86-113.81 181.4 8.2969 250.97 122.76 291.28 221.58 41.531 101.95 5.8594 237.05-15.469 300.28z"/>
 <path d="m745.97 509.02c-39.562 2.0156-64.641 29.438-65.719 30.609-2.2031 2.4375-2.0156 6.2344 0.42188 8.4375 2.4844 2.2031 6.2812 2.0156 8.4844-0.42188 0.23438-0.23438 23.016-24.984 57.562-26.672 24.234-1.125 49.359 9.375 73.641 31.453 1.1719 1.0312 2.5781 1.5469 4.0312 1.5469 1.6406 0 3.2344-0.65625 4.4531-1.9688 2.25-2.4375 2.0625-6.2344-0.42188-8.4844-26.766-24.281-54.516-35.906-82.453-34.5z"/>
 <path d="m819.14 588.14-19.5-6.5156-2.625 2.8125c-1.6406 1.7344-40.547 42.188-98.062 2.2031-2.7188-1.875-6.4688-1.2188-8.3438 1.5s-1.2188 6.4688 1.5 8.3438c20.906 14.531 39.938 19.5 56.25 19.5 27.75 0 47.438-14.484 54.562-20.672l12.469 4.1719c3.1406 1.0781 6.5625-0.65625 7.5938-3.7969 0.98438-3.0938-0.70312-6.5156-3.8438-7.5469z"/>
 <path d="m493.87 521.02c34.547 1.6875 57.281 26.438 57.562 26.672 2.2031 2.4375 6 2.625 8.4844 0.42188 2.4375-2.2031 2.6719-6 0.42188-8.4375-1.0781-1.1719-26.156-28.641-65.719-30.609-27.938-1.4062-55.688 10.219-82.453 34.547-2.4375 2.25-2.625 6.0469-0.42188 8.4844 1.1719 1.3125 2.8125 1.9688 4.4531 1.9688 1.4531 0 2.8594-0.51562 4.0312-1.5469 24.281-22.125 49.219-32.625 73.641-31.5z"/>
 <path d="m550.03 588.14c-1.875-2.7188-5.625-3.375-8.3438-1.5-57.234 39.797-96.469-0.46875-98.109-2.2031l-2.6719-2.7656-19.453 6.5156c-3.1406 1.0312-4.8281 4.4531-3.7969 7.5938 1.0781 3.1406 4.4531 4.8281 7.5938 3.7969l12.469-4.1719c7.125 6.1875 26.766 20.672 54.562 20.672 16.266 0 35.297-4.9688 56.25-19.5 2.7188-1.9688 3.375-5.7188 1.5-8.4375z"/>
 <path d="m687.79 837.24c-1.5938-2.3438-4.6406-3.4219-7.3125-2.2031-0.60938 0.28125-1.2656 0.46875-1.9219 0.75-3.75 1.5938-7.5 3.0469-11.344 4.3125-31.219 10.406-65.297 10.5-96.609 0.23438-3.8438-1.2656-7.5938-2.7188-11.344-4.3125-0.84375-0.32812-1.6875-0.60938-2.5312-0.9375-2.8125-1.2656-6.0938-0.046875-7.5938 2.5781-0.09375 0.1875-0.28125 0.28125-0.32812 0.46875-0.84375 1.875-0.51562 3.9375 0.46875 5.5781 0.60938 0.98438 1.4062 1.8281 2.5781 2.3438 21.141 9.3281 43.547 14.062 66.703 14.062s45.609-4.7344 66.703-14.062c1.2656-0.5625 2.1562-1.5469 2.7656-2.6719 0.84375-1.5938 1.0781-3.4688 0.28125-5.25-0.046875-0.375-0.28125-0.60938-0.51562-0.89062z"/>
 <path d="m618.66 787.03c15.281 0 29.906-7.7344 43.453-23.062 2.2031-2.4844 1.9688-6.2812-0.51562-8.4844s-6.2812-1.9688-8.4844 0.51562c-22.266 25.219-46.594 25.219-68.906 0-2.25-2.5312-6.0469-2.7188-8.4844-0.51562-2.4844 2.2031-2.7188 6-0.51562 8.4844 13.547 15.281 28.125 23.062 43.453 23.062z"/>
 <path d="m153.84 719.44c3.3281 0 6-2.6719 6-6v-40.5c0-3.3281-2.6719-6-6-6s-6 2.6719-6 6v40.5c0 3.3281 2.7188 6 6 6z"/>
 <path d="m243.52 756.66c0-3.3281-2.6719-6-6-6h-40.453c-3.3281 0-6 2.6719-6 6s2.6719 6 6 6h40.5c3.2812 0 5.9531-2.7188 5.9531-6z"/>
 <path d="m153.84 846.32c3.3281 0 6-2.6719 6-6v-40.5c0-3.3281-2.6719-6-6-6s-6 2.6719-6 6v40.5c0 3.3281 2.7188 6 6 6z"/>
 <path d="m110.67 750.66h-40.5c-3.3281 0-6 2.6719-6 6s2.6719 6 6 6h40.5c3.3281 0 6-2.6719 6-6s-2.7188-6-6-6z"/>
 <path d="m109.36 887.95c-3.3281 0-6 2.6719-6 6v24.422c0 3.3281 2.6719 6 6 6s6-2.6719 6-6v-24.422c0-3.3281-2.6719-6-6-6z"/>
 <path d="m159.79 938.39h-24.422c-3.3281 0-6 2.6719-6 6s2.6719 6 6 6h24.422c3.3281 0 6-2.6719 6-6 0-3.2812-2.6719-6-6-6z"/>
 <path d="m109.36 964.4c-3.3281 0-6 2.6719-6 6v24.422c0 3.3281 2.6719 6 6 6s6-2.6719 6-6v-24.422c0-3.2812-2.6719-6-6-6z"/>
 <path d="m83.344 938.39h-24.422c-3.3281 0-6 2.6719-6 6s2.6719 6 6 6h24.422c3.3281 0 6-2.6719 6-6 0-3.2812-2.6719-6-6-6z"/>
 <path d="m1085 395.68c-3.3281 0-6 2.6719-6 6v27.141c0 3.3281 2.6719 6 6 6s6-2.6719 6-6v-27.141c0-3.3281-2.6719-6-6-6z"/>
 <path d="m1056 366.71h-27.141c-3.3281 0-6 2.6719-6 6s2.6719 6 6 6h27.141c3.3281 0 6-2.6719 6-6s-2.6719-6-6-6z"/>
 <path d="m1085 310.6c-3.3281 0-6 2.6719-6 6v27.141c0 3.3281 2.6719 6 6 6s6-2.6719 6-6v-27.141c0-3.3281-2.6719-6-6-6z"/>
 <path d="m1141.1 366.71h-27.141c-3.3281 0-6 2.6719-6 6s2.6719 6 6 6h27.141c3.3281 0 6-2.6719 6-6s-2.6719-6-6-6z"/>
 <path d="m1035.7 266.34c-3.3281 0-6 2.6719-6 6v15.281c0 3.3281 2.6719 6 6 6 3.3281 0 6-2.6719 6-6v-15.281c0-3.3281-2.6719-6-6-6z"/>
 <path d="m1025.4 256.03c0-3.3281-2.6719-6-6-6h-15.281c-3.3281 0-6 2.6719-6 6s2.6719 6 6 6h15.281c3.3281 0 6-2.7188 6-6z"/>
 <path d="m1029.7 224.44v15.281c0 3.3281 2.6719 6 6 6 3.3281 0 6-2.6719 6-6v-15.281c0-3.3281-2.6719-6-6-6-3.3281 0-6 2.6719-6 6z"/>
 <path d="m1067.3 250.03h-15.281c-3.3281 0-6 2.6719-6 6s2.6719 6 6 6h15.281c3.3281 0 6-2.6719 6-6s-2.6719-6-6-6z"/>
 <path d="m991.22 163.6-19.5-46.688-19.453 46.688-46.688 19.5 46.688 19.5 19.453 46.641 19.5-46.641 46.688-19.5z"/>
 <path d="m307.4 787.31-19.5 46.688-46.641 19.453 46.641 19.5 19.5 46.688 19.5-46.688 46.688-19.5-46.688-19.453z"/>
</svg>
