<?xml version="1.0" encoding="UTF-8"?>
<svg width="1200pt" height="1200pt" version="1.1" viewBox="0 0 1200 1200" xmlns="http://www.w3.org/2000/svg">
 <path d="m566.44 964.08h-139.26c-3.3281 0-6 2.6719-6 6s2.6719 6 6 6h139.31c3.3281 0 6-2.6719 6-6-0.046875-3.3281-2.7188-6-6.0469-6z"/>
 <path d="m545.76 1002h-97.969c-3.3281 0-6 2.6719-6 6s2.6719 6 6 6h97.969c3.3281 0 6-2.6719 6-6s-2.6719-6-6-6z"/>
 <path d="m471.79 938.11h49.969c3.3281 0 6-2.6719 6-6s-2.6719-6-6-6h-49.969c-3.3281 0-6 2.6719-6 6s2.6719 6 6 6z"/>
 <path d="m851.16 981.28c0-3.3281-2.6719-6-6-6h-200.39v-191.9c0-80.672-19.641-174.1-36.469-238.26-0.046876-0.14062 0-0.32812-0.046876-0.46875-6.5156-24.844-12.141-43.547-15.75-54.844 0-0.046875-0.09375-0.09375-0.09375-0.14062-2.8125-9-5.0625-15.562-6.4219-19.125l-3.6094-11.906c-17.812-58.828-39.984-132.05-39.984-219.71v-86.953c0-15.516 0-31.547 4.4062-39.422 0.23437-0.375 0.375-0.75 0.51562-1.1719 0.1875-0.65625 4.8281-16.5-4.7344-33.703-4.5-8.0625-16.078-17.672-45.797-17.672s-41.297 9.6094-45.797 17.672c-9.6094 17.203-4.9688 33.047-4.7344 33.703 0.14063 0.42188 0.28125 0.79688 0.51563 1.1719 4.4062 7.875 4.4062 23.906 4.4062 39.422v86.953c0 87.703-22.172 160.87-39.984 219.71l-3.4688 11.484c-1.3594 3.6094-3.6562 10.359-6.5156 19.5 0 0.046875-0.09375 0.09375-0.09375 0.14062-3.5625 11.297-9.1875 29.953-15.75 54.844-0.046876 0.1875 0 0.32812-0.046876 0.51562-16.828 64.266-36.469 157.6-36.469 238.22v319.36c0 9.8906 3.75 19.219 10.547 26.25 6.8438 7.0781 15.938 10.969 25.641 10.969h223.55c9.7031 0 18.797-3.8906 25.641-10.969 6.7969-7.0312 10.547-16.359 10.547-26.25v-58.828c20.344 10.406 45.75 17.016 73.547 17.859v45.656l-71.625 20.766c-2.8594 0.84375-4.6875 3.6562-4.2656 6.6094 0.42187 3.0469 2.9062 5.25 5.9062 5.25h152.16c3.3281 0 6-2.6719 6-6 0-3.0469-2.25-5.5781-5.2031-5.9531l-70.969-20.578v-45.656c67.125-2.0156 120.84-37.312 120.84-80.531zm-442.64-474.66 83.109 143.9c2.1562 3.7031 8.25 3.7031 10.406 0l83.109-143.95c3.2812 10.922 6.9844 24.094 10.922 38.812l-99.188 171.79-99.188-171.79c3.7969-14.672 7.5469-27.797 10.828-38.766zm14.109-44.484c18.047-59.578 40.5-133.74 40.5-223.18v-86.953c0-20.438-0.375-34.734-5.5312-44.578-0.51562-2.2969-2.3438-12.75 3.8438-23.906 1.9688-3.4688 9.2812-11.531 35.344-11.531s33.375 8.0625 35.344 11.531c6.2812 11.297 4.4062 21.562 3.8906 23.859-5.1562 9.8438-5.5312 24.141-5.5312 44.578v86.953c0 89.438 22.453 163.6 40.5 223.18l3.7031 12.281c1.2188 3.1875 3.1406 8.9062 5.5781 16.547l-83.484 144.61-83.484-144.56c2.4844-7.8281 4.5-13.641 5.7188-16.969zm174.74 556.6v24.234h-201.19v-135c63.75-23.812 137.44-23.812 201.24 0v110.77zm160.6 109.27h-67.359l33.703-9.75zm-33.703-78c-58.875 0-109.17-28.125-114.42-62.719h228.84c-5.25 34.594-55.5 62.719-114.42 62.719z"/>
</svg>
