<?xml version="1.0" encoding="UTF-8"?>
<svg width="1200pt" height="1200pt" version="1.1" viewBox="0 0 1200 1200" xmlns="http://www.w3.org/2000/svg">
 <path d="m389.55 796.21c-20.887-2.4922-39.938-3.9375-55.961-4.9219-32.055-1.9766-51.957-4.0781-51.957-5.625 0-1.5469 19.969-2.1641 52.219-2.1641 16.152 0 35.398 0.58984 56.867 2.625l0.003906-0.003906c23.582 2.0312 46.746 7.4727 68.766 16.152 1.5742 0.72266 3.1602 1.5195 4.7344 2.2422-5.625-28.18-22.5-55.105-33.629-82.359-43.613 31.875-203.44 70.312-206.04-5.1289-7.3086-2.1953-13.195-7.6523-15.938-14.773h-2.1016 0.003907c-26.18-0.10547-51.492-9.3945-71.523-26.25-10.312 8.793-30.348 17.203-36.32 28.828-3.793 9.4102-6.3164 19.285-7.5 29.363-3.9375 16.152-10.117 30.73-14.84 45.938 0.58984-0.46094 1.2461-0.99219 1.875-1.3867v-0.003906c4.8867-3.5977 10.02-6.8438 15.367-9.7109 19.508-10.445 33.301-12.75 33.695-11.25 0.39062 1.5-11.965 6.2812-29.598 18-9.7266 6.1094-18.434 13.699-25.812 22.5-0.9375 5.0547-1.5352 10.164-1.7812 15.301 0 0.066407-0.066407 0.19531-0.066407 0.26172h0.003907c0.67578 2.0859 0.41406 4.3672-0.72266 6.2422 3.3633 3.4883 7.3203 6.3438 11.691 8.4375 13.598 6.3086 27.879 11.027 42.562 14.062 13.727 3.1484 26.25 5.4453 36.844 7.3516 21.148 3.75 34.414 6.3086 34.152 7.9492-0.13281 1.3789-13.527 1.6406-35.203-0.13281-10.836-0.9375-23.711-2.4922-37.895-5.1836-15.801-2.6172-31.164-7.4141-45.648-14.258-3.9805-2.0117-7.7109-4.4805-11.117-7.3594-0.94531-0.82422-1.8438-1.6992-2.6914-2.625-21.562 30.469 76.773 49.387 91.875 49.914 33.203 0.98437 66.434-0.39844 99.441-4.1445 52.93-5.9062 109.02-4.7891 162.36-13.332-9.8203 0.61719-19.664 0.68359-29.492 0.19531-16.219-0.78906-29.223-2.4297-38.156-3.543-8.9336-1.1172-13.789-2.0352-13.789-2.8125 0-0.77734 4.9883-1.3789 14.062-1.5078 9.0742-0.13281 22.02 0.25391 37.957 0.027344 18.375 0.3125 36.695-2.0781 54.375-7.0977 2.3984-0.76172 4.7422-1.6836 7.0234-2.7539 2.2617-0.97266 4.4375-2.1367 6.5039-3.4805l3.0195-1.875c1.1211-0.8125 2.1953-1.6875 3.2148-2.625l2.8984-2.5586c0.85156-0.9375 1.7734-1.875 2.4922-2.7578 0.31641-3.7109 0.40625-7.4414 0.26172-11.164-3.3711-2.668-7.1094-4.8359-11.098-6.4414-21.008-8.1914-42.988-13.625-65.391-16.16zm-116.32 35.988c-16.098 0-31.461-0.13281-45.383-0.39453-13.922-0.26172-26.137 0.46094-36.977 0.13281-8.5195-0.066406-17.008-1.0586-25.312-2.9531-1.125-0.32812-2.043-0.65625-2.9609-0.9375l-8.0703-0.78906c-8.4375-0.9375-16.82-1.5195-25.164-3.0938-4.2344-0.72266-8.3906-1.8438-12.414-3.3438-2.3984-0.95312-4.6211-2.3047-6.5625-4.0039-1.4023-1.2461-2.4062-2.875-2.8867-4.6875-0.5625-2.0273-0.40234-4.1836 0.44922-6.1055 1.2227-2.3828 3.0039-4.4336 5.1953-5.9805 1.6211-1.2031 3.3398-2.2617 5.1445-3.168 3.1992-1.6602 6.5156-3.0859 9.918-4.2656 5.9258-2.0781 11.98-3.7461 18.133-4.9961 22.398-4.7891 37.172-1.9688 36.777-0.32812-0.13281 0.78906-3.6094 0.98438-9.5898 2.0352-8.5547 1.4258-17.012 3.4023-25.312 5.9141-5.6562 1.6797-11.223 3.6523-16.68 5.9062-2.9219 1.2422-5.7734 2.6484-8.5391 4.2109-1.9766 1.0625-3.7578 2.4609-5.2578 4.1328 0.96094 0.63672 2 1.1406 3.0938 1.5078 3.3906 1.168 6.8867 2.0039 10.441 2.4961 7.5 1.3125 15.758 1.875 24.301 2.8125 4.1992 0.39453 8.4375 0.85156 12.543 1.2461 2.0352 0.19531 4.1328 0.46094 6.1016 0.65625l5.9805 0.19531c7.9414 0.39453 15.562 0.72266 22.855 1.0508 14.578 0.46094 27.844 0.13281 38.945 0.52344l0.003906 0.003906c11.77-0.63281 23.57-0.21484 35.266 1.2461 62.586 0.066406 112.7 2.4922 112.7 5.5234 0.003906 3.0273-52.242 5.4531-116.73 5.4531z"/>
 <path d="m706.96 371.48c2.4141-0.52344 4.8867-0.74609 7.3594-0.65625 4.5938 0.52344 7.2266 2.0352 7.3594 3.4766 0.066406 1.6406-2.8125 2.8867-6.8359 4.332-2.3633 1.0586-5.4453 2.4375-8.7383 4.0781-0.78516 0.90625-1.6875 1.6992-2.6914 2.3633-0.68359 0.6875-1.4297 1.3164-2.2305 1.875-18.379 10.188-33.516 25.348-43.676 43.742 3.3438 0.48438 6.5195 1.7695 9.2617 3.75 2.1484 1.4961 3.832 3.5703 4.8555 5.9805 1.0508 2.4023 1 5.1406-0.13281 7.5-2.1016 3.6172-4.6875 3.5547-5.625 2.6992-1.3125-0.9375-1.2461-3.2266-1.9688-4.4727-0.32813-0.65625-0.85156-0.65625-1.2461-0.9375l-2.5039-1.875v0.003907c-2.0039-1.4062-3.9336-2.918-5.7734-4.5312-1.5664 5.0898-2.4062 10.371-2.4922 15.695 19.434 15.938 48.008-16.68 59.504-30.477h-0.003907c1.0039-1.2148 2.293-2.1641 3.75-2.7578 1.4453-0.99219 3.1133-1.6016 4.8594-1.7734 22.285-0.73438 44.461-3.4375 66.27-8.0781 4.3984-3.8711 18.328-10.508 31.988-21.215v-0.003907c3.8008-3.1406 7.3125-6.6133 10.5-10.375 2.4648-3.0703 4.5195-6.4492 6.1016-10.051 2.6914-5.7188 3.3477-11.25 5.0625-11.035 1.2461 0.13281 3.75 4.1992 2.4922 13.125h0.003906c-0.79688 4.918-2.6094 9.6133-5.3242 13.789-0.58984 0.85156-1.1797 1.707-1.875 2.5586 47.289-0.72266 96.477-5.1172 142.78 6.375v0.003907c43.699 11.195 88.25 18.773 133.2 22.656 9.1211-0.65625 18.32-0.85156 27.516-0.9375 0.13281-45.449 1.2461-90.938 1.5078-136.35-79.012 9-157.75 20.43-236.83 29.559-39.273 4.5273-79.012 10.707-118.55 12.543-36.91 1.707-73.492-3.2266-110.07 3.8711-4.9297 5.5117-10.707 10.18-15.836 15.496v0.007813c17.496 5.8398 33.453 15.539 46.699 28.375 0.51953 0.49219 0.96875 1.0547 1.332 1.6719z"/>
 <path d="m215.62 682.19c4.043-0.59766 7.8984 1.9102 8.9922 5.8477 0.875 1.0039 1.4453 2.2305 1.6484 3.5469 0.10938 0.99219 0.28516 1.9805 0.52344 2.9531 0.09375 0.25391 0.16016 0.51953 0.19922 0.78516l0.13281 0.26172c0.13281 0.26172 0.85156 1.1172 0.9375 1.3125h-0.003906c0.26562 0.19531 0.51172 0.41797 0.72266 0.66797l0.98438 0.58984c0.39453 0.13281 1.3789 0.46094 1.5078 0.46094h0.003907c0.16797 0.058593 0.34375 0.10156 0.52344 0.12891h0.58984c0.98438 0 1.9688-0.066406 2.9531-0.13281v0.003907c2.6055-0.011719 5.1055 1.0117 6.9531 2.8477 1.8477 1.832 2.8906 4.3242 2.9023 6.9297 4.0195-5.6406 9.6875-9.8984 16.227-12.188 4.9062-1.5078 10.055-2.0664 15.168-1.6406 3.3477 0.52344 5.25 1.1172 5.3164 1.875 0.19531 1.7812-7.9414 2.3711-17.465 7.0312-8.1484 4.4609-22.199 18.066-13.922 26.598 8.1836 6.0273 17.969 9.5 28.125 9.9844 18.242 1.2812 36.578-0.046876 54.449-3.9375 27.32-5.0625 68.109-12.188 89.062-32.445v-0.003906c0.60938-0.54297 1.2656-1.0273 1.9688-1.4414 0.62109-0.87891 1.3789-1.6562 2.2422-2.2969 10.105-7.3594 33.555-24.562 28.5-40.199v-0.003907c-1.9922-5.4141-5.9922-9.8594-11.168-12.41 0.57422 3.5273 0.50781 7.1328-0.19531 10.641-0.66406 3.5273-1.6758 6.9805-3.0195 10.312-0.9375 2.3633-1.875 3.6094-2.5586 3.543-0.68359-0.066406-1.3203-1.5742-1.7148-4.0703-0.39453-2.4922-0.32813-6.2422-0.52344-10.379l-0.003906 0.003907c0.082031-4.2422-1.0078-8.4219-3.1484-12.086-0.39453-0.98438-1.3789-1.5742-2.1016-2.3633-0.26172-0.26172-0.65625-0.72266-0.85156-0.9375-2.5586-0.58984-5.0625-1.1172-7.4258-1.5742 1.5352 3.7188 2.5508 7.6289 3.0195 11.625 0.74219 7.0859-0.039062 14.25-2.2969 21.008-3.8516 10.805-9.9375 20.676-17.859 28.969-13.266 13.988-24.562 18.449-25.152 17.398-1.0508-1.5078 8.3359-8.2031 19.172-22.5v0.003906c6.2617-8.0391 11.023-17.141 14.062-26.871 3.6328-11.105 1.5273-23.297-5.625-32.539-1.7969-2.3203-3.8477-4.4336-6.1133-6.3008-2.2969-1.9688-5.25-3.75-7.875-5.625-0.10156-0.058594-0.21484-0.10547-0.32812-0.12891l-0.52344-0.26172-0.9375-0.46094-1.9766-0.9375h-0.003906c-1.2617-0.71094-2.6055-1.2617-4.0039-1.6406-2.7539-0.93359-5.5742-1.6562-8.4375-2.168-5.7734-1.2461-11.363-2.0352-17.203-3.4141v0.003906c-5.1836-1.4688-10.148-3.6133-14.773-6.375-6.6562-3.8828-12.465-9.0625-17.082-15.234-3.0859-4.2734-4.1328-6.9648-3.6094-7.5 1.4453-1.3125 8.6055 8.4375 24.301 15.758 4.2617 1.9727 8.7344 3.4492 13.332 4.4062 4.8008 0.78906 10.707 1.3125 16.875 2.2969 3.3359 0.4375 6.6289 1.1602 9.8438 2.168 1.7266 0.44531 3.3984 1.0742 4.9961 1.875l1.4453 0.65625c-0.32812-1.1797-0.58984-2.2969-0.85156-3.3477-0.13281-0.72266-0.26172-1.3125-0.32812-2.0352-1.3125-1.2461-2.6914-2.4922-4.1445-3.6758-5.3828-4.4727-11.887-8.2773-18.648-13.461-9.4609-7.2266-19.18-13.734-27.582-20.363-7.7188-5.7773-14.832-12.328-21.227-19.547-4.3594-4.8906-8.0078-10.375-10.836-16.285-1.875-4.0781-2.625-6.5625-1.9688-6.9648s2.5586 1.2461 5.625 4.6016c3.9805 4.6719 8.2578 9.082 12.805 13.203 6.8516 6.0469 14.09 11.641 21.676 16.742 8.5391 5.9805 18.328 12.188 28.246 19.773 4.1328 3.1484 8.6641 6.168 13.07 9.4609v-0.003906c-1.6445-12.75-6.7266-24.816-14.699-34.902-16.023-17.812-35.793-31.461-51.816-49.258-0.49219-0.55078-0.93359-1.1445-1.3125-1.7812-11.168-4.1875-20.328-12.453-25.645-23.129-5.3125-10.676-6.3828-22.969-2.9961-34.402-0.70312 0.65625-1.3633 1.3594-1.9688 2.1094-7.6445 9.5078-12.527 20.93-14.121 33.027-1.4648 10.332-2.0117 20.77-1.6406 31.199 0.65625 18.066 2.1016 29.492 0.46094 29.82-1.3789 0.26172-5.5234-10.508-8.2773-29.164-1.5703-11.012-1.793-22.172-0.65625-33.234 1.3008-13.578 6.3711-26.523 14.645-37.367-2.082-0.066406-4.1641-0.003906-6.2344 0.19531-5.1602 0.69531-10.16 2.2812-14.777 4.6875-8.0234 4.5352-15.074 10.602-20.754 17.859-10.246 12.543-15.629 21.477-17.016 20.625-1.1172-0.58984 1.7812-10.508 10.969-25.086 4.1328-6.4727 9.2266-12.277 15.109-17.215-18.039 2.5977-35.648 7.6133-52.348 14.918-3.6094 2.8125-7.2852 5.9062-11.102 9.2539v-0.003906c-8.5273 7.3398-15.809 16.012-21.562 25.68-6.2344 10.051-11.25 21.086-16.285 30.742-1.875 4.8672-3.6094 9.4609-5.25 13.727-1.6406 4.2656-2.3047 8.7383-3.4219 12.543v-0.003906c-1.6211 6.1758-2.8906 12.434-3.8047 18.75-0.9375 4.5273-1.875 7.0234-2.5586 7.0234-0.68359 0-1.3789-2.4922-1.7734-7.2188-0.71875-6.6289-0.60156-13.32 0.34766-19.922 0.48828-4.6445 1.2773-9.25 2.3633-13.789 1.5078-4.8555 3.1484-9.9844 4.8555-15.496v-0.003906c4.6797-11.047 10.031-21.793 16.031-32.184 1.5742-2.5586 3.2812-4.9883 5.0547-7.4258-16.656 12.031-30.109 27.965-39.18 46.398-32.148 69.375 9.8242 159.21 93.75 152.5zm29.559-158.13c1.875 0 0.58984 15.496 10.902 37.5 6.0625 12.988 13.902 25.074 23.289 35.906 10.211 12.152 22.164 22.734 35.465 31.398l2.4297-0.26172v-0.003907c10.168-1.0586 20.441-0.30078 30.348 2.2344 12.238 2.7812 23.508 8.7891 32.641 17.398 4.3711 4.5977 7.6445 10.125 9.582 16.164 2.2891 7.1289 2.0547 14.824-0.65625 21.805l-1.5742 4.1992c-1.0547 2.6172-2.3984 5.1055-4.0039 7.4258-3.0078 4.3086-6.7422 8.0586-11.035 11.09-7.4922 5.0195-15.91 8.5039-24.758 10.246-12.223 2.5117-24.711 3.457-37.172 2.8125-8.6719-0.39453-13.461-1.2578-13.461-1.9766 0-0.72266 4.7891-1.4453 13.332-2.2969h-0.003907c11.934-1 23.758-3.043 35.336-6.1016 7.6562-2 14.871-5.4102 21.281-10.051 3.2852-2.5156 6.1055-5.582 8.3359-9.0664 1.1367-1.7188 2.0625-3.5703 2.7539-5.5117 2.3516-5.1445 3.0586-10.887 2.0234-16.449-1.0312-5.5586-3.7578-10.664-7.7969-14.621-7.8047-7.0547-17.309-11.965-27.582-14.25-7.582-1.9766-15.426-2.75-23.25-2.2969-0.26172 0.46094-0.58984 0.9375-0.85156 1.3125l-2.6328 3.2812-4.0039-2.4297-0.003906 0.003907c-16.223-10.023-30.512-22.883-42.188-37.961-9.5312-11.82-17.125-25.078-22.5-39.281-3.6953-9.4023-5.6953-19.383-5.9062-29.484 0.085937-7.0781 1.1641-10.734 1.6602-10.734zm-90.836 88.07c0.73047-0.19531 2.3711 2.3633 4.6016 7.293 1.4453 2.2305 2.9531 4.9219 4.9219 7.9492h0.003906c2.3359 3.3867 4.9062 6.6133 7.6875 9.6484 17.145 17.02 38.789 28.801 62.391 33.953 4.8008 1.2461 9.5898 2.1641 14.25 2.8984-3.4141-1.1914-6.8242-2.5039-10.312-4.0117l-2.2969-0.9375-0.58984-0.26172-0.9375-0.46094-1.1172-0.58984c-1.4453-0.78906-2.8867-1.5742-4.3984-2.3633h0.003907c-3.0703-1.5469-6.0547-3.2578-8.9375-5.1289-5.9648-3.9727-11.492-8.5742-16.48-13.723-4.6758-4.6641-8.8398-9.8125-12.41-15.367-3.0898-5.0273-5.8555-10.25-8.2812-15.629-1.875-5.1953-3.6094-10.051-4.8672-14.523-0.85156-4.5273-1.6406-8.6641-2.2969-12.348l0.003906 0.003906c-0.44531-3.1055-0.66406-6.2383-0.65625-9.375-0.066406-5.1289 0.26172-8.0156 1.0508-8.082 0.78906-0.066406 1.875 2.6914 3.2266 7.5 0.78906 2.3711 1.2461 5.3906 2.4297 8.7383 1.1797 3.3477 2.3633 7.0977 3.75 11.25 1.6406 4.0703 3.75 8.3438 5.7188 13.07 2.625 4.3398 5.0547 9.1953 8.4375 13.727l-0.003907-0.003906c3.4336 4.832 7.3281 9.3242 11.625 13.406 4.4258 4.3672 9.2383 8.3242 14.379 11.82 2.5703 1.875 5.8516 3.3477 8.6719 5.0547 1.4453 0.78906 2.8867 1.6406 4.3398 2.4297l1.1172 0.58984 0.13281 0.13281 0.58984 0.19531 2.1641 0.9375c5.7734 2.6328 11.43 4.8672 16.875 6.8359v-0.003907c9.6211 3.5234 19.566 6.0742 29.691 7.625 5.7031 0.78906 11.449 1.207 17.203 1.2461-3.3086-0.98828-6.5352-2.2461-9.6445-3.75l-2.1094-0.9375-1.0508-0.46094-0.13281-0.066407-0.066406-0.066406h-0.066407l-0.46094-0.32812-0.19531-0.13281-0.46094-0.32812 0.003906 0.003906c-1.3164-0.89844-2.5703-1.8828-3.75-2.9531-2.6602-2.5859-4.9805-5.5-6.8984-8.6719-2.6562-5.7344-6.5664-10.797-11.449-14.812-2.7812-1.0469-5.7656-1.4531-8.7266-1.1797-2.4141 0.042969-4.8203-0.21875-7.1641-0.78906-1.875-0.52344-3.8711-1.0508-5.8516-1.5742h0.003906c-8.6523-3.1719-16.68-7.8438-23.711-13.801-6.8242-5.8047-12.887-12.449-18.047-19.773-4.6641-6.8945-8.4766-14.324-11.363-22.133-4.6758-13.094-6.7734-26.965-6.1758-40.855 1.0508-23.578 7.2266-36.91 8.3438-36.516 1.875 0.39453-1.5078 14.324-0.52344 36.449h-0.003906c0.53125 12.797 3.2188 25.41 7.9492 37.312 2.8086 6.8789 6.375 13.418 10.641 19.5 4.7109 6.3945 10.129 12.234 16.156 17.41 5.9023 4.9805 12.543 9.0117 19.688 11.953 1.9688 0.52344 3.9375 1.1172 5.8398 1.707 1.5117 0.32422 3.0547 0.5 4.6016 0.52344 4.7656-0.16406 9.4922 0.89844 13.727 3.0859l1.1797 0.72266 0.46094 0.32812h0.066407l0.066406 0.13281 0.13281 0.13281 0.32812 0.26172 0.58984 0.58984 2.4297 2.3711-0.003906-0.003906c1.332 1.5898 2.5391 3.2773 3.6094 5.0547 2.1094 3.3477 3.5547 6.5078 5.1289 9.2617 1.2617 2.4492 2.7773 4.7578 4.5273 6.8906 1.0156 1.0508 2.0938 2.0391 3.2227 2.9609l0.46094 0.32812 0.85156 0.52344 1.7734 0.9375v0.003906c5.7656 3.3047 11.891 5.9492 18.254 7.875l0.73047-0.19531v-0.003906c2.5312-0.67188 5.1289-1.0664 7.7422-1.1797 3.6211-0.33594 7.2578 0.34766 10.512 1.9688 1.0742 0.64453 2.0664 1.4219 2.9531 2.3047l1.5742 1.6406c1.5898 1.7852 2.7812 3.8867 3.4883 6.1719 0.79688 2.8047 0.54297 5.8047-0.72266 8.4375-1.125 2.2539-2.7969 4.1875-4.8672 5.625-5.8867 3.9336-12.566 6.5312-19.562 7.6094-5.2266 0.98047-10.52 1.5508-15.836 1.707-9 0.26172-14.578-0.78906-14.711-2.2969-0.13281-1.5078 5.25-3.2812 13.594-5.4453 4.2109-1.1172 9.1953-2.3047 14.512-3.8828h0.003907c5.3867-1.3242 10.531-3.4961 15.242-6.4297 0.66797-0.46094 1.2461-1.0391 1.707-1.707 0.19531-0.39453 0.26172-0.32812 0.13281-0.85156h-0.003907c-0.22266-0.71875-0.53906-1.4062-0.9375-2.0469l-1.3789-1.707c-0.066406 0-0.26172-0.26172-0.46875-0.46094l0.003906 0.003906c-1.6875-0.89062-3.5469-1.4062-5.4492-1.5078-1.6797-0.16406-3.3672-0.23047-5.0508-0.19922-3.6836 1.2461-8.082 2.8125-13.602 4.332h-0.003906c-2.6719 0.625-5.3945 1.0234-8.1367 1.1914l-8.2109 0.19531-18.055 0.19531c-3.1602 0.066406-6.4414 0.066406-9.7227 0.066406-3.75-0.19531-7.0977-0.32812-10.707-0.78906v0.003906c-7.3281-0.8125-14.59-2.1094-21.742-3.8828-25.73-5.5-48.863-19.496-65.68-39.73-2.75-3.6055-5.125-7.4766-7.0898-11.559-1.4336-3.1523-2.6406-6.3984-3.6094-9.7227-1.0312-5.2695-1.2266-8.2969-0.50391-8.5586z"/>
 <path d="m531.01 721.21c-12.316-22.859-22.391-46.859-30.074-71.664-0.13281-0.26172-0.32812-0.46094-0.46094-0.72266-14.512-31.453-52.941-52.93-53.859-90.301h0.003907c0.003906-0.58984 0.046874-1.1836 0.12891-1.7695-2.9961-10.742-2.9258-22.109 0.19922-32.812 4.1914-9.9688 10.41-18.961 18.262-26.402-0.11328-7.3711-1.2617-14.688-3.4141-21.738-43.352-27.789-95.297-27.133-145.41-26.867v-0.003906c-0.050781 0.23828-0.13672 0.46094-0.26172 0.66797-0.42578 0.69531-0.79688 1.418-1.1172 2.1641 3.543-0.875 7.1875-1.2734 10.836-1.1797 4.2969 0.078125 8.5781 0.49219 12.809 1.2461 15.102 2.8125 23.711 6.168 23.711 7.5-0.19531 1.5742-8.3438 1.0508-20.953 0.39453 0.13281 0.19531 0.26172 0.26172 0.32812 0.46094l-0.003907-0.003906c0.75781 1.3945 1.1445 2.957 1.125 4.5391-0.074218 1.1172-0.27344 2.1016-0.33594 2.625-0.054687 0.125-0.074219 0.25781-0.066406 0.39453 1.9336 2.668 4.4805 4.832 7.4258 6.3086 3.0352 1.3164 6.2422 2.1992 9.5234 2.625 5.4453 0.85156 10.246 0.19531 10.574 1.875 0.32812 1.2461-2.4297 4.5273-10.312 5.9727h0.003906c-4.4805 0.70703-9.0625 0.38672-13.398-0.9375-5.75-1.8711-10.656-5.7109-13.855-10.84-1.0859-2.3125-1.3438-4.9336-0.72266-7.4141 0-0.26172-1.1914-0.52344-1.875-0.72266-4.5273-1.5078-9.0547-5.5234-13.727-2.0352-7.3516 5.4453 0.72266 12.676 6.1133 15.496 4.6875 2.4297 10.18 5.4453 14.445 7.4258h0.003907c4.4102 2.0078 9.0078 3.5781 13.723 4.6875 7.7344 2.1602 15.887 2.3398 23.711 0.52734 5.2031-1.293 9.9375-4.0234 13.66-7.8867 2.8984-2.8125 4.4727-4.8555 5.1953-4.332 0.72266 0.52344 0.46094 2.7578-1.5742 6.7695h-0.003906c-3.2188 5.8828-8.4062 10.438-14.652 12.875-9.082 3.4102-18.961 4.1172-28.434 2.0312-1.7969-0.32031-3.5742-0.73828-5.3281-1.2461 17.672 17.598 41.711 31.875 54.121 53.438 12.281 21.348 9.918 47.418 22.922 67.781h0.003907c16.316 1.8047 31.773 8.2578 44.531 18.59 0.13281-4.4219-0.18359-8.8477-0.9375-13.207-0.85156-6.1016-2.8125-10.707-1.3789-11.559 1.1172-0.65625 5.1836 1.5859 8.8594 9.0664v-0.003906c1.9336 4.1719 3.1797 8.6328 3.6836 13.203 0.58594 5.4609 0.51953 10.977-0.19531 16.422-0.13281 0.98437-0.39453 1.875-0.58984 2.8125h-0.003906c0.32031 1.3398 0.53906 2.6992 0.65625 4.0703 1.7734 20.559-12.945 37.039-28.379 49.688h0.003907c0.44922 0.62109 0.80469 1.3047 1.0469 2.0352 12.348 32.57 32.184 63.75 37.379 96.805 39.582 34.387 97.707 47.129 150.02 47.324-18.844-24.168-37.367-48.602-56.945-72.242-17.09-19.457-32.711-40.156-46.734-61.93z"/>
 <path d="m988.78 688.43c4.9961-0.066406 10.707-0.19531 16.949-0.32812 25.219-0.32812 60.227-3.0938 99.496-0.9375 8.125 0.85547 16.07 1.7109 23.84 2.5586 3.75 0.78906 7.4258 1.5078 11.035 2.2305 1.9688-85.312 2.625-170.62 2.6914-256.01-1.3125 0-2.625 0-3.9375 0.066407-1.8008 1.6992-4.2344 2.5586-6.7031 2.3711-7.6133-0.46094-15.102-0.9375-22.66-1.4531-0.72266 0.058593-1.4531 0.015624-2.1641-0.12891-3.4141-0.26172-6.7578-0.46094-10.172-0.72266-13.473 22.004-26.672 50.578-47.625 66.797 8.0117 4.3594 15 10.383 20.492 17.664 5.1289 7.293 4.9961 12.488 3.8047 13.012-1.4453 0.78906-4.3984-3.5547-9.6484-7.8203h0.003906c-7.418-5.9648-15.453-11.117-23.973-15.363l-2.5703-1.3789h0.003906c-1.6719-0.007812-3.3047-0.51172-4.6875-1.4531-0.89844-0.14844-1.7773-0.39062-2.625-0.72266-70.078-30.664-146.4-50.766-213.98-86.691-27.188 15-60.938 16.023-91.688 18.656-1.7734 2.1016-3.75 4.2656-5.7188 6.4297v0.003907c5.0039-1.3125 10.141-2.0625 15.309-2.2344 9.582-0.19531 14.578 2.2305 14.512 3.543 0 1.707-5.7852 2.1641-13.461 4.2734v0.003906c-10.547 2.9648-20.918 6.5117-31.066 10.633-1.6406 0.66406-3.2148 1.1914-4.8555 1.7148-19.445 14.773-42.824 23.184-62.664 4.332-1.1211-1.0664-1.9961-2.3672-2.5586-3.8086-1.2109-1.6328-1.8984-3.5938-1.9688-5.625-1.875-35.008 22.727-63.242 50.176-82.293-58.23-43.613-165.81-21.816-174.15 58.508-0.066406 0.26172-0.12109 0.46094-0.19531 0.72266 0.074218 0.32812 0.13281 0.58984 0.19531 0.9375 1.7148 30.348 23.906 51.039 45.777 69.75 3.875-14.812 12.449-27.969 24.434-37.5 2.75-1.957 5.7578-3.5352 8.9336-4.6875-4.7031-2.1953-9.668-3.7695-14.777-4.6875-7.5547-1.3125-13.461-1.4453-13.527-3.1484-0.066406-0.78906 1.1797-1.6406 3.4766-2.5586h0.003906c3.375-1.2344 6.918-1.9453 10.508-2.1016 5.4375-0.24609 10.883 0.44141 16.086 2.0352 6.3789 2.1094 12.324 5.3594 17.543 9.5898 8.7305 7.543 16.145 16.488 21.938 26.465 4.332 7.4141 6.3672 12.414 5.1836 13.332-1.1797 0.91797-5.5117-2.4297-11.43-8.5391-1.875-1.875-4.0039-4.1328-6.168-6.4961v-0.003906c0.55859 4.1797 0.69141 8.4062 0.39453 12.609-2.332 22.82 0.86719 45.863 9.3203 67.184 12.816 32.973 6.375 51.695-2.2305 83.223 41.578 64.227 121.57 111.25 187.18 147.9 37.668 19.684 74.277 41.324 109.69 64.828 37.707-6.6172 75.785-10.914 114.02-12.871 33.039-1.0586 67.059-4.6875 99.965-0.27344 2.293-49.062 4.0664-98.102 5.3164-147.11-4.0703-0.72266-8.1484-1.5078-12.348-2.2969-7.5-0.72266-15.168-1.5078-22.988-2.2969-38.156-2.1094-73.359-0.58984-98.973-2.3047-6.375-0.46094-12.188-0.9375-17.277-1.3125-4.9883-0.58984-9.375-1.3125-12.805-1.9688-7.0234-1.2461-10.902-2.2969-10.773-3.0195 0.13281-0.72266 4.0117-1.1797 11.164-1.2461 3.5469-0.039062 7.875 0.027344 12.93 0.027344zm-112.17-1.9688c-28.527-1.4883-56.945-4.6172-85.117-9.375-15.613-2.7617-31.055-6.4453-46.234-11.035-12.438-3.8477-24.504-8.793-36.066-14.773-20.023-10.508-29.289-20.625-28.633-21.609 1.0508-1.5078 12.348 6.4961 31.988 14.512 11.605 4.7617 23.508 8.7773 35.625 12.02 13.727 3.75 29.062 7.0312 45.254 9.9844 32.504 5.7109 62.391 9.1953 84 12.477s34.742 6.168 34.742 7.6875c-0.22266 1.4922-13.754 1.2969-35.559 0.11328z"/>
 <path d="m764.89 793.12c-53.98-35.531-114.38-70.867-152.57-124.46-0.13281 1.4453-0.32812 2.8125-0.46094 4.0703-0.46094 4.9961-1.1172 8.4375-2.6914 8.6719-1.5742 0.23438-3.4766-2.5586-5.1172-7.5469l0.003906-0.003906c-1.7305-6.9023-1.9102-14.102-0.52734-21.082-0.24219-1.4727-0.15234-2.9766 0.26562-4.4062 5.4453-20.223 16.48-37.566 9.1875-59.305v-0.003906c-7.3164-17.758-12.879-36.191-16.613-55.031-0.46094-3.3555-1.4453-53.664-4.332-51.562-12.059 9.5273-19.777 23.504-21.414 38.785-0.28516 2.3242-1.3203 4.4883-2.9531 6.168-1.5898 2.582-4.2305 4.3359-7.2266 4.8008-2.9922 0.46875-6.043-0.39844-8.3438-2.3711-25.742-22.398-52.602-44.652-61.012-77.559-4.0742 3.2773-6.9219 7.8359-8.082 12.938 0.27344 6.8438 0.95703 13.664 2.043 20.426 1.5078 9.0547 2.9531 17.531 3.4141 23.973 0.46094 6.4414-0.13281 10.5-1.6406 10.836-1.5078 0.33594-3.6172-3.2266-5.9805-9.1328-0.19531-0.39453-0.32813-0.85156-0.52344-1.2461 0 0.066407 0 0.066407-0.066406 0.13281-0.13281 1.4453-0.26172 2.9531-0.26172 4.4609-0.19531 7.3594 0.32812 14.383 0.19531 19.688-0.13281 5.3047-0.85156 8.7266-2.3633 9.0547-1.5078 0.32812-3.4766-2.6914-5.3906-7.7422v0.003907c-1.3516-3.8828-2.3203-7.8867-2.8867-11.953-4.9648 8.7539-6.2422 19.129-3.5469 28.828 0.25 1.2578 0.27344 2.5469 0.066406 3.8125 0.16016 0.69141 0.25 1.3945 0.26172 2.1016 0.72266 30.992 38.746 53.438 51.227 80.391 0.27734 0.63672 0.49609 1.293 0.65625 1.9688 0.57422 0.78516 1.0391 1.6484 1.3789 2.5586 11.25 30.477 20.887 59.062 40.398 85.641 16.48 22.5 34.875 43.285 52.211 65.023 35.008 43.734 67.059 89.383 106.27 129.58h-0.003906c0.95703 0.98438 1.7188 2.1445 2.2422 3.4141 45.047-1.875 90.43-8.8047 135.49-4.332 36.055 3.6094 72.637 9.4492 108.96 6.6953-49.785-62.664-135.45-93.73-200.25-136.29z"/>
</svg>
