<?xml version="1.0" encoding="UTF-8"?>
<svg width="1200pt" height="1200pt" version="1.1" viewBox="0 0 1200 1200" xmlns="http://www.w3.org/2000/svg">
 <path d="m475.03 524.53v38.016c-98.016 0.89062-182.29 12.047-225 27.75-13.359 4.9219-23.016 10.453-28.781 16.031-5.9531 5.7656-8.5781 11.953-8.7188 18v173.91c-65.203 12.469-116.72 29.344-148.22 48.562-26.297 16.078-39.281 34.781-39.281 53.203 0 45.141 22.734 87.234 72.797 121.03 70.172 47.438 196.4 78.984 389.68 78.984 173.95 0 293.58-25.5 366.89-65.156 13.734 16.875 34.688 27.656 58.125 27.656 41.391 0 75-33.609 75-75 0-2.25 0-4.4062-0.09375-6.6094 1.5469 1.5469 3.0938 3.1406 4.6406 4.7344 29.297 29.25 76.828 29.25 106.08 0 29.25-29.297 29.25-76.828 0-106.08-1.5469-1.5938-3.1406-3.0938-4.7344-4.6406 2.2031 0.046874 4.4062 0.09375 6.6094 0.09375 41.391 0 75-33.609 75-75 0-41.438-33.609-75-75-75-2.2031 0-4.4062 0-6.6094 0.046874 1.5938-1.5 3.1875-3.0469 4.7344-4.5938 29.25-29.297 29.25-76.828 0-106.08s-76.781-29.25-106.08 0c-1.5469 1.5469-3.0938 3.1406-4.6406 4.6875 0.09375-2.1562 0.09375-4.3594 0.09375-6.5625 0-41.438-33.609-75-75-75s-75 33.562-75 75c0 2.2031 0.046875 4.4062 0.09375 6.5625-1.5469-1.5469-3.0469-3.1406-4.6406-4.6875-23.484-23.484-58.688-28.125-86.812-13.969-5.4844-3.5156-12.562-6.9844-21.141-10.125-42.703-15.703-126.98-26.859-225-27.75v-38.109c68.719-6.2812 125.02-63.938 125.02-149.44 0-65.438-22.688-104.81-45.609-142.4-20.766-34.172-41.906-66.656-41.906-120.1 0-4.6406-2.5781-8.9062-6.7031-11.062s-9.0938-1.875-12.938 0.79688c0 0-60.141 41.625-108.28 108.23-32.672 45.188-59.578 101.77-59.578 164.53 0 54.375 17.531 91.594 43.031 115.41 22.688 21.094 51.891 31.828 81.984 34.125zm-409.74 429.24c10.266 16.828 25.688 32.484 46.547 46.594 67.594 45.656 189.47 74.625 375.66 74.625 168.14 0 283.82-23.625 354.52-61.875-2.9062-7.9688-4.5-16.594-4.5-25.594 0-2.2031 0.046875-4.4062 0.09375-6.6094-1.5469 1.5469-3.0469 3.1406-4.6406 4.7344-21.141 21.141-51.844 27-78.281 17.578-74.953 13.688-167.29 21.797-267.19 21.797-176.26 0-329.21-25.453-405.14-62.062-6.1875-3-11.859-6.0469-17.062-9.1875zm825.47-95.156c-10.594 22.875-28.266 69.984-28.266 128.9 0 27.562 22.406 49.969 50.016 49.969s50.016-22.406 50.016-49.969c0-58.922-17.672-106.03-28.266-128.9-6.75 2.5312-14.109 3.8906-21.75 3.8906s-14.953-1.3594-21.75-3.8906zm-23.484-15.516c-17.438 8.2969-50.484 21.656-93.047 28.172-0.46875 0.32812-0.9375 0.70312-1.4531 1.125-9.4219 7.2656-18.891 15.516-28.219 24.844-19.5 19.5-19.5 51.188 0 70.734 19.547 19.5 51.188 19.5 70.734 0 9.2812-9.3281 17.531-18.844 24.844-28.266 0.42188-0.46875 0.79688-0.9375 1.125-1.4062 6.5156-42.609 19.875-75.609 28.172-93.047-0.75-0.70312-1.4531-1.4062-2.1562-2.1562zm90.469 0c-0.70312 0.75-1.4062 1.4531-2.1094 2.1562 8.2969 17.438 21.656 50.438 28.125 93.047l1.125 1.4062c7.3125 9.4219 15.562 18.938 24.844 28.266 19.547 19.5 51.234 19.5 70.734 0 19.5-19.547 19.5-51.234 0-70.734-9.2812-9.3281-18.797-17.578-28.219-24.844-0.51562-0.42188-0.98438-0.79688-1.4531-1.125-42.562-6.5156-75.609-19.875-93.047-28.172zm-252.79-177.14c-48.516 12.938-127.87 21.562-217.45 21.562-103.27 0-192.94-11.484-237.47-27.797-4.5938-1.7344-8.7656-3.5156-12.516-5.3438v244.97c0.42188 0.46875 1.6875 1.9219 2.7656 2.7656 4.2188 3.2344 10.453 6.2344 18.375 9.0938 42.891 15.797 129.32 26.297 228.84 26.297 92.812 0 174.24-9.1875 219.71-23.156 3.1875-12.75 9.75-24.844 19.688-34.781 1.5938-1.5938 3.1406-3.0938 4.7344-4.6406-2.2031 0.046875-4.3594 0.09375-6.6094 0.09375-41.391 0-75-33.609-75-75 0-41.438 33.609-75 75-75 2.25 0 4.4062 0 6.6094 0.046875-1.5938-1.5-3.1406-3.0469-4.7344-4.5938-15-15-22.312-34.828-21.938-54.516zm148.97 112.31c-22.922-10.594-69.984-28.266-128.9-28.266-27.609 0-50.016 22.406-50.016 50.016 0 27.562 22.406 49.969 50.016 49.969 58.922 0 105.98-17.672 128.9-28.219-2.5312-6.7969-3.8906-14.109-3.8906-21.75 0-7.6875 1.3594-15 3.8906-21.75zm117.19 43.5c22.922 10.547 70.031 28.219 128.9 28.219 27.609 0 50.016-22.406 50.016-49.969 0-27.609-22.406-50.016-50.016-50.016-58.875 0-105.98 17.672-128.9 28.266 2.5312 6.75 3.8906 14.062 3.8906 21.75 0 7.6406-1.3594 14.953-3.8906 21.75zm-58.594-59.25c20.719 0 37.5 16.781 37.5 37.5 0 20.672-16.781 37.5-37.5 37.5s-37.5-16.828-37.5-37.5c0-20.719 16.781-37.5 37.5-37.5zm-71.297-101.2c-0.32812-0.32812-0.70312-0.70312-1.0781-1.0312-8.4375-8.4375-15.562-18.938-24.844-28.219-19.547-19.5-51.188-19.5-70.734 0-19.5 19.5-19.5 51.188 0 70.688 9.3281 9.3281 18.797 17.578 28.219 24.891 0.51562 0.375 0.98438 0.75 1.4531 1.125 42.562 6.4688 75.562 19.828 93.047 28.125 0.70312-0.70312 1.4062-1.4531 2.1562-2.1562-8.3438-17.484-21.75-50.625-28.219-93.422zm209.58 67.453c0.46875-0.375 0.9375-0.75 1.4531-1.125 9.4219-7.3125 18.938-15.562 28.219-24.891 19.5-19.5 19.5-51.188 0-70.688s-51.188-19.5-70.734 0c-9.2812 9.2812-17.531 18.797-24.844 28.219-0.375 0.46875-0.75 0.98438-1.125 1.4062-6.4688 42.609-19.828 75.609-28.125 93.047 0.70312 0.70312 1.4062 1.4531 2.1094 2.1562 17.484-8.2969 50.484-21.656 93.047-28.125zm-116.53 12.609c10.594-22.875 28.266-69.984 28.266-128.86 0-27.609-22.406-50.016-50.016-50.016s-50.016 22.406-50.016 50.016c0 58.875 17.672 105.98 28.266 128.86 6.7969-2.4844 14.109-3.8906 21.75-3.8906s15 1.4062 21.75 3.8906zm-434.26-153.84v37.453c0 6.8906-5.5781 12.516-12.516 12.516-6.8906 0-12.469-5.625-12.469-12.516v-37.453c-94.219 0.84375-175.26 11.156-216.37 26.25-7.9219 2.9062-14.156 5.8594-18.375 9.0938-0.75 0.60938-1.5938 1.4531-2.2031 2.1094 0.60938 0.65625 1.4531 1.5469 2.2031 2.1094 4.2188 3.2344 10.453 6.2344 18.375 9.1406 42.891 15.75 129.32 26.25 228.84 26.25 95.438 0 178.82-9.6562 223.36-24.328 3.1875-7.5938 7.7344-14.766 13.547-21.141-2.4375-1.125-5.1094-2.2031-8.0156-3.2344-41.109-15.094-122.16-25.406-216.37-26.25zm0-92.766c4.1719-4.5469 9.2344-10.734 13.781-17.812 5.9531-9.2344 11.203-20.109 11.203-31.125 0-21.891-8.7656-31.5-17.016-45.609-7.7344-13.266-15.656-29.531-18.891-58.031-16.969 20.531-39.094 54.516-39.094 92.531 0 33.844 15.844 53.391 25.031 61.922v-59.156c0-6.8906 5.5781-12.469 12.469-12.469 6.9375 0 12.516 5.5781 12.516 12.469z" fill-rule="evenodd"/>
</svg>
