<?xml version="1.0" encoding="UTF-8"?>
<svg width="1200pt" height="1200pt" version="1.1" viewBox="0 0 1200 1200" xmlns="http://www.w3.org/2000/svg">
 <path d="m866.39 260.34c-69.375-41.531-174-47.297-266.39 56.156-92.391-103.45-197.06-97.688-266.39-56.156-49.125 31.078-85.359 78.938-101.95 134.68-16.594 55.688-12.422 115.55 11.719 168.47 14.203 32.062 31.406 62.766 51.328 91.688 10.312-3.5156 20.906-6.0938 31.688-7.6875 0.375-2.5781 0.84375-5.1562 1.4531-7.6875 9.8438-61.219 55.594-110.48 115.92-124.82 13.359-3.1875 27.047-4.7812 40.781-4.7812 37.172 0.09375 73.453 11.438 104.06 32.531 30.609 21.141 54.094 51.047 67.312 85.781 18.422 49.172 27.422 101.34 26.625 153.84 0 16.547-0.70312 32.859-2.1562 48.703-1.2188 16.781-3.1406 33.141-5.5312 48.703 101.06-73.453 221.53-178.55 281.76-316.31v0.046875c24.188-52.922 28.359-112.78 11.766-168.52s-52.828-103.55-102-134.63z"/>
 <path d="m452.39 550.03c-47.062 11.531-93.375 52.078-92.156 131.53-79.922-1.6875-119.77 45.141-131.53 91.922-16.359 71.672 22.828 144.42 91.688 170.16 45.094 16.641 92.859 24.797 140.9 24 51.562-0.84375 102.94-6.7031 153.32-17.531 7.1719-1.4062 12.797-6.9844 14.156-14.156 10.922-50.531 16.875-101.95 17.766-153.61 0.75-48-7.4531-95.672-24.234-140.63-25.641-68.812-98.297-108.05-169.92-91.688z"/>
</svg>
