<?xml version="1.0" encoding="UTF-8"?>
<svg width="1200pt" height="1200pt" version="1.1" viewBox="0 0 1200 1200" xmlns="http://www.w3.org/2000/svg">
 <path d="m659.26 395.16c-3.4219 0.79688-6.1875 1.4531-7.9219 1.875-25.922 7.7812-98.859 25.734-109.45 29.672-3.375 1.2656-7.125 0.98438-10.312-0.75-42.891-23.203-182.02-79.969-224.06-96.938-9.5156 27.281-32.297 93.047-42.469 126.56 0 0 252.19 114.33 252.28 114.38 33.094 11.578 66-0.1875 66-0.1875 0.65625-0.23438 1.3125-0.42188 1.9688-0.51562l113.77-20.719c0.70312-0.09375 1.3125-0.14062 1.9688-0.1875 6.0469-0.14062 12.094-2.5781 16.734-7.2656 9.4688-9.5625 9.7969-24.938 0.51562-34.312-4.4531-4.5469-10.359-6.7969-16.266-6.75l-125.76 12.422c-6.8438 0.70312-12.938-4.3594-13.641-11.203-0.70312-6.8438 4.3125-12.984 11.203-13.688l126.24-12.469c0.32812-0.046875 0.65625-0.046875 0.98438-0.09375 12.75-0.23438 25.453 4.5 35.062 14.203 18.703 18.938 18.609 50.062-0.51562 69.469-9.1875 9.2812-21.047 14.156-32.953 14.672 0 0-111.98 20.344-111.89 20.297-1.4062 0.46875-4.0781 1.2656-7.7812 2.1562l-29.344 4.0781c-13.547 0.46875-29.438-0.89062-45.281-6.5625-0.32812-0.09375-0.65625-0.23438-0.9375-0.375l-262.5-119.06c-5.5781-2.5312-8.5312-8.7188-6.8906-14.672 9.7031-35.531 50.25-150.84 50.25-150.84 1.125-3.1875 3.5156-5.8125 6.6562-7.2188 3.0938-1.4062 6.6562-1.5 9.7969-0.23437 0 0 176.9 71.109 234.05 100.59 20.672-6.0469 82.312-21.422 105.56-28.453 0.28125-0.046874 0.5625-0.14062 0.84375-0.1875 7.0312-1.6406 30.656-7.6406 49.781-8.625l2.1094-1.6406c10.875-7.875 22.734-14.766 35.531-20.297 34.594-15 110.11-16.969 126.66-17.25 15.375-8.4375 91.5-49.969 140.81-70.875v-78.562c-25.5-14.484-44.672-27.844-44.672-27.844-2.5781-1.7812-4.4062-4.5469-5.0625-7.6406-5.6719-26.906-12.75-60.75-12.75-127.6 0-6.9375 5.5781-12.516 12.469-12.516h225v1200h-312.47c-6.9375 0-12.516-5.625-12.516-12.516v-272.16c-6.8438-14.812-38.578-89.203-49.969-214.22-0.09375-0.98438-0.14062-1.875-0.1875-2.7188-4.7812-11.109-9.3281-21.797-13.219-30.891-39.938 88.219-111.61 218.76-149.39 274.26-1.4531 18.141-9.2344 102.75-31.734 143.86-7.5 13.734-53.812 53.484-66.516 62.203-37.031 25.312-82.969 50.625-82.969 50.625-1.875 1.0312-3.9844 1.5469-6 1.5469h-262.5c-3.0469 0-6.0469-1.0781-8.4844-3.3281-5.0625-4.6406-5.3906-12.562-0.75-17.625 0 0 105-114.42 127.4-138.89 12.656-13.781 39.703-38.484 65.297-61.219 30 3.2812 70.828 7.5938 74.484 7.7812l-0.79688-0.046876c32.953 2.5781 64.125-0.70312 84.656-35.906 4.4531-7.6406 6.9844-15.516 7.8281-23.297 16.125-8.7656 24.562-21.891 29.203-30.188 2.3438-4.125 4.125-8.25 5.4844-12.188 20.766-5.4844 34.969-19.359 44.625-36.516 10.969-19.312 10.125-35.578 5.3438-48.656-0.98438-2.7188-2.2031-5.3906-3.6562-7.9219 15.797-28.125 6.2344-79.078-49.406-90l-3.4688-0.46875s-22.219-2.0156-52.031-4.5c7.9688-20.766 18-46.125 29.25-72.188 4.125 0.14062 8.1094 0.14062 11.953 0 0.84375-0.046876 1.6875-0.14063 2.4844-0.23438l29.391-4.0312c0.79688-0.14062 1.6406-0.28125 2.4844-0.46875 3.4688-0.84375 6.2344-1.6406 8.0625-2.2031l1.3594-0.1875c16.734-3.0938 95.391-17.391 107.3-19.5 17.203-1.1719 34.406-8.4844 47.766-22.031 28.781-29.156 28.734-76.031 0.51562-104.58-14.578-14.766-33.984-22.031-53.344-21.609-0.98438 0-1.9219 0.09375-2.9062 0.1875l-71.484 7.0781c7.8281-21.797 20.25-43.641 36.75-62.953zm-96.234 331.26s-168.47-15.516-195.98-13.359c-1.5469 0.09375-3.0469 0.51562-4.4062 1.1719-43.969 20.953-102.75 69.797-120.52 84.984l-163.55-48.703c-5.9062-1.7812-12.188 1.0781-14.859 6.6562 0 0-19.219 40.688-30.516 88.406-7.8281 33-11.625 69.188-3.7969 98.25 1.0781 4.125 4.2188 7.4062 8.2969 8.6719l185.72 58.219c0.375 0.14062 0.75 0.23438 1.125 0.28125 15.844 3.4219 33.375 0.84375 51.234-7.0312 22.781-10.031 46.266-28.828 67.078-53.344 8.2969 1.0781 98.391 10.828 103.83 11.109 23.484 1.8281 46.5 1.5 61.078-23.578 5.3438-9.1406 5.9062-18.891 3.0469-27.75 4.875-0.79688 9-2.2031 12.562-3.9375 12.047-5.8125 17.953-15.562 21.281-21.469 4.5-8.0156 5.9531-15.609 5.25-22.406 22.453 0.46875 36.281-11.062 44.859-26.297 6.2812-11.109 6.3281-20.344 3.6094-27.844-2.2969-6.2344-6.75-11.578-12.797-15.75 4.125-3.4219 7.7812-7.5938 10.688-12.656 9.8438-17.016 1.6875-46.828-32.25-53.484-0.32812-0.046875-0.65625-0.09375-0.98438-0.14062zm-29.156 76.922-135.42-17.156c-6.8438-0.84375-11.672-7.125-10.828-13.969 0.89062-6.8438 7.125-11.719 14.016-10.828l140.34 17.766c0.1875 0 0.375 0.046875 0.51562 0.046875 10.875 1.8281 25.266 0.1875 32.156-11.672 0.89062-1.5938 0.79688-3.6562 0.09375-5.5781-1.7344-4.9688-6.9844-9.0469-15.141-10.734-9.5625-1.125-141.94-16.172-188.34-13.406-49.828 24.562-117.84 84.703-117.84 84.703-3.2344 2.8125-7.7344 3.7969-11.859 2.5781l-159.56-47.484c-6 14.25-17.062 42.375-24.469 73.734-6.2812 26.438-10.125 55.266-5.5312 79.453 0 0 178.31 55.922 178.45 55.922 10.969 2.1562 22.969-0.1875 35.25-5.625 21.281-9.375 43.031-27.844 62.109-51.469 2.3906-2.9062 5.9531-4.6406 9.75-4.6406 0 0 82.359 10.5 110.44 11.766 0.1875 0 0.28125 0.046875 0.42187 0.046875 14.156 1.125 28.969 3.8438 37.781-11.203 4.125-7.0781-1.2656-14.203-8.6719-17.391l-129.47-20.859c-6.7969-1.0781-11.484-7.5-10.359-14.344 1.0781-6.7969 7.5-11.438 14.297-10.359l142.36 22.922c8.0156 1.2188 13.875 0.46875 18.141-1.5938 6.0938-2.9531 8.6719-8.2031 10.359-11.203 2.1562-3.7969 2.9062-7.1719 1.5469-9.8438-1.3594-2.5781-4.3594-3.9375-7.7812-4.4531-1.0781-0.1875-2.0156-0.46875-2.9531-0.89062l-140.39-20.203c-6.8438-0.98438-11.578-7.3125-10.594-14.156 0.9375-6.8438 7.3125-11.578 14.109-10.594l161.63 23.297c0.32812 0.046875 0.70312 0.09375 1.0312 0.1875 17.531 4.0781 27.844-2.0156 33.562-12.094 1.5938-2.9062 2.5312-5.1094 1.875-7.0312-1.5-4.0312-6.5156-5.8594-11.297-7.6406-6.8906-2.625-14.484-4.0312-19.828-4.7812z" fill-rule="evenodd"/>
</svg>
