<?xml version="1.0" encoding="UTF-8"?>
<svg width="1200pt" height="1200pt" version="1.1" viewBox="0 0 1200 1200" xmlns="http://www.w3.org/2000/svg">
 <path d="m1074.3 878.21c-1.0781 0.65625-2.2969 0.98438-3.4688 0.98438-2.25 0-4.5-1.1719-5.7656-3.2344-9.0938-15-16.594-27.938-23.203-39.328-7.7812-13.453-14.531-25.078-22.359-37.547-40.688-64.781-52.078-116.58-34.875-158.34 18.375-44.578 8.4375-99.094-0.32812-147.19-5.0625-27.703-9.8438-53.859-8.9531-76.031 0-0.14062 0.046875-0.375 0.046875-0.51562 1.1719-10.547 0.42188-31.172-10.219-36.609-37.359 8.7188-37.922 49.125-34.547 104.95 1.875 30.938 3.375 57.703-8.9531 70.734 0 0.046875-0.046875 0.046875-0.046875 0.09375-0.42188 0.42188-0.70312 0.9375-1.125 1.3594-0.09375 0.09375-0.23438 0.14062-0.375 0.23438-0.09375 0.09375-0.1875 0.23438-0.28125 0.28125-35.484 24.984-43.266 70.266-32.578 102.09 1.1719 3.5156-0.70312 7.3125-4.2188 8.5312-0.70312 0.23438-1.4531 0.32812-2.1562 0.32812-2.8125 0-5.4375-1.7812-6.375-4.5938-11.672-34.781-3.9844-83.625 32.062-113.06-20.812-26.906-40.688-64.641-59.906-101.3-25.969-49.547-52.828-100.78-74.484-106.92-3.7031-1.0312-6.9844-0.65625-10.359 1.2656-2.9062 2.6719-11.766 16.828-3.7969 39.047 5.5312 9.5625 11.016 19.688 16.406 29.859 0.70312 1.3594 4.4531 8.2031 8.25 15.281 4.125 7.6406 8.3906 15.516 9.1406 16.922 1.7344 3.2812 0.46875 7.3594-2.8125 9.0938-0.98438 0.51562-2.0625 0.79688-3.1406 0.79688-2.4375 0-4.7344-1.3125-5.9531-3.6094-0.75-1.4062-4.9688-9.2344-9.0938-16.828-3.8438-7.0781-7.5938-14.016-8.2969-15.375-17.766-33.609-50.859-96.094-75.797-84.281-13.734 6.5156-7.0312 27.047 4.7344 57.609 1.5938 4.125 3.1875 8.25 4.6875 12.375 0.84375 1.3125 1.6875 2.4375 2.5781 3.7969 1.9688 3.1406 1.0312 7.3125-2.1562 9.2812-3.1406 1.9688-7.3125 1.0312-9.2812-2.1562-8.8125-14.109-17.016-23.672-24.375-28.5-7.2188-4.7344-11.25-3.3281-13.641-1.8281-7.2188 4.5-12.75 13.219 0.65625 43.781 1.5 3.4219-0.046875 7.3594-3.4688 8.8594-0.89062 0.375-1.7812 0.5625-2.7188 0.5625-2.5781 0-5.0625-1.5-6.1406-4.0312-9.2812-21.094-17.156-47.062 4.5469-60.609 5.8594-3.6562 15.562-6.3281 28.172 1.9688 0.32812 0.23438 0.70312 0.5625 1.0312 0.84375-2.5312-7.5-4.5-14.625-5.3438-21.328-2.0625-16.125 2.9531-27.141 14.953-32.859 21.375-10.172 41.625 6.9375 60.891 34.594 2.0625-13.688 9-22.547 12.797-24.844 6.6562-3.9375 13.781-4.875 21.141-2.8125 27.234 7.7344 52.969 56.812 82.734 113.62 18.422 35.156 37.406 71.344 56.906 97.219 4.3594-11.859 3.0469-33.656 1.7344-54.891-2.9062-48.469-6.5625-108.75 47.297-119.39 1.1719-0.23438 2.3906-0.14062 3.5156 0.23438 24.422 8.4844 21.328 46.078 20.766 51.281-0.75 20.672 3.8438 46.031 8.7656 72.844 9.0938 49.922 19.406 106.5-0.46875 154.74-15.469 37.453-4.4062 85.219 33.844 146.06 7.9688 12.703 15.094 24.984 22.594 37.969 6.5625 11.344 14.016 24.188 23.062 39.094 1.9219 3.1875 0.9375 7.3125-2.25 9.2344zm-280.45-135.52c-28.969-19.125-50.25-37.5-67.078-57.891-2.3438-2.8594-6.6094-3.2812-9.4688-0.89062-2.8594 2.3438-3.2812 6.6094-0.89062 9.4688 17.672 21.422 39.938 40.688 70.031 60.562 18.516 12.234 51.516 56.672 90.609 122.02 1.2656 2.1094 3.4688 3.2812 5.7656 3.2812 1.1719 0 2.3438-0.32812 3.4688-0.9375 3.1875-1.9219 4.2188-6.0469 2.2969-9.2344-28.781-48.094-68.578-109.03-94.734-126.32zm-134.34-15.047c-11.672 8.6719-24.281 18.281-35.438 27.469-9.5156 7.8281-18.141 15.516-24.562 22.359-6.4688-6.8438-15.094-14.531-24.562-22.359-11.156-9.2344-23.766-18.797-35.438-27.469-12.703-9.4219-26.578-20.25-40.5-32.203-25.922-22.312-52.078-48.609-71.391-77.578-29.25-43.781-42.984-93.703-16.406-144.84 13.594-26.156 33.422-41.578 55.125-48.047 11.812-3.5156 24.234-4.4062 36.562-2.9531 12.375 1.4531 24.609 5.2969 36 11.25 25.547 13.266 46.922 36.984 56.156 67.922l0.046875 0.14063v0.046874c0.046875 0.09375 0.046875 0.14063 0.09375 0.1875l0.046875 0.09375c0.23438 0.51563 0.51562 0.98438 0.9375 1.4062l0.1875 0.1875c0.42188 0.375 0.89062 0.70313 1.4062 0.9375l0.09375 0.046876c0.046875 0.046874 0.14062 0.046874 0.1875 0.09375h0.046875l0.1875 0.09375c0.09375 0 0.14062 0.046874 0.23438 0.046874h1.5938l0.14062-0.046874c0.09375 0 0.14062-0.046876 0.23438-0.046876l0.14062-0.046874 0.09375-0.046876h0.046875c0.09375-0.046874 0.14062-0.046874 0.1875-0.09375l0.09375-0.046874c0.51562-0.23438 0.98438-0.51563 1.4062-0.9375l0.1875-0.1875c0.375-0.42188 0.70312-0.89063 0.9375-1.4062l0.046875-0.09375c0.046875-0.046876 0.046875-0.14063 0.09375-0.1875v-0.046876l0.046875-0.14062c9.2344-30.938 30.609-54.656 56.156-67.922 11.391-5.9062 23.672-9.75 36-11.25 12.328-1.4531 24.75-0.5625 36.562 2.9531 21.703 6.4688 41.531 21.891 55.125 48.047 26.578 51.141 12.844 101.06-16.406 144.84-29.766 44.531-75.516 82.828-111.94 109.78zm33.562-82.969c-2.7656-3.0469-7.5-3.2812-10.594-0.51562-1.7812 1.5938-3.75 3.375-5.3906 4.875-4.1719 3.75-6.6094 5.9531-7.2188 8.4844-0.9375 4.0312 1.5938 8.0625 5.625 8.9531 4.0312 0.9375 8.0625-1.5938 8.9531-5.625 0.46875-2.1094 0.65625 1.0781 2.625-0.70312 1.4062-1.2656 3.0938-2.7656 5.4375-4.9219 3.0469-2.7656 3.2812-7.5 0.51562-10.594zm22.266-11.203c12.328-12.422 25.781-27.281 36.188-42.234 10.922-15.75 18.609-31.828 18.609-46.031 0-4.125-3.375-7.5-7.5-7.5s-7.5 3.375-7.5 7.5c0 10.734-6.5625 24-15.938 37.453-9.8906 14.25-22.734 28.406-34.5 40.266-2.9062 2.9062-2.9062 7.6875 0.046875 10.594 2.9062 2.9062 7.6875 2.9062 10.594-0.046875zm-242.16 51.891c-16.828 20.391-38.109 38.766-67.078 57.891-26.156 17.297-65.953 78.234-94.734 126.32-1.9219 3.1875-0.89062 7.3125 2.2969 9.2344 1.0781 0.65625 2.25 0.9375 3.4688 0.9375 2.2969 0 4.5-1.1719 5.7656-3.2812 39.094-65.297 72.094-109.78 90.609-122.02 30.094-19.875 52.359-39.141 70.031-60.562 2.3438-2.8594 1.9688-7.125-0.89062-9.4688s-7.125-1.9688-9.4688 0.89062zm-160.5-24.703c-1.1719 3.5156 0.70312 7.3594 4.2188 8.5312 0.70312 0.23438 1.4531 0.375 2.1562 0.375 2.8125 0 5.4375-1.7812 6.375-4.5938 11.672-34.781 3.9844-83.625-32.062-113.06 20.812-26.906 40.688-64.641 59.906-101.3 25.969-49.547 52.828-100.78 74.484-106.92 3.7031-1.0312 6.9844-0.65625 10.359 1.2656 2.9062 2.6719 11.766 16.828 3.7969 39.047-5.5312 9.5625-11.016 19.688-16.406 29.906-0.70312 1.3594-4.5 8.3438-8.3438 15.422-4.125 7.5938-8.2969 15.375-9.0469 16.781-1.7344 3.2812-0.46875 7.3594 2.8125 9.0938 0.98438 0.51562 2.0625 0.79688 3.1406 0.79688 2.4375 0 4.7344-1.3125 5.9531-3.6094 0.75-1.4062 4.9219-9.0938 9-16.641 3.8906-7.1719 7.6406-14.156 8.3906-15.516 17.766-33.609 50.812-96.094 75.797-84.281 13.734 6.5156 7.0781 27.047-4.7344 57.609-1.5938 4.125-3.1875 8.25-4.6875 12.375-0.84375 1.3125-1.6875 2.4375-2.5781 3.7969-1.9688 3.1406-1.0312 7.3125 2.1562 9.2812 3.1406 1.9688 7.3125 1.0312 9.2812-2.1562 8.8125-14.109 17.016-23.672 24.375-28.5 7.2188-4.7344 11.25-3.3281 13.641-1.8281 7.2188 4.5 12.75 13.219-0.65625 43.781-1.5 3.4219 0.046875 7.3594 3.4688 8.8594 0.89062 0.375 1.7812 0.5625 2.7188 0.5625 2.5781 0 5.0625-1.5 6.1406-4.0312 9.2812-21.094 17.156-47.062-4.5469-60.609-5.8594-3.6562-15.516-6.3281-28.172 1.9688-0.32812 0.23438-0.70312 0.5625-1.0312 0.84375 2.5312-7.5 4.5-14.625 5.3438-21.281 2.0625-16.125-2.9531-27.141-14.953-32.859-21.375-10.172-41.625 6.9375-60.891 34.594-2.0625-13.688-9-22.547-12.797-24.844-6.6562-3.9375-13.781-4.9219-21.141-2.8125-27.234 7.7344-52.969 56.812-82.734 113.62-18.422 35.156-37.406 71.344-56.906 97.219-4.3594-11.859-3.0469-33.656-1.7344-54.891 2.9062-48.469 6.5625-108.75-47.297-119.39-1.1719-0.23438-2.3906-0.14062-3.5156 0.23438-24.422 8.4844-21.328 45.938-20.766 51.281 0.75 20.625-3.8438 46.031-8.7656 72.891-9.0938 49.922-19.406 106.5 0.46875 154.74 15.469 37.453 4.4062 85.219-33.844 146.06-7.9688 12.703-15.094 24.938-22.594 37.969-6.5625 11.344-14.016 24.188-23.062 39.094-1.9219 3.1875-0.9375 7.3125 2.25 9.2344 1.0781 0.65625 2.2969 0.98437 3.4688 0.98437 2.25 0 4.5-1.1719 5.7656-3.2344 9.1406-15.047 16.594-27.938 23.203-39.375 7.7812-13.453 14.531-25.078 22.359-37.547 40.688-64.781 52.125-116.58 34.875-158.34-18.375-44.578-8.4375-99.094 0.32812-147.19 5.0625-27.703 9.8438-53.859 8.9531-76.078 0-0.14063 0-0.32813-0.046875-0.46875-0.046875-0.32813-3.1875-29.812 10.219-36.656 37.359 8.7188 37.922 49.125 34.547 104.95-1.875 30.938-3.3281 57.656 8.9531 70.734l0.09375 0.09375c0.375 0.42187 0.70312 0.9375 1.125 1.3125 0.09375 0.09375 0.23438 0.14062 0.375 0.1875 0.09375 0.09375 0.1875 0.23437 0.28125 0.32812 35.484 24.984 43.266 70.266 32.578 102.09z"/>
</svg>
