<?xml version="1.0" encoding="UTF-8"?>
<svg width="1200pt" height="1200pt" version="1.1" viewBox="0 0 1200 1200" xmlns="http://www.w3.org/2000/svg">
 <path d="m559.59 707.81c-26.332 5.7109-48.109 24.117-58.125 49.125 4.8047-5.8516 11.148-10.246 18.316-12.684 6.457-1.9844 13.168-2.9961 19.922-3.0117 10.922 0.13672 21.781 1.7305 32.277 4.7461 17.68 5.0625 27.602 10.379 27.188 11.652-0.51562 1.5391-11.41-1.2188-28.828-4.1641-9.9883-1.8242-20.141-2.5742-30.289-2.2383-5.6836 0.23438-11.309 1.25-16.715 3.0078-5.3516 1.9102-10.074 5.2578-13.652 9.6758l-2.3633 3.3281h0.003906c-0.75 1.3672-1.4141 2.7773-1.9883 4.2266-0.99609 2.3281-1.4961 4.8398-1.4727 7.3711 0.24219 4.8945 2.5156 9.4688 6.2734 12.617 3.7617 3.4961 8.0117 6.4297 12.617 8.7109l1.4062 0.70312 1.8008 0.70312c1.2109 0.51562 2.3633 0.9375 3.4609 1.4062h-0.003907c2.1289 0.96875 4.3203 1.7812 6.5625 2.4375 8.0078 2.6914 15.242 4.4805 19.988 6.2148 4.7422 1.7344 7.3672 2.9453 7.2383 3.6484-0.13281 0.70313-3.0742 0.83594-8.0703 0.44922-7.2461-0.55859-14.449-1.5859-21.562-3.0742-11.023-2.0469-21.371-6.7734-30.133-13.766 17.082 21.012 62.559 24.227 86.383 26.102 3.3945 0.32031 58.285 6.2734 57.449-3.2734-0.046875-0.625-0.023437-1.2539 0.066407-1.875-6.625-0.30078-13.211-1.1562-19.688-2.5586-5.5703-0.9375-10.312-2.8125-15.629-4.1641v0.003906c-5.1484-1.4219-10.363-2.5781-15.629-3.4609-2.8125-0.38281-5.5781-0.83594-8.3906-1.2852l-8.9727-1.1523c-6.0859-0.70312-12.102-1.7266-18.32-2.625h0.003907c-6.7461-1.1055-13.371-2.8438-19.793-5.1836-3.5078-1.2461-6.8789-2.8594-10.051-4.8086-5.6562-2.793-9.6328-8.125-10.695-14.344-0.13281-1.7734-0.070313-3.5586 0.1875-5.3164l0.64844-2.3711 0.12109-0.32031 0.38281-1.0234c0.054687-0.12109 0.097656-0.25 0.13281-0.38281l0.51562-0.9375 1.0859-1.7344c1.75-2.4648 4.1719-4.375 6.9766-5.5039 1.2812-0.39844 2.5859-0.71094 3.9102-0.9375 1.1484-0.12109 2.3008-0.18359 3.457-0.1875 1.8867 0.050781 3.7656 0.22266 5.625 0.51562l4.8086 0.70312c3.2617 0.50781 6.5625 1.0234 9.7305 1.5391h0.003906c6.1758 0.96875 12.293 2.293 18.316 3.9648l4.3594 1.0859 2.1758 0.51562c1.2188 0.32031 1.6016 0.51563 2.4922 0.76953 3.0078 0.9375 5.7656 1.9883 8.4375 3.0078v0.003906c9.9023 3.9102 20.02 7.2461 30.301 9.9922 7.75 2.793 16.238 2.7461 23.953-0.13281l0.57031-0.32031c0.44922-0.38281 0.83594-0.63672 1.0977-0.83594 0.50781-0.50781 0.89062-0.9375 1.1523-1.2734 0.25391-0.70312 0.38281-0.13281 0.12109-1.0312l0.003906 0.003906c-1.8672-2.2148-4.2422-3.9492-6.918-5.0547-5.1836-2.4141-10.535-4.4492-16.016-6.082-9.0938-2.8867-14.277-4.293-14.277-5.2578s5.625-1.4062 15.496-0.12109v-0.003906c6.1055 0.80859 12.113 2.2227 17.938 4.2266 1.8789 0.67969 3.7031 1.5156 5.4453 2.4961 2.2266 1.1641 4.1719 2.8047 5.6992 4.8008 1.0781 1.4375 1.7266 3.1484 1.875 4.9375 0.17188 1.9023-0.20312 3.8125-1.0859 5.5039-0.72266 1.3242-1.6016 2.5508-2.625 3.6562-0.51562 0.50781-0.9375 0.9375-1.4727 1.4062l-0.39453 0.38281-0.1875 0.13281c-0.17578 0.16406-0.36719 0.3125-0.57031 0.44141-0.26562 0.13672-0.52344 0.28516-0.76953 0.44922-0.95312 0.73828-1.9844 1.3672-3.0742 1.875-1.4414 0.62109-2.9219 1.1562-4.4258 1.6055-2.6484 0.625-5.3516 0.96484-8.0703 1.0195-5.3477 0.10547-10.691-0.36719-15.938-1.4062-10.906-2.3477-21.645-5.4102-32.148-9.1602-2.6914-0.9375-5.4453-1.875-8.0703-2.625-0.58203-0.13281-1.5391-0.51562-1.7344-0.51562l-2.1758-0.44141-4.4141-1.0312-0.003907 0.003907c-5.8711-1.4609-11.816-2.6172-17.812-3.4609-2.9453-0.38281-5.9531-0.83594-8.9609-1.2734-3.0078-0.44141-6.6641-1.0312-8.7109-1.0312l-1.4141 0.066407v-0.003907c-0.25 0.089844-0.50781 0.15625-0.76953 0.19922-0.19922 0.16016-0.37109 0.35547-0.50391 0.57031-0.050782 0.11719-0.11719 0.22266-0.19922 0.32031-0.066407 0.13281-0.63672 1.9883-0.63672 1.9883 0.12109 0.015624 0.23438-0.066407 0.25391-0.1875 0.074219 0.11328 0.11719 0.24609 0.12891 0.38281 1.0273 1.6367 2.4609 2.9805 4.1641 3.8984 2.3672 1.457 4.8828 2.6602 7.5 3.5938 5.5234 2.0938 11.227 3.6602 17.043 4.6875 6.207 0.9375 12.289 2.1758 18.188 2.9453l8.7734 1.3398c2.9453 0.58203 5.8867 1.0977 8.8398 1.668h0.003906c5.7344 1.1328 11.398 2.5859 16.969 4.3594 5.25 1.5391 10.379 3.75 14.859 4.6875 8.6055 2.4453 17.508 3.707 26.457 3.75 4.3828-0.69531 8.6211-2.1016 12.551-4.1641 24.918-13.266 3.6484-64.883-7.1719-80.008-21.637-30.234-70.695-26.203-102.79-17.82z"/>
 <path d="m428.02 685.14c-0.12109-0.054687-0.1875-0.054687-0.25391-0.12109-1.4062-0.51563-2.8789-1.0312-4.3516-1.5391-1.9883-0.76953-3.9102-1.5391-5.832-2.3047-1.9219-0.76953-3.9102-1.9883-5.832-3.0078-3.8438-2.0547-6.9844-4.2266-10.117-6.2812-2.8867-2.043-5.5781-4.0312-8.1367-5.832l0.007812-0.003906c-4.9062-2.293-9.5664-5.082-13.906-8.3242-1.9141-1.4805-3.6953-3.1289-5.3125-4.9297-1.7266-1.2734-2.7461-2.1758-2.5586-2.8125 0.066406-0.13281 0.19531-0.19531 0.32031-0.32812h-0.003906c-0.66406-0.90625-1.2031-1.8945-1.6016-2.9453-0.82422-3.0078-0.9375-4.8008-0.32031-5.1836s2.1172 0.89062 4.0391 3.2617c1.0859 1.1523 2.4922 1.875 3.75 3.0742 1.8828 1.2578 3.8281 2.4141 5.832 3.4609 0.57031 0.32031 1.2109 0.63672 1.7891 0.9375 1.3398 0.57031 2.7578 1.1523 4.2852 1.875 0.51563 0.1875 1.0312 0.51562 1.6016 0.76953 2.8125 1.1523 6.0195 2.3711 9.375 3.75 1.6602 0.63672 3.4609 1.4062 5.25 2.2422 0.9375 0.44922 1.7266 0.70312 2.8789 1.3516l2.5703 1.4727c3.3945 1.875 6.918 3.9102 10.5 5.9531 3.0742 1.7344 6.1484 3.6562 9.0391 5.1953 3.2617 1.1523 6.4023 2.4297 9.4766 3.6484v-0.007813c2.3906 0 4.6953 0.89062 6.4688 2.4922 0.066406 0.066407 0.12109 0.066407 0.1875 0.13281 0.70312 0.25391 1.4062 0.58203 2.0547 0.83594 4.1719 1.5977 8.4258 2.9883 12.738 4.1602 7.0117 1.3203 14.207-1.0781 19.023-6.3359 0.72266-1.2266 1.707-2.2773 2.8867-3.0742 0.86328-4.5273-1.0234-9.1328-4.8086-11.758-4.3711-2.793-9.0586-5.0469-13.969-6.7227-3.0078-0.25391-6.0195-0.70312-9.0273-1.2188-5.9531-0.9375-11.598-2.1758-17.035-3.2617-2.7578-0.51562-5.4453-1.0859-8.1367-1.6016-2.6016-0.58594-5.168-1.3125-7.6875-2.1758-9.0625-3.2305-17.477-8.0469-24.855-14.223-2.6914-1.9883-13.059-17.23-14.859-17.363 7.9336 1.6602 15.504 4.7188 22.359 9.0391 6.9883 3.4688 14.191 6.4844 21.562 9.0273 4.293 1.4727 8.7734 3.0742 13.453 4.7422l1.7891 0.70312 0.44922 0.12109c0.13281 0.066406 0.9375 0.32812 0.9375 0.32812 10.246 3.0742 43.426 13.32 48.609-1.0312 1.1523-3.1328 5.3828-9.0938 1.7891-11.465h0.003906c-2.1406-1.1953-4.3672-2.2422-6.6562-3.1289-3.2383-1.1875-6.375-2.6484-9.375-4.3594-3.5156-1.2188-7.1719-2.4922-10.883-3.8438-2.8867-1.0859-5.7656-2.1094-8.5859-3.207-2.625-1.2109-5.25-2.4922-7.8086-3.6484-5.1289-2.5586-10.059-4.6875-14.727-7.3672h-0.003906c-8.4297-4.0508-16.625-8.582-24.535-13.574-5.6914-3.4648-10.508-8.1992-14.062-13.84-2.4375-4.7344-1.668-7.1719-1.1523-7.3594 0.76953-0.38281 1.875 2.3633 4.5469 4.8672 4.3359 3.9805 9.2617 7.2617 14.605 9.7305 4.8008 2.5039 10.5 4.9297 16.875 7.6875 0.13281 0 0.19531 0.066406 0.26172 0.066406 5.4453 1.6016 11.785 3.75 19.211 6.2148 3.8242 1.2305 7.5781 2.6602 11.25 4.2852 1.875 0.83594 3.8438 1.668 5.7656 2.5039l2.9453 1.3398c1.7266 0.9375 2.2422 1.2188 3.3945 1.875 2.5 1.5391 4.9336 3.0117 7.3047 4.4258 1.6602 0.63672 3.4609 1.2734 5.1172 1.875 3.75 1.3398 12.938 4.8008 16.527 1.4062 5.1953-4.8672-3.3945-12.938-6.6562-16.715-9.0742-10.586-19.156-20.258-30.105-28.887-30.418-25.332-62.656-48.402-96.449-69.02-1.1641-0.66797-2.1875-1.5586-3.0078-2.625l-1.3398-0.58203c-14.352-6.3359-27.676-11.523-26.773-14.539 0.70312-2.4922 12.684-2.4922 27.797 3.3359l-0.003906 0.003906c0.12109-0.29297 0.27344-0.57422 0.44922-0.83594 1.5898-2.4297 3.5352-4.6094 5.7656-6.4688 1.1953-1.5547 2.8281-2.7148 4.6875-3.3281 12.457-3.2578 24.711-7.2344 36.703-11.914 6.332-2.2148 12.098-5.8047 16.875-10.512 1.9219-2.3047 1.0234-4.2266-0.58203-6.0859v0.003907c-12.973-2.1562-26.113-3.1445-39.262-2.9453-22.285 1.0859-33.945 10.18-51.883 21.562h0.003907c-24.816 14.113-51.914 23.758-80.062 28.5-0.19531-0.011719-0.38672 0.011719-0.57422 0.066406-1.4414 0.66406-3.0312 0.92969-4.6133 0.76953-33.695-2.625-66.742 8.7109-100.24 11.719h0.003906c-30.473 1.5703-60.742 5.8789-90.441 12.871-2.1758 17.812-4.3594 35.551-5.3828 53.484-1.1523 19.34-4.293 44.195 3.9766 62.578 55.594-2.5703 108.5-20.559 162.8-31.387 1.5234-0.34766 3.1133-0.30078 4.6133 0.12891 2.8633-0.50391 5.8008 0.34766 7.9492 2.3086 30.289 26.512 70.453 32.598 103.95 53.539 21.312 13.219 61.922 44.605 85.359 24.301z"/>
 <path d="m612.05 685.79c-10.059-11.465-28.379-15.562-43.125-18.133v0.003906c-0.50391-0.10547-0.99609-0.25781-1.4727-0.44922-0.066407 0.19531-0.19531 0.38281-0.26172 0.58203l-1.0234 2.3711-0.57031 1.2188-0.32812 0.63672-0.054687 0.12109-0.19531 0.32812-0.44922 0.63672c-1.1523 1.668-2.2422 3.3945-3.3945 5.1289h-0.003906c-5.3398 6.5859-12.062 11.918-19.688 15.629-3.8945 1.8477-7.9805 3.2656-12.188 4.2188-2.2422 0.32812-4.5469 0.64844-6.7891 0.83594l0.003906-0.003907c-1.9023 0.16016-3.8125 0.16016-5.7109 0l-1.3398-0.066406h-0.63672l-0.9375-0.054687-0.38281-0.066407-3.1406-0.58203c-1.0859-0.25391-2.1094-0.38281-3.1328-0.70312l-3.0742-1.2188-0.003906 0.003906c-2.9453-1.1289-5.6289-2.8477-7.8828-5.0547-11.785 15.938-38.043 17.672-55.461 8.4375-26.008 24.148-64.566 4.3594-90.891-11.719-32.812-20.109-71.25-31.191-103.7-51.562-15.938 45.797 32.727 118.88 72.055 136.94 27.84 11.637 57.641 17.875 87.812 18.383 21.711 1.0859 50.531 10.5 70.902-0.32031-12.832-76.656 70.559-109.84 135.06-105.54z"/>
 <path d="m1006.1 823.12c-2.625-2.0547-6.2148-3.75-9.375-5.7656-3.2734-1.9883-6.5625-3.9766-10.258-5.832-7.4258-3.9766-15.113-8.1367-22.988-12.367-3.9102-2.3047-7.4336-4.6875-11.082-6.918l-2.7578-1.7266-0.63672-0.44922-0.70312-0.44922-0.32812-0.25391-1.3398-1.0859c-1.875-1.4727-3.6484-2.9453-5.3828-4.3594-3.3281-2.8789-6.4023-6.0195-9.1602-8.6445-2.7578-2.625-5.0625-5.1836-8.0703-7.6875-1.2734-1.1523-2.4922-2.1758-3.6484-3.2617-1.4727-1.0312-2.9531-2.0547-4.3594-3.0078-2.8125-2.0547-5.7656-3.9766-8.5117-5.832-5.625-3.75-10.961-7.3672-15.695-10.895h0.003906c-7.8281-5.6289-14.738-12.434-20.492-20.176-3.4609-5.625-4.5547-9.2148-3.6562-9.9844 0.89844-0.76953 4.0977 1.3398 9.1602 5.3828 7.0391 5.0781 14.395 9.6992 22.031 13.828l16.461 8.7734c3.0742 1.668 6.1484 3.2734 9.375 5.25 1.6016 0.9375 3.207 1.875 4.875 2.8867l0.32031 0.1875 0.89062 0.71094 0.51562 0.38281 1.1523 0.9375 2.2422 1.7344c0.38281 0.32031 0.83594 0.70312 1.2852 1.0234-6.3477-49.059-34.914-91.078-52.398-137.13-14.539-38.438-30.609-79.105-33.75-120.48-9.375 3.75-17.418 10.566-27.863 11.25v0.003906c-12.621 0.54297-25.242-1.082-37.312-4.8008-43.941-12.039-70.52 5.3828-84.094 47.016 2.8125 1.4727 5.5039 2.8867 8.1289 4.0977 1.7344 0.32812 3.6562 0.58203 5.5781 0.9375 7.6797 1.4062 14.148 3.5234 20.043 4.8672v-0.003907c4.9883 1.3828 10.133 2.1367 15.309 2.2422 3.3359 0.046875 6.6602-0.40234 9.8633-1.3398 2.4922-0.76953 4.0977-1.3516 4.5469-0.70312 0.44922 0.64844-0.13281 2.1094-2.1758 4.1641v-0.003906c-3.2031 2.875-7.1562 4.7812-11.398 5.5039-9.6992 1.2422-19.547 0.50391-28.949-2.1758-0.51562 0-1.0312-0.066406-1.6016-0.066406-0.9375-0.12109-2.0547-0.38281-3.0078-0.50781l-0.003907 0.003906c-8.0938-0.097656-16.133-1.3086-23.898-3.5898-7.7891-3.9023-14.992-8.8828-21.395-14.793-14.242-11.309-24.551-26.828-29.445-44.344-0.066406 0.51562-0.13281 0.9375-0.19531 1.4727v-0.003906c-2.6992 17.301-8.1953 34.043-16.266 49.578-6.7227 11.398-12.188 17.43-13.32 16.781-1.4727-0.76953 1.7266-8.3906 6.5625-20.305l-0.003906-0.003906c5.5352-15.504 9.668-31.469 12.355-47.707 3.9102-27.676 5.3164-52.145 7.1172-63.75-3.6562-16.66-13.004-27.797-36.703-21.461-1.5352 0.92969-3.2695 1.4805-5.0625 1.6016-4.5742 0.35547-9.1016-1.0938-12.617-4.0391-1.4062 0.44922-2.6914 1.0312-4.0312 1.6016-1.4336 0.54688-3.0078 0.61719-4.4844 0.19922-2.8203 0.5-5.6953-0.51953-7.5625-2.6914-0.76172-1.0234-1.5938-1.9883-2.4961-2.8867-0.13281-0.12109-1.2188-0.9375-1.3516-1.0859l0.003906-0.003907c-0.57422-0.23828-1.1094-0.55078-1.5938-0.9375-0.58203-0.13281-1.0859-0.32031-1.6016-0.44922-6.0859 1.668-11.719 4.4805-17.746 6.2734h-0.003906c-2.2734 0.74219-4.75 0.53906-6.8672-0.57031-2.1211-1.1094-3.6992-3.0273-4.3828-5.3164-0.51172-0.74609-0.90234-1.5703-1.1523-2.4375-1.3164-3.1367-3.6094-5.7617-6.543-7.4844-2.9336-1.7188-6.3438-2.4414-9.7227-2.0625-8.1367 5.625-12.883 15.121-21.656 20.371v0.003907c-8.8477 3.5898-17.254 8.1875-25.051 13.695-3.1719 2.2539-7.1211 3.1328-10.949 2.4375-2.7852-0.72266-5.6445-1.1133-8.5234-1.1523-0.1875 0.44141-0.38281 0.9375-0.63672 1.4727 22.547 29.652-27.543 46.566-54.77 55.078 22.969 14.574 45.102 30.418 66.301 47.465 17.289 11.832 33.434 25.258 48.227 40.098 0.55078 0.54297 1.043 1.1445 1.4688 1.7891 12.188 14.539 28.379 41.25 4.9297 49.762-0.57031 0.64844-1.1523 1.2852-1.875 2.0547h0.003906c-4.8672 5.2539-8.25 11.711-9.7969 18.703-1.1289 4.8047-1.7109 9.7227-1.7344 14.66v4.4922c0.19531 1.0859 0.38281 2.2422 0.58203 3.3945 0.19531 1.1523 0.76953 2.1094 1.0234 3.2617 0.64844 0.83594 1.0234 1.875 1.7344 2.625h-0.003906c3.5547 3.4375 8.3867 5.2227 13.324 4.9297 1.7266 0.11719 3.457 0.097657 5.1836-0.054687 1.3516-0.28516 2.7188-0.5 4.0977-0.64844 3.1094-0.78906 6.1367-1.8789 9.0352-3.2617 5.7305-2.7852 10.836-6.707 15-11.531 0.83594-1.2188 1.7344-2.4922 2.5703-3.75l0.32031-0.44922 0.1875-0.19531c0.066406-0.054688 0.51562-0.9375 0.51562-0.9375l1.0859-2.3711c1.6016-3.1406 2.8867-6.0195 4.6875-9.2266 0.83594-1.4727 1.6602-3.0078 2.4922-4.4805l1.2188-2.2422 0.32031-0.57031 0.13281-0.26172c0.12109-0.1875 0.50781-0.70312 0.50781-0.70312l0.71094-0.9375c1.875-2.4297 4.1641-4.8008 6.3359-7.0391 0.76953-0.9375 1.6016-1.9219 2.3711-2.8125v-0.003906c0.58984-0.81641 1.125-1.6719 1.6016-2.5586l0.38281-0.63672c0.054688 0 0.1875-0.26172 0.1875-0.26172l0.13281-0.32031 0.55469-1.7539c0.16016-0.54297 0.25-1.1016 0.26172-1.668-0.14844-1.4648-0.8125-2.8281-1.875-3.8438-0.44141-0.63672-1.4062-1.5938-1.7266-2.043-0.76953-0.70312-1.4727-1.4141-2.1758-2.0547h0.003906c-1.8633-1.6797-4.2891-2.5938-6.7969-2.5586-4.9883 0.25391-8.3906 0.9375-8.7109-0.066406-0.25391-0.76953 1.875-3.1406 7.7539-5.3164 4.2344-1.3242 8.8359-0.69141 12.555 1.7266 0.83594 0.58203 1.7344 1.1523 2.625 1.7344 1.2188 0.9375 1.875 1.4727 2.9531 2.4297v-0.003906c2.1094 1.6602 3.7148 3.8789 4.6289 6.4062 0.91797 2.5234 1.1094 5.2539 0.55469 7.8828l-0.38281 2.0547-0.13281 0.44141v-0.003906c-0.074218 0.29297-0.17969 0.57031-0.32031 0.83594l-0.51562 1.1523c-0.62891 1.6562-1.3789 3.2617-2.2383 4.8086-0.9375 1.2734-1.875 2.625-2.8789 4.0312-1.3516 1.668-2.7578 3.4609-4.2266 5.4453 2.9453-3.9766 33.43 10.633 37.086 12.871 9.375 5.625 12.488 18.836 21.836 24.02 8.6523 4.8008 18.582 4.0312 27.543 10.949v0.003906c17.523 15.164 29.172 35.996 32.922 58.867 0.88672 4.375 1.5117 8.8047 1.875 13.254 0.63672-1.7266 1.1523-3.3945 1.7891-5.1836h0.003906c4.4883-13.613 11.133-26.418 19.688-37.922 1.8008-2.1758 3.4609-4.0977 4.9961-5.7656 1.6016-1.3398 3.0742-2.4922 4.293-3.3945 2.5039-1.7891 4.0977-2.4922 4.6875-2.043 0.58984 0.44922-0.066407 2.2422-1.5391 4.8672-0.76953 1.3398-1.7891 2.8789-2.9453 4.6875-0.9375 1.875-1.9883 3.8359-3.207 6.0859l0.003907-0.003906c-6.1953 11.961-11.465 24.379-15.758 37.145-2.7461 7.6211-5.3828 14.859-7.8086 21.461-2.2422 5.3711-3.875 10.977-4.8672 16.715-0.34766 5.0391-0.035156 10.098 0.9375 15.055 0.94141 1.3867 1.9688 2.7109 3.0742 3.9648 32.812 10.312 66.992 9.2266 101.07 9.2266 40.164 0 80.383 1.2852 120.61 2.0547h0.003907c32.152 0.21484 64.297-1.4336 96.262-4.9336-1.0234-0.64844-2.043-1.3516-3.0742-1.9883-3.3594-2.1094-6.3008-4.2188-9.4414-6.3828zm-489.21-377.81c-1.9883-1.6211-3.2891-3.9297-3.6484-6.4688 0-1.7891 0.70312-2.3633 1.3398-2.6914 5.25-2.1094 10.895 5.3828 16.211 1.875-0.58203-1.5938-1.5391-3.1328-2.2422-4.7344-1.2852-3.0078-2.3711-5.3828-3.207-7.8203v0.003906c-0.34375-1.2305-0.60156-2.4844-0.76562-3.75 0.039062-0.94922 0.16797-1.8906 0.38281-2.8125 0.38281-1.4805 0.9375-2.3047 1.668-2.3711 0.73047-0.066407 1.5938 0.50781 2.4297 1.6016 0.49609 0.54688 0.92578 1.1445 1.2852 1.7891 0.60938 0.63281 1.1836 1.2969 1.7227 1.9883 1.8164 1.9883 3.4883 4.1094 4.9961 6.3359 1.2461 1.4609 2.2578 3.1016 3.0117 4.8672 0.66016 1.4219 0.98047 2.9805 0.9375 4.5469-0.070312 0.92578-0.19922 1.8477-0.38672 2.7578l-0.44922 1.2188c-0.10547 0.34766-0.23438 0.6875-0.38281 1.0195l-0.1875 0.26172-0.32812 0.50781-0.63672 0.9375c-0.44531 0.61328-0.96094 1.1719-1.5391 1.6602-1.0703 0.96094-2.3047 1.7188-3.6484 2.2383-2.1914 0.87891-4.5625 1.2305-6.918 1.0312-3.5547-0.28516-6.9297-1.6836-9.6445-3.9922zm34.395 189.94c-0.19531 2.6094-0.89062 5.1562-2.0508 7.5-2.4297 4.6875-5.7656 7.6797-6.207 9.0938-0.32031-0.51562-1.0312 3.4609-0.83594 3.5234-0.14453 1.4961-0.10156 3 0.13281 4.4844 0.089844 1.2109 0.089844 2.4297 0 3.6445-0.23438 1.0742-0.625 2.1133-1.1523 3.0742-0.55469 0.80469-1.25 1.5039-2.0547 2.0547-1.9062 1.2773-4.1133 2.0273-6.4023 2.1758-3.3086 0.54688-6.6953 0.37109-9.9297-0.51562-2.9141-0.66406-5.5664-2.1758-7.6211-4.3516-1.6758-1.9102-2.3672-4.4922-1.875-6.9844 1.0859-3.75 2.7461-4.293 3.3281-4.1641 0.76953 0.19531 0.32031 2.3047 0.9375 4.3594 0.61719 2.0547 2.2422 3.2617 6.6562 3.6484 4.6133 0.38281 7.875 2.2422 9.4766-3.0078 1.0859-3.75-0.1875-7.8203 0.76953-11.465 0.95703-3.6484 4.2266-5.832 5.6992-9.0273 1.2852-2.9531 0.066407-11.25-3.582-6.0859-0.9375 1.3398-1.9883 2.5586-2.8867 3.75l-1.1523 1.3398-0.83594 0.70312-1.5938 1.4141h0.003907c-1.0352 0.96484-2.1289 1.8633-3.2734 2.6914-9.1602 6.8516-16.266 7.1719-16.586 6.0195-0.70312-1.5391 5.1172-4.6133 11.336-11.598 0.76953-0.76953 1.668-1.875 2.5586-2.9453l1.4141-1.668 0.70312-0.83594 0.003907 0.003906c0.070312-0.15234 0.15625-0.30078 0.25-0.44141 0.57031-1.0312 1.3398-2.4375 2.3711-3.9766h0.003907c1.2031-2.0391 2.8398-3.7852 4.7969-5.1172 8.0078-4.9414 13.641-2.5703 16.332 4.2188 1.207 2.6367 1.6523 5.5586 1.2852 8.4375zm198.23 38.109c-6.7227 17.363-14.859 30.684-17.551 29.465-2.6914-1.2188 0.70313-15.938 7.5-33.43 7.2383-18.133 16.875-29.852 19.352-28.633 2.8047 1.3398-2.6992 15.949-9.3008 32.598z"/>
 <path d="m177.19 453.16c15.758 1.3398 31.586 2.4922 47.277 4.293 7.5664 1.1914 14.77 4.0742 21.066 8.4375 4.4141 3.1406 6.7891 8.0703 12.422 9.2891 8.6719-0.21094 17.238-1.9414 25.312-5.1172 8.8672-2.0547 17.562-4.7969 26.008-8.2031l-2.625-0.38281c-1.0391-0.12891-2.0625-0.32031-3.0781-0.57422l-3.1406-1.2188-1.5391-0.64844-0.76953-0.32031-0.38281-0.1875-0.25391-0.066406c-0.066406-0.066407-0.58203-0.38281-0.58203-0.38281l-2.2422-1.668 0.003906 0.003906c-1.7695-1.3242-3.4219-2.8008-4.9297-4.418-5.6289-6.3633-10.445-13.395-14.344-20.941-2.0547 3.1406-3.8438 6.1484-5.4453 8.2578-2.6914 3.6562-4.6133 5.3828-5.4375 4.8672-0.82422-0.51563-0.38281-3.0078 0.75781-7.0391v-0.003906c1.5312-6.1367 4.0195-11.996 7.3672-17.363l3.4609-5.3164 3.9102 5.8984c5.2148 8.4922 11.082 16.566 17.551 24.152 3.8398 4.5156 9.3828 7.2344 15.309 7.5 5.4023 0.22266 10.812-0.31641 16.066-1.6055l1.0312-0.1875c10.289-7.5898 21.246-14.234 32.73-19.855 20.305-8.9727 46.246-5.0625 68.023-2.1172 0.054687-0.1875 0.12109-0.32031 0.1875-0.50781 9.6094-19.922-64.633-25.172-76.602-24.469-1.5391 0.078125-3.0742-0.21094-4.4805-0.83594-0.054687-0.046876-0.125-0.074219-0.19922-0.0625-29.785-10.828-60.844-17.484-90.695-27.984-28.633-10.059-56.363-24.215-87.188-26.137l0.003907-0.003906c-0.74219-0.007813-1.4766-0.11328-2.1875-0.31641-23.57 5.6992-38.297 19.211-53.023 38.812-11.598 15.496-29.914 31.875-31.387 52.012-0.48828 6.207 83.801 13.707 92.043 14.41z"/>
 <path d="m1143 609.76c-2.4102-5.1328-5.082-10.141-8.0078-15-4.1641-6.7969-8.3906-13.648-12.488-19.855-4.0977-6.207-7.8203-12.496-11.98-18.133-7.9414-11.586-15.113-22.031-21.133-30.805-11.785-17.812-17.812-29.652-16.211-30.871 1.8008-1.2852 10.895 8.4375 24.789 24.535 7.0508 7.9414 15.113 17.738 23.832 28.949 4.5469 5.5039 8.5781 11.906 13.125 18.254 2.625 3.75 5.1289 7.5547 7.6211 11.465-0.9375-42.723-3.2617-91.023-9.0273-90.441-2.1523 0.32812-4.3438-0.22656-6.082-1.5352-0.38281-0.1875-0.76953-0.32031-1.1523-0.51562-35.484-20.812-71.805-49.445-114.33-52.32-28.695-1.9883-70.312-1.4141-87.883 25.613v-0.003906c-0.23047 0.26562-0.44531 0.54297-0.63672 0.83594-0.19531 1.8008-0.44922 3.3945-0.63672 4.7422-0.41406 1.4141-0.48047 2.9062-0.19922 4.3516 0.40625 3.6289 1.0703 7.2266 1.9883 10.762 0.78516 3.4219 1.7461 6.8008 2.8789 10.125 1.0312 3.2617 2.2422 6.4023 3.3359 9.375 3.8555 9.6211 7.1484 19.461 9.8633 29.465 1.5938 7.2383 1.6602 11.336 0.70312 11.652-0.95703 0.32031-3.0742-3.2617-6.2812-9.7969-3.2617-6.2812-8.2578-15.375-14.156-27.188-1.4062-2.9453-3.0078-6.0195-4.3516-9.4766-1.5742-3.5273-2.9414-7.1445-4.0938-10.828-1.3398-4.0586-2.3672-8.2109-3.0781-12.422-0.43359-1.957-0.54297-3.9727-0.31641-5.9648-3.043 0.14063-6.0469 0.74609-8.9062 1.8008-1.4727 1.2734-3.0078 2.5586-4.4805 3.8438l-1.8008 1.4727-1.4727 1.0234c-0.9375 0.70312-2.043 1.4727-2.7578 2.0547v-0.003906c-2.9492 2.1016-5.418 4.8086-7.2344 7.9414-2.3633 4.1641 1.1523 13.773 4.2266 22.285 2.9531 8.9062 5.8984 17.492 8.6523 25.688 5.1836 16.398 9.375 31.508 13.059 43.809 3.3359 12.555 6.6641 22.359 8.5234 29.398 1.8555 7.0391 2.5039 11.25 1.5391 11.598-0.96484 0.34766-3.3945-2.8867-6.9844-9.2891-5.0234-9.0898-9.4297-18.504-13.191-28.184-5.0625-12.188-10.246-26.578-16.078-42.656-3.0078-8.0703-6.1328-16.461-9.375-25.172-1.1523-3.0742-2.3711-6.3477-3.4609-9.7422 8.6445 96.336 86.082 175.7 87.234 272.34v0.003906c0.30078 0.23047 0.61328 0.44531 0.9375 0.63672l1.0859 0.9375 0.1875 0.19531h0.003906c0.26172 0.11328 0.51563 0.23828 0.76563 0.375l2.6914 1.7344c3.6562 2.1758 7.3672 4.6133 11.082 6.7891 7.5547 4.1641 14.926 8.2578 22.031 12.234 3.6562 1.9883 7.2383 4.293 10.762 6.6641 3.1406 2.1094 6.1484 3.9648 9.1602 6.2734-1.7695-6.0039-3.2188-12.098-4.3516-18.254l-1.2852-6.3359c-0.32031-1.6016-0.76953-4.4258-1.1523-6.5625-0.88672-4.4648-1.5117-8.9805-1.875-13.52-0.32031-4.3516-0.63672-8.6445-0.9375-12.938-0.1875-4.0312-0.44922-8.0078-0.63672-11.914-0.51562-4.0977-1.0234-8.1289-1.4727-12.102-0.38281-3.2617-1.6016-7.4258-2.3047-11.082v-0.003907c-6.1328-26.723-14.688-52.836-25.555-78.008-18.449-43.305-32.664-69.242-30.555-70.453 1.5391-0.83594 18.957 23.055 40.312 66.027 12.586 25.32 22.465 51.898 29.465 79.293 0.83594 4.1055 2.0547 7.5 2.6914 12.234 0.58203 3.9766 1.1523 8.0078 1.7891 12.113 0.625 8.2617 1.25 16.699 1.875 25.312 0.39063 4.0508 1.0195 8.0703 1.875 12.047 0.38281 2.1094 0.57031 3.6484 1.1445 6.2734l1.4141 6.5625h0.003906c1.2734 8.1641 3.4727 16.156 6.5625 23.82l0.76953 1.2188 0.38281 0.58203 0.19531 0.32031 0.9375 0.83594 0.83594 0.76953 0.51562 0.25391v-0.003907c0.82422 0.51953 1.6797 0.98828 2.5586 1.4062 1.125 0.59766 2.2773 1.1328 3.4609 1.6016 2.8125 1.2852 5.7656 2.4375 8.9727 3.75h-0.003907c4.0117-11.441 6.4219-23.383 7.1719-35.484 1.1523-12.871 2.7461-26.25 3.3281-39.133v0.003906c-0.70703-13.289-4.1523-26.285-10.113-38.176-2.3047-5.625-4.6133-10.949-6.4766-16.781l-4.8008-15.375c-1.5391-4.8008-2.2422-9.9922-3.3281-14.539v-0.003907c-1.0039-4.3086-1.7734-8.668-2.3086-13.059-0.84766-6.9727-1.3398-13.984-1.4727-21.008 0.32031-11.531 0.89063-17.746 1.875-17.746 2.6914 0 1.875 25.492 14.727 63.16 1.875 4.6875 3.75 9.7969 5.6992 15 1.8008 4.7422 4.4258 10.059 6.9844 15.496h0.003906c2.8438 5.8477 5.3477 11.859 7.5 18 1.1172 3.4375 2 6.9492 2.6328 10.508 1.0898 10.723 1.4023 21.512 0.9375 32.277-0.13281 7.2383-0.32031 14.727-0.83594 22.414l0.003906 0.003907c-0.58594 13.375-3.0859 26.594-7.4258 39.262l8.4375-0.76953 0.51562-0.70312c1.668-2.3047 3.3281-4.6133 5.0625-6.9844 1.6172-2.3906 3.0508-4.8984 4.293-7.5 1.4023-2.4492 2.5195-5.0508 3.3281-7.7539 0.51562-1.3398 1.0234-2.5586 1.4727-3.9648l1.0234-4.8672 0.83594-3.9766 0.19531-0.9375 0.12109-0.51562c0-0.13281 0.19531-1.7891 0.19531-1.7891 0.25391-2.625 0.51562-5.1953 0.76953-7.7539 0.25391-2.5586 0.50781-5.1289 0.76953-7.6211 0.066406-2.5586 0.1875-5.0625 0.32031-7.5547 0.70312-9.9922 0.57031-19.688 0.70312-28.895-0.51562-18.375-1.4062-35.09-3.0742-48.992-2.9453-27.664-6.7227-45.16-4.4805-45.664 1.7891-0.44922 9.1602 15.562 15 43.996h-0.003906c7.7539 37.125 8.9062 75.328 3.4023 112.86l-1.0312 4.875c-0.50781 1.7266-1.2188 3.5156-1.875 5.3164-1.0977 3.5117-2.5586 6.9023-4.3594 10.113-1.2109 2.0547-2.3633 4.1641-3.582 6.2148 3.4609 0 6.918-0.19531 10.312-0.44922 7.5-0.63672 14.859-1.7266 21.898-2.7578 1.8008-0.25391 3.5898-0.50781 5.3242-0.70312l1.2734-0.1875 1.0234-0.13281 0.64844-0.066406 0.003906 0.003906c1.1719-0.050782 2.3477-0.007813 3.5156 0.13281 0.44922 0.066406 0.9375 0.066406 1.3516 0.12109 0.63672-59.625 4.7422-119.26 4.6875-179.02 0.023438-3.2344 0.023438-15.281-0.10547-31.164z"/>
</svg>
