<?xml version="1.0" encoding="UTF-8"?>
<svg width="1200pt" height="1200pt" version="1.1" viewBox="0 0 1200 1200" xmlns="http://www.w3.org/2000/svg">
 <path d="m640.59 785.29c-12.352 5.293-26.469 12.352-42.352 17.648-19.41 35.293-45.883 74.117-68.824 95.293-5.293 5.293-7.0586 14.117-3.5312 22.941 1.7656 1.7656 33.531 52.941 118.23 52.941 42.352 0 37.059-8.8242 38.824-30 0-28.234-7.0586-98.824-42.352-158.82z"/>
 <path d="m435.88 822.35c-31.766-3.5312-61.766-12.352-90-26.469-8.8242 15.883-21.176 33.531-37.059 49.41 33.531 111.18-15.883 116.47 10.59 134.12 49.41 35.293 118.23 45.883 157.06-3.5312 3.5312-5.293 5.293-12.352 1.7656-17.648-1.7695 0.003906-31.77-70.582-42.355-135.88z"/>
 <path d="m1177.1 831.18-33.531-28.234c-37.059-37.059-56.469-107.65-65.293-165.88 30 7.0586 60 7.0586 86.469-5.293 8.8242-3.5312 12.352-14.117 8.8242-22.941-3.5312-8.8242-14.117-12.352-22.941-8.8242-21.176 10.59-49.41 7.0586-77.648 0-3.5312-26.469-3.5312-45.883-3.5312-51.176 17.648-148.23 31.766-77.648-40.59-213.53-24.707-141.18-128.82-171.18-241.77-120-65.293-24.707-137.65-8.8242-139.41-8.8242-314.12 37.059-432.35 121.77-476.47 185.29-28.234 40.59-28.234 75.883-26.469 91.766-28.234 44.117-91.766 93.531-97.059 197.65-1.7656 22.941 33.531 24.707 35.293 1.7656 5.293-84.707 54.707-127.06 67.059-148.23 14.121 229.41-125.29 382.94-127.05 384.7-5.293 7.0586-7.0586 17.648 0 24.707 63.531 68.824 137.65 67.059 185.29 24.707 3.5312-3.5312 5.293-8.8242 5.293-15.883-19.41-141.18 72.352-72.352 116.47-206.47 97.059 67.059 222.35 51.176 324.71-7.0586 67.059 88.234 67.059 213.53 67.059 213.53 0 5.293 3.5312 10.59 7.0586 14.117 26.469 19.41 52.941 30 79.41 30 70.59 0 102.35-75.883 102.35-77.648 3.5312-7.0586 0-15.883-5.293-21.176-77.648-56.469-82.941-213.53-82.941-243.53l37.059-51.176c14.117 37.059 42.352 52.941 77.648 40.59l28.234 15.883c12.359 252.35 178.24 257.64 180 257.64 8.8242 0 14.117-5.293 17.648-12.352l19.41-56.469c1.7656-5.2969 0-14.121-5.293-17.652zm-374.12-388.23c-72.352 56.469-45.883 91.766-74.117 91.766-19.41 0-68.824-44.117-77.648-132.35-1.7656-26.469-10.59-49.41-22.941-68.824-21.176-33.531-38.824-21.176-38.824-42.352 0-7.0586 5.293-14.117 12.352-17.648 105.88-33.531 192.35 8.8242 165.88 38.824-7.0586 7.0586-17.648 7.0586-24.707 1.7656-22.941-19.41-63.531-19.41-95.293-14.117 54.707 65.293 22.941 134.12 70.59 187.06 19.41-38.824 58.234-70.59 60-72.352 7.0586-5.293 19.41-5.293 24.707 3.5312 8.8242 7.0508 7.0586 19.406 0 24.699zm114.71-26.473c0-17.648 15.883-33.531 33.531-33.531 17.648 0 33.531 15.883 33.531 33.531s-15.883 33.531-33.531 33.531c-17.648 0-33.531-15.883-33.531-33.531z"/>
</svg>
