<?xml version="1.0" encoding="UTF-8"?>
<svg width="1200pt" height="1200pt" version="1.1" viewBox="0 0 1200 1200" xmlns="http://www.w3.org/2000/svg">
 <path d="m781.55 851.29c-41.391 49.922-152.16 82.781-281.86 82.781-81.375 0-158.63-13.688-214.22-37.312-18.844 13.453-38.766 33.234-38.766 56.859 0 60.938 136.45 126.24 339.61 126.24s339.71-65.297 339.71-126.24c-0.09375-39.328-55.172-78.234-144.47-102.33zm80.062 113.16c-24.844 19.781-88.078 46.922-184.69 57.844-29.156 3.375-59.625 5.0625-90.703 5.0625-7.5469 0-13.688-6.1406-13.688-13.688 0-7.6875 6.1406-13.688 13.688-13.688 30.141 0 59.531-1.5469 87.609-4.7812 96.938-11.297 152.86-38.156 170.63-52.219 5.8594-4.6875 14.531-3.8438 19.219 2.0625 4.875 5.9531 3.9375 14.578-2.0625 19.406zm-170.68-226.92c-41.859 14.859-95.297 23.156-151.31 23.156-72.609 0-140.39-13.922-183.37-37.547-78.375 18.469-128.86 51.234-128.86 83.766 0 21.375 22.547 43.922 62.062 61.781 52.547 24.141 129.14 37.781 210.24 37.781 140.16 0 239.53-39.375 265.22-78.375 4.6875-7.2188 7.0781-14.156 7.0781-21.234-0.046875-24.703-30.281-50.484-81.047-69.328zm-359.02 95.625c-2.3906 4.7812-7.3125 7.6875-12.234 7.6875-2.0625 0-4.2188-0.46875-6.1406-1.4531l-26.625-13.312c-6.8438-3.4688-9.4688-11.625-6.1406-18.375 3.4688-6.8438 11.625-9.4688 18.375-6.1406l26.625 13.312c6.75 3.1875 9.6094 11.438 6.1406 18.281zm109.55-32.625-18.844 2.7656c-0.60938 0.14062-1.3125 0.14062-1.9219 0.14062-6.7031 0-12.609-4.9219-13.547-11.859-0.9375-7.5469 4.2188-14.391 11.766-15.469l18.938-2.7656c7.4531-1.0781 14.297 4.2188 15.469 11.766 0.89062 7.5938-4.2656 14.438-11.859 15.422zm113.77 50.25-21.844 18.609c-2.625 2.2969-5.625 3.375-8.8594 3.375-3.8438 0-7.6875-1.6875-10.312-4.7812-4.9219-5.7656-4.3125-14.391 1.4531-19.312l21.844-18.609c5.7656-4.9219 14.391-4.2188 19.312 1.4531 4.875 5.7188 4.1719 14.344-1.5938 19.266zm136.08-51c-1.9219 5.5312-7.3125 8.8594-12.844 8.8594-1.5469 0-3.2344-0.23438-4.6875-0.70312l-21.844-8.0625c-7.2188-2.7656-10.688-10.453-8.1562-17.625 2.625-7.2188 10.453-10.688 17.531-8.1562l21.844 8.0625c7.2188 2.625 10.781 10.547 8.1562 17.625zm-18.609-193.78c-39.469 13.453-89.859 21.375-146.39 21.375-50.156 0-95.391-6.1406-132.61-16.922-37.078 13.922-59.062 32.531-59.062 49.922 0 12 10.688 24.938 30.141 36.469 38.625 22.781 103.92 36.375 174.71 36.375 55.078 0 107.16-8.2969 146.63-23.156 36.469-13.781 58.453-32.531 58.453-49.781 0.046875-19.5-27.422-39.984-71.859-54.281zm40.688 65.062c-15.938 12.703-56.156 30-117 37.078-9.2344 1.0781-18.844 1.7812-29.391 2.5312h-0.70312c-7.3125 0-13.312-5.625-13.688-12.938-0.375-7.5469 5.3906-14.062 12.938-14.391 9.8438-0.46875 18.844-1.2188 27.609-2.3906 59.156-6.8438 93.375-23.391 103.08-31.219 5.8594-4.6875 14.531-3.7031 19.219 2.2969 4.9219 5.6719 3.8438 14.344-2.0625 19.031zm-187.08-216.98c-120.84 0-204.94 38.391-204.94 72.938 0 34.453 84.141 72.938 204.94 72.938 120.84 0 204.94-38.531 204.94-72.938 0.046875-34.547-84.094-72.938-204.94-72.938zm0 123.84c-19.547 0-38.625-1.0781-56.625-3.1406-60.844-7.0781-101.06-24.375-117-37.078-6-4.6875-6.9375-13.312-2.2969-19.219 4.6875-5.8594 13.312-6.9375 19.219-2.2969 9.8438 7.7812 44.062 24.469 103.08 31.219 17.062 1.9219 35.062 3 53.531 3 7.5469 0 13.688 6 13.688 13.688 0.09375 7.5938-6.0469 13.828-13.594 13.828z"/>
 <path d="m401.06 315c4.9219 5.3906 8.3906 9.375 9.9375 15 4.4531 15.609-10.078 34.312-23.156 47.297-5.3906 5.3906-5.3906 14.062 0 19.453 2.625 2.625 6.2344 4.0781 9.7031 4.0781s6.9375-1.3125 9.7031-3.9375c26.531-26.391 36.703-51.469 30.141-74.297-3.375-11.766-10.078-19.219-15.938-25.781-4.5469-5.1562-8.625-9.4688-11.062-15.938-5.1562-13.312-1.2188-29.391 11.766-48 4.3125-6.2344 2.8594-14.766-3.375-19.078s-14.766-2.8594-19.078 3.375c-18.609 26.531-23.625 51.234-14.859 73.688 4.2188 10.922 10.781 18.281 16.219 24.141z"/>
 <path d="m574.31 304.92c4.9219 5.3906 8.3906 9.375 9.9375 15 3.6094 12.469-4.2188 28.453-23.156 47.297-5.3906 5.3906-5.3906 14.062 0 19.453 2.625 2.625 6.2344 4.0781 9.7031 4.0781s6.9375-1.3125 9.7031-3.9375c26.531-26.391 36.703-51.469 30.141-74.297-3.375-11.766-10.078-19.219-15.938-25.781-4.5469-5.1562-8.625-9.4688-11.062-15.938-5.1562-13.312-1.2188-29.391 11.766-48 4.3125-6.2344 2.8594-14.766-3.375-19.078s-14.766-2.8594-19.078 3.375c-18.609 26.531-23.625 51.234-14.859 73.688 4.3594 10.828 10.969 18.141 16.219 24.141z"/>
 <path d="m481.08 223.78c4.9219 5.3906 8.3906 9.375 9.9375 15 3.6094 12.469-4.2188 28.453-23.156 47.297-5.3906 5.3906-5.3906 14.062 0 19.453 2.625 2.625 6.2344 4.0781 9.7031 4.0781s6.9375-1.3125 9.7031-3.9375c26.531-26.391 36.703-51.469 30.141-74.297-3.375-11.766-10.078-19.219-15.938-25.781-4.5469-5.1562-8.625-9.4688-11.062-15.938-5.1562-13.312-1.2188-29.391 11.766-48 4.3125-6.2344 2.8594-14.766-3.375-19.078s-14.766-2.8594-19.078 3.375c-18.609 26.531-23.625 51.234-14.859 73.688 4.2188 10.969 10.828 18.281 16.219 24.141z"/>
 <path d="m934.31 704.86c4.9219 5.3906 8.3906 9.2344 9.9375 15 4.4531 15.609-10.078 34.312-23.156 47.297-5.3906 5.3906-5.3906 14.062 0 19.453 2.625 2.625 6.2344 4.0781 9.7031 4.0781s6.9375-1.3125 9.7031-3.9375c26.531-26.391 36.703-51.469 30.141-74.297-3.375-11.766-10.078-19.219-15.938-25.781-4.5469-5.1562-8.625-9.4688-11.062-15.938-5.1562-13.312-1.2188-29.391 11.766-47.859 4.3125-6.2344 2.8594-14.766-3.375-19.078s-14.766-2.8594-19.078 3.375c-18.609 26.531-23.625 51.234-14.859 73.688 4.3594 10.688 10.969 18.141 16.219 24z"/>
 <path d="m840.94 623.76c4.9219 5.3906 8.3906 9.375 9.9375 15 4.4531 15.609-10.078 34.312-23.156 47.297-5.3906 5.3906-5.3906 14.062 0 19.453 2.625 2.625 6.2344 4.0781 9.7031 4.0781s6.9375-1.3125 9.7031-3.9375c26.531-26.391 36.703-51.469 30.141-74.297-3.375-11.766-10.078-19.219-15.938-25.781-4.5469-5.1562-8.625-9.4688-11.062-15.938-5.1562-13.312-1.2188-29.391 11.766-48 4.3125-6.2344 2.8594-14.766-3.375-19.078s-14.766-2.8594-19.078 3.375c-18.609 26.531-23.625 51.234-14.859 73.688 4.3594 10.922 10.969 18.234 16.219 24.141z"/>
</svg>
