<?xml version="1.0" encoding="UTF-8"?>
<svg width="1200pt" height="1200pt" version="1.1" viewBox="0 0 1200 1200" xmlns="http://www.w3.org/2000/svg">
 <path d="m900 657.21v-38.457h-37.5v38.457c6.207-0.52734 12.414-0.95703 18.75-0.95703s12.562 0.42969 18.75 0.95703z"/>
 <path d="m862.5 731.25h37.52v-36.543c-6.168-0.62109-12.434-0.95703-18.77-0.95703s-12.582 0.33594-18.75 0.95703z"/>
 <path d="m693.75 881.25v187.5h375v-187.5c0-83.793-55.258-154.91-131.25-178.86v28.855c0 20.68-16.82 37.5-37.5 37.5h-37.5c-20.68 0-37.5-16.82-37.5-37.5v-28.855c-75.992 23.941-131.25 95.062-131.25 178.86z"/>
 <path d="m675 1106.2h-28.125c-5.1758 0-9.375 4.1992-9.375 9.375s4.1992 9.375 9.375 9.375h468.75c5.1758 0 9.375-4.1992 9.375-9.375s-4.1992-9.375-9.375-9.375z"/>
 <path d="m228.62 1111c-2.1367 17.062-3.6172 34.238-3.6172 51.508h421.88c-27.469 0-49.48-23.738-46.633-51.77 2.4961-24.395 24.883-41.98 49.406-41.98h6.6016v-187.5c0-104.61 71.867-192.52 168.75-217.59v-63.656c0-10.352 8.3984-18.75 18.75-18.75h18.75v-18.75c0-10.352 8.3984-18.75 18.75-18.75s18.75 8.3984 18.75 18.75v18.75h18.75c10.352 0 18.75 8.3984 18.75 18.75v63.656c67.367 17.438 122.59 65.305 150 128.01v-401.87c0-75.336-49.949-141.56-122.4-162.26l-127.07-42.133c-63.75-21.129-106.78-80.734-106.78-147.9h-318.75c0 67.164-43.031 126.77-106.78 147.9l-127.07 42.133c-72.449 20.699-122.4 86.906-122.4 162.26v371.85c0 56.887-11.645 124.46 11.043 177.71 25.258 59.27 108.47 123.88 161.32 171.64zm176.21-27.281c-15-4.3867-28.781-12.582-39.883-23.699l26.531-26.492c6.6562 6.6562 14.926 11.57 23.887 14.211zm-3.9766-137.29-20.305-31.539c13.164-8.4766 28.387-13.539 44.023-14.645l2.6641 37.406c-9.375 0.65625-18.508 3.6953-26.383 8.7773zm3.9766-425.21c-15-4.3867-28.781-12.582-39.883-23.699l26.531-26.492c6.6562 6.6562 14.926 11.57 23.887 14.211zm38.492 97.781 2.6641 37.406c-9.375 0.65625-18.508 3.6953-26.383 8.7734l-20.305-31.539c13.16-8.4688 28.387-13.531 44.023-14.641zm-75.617 48.562 32.906 18c-4.5 8.1953-6.8633 17.516-6.8633 26.945 0 5.3984 0.75 10.727 2.25 15.844l-36 10.539c-2.4922-8.5703-3.75-17.457-3.75-26.402 0-15.676 3.957-31.238 11.457-44.926zm55.875 134.91c-15-4.3867-28.781-12.582-39.883-23.699l26.531-26.492c6.6562 6.6562 14.926 11.57 23.887 14.211zm27.582 282.92-7.9492-36.637c9.1484-1.9883 17.738-6.3008 24.863-12.469l24.562 28.352c-11.871 10.27-26.215 17.453-41.477 20.754zm19.066-176.91c14.211 6.4883 26.68 16.555 36.094 29.082l-30.02 22.5c-5.6445-7.5391-13.145-13.594-21.676-17.492zm-8.2695-140.98c9.1484-1.9883 17.738-6.3008 24.863-12.469l24.562 28.352c-11.852 10.273-26.195 17.457-41.477 20.758zm57.152 259.05-35.137-13.105c2.3438-6.3008 3.5234-12.918 3.5234-19.688 0-2.6992-0.20703-5.3984-0.58203-8.043l37.125-5.25c0.61719 4.332 0.9375 8.7578 0.9375 13.258 0.019531 11.305-1.9688 22.328-5.8672 32.828zm24.637-314.08c0 11.324-1.9883 22.352-5.8867 32.832l-35.137-13.105c2.3438-6.3008 3.5234-12.918 3.5234-19.688 0-2.6992-0.20703-5.3984-0.58203-8.043l37.125-5.25c0.62109 4.332 0.95703 8.7539 0.95703 13.254zm-48.695-33.656c-5.6445-7.5391-13.145-13.594-21.676-17.492l15.602-34.086c14.211 6.4883 26.68 16.555 36.094 29.082zm29.945-247.59c0 11.324-1.9883 22.352-5.8867 32.832l-35.137-13.105c2.3438-6.3008 3.5234-12.918 3.5234-19.688 0-2.6992-0.20703-5.3984-0.58203-8.043l37.125-5.25c0.62109 4.332 0.95703 8.7539 0.95703 13.254zm-54.77-85.234c14.211 6.4883 26.68 16.555 36.094 29.082l-30.02 22.5c-5.6445-7.5391-13.145-13.594-21.676-17.492zm-2.1562 127.8 24.562 28.352c-11.852 10.273-26.195 17.457-41.477 20.758l-7.9492-36.637c9.1328-1.9883 17.738-6.3008 24.863-12.473zm-43.5-136.03 2.6641 37.406c-9.375 0.65625-18.508 3.6953-26.383 8.7734l-20.305-31.539c13.16-8.4688 28.387-13.531 44.023-14.641zm-75.617 48.562 32.906 18c-4.5 8.1953-6.8633 17.516-6.8633 26.945 0 5.3984 0.75 10.727 2.25 15.844l-36 10.539c-2.4922-8.5703-3.75-17.457-3.75-26.402 0-15.676 3.957-31.238 11.457-44.926zm0 562.5 32.906 18c-4.5 8.1953-6.8633 17.516-6.8633 26.945 0 5.3984 0.75 10.727 2.25 15.844l-36 10.539c-2.4922-8.5703-3.75-17.457-3.75-26.402 0-15.676 3.957-31.238 11.457-44.926zm-105.21-461.3 81.074 259.43c8.2109 26.289 7.4258 54.582-2.25 80.363l-34.293 91.461h-7.0312c-24.02-24.02-37.5-56.57-37.5-90.523z"/>
</svg>
