<?xml version="1.0" encoding="UTF-8"?>
<svg width="1200pt" height="1200pt" version="1.1" viewBox="0 0 1200 1200" xmlns="http://www.w3.org/2000/svg">
 <path d="m770.28 478.96c0-5.3789-4.3438-9.7227-9.7227-9.7227-5.3789 0-9.7227 4.3438-9.7227 9.7227v26.898c0 5.3789 4.3438 9.7227 9.7227 9.7227 5.3789 0 9.7227-4.3438 9.7227-9.7227z"/>
 <path d="m824.69 561.31c5.3789 0 9.7227-4.3438 9.7227-9.7227v-26.898c0-5.3789-4.3438-9.7227-9.7227-9.7227s-9.7227 4.3438-9.7227 9.7227v26.898c-0.003906 5.3789 4.3398 9.7227 9.7227 9.7227z"/>
 <path d="m1050.2 961.04c-36-48.414-76.344-79.242-120.62-92.484 29.586-27.723 53.172-59.379 69.516-94.551 1.2422-2.4844 1.2422-5.5859 0-8.0703-1.2422-2.4844-3.5156-4.5508-6.207-5.3789-38.691-11.379-77.379-13.449-115.24-6.6211 5.793-28.344 8.2773-59.586 7.6562-93.93 0-2.6914-1.2422-5.3789-3.3086-7.2422-2.0703-1.8633-4.7578-2.6914-7.4492-2.4844-1.0352 0.20703-2.2773 0.41406-3.5156 0.62109v-228.2c0-5.3789-4.3438-9.7227-9.7227-9.7227h-60v-19.863c24.207-4.5508 42.621-25.863 42.621-51.309 0-25.242-36.621-85.449-44.07-97.242-3.5156-5.793-13.035-5.793-16.551 0-7.4492 11.793-44.07 72-44.07 97.242 0 25.449 18.414 46.758 42.621 51.309v19.863h-60c-5.3789 0-9.7227 4.3438-9.7227 9.7227v23.586c-0.62109-0.62109-1.0352-1.2422-1.6562-1.6562-40.551-27.309-64.758-72.621-64.758-121.24 0-80.484 65.586-145.86 146.07-145.86s146.07 65.379 146.07 145.86c0 45.93-20.898 88.344-57.516 116.28-4.3438 3.3086-5.1719 9.3086-1.8633 13.656 3.3086 4.3438 9.3086 5.1719 13.656 1.8633 41.586-31.656 65.379-79.656 65.379-131.79 0-91.242-74.277-165.31-165.52-165.31-91.242 0-165.52 74.277-165.52 165.31 0 55.242 28.137 105.52 73.449 137.59 5.5859 3.9297 10.758 0.41406 12.621-1.8633v157.86c-16.965 14.691-32.07 31.449-45.93 49.863-15.309-27.516-32.691-53.379-49.449-76.965-3.7227-5.1719-12.207-5.1719-15.93 0-14.691 20.691-30 43.449-43.863 67.242l-0.011719-393.94c0-19.449-15.723-35.172-35.172-35.172s-35.172 15.723-35.172 35.172v338.28c-7.8633-5.793-15.93-11.172-24.414-16.344l-37.656-324c-1.8633-19.242-19.242-33.516-38.484-31.449-9.3086 1.0352-17.793 5.3789-23.586 12.828-6 7.2422-8.6914 16.344-7.6562 25.863l39.93 394.34c-17.379-6-34.758-10.137-51.723-11.793-2.6914-0.20703-5.3789 0.62109-7.4492 2.4844-2.0703 1.8633-3.3086 4.3438-3.3086 7.2422-0.62109 34.344 1.8633 65.586 7.6562 93.93-37.863-7.0352-76.551-4.7578-115.24 6.6211-2.6914 0.82812-4.9648 2.6914-6.207 5.3789-1.2422 2.6914-1.2422 5.5859 0 8.0703 16.344 35.172 39.93 66.621 69.516 94.551-44.277 13.242-84.621 43.863-120.83 92.484-2.2773 3.1016-2.4844 7.4492-0.62109 10.758 1.8633 3.3086 5.793 5.3789 9.7227 4.7578 36.414-4.5508 69.309 8.6914 104.48 22.758 32.898 13.242 67.863 27.309 108.83 27.309 28.758 0 60.621-7.2422 96.414-26.484 8.8984 26.07 25.656 66.207 73.449 86.484 15.723 6.6211 32.691 10.137 49.656 10.137s33.93-3.3086 49.656-10.137c47.793-20.277 64.758-60.414 73.449-86.484 35.793 19.242 67.656 26.484 96.414 26.484 40.758 0 75.93-14.07 108.83-27.309 34.965-14.07 68.07-27.309 104.48-22.758 3.9297 0.62109 7.6562-1.4492 9.7227-4.7578 0.82813-3.9336 0.41406-8.2812-1.8633-11.383zm-291.52-619.45c0-12.828 17.793-47.172 32.898-73.035 15.102 25.863 32.898 60.414 32.898 73.035 0 14.691-9.7227 26.898-22.965 31.242v-27.102c0-5.3789-4.3438-9.7227-9.7227-9.7227-5.3789 0-9.7227 4.3438-9.7227 9.7227v27.102c-13.664-4.3438-23.387-16.551-23.387-31.242zm217.45 434.69c-16.758 32.484-40.344 61.656-69.723 87.102-26.691-4.1367-54.414-2.2773-83.793 5.5859 22.965-25.449 39.309-56.898 49.656-93.93 33.93-7.4492 68.895-7.2422 103.86 1.2422zm-296.89 148.76c38.898-52.344 41.172-110.69 25.242-167.79 57.309-48.828 111.31-77.793 161.17-85.863-0.20703 110.9-37.863 186-113.79 227.17-1.0352 0.82812-36.207 19.863-72.621 26.484zm52.137-492.62h120v222c-16.965 3.7227-34.137 9.5156-51.723 17.379-2.2773-28.965-8.2773-58.758-18.207-88.758-0.82812-2.6914-3.1016-4.9648-5.793-6s-5.793-0.82812-8.2773 0.62109c-12.828 7.0352-24.621 15.102-36.207 23.586v-168.83zm35.172 168c8.0703 27.309 12.828 54.207 14.277 80.277-26.691 13.863-54 32.898-82.344 56.484-6.207-17.586-13.863-34.965-22.551-51.93 24.824-34.762 54.41-62.902 90.617-84.832zm-158.07 11.793c100.34 144.21 112.76 242.9 40.758 318.41-9.7227 1.4492-52.758 8.0703-81.516-0.20703-71.797-75.312-59.383-174 40.758-318.21zm-157.86-11.793c36.621 22.137 66.207 50.277 90.621 84.828-8.6914 16.965-16.344 34.137-22.551 51.723-28.344-23.586-55.656-42.621-82.344-56.484 1.4453-25.859 6.2031-52.758 14.273-80.066zm70.965-352.76c8.6914 0 15.516 7.0352 15.516 15.516v41.379h-31.242v-41.379c0.21094-8.4805 7.0391-15.516 15.727-15.516zm-15.516 367.65v-291.1h31.242v324c-9.7227-11.172-20.484-21.516-31.656-31.242 0-0.62109 0.41406-1.0352 0.41406-1.6562zm-118.14-366.21c8.4844-0.62109 16.344 5.3789 17.172 14.07l4.7578 40.965-31.656 3.1016-4.1367-41.172c-1.0312-13.445 9.7266-16.551 13.863-16.965zm-7.8594 77.59 31.863-3.3086 29.379 253.24c-2.6914 1.0352-4.7578 3.3086-5.793 6-9.9297 30-15.723 59.793-18.207 88.758-0.82812-0.41406-1.6562-0.82812-2.6914-1.2422zm132.41 430.76c-15.723 56.898-13.656 115.24 25.242 167.59-124.76-28.551-186-111.93-186.21-253.45 49.859 8.0703 104.07 37.035 160.96 85.863zm-271.45 18.828c34.965-8.4844 69.93-8.6914 103.86-1.0352 10.344 37.035 26.898 68.484 49.656 93.93-29.172-7.8633-57.309-9.9297-83.793-5.793-29.59-25.242-52.969-54.414-69.727-87.102zm46.551 204.82c-29.172-11.793-59.379-23.793-91.863-24.828 68.484-81.309 150-96.828 248.07-46.965 14.691 10.344 64.344 29.379 89.379 34.965-110.48 90.828-179.17 63.52-245.59 36.828zm362.9 87.52c-26.691 11.379-57.309 11.379-84 0-42.414-18-55.656-53.172-63.93-78.414 13.656-8.4844 27.93-18.621 42.828-31.035 3.7227-3.1016 4.3438-8.2773 2.0703-12.414 54.207 11.379 106.34 3.1016 121.86 0-2.2773 4.1367-1.6562 9.1016 2.0703 12.207 14.898 12.207 29.172 22.551 42.828 31.035-8.0781 25.242-21.316 60.621-63.73 78.621zm279.1-87.52c-66.414 26.691-135.1 54-245.38-37.035 34.758-7.8633 64.758-19.863 90.414-35.586 97.656-49.035 178.76-33.516 246.83 47.586-32.691 1.2422-62.691 13.242-91.863 25.035z"/>
 <path d="m254.69 165.52c6.4141-4.7578 12.414-9.9297 18-15.309 25.656 15.309 48.414 24.621 70.344 28.551 10.344 1.6562 20.277 1.8633 30.207 1.0352-0.41406 4.7578-1.6562 9.5156-3.5156 14.07-2.0703 4.9648 0.20703 10.758 5.1719 12.828 1.2422 0.62109 2.4844 0.82812 3.9297 0.82812 3.7227 0 7.4492-2.2773 8.8984-6 3.3086-7.8633 4.9648-16.137 5.1719-24.621 12.207-3.1016 23.793-7.8633 33.516-14.691 6-4.3438 11.379-9.3086 16.551-14.07 7.6562-7.2422 14.898-13.863 23.379-17.793 14.691-6.6211 33.309-3.1016 44.691 8.2773 11.379 11.379 15.102 30.207 8.6914 45.102-2.0703 4.9648 0.20703 10.758 5.1719 12.828 1.2422 0.62109 2.4844 0.82812 3.9297 0.82812 3.7227 0 7.4492-2.2773 8.8984-6 9.5156-22.137 4.1367-49.656-12.828-66.621-17.172-16.965-44.484-22.137-66.414-12.207-11.379 5.1719-20.277 13.242-28.758 21.102-4.7578 4.3438-9.5156 8.8984-14.691 12.621-7.0352 4.9648-15.309 8.4844-24 10.965-2.8984-12.621-9.1016-24.414-18.414-33.516-20.07-19.863-51.93-25.863-77.586-14.277-13.449 6-23.793 15.723-33.93 25.035-6 5.5859-11.586 10.758-17.793 15.309-21.934 15.727-52.555 21.52-84.004 16.141-5.1719-0.82813-10.344 2.6914-11.379 8.0703-0.82813 5.3789 2.6914 10.344 8.0703 11.379 36.621 6.207 72.621-1.0352 98.691-19.863zm48.41-38.48c18.207-8.0703 41.586-3.7227 55.863 10.344 6.207 6.207 10.551 14.484 12.828 23.172-8.2773 0.62109-16.758 0.41406-25.242-1.0352-18-3.1016-36.828-10.551-58.344-22.758 4.5508-3.9297 9.5156-7.2422 14.895-9.7227z"/>
</svg>
