<?xml version="1.0" encoding="UTF-8"?>
<svg width="1200pt" height="1200pt" version="1.1" viewBox="0 0 1200 1200" xmlns="http://www.w3.org/2000/svg">
 <path d="m47.008 586.71c0.12109 14.559 1.1523 34.238 10.125 39.656 6 3.6094 17.418 1.3398 32.176-6.4297 72.59-38.184 147.09-58.574 209.95-57.328 1.7148-0.039063 3.4297-0.046875 5.1641-0.046875 61.82 0 136.71 20.82 206.5 57.543 14.758 7.7617 26.195 10.051 32.184 6.4297 9.0742-5.4844 10.031-25.527 10.125-40.133-66.273-44.926-193.12-71.887-252.93-70.613-64.332-1.2109-180.06 26.859-253.29 70.922z"/>
 <path d="m300.54 1125c74.605 0 133.76-59.477 140.66-141.41l31.406-361.26c-60.094-27.195-121.59-42.027-173.2-40.977h-0.36719c-51.383-1.1172-110.79 13.258-170.64 40.406l31.461 361.81c6.9141 81.957 66.07 141.43 140.68 141.43z"/>
 <path d="m490.68 631.02-30.797 354.16c-7.7344 91.871-74.75 158.57-159.34 158.57-84.59 0-151.6-66.695-159.34-158.59l-30.852-354.72c-4.1055 2.0352-8.2109 3.9375-12.32 6.0938-5.1367 2.6992-9.9648 4.8281-14.539 6.4688l29.945 359.34c8.5195 95.035 90.887 169.53 187.54 169.53 96.656 0 179.02-74.492 187.54-169.59l29.887-358.6c-5.0703-1.6953-10.434-3.9453-16.219-6.9922-3.8164-2.0078-7.6797-3.7695-11.504-5.6719z"/>
 <path d="m300.65 28.586-3.3672-0.11328c-138.38 5.9805-250.29 125.32-250.29 267.91v268.59c76.32-42.477 189.7-69.102 253.31-67.93 60.91-1.2461 180.92 23.578 252.94 67.031v-267.52c0-143.02-113.31-263.22-252.59-267.96zm46.77 346.41c-19.004 19.004-27.254 75-56.25 75-28.996 0-37.246-55.996-56.25-75-19.004-19.004-75-27.254-75-56.25s55.996-37.246 75-56.25c19.004-19.004 27.254-75 56.25-75 28.996 0 37.246 55.996 56.25 75 19.004 19.004 75 27.254 75 56.25s-56.004 37.246-75 56.25z"/>
 <path d="m356.79 309.38-37.5-18.75-18.75-37.5c-5.9531-12.449-12.957-12.555-18.75 0l-18.75 37.5-37.5 18.75c-12.449 5.9531-12.555 12.957 0 18.75l37.5 18.75 18.75 37.5c5.793 12.555 12.797 12.449 18.75 0l18.75-37.5 37.5-18.75c12.555-5.793 12.441-12.797 0-18.75z"/>
 <path d="m902.02 28.32-2.457 0.16016c-139.27 4.7344-252.57 124.95-252.57 267.96v267.52c72.086-43.445 192.48-68.148 253.31-67.031 63.918-1.1992 176.7 25.461 252.94 67.922v-268.56c0-142.92-112.42-262.47-251.22-267.97zm63.281 346.58c-19.004 19.004-27.254 75-56.25 75s-37.246-55.996-56.25-75c-19.004-19.004-75-27.254-75-56.25 0-28.996 55.996-37.246 75-56.25 19.004-19.004 27.254-75 56.25-75s37.246 55.996 56.25 75c19.004 19.004 75 27.254 75 56.25 0 28.996-55.996 37.246-75 56.25z"/>
 <path d="m647 586.29c0.10156 14.598 1.0508 34.648 10.125 40.133 5.9922 3.6094 17.41 1.3398 32.176-6.4297 71.766-37.742 148.94-58.836 211.67-57.496 62.926-1.2266 137.37 19.152 209.95 57.328 14.758 7.7617 26.184 10.039 32.184 6.4297 8.9727-5.418 10.004-25.105 10.125-39.656-73.227-44.07-188.54-72.195-252.93-70.922-60.203-1.2461-187.01 25.68-253.29 70.613z"/>
 <path d="m899.67 1124.9c74.605 0 133.76-59.477 140.66-141.41l31.461-361.83c-59.906-27.16-119.46-41.539-170.64-40.406h-0.36719c-51.254-1.125-113.01 13.762-173.18 40.988l31.406 361.23c6.9023 81.957 66.059 141.43 140.66 141.43z"/>
 <path d="m1089.9 630.34-30.852 354.75c-7.7344 91.867-74.746 158.57-159.34 158.57-84.59 0-151.6-66.695-159.34-158.59l-30.797-354.14c-3.8359 1.9023-7.6953 3.6641-11.504 5.6719-5.7852 3.0469-11.148 5.2969-16.219 6.9922l29.887 358.66c8.5117 95.035 90.883 169.53 187.54 169.53 96.648 0 179.02-74.492 187.54-169.59l29.945-359.29c-4.5742-1.6406-9.4023-3.7695-14.539-6.4688-4.1172-2.1719-8.2227-4.0664-12.328-6.1016z"/>
 <path d="m974.67 309.27-37.5-18.75-18.75-37.5c-5.793-12.555-12.797-12.449-18.75 0l-18.75 37.5-37.5 18.75c-12.449 5.9531-12.555 12.957 0 18.75l37.5 18.75 18.75 37.5c5.9531 12.449 12.957 12.555 18.75 0l18.75-37.5 37.5-18.75c12.555-5.7969 12.449-12.797 0-18.75z"/>
</svg>
