<?xml version="1.0" encoding="UTF-8"?>
<svg width="1200pt" height="1200pt" version="1.1" viewBox="0 0 1200 1200" xmlns="http://www.w3.org/2000/svg">
 <path d="m655.59 362.64c0.33984-2.1172 0.55859-4.2539 0.65625-6.3945 0-32.738-33.039-86.25-56.25-118.76-23.195 32.512-56.25 86.082-56.25 118.76 0.097656 2.1406 0.31641 4.2773 0.65625 6.3945 36.586-8.4023 74.602-8.4023 111.19 0z"/>
 <path d="m424.74 430.84c1.9883-2.0742 4.0195-4.1055 6.0938-6.0938-16.535-15.879-29.691-34.934-38.672-56.027-8.9844-21.094-13.609-43.781-13.602-66.707-31.141-9.2031-63.074-15.48-95.383-18.75 3.2812 32.305 9.5586 64.234 18.75 95.379 22.934-0.03125 45.637 4.5742 66.742 13.547 21.109 8.9727 40.18 22.121 56.07 38.652z"/>
 <path d="m460.01 400.89c14.992-10.57 31.133-19.41 48.113-26.344-1.2344-6.0234-1.8633-12.152-1.875-18.301 0-61.07 71.008-151.59 79.105-161.72 3.6914-4.2344 9.0312-6.6641 14.645-6.6641s10.953 2.4297 14.645 6.6641c8.0977 10.125 79.105 100.65 79.105 161.72-0.011719 6.1484-0.64062 12.277-1.875 18.301 16.988 6.9336 33.133 15.77 48.133 26.344 29.137-26.645 68.699-84.656 23.25-182.96v-0.003906c-13.895 13.578-31.605 22.586-50.758 25.82-4.9727 0-9.7422-1.9766-13.258-5.4922-3.5156-3.5156-5.4922-8.2852-5.4922-13.258 0-48.844-28.969-77.586-56.961-105.38-4.3672-4.3516-8.6641-8.6055-12.789-12.844-1.875-1.9883-3.4688-3.543-5.25-5.3828v48.602h-37.5v-48.602l-5.2891 5.3984c-4.0859 4.2188-8.3828 8.4766-12.75 12.824-27.992 27.793-56.961 56.629-56.961 105.38 0 4.9727-1.9766 9.7422-5.4922 13.258-3.5156 3.5156-8.2852 5.4922-13.258 5.4922-19.148-3.2383-36.852-12.246-50.738-25.82-45.449 98.309-5.8867 156.32 23.25 182.96z"/>
 <path d="m544.41 837.38c-0.33984 2.1094-0.55859 4.2383-0.65625 6.375 0 32.738 33.039 86.25 56.25 118.76 23.195-32.512 56.25-86.082 56.25-118.76-0.097656-2.1367-0.31641-4.2656-0.65625-6.375-36.574 8.5-74.613 8.5-111.19 0z"/>
 <path d="m618.75 600c0 10.355-8.3945 18.75-18.75 18.75s-18.75-8.3945-18.75-18.75 8.3945-18.75 18.75-18.75 18.75 8.3945 18.75 18.75z"/>
 <path d="m600 506.25c-24.863 0-48.711 9.8789-66.293 27.457-17.578 17.582-27.457 41.43-27.457 66.293s9.8789 48.711 27.457 66.293c17.582 17.578 41.43 27.457 66.293 27.457s48.711-9.8789 66.293-27.457c17.578-17.582 27.457-41.43 27.457-66.293-0.03125-24.855-9.918-48.684-27.492-66.258-17.574-17.574-41.402-27.461-66.258-27.492zm0 150c-14.918 0-29.227-5.9258-39.773-16.477-10.551-10.547-16.477-24.855-16.477-39.773s5.9258-29.227 16.477-39.773c10.547-10.551 24.855-16.477 39.773-16.477s29.227 5.9258 39.773 16.477c10.551 10.547 16.477 24.855 16.477 39.773s-5.9258 29.227-16.477 39.773c-10.547 10.551-24.855 16.477-39.773 16.477z"/>
 <path d="m775.27 430.86c15.879-16.535 34.934-29.688 56.02-38.672 21.09-8.9844 43.777-13.609 66.699-13.602 9.2148-31.145 15.492-63.086 18.75-95.402-32.305 3.2734-64.238 9.5508-95.379 18.75 0.007813 22.926-4.6172 45.617-13.602 66.711-8.9844 21.09-22.137 40.148-38.676 56.027 2.1562 2.0625 4.1836 4.1055 6.1875 6.1875z"/>
 <path d="m805.33 581.25c-3.5586-41.656-19.973-81.18-46.969-113.1l-13.855 13.855-26.512-26.512 13.855-13.855c-31.902-27.023-71.438-43.422-113.1-46.91v36.523h-37.5v-36.523c-41.66 3.4766-81.195 19.863-113.1 46.875l13.855 13.855-26.512 26.512-13.855-13.855c-17 20.254-29.93 43.602-38.082 68.754-4.5938 14.422-7.5742 29.305-8.8867 44.383h36.582v37.5h-36.582c1.3086 15.059 4.2852 29.922 8.8711 44.324 8.1523 25.156 21.082 48.5 38.078 68.758l13.855-13.855 26.512 26.512-13.855 13.855h0.003906c31.902 27.035 71.445 43.441 113.12 46.93v-36.523h37.5v36.523c41.66-3.4766 81.195-19.863 113.1-46.875l-13.855-13.855 26.512-26.512 13.855 13.855c27.012-31.926 43.426-71.465 46.969-113.14h-36.582v-37.5zm-205.33 150c-34.809 0-68.195-13.828-92.809-38.441-24.613-24.613-38.441-58-38.441-92.809s13.828-68.195 38.441-92.809c24.613-24.613 58-38.441 92.809-38.441s68.195 13.828 92.809 38.441c24.613 24.613 38.441 58 38.441 92.809-0.039062 34.797-13.879 68.16-38.484 92.766s-57.969 38.445-92.766 38.484z"/>
 <path d="m775.24 769.2c-1.9883 2.0625-4.0117 4.0703-6.0742 6.0742 16.535 15.875 29.695 34.93 38.676 56.02 8.9844 21.09 13.609 43.777 13.598 66.699 31.141 9.2031 63.074 15.48 95.383 18.75-3.2812-32.293-9.5586-64.211-18.75-95.344-22.938 0.019531-45.637-4.5938-66.746-13.562-21.105-8.9688-40.184-22.109-56.086-38.637z"/>
 <path d="m1050 618.75v-37.5h48.602c-1.875-1.875-3.3945-3.3555-5.3828-5.2891-4.2578-4.0859-8.5117-8.3828-12.863-12.75-27.77-28.012-56.605-56.961-105.36-56.961-4.9727 0-9.7422-1.9766-13.258-5.4922-3.5156-3.5156-5.4922-8.2852-5.4922-13.258 3.2344-19.148 12.242-36.852 25.82-50.738-98.324-45.449-156.34-5.8672-182.96 23.25h-0.003906c10.547 14.996 19.355 31.145 26.25 48.133 6.0547-1.2461 12.215-1.8828 18.395-1.8945 61.07 0 151.59 71.008 161.72 79.105 4.4492 3.5586 7.0391 8.9453 7.0391 14.645s-2.5898 11.086-7.0391 14.645c-10.125 8.0977-100.65 79.105-161.72 79.105-6.1523-0.011719-12.289-0.64062-18.32-1.875-6.8984 16.992-15.707 33.145-26.25 48.148 26.625 29.102 84.637 68.68 182.96 23.23l0.003906 0.003906c-13.609-13.883-22.645-31.594-25.895-50.758 0-4.9727 1.9766-9.7422 5.4922-13.258 3.5156-3.5156 8.2852-5.4922 13.258-5.4922 48.75 0 77.586-28.949 105.36-56.961 4.3516-4.3672 8.6055-8.6641 12.883-12.77l5.3633-5.2695z"/>
 <path d="m843.75 656.25c32.738 0 86.25-33.039 118.76-56.25-32.512-23.211-86.082-56.25-118.76-56.25-2.1367 0.097656-4.2656 0.31641-6.375 0.65625 8.5 36.574 8.5 74.613 0 111.19 2.1094 0.33984 4.2383 0.55859 6.375 0.65625z"/>
 <path d="m424.76 769.2c-15.891 16.531-34.953 29.684-56.051 38.668-21.098 8.9805-43.793 13.609-66.723 13.609-9.2148 31.125-15.492 63.047-18.75 95.344 32.305-3.2734 64.238-9.5508 95.379-18.75-0.007813-22.926 4.6172-45.617 13.602-66.711 8.9844-21.09 22.137-40.148 38.676-56.027-2.1211-2.0625-4.1445-4.0703-6.1328-6.1328z"/>
 <path d="m740.01 799.11c-15 10.566-31.148 19.406-48.133 26.344 1.2344 6.0234 1.8633 12.152 1.875 18.301 0 61.07-71.008 151.59-79.105 161.72-3.5586 4.4492-8.9453 7.0391-14.645 7.0391s-11.086-2.5898-14.645-7.0391c-8.0977-10.125-79.105-100.65-79.105-161.72 0.011719-6.1484 0.64062-12.277 1.875-18.301-16.988-6.9336-33.133-15.77-48.133-26.344-29.137 26.645-68.699 84.656-23.25 182.96v0.003906c13.895-13.578 31.605-22.586 50.758-25.82 4.9727 0 9.7422 1.9766 13.258 5.4922 3.5156 3.5156 5.4922 8.2852 5.4922 13.258 0 48.75 28.969 77.586 56.961 105.38 4.3672 4.3516 8.6641 8.6055 12.789 12.844 1.875 1.9883 3.4688 3.543 5.25 5.3828v-48.602h37.5v48.602l5.2891-5.3984c4.0859-4.2188 8.3828-8.4766 12.75-12.824 27.992-27.793 56.961-56.535 56.961-105.38 0-4.9727 1.9766-9.7422 5.4922-13.258 3.5156-3.5156 8.2852-5.4922 13.258-5.4922 19.148 3.2383 36.852 12.246 50.738 25.82 45.449-98.309 5.8867-156.32-23.23-182.96z"/>
 <path d="m356.25 543.75c-32.738 0-86.25 33.039-118.76 56.25 32.512 23.211 86.082 56.25 118.76 56.25 2.1445-0.003906 4.2852-0.12891 6.4141-0.375-8.5508-36.758-8.5508-74.992 0-111.75-2.1289-0.24609-4.2695-0.37109-6.4141-0.375z"/>
 <path d="m400.89 739.99c-10.547-14.996-19.355-31.145-26.25-48.133-6.0547 1.2461-12.215 1.8828-18.395 1.8945-61.07 0-151.59-71.008-161.72-79.105-4.4492-3.5586-7.0391-8.9453-7.0391-14.645s2.5898-11.086 7.0391-14.645c10.125-8.0977 100.65-79.105 161.72-79.105 6.1523 0.011719 12.289 0.64062 18.32 1.875 6.8945-16.988 15.703-33.137 26.25-48.133-26.645-29.137-84.676-68.738-182.96-23.25h-0.003906c13.609 13.883 22.645 31.594 25.895 50.758 0 4.9727-1.9766 9.7422-5.4922 13.258-3.5156 3.5156-8.2852 5.4922-13.258 5.4922-48.75 0-77.586 28.949-105.36 56.961-4.3516 4.3672-8.6055 8.6641-12.883 12.77l-5.3633 5.2695h48.602v37.5h-48.602c1.875 1.875 3.3945 3.3555 5.3828 5.2891 4.2578 4.0859 8.5117 8.3828 12.863 12.75 27.77 28.012 56.605 56.961 105.36 56.961 4.9727 0 9.7422 1.9766 13.258 5.4922 3.5156 3.5156 5.4922 8.2852 5.4922 13.258-3.2344 19.148-12.242 36.852-25.82 50.738 98.328 45.43 156.32 5.8672 182.96-23.25z"/>
</svg>
