<?xml version="1.0" encoding="UTF-8"?>
<svg width="1200pt" height="1200pt" version="1.1" viewBox="0 0 1200 1200" xmlns="http://www.w3.org/2000/svg">
 <path d="m681.05 475.12c-10.551 22.641-18.977 54.156-13.398 93.168 0.49219 3.4688 2.9531 6.332 6.3047 7.3398 8.707 2.6328 18.75 3.793 29.262 3.793 24.383 0 51.207-6.2578 70.016-14.855 8.5586 23.457 24.879 51.664 56.371 75.281 1.5938 1.1914 3.4922 1.7969 5.4023 1.7969 1.4531 0 2.918-0.35156 4.2539-1.0664 26.617-14.273 51.965-50.293 62.293-78.039 17.656 8.2266 40.688 15.164 68.512 15.164 7.8516 0 16.09-0.55078 24.668-1.7734 3.457-0.49609 6.3281-2.957 7.3359-6.3086 8.7383-28.906 1.1953-72.293-11.121-99.219 23.461-8.5547 51.715-24.93 75.34-56.441 2.1094-2.8008 2.3906-6.5625 0.73828-9.6484-14.277-26.629-50.309-51.98-78.062-62.301 10.551-22.641 18.977-54.156 13.398-93.168-0.49219-3.4688-2.9531-6.332-6.3047-7.3398-28.926-8.7461-72.34-1.1836-99.246 11.141-8.5469-23.473-24.875-51.715-56.402-75.359-2.8008-2.0859-6.5625-2.3711-9.6562-0.73438-26.625 14.277-51.98 50.312-62.301 78.066-22.648-10.559-54.172-18.992-93.172-13.414-3.457 0.49609-6.3281 2.957-7.3359 6.3086-8.7461 28.934-1.1797 72.379 11.156 99.297-23.477 8.5273-51.727 24.816-75.375 56.352-2.1094 2.8008-2.3906 6.5703-0.73828 9.6562 14.277 26.629 50.309 51.984 78.062 62.305zm3.6875 84.672c-7.1836-68.992 35.285-111.42 35.812-111.94 25.004-25.012 67.047-30.148 92.367-30.797-19.414 20.227-49.066 58.004-49.066 100.08-0.019531 1.1758-0.015624 13.082 4.082 30.012-21.859 10.727-58.238 17.699-83.195 12.645zm150.94 61.969c-53.859-43.711-53.836-103.74-53.824-104.48 0-35.363 26.105-68.715 43.547-87.082 0.57422 28.031 6.3242 75.699 36.07 105.45 0.82031 0.84766 9.1875 9.2773 24.086 18.371-7.8711 23.047-28.609 53.645-49.879 67.746zm150.56-62.922c-68.941 7.168-111.42-35.293-111.94-35.82-25-25.004-30.129-67.047-30.785-92.367 20.227 19.414 57.996 49.059 100.05 49.059h0.49219c2.6367 0 13.934-0.26172 29.543-4.0469 10.723 21.875 17.707 58.172 12.633 83.176zm61.969-150.95c-43.863 54.059-103.73 54.117-104.48 53.828-35.402 0-68.789-26.164-87.141-43.609 27.984-0.53906 75.648-6.1484 105.5-36.004 0.84766-0.82031 9.2656-9.2383 18.344-24.105 23.051 7.8711 53.676 28.609 67.777 49.891zm-62.93-150.55c7.1836 68.992-35.285 111.42-35.812 111.94-25.008 25-67.039 30.133-92.359 30.785 19.414-20.227 49.059-58 49.059-100.07 0.019532-1.1758 0.015626-13.082-4.0781-30.012 21.855-10.73 58.246-17.719 83.191-12.645zm-150.94-61.969c53.859 43.703 53.836 103.74 53.824 104.48 0 35.363-26.105 68.715-43.547 87.078-0.57422-28.031-6.3242-75.695-36.07-105.44-0.81641-0.84766-9.2383-9.2578-24.102-18.332 7.8633-23.051 28.613-53.68 49.895-67.785zm-150.56 62.918c68.918-7.1914 111.41 35.285 111.94 35.82 25 25.004 30.129 67.043 30.785 92.359-20.227-19.414-57.996-49.055-100.05-49.055-1.2461 0.042969-13.125 0.070312-29.992 4.1367-10.746-21.855-17.754-58.223-12.676-83.262zm42.516 97.125c35.355 0 68.695 26.09 87.062 43.531-28.027 0.57422-75.676 6.3398-105.43 36.082-0.84766 0.82031-9.2656 9.2383-18.344 24.105-23.055-7.8672-53.68-28.609-67.777-49.891 43.875-54.059 103.82-53.719 104.48-53.828z"/>
 <path d="m145.61 981.77 56.918 41.055c1.5938 1.1484 3.4336 1.6992 5.25 1.6992 2.8008 0 5.5547-1.2969 7.3125-3.7344l46.113-63.926v34.66c0 18.195 14.801 33 33 33h571.48c18.199 0 33-14.805 33-33v-168.15c0-4.9688-4.0312-9-9-9h-9.2578v-38.812c0-4.9688-4.0312-9-9-9h-13.434c-35.629-24.922-161.97-38.051-176.56-39.492-22.629-2.4219-43.793-20.297-43.805-20.297-33.023-30.047-67.523-24.512-68.941-24.266-4.043 0.69922-7.1016 4.0312-7.4414 8.1133-2.4609 29.027-37.137 32.531-37.77 32.633-38.949-0.23047-71.867 3.918-99.246 7.6172l153.28-212.48c1.3945-1.9414 1.9688-4.3477 1.582-6.7031-0.375-2.3594-1.6875-4.4648-3.6211-5.8633l-56.918-41.055c-14.25-10.277-35.812-6.7422-46.066 7.457l-334.34 463.48c-10.641 14.758-7.2891 35.426 7.4648 46.062zm735.07-126.54h-62.824c-4.9688 0-9 4.0312-9 9s4.0312 9 9 9h62.824v96h-445.75v-96h308.41c4.9688 0 9-4.0312 9-9s-4.0312-9-9-9h-317.41c-4.9688 0-9 4.0312-9 9v114c0 4.9688 4.0312 9 9 9h454.75v4.3008c0 8.2734-6.7266 15-15 15h-571.48c-8.2734 0-15-6.7266-15-15v-58.48c0-0.3125-0.14453-0.57812-0.17969-0.88281l71.98-99.781h529.68zm-516.69-40.844 21.504-29.812h476.93v29.812zm56.32-64.832c27.949-3.7969 62.215-8.4883 103.88-8.3281 16.348-1.3906 46.793-11.883 53.754-41.285 9.5273 0.16406 28.676 2.9727 47.766 20.32 1.0195 0.88672 25.535 21.684 53.871 24.723 27.562 2.7227 88.219 10.555 130.09 21.586h-411.19l11.25-15.594zm-267.56 196.68 334.34-463.48c2.8125-3.8945 7.3594-6.2227 12.176-6.2227 3.1641 0 6.1875 0.98047 8.7656 2.8359l49.617 35.789-351.89 487.81-49.617-35.797c-6.7031-4.832-8.2266-14.23-3.3867-20.934z"/>
</svg>
