<?xml version="1.0" encoding="UTF-8"?>
<svg width="1200pt" height="1200pt" version="1.1" viewBox="0 0 1200 1200" xmlns="http://www.w3.org/2000/svg">
 <path d="m1063.9 945.27c-1.4453 0.82422-3.0195 1.2109-4.5938 1.2109-3.2578 0-6.4453-1.7227-8.1641-4.7812-16.555-29.395-50.602-86.137-84.258-141.64-59.156-98.438-114.14-93.477-114.14-93.477l0.007813-0.011719c-4.7695 5.6406-9.9219 11.48-15.453 17.402-7.5508 8.0938-17.348 15.832-28.156 23.148l0.54297-0.17578s-59.484 39.75-48.02 69.098c11.242 28.777 84.953 80.559 108.54 163.61 0.86719 1.457 1.3867 3.0273 1.3984 4.6562l0.074218 0.24609-0.046874-0.039062c-0.039063 2.5195-1.0195 5.0117-3.0391 6.8398-1.793 1.6094-4.0469 2.3984-6.2812 2.3984-2.5625 0-5.1094-1.043-6.9766-3.0938-0.40234-0.45703-41.398-45.777-92.891-84.594-56.797-42.805-93.523-97.613-102.21-111.29-27.117-4.875-42.18-22.367-47.473-29.738-0.77734-0.125-1.668-0.17969-2.4102-0.32812-13.074-2.582-22.465-8.5859-27.926-17.871-6.1562-10.477-5.2344-21.809-4.0664-27.875-15.305-13.574-14.59-33.844-10.387-47.883-5.2969-3.3281-9.6953-7.418-12.812-12.41-5.4219-8.6602-5.9336-20.398-1.3164-29.883 1.3008-2.6797 3.5977-6.1719 7.2148-9.4766-11.672-15.758-21.613-33.852-27.926-46.664-36.176 58.984-79.199 140.39-115.75 219.2-38.891 83.898-96.516 178.55-97.102 179.5-1.7578 2.8945-4.8516 4.4883-8.0039 4.4883-1.668 0-3.3516-0.4375-4.8867-1.3711-4.4141-2.6914-5.8047-8.4609-3.1133-12.891 0.56641-0.93359 57.66-94.703 96.113-177.59 37.699-81.336 82.359-165.66 119.44-225.53 35.117-56.746 71.465-129.8 71.812-130.54 2.3242-4.6484 7.9102-6.4805 12.578-4.2305 4.6328 2.3047 6.5195 7.9297 4.2305 12.578 0 0-33.879 93.031-24.098 121.16 9.0977 26.156 43.598 56.465 90.68 31.082 4.6406-3.5469 9.1992-7.5039 13.508-12.473 34.352-39.531 37.406-83.605 36.711-113.3-0.29297-12.852-0.53906-25.906 2.0977-36.562-0.375-0.48438-0.84375-0.875-1.1289-1.4492-0.40234-0.84375-41.73-83.641-85.309-133.01-48.652-55.117-105.16-66.688-144-66.688-67.949 0-140.59 63.242-184 101.02-76.465 66.598-164.17 171.24-165.05 172.29-1.8477 2.2148-4.5234 3.3711-7.1953 3.3711-2.125 0-4.2656-0.71484-6.0039-2.1797-3.9727-3.3164-4.5039-9.2305-1.1914-13.203 0.89844-1.0625 89.52-106.82 167.14-174.41 45.391-39.516 121.34-105.63 196.31-105.63 34.957 0 101.95 9.4844 158.06 73.023 37.48 42.469 72.043 106.16 83.797 128.76 7.4766-5.0859 17.461-5.8242 30.57-1.9727 19.539 5.7305 29.023 23.199 39.055 41.691 6.8672 12.672 13.988 25.781 24.773 35.852 23.785 22.156 76.723 0.45703 108.36-12.523l114.22-46.766 7.1055 17.359-114.22 46.766c-35.777 14.684-95.746 39.258-128.25 8.8633-13.02-12.141-21.238-27.266-28.473-40.613-8.4766-15.617-15.801-29.098-27.852-32.648-7.3047-2.125-12.707-2.3047-15.09-0.47656-5.7852 4.4297-5.293 25.066-4.9805 38.711 0.75 32.812-2.6914 81.594-41.289 126.05-32.281 37.188-73.461 38.324-100.71 39.094-5.7148 0.14453-10.93 0.29297-15.418 0.76953-8.0039 0.85938-13.496 3.8984-15.875 8.8086-2.1055 4.3203-1.3008 9.1172 0.34766 11.738 11.352 18.184 67.875 20.324 98.988 12.816 25.91-6.2266 58.613-30.688 58.941-30.926 4.1016-3.0781 9.9961-2.3047 13.129 1.8477 3.1133 4.1367 2.2891 10.016-1.8477 13.129-1.4648 1.0977-36.129 27.027-65.824 34.184-9.1758 2.1992-26.109 4.4297-44.586 4.4297-14.957 0-30.879-1.5-44.57-5.6133-2.0312 7.8828-3.0703 19.758 5.9883 27.129 11.59 2.0312 76.301 11.004 142.51-26.844 4.4141-2.5078 10.199-1.0078 12.797 3.4961 2.5625 4.5039 1.0078 10.219-3.4961 12.797-45.797 26.148-90.254 31.84-120.25 31.84-10.941 0-19.957-0.75391-26.414-1.5508-0.30859 3.457-0.14062 8.0039 2.2266 11.969 2.6367 4.3945 7.7812 7.3789 15.328 8.8789 27.137 5.2539 85.18-6.1172 119.26-28.875 4.2656-2.8555 10.109-1.7227 13 2.6016 2.875 4.3047 1.7227 10.125-2.6016 13-28.688 19.168-71.512 30.742-104.41 32.805 8.2227 6.3945 20.633 12.43 37.738 11.453 39.461-1.3164 114.86-32.098 146.63-66.121 32.852-35.23 52.695-68.371 52.898-68.703 1.2461-2.0859 3.2578-3.6094 5.6016-4.25l174.75-47.277c5.0547-1.3008 10.145 1.6094 11.5 6.5938 1.3555 5-1.5938 10.145-6.5938 11.5l-162.66 44.008c27.598 44.922 134.44 219.19 168.38 279.45 2.543 4.5039 0.95312 10.219-3.5703 12.762zm-424.91-61.285c-5.0156 1.2266-8.1094 6.2812-6.9023 11.316 0.03125 0.10156 1.7422 7.4961 3.9375 25.117-35.18-42.355-119.71-151.64-120.68-152.91-3.1875-4.1367-9.082-4.832-13.148-1.6836-4.1016 3.168-4.8516 9.0469-1.6836 13.148 3.9961 5.1719 86.426 111.75 121.61 154.03-17.145-3.2031-24.316-5.3242-24.418-5.3516-4.9453-1.6289-10.18 1.2656-11.699 6.207-1.5195 4.9453 1.2461 10.18 6.1875 11.699 0.60547 0.18359 15.254 4.6484 54.656 10.586 0.45703 0.074219 0.93359 0.10938 1.3906 0.10938 2.3633 0 4.668-0.89844 6.4258-2.543 2.0859-1.9766 3.168-4.7969 2.9102-7.6523-3.5352-39.699-7.1055-54.582-7.2695-55.207-1.2266-5.0156-6.2812-8.1484-11.316-6.8672z"/>
</svg>
