<?xml version="1.0" encoding="UTF-8"?>
<svg width="1200pt" height="1200pt" version="1.1" viewBox="0 0 1200 1200" xmlns="http://www.w3.org/2000/svg">
 <path d="m691.84 161.57c-18.016-9.6484-36.066-10.859-53.66-3.6133-29.828 12.289-52.25 47.254-66.508 76.555-97.027 16.348-149.88 61.316-151.5 62.77-52.441 37.957-52.84 88.133-51.48 104-38.957 38.531-57.016 76.816-53.684 113.86 1.1914 13.25 5.0469 24.902 10.043 34.973-2.0156 1.1914-3.5703 3.1406-4.1719 5.5938-0.77344 3.1641-18.621 77.777 10.422 114.14 10.062 12.59 24.289 19.035 42.164 19.441 20.371 81.469 67.527 147.96 128.18 183.12v108.96c-2.1055 6.2305-21.043 51.16-129.86 47.078-5.0273-0.29687-9.1406 3.6914-9.3281 8.6602-0.17969 4.9688 3.6914 9.1445 8.6602 9.3281 4.9023 0.17969 9.6445 0.26953 14.23 0.26953 119.65 0 133.55-59.609 134.1-62.238 0.12891-0.60938 0.19531-1.2266 0.19531-1.8477v-100.82c25.168 11.523 52.273 17.816 80.484 17.816 0.58594 0 1.1836 0 1.7695-0.007813 28.406-0.26562 55.594-6.8906 80.742-18.785v101.8c0 0.62109 0.066406 1.2344 0.19531 1.8477 0.55078 2.6328 14.43 62.242 134.1 62.238 4.5781 0 9.332-0.085937 14.234-0.26953 4.9688-0.17969 8.8398-4.3594 8.6602-9.3281-0.1875-4.9688-4.4141-8.957-9.3281-8.6602-109.32 4.0977-127.89-41.18-129.86-47.047v-110.27c59.469-35.539 105.23-101.56 124.76-182 17.059-0.74219 30.574-7.043 39.922-19.211 24.125-31.395 11.863-91.418 7.457-109.36 10.105-11.578 10.453-23.141 10.438-23.52 25.871-250.61-189.05-374.17-191.38-375.47zm-346.46 497.05c-17.133-21.422-13.203-66.391-8.8242-90.051 12.094 15.844 24.875 24.586 25.98 25.324-0.039062 2.8906-0.085938 5.7734-0.058594 8.6758 0.21875 23.539 2.6602 46.398 6.9453 68.344-10.098-1.1602-18.234-5.0312-24.043-12.293zm256.36 222.98c-120.53 1-219.81-124.12-221.26-279.2-0.042968-3.9844-0.011718-7.9531 0.082032-11.895 0.023437-1.0664-0.21875-2.0664-0.53906-3.0234 28.645-24.684 148.38-123.74 257.29-153.8 85.785 49.742 161.22 123.08 179.44 141.38 0.56641 7.7148 0.92969 15.527 0.99609 23.25 1.4492 155.08-95.453 282.16-216.01 283.28zm249.32-222.64c-5.1719 6.7344-12.473 10.605-21.715 11.906 4.3906-23.312 6.6445-47.656 6.4102-72.703-0.050782-5.7852-0.42578-11.605-0.74219-17.422 8.9141-2.0195 16.191-4.7852 22.109-7.9961 5.0703 24.453 9.4844 65.992-6.0625 86.215zm14.215-122.94c0 0.19531-1.1797 18.367-30.91 26.379-7.6133-129.47-172.5-261.59-179.7-267.3-3.8945-3.0859-9.5703-2.4258-12.645 1.4648-3.0859 3.8945-2.4297 9.5547 1.4648 12.645 1.6289 1.2891 151.86 121.61 171.12 238.45-46.023-44.273-165.59-150.35-276.83-174.46-0.10156-0.027344-0.19922-0.042968-0.30469-0.066406-6.1133-1.3164-12.211-2.4727-18.262-3.2695-4.9258-0.59766-9.4453 2.8242-10.098 7.7539-0.44531 3.375 1.1328 6.4648 3.6992 8.3438-20.992 14.297-56.305 40.289-84.445 70.863-3.3672 3.6562-3.1289 9.3516 0.52734 12.715 1.7305 1.5938 3.9141 2.3789 6.0938 2.3789 2.4258 0 4.8477-0.98047 6.6211-2.9062 34.918-37.93 83.047-69.582 95.504-77.496 25.781 5.9805 52.207 16.66 78.105 30.066-109.91 36.551-221.61 130.14-248.03 153.17-10.191-8.6328-31.535-30.215-34.262-61.406-2.707-30.895 13.246-63.738 47.016-97.664 0.44531-0.25391 0.92578-0.41797 1.3359-0.75781 9.8711-8.1797 39.133-30.23 55.699-33.992 4.8516-1.1016 7.8867-5.9219 6.7852-10.77-1.1016-4.8477-5.8984-7.8828-10.77-6.7852-14.402 3.2734-33.094 15.219-46.484 24.855 1.0664-18.441 8.6523-50.641 44.844-76.863 0.48828-0.42578 47.109-39.965 131.41-56.969-5.6797 13.801-8.7969 23.773-9.1797 25.023-1.457 4.7539 1.2109 9.7852 5.9648 11.238 4.7539 1.4883 9.7852-1.207 11.238-5.9648 0.28125-0.91016 28.441-91.219 74.266-110.1 12.551-5.168 25.082-4.2344 38.145 2.7461 2.0703 1.1758 206.77 119.23 182.08 358.68z"/>
 <path d="m795.3 404.88c0.13672 4.8828 4.1367 8.7461 8.9883 8.7461 0.085937 0 0.17188 0 0.25781-0.007813 4.9688-0.13672 8.8828-4.2773 8.7422-9.2461-1.0742-38.824-36.672-89.105-38.191-91.227-2.8945-4.0391-8.5039-4.9805-12.559-2.0898-4.043 2.8906-4.9805 8.5078-2.0898 12.555 0.33984 0.48047 33.922 47.871 34.852 81.27z"/>
 <path d="m635.35 768.72c-4.6094 4.3125-18.547 8.6758-36.238 8.6758-20.461 0-34.133-5.625-36.93-9.4258-2.9531-3.9961-8.582-4.8516-12.586-1.9102-4.0039 2.9492-4.8594 8.582-1.9102 12.586 9.1016 12.352 32.531 16.754 51.426 16.754 21.008 0 39.605-5.1836 48.535-13.527 3.6328-3.3906 3.8203-9.0859 0.42578-12.723-3.3945-3.6289-9.0898-3.8281-12.723-0.42969z"/>
 <path d="m593.77 630.38c0-49.68-40.418-90.102-90.102-90.102-49.676 0-90.094 40.418-90.094 90.102 0 49.68 40.418 90.102 90.094 90.102 49.684 0 90.102-40.418 90.102-90.102zm-90.102 72.102c-39.75 0-72.094-32.344-72.094-72.102 0-39.758 32.344-72.102 72.094-72.102 39.758 0 72.102 32.344 72.102 72.102 0 39.758-32.344 72.102-72.102 72.102z"/>
 <path d="m467.14 614.16c1.7734 1.8906 4.1719 2.8477 6.5703 2.8477 2.207 0 4.418-0.80859 6.1523-2.4297 3.6289-3.4023 3.8164-9.1016 0.41797-12.723l-5.0898-5.4297c-3.4102-3.6406-9.1055-3.7969-12.723-0.41797-3.6289 3.4023-3.8164 9.1016-0.41797 12.723z"/>
 <path d="m517.32 602.58v-11.539c0-4.9688-4.0312-9-9-9s-9 4.0312-9 9v11.539c0 4.9688 4.0312 9 9 9s9-4.0312 9-9z"/>
 <path d="m535.44 602.88-7.125 5.4297c-3.9531 3.0156-4.7148 8.668-1.7031 12.613 1.7734 2.3281 4.4531 3.5469 7.168 3.5469 1.9023 0 3.8203-0.59766 5.4492-1.8398l7.125-5.4297c3.9531-3.0156 4.7148-8.668 1.7031-12.613-3.0195-3.957-8.6719-4.7188-12.617-1.707z"/>
 <path d="m478.98 639.47c0-4.9688-4.0312-9-9-9h-7.125c-4.9688 0-9 4.0312-9 9s4.0312 9 9 9h7.125c4.9688 0 9-4.0312 9-9z"/>
 <path d="m479.22 656.28-3.3906 3.3906c-3.5156 3.5156-3.5156 9.2109 0 12.727 1.7578 1.7578 4.0586 2.6367 6.3633 2.6367 2.3008 0 4.6055-0.87891 6.3633-2.6367l3.3906-3.3906c3.5156-3.5156 3.5156-9.2109 0-12.727s-9.2109-3.5156-12.727 0z"/>
 <path d="m510.01 653.53c-4.8828 0.92969-8.0859 5.6484-7.1523 10.527l1.3594 7.125c0.82812 4.3125 4.6016 7.3125 8.8281 7.3125 0.5625 0 1.1328-0.050782 1.6992-0.16016 4.8828-0.92969 8.0859-5.6484 7.1523-10.527l-1.3594-7.125c-0.9375-4.8867-5.6758-8.0547-10.527-7.1523z"/>
 <path d="m537.84 636.25c-3.9883-2.9648-9.6211-2.1484-12.59 1.8477-2.9727 3.9883-2.1406 9.6289 1.8477 12.59l6.6133 4.9219c1.6172 1.2031 3.4961 1.7812 5.3672 1.7812 2.7461 0 5.4609-1.2539 7.2266-3.6289 2.9727-3.9883 2.1406-9.6289-1.8477-12.59z"/>
 <path d="m704.94 540.28c-49.68 0-90.102 40.418-90.102 90.102 0 49.68 40.418 90.102 90.102 90.102 49.676 0 90.094-40.418 90.094-90.102 0-49.684-40.418-90.102-90.094-90.102zm0 162.2c-39.758 0-72.102-32.344-72.102-72.102 0-39.758 32.344-72.102 72.102-72.102 39.75 0 72.094 32.344 72.094 72.102 0 39.758-32.344 72.102-72.094 72.102z"/>
 <path d="m668.41 614.16c1.7734 1.8906 4.1719 2.8477 6.5703 2.8477 2.207 0 4.418-0.80859 6.1523-2.4297 3.6289-3.4023 3.8164-9.1016 0.41797-12.723l-5.0898-5.4297c-3.4102-3.6406-9.1016-3.7969-12.723-0.41797-3.6289 3.4023-3.8164 9.1016-0.41797 12.723z"/>
 <path d="m718.59 602.58v-11.539c0-4.9688-4.0312-9-9-9s-9 4.0312-9 9v11.539c0 4.9688 4.0312 9 9 9s9-4.0312 9-9z"/>
 <path d="m736.71 602.88-7.125 5.4297c-3.9531 3.0156-4.7148 8.668-1.7031 12.613 1.7734 2.3281 4.4531 3.5469 7.168 3.5469 1.9023 0 3.8203-0.59766 5.4492-1.8398l7.125-5.4297c3.9531-3.0156 4.7148-8.668 1.7031-12.613-3.0234-3.957-8.6602-4.7188-12.617-1.707z"/>
 <path d="m680.24 639.47c0-4.9688-4.0312-9-9-9h-7.125c-4.9688 0-9 4.0312-9 9s4.0312 9 9 9h7.125c4.9688 0 9-4.0312 9-9z"/>
 <path d="m680.5 656.27-3.3984 3.3906c-3.5195 3.5117-3.5195 9.2109-0.011718 12.727 1.7578 1.7656 4.0586 2.6406 6.3672 2.6406 2.3008 0 4.6016-0.87891 6.3594-2.6328l3.3984-3.3906c3.5195-3.5117 3.5195-9.2109 0.011718-12.727-3.5156-3.5195-9.2109-3.5195-12.727-0.007812z"/>
 <path d="m711.28 653.53c-4.8828 0.92578-8.0859 5.6367-7.1602 10.523l1.3555 7.125c0.82031 4.3125 4.5938 7.3203 8.8281 7.3203 0.55469 0 1.125-0.050781 1.6953-0.16016 4.8828-0.92578 8.0859-5.6367 7.1602-10.523l-1.3555-7.125c-0.92969-4.8828-5.6289-8.0586-10.523-7.1602z"/>
 <path d="m739.1 636.25c-3.9844-2.957-9.6133-2.1445-12.59 1.8594-2.9648 3.9844-2.1328 9.6289 1.8594 12.59l6.6211 4.9219c1.6094 1.1953 3.4922 1.7734 5.3594 1.7734 2.7461 0 5.4609-1.2539 7.2305-3.6328 2.9648-3.9844 2.1328-9.6289-1.8594-12.59z"/>
</svg>
