<?xml version="1.0" encoding="UTF-8"?>
<svg width="1200pt" height="1200pt" version="1.1" viewBox="0 0 1200 1200" xmlns="http://www.w3.org/2000/svg">
 <path d="m1047 385.4c-85.594-68.672-163.74-146.81-232.4-232.4-50.391-62.812-127.78-102.98-214.6-102.98-86.766 0-164.21 40.219-214.6 102.98-68.672 85.594-146.81 163.74-232.4 232.4-62.812 50.391-102.98 127.78-102.98 214.6 0 86.766 40.219 164.21 102.98 214.6 85.594 68.672 163.74 146.81 232.4 232.4 50.391 62.812 127.78 102.98 214.6 102.98 86.766 0 164.21-40.219 214.6-102.98 68.672-85.594 146.81-163.74 232.4-232.4 62.812-50.391 102.98-127.78 102.98-214.6 0-86.766-40.219-164.21-102.98-214.6z"/>
</svg>
