<?xml version="1.0" encoding="UTF-8"?>
<svg width="1200pt" height="1200pt" version="1.1" viewBox="0 0 1200 1200" xmlns="http://www.w3.org/2000/svg">
 <path d="m905.45 522.5c-72.102 0-136.71 13.23-187.77 28.754 47.078-25.129 102.12-61.461 153.1-112.44 68.164-68.164 98.891-147.96 68.625-178.22s-110.06 0.45703-178.22 68.621c-50.98 50.98-87.312 106.02-112.44 153.1 15.52-51.055 28.754-115.67 28.754-187.77 0-96.402-34.699-174.55-77.5-174.55s-77.5 78.145-77.5 174.55c0 72.098 13.23 136.71 28.754 187.77-25.129-47.078-61.461-102.12-112.44-153.1-68.164-68.164-147.96-98.887-178.22-68.621s0.45703 110.06 68.625 178.22c50.98 50.98 106.02 87.316 153.1 112.44-51.059-15.523-115.67-28.754-187.77-28.754-96.402 0-174.55 34.699-174.55 77.5s78.145 77.5 174.55 77.5c72.098 0 136.71-13.23 187.77-28.75-47.078 25.129-102.12 61.461-153.1 112.44-68.164 68.164-98.891 147.96-68.625 178.22 30.266 30.266 110.06-0.45703 178.22-68.621 50.98-50.98 87.312-106.02 112.44-153.1-15.52 51.055-28.754 115.67-28.754 187.77 0.003906 96.398 34.703 174.54 77.504 174.54s77.5-78.145 77.5-174.55c0-72.098-13.23-136.71-28.754-187.77 25.129 47.078 61.461 102.12 112.44 153.1 68.164 68.164 147.96 98.887 178.22 68.621s-0.45703-110.06-68.625-178.22c-50.98-50.98-106.02-87.312-153.1-112.44 51.059 15.52 115.67 28.75 187.77 28.75 96.406 0.003906 174.55-34.695 174.55-77.496s-78.145-77.5-174.55-77.5zm-305.45 141.12c-35.141 0-63.625-28.484-63.625-63.625s28.484-63.625 63.625-63.625 63.625 28.484 63.625 63.625c0 35.137-28.484 63.625-63.625 63.625z"/>
</svg>
