<?xml version="1.0" encoding="UTF-8"?>
<svg width="1200pt" height="1200pt" version="1.1" viewBox="0 0 1200 1200" xmlns="http://www.w3.org/2000/svg">
 <path d="m476.89 136.01c33.465 59.785 12.824 135.52-46.691 169.89-59.496 34.348-135.37 14.379-170.43-44.441-58.004 58.289-101.05 131.42-123.12 213.17 68.488 0.92578 123.74 56.664 123.74 125.38s-55.254 124.45-123.75 125.38c22.07 81.75 65.113 154.88 123.12 213.17 35.062-58.824 110.94-78.793 170.43-44.441 59.516 34.363 80.156 110.1 46.691 169.89 39.301 10.398 80.547 16.004 123.11 16.004s83.812-5.6055 123.11-16.004c-33.465-59.785-12.824-135.53 46.691-169.89 59.496-34.348 135.37-14.379 170.43 44.441 58.004-58.289 101.05-131.42 123.12-213.17-68.488-0.93359-123.74-56.672-123.74-125.38s55.254-124.45 123.75-125.38c-22.07-81.75-65.113-154.88-123.12-213.17-35.062 58.824-110.94 78.793-170.43 44.441-59.516-34.363-80.156-110.1-46.691-169.89-39.301-10.402-80.547-16.008-123.11-16.008s-83.812 5.6055-123.11 16.008z"/>
</svg>
