<?xml version="1.0" encoding="UTF-8"?>
<svg width="1200pt" height="1200pt" version="1.1" viewBox="0 0 1200 1200" xmlns="http://www.w3.org/2000/svg">
 <path d="m865.84 385.84c-21.098 0-41.395 3.2344-60.629 8.9414 5.7109-19.234 8.9414-39.531 8.9414-60.629 0-118.28-95.883-214.16-214.16-214.16s-214.16 95.879-214.16 214.16c0 21.098 3.2344 41.395 8.9414 60.629-19.234-5.707-39.531-8.9414-60.629-8.9414-118.27 0-214.16 95.883-214.16 214.16s95.883 214.16 214.16 214.16c21.098 0 41.395-3.2344 60.629-8.9414-5.7109 19.234-8.9414 39.531-8.9414 60.629 0 118.27 95.883 214.16 214.16 214.16s214.16-95.883 214.16-214.16c0-21.098-3.2344-41.395-8.9414-60.629 19.234 5.707 39.531 8.9414 60.629 8.9414 118.28 0 214.16-95.883 214.16-214.16s-95.879-214.16-214.16-214.16z"/>
</svg>
