<?xml version="1.0" encoding="UTF-8"?>
<svg width="1200pt" height="1200pt" version="1.1" viewBox="0 0 1200 1200" xmlns="http://www.w3.org/2000/svg">
 <path d="m184.31 840c21.402 37.066 106.43 28.043 189.91-20.156 144.38-83.359 218.88-207.95 225.28-218.97-6.3438 11.051-76.996 137.86-76.996 304.58 0 96.398 34.699 174.54 77.5 174.54s77.5-78.145 77.5-174.55c0-166.71-70.652-293.53-76.996-304.58 6.3984 11.016 80.895 135.61 225.28 218.97 83.484 48.203 168.51 57.227 189.91 20.16 21.402-37.066-28.926-106.19-112.41-154.39-144.41-83.375-289.6-85.578-302.28-85.609 12.684-0.03125 157.87-2.2344 302.28-85.609 83.484-48.203 133.81-117.32 112.41-154.39s-106.43-28.043-189.91 20.156c-144.38 83.359-218.88 207.95-225.28 218.97 6.3438-11.051 76.996-137.86 76.996-304.58 0-96.398-34.699-174.54-77.5-174.54s-77.5 78.145-77.5 174.55c0 166.71 70.652 293.53 76.996 304.58-6.3984-11.016-80.895-135.61-225.28-218.97-83.484-48.203-168.51-57.227-189.91-20.16-21.402 37.066 28.926 106.19 112.41 154.39 144.41 83.375 289.6 85.578 302.28 85.609-12.684 0.03125-157.87 2.2344-302.28 85.609-83.484 48.199-133.81 117.32-112.41 154.39z"/>
</svg>
