<?xml version="1.0" encoding="UTF-8"?>
<svg width="1200pt" height="1200pt" version="1.1" viewBox="0 0 1200 1200" xmlns="http://www.w3.org/2000/svg">
 <path d="m537.52 275.02c0-34.5 27.984-62.484 62.484-62.484s62.484 27.984 62.484 62.484-27.984 62.484-62.484 62.484-62.484-27.984-62.484-62.484zm62.484-125.02c27.609 0 50.016-22.406 50.016-50.016s-22.406-50.016-50.016-50.016-50.016 22.406-50.016 50.016 22.406 50.016 50.016 50.016zm-225 60.281c23.906-13.828 32.109-44.391 18.281-68.297s-44.391-32.109-68.297-18.281-32.109 44.391-18.281 68.297 44.391 32.109 68.297 18.281zm8.3906 139.5c17.25 29.906 55.5 40.125 85.359 22.875 29.906-17.25 40.125-55.5 22.875-85.359-17.25-29.906-55.5-40.125-85.359-22.875-29.906 17.25-40.125 55.5-22.875 85.359zm-241.4 43.5c23.906 13.828 54.516 5.625 68.297-18.281 13.828-23.906 5.625-54.516-18.281-68.297-23.906-13.828-54.516-5.625-68.297 18.281-13.828 23.906-5.625 54.516 18.281 68.297zm145.31 98.344c29.906 17.25 68.109 7.0312 85.359-22.875s7.0312-68.109-22.875-85.359-68.109-7.0312-85.359 22.875-7.0312 68.109 22.875 85.359zm50.203 108.38c0-34.5-27.984-62.484-62.484-62.484s-62.484 27.984-62.484 62.484 27.984 62.484 62.484 62.484 62.484-27.984 62.484-62.484zm-187.5 0c0-27.609-22.406-50.016-50.016-50.016s-50.016 22.406-50.016 50.016 22.406 50.016 50.016 50.016 50.016-22.406 50.016-50.016zm-8.0156 206.72c-23.906 13.828-32.109 44.391-18.281 68.297s44.391 32.109 68.297 18.281 32.109-44.391 18.281-68.297-44.391-32.109-68.297-18.281zm207.79 9.8906c29.906-17.25 40.125-55.5 22.875-85.359-17.25-29.906-55.5-40.125-85.359-22.875-29.906 17.25-40.125 55.5-22.875 85.359 17.25 29.906 55.5 40.125 85.359 22.875zm25.219 173.11c-23.906-13.828-54.516-5.625-68.297 18.281-13.828 23.906-5.625 54.516 18.281 68.297 23.906 13.828 54.516 5.625 68.297-18.281 13.828-23.906 5.625-54.516-18.281-68.297zm93.75-162.37c-29.906-17.25-68.109-7.0312-85.359 22.875s-7.0312 68.109 22.875 85.359 68.109 7.0312 85.359-22.875 7.0312-68.109-22.875-85.359zm131.26 222.66c-27.609 0-50.016 22.406-50.016 50.016s22.406 50.016 50.016 50.016 50.016-22.406 50.016-50.016-22.406-50.016-50.016-50.016zm0-187.5c-34.5 0-62.484 27.984-62.484 62.484s27.984 62.484 62.484 62.484 62.484-27.984 62.484-62.484-27.984-62.484-62.484-62.484zm216.61-12.281c-17.25-29.906-55.5-40.125-85.359-22.875-29.906 17.25-40.125 55.5-22.875 85.359 17.25 29.906 55.5 40.125 85.359 22.875 29.906-17.25 40.125-55.5 22.875-85.359zm8.3906 139.5c-23.906 13.828-32.109 44.391-18.281 68.297 13.828 23.906 44.391 32.109 68.297 18.281s32.109-44.391 18.281-68.297c-13.828-23.906-44.391-32.109-68.297-18.281zm233.02-183c-23.906-13.828-54.516-5.625-68.297 18.281-13.828 23.906-5.625 54.516 18.281 68.297 23.906 13.828 54.516 5.625 68.297-18.281 13.828-23.906 5.625-54.516-18.281-68.297zm-145.31-98.344c-29.906-17.25-68.109-7.0312-85.359 22.875s-7.0312 68.109 22.875 85.359 68.109 7.0312 85.359-22.875 7.0312-68.109-22.875-85.359zm12.281-170.86c-34.5 0-62.484 27.984-62.484 62.484s27.984 62.484 62.484 62.484 62.484-27.984 62.484-62.484-27.984-62.484-62.484-62.484zm175.03 12.469c-27.609 0-50.016 22.406-50.016 50.016s22.406 50.016 50.016 50.016 50.016-22.406 50.016-50.016-22.406-50.016-50.016-50.016zm-249.79-166.6c-29.906 17.25-40.125 55.5-22.875 85.359 17.25 29.906 55.5 40.125 85.359 22.875 29.906-17.25 40.125-55.5 22.875-85.359-17.25-29.906-55.5-40.125-85.359-22.875zm207.79 9.8906c23.906-13.828 32.109-44.391 18.281-68.297s-44.391-32.109-68.297-18.281-32.109 44.391-18.281 68.297 44.391 32.109 68.297 18.281zm-233.02-183c23.906 13.828 54.516 5.625 68.297-18.281 13.828-23.906 5.625-54.516-18.281-68.297-23.906-13.828-54.516-5.625-68.297 18.281-13.828 23.906-5.625 54.516 18.281 68.297zm-93.75 162.37c29.906 17.25 68.109 7.0312 85.359-22.875s7.0312-68.109-22.875-85.359-68.109-7.0312-85.359 22.875-7.0312 68.109 22.875 85.359zm-131.26 52.359c-96.656 0-174.98 78.328-174.98 174.98s78.328 174.98 174.98 174.98 174.98-78.328 174.98-174.98-78.328-174.98-174.98-174.98z"/>
</svg>
