<?xml version="1.0" encoding="UTF-8"?>
<svg width="1200pt" height="1200pt" version="1.1" viewBox="0 0 1200 1200" xmlns="http://www.w3.org/2000/svg">
 <path d="m316.47 973.91c59.09 11.059 128.76-5.7812 184.77 12.102 61.277 19.562 115.41 58.508 178.24 76.73 100.33 29.102 213.79 24.52 300.49-38.004 82.824-59.727 120.98-162.31 88.484-259.96-15.988-48.059-45.566-79.449-81.754-113.7-48.152-45.578-50.363-92.234-44.996-155.55 8.957-105.59 21.254-217.34-65.371-297.33-74.695-68.973-197.24-96.133-294.7-66.012-120.11 37.121-168.86 156.02-187.57 268.3-8.2461 49.48-9.3594 105.76-58.664 131.2-31.938 16.477-215.39 68.328-215.32 238.01 0.046876 109.71 95.961 185.44 196.4 204.23z"/>
</svg>
