<?xml version="1.0" encoding="UTF-8"?>
<svg width="1200pt" height="1200pt" version="1.1" viewBox="0 0 1200 1200" xmlns="http://www.w3.org/2000/svg">
 <path d="m905.45 522.5c-5.7852 0-11.516 0.097656-17.203 0.26172 5.0078-2.6992 10.016-5.4805 15.027-8.375 83.488-48.199 133.82-117.32 112.41-154.39s-106.43-28.043-189.91 20.156c-5.0117 2.8945-9.9258 5.8398-14.766 8.8281 2.9844-4.8438 5.9336-9.7578 8.8281-14.766 48.199-83.484 57.223-168.51 20.156-189.91-37.066-21.402-106.19 28.926-154.39 112.41-2.8945 5.0117-5.6758 10.02-8.375 15.027 0.16406-5.6875 0.26172-11.418 0.26172-17.203 0.003906-96.398-34.695-174.54-77.496-174.54s-77.5 78.145-77.5 174.55c0 5.7852 0.097656 11.516 0.26172 17.203-2.6992-5.0078-5.4805-10.016-8.375-15.027-48.195-83.488-117.32-133.82-154.39-112.41s-28.043 106.43 20.156 189.91c2.8945 5.0117 5.8398 9.9258 8.8281 14.766-4.8438-2.9844-9.7578-5.9336-14.766-8.8281-83.484-48.199-168.51-57.223-189.91-20.156-21.402 37.066 28.926 106.19 112.41 154.39 5.0117 2.8945 10.02 5.6758 15.027 8.375-5.6875-0.16406-11.418-0.26172-17.203-0.26172-96.398-0.003906-174.54 34.695-174.54 77.496s78.145 77.5 174.55 77.5c5.7852 0 11.516-0.097656 17.203-0.26172-5.0078 2.7031-10.02 5.4805-15.027 8.375-83.488 48.195-133.82 117.32-112.41 154.39s106.43 28.043 189.91-20.156c5.0117-2.8945 9.9258-5.8398 14.766-8.8281-2.9844 4.8438-5.9336 9.7578-8.8281 14.766-48.199 83.484-57.223 168.51-20.156 189.91 37.066 21.402 106.19-28.926 154.39-112.41 2.8945-5.0117 5.6758-10.02 8.375-15.027-0.16406 5.6875-0.26172 11.418-0.26172 17.203-0.003906 96.398 34.695 174.54 77.496 174.54s77.5-78.145 77.5-174.55c0-5.7852-0.097656-11.516-0.26172-17.203 2.6992 5.0078 5.4805 10.016 8.375 15.027 48.195 83.488 117.32 133.82 154.39 112.41s28.043-106.43-20.156-189.91c-2.8945-5.0117-5.8398-9.9219-8.8281-14.766 4.8438 2.9844 9.7578 5.9336 14.766 8.8281 83.484 48.199 168.51 57.223 189.91 20.156 21.402-37.066-28.926-106.19-112.41-154.39-5.0117-2.8945-10.023-5.6758-15.027-8.375 5.6875 0.16406 11.418 0.26172 17.203 0.26172 96.398 0.003906 174.54-34.695 174.54-77.496s-78.145-77.5-174.55-77.5z"/>
</svg>
