<?xml version="1.0" encoding="UTF-8"?>
<svg width="1200pt" height="1200pt" version="1.1" viewBox="0 0 1200 1200" xmlns="http://www.w3.org/2000/svg">
 <path d="m1150 827.81v141.42l-180.74 180.74h-141.42l322.18-322.18zm-1100 251.48v70.734h70.734l1029.2-1029.3v-70.734h-70.734zm39.328-1029.3h-39.328v39.328zm455.63 1100h141.42l463.6-463.6v-141.42zm565.69 0h39.328v-39.328zm-848.53 0h141.42l746.44-746.44v-141.42zm-212.11-636.37v141.42l605.02-605.02h-141.42l-463.6 463.6zm0-282.84v141.42l322.18-322.18h-141.42zm0 565.69v141.42l887.86-887.86h-141.42l-746.44 746.44z"/>
</svg>
