<?xml version="1.0" encoding="UTF-8"?>
<svg width="1200pt" height="1200pt" version="1.1" viewBox="0 0 1200 1200" xmlns="http://www.w3.org/2000/svg">
 <path d="m600 0h-600v600c0 159.13 63.215 311.74 175.73 424.27 112.52 112.52 265.14 175.73 424.27 175.73s311.74-63.215 424.27-175.73c112.52-112.52 175.73-265.14 175.73-424.27s-63.215-311.74-175.73-424.27c-112.52-112.52-265.14-175.73-424.27-175.73zm406.61 600c-0.13281 107.8-43.016 211.14-119.24 287.37-76.227 76.223-179.57 119.11-287.37 119.24v-43.453c96.273-0.13281 188.57-38.438 256.64-106.51 68.074-68.078 106.38-160.37 106.51-256.64zm-118.48 0c-0.066406 76.395-30.441 149.64-84.461 203.66-54.023 54.02-127.27 84.395-203.66 84.461v-287.62zm-588.12-85.77c-56.953 0-111.57-22.621-151.84-62.895-40.27-40.27-62.895-94.891-62.895-151.84 0-56.953 22.625-111.57 62.895-151.84 40.273-40.27 94.891-62.895 151.84-62.895s111.57 22.625 151.84 62.895c40.27 40.273 62.895 94.891 62.895 151.84 0 56.949-22.625 111.57-62.895 151.84-40.273 40.273-94.891 62.895-151.84 62.895zm300 610.74v-43.328c127.69-0.16406 250.1-50.965 340.39-141.25 90.289-90.289 141.09-212.7 141.25-340.39h43.328c-0.13281 139.19-55.484 272.64-153.91 371.06s-231.88 153.77-371.06 153.91z"/>
</svg>
