<?xml version="1.0" encoding="UTF-8"?>
<svg width="1200pt" height="1200pt" version="1.1" viewBox="0 0 1200 1200" xmlns="http://www.w3.org/2000/svg">
 <path d="m1080 600c0-23.164-8.8477-44.207-23.246-60.133 9.7891-19.109 12.887-41.727 6.8906-64.102-5.9961-22.375-19.984-40.41-38.02-52.066 4.5078-20.992 1.6484-43.641-9.9336-63.699-11.582-20.059-29.762-33.859-50.199-40.453-1.0781-21.445-9.7031-42.582-26.082-58.961-16.379-16.379-37.516-25.004-58.961-26.082-6.5898-20.434-20.391-38.617-40.449-50.195-20.059-11.582-42.707-14.441-63.699-9.9336-11.656-18.031-29.691-32.023-52.066-38.02-22.375-5.9961-44.992-2.8984-64.102 6.8906-15.926-14.398-36.969-23.246-60.133-23.246s-44.207 8.8477-60.133 23.246c-19.109-9.7891-41.727-12.887-64.102-6.8906-22.375 5.9961-40.41 19.984-52.066 38.02-20.992-4.5078-43.641-1.6484-63.699 9.9336-20.059 11.582-33.859 29.766-40.453 50.199-21.445 1.0781-42.582 9.7031-58.961 26.082-16.379 16.379-25.004 37.516-26.082 58.961-20.434 6.5898-38.613 20.391-50.195 40.449-11.582 20.059-14.441 42.707-9.9336 63.699-18.031 11.656-32.023 29.691-38.02 52.066-5.9961 22.375-2.8984 44.992 6.8906 64.102-14.398 15.926-23.246 36.969-23.246 60.133s8.8477 44.207 23.246 60.133c-9.7891 19.109-12.887 41.727-6.8906 64.102 5.9961 22.375 19.984 40.41 38.02 52.066-4.5078 20.992-1.6484 43.641 9.9336 63.699 11.582 20.059 29.766 33.859 50.199 40.453 1.0781 21.445 9.7031 42.578 26.082 58.957s37.516 25.004 58.961 26.082c6.5898 20.434 20.391 38.617 40.449 50.199 20.059 11.582 42.707 14.441 63.699 9.9336 11.656 18.031 29.691 32.023 52.066 38.02 22.375 5.9961 44.992 2.8984 64.102-6.8906 15.926 14.398 36.969 23.246 60.133 23.246s44.207-8.8477 60.133-23.246c19.109 9.7891 41.727 12.887 64.102 6.8906 22.375-5.9961 40.41-19.984 52.066-38.02 20.992 4.5078 43.641 1.6484 63.699-9.9336 20.059-11.582 33.859-29.766 40.453-50.199 21.445-1.0781 42.582-9.7031 58.961-26.082 16.379-16.379 25.004-37.516 26.082-58.957 20.43-6.5938 38.613-20.395 50.195-40.453 11.582-20.059 14.441-42.707 9.9336-63.699 18.031-11.656 32.023-29.691 38.02-52.066 5.9961-22.375 2.8984-44.988-6.8906-64.102 14.398-15.926 23.246-36.969 23.246-60.133z"/>
</svg>
