<?xml version="1.0" encoding="UTF-8"?>
<svg width="1200pt" height="1200pt" version="1.1" viewBox="0 0 1200 1200" xmlns="http://www.w3.org/2000/svg">
 <path d="m1012.5 464.06c0-227.44-185.06-412.5-412.5-412.5s-412.5 185.06-412.5 412.5c0 47.625 8.2031 93.328 23.109 135.94-14.906 42.609-23.109 88.312-23.109 135.94 0 227.44 185.06 412.5 412.5 412.5s412.5-185.06 412.5-412.5c0-47.625-8.2031-93.328-23.109-135.94 14.906-42.609 23.109-88.312 23.109-135.94zm-412.5 584.39c-172.31 0-312.52-140.21-312.52-312.52 0-0.98438 0.046875-1.9688 0.09375-3 75.703 87.844 187.64 143.63 312.42 143.63s236.72-55.781 312.42-143.63c0 0.98438 0.09375 1.9688 0.09375 3 0 172.31-140.21 312.52-312.52 312.52zm-281.34-448.45c50.672-104.39 157.74-176.58 281.34-176.58s230.68 72.141 281.34 176.58c-50.672 104.39-157.74 176.58-281.34 176.58s-230.68-72.141-281.34-176.58zm593.76-132.94c-75.703-87.844-187.64-143.63-312.42-143.63s-236.72 55.781-312.42 143.63c0-0.98438-0.09375-1.9688-0.09375-3 0-172.31 140.21-312.52 312.52-312.52s312.52 140.21 312.52 312.52c0 0.98438-0.046875 1.9688-0.09375 3z"/>
</svg>
