<?xml version="1.0" encoding="UTF-8"?>
<svg width="1200pt" height="1200pt" version="1.1" viewBox="0 0 1200 1200" xmlns="http://www.w3.org/2000/svg">
 <path d="m99.984 1150h-50.016l0.046875-1100h50.016v1100zm75-1100h-50.016v1100h50.016zm75 0h-50.016v1100h50.016zm75 0h-50.016v1100h50.016zm75 0h-50.016v1100h50.016zm75 0h-50.016v1100h50.016zm75 0h-50.016v1100h50.016zm75 0h-50.016v1100h50.016zm75 0h-50.016v1100h50.016zm75 0h-50.016v1100h50.016zm75 0h-50.016v1100h50.016zm75 0h-50.016v1100h50.016zm75 0h-50.016v1100h50.016zm75 0h-50.016v1100h50.016zm75 0h-50.016v1100h50.016z"/>
</svg>
