<?xml version="1.0" encoding="UTF-8"?>
<svg width="1200pt" height="1200pt" version="1.1" viewBox="0 0 1200 1200" xmlns="http://www.w3.org/2000/svg">
 <path d="m1177.2 785.2c63.406 153.07-9.2852 328.56-162.36 391.97-153.07 63.402-328.57-9.2852-391.97-162.36-63.402-153.07 9.2891-328.57 162.36-391.97 153.07-63.406 328.57 9.2852 391.97 162.36z"/>
 <path d="m300 211.71c-23.449 0-45.941 9.3125-62.523 25.895-16.582 16.582-25.898 39.074-25.898 62.523 0 23.453 9.3164 45.941 25.898 62.523 16.582 16.582 39.074 25.898 62.523 25.898s45.941-9.3164 62.523-25.898c16.582-16.582 25.898-39.07 25.898-62.523 0-23.449-9.3164-45.941-25.898-62.523-16.582-16.582-39.074-25.895-62.523-25.895zm0 105.98v-0.003906c-4.6914 0-9.1875-1.8633-12.504-5.1797s-5.1797-7.8125-5.1797-12.504 1.8633-9.1875 5.1797-12.504 7.8125-5.1797 12.504-5.1797 9.1875 1.8633 12.504 5.1797 5.1797 7.8125 5.1797 12.504-1.8633 9.1875-5.1797 12.504-7.8125 5.1797-12.504 5.1797z"/>
 <path d="m300 105.85c-51.492 0-100.88 20.457-137.28 56.867-36.41 36.406-56.867 85.789-56.867 137.28s20.457 100.88 56.867 137.28c36.406 36.41 85.789 56.867 137.28 56.867s100.88-20.457 137.28-56.867c36.41-36.406 56.867-85.789 56.867-137.28-0.066407-51.469-20.543-100.81-56.938-137.21-36.398-36.395-85.742-56.871-137.21-56.938zm0 317.68c-32.766 0-64.188-13.016-87.355-36.18-23.164-23.168-36.18-54.59-36.18-87.355s13.016-64.188 36.18-87.355c23.168-23.164 54.59-36.18 87.355-36.18s64.188 13.016 87.355 36.18c23.164 23.168 36.18 54.59 36.18 87.355-0.03125 32.754-13.059 64.156-36.219 87.316s-54.562 36.188-87.316 36.219z"/>
 <path d="m600 300c0-79.566-31.605-155.87-87.867-212.13-56.262-56.262-132.57-87.867-212.13-87.867s-155.87 31.605-212.13 87.867c-56.262 56.262-87.867 132.57-87.867 212.13s31.605 155.87 87.867 212.13c56.262 56.262 132.57 87.867 212.13 87.867 79.543-0.066406 155.81-31.695 212.06-87.941s87.875-132.52 87.941-212.06zm-300 229.39c-60.836 0-119.18-24.168-162.2-67.188s-67.188-101.37-67.188-162.2 24.168-119.18 67.188-162.2 101.37-67.188 162.2-67.188 119.18 24.168 162.2 67.188 67.188 101.37 67.188 162.2c-0.10156 60.809-24.301 119.09-67.297 162.09-43 42.996-101.29 67.195-162.09 67.297z"/>
 <path d="m1200 0h-600v600h600zm-300 514.23c-56.953 0-111.57-22.621-151.84-62.895-40.27-40.27-62.895-94.891-62.895-151.84 0-56.953 22.625-111.57 62.895-151.84 40.273-40.27 94.891-62.895 151.84-62.895s111.57 22.625 151.84 62.895c40.27 40.273 62.895 94.891 62.895 151.84 0 56.949-22.625 111.57-62.895 151.84-40.273 40.273-94.891 62.895-151.84 62.895z"/>
 <path d="m300 600h-300v600h600v-600z"/>
</svg>
