<?xml version="1.0" encoding="UTF-8"?>
<svg width="1200pt" height="1200pt" version="1.1" viewBox="0 0 1200 1200" xmlns="http://www.w3.org/2000/svg">
 <path d="m600 300c0 165.68-134.32 300-300 300s-300-134.32-300-300 134.32-300 300-300 300 134.32 300 300z"/>
 <path d="m1200 300c0 165.68-134.32 300-300 300s-300-134.32-300-300 134.32-300 300-300 300 134.32 300 300z"/>
 <path d="m900 600h-600c-79.566 0-155.87 31.605-212.13 87.867-56.262 56.262-87.867 132.57-87.867 212.13s31.605 155.87 87.867 212.13c56.262 56.262 132.57 87.867 212.13 87.867h600c79.566 0 155.87-31.605 212.13-87.867 56.262-56.262 87.867-132.57 87.867-212.13s-31.605-155.87-87.867-212.13c-56.262-56.262-132.57-87.867-212.13-87.867z"/>
</svg>
