<?xml version="1.0" encoding="UTF-8"?>
<svg width="1200pt" height="1200pt" version="1.1" viewBox="0 0 1200 1200" xmlns="http://www.w3.org/2000/svg">
 <path d="m1200 300c0 165.68-134.32 300-300 300s-300-134.32-300-300 134.32-300 300-300 300 134.32 300 300z"/>
 <path d="m300 600c-79.566 0-155.87 31.605-212.13 87.867-56.262 56.262-87.867 132.57-87.867 212.13s31.605 155.87 87.867 212.13c56.262 56.262 132.57 87.867 212.13 87.867s155.87-31.605 212.13-87.867c56.262-56.262 87.867-132.57 87.867-212.13s-31.605-155.87-87.867-212.13c-56.262-56.262-132.57-87.867-212.13-87.867z"/>
 <path d="m600 300v-300h-600v600h600zm-300 214.74c-56.953 0-111.57-22.625-151.84-62.895-40.27-40.273-62.895-94.891-62.895-151.84s22.625-111.57 62.895-151.84c40.273-40.27 94.891-62.895 151.84-62.895s111.57 22.625 151.84 62.895c40.27 40.273 62.895 94.891 62.895 151.84-0.13672 56.863-22.816 111.36-63.074 151.52-40.258 40.16-94.801 62.715-151.66 62.715z"/>
 <path d="m600 600v600h600v-600zm514.23 300c0 56.953-22.621 111.57-62.895 151.84-40.27 40.27-94.891 62.895-151.84 62.895-56.953 0-111.57-22.625-151.84-62.895-40.27-40.273-62.895-94.891-62.895-151.84s22.625-111.57 62.895-151.84c40.273-40.27 94.891-62.895 151.84-62.895 56.949 0 111.57 22.625 151.84 62.895 40.273 40.273 62.895 94.891 62.895 151.84z"/>
</svg>
