<?xml version="1.0" encoding="UTF-8"?>
<svg width="1200pt" height="1200pt" version="1.1" viewBox="0 0 1200 1200" xmlns="http://www.w3.org/2000/svg">
 <path d="m576 137.39v361.22c0 42.75-34.641 77.391-77.391 77.391h-361.22c-42.75 0-77.391-34.641-77.391-77.391v-361.22c0-42.75 34.641-77.391 77.391-77.391h361.22c42.75 0 77.391 34.641 77.391 77.391zm486.61-77.391h-361.22c-42.75 0-77.391 34.641-77.391 77.391v361.22c0 42.75 34.641 77.391 77.391 77.391h361.22c42.75 0 77.391-34.641 77.391-77.391v-361.22c0-42.75-34.641-77.391-77.391-77.391zm-564 564h-361.22c-42.75 0-77.391 34.641-77.391 77.391v361.22c0 42.75 34.641 77.391 77.391 77.391h361.22c42.75 0 77.391-34.641 77.391-77.391v-361.22c0-42.75-34.641-77.391-77.391-77.391zm564 0h-361.22c-42.75 0-77.391 34.641-77.391 77.391v361.22c0 42.75 34.641 77.391 77.391 77.391h361.22c42.75 0 77.391-34.641 77.391-77.391v-361.22c0-42.75-34.641-77.391-77.391-77.391z"/>
</svg>
