<?xml version="1.0" encoding="UTF-8"?>
<svg width="1200pt" height="1200pt" version="1.1" viewBox="0 0 1200 1200" xmlns="http://www.w3.org/2000/svg">
 <path d="m600 219.04c-121.98-63.152-260.36-99.043-407.2-99.043h-72.805v72.805c0 146.84 35.891 285.21 99.043 407.2-63.152 121.98-99.043 260.36-99.043 407.2v72.805h72.805c146.84 0 285.21-35.891 407.2-99.043 121.98 63.152 260.36 99.043 407.2 99.043h72.805v-72.805c0-146.84-35.891-285.21-99.043-407.2 63.152-121.98 99.043-260.36 99.043-407.2v-72.805h-72.805c-146.84 0-285.21 35.891-407.2 99.043z"/>
</svg>
