<?xml version="1.0" encoding="UTF-8"?>
<svg width="1200pt" height="1200pt" version="1.1" viewBox="0 0 1200 1200" xmlns="http://www.w3.org/2000/svg">
 <path d="m600 363.16c96.273-0.13281 188.57-38.438 256.64-106.51 68.074-68.078 106.38-160.37 106.51-256.64h-75.031c-0.066406 76.395-30.441 149.64-84.461 203.66-54.023 54.02-127.27 84.395-203.66 84.461-76.395-0.066406-149.64-30.441-203.66-84.461-54.02-54.023-84.395-127.27-84.461-203.66h-75.031c0.13281 96.273 38.438 188.57 106.51 256.64 68.078 68.074 160.37 106.38 256.64 106.51z"/>
 <path d="m600 481.64c127.69-0.16406 250.1-50.965 340.39-141.25 90.289-90.289 141.09-212.7 141.25-340.39h-75.031c-0.13281 107.8-43.016 211.14-119.24 287.37-76.227 76.223-179.57 119.11-287.37 119.24-107.8-0.13281-211.14-43.016-287.37-119.24-76.223-76.227-119.11-179.57-119.24-287.37h-75.031c0.16406 127.69 50.965 250.1 141.25 340.39 90.289 90.289 212.7 141.09 340.39 141.25z"/>
 <path d="m1200 0h-75.031c-0.13281 139.19-55.484 272.64-153.91 371.06s-231.88 153.77-371.06 153.91c-139.19-0.13281-272.64-55.484-371.06-153.91s-153.77-231.88-153.91-371.06h-75.031c0.19922 159.07 63.48 311.56 175.96 424.04 112.48 112.48 264.98 175.76 424.04 175.96 159.07-0.19922 311.56-63.48 424.04-175.96 112.48-112.48 175.76-264.98 175.96-424.04z"/>
 <path d="m600 600c-159.13 0-311.74 63.215-424.27 175.73-112.52 112.52-175.73 265.14-175.73 424.27h1200c0-159.13-63.215-311.74-175.73-424.27-112.52-112.52-265.14-175.73-424.27-175.73z"/>
</svg>
