<?xml version="1.0" encoding="UTF-8"?>
<svg width="1200pt" height="1200pt" version="1.1" viewBox="0 0 1200 1200" xmlns="http://www.w3.org/2000/svg">
 <path d="m851.21 371.21c-7.9844 0-15.871 0.42187-23.645 1.2188 0.79688-7.7734 1.2188-15.66 1.2188-23.645 0.003906-126.35-102.43-228.79-228.79-228.79s-228.79 102.43-228.79 228.79c0 7.9844 0.42187 15.871 1.2188 23.645-7.7734-0.79688-15.66-1.2188-23.645-1.2188-126.35-0.003906-228.79 102.43-228.79 228.79s102.43 228.79 228.79 228.79c7.9844 0 15.871-0.42187 23.645-1.2188-0.79688 7.7734-1.2188 15.66-1.2188 23.645-0.003906 126.35 102.43 228.79 228.79 228.79s228.79-102.43 228.79-228.79c0-7.9844-0.42187-15.871-1.2188-23.645 7.7734 0.79688 15.66 1.2188 23.645 1.2188 126.35 0.003906 228.79-102.43 228.79-228.79s-102.43-228.79-228.79-228.79zm-251.21 378.04c-82.43 0-149.25-66.824-149.25-149.25s66.824-149.25 149.25-149.25 149.25 66.824 149.25 149.25-66.824 149.25-149.25 149.25z"/>
</svg>
