<?xml version="1.0" encoding="UTF-8"?>
<svg width="1200pt" height="1200pt" version="1.1" viewBox="0 0 1200 1200" xmlns="http://www.w3.org/2000/svg">
 <path d="m732.66 467.34c201.52 201.52 305.44 424.26 232.18 497.53-73.266 73.266-296.02-30.656-497.53-232.18-201.47-201.52-305.44-424.26-232.13-497.53 73.266-73.266 296.02 30.656 497.53 232.18zm232.18-232.18c-137.34-137.39-282.14-215.34-323.39-174.14-41.203 41.203 36.75 186 174.14 323.39 137.39 137.39 282.19 215.34 323.39 174.14 41.203-41.203-36.75-186-174.14-323.39zm-903.79 406.26c-41.203 41.203 36.75 186 174.14 323.39 137.39 137.39 282.19 215.34 323.39 174.14 41.203-41.203-36.75-186-174.14-323.39-137.39-137.39-282.19-215.34-323.39-174.14z"/>
</svg>
