<?xml version="1.0" encoding="UTF-8"?>
<svg width="1200pt" height="1200pt" version="1.1" viewBox="0 0 1200 1200" xmlns="http://www.w3.org/2000/svg">
 <path d="m1015.7 360c-45.098-78.113-131.52-117.42-215.71-106.39-32.539-78.422-109.79-133.61-199.98-133.61s-167.45 55.188-199.98 133.61c-84.188-11.031-170.61 28.277-215.71 106.39-45.098 78.109-35.93 172.61 15.715 240-51.648 67.395-60.816 161.89-15.715 240 45.098 78.109 131.52 117.42 215.7 106.39 32.539 78.426 109.79 133.61 199.99 133.61s167.45-55.188 199.99-133.61c84.184 11.031 170.61-28.277 215.7-106.39s35.93-172.61-15.715-240c51.645-67.395 60.812-161.89 15.715-240z"/>
</svg>
