<?xml version="1.0" encoding="UTF-8"?>
<svg width="1200pt" height="1200pt" version="1.1" viewBox="0 0 1200 1200" xmlns="http://www.w3.org/2000/svg">
 <path d="m0 0v600h600c0-159.13-63.215-311.74-175.73-424.27-112.52-112.52-265.14-175.73-424.27-175.73z"/>
 <path d="m0 1200h600v-600c-159.13 0-311.74 63.215-424.27 175.73-112.52 112.52-175.73 265.14-175.73 424.27z"/>
 <path d="m1200 1200v-600h-600c0 159.13 63.215 311.74 175.73 424.27 112.52 112.52 265.14 175.73 424.27 175.73z"/>
 <path d="m1200 0h-600v600c105.32 0 208.79-27.723 300-80.383 91.211-52.664 166.95-128.41 219.62-219.62 52.66-91.211 80.383-194.68 80.383-300z"/>
</svg>
