<?xml version="1.0" encoding="UTF-8"?>
<svg width="1200pt" height="1200pt" version="1.1" viewBox="0 0 1200 1200" xmlns="http://www.w3.org/2000/svg">
 <path d="m674.36 145.74c74.02-57.809 182.8-12.75 194.27 80.469 6.7656 55.035 50.129 98.395 105.16 105.16 93.219 11.461 138.28 120.25 80.469 194.27-34.129 43.699-34.129 105.02 0 148.72 57.809 74.02 12.75 182.8-80.469 194.27-55.035 6.7656-98.395 50.129-105.16 105.16-11.461 93.219-120.25 138.28-194.27 80.469-43.699-34.129-105.02-34.129-148.72 0-74.02 57.809-182.8 12.75-194.27-80.469-6.7656-55.035-50.129-98.395-105.16-105.16-93.219-11.461-138.28-120.25-80.469-194.27 34.129-43.699 34.129-105.02 0-148.72-57.809-74.02-12.75-182.8 80.469-194.27 55.035-6.7656 98.395-50.129 105.16-105.16 11.461-93.219 120.25-138.28 194.27-80.469 43.703 34.129 105.02 34.129 148.72 0z"/>
</svg>
