<?xml version="1.0" encoding="UTF-8"?>
<svg width="1200pt" height="1200pt" version="1.1" viewBox="0 0 1200 1200" xmlns="http://www.w3.org/2000/svg">
 <path d="m1200 600v-600h-600c-159.13 0-311.74 63.215-424.27 175.73-112.52 112.52-175.73 265.14-175.73 424.27v600h600c105.32 0 208.79-27.723 300-80.383 91.211-52.664 166.95-128.41 219.62-219.62 52.66-91.211 80.383-194.68 80.383-300zm-300-514.23c56.953 0 111.57 22.621 151.84 62.895 40.27 40.27 62.895 94.891 62.895 151.84 0 56.953-22.625 111.57-62.895 151.84-40.273 40.27-94.891 62.895-151.84 62.895s-111.57-22.625-151.84-62.895c-40.27-40.273-62.895-94.891-62.895-151.84 0-56.949 22.625-111.57 62.895-151.84 40.273-40.273 94.891-62.895 151.84-62.895zm-600 1028.5c-56.953 0-111.57-22.621-151.84-62.895-40.27-40.27-62.895-94.891-62.895-151.84 0-56.953 22.625-111.57 62.895-151.84 40.273-40.27 94.891-62.895 151.84-62.895s111.57 22.625 151.84 62.895c40.27 40.273 62.895 94.891 62.895 151.84 0 56.949-22.625 111.57-62.895 151.84-40.273 40.273-94.891 62.895-151.84 62.895z"/>
</svg>
