<?xml version="1.0" encoding="UTF-8"?>
<svg width="1200pt" height="1200pt" version="1.1" viewBox="0 0 1200 1200" xmlns="http://www.w3.org/2000/svg">
 <path d="m873.05 1150h-137.48l-685.55-685.55v-137.48zm-823.03-477.32v137.48l339.84 339.84h137.48zm0-172.82v137.48l512.72 512.72h137.48zm167.02 650.16h137.48l-304.5-304.5v137.48zm-98.297-1100h-68.766v68.766l1031.3 1031.3h68.766v-68.766zm1031.3 131.63v-131.63h-131.68l131.68 131.68zm-167.02-131.63h-137.48l304.5 304.5v-137.48zm-172.82 0h-137.48l477.37 477.37v-137.48zm-760.13 968.34v131.68h131.68zm587.29-968.34h-137.48l650.21 650.21v-137.48zm-345.71 0h-137.48l995.9 995.9v-137.48zm172.82 0h-137.48l823.03 823.03v-137.48zm-414.42 104.11v137.48l858.42 858.42h137.48z"/>
</svg>
