<?xml version="1.0" encoding="UTF-8"?>
<svg width="1200pt" height="1200pt" version="1.1" viewBox="0 0 1200 1200" xmlns="http://www.w3.org/2000/svg">
 <path d="m600 600c0-159.13-63.215-311.74-175.73-424.27-112.52-112.52-265.14-175.73-424.27-175.73v1200h1200c0-159.13-63.215-311.74-175.73-424.27-112.52-112.52-265.14-175.73-424.27-175.73zm-300 514.23c-56.953 0-111.57-22.621-151.84-62.895-40.27-40.27-62.895-94.891-62.895-151.84 0-56.953 22.625-111.57 62.895-151.84 40.273-40.27 94.891-62.895 151.84-62.895s111.57 22.625 151.84 62.895c40.27 40.273 62.895 94.891 62.895 151.84 0 56.949-22.625 111.57-62.895 151.84-40.273 40.273-94.891 62.895-151.84 62.895z"/>
 <path d="m1200 300c0 165.68-134.32 300-300 300s-300-134.32-300-300 134.32-300 300-300 300 134.32 300 300z"/>
</svg>
