<?xml version="1.0" encoding="UTF-8"?>
<svg width="1200pt" height="1200pt" version="1.1" viewBox="0 0 1200 1200" xmlns="http://www.w3.org/2000/svg">
 <path d="m1200 300c0-79.566-31.605-155.87-87.867-212.13-56.262-56.262-132.57-87.867-212.13-87.867s-155.87 31.605-212.13 87.867c-56.262 56.262-87.867 132.57-87.867 212.13s31.605 155.87 87.867 212.13c56.262 56.262 132.57 87.867 212.13 87.867 52.66 0 104.39-13.863 150-40.191 45.605-26.332 83.477-64.203 109.81-109.81 26.328-45.605 40.191-97.34 40.191-150z"/>
 <path d="m600 600h-600c0 159.13 63.215 311.74 175.73 424.27 112.52 112.52 265.14 175.73 424.27 175.73s311.74-63.215 424.27-175.73c112.52-112.52 175.73-265.14 175.73-424.27z"/>
 <path d="m300 212.59c-23.449 0-45.941 9.3164-62.523 25.898-16.582 16.582-25.898 39.07-25.898 62.523 0 23.449 9.3164 45.941 25.898 62.523 16.582 16.582 39.074 25.895 62.523 25.895s45.941-9.3125 62.523-25.895c16.582-16.582 25.898-39.074 25.898-62.523 0-23.453-9.3164-45.941-25.898-62.523-16.582-16.582-39.074-25.898-62.523-25.898zm0 105.6c-4.6562 0-9.1211-1.8516-12.414-5.1445-3.293-3.293-5.1445-7.7578-5.1445-12.414s1.8516-9.125 5.1445-12.418c3.293-3.293 7.7578-5.1406 12.414-5.1406s9.1211 1.8477 12.414 5.1406c3.293 3.293 5.1445 7.7617 5.1445 12.418s-1.8516 9.1211-5.1445 12.414c-3.293 3.293-7.7578 5.1445-12.414 5.1445z"/>
 <path d="m300 106.86c-51.391 0-100.68 20.414-137.02 56.754-36.34 36.34-56.754 85.625-56.754 137.02 0 51.391 20.414 100.68 56.754 137.02 36.34 36.336 85.625 56.75 137.02 56.75s100.68-20.414 137.02-56.75c36.34-36.34 56.754-85.625 56.754-137.02-0.066406-51.371-20.504-100.62-56.828-136.94-36.324-36.324-85.57-56.762-136.94-56.828zm0 317.05c-32.695 0-64.055-12.988-87.176-36.105-23.121-23.121-36.109-54.48-36.109-87.176 0-32.699 12.988-64.055 36.109-87.176 23.121-23.121 54.48-36.109 87.176-36.109s64.055 12.988 87.176 36.109c23.121 23.121 36.109 54.477 36.109 87.176-0.035156 32.684-13.035 64.023-36.148 87.137s-54.449 36.113-87.137 36.145z"/>
 <path d="m599.37 300.63c0-79.398-31.539-155.54-87.684-211.69-56.141-56.141-132.29-87.684-211.68-87.684s-155.54 31.543-211.68 87.684c-56.145 56.145-87.684 132.29-87.684 211.69 0 79.395 31.539 155.54 87.684 211.68 56.141 56.145 132.29 87.684 211.68 87.684 79.375-0.066406 155.48-31.629 211.61-87.758 56.125-56.129 87.688-132.23 87.754-211.61zm-299.37 228.88c-60.703 0-118.92-24.113-161.84-67.039-42.926-42.922-67.039-101.14-67.039-161.84 0-60.707 24.113-118.92 67.039-161.85 42.922-42.922 101.14-67.039 161.84-67.039s118.92 24.117 161.84 67.039c42.926 42.926 67.039 101.14 67.039 161.85-0.066406 60.684-24.203 118.86-67.109 161.77-42.91 42.91-101.09 67.047-161.77 67.113z"/>
</svg>
