<?xml version="1.0" encoding="UTF-8"?>
<svg width="1200pt" height="1200pt" version="1.1" viewBox="0 0 1200 1200" xmlns="http://www.w3.org/2000/svg">
 <path d="m300 0c-79.566 0-155.87 31.605-212.13 87.867-56.262 56.262-87.867 132.57-87.867 212.13h600c0-79.566-31.605-155.87-87.867-212.13-56.262-56.262-132.57-87.867-212.13-87.867z"/>
 <path d="m600 0v600c0-79.566-31.605-155.87-87.867-212.13-56.262-56.262-132.57-87.867-212.13-87.867s-155.87 31.605-212.13 87.867c-56.262 56.262-87.867 132.57-87.867 212.13 0 159.13 63.215 311.74 175.73 424.27 112.52 112.52 265.14 175.73 424.27 175.73s311.74-63.215 424.27-175.73c112.52-112.52 175.73-265.14 175.73-424.27s-63.215-311.74-175.73-424.27c-112.52-112.52-265.14-175.73-424.27-175.73z"/>
</svg>
