<?xml version="1.0" encoding="UTF-8"?>
<svg width="1200pt" height="1200pt" version="1.1" viewBox="0 0 1200 1200" xmlns="http://www.w3.org/2000/svg">
 <path d="m1112.2 687.87c117.16 117.16 117.16 307.11 0 424.27-117.16 117.16-307.11 117.16-424.27 0s-117.16-307.11 0-424.27 307.11-117.16 424.27 0z"/>
 <path d="m600 300c0 165.68-134.32 300-300 300s-300-134.32-300-300 134.32-300 300-300 300 134.32 300 300z"/>
 <path d="m600 0v600h600c0-159.13-63.215-311.74-175.73-424.27-112.52-112.52-265.14-175.73-424.27-175.73z"/>
 <path d="m600 1200v-600h-600c0 159.13 63.215 311.74 175.73 424.27 112.52 112.52 265.14 175.73 424.27 175.73z"/>
</svg>
