<?xml version="1.0" encoding="UTF-8"?>
<svg width="1200pt" height="1200pt" version="1.1" viewBox="0 0 1200 1200" xmlns="http://www.w3.org/2000/svg">
 <path d="m1200 0h-600c-159.13 0-311.74 63.215-424.27 175.73-112.52 112.52-175.73 265.14-175.73 424.27h600c-159.13 0-311.74 63.215-424.27 175.73-112.52 112.52-175.73 265.14-175.73 424.27h600c105.32 0 208.79-27.723 300-80.383 91.211-52.664 166.95-128.41 219.62-219.62 52.66-91.211 80.383-194.68 80.383-300h-599.75c159.09-0.066406 311.63-63.312 424.1-175.82 112.47-112.52 175.65-265.09 175.65-424.18z"/>
</svg>
