<?xml version="1.0" encoding="UTF-8"?>
<svg width="1200pt" height="1200pt" version="1.1" viewBox="0 0 1200 1200" xmlns="http://www.w3.org/2000/svg">
 <path d="m600 0h-600v600h600c-159.13 0-311.74 63.215-424.27 175.73-112.52 112.52-175.73 265.14-175.73 424.27h600c159.13 0 311.74-63.215 424.27-175.73 112.52-112.52 175.73-265.14 175.73-424.27s-63.215-311.74-175.73-424.27c-112.52-112.52-265.14-175.73-424.27-175.73zm-300 514.23c-56.953 0-111.57-22.621-151.84-62.895-40.27-40.27-62.895-94.891-62.895-151.84 0-56.953 22.625-111.57 62.895-151.84 40.273-40.27 94.891-62.895 151.84-62.895s111.57 22.625 151.84 62.895c40.27 40.273 62.895 94.891 62.895 151.84 0 56.949-22.625 111.57-62.895 151.84-40.273 40.273-94.891 62.895-151.84 62.895z"/>
</svg>
