<?xml version="1.0" encoding="UTF-8"?>
<svg width="1200pt" height="1200pt" version="1.1" viewBox="0 0 1200 1200" xmlns="http://www.w3.org/2000/svg">
 <path d="m1126 576.79c-102.28-72.234-139.18-100.92-173.16-201.52-11.25-33.328-32.391-62.531-60.75-83.391l-1.6875-1.2188c-15.844-11.625-33.609-20.344-52.406-26.062-114.28-34.969-140.95-68.625-215.58-174.28-12.703-18.047-32.25-18.047-44.953 0-74.625 105.66-101.3 139.31-215.58 174.28-18.797 5.7656-36.562 14.438-52.406 26.062l-1.6875 1.2188c-28.359 20.859-49.5 50.062-60.75 83.391-33.984 100.59-70.875 129.32-173.16 201.52-18.609 13.125-18.656 33.281 0 46.406 102.28 72.234 139.18 100.92 173.16 201.52 11.25 33.328 32.391 62.531 60.75 83.391l1.6875 1.2188c15.844 11.625 33.609 20.344 52.406 26.062 114.28 34.969 140.95 68.625 215.58 174.28 12.703 18.047 32.25 18.047 44.953 0 74.625-105.66 101.3-139.31 215.58-174.28 18.797-5.7656 36.562-14.438 52.406-26.062l1.6875-1.2188c28.359-20.859 49.5-50.062 60.75-83.391 33.984-100.59 70.875-129.32 173.16-201.56 18.609-13.078 18.609-33.234 0-46.359z"/>
</svg>
