<?xml version="1.0" encoding="UTF-8"?>
<svg width="1200pt" height="1200pt" version="1.1" viewBox="0 0 1200 1200" xmlns="http://www.w3.org/2000/svg">
 <path d="m934.74 163.69c-16.875-12.938-34.453-24.984-52.781-35.953v944.48c18.328-10.969 35.906-22.969 52.781-35.953z"/>
 <path d="m676.4 1144.6c17.906-2.4844 35.484-5.8594 52.781-9.9844l-0.046875-1069.2c-17.297-4.1719-34.875-7.5-52.781-9.9844v1089.2z"/>
 <path d="m420.84 80.016c-18.047 6.2344-35.672 13.312-52.781 21.281v997.4c17.109 7.9688 34.734 15.094 52.781 21.281z"/>
 <path d="m1087.5 854.58c39.844-76.125 62.484-162.71 62.484-254.58s-22.641-178.45-62.484-254.58z"/>
 <path d="m831.94 101.3c-17.109-7.9688-34.734-15.094-52.781-21.281v1040c18.047-6.2344 35.672-13.312 52.781-21.281z"/>
 <path d="m1037.5 266.81c-16.125-21.188-33.797-41.109-52.781-59.719v785.81c18.984-18.609 36.656-38.531 52.781-59.719z"/>
 <path d="m215.29 207.1c-18.984 18.609-36.656 38.531-52.781 59.719v666.37c16.125 21.188 33.797 41.109 52.781 59.719z"/>
 <path d="m626.39 50.672c-8.7656-0.42188-17.531-0.65625-26.391-0.65625s-17.625 0.23438-26.391 0.65625v1098.7c8.7656 0.42188 17.531 0.65625 26.391 0.65625s17.625-0.23438 26.391-0.65625z"/>
 <path d="m112.5 345.42c-39.844 76.125-62.484 162.71-62.484 254.58s22.641 178.45 62.484 254.58z"/>
 <path d="m265.26 1036.3c16.875 12.938 34.453 24.984 52.781 35.953v-944.53c-18.328 10.969-35.906 22.969-52.781 35.953z"/>
 <path d="m523.6 55.406c-17.906 2.4844-35.484 5.8594-52.781 9.9844v1069.2c17.297 4.1719 34.875 7.5 52.781 9.9844z"/>
</svg>
