<?xml version="1.0" encoding="UTF-8"?>
<svg width="1200pt" height="1200pt" version="1.1" viewBox="0 0 1200 1200" xmlns="http://www.w3.org/2000/svg">
 <path d="m1080 600c0-73.891-53.496-135.15-123.84-147.53 40.992-58.488 35.5-139.64-16.75-191.89s-133.39-57.742-191.88-16.75c-12.375-70.34-73.637-123.84-147.53-123.84s-135.15 53.496-147.53 123.84c-58.488-40.992-139.64-35.5-191.88 16.75-52.25 52.25-57.738 133.39-16.75 191.89-70.344 12.371-123.84 73.633-123.84 147.52s53.496 135.15 123.84 147.53c-40.992 58.488-35.5 139.64 16.75 191.88 52.25 52.25 133.39 57.742 191.88 16.75 12.379 70.344 73.641 123.84 147.53 123.84s135.15-53.496 147.53-123.84c58.488 40.992 139.64 35.5 191.88-16.75 52.25-52.25 57.742-133.39 16.75-191.88 70.344-12.375 123.84-73.637 123.84-147.53zm-480 256.05c-141.42 0-256.06-114.64-256.06-256.05 0-141.42 114.64-256.06 256.06-256.06s256.06 114.64 256.06 256.06-114.64 256.05-256.06 256.05z"/>
</svg>
